<svg height="64" viewBox="0 0 64 64" width="64" xmlns="http://www.w3.org/2000/svg"><g fill="#1a1a1a"><path d="m57.74 9.86a16.22 16.22 0 0 0 -24.06-.14l-1.68 1.75-1.62-1.75a16.21 16.21 0 0 0 -23.92 0 18.41 18.41 0 0 0 -5 12.71 18.43 18.43 0 0 0 5 12.71l21.14 22.46a6 6 0 0 0 8.86 0l21-22.32a19 19 0 0 0 .28-25.42zm-2.49 23.07-21 22.32a3 3 0 0 1 -4.43 0l-21.15-22.47a15.29 15.29 0 0 1 0-20.71 13.22 13.22 0 0 1 19.5 0l1.65 1.76-2.53 2.69a1.74 1.74 0 0 0 0 2.35 1.53 1.53 0 0 0 1.11.49 1.51 1.51 0 0 0 1.1-.49l6.4-6.8a13.21 13.21 0 0 1 19.6.12 15.45 15.45 0 0 1 -.25 20.74z"/><path d="m57.05 21.67a12.45 12.45 0 0 0 -3.32-7.83 11.27 11.27 0 0 0 -5-3.12 1.54 1.54 0 0 0 -1.92 1.16 1.68 1.68 0 0 0 1.08 2 8.17 8.17 0 0 1 3.64 2.26 9.09 9.09 0 0 1 2.41 5.69 1.61 1.61 0 0 0 1.56 1.56h.1a1.62 1.62 0 0 0 1.45-1.72z"/></g></svg>