<svg height="64" viewBox="0 0 64 64" width="64" xmlns="http://www.w3.org/2000/svg"><g fill="#1a1a1a"><path d="m33.58 25.24a8 8 0 1 0 7.92 8 8 8 0 0 0 -7.92-8zm-.1 12.93a5 5 0 1 1 5-4.92 5 5 0 0 1 -5 4.92z"/><path d="m62.77 19.63c.62-4.31 0-8-1.87-10.72a5.21 5.21 0 0 0 .49-2.2 5.36 5.36 0 0 0 -10.01-2.71c-5.06-.29-11.26 1.53-17.69 5.18-10.89-6.4-20.78-7.18-25.96-2.13a12.69 12.69 0 0 0 -3.45 9.26 5.37 5.37 0 0 0 2.05 10.31h.09a47.85 47.85 0 0 0 3.07 6.38c-6.4 10.93-7.23 20.83-2.13 26 2.25 2.28 5.44 3.42 9.24 3.45 4.81 0 10.61-1.72 16.75-5.21 6.08 3.58 11.86 5.42 16.67 5.45a12.67 12.67 0 0 0 9.29-3.32c5.17-5.1 4.48-15-1.76-26a38.86 38.86 0 0 0 5.22-13.74zm-6.77-15.3a2.35 2.35 0 1 1 -2.36 2.33 2.35 2.35 0 0 1 2.36-2.33zm-5.33 2.67a5.38 5.38 0 0 0 5.33 5 5.28 5.28 0 0 0 2.81-.78 12.85 12.85 0 0 1 1 7.94 34.18 34.18 0 0 1 -4 11.23 68.29 68.29 0 0 0 -8.61-10.64 67.7 67.7 0 0 0 -10.58-8.75c5.17-2.71 10.04-4.1 14.05-4zm-44.32 16.6a2.35 2.35 0 1 1 2.36-2.33 2.35 2.35 0 0 1 -2.36 2.33zm3 2.13a5.36 5.36 0 0 0 -2.05-9.73 9.66 9.66 0 0 1 2.55-6.8c3.89-3.83 11.93-3.09 20.89 1.8a70.13 70.13 0 0 0 -19.41 19.11 41.32 41.32 0 0 1 -2.01-4.38zm.19 31.15c-3.86-3.88-3.13-11.88 1.75-20.88a68.35 68.35 0 0 0 8.61 10.64 68.19 68.19 0 0 0 10.52 8.76c-9.02 4.75-17.08 5.37-20.91 1.48zm12.51-12.36a63.35 63.35 0 0 1 -9-11.46 63.69 63.69 0 0 1 9.21-11.32 63.3 63.3 0 0 1 11.45-9 64.13 64.13 0 0 1 11.29 9.17 63.64 63.64 0 0 1 9 11.45 63.69 63.69 0 0 1 -9.21 11.32 64.16 64.16 0 0 1 -11.45 9 64.58 64.58 0 0 1 -11.29-9.16zm35.14 12.7c-3.89 3.83-11.94 3.1-20.89-1.77a67.9 67.9 0 0 0 10.64-8.62 67.7 67.7 0 0 0 8.77-10.52c4.74 9.02 5.37 17.08 1.48 20.91z"/></g></svg>