<svg xmlns="http://www.w3.org/2000/svg" width="191.1" height="69.33" viewBox="0 0 191.1 69.33">
  <g id="ad1d6db5-3cb3-4a78-b48e-6b5e4836c9f1" data-name="Layer 2">
    <g id="aa1ec97f-2e91-4b74-b2ec-f360d5c9e1c6" data-name="Layer 1">
      <g>
        <g>
          <path d="M93,32.61H89.52V13.26H93Z" style="fill: rgba(255,255,255,0.9)"/>
          <path d="M103.09,31.36A5.42,5.42,0,0,1,99,32.87c-2.83,0-5.43-1.43-5.43-4.35s2.52-3.79,5.49-4.05c2.23-.21,3.82-.47,3.82-1.56,0-.7-.91-1.28-2.45-1.28-1.22,0-2.62.55-2.93,1.69H94c.34-2.54,2.79-4.44,6.3-4.44,5.43,0,5.85,3.51,5.85,4.57v7a7.89,7.89,0,0,0,.39,2.19h-3.15A4.8,4.8,0,0,1,103.09,31.36Zm-.1-5.2a8,8,0,0,1-3.25.86c-1.69.18-2.73.54-2.73,1.53,0,.75.88,1.27,2.26,1.27,2,0,3.72-.7,3.72-2.41Z" style="fill: rgba(255,255,255,0.9)"/>
          <path d="M115,32.89a5.55,5.55,0,0,1-4.08-1.71v1.43h-3.3V13.26h3.45v7.23A5.58,5.58,0,0,1,115,18.93c3.51,0,6.37,3,6.37,7S118.51,32.89,115,32.89Zm-.49-10.79A3.66,3.66,0,0,0,111.07,26a3.45,3.45,0,1,0,6.87,0A3.63,3.63,0,0,0,114.51,22.1Z" style="fill: rgba(255,255,255,0.9)"/>
          <path d="M127.32,32.92c-3.4,0-5.92-1.8-6.34-4.68h3.48a3,3,0,0,0,2.86,1.56c1.38,0,2.42-.42,2.42-1.2s-.47-1.06-2.81-1.43-5.59-1-5.59-4c0-2.11,1.85-4.29,5.72-4.29,3.07,0,5.36,1.66,5.8,4.18H129.3c-.21-.62-1-1.11-2.24-1.11-1.58,0-2.23.57-2.23,1.06,0,.7,1,.94,2.65,1.2,3.33.54,5.72,1.27,5.72,4.18C133.2,31.05,130.76,32.92,127.32,32.92Z" style="fill: rgba(255,255,255,0.9)"/>
          <path d="M98.65,55.07A5.71,5.71,0,0,1,94,56.92c-2.75,0-5.22-1.25-5.22-4.14s2-4,5.46-4.18c3.27-.16,4.34-.76,4.34-1.82s-1-1.87-3.28-1.87c-1.4,0-3.25.44-3.48,2.39H89.57c.16-2.68,2.37-4.42,5.8-4.42,3.59,0,5.41,1.66,5.41,4.16v7.38a7.06,7.06,0,0,0,.39,2.19H99A3.82,3.82,0,0,1,98.65,55.07Zm0-5.67c-.88.78-2.47,1-4.05,1.07-2.92.18-3.57,1.2-3.57,2.31,0,1.46,1.41,2.08,3.12,2.08,2.29,0,4.45-1,4.5-3.4Z" style="fill: rgba(255,255,255,0.9)"/>
          <path d="M108.94,56.92a7,7,0,0,1,0-14,6.4,6.4,0,0,1,6.24,4.47h-2.36a4.31,4.31,0,0,0-3.88-2.44,5,5,0,0,0,0,10,4.26,4.26,0,0,0,3.88-2.44h2.36A6.38,6.38,0,0,1,108.94,56.92Z" style="fill: rgba(255,255,255,0.9)"/>
          <path d="M125.66,55.07a5.69,5.69,0,0,1-4.6,1.85c-2.76,0-5.23-1.25-5.23-4.14s2-4,5.46-4.18c3.28-.16,4.34-.76,4.34-1.82s-1-1.87-3.27-1.87c-1.41,0-3.25.44-3.49,2.39h-2.28c.15-2.68,2.36-4.42,5.79-4.42,3.59,0,5.41,1.66,5.41,4.16v7.38a7.06,7.06,0,0,0,.39,2.19H126A4.18,4.18,0,0,1,125.66,55.07Zm0-5.67c-.88.78-2.47,1-4,1.07-2.91.18-3.56,1.2-3.56,2.31,0,1.46,1.4,2.08,3.12,2.08,2.28,0,4.44-1,4.49-3.4Z" style="fill: rgba(255,255,255,0.9)"/>
          <path d="M142.72,56.61h-2.14V54.45A5.69,5.69,0,0,1,136,56.94a7,7,0,0,1,0-14.06,5.79,5.79,0,0,1,4.55,2.36v-8h2.21ZM136,44.93a4.75,4.75,0,0,0-4.5,5,4.73,4.73,0,0,0,4.5,5,5,5,0,0,0,0-10Z" style="fill: rgba(255,255,255,0.9)"/>
          <path d="M157.41,52.45a6.26,6.26,0,0,1-6.32,4.47,7,7,0,0,1-.13-14c3.46,0,6.78,2.86,6.76,7.62H146.46a4.71,4.71,0,0,0,4.63,4.42,4.13,4.13,0,0,0,4-2.47Zm-2.14-3.93A4.6,4.6,0,0,0,151,44.88a4.65,4.65,0,0,0-4.37,3.64Z" style="fill: rgba(255,255,255,0.9)"/>
          <path d="M178.1,56.61h-2.21V48.26c0-2.08-1-3.35-3-3.35a3.25,3.25,0,0,0-3.15,3.51v8.19h-2.18V48.26c0-2.08-1-3.35-3-3.35a3.27,3.27,0,0,0-3.17,3.51v8.19h-2.21V43.21h2.13v1.46a4.35,4.35,0,0,1,3.57-1.79A4.54,4.54,0,0,1,169,45.17a4.69,4.69,0,0,1,4.19-2.29c3.09,0,5,2.1,5,5.43Z" style="fill: rgba(255,255,255,0.9)"/>
          <path d="M185.1,59.18c-.94,2.5-2.42,3.51-5.1,3.22v-2a2.52,2.52,0,0,0,3-2l.7-1.87-5.12-13.32H181l3.9,10.67,3.83-10.67h2.36Z" style="fill: rgba(255,255,255,0.9)"/>
        </g>
        <path d="M40,0,0,69.33H80Zm8.62,42,4-6.94h0V53h0l-.86-1.49L47.46,44ZM46.67,45.4h0l1.75,3,3.35,5.83H41.59l5.08-8.87ZM40,33.79h0l3.38,5.88L45.89,44l-1.56,2.72L40,54.27h0L34.13,44ZM38.43,54.27H28.23l5.1-8.87Zm-11-19.19,5.15,9L27.4,53ZM25.52,58.93,26.61,57H53.4l.88,1.54.21.35h-29Z" style="fill: rgba(255,255,255,0.9)"/>
      </g>
    </g>
  </g>
</svg>
