<svg xmlns="http://www.w3.org/2000/svg" width="400" height="400" viewBox="0 0 400 400">
  <g id="efa39b7f-82f6-4ebb-99bc-a9a9c4844f62" data-name="Layer 2">
    <g id="bf1f940d-3002-4206-ba3b-de19acef68a2" data-name="Layer 1">
      <g>
        <polygon points="247.25 201.55 227.95 235.15 247.25 268.75 247.25 201.55" style="fill: rgba(26,26,26,0.7)"/>
        <polygon points="145.68 291 254.3 291 250.22 283.9 149.75 283.9 145.68 291" style="fill: rgba(26,26,26,0.7)"/>
        <polygon points="194.1 273.5 174.98 240.25 155.85 273.5 194.1 273.5" style="fill: rgba(26,26,26,0.7)"/>
        <path d="M0,0V400H400V0ZM50,330,200,70,350,330Z" style="fill: rgba(26,26,26,0.7)"/>
        <polygon points="152.72 201.55 152.72 268.75 172.03 235.15 152.72 201.55" style="fill: rgba(26,26,26,0.7)"/>
        <polygon points="244.13 273.5 225 240.25 205.95 273.5 244.13 273.5" style="fill: rgba(26,26,26,0.7)"/>
        <polygon points="200.03 273.5 222.07 235.1 200.03 196.68 177.95 235.1 200.03 273.5" style="fill: rgba(26,26,26,0.7)"/>
      </g>
    </g>
  </g>
</svg>
