<svg height="30.54" viewBox="0 0 194.42 30.54" width="194.42" xmlns="http://www.w3.org/2000/svg"><g fill="#1a1a1a"><path d="m47.21 24.7h-3.43v-19.35h3.43z"/><path d="m57.35 23.45a5.42 5.42 0 0 1 -4.11 1.55c-2.83 0-5.43-1.43-5.43-4.35s2.52-3.79 5.48-4.05c2.24-.21 3.83-.47 3.83-1.56 0-.7-.91-1.28-2.45-1.28-1.22 0-2.62.55-2.93 1.69h-3.44c.34-2.54 2.79-4.44 6.29-4.44 5.44 0 5.86 3.51 5.86 4.57v7a7.89 7.89 0 0 0 .39 2.19h-3.15a4.8 4.8 0 0 1 -.34-1.32zm-.1-5.2a8 8 0 0 1 -3.25.86c-1.69.18-2.73.54-2.73 1.53 0 .75.88 1.27 2.26 1.27 2 0 3.72-.7 3.72-2.41z"/><path d="m69.26 25a5.55 5.55 0 0 1 -4.08-1.71v1.41h-3.31v-19.35h3.46v7.23a5.57 5.57 0 0 1 3.93-1.58c3.51 0 6.37 3 6.37 7s-2.86 7-6.37 7zm-.5-10.79a3.66 3.66 0 0 0 -3.43 3.79 3.45 3.45 0 1 0 6.87 0 3.63 3.63 0 0 0 -3.44-3.81z"/><path d="m81.58 25c-3.4 0-5.92-1.8-6.34-4.68h3.48a3 3 0 0 0 2.86 1.56c1.38 0 2.42-.42 2.42-1.2s-.47-1.06-2.81-1.43-5.59-1-5.59-4c0-2.11 1.85-4.29 5.72-4.29 3.07 0 5.36 1.66 5.8 4.18h-3.56c-.21-.62-1-1.11-2.24-1.11-1.58 0-2.23.57-2.23 1.06 0 .7 1 .94 2.65 1.2 3.33.54 5.72 1.27 5.72 4.18 0 2.67-2.46 4.53-5.88 4.53z"/><path d="m102 23.16a5.69 5.69 0 0 1 -4.63 1.84c-2.76 0-5.23-1.25-5.23-4.14s2-4 5.46-4.18c3.28-.16 4.34-.76 4.34-1.82s-1-1.87-3.27-1.87c-1.41 0-3.25.44-3.49 2.39h-2.29c.16-2.68 2.37-4.42 5.8-4.42 3.59 0 5.41 1.66 5.41 4.16v7.38a7.06 7.06 0 0 0 .39 2.19h-2.18a3.82 3.82 0 0 1 -.31-1.53zm0-5.67c-.88.78-2.47 1-4 1.07-2.92.18-3.57 1.2-3.57 2.31 0 1.46 1.41 2.08 3.12 2.08 2.29 0 4.45-1 4.5-3.4z"/><path d="m112.26 25a6.85 6.85 0 0 1 -6.7-7 6.89 6.89 0 0 1 6.7-7 6.4 6.4 0 0 1 6.24 4.47h-2.36a4.3 4.3 0 0 0 -3.88-2.47 4.79 4.79 0 0 0 -4.49 5 4.75 4.75 0 0 0 4.49 5 4.26 4.26 0 0 0 3.88-2.44h2.36a6.38 6.38 0 0 1 -6.24 4.44z"/><path d="m129 23.16a5.69 5.69 0 0 1 -4.6 1.85c-2.76 0-5.23-1.25-5.23-4.14s2-4 5.46-4.18c3.28-.16 4.35-.76 4.35-1.82s-1-1.87-3.28-1.87c-1.4 0-3.25.44-3.48 2.39h-2.29c.15-2.68 2.36-4.42 5.8-4.42s5.4 1.66 5.4 4.16v7.38a7.36 7.36 0 0 0 .39 2.19h-2.18a4.18 4.18 0 0 1 -.34-1.54zm0-5.67c-.89.78-2.47 1-4.06 1.07-2.91.18-3.56 1.2-3.56 2.31 0 1.46 1.4 2.08 3.12 2.08 2.29 0 4.44-1 4.5-3.4z"/><path d="m146 24.7h-2.13v-2.16a5.72 5.72 0 0 1 -4.59 2.46 6.78 6.78 0 0 1 -6.71-7 6.8 6.8 0 0 1 6.71-7 5.78 5.78 0 0 1 4.55 2.36v-8h2.17zm-6.72-11.7a4.75 4.75 0 0 0 -4.5 5 4.73 4.73 0 0 0 4.5 5 4.81 4.81 0 0 0 4.55-5 4.83 4.83 0 0 0 -4.55-5z"/><path d="m160.73 20.54a6.26 6.26 0 0 1 -6.32 4.46 6.86 6.86 0 0 1 -6.87-7 6.91 6.91 0 0 1 6.74-7c3.46 0 6.79 2.86 6.76 7.62h-11.26a4.71 4.71 0 0 0 4.63 4.38 4.13 4.13 0 0 0 4-2.47zm-2.14-3.93a4.6 4.6 0 0 0 -4.31-3.61 4.65 4.65 0 0 0 -4.37 3.64z"/><path d="m181.42 24.7h-2.21v-8.35c0-2.08-1-3.35-3-3.35a3.24 3.24 0 0 0 -3.21 3.51v8.19h-2.19v-8.35c0-2.08-1-3.35-3-3.35a3.27 3.27 0 0 0 -3.18 3.51v8.19h-2.21v-13.39h2.14v1.45a4.34 4.34 0 0 1 3.58-1.76 4.53 4.53 0 0 1 4.13 2.29 4.69 4.69 0 0 1 4.19-2.29c3.09 0 5 2.1 5 5.43z"/><path d="m188.42 27.27c-.94 2.5-2.42 3.51-5.1 3.22v-2a2.52 2.52 0 0 0 3-2l.7-1.87-5.12-13.31h2.4l3.94 10.69 3.82-10.66h2.36z"/><path d="m17.31 0-17.31 30h34.62zm3.69 18.18 1.72-3v7.75l-.37-.64-1.86-3.23zm-.84 1.46.84 1.36 1.45 2.52h-4.45l2.21-3.84zm-2.89-5 1.46 2.54 1.09 1.89-.68 1.18-1.87 3.25-2.54-4.43zm-.68 8.86h-4.37l2.2-3.84zm-4.77-8.3 2.22 3.88-2.22 3.87zm-.82 10.3.47-.82h11.63l.39.67.09.15z"/></g></svg>