<svg xmlns="http://www.w3.org/2000/svg" width="120" height="172.41" viewBox="0 0 120 172.41">
  <g id="ae978d2c-690c-4c49-b111-e0d8877f099f" data-name="Layer 2">
    <g id="b45fc6e6-a1c4-433d-b42a-5b8b20235547" data-name="Layer 1">
      <g>
        <g>
          <path d="M11.39,142.56H8V123.22h3.43Z" style="fill: rgba(255,255,255,1.0)"/>
          <path d="M21.53,141.31a5.4,5.4,0,0,1-4.11,1.51c-2.83,0-5.43-1.43-5.43-4.34s2.52-3.8,5.48-4.06c2.24-.21,3.83-.47,3.83-1.56,0-.7-.91-1.27-2.45-1.27-1.22,0-2.62.54-2.94,1.69H12.48c.34-2.55,2.78-4.45,6.29-4.45,5.44,0,5.85,3.51,5.85,4.58v7a8.2,8.2,0,0,0,.39,2.18H21.87A4.69,4.69,0,0,1,21.53,141.31Zm-.1-5.2a8,8,0,0,1-3.25.86c-1.69.18-2.73.55-2.73,1.53,0,.76.88,1.28,2.26,1.28,2.05,0,3.72-.7,3.72-2.42Z" style="fill: rgba(255,255,255,1.0)"/>
          <path d="M33.44,142.85a5.56,5.56,0,0,1-4.08-1.72v1.43H26.05V123.22h3.46v7.22a5.61,5.61,0,0,1,3.93-1.56c3.51,0,6.37,3,6.37,7S37,142.85,33.44,142.85Zm-.5-10.79a3.83,3.83,0,0,0,0,7.61,3.58,3.58,0,0,0,3.44-3.77A3.62,3.62,0,0,0,32.94,132.06Z" style="fill: rgba(255,255,255,1.0)"/>
          <path d="M45.76,142.87c-3.4,0-5.93-1.79-6.34-4.68H42.9a3,3,0,0,0,2.86,1.56c1.38,0,2.42-.41,2.42-1.19s-.47-1.07-2.81-1.43-5.59-1-5.59-4c0-2.1,1.85-4.29,5.72-4.29,3.07,0,5.36,1.67,5.8,4.19H47.74c-.21-.63-1-1.12-2.24-1.12-1.58,0-2.23.57-2.23,1.07,0,.7,1,.93,2.65,1.19,3.33.55,5.72,1.28,5.72,4.19C51.64,141,49.19,142.87,45.76,142.87Z" style="fill: rgba(255,255,255,1.0)"/>
          <path d="M17.09,165a5.72,5.72,0,0,1-4.61,1.84c-2.75,0-5.22-1.25-5.22-4.13s2-4,5.46-4.19c3.27-.15,4.34-.75,4.34-1.82s-1-1.87-3.28-1.87c-1.4,0-3.25.44-3.48,2.39H8c.16-2.68,2.37-4.42,5.8-4.42,3.59,0,5.41,1.67,5.41,4.16v7.39a7,7,0,0,0,.39,2.18H17.42A4,4,0,0,1,17.09,165Zm0-5.67c-.88.78-2.47,1-4.06,1.06-2.91.19-3.56,1.2-3.56,2.32,0,1.45,1.4,2.08,3.12,2.08,2.29,0,4.45-1,4.5-3.41Z" style="fill: rgba(255,255,255,1.0)"/>
          <path d="M27.38,166.87a7,7,0,0,1,0-14,6.4,6.4,0,0,1,6.24,4.47H31.25a4.31,4.31,0,0,0-3.87-2.44,4.8,4.8,0,0,0-4.5,5,4.75,4.75,0,0,0,4.5,5,4.22,4.22,0,0,0,3.87-2.44h2.37A6.38,6.38,0,0,1,27.38,166.87Z" style="fill: rgba(255,255,255,1.0)"/>
          <path d="M44.1,165a5.69,5.69,0,0,1-4.6,1.84c-2.76,0-5.23-1.25-5.23-4.13s2-4,5.46-4.19c3.28-.15,4.34-.75,4.34-1.82s-1-1.87-3.27-1.87c-1.41,0-3.25.44-3.49,2.39H35c.16-2.68,2.37-4.42,5.8-4.42,3.59,0,5.41,1.67,5.41,4.16v7.39a7,7,0,0,0,.39,2.18H44.44A3.8,3.8,0,0,1,44.1,165Zm0-5.67c-.88.78-2.47,1-4,1.06-2.92.19-3.57,1.2-3.57,2.32,0,1.45,1.41,2.08,3.12,2.08,2.29,0,4.45-1,4.5-3.41Z" style="fill: rgba(255,255,255,1.0)"/>
          <path d="M61.15,166.56H59V164.4a5.7,5.7,0,0,1-4.63,2.5,7,7,0,0,1,0-14.07,5.77,5.77,0,0,1,4.55,2.37v-8h2.21Zm-6.76-11.67a5,5,0,0,0,0,10,5,5,0,0,0,0-10Z" style="fill: rgba(255,255,255,1.0)"/>
          <path d="M75.84,162.4a6.24,6.24,0,0,1-6.31,4.47,7,7,0,0,1-.13-14c3.45,0,6.78,2.86,6.76,7.62H64.9a4.7,4.7,0,0,0,4.63,4.42,4.11,4.11,0,0,0,4-2.47Zm-2.13-3.93a4.6,4.6,0,0,0-4.31-3.64A4.66,4.66,0,0,0,65,158.47Z" style="fill: rgba(255,255,255,1.0)"/>
          <path d="M96.54,166.56H94.33v-8.35c0-2.08-1-3.35-3-3.35a3.26,3.26,0,0,0-3.15,3.51v8.19H86v-8.35c0-2.08-1-3.35-3-3.35a3.27,3.27,0,0,0-3.17,3.51v8.19H77.56V153.17h2.13v1.46a4.34,4.34,0,0,1,3.56-1.8,4.54,4.54,0,0,1,4.14,2.29,4.68,4.68,0,0,1,4.18-2.29c3.1,0,5,2.11,5,5.44Z" style="fill: rgba(255,255,255,1.0)"/>
          <path d="M103.53,169.13c-.93,2.5-2.41,3.51-5.09,3.23v-2a2.52,2.52,0,0,0,3-2l.7-1.87-5.12-13.31h2.39l3.9,10.66,3.82-10.66h2.37Z" style="fill: rgba(255,255,255,1.0)"/>
        </g>
        <path d="M60,0,0,104H120ZM72.93,63l6-10.42h0V79.5h0l-1.29-2.24-6.43-11.2ZM70,68.1h0l2.62,4.56,5,8.74H62.38L70,68.1ZM60,50.68h0l5.07,8.82L68.84,66l-2.35,4.09L60,81.41h0L51.19,66ZM57.64,81.4H42.35L50,68.1ZM41.1,52.62l7.72,13.44L41.1,79.5ZM38.28,88.4l1.63-2.83H80.09l1.33,2.3.31.53H38.28Z" style="fill: rgba(255,255,255,1.0)"/>
      </g>
    </g>
  </g>
</svg>
