<svg id="f4bee1d3-68dd-4ba4-b7ea-ff61e9253876" data-name="outline" xmlns="http://www.w3.org/2000/svg" width="200" height="250" viewBox="0 0 200 250">
  <path d="M6.87,170.5H68.52C68.74,183.6,81.29,193,98.91,193c17,0,28.84-9.8,28.62-23.78.22-13.65-13.65-23.34-33.47-23.34H71.16V103.56h22.9c18.28,0,31.05-9.69,30.83-23.34.22-13.1-10.57-22.46-26-22.46-16.85,0-28.85,9.69-29.07,23.34H11.27c.22-41.28,36.55-70.45,87.64-70.45,50,0,85.21,27.63,85,65.61.22,25.21-19.38,42.49-46.24,45.36v1.76c36.33,4,54.82,23.45,54.6,51.08.22,39.75-38.64,67.82-93.79,67.82C45.07,242.28,7.09,212.55,6.87,170.5Z" style="fill: none;stroke: red;stroke-miterlimit: 10"/>
</svg>
