<svg id="ae050a0c-9801-484d-be7b-912514324a59" data-name="Layer 1" xmlns="http://www.w3.org/2000/svg" width="200" height="250" viewBox="0 0 200 250">
  <path d="M.86,171.79H64.5C64.73,185.31,77.68,195,95.86,195c17.5,0,29.77-10.11,29.54-24.54.23-14.09-14.09-24.09-34.54-24.09H67.23V102.7H90.86c18.86,0,32-10,31.82-24.09.22-13.52-10.91-23.18-26.82-23.18-17.39,0-29.77,10-30,24.09H5.41C5.64,36.91,43.13,6.8,95.86,6.8c51.59,0,88,28.52,87.72,67.72.23,26-20,43.86-47.72,46.82v1.82c37.5,4.09,56.59,24.2,56.36,52.72.23,41-39.88,70-96.81,70C40.29,245.88,1.09,215.2.86,171.79Z" style="fill: red"/>
</svg>
