<svg id="aefcf974-8e8b-48c5-8fb7-ead8af150682" data-name="outline" xmlns="http://www.w3.org/2000/svg" width="200" height="250" viewBox="0 0 200 250">
  <path d="M12.15,170.5H71.6C72,186.13,85.36,196,101.55,196c18.71,0,31.81-12.88,31.7-32.59.11-19.7-13-32.58-31.7-32.58-13,0-24.77,6.6-29.95,17.61L17.88,137.91l8.8-124.18H178.17V62.61H76.89l-4.41,49.76H73.8c7-13.65,25.55-23.78,48.45-23.78,40.18,0,70.12,30.28,70,73.1.11,47.23-35.78,80.59-90.71,80.59C49.58,242.28,12.48,212.55,12.15,170.5Z" style="fill: none;stroke: red;stroke-miterlimit: 10"/>
</svg>
