<svg id="e3090ea8-771d-402b-8e7c-66551d0e4319" data-name="Layer 1" xmlns="http://www.w3.org/2000/svg" width="200" height="250" viewBox="0 0 200 250">
  <path d="M1.32,171.79H62.68c.45,16.14,14.2,26.36,30.91,26.36,19.31,0,32.84-13.29,32.72-33.63.12-20.34-13.41-33.64-32.72-33.64-13.41,0-25.57,6.82-30.91,18.18L7.23,138.15,16.32,10H172.67V60.43H68.13l-4.54,51.36H65c7.27-14.09,26.36-24.54,50-24.54,41.48,0,72.38,31.25,72.27,75.45.11,48.75-36.93,83.18-93.63,83.18C40,245.88,1.66,215.2,1.32,171.79Z" style="fill: red"/>
</svg>
