<svg id="e745a0f2-9852-4ad9-8eab-e53a9f8e163b" data-name="outline" xmlns="http://www.w3.org/2000/svg" width="200" height="250" viewBox="0 0 200 250">
  <path d="M5.33,129.1c.22-74,39.08-119.34,98.2-119.34,49.76,0,83.34,31.93,87.19,71.34H130.39c-2.75-13.65-14-19.37-26.86-19.37-25.76,0-37.21,24.33-37.43,61.65h1.32c8.59-20.7,31.93-33,57.69-33,40.84,0,68.47,30.06,68.25,71.34.22,48.55-37,80.59-90.27,80.59C50.46,242.28,5.55,211,5.33,129.1Zm128.59,34.79c.21-18.6-13-32.14-31.27-32.14-17.84,0-31.05,13.54-31.27,32.14C71.6,182.5,84.81,196,102.65,196,120.92,196,134.13,182.5,133.92,163.89Z" style="fill: none;stroke: red;stroke-miterlimit: 10"/>
</svg>
