<svg id="b34c7371-b7be-42ac-8d18-7d2263d1f4d0" data-name="Layer 1" xmlns="http://www.w3.org/2000/svg" width="200" height="250" viewBox="0 0 200 250">
  <path d="M1.27,129.06C1.5,52.7,41.61,5.89,102.63,5.89c51.36,0,86,33,90,73.63H130.36c-2.84-14.09-14.43-20-27.73-20C76,59.52,64.22,84.63,64,123.16h1.36c8.86-21.37,33-34.09,59.54-34.09,42.16,0,70.68,31,70.46,73.63.22,50.11-38.18,83.18-93.18,83.18C47.86,245.88,1.5,213.61,1.27,129.06ZM134,165c.23-19.2-13.4-33.18-32.27-33.18-18.41,0-32,14-32.27,33.18.23,19.21,13.86,33.18,32.27,33.18C120.59,198.15,134.22,184.18,134,165Z" style="fill: red"/>
</svg>
