<svg id="efcf1495-1f27-4584-8bf7-58b5bee2402a" data-name="Layer 1" xmlns="http://www.w3.org/2000/svg" width="200" height="250" viewBox="0 0 200 250">
  <path d="M1.27,179.52c0-28.75,23.75-51.82,54.09-56.36v-1.82C28.89,116.79,9.91,95.88,9.91,70,9.91,33.5,47.63,6.8,99,6.8S188.08,33.61,188.08,70c0,26-19.43,46.81-45.45,51.36v1.82c29.89,4.54,54.09,27.61,54.09,56.36,0,37.72-41.36,66.36-97.72,66.36S1.27,217.24,1.27,179.52Zm128.63-5.46c0-16-13.06-27.72-30.9-27.72s-30.91,11.59-30.91,27.72S81.16,202.24,99,202.24,129.9,190.31,129.9,174.06Zm-3.63-96.81c0-14.43-11.48-25-27.27-25s-27.28,10.45-27.28,25S83.2,102.7,99,102.7,126.27,91.91,126.27,77.25Z" style="fill: red"/>
</svg>
