<svg id="e4514f97-1c3d-4532-9acd-05d75dbdd121" data-name="outline" xmlns="http://www.w3.org/2000/svg" width="200" height="250" viewBox="0 0 200 250">
  <path d="M5.33,178c0-27.85,23-50.2,52.4-54.6v-1.76c-25.65-4.41-44-24.66-44-49.76,0-35.34,36.55-61.21,86.31-61.21s86.31,26,86.31,61.21c0,25.21-18.83,45.35-44,49.76v1.76c29,4.4,52.41,26.75,52.41,54.6,0,36.56-40.08,64.3-94.68,64.3S5.33,214.54,5.33,178ZM130,172.7c0-15.52-12.66-26.86-29.94-26.86S70.06,157.07,70.06,172.7,82.72,200,100,200,130,188.44,130,172.7Zm-3.52-93.8c0-14-11.12-24.22-26.42-24.22S73.58,64.81,73.58,78.9,84.7,103.56,100,103.56,126.43,93.1,126.43,78.9Z" style="fill: none;stroke: red;stroke-miterlimit: 10"/>
</svg>
