<svg height="170" viewBox="0 0 258.67 170" width="258.67" xmlns="http://www.w3.org/2000/svg"><g fill="#fff"><path d="m167.33 78.35a76.64 76.64 0 0 0 -25-55.29c-30.57-28.23-74.28-30.47-104.42-7.12a74.57 74.57 0 0 0 -18.29 16.06c-11.88 13-19.62 31-19.62 54.54 0 18.46 7.94 36.36 20.4 50.58a79.87 79.87 0 0 0 64.46 32.88 78.44 78.44 0 0 0 68.73-40.83 83 83 0 0 0 7.6-18.88 78.9 78.9 0 0 0 6.14-31.94zm-82.54-75.73c19.56 0 39.55 7.45 55.73 22.39a74.1 74.1 0 0 1 23.48 65.36c0-1.16-.06-2.31-.1-3.46a76.53 76.53 0 0 0 -40.42-71.28 86.59 86.59 0 0 0 -31-10 80.15 80.15 0 0 0 -31.48.89 75.12 75.12 0 0 1 23.79-3.9zm12.21 158.12c-1 .17-2 .26-3 .39a77.34 77.34 0 0 0 7.73-1.82c.66-.2 1.29-.48 1.94-.69l.9-.16a75.34 75.34 0 0 1 -7.57 2.28zm28-13.05-.23.12a82.15 82.15 0 0 0 33.7-68.17c.21 2.28.36 4.57.36 6.9 0 14.56-5.14 28.82-13.59 41.05a88.16 88.16 0 0 1 -20.24 20.1zm-117.32-69.34a81.3 81.3 0 0 0 25.78 60.27 80 80 0 0 0 53.4 21.67 74.16 74.16 0 0 1 -19.67-.91 80.88 80.88 0 0 1 -19-7.39c-25.25-13.76-40-40.13-41-67.3.05-2.12.22-4.23.49-6.34zm82.32 79.29c-20 .61-39.4-6.86-54.68-21-21.81-20.08-29.51-50.49-22.59-77.64a75.4 75.4 0 0 1 3.8-8c20.28-36.37 66.52-48.38 105.28-27.26a76.36 76.36 0 0 1 24.92 21.67 76.58 76.58 0 0 1 4.14 7.35 75.56 75.56 0 0 1 3.23 9.24 78 78 0 0 1 -7.6 58.52 78 78 0 0 1 -36.57 33.74 74 74 0 0 1 -19.93 3.38zm-50.7-138.13a86.32 86.32 0 0 1 41.46-10.21 78.11 78.11 0 0 1 39.52 10.7c-36.22-18.09-77.95-8.9-100.45 21.2a74.11 74.11 0 0 1 8.87-12.82 71.83 71.83 0 0 1 10.6-8.87zm-31.19 81.6a81.53 81.53 0 0 0 25.57 42.38 79.81 79.81 0 0 1 -24-34.9q-.94-3.7-1.57-7.48zm6.55 21.1a80.86 80.86 0 0 0 11.76 16 75.94 75.94 0 0 1 -9.66-11.83c-.76-1.38-1.44-2.75-2.1-4.17zm66.1-115.57a91.07 91.07 0 0 0 -11.15.76 79.66 79.66 0 0 1 12.9-1 80.77 80.77 0 0 1 12.56 1.6 82.24 82.24 0 0 0 -14.31-1.36zm-63 32.76c-1 1.8-2 3.61-2.82 5.48a76.8 76.8 0 0 0 -7.94 23.12 78 78 0 0 0 -1.64 7.93 76.21 76.21 0 0 1 9.36-31.61c.92-1.71 1.98-3.32 3.04-4.92zm-13.35 51c0 1.69.09 3.38.24 5.06a77.74 77.74 0 0 1 8.66-50.93l.18-.28a78.39 78.39 0 0 0 -9.08 46.11zm67.16 71.6c1 .16 2 .33 3 .45-1.32-.12-2.63-.34-3.94-.55.27 0 .61.01.94.1zm77.32-118.19c-.71-1.1-1.44-2.19-2.2-3.26a74.85 74.85 0 0 0 -13.25-15.46 75.22 75.22 0 0 1 20.43 26.37 77.65 77.65 0 0 0 -4.98-7.65zm12.11 51.74c-.19 2.5-.52 5-1 7.51a80.53 80.53 0 0 1 -5.44 14.58c-.88 1.55-1.79 3.09-2.79 4.6a81.51 81.51 0 0 0 9.23-26.69zm-1.46-31.66a76 76 0 0 0 -24.14-38.61 74.82 74.82 0 0 1 26.33 45.85q-.9-3.67-2.16-7.24zm-8.34 64c-18.71 33.61-56.06 47.39-90.84 35.39a71.09 71.09 0 0 0 20.37 3.15c13.44 0 26.61-4.12 38.32-11a77.63 77.63 0 0 0 25.59-19.86l.35-.35a84.68 84.68 0 0 0 6.49-7.87c-.07.17-.15.36-.25.54z"/><path d="m225.44 107.8a1.27 1.27 0 0 1 -.93-.4v.33h-.76v-4.55h.79v1.7a1.29 1.29 0 0 1 .9-.37 1.66 1.66 0 0 1 0 3.29zm-.11-2.54a.86.86 0 0 0 -.79.91.79.79 0 1 0 1.58 0 .85.85 0 0 0 -.79-.91z"/><path d="m228.5 108.31a1.19 1.19 0 0 1 -1.41.89v-.74a.57.57 0 0 0 .7-.43l.09-.24-1.18-3.21h.83l.75 2.28.73-2.28h.84z"/><path d="m232.26 104.24h-.79v-.76h.79zm0 3.49h-.79v-3.15h.79z"/><path d="m235.43 107.73h-.79v-1.84a.55.55 0 0 0 -.57-.62.59.59 0 0 0 -.59.62v1.84h-.79v-3.15h.75v.31a1 1 0 0 1 .79-.39 1.23 1.23 0 0 1 1.2 1.39z"/><path d="m237.07 107.81a1.34 1.34 0 0 1 -1.45-1.11h.8a.68.68 0 0 0 .65.37c.32 0 .55-.1.55-.28s-.1-.25-.64-.34-1.28-.24-1.28-.94c0-.49.42-1 1.31-1a1.25 1.25 0 0 1 1.33 1h-.82c0-.15-.22-.27-.51-.27s-.51.14-.51.25.23.22.61.29c.76.12 1.31.3 1.31 1s-.56 1.03-1.35 1.03z"/><path d="m239.46 104.24h-.78v-.76h.78zm0 3.49h-.78v-3.15h.78z"/><path d="m242.87 107.73h-.75v-.33a1.31 1.31 0 0 1 -.94.4 1.66 1.66 0 0 1 0-3.29 1.29 1.29 0 0 1 .9.37v-1.7h.79zm-1.57-2.47a.84.84 0 0 0 -.79.91.79.79 0 1 0 1.57 0 .85.85 0 0 0 -.78-.91z"/><path d="m243.92 106.47a.79.79 0 0 0 .77.63.73.73 0 0 0 .65-.37h.83a1.45 1.45 0 0 1 -1.48 1.08 1.66 1.66 0 1 1 1.54-1.34zm1.53-.66a.76.76 0 0 0 -.76-.6.78.78 0 0 0 -.76.6z"/><path d="m248.82 107.73h-.82v-4.55h.78z"/><path d="m251.26 107.44a1.21 1.21 0 0 1 -.94.35c-.65 0-1.24-.33-1.24-1s.58-.89 1.25-1c.52 0 .88-.11.88-.37s-.21-.3-.56-.3a.66.66 0 0 0 -.67.4h-.79a1.33 1.33 0 0 1 1.44-1c1.25 0 1.34.83 1.34 1.08v1.64a2 2 0 0 0 .09.51h-.72a1.11 1.11 0 0 1 -.08-.31zm0-1.23a1.82 1.82 0 0 1 -.75.21c-.38 0-.62.13-.62.36s.2.3.52.3c.47 0 .85-.17.85-.57z"/><path d="m254.11 107.8a1.29 1.29 0 0 1 -.94-.4v.33h-.75v-4.55h.79v1.7a1.27 1.27 0 0 1 .9-.37 1.66 1.66 0 0 1 0 3.29zm-.12-2.54a.85.85 0 0 0 -.78.91.79.79 0 1 0 1.57 0 .84.84 0 0 0 -.78-.91z"/><path d="m257.05 107.81a1.35 1.35 0 0 1 -1.46-1.11h.8a.69.69 0 0 0 .66.37c.31 0 .55-.1.55-.28s-.11-.25-.64-.34-1.28-.24-1.28-.94c0-.49.42-1 1.31-1a1.24 1.24 0 0 1 1.32 1h-.81c-.05-.15-.22-.27-.51-.27s-.51.14-.51.25.22.22.6.29c.76.12 1.31.3 1.31 1s-.56 1.03-1.34 1.03z"/><path d="m229.1 73.74h6.39v3h.09a5.39 5.39 0 0 1 .88-1.27 6.45 6.45 0 0 1 1.38-1.14 7.4 7.4 0 0 1 1.82-.82 7.16 7.16 0 0 1 2.21-.32 9 9 0 0 1 4.13.81 6 6 0 0 1 2.42 2.22 8.89 8.89 0 0 1 1.17 3.33 25.57 25.57 0 0 1 .31 4.15v12.21h-6.7v-10.86c0-.63 0-1.3-.06-2a6.68 6.68 0 0 0 -.4-1.89 3.27 3.27 0 0 0 -1-1.42 3.14 3.14 0 0 0 -2-.54 4 4 0 0 0 -2.09.48 3.17 3.17 0 0 0 -1.21 1.32 5.41 5.41 0 0 0 -.55 1.8 15.79 15.79 0 0 0 -.13 2.1v11h-6.66z"/><path d="m193.67 73.74h6.38v3h.09a5.45 5.45 0 0 1 .89-1.27 6.16 6.16 0 0 1 1.37-1.14 7.4 7.4 0 0 1 1.82-.82 7.18 7.18 0 0 1 2.22-.32 8.34 8.34 0 0 1 4 1 6.08 6.08 0 0 1 2.64 3 7.32 7.32 0 0 1 2.79-3 8.17 8.17 0 0 1 4-.91 8.06 8.06 0 0 1 3.66.75 6 6 0 0 1 2.35 2 8.75 8.75 0 0 1 1.24 3.06 17.94 17.94 0 0 1 .38 3.76v13.06h-6.65v-12.91a5.38 5.38 0 0 0 -.64-2.67 2.42 2.42 0 0 0 -2.21-1.11 4.42 4.42 0 0 0 -1.93.38 3.25 3.25 0 0 0 -1.24 1.08 4.38 4.38 0 0 0 -.66 1.59 8.56 8.56 0 0 0 -.2 1.92v11.72h-6.65v-11.72c0-.4 0-.88-.05-1.46a5.82 5.82 0 0 0 -.31-1.64 3.1 3.1 0 0 0 -.86-1.33 2.53 2.53 0 0 0 -1.75-.54 4 4 0 0 0 -2.09.48 3.17 3.17 0 0 0 -1.26 1.3 5.41 5.41 0 0 0 -.55 1.8 15.79 15.79 0 0 0 -.13 2.1v11h-6.65z"/><path d="m168.67 84.83a11.9 11.9 0 0 1 .93-4.83 10.9 10.9 0 0 1 2.55-3.67 11 11 0 0 1 3.85-2.33 13.74 13.74 0 0 1 9.35 0 11.1 11.1 0 0 1 3.81 2.35 10.9 10.9 0 0 1 2.52 3.65 12.8 12.8 0 0 1 0 9.58 11.1 11.1 0 0 1 -2.55 3.67 11.25 11.25 0 0 1 -3.81 2.35 13.74 13.74 0 0 1 -9.35 0 10.94 10.94 0 0 1 -6.37-6 11.93 11.93 0 0 1 -.93-4.77zm6.65 0a5.86 5.86 0 0 0 1.4 4.06 5.74 5.74 0 0 0 7.85 0 6.62 6.62 0 0 0 0-8.12 5.74 5.74 0 0 0 -7.85 0 5.82 5.82 0 0 0 -1.4 4.06z"/><path d="m251 66.76a3.86 3.86 0 0 1 1.13-2.8 3.78 3.78 0 0 1 5.45 0 4 4 0 0 1 0 5.61 3.78 3.78 0 0 1 -5.45 0 3.86 3.86 0 0 1 -1.13-2.81zm.53 7h6.65v22.15h-6.65z"/></g></svg>