<svg xmlns="http://www.w3.org/2000/svg" width="50" height="382.95" viewBox="0 0 50 382.95">
  <title>dna</title>
  <g id="Layer_2" data-name="Layer 2">
    <g id="Layer_1-2" data-name="Layer 1">
      <g>
        <path d="M9.08,63.5A4.13,4.13,0,0,1,5,67.85a4.35,4.35,0,0,1,0-8.68A4.12,4.12,0,0,1,9.08,63.5Zm-1.59,0A2.69,2.69,0,0,0,5,60.67a2.87,2.87,0,0,0,0,5.68A2.69,2.69,0,0,0,7.49,63.5Z"/>
        <path d="M16,64.4c0,2.13-1.12,3.45-3.22,3.45s-3.2-1.32-3.2-3.45v-5h1.58v5.07q0,1.86,1.62,1.86t1.62-1.86V59.38H16Z"/>
        <path d="M23.45,67.7H21.84a2.46,2.46,0,0,1-.17-.91V65.52c0-.71-.33-1-1.08-1H18.43V67.7H16.85V59.38h3.8c1.74,0,2.86.92,2.86,2.48a2,2,0,0,1-1.17,1.9,1.84,1.84,0,0,1,.92,1.77v1.16A3.24,3.24,0,0,0,23.45,67.7Zm-2.76-4.64a1.15,1.15,0,0,0,1.23-1.12c0-.27,0-1.09-1.27-1.09H18.43v2.21Z"/>
        <path d="M30.43,67.7H27.35V59.38h3.08c2.32,0,3.76,1.59,3.76,4.16S32.71,67.7,30.43,67.7Zm0-6.85h-1.5v5.38h1.5c1.89,0,2.17-1.69,2.17-2.7C32.6,62.3,32.22,60.85,30.43,60.85Z"/>
        <path d="M41.64,67.7H39.73l-3.39-5.92V67.7H34.76V59.38h1.9L40,65.3V59.38h1.6Z"/>
        <path d="M44.13,66l-.57,1.67H41.88l2.91-8.32h2l2.9,8.32H48L47.45,66Zm1.65-4.89-1.16,3.42H47Z"/>
      </g>
      <line x1="25" y1="91.93" x2="25" y2="382.95" style="fill: none;stroke: #1a1a1a;stroke-miterlimit: 10"/>
      <g>
        <path d="M38.21,24.41a.86.86,0,0,0-1.21.15.85.85,0,0,0,.14,1.2c4,3.11,7.25,12.07,7.25,13.2a.86.86,0,0,0,.71.84c.33-.45.64-.91.94-1.37C45.55,35.87,42.21,27.55,38.21,24.41Z" style="fill: #1a1a1a"/>
        <path d="M50,23.86c-.15-.24-.26-.39-.27-.42a.86.86,0,1,0-1.38,1,8.73,8.73,0,0,1,1.43,4A25.62,25.62,0,0,0,50,24.93C50,24.57,50,24.22,50,23.86Z" style="fill: #1a1a1a"/>
        <path d="M47.28,26a.86.86,0,0,0-1,1.37c1.11.84,2.15,3.68,1.94,4.42a.85.85,0,0,0,.53,1,24,24,0,0,0,.84-3.18A8.13,8.13,0,0,0,47.28,26Z" style="fill: #1a1a1a"/>
        <path d="M23.84,18.19A23.82,23.82,0,0,0,.1,22.8C0,23.5,0,24.21,0,24.93a.87.87,0,0,0,.56-.23,22.1,22.1,0,0,1,22.73-4.88c9.8,3.27,16.75,12,18.58,23.31a1.06,1.06,0,0,0,.06.19c.5-.46,1-.94,1.45-1.44C41.21,30.39,34,21.57,23.84,18.19Z" style="fill: #1a1a1a"/>
        <path d="M24.12,24.59c-5-1.32-12.73-.77-22.93,8q.28.89.63,1.74c8-7,15.44-9.76,21.86-8,6.85,1.83,12.29,9,15,19.61.51-.34,1-.69,1.5-1.06C37.22,33.74,31.56,26.58,24.12,24.59Z" style="fill: #1a1a1a"/>
        <path d="M2.9,18.58a27.17,27.17,0,0,1,23.65-2.79c8.26,2.76,14.08,8.49,15,10.92a.86.86,0,0,0,1.11.5.86.86,0,0,0,.49-1.11C42,23,35.57,17,27.09,14.16a28.8,28.8,0,0,0-25.1,3,.87.87,0,0,0-.27,1.19A.86.86,0,0,0,2.9,18.58Z" style="fill: #1a1a1a"/>
        <path d="M48.59,16.65a24.55,24.55,0,0,0-1.39-3.2l0,0a.87.87,0,0,0-.11,1.21C47.58,15.31,48.09,16,48.59,16.65Z" style="fill: #1a1a1a"/>
        <path d="M5.88,12.75c1.17-1,7.06-3.05,14.7-2.19l.18,0c6.49.77,15.73,3.84,23.34,14.05a.83.83,0,0,0,.59.34.88.88,0,0,0,.62-.16.85.85,0,0,0,.17-1.2C37.43,12.8,27.57,9.66,20.77,8.85c-7.48-.84-14.11,1-16,2.59a.86.86,0,0,0,1.12,1.31Z" style="fill: #1a1a1a"/>
        <path d="M36.64,45.18a56.67,56.67,0,0,1-5.08-10.73.86.86,0,1,0-1.63.54,58.07,58.07,0,0,0,5.22,11l.67,1.17a1,1,0,0,0,.17.18c.48-.23.95-.49,1.42-.75a.94.94,0,0,0-.1-.28Z" style="fill: #1a1a1a"/>
        <path d="M13.74,42a.86.86,0,0,0-1.18.27,8.77,8.77,0,0,0-1.11,3.64c.53.34,1.07.67,1.63,1A7.85,7.85,0,0,1,14,43.22.86.86,0,0,0,13.74,42Z" style="fill: #1a1a1a"/>
        <path d="M21.39,22.58a.86.86,0,0,0,.51-1.65C14.81,18.76,5.26,23.45.14,27.54c.06.67.17,1.33.29,2C4.89,25.63,14.59,20.49,21.39,22.58Z" style="fill: #1a1a1a"/>
        <path d="M7.23,8.26c1.22-.93,11-3.54,21.08-1.12a26.47,26.47,0,0,1,18.5,14.72.83.83,0,0,0,.67.48.82.82,0,0,0,.48-.08.87.87,0,0,0,.4-1.15A28.14,28.14,0,0,0,28.71,5.47,42,42,0,0,0,9,5.77,24.46,24.46,0,0,0,6.32,8.33.86.86,0,0,0,7.23,8.26Z" style="fill: #1a1a1a"/>
        <path d="M28.4,35c-1.7-3.93-4-6.1-6.93-6.44h0c-4.4-.51-9.68,3.31-15.7,11.38l-.4.52c.37.46.74.91,1.14,1.35l.64-.84c5.55-7.43,10.43-11.13,14.11-10.7h0c2.24.26,4.11,2.09,5.55,5.42a37.17,37.17,0,0,1,1.26,3.75c.91,3.06,2,6.68,4.32,9.43.59-.18,1.18-.39,1.75-.62-2.39-2.49-3.46-6.07-4.42-9.31A37.67,37.67,0,0,0,28.4,35Z" style="fill: #1a1a1a"/>
        <path d="M10.4,31.78a.85.85,0,0,0-1.17-.3,28.28,28.28,0,0,0-6.37,5.07c.28.53.58,1.05.89,1.56A26.35,26.35,0,0,1,10.1,33,.86.86,0,0,0,10.4,31.78Z" style="fill: #1a1a1a"/>
        <path d="M21.53,34.28A4.52,4.52,0,0,0,18,34.2a18.11,18.11,0,0,0-9.85,9.17c.44.4.89.78,1.36,1.15a16.5,16.5,0,0,1,9.09-8.7,2.72,2.72,0,0,1,2.22,0C23,36.9,24.51,41.19,26,45.33c.54,1.56,1.06,3.09,1.64,4.47.59-.06,1.18-.15,1.76-.25-.63-1.45-1.21-3.13-1.78-4.78C26,40.29,24.42,35.66,21.53,34.28Z" style="fill: #1a1a1a"/>
        <path d="M18.16,39.61A2.27,2.27,0,0,0,16.48,41c-.72,1.52-.5,4.43.1,7.51.61.22,1.24.41,1.87.58-.67-3.11-1-6.08-.41-7.35.16-.36.33-.39.41-.4,1.59-.26,3.22,4.59,4.38,8.53.6,0,1.21.08,1.82.09C23,44.36,21.29,39.07,18.16,39.61Z" style="fill: #1a1a1a"/>
        <path d="M44.64,11.54a.89.89,0,0,0,.5.23.83.83,0,0,0,.71-.25.55.55,0,0,0,.12-.19A25.62,25.62,0,0,0,43.83,8.5,36.55,36.55,0,0,0,23.28,0a25,25,0,0,0-8.55,2.14C22.19.56,34.92,2.12,44.64,11.54Z" style="fill: #1a1a1a"/>
      </g>
    </g>
  </g>
</svg>
