<svg id="Layer_1" data-name="Layer 1" xmlns="http://www.w3.org/2000/svg" width="520" height="95" viewBox="0 0 520 95">
  <title>logo-large</title>
  <g>
    <rect y="29.03" width="17.72" height="62.08" style="fill: #1a1a1a"/>
    <rect y="8.29" width="17.72" height="16.67" style="fill: #1a1a1a"/>
    <path d="M53.28,27.52A20.62,20.62,0,0,0,39.08,33V29h-17V91.11H39.78V55c0-6.14,4.36-10.6,10.37-10.6,8.62,0,9.91,6.64,9.91,10.6V91.11H77.77V55C77.77,38.58,67.93,27.52,53.28,27.52Z" style="fill: #1a1a1a"/>
    <path d="M108.94,51.28c-7-1.09-10.79-2.07-10.79-4.13,0-1.37,2.37-3.54,8.75-3.54,4.58,0,8,1.6,8.81,4.16l.27.83h18.19l-.25-1.43c-2.09-11.93-12.7-19.65-27-19.65-18.35,0-26.7,10.54-26.7,20.33,0,15.09,16.87,17.66,25.93,19,10.93,1.71,11.49,3.08,11.49,5.18,0,2.46-3.85,4.11-9.56,4.11-4.53,0-9.87-1.91-11.63-6.19l-.3-.76H78.39l.2,1.39c1.92,13.3,13.48,21.89,29.47,21.89s27.39-8.79,27.39-21.37C135.45,56.82,122.91,53.58,108.94,51.28Z" style="fill: #1a1a1a"/>
    <rect x="136.43" y="29.03" width="17.71" height="62.08" style="fill: #1a1a1a"/>
    <rect x="136.43" y="8.29" width="17.71" height="16.67" style="fill: #1a1a1a"/>
    <path d="M202.21,33.27a26.29,26.29,0,0,0-16.39-5.52c-16.59,0-29.59,14.22-29.59,32.38s13,32.25,29.59,32.25a26.18,26.18,0,0,0,17.09-6.08v4.81h17V2.5H202.21ZM188.14,75.83c-7.9,0-14.08-6.85-14.08-15.59,0-8.93,6.18-15.93,14.08-15.93s14.07,7.15,14.07,15.93C202.21,68.84,195.9,75.83,188.14,75.83Z" style="fill: #1a1a1a"/>
    <path d="M252.59,27.52c-17.53,0-31.79,14.63-31.79,32.61S235.06,92.5,252.59,92.5c14.76,0,26.26-8.15,30-21.27l.44-1.54H264.38l-.35.64c-2.12,4-6.44,6.31-11.55,6.31a13.81,13.81,0,0,1-13.29-9.39H283.7l.1-1.1c1.1-11.75-1.76-21.74-8.26-28.87A30.57,30.57,0,0,0,252.59,27.52ZM239.5,52.31a13.92,13.92,0,0,1,13-8.93,13.66,13.66,0,0,1,13.28,8.93Z" style="fill: #1a1a1a"/>
    <rect x="314.32" y="2.5" width="17.72" height="88.61" style="fill: #1a1a1a"/>
    <path d="M392.84,80.17V49.12c0-5.07-2-21.6-27.28-21.6-15.83,0-27.58,8.38-29.23,20.86l-.19,1.37h17.6l.25-.89c1.24-4.56,7.05-6.63,11.92-6.63,6.35,0,9.68,2.24,9.68,4.46,0,3.58-5.6,4.78-15.93,5.74-11.89,1-25.55,4.18-25.55,19.28,0,14.2,12.77,20.56,25.43,20.56,7.3,0,13.18-1.86,17.52-5.53a18.32,18.32,0,0,0,1.18,3.66l.33.71h16.5l-.56-1.61A35.23,35.23,0,0,1,392.84,80.17ZM376.16,66.73c0,8.63-10.73,9.56-15.35,9.56-5.22,0-8.87-1.84-8.87-4.46,0-3.15,3.22-4.79,11.09-5.63,6.05-.68,10.15-1.6,13.13-3Z" style="fill: #1a1a1a"/>
    <path d="M490.36,51.28c-7-1.09-10.79-2.07-10.79-4.13,0-1.37,2.38-3.54,8.75-3.54,4.58,0,8,1.6,8.81,4.16l.28.83H515.6l-.25-1.43c-2.1-11.93-12.7-19.65-27-19.65-18.34,0-26.7,10.54-26.7,20.33,0,15.09,16.87,17.66,25.94,19C498.48,68.59,499,70,499,72.06c0,2.46-3.84,4.11-9.56,4.11-4.52,0-9.87-1.91-11.62-6.19l-.31-.76H460a35.93,35.93,0,0,0,1.15-9.09c0-18.16-13-32.38-29.59-32.38a26.27,26.27,0,0,0-16.28,5.5V2.5H397.41V91.11h17.14V86.33a26.17,26.17,0,0,0,17,6c13.56,0,24.72-9.46,28.35-22.8l.14,1c1.92,13.3,13.49,21.89,29.47,21.89s27.39-8.79,27.39-21.37C516.87,56.82,504.34,53.58,490.36,51.28Zm-61,24.55c-7.76,0-14.08-7-14.08-15.59,0-8.78,6.32-15.93,14.08-15.93s14.08,7,14.08,15.93C443.4,69,437.21,75.83,429.32,75.83Z" style="fill: #1a1a1a"/>
  </g>
</svg>
