<svg id="Layer_1" data-name="Layer 1" xmlns="http://www.w3.org/2000/svg" width="152" height="28" viewBox="0 0 152 28">
  <title>logo-small</title>
  <g>
    <rect y="8.87" width="4.92" height="17.25" style="fill: #1a1a1a"/>
    <rect y="3.11" width="4.92" height="4.63" style="fill: #1a1a1a"/>
    <path d="M15.8,8.45A5.71,5.71,0,0,0,11.86,10V8.87H7.13V26.11h4.92v-10a2.81,2.81,0,0,1,2.88-2.94c2.39,0,2.75,1.84,2.75,2.94v10H22.6v-10C22.6,11.52,19.87,8.45,15.8,8.45Z" style="fill: #1a1a1a"/>
    <path d="M32.26,15.05c-1.94-.3-3-.58-3-1.15,0-.38.66-1,2.43-1,1.28,0,2.21.44,2.45,1.15l.08.23h5.05l-.07-.39c-.58-3.32-3.53-5.46-7.51-5.46-5.09,0-7.41,2.93-7.41,5.65,0,4.19,4.68,4.9,7.2,5.28,3,.48,3.19.86,3.19,1.44S33.6,22,32,22a3.42,3.42,0,0,1-3.23-1.73L28.7,20H23.78l0,.39c.53,3.69,3.75,6.08,8.19,6.08s7.6-2.44,7.6-5.94C39.62,16.59,36.14,15.69,32.26,15.05Z" style="fill: #1a1a1a"/>
    <rect x="40.9" y="8.87" width="4.92" height="17.25" style="fill: #1a1a1a"/>
    <rect x="40.9" y="3.11" width="4.92" height="4.63" style="fill: #1a1a1a"/>
    <path d="M60.17,10.05a7.27,7.27,0,0,0-4.55-1.54c-4.61,0-8.22,4-8.22,9s3.61,9,8.22,9a7.24,7.24,0,0,0,4.74-1.69v1.33h4.73V1.5H60.17ZM56.26,21.87a4.09,4.09,0,0,1-3.91-4.33,4.15,4.15,0,0,1,3.91-4.43,4.2,4.2,0,0,1,3.91,4.43A4.14,4.14,0,0,1,56.26,21.87Z" style="fill: #1a1a1a"/>
    <path d="M75.16,8.45a9,9,0,0,0-8.83,9.06,8.92,8.92,0,0,0,8.83,9c4.11,0,7.3-2.26,8.34-5.91l.12-.43H78.44l-.1.18a3.52,3.52,0,0,1-3.21,1.75,3.83,3.83,0,0,1-3.69-2.6H83.81l0-.31a10.16,10.16,0,0,0-2.29-8A8.48,8.48,0,0,0,75.16,8.45Zm-3.63,6.89a3.85,3.85,0,0,1,3.6-2.48,3.79,3.79,0,0,1,3.69,2.48Z" style="fill: #1a1a1a"/>
    <rect x="92.31" y="1.5" width="4.92" height="24.61" style="fill: #1a1a1a"/>
    <path d="M115.12,23.07V14.45c0-1.41-.54-6-7.58-6-4.39,0-7.66,2.33-8.12,5.8l0,.38h4.89l.07-.25c.35-1.27,2-1.85,3.31-1.85,1.77,0,2.69.63,2.69,1.24,0,1-1.56,1.33-4.42,1.6-3.31.29-7.1,1.16-7.1,5.35,0,4,3.55,5.72,7.06,5.72a7.33,7.33,0,0,0,4.87-1.54,5.32,5.32,0,0,0,.33,1l.09.19h4.58l-.16-.44A10.24,10.24,0,0,1,115.12,23.07Zm-4.63-3.73c0,2.4-3,2.66-4.26,2.66-1.45,0-2.47-.51-2.47-1.24,0-.88.89-1.33,3.08-1.57a11.66,11.66,0,0,0,3.65-.83Z" style="fill: #1a1a1a"/>
    <path d="M126.87,8.51A7.33,7.33,0,0,0,122.34,10V1.5h-5V26.11h4.76V24.79a7.28,7.28,0,0,0,4.72,1.68c4.61,0,8.22-3.94,8.22-9S131.48,8.51,126.87,8.51Zm-.61,13.36a4.14,4.14,0,0,1-3.92-4.33,4.21,4.21,0,0,1,3.92-4.43,4.15,4.15,0,0,1,3.91,4.43A4.09,4.09,0,0,1,126.26,21.87Z" style="fill: #1a1a1a"/>
    <path d="M144.21,15.05c-1.94-.3-3-.58-3-1.15,0-.38.66-1,2.43-1,1.28,0,2.22.44,2.45,1.15l.08.23h5.05l-.07-.39c-.58-3.32-3.53-5.46-7.51-5.46-5.09,0-7.41,2.93-7.41,5.65,0,4.19,4.69,4.9,7.2,5.28,3,.48,3.19.86,3.19,1.44S145.55,22,144,22a3.43,3.43,0,0,1-3.23-1.73l-.09-.21h-4.92l.05.39c.53,3.69,3.75,6.08,8.19,6.08s7.61-2.44,7.61-5.94C151.58,16.59,148.09,15.69,144.21,15.05Z" style="fill: #1a1a1a"/>
  </g>
</svg>
