<?xml version="1.0" encoding="utf-8"?>
<!-- Generator: Adobe Illustrator 16.0.4, SVG Export Plug-In . SVG Version: 6.00 Build 0)  -->
<!DOCTYPE svg PUBLIC "-//W3C//DTD SVG 1.1//EN" "http://www.w3.org/Graphics/SVG/1.1/DTD/svg11.dtd">
<svg version="1.1" id="Ebene_1" xmlns="http://www.w3.org/2000/svg" xmlns:xlink="http://www.w3.org/1999/xlink" x="0px" y="0px"
	 width="260px" height="50px" viewBox="-30 1.623 260 50" enable-background="new -30 1.623 260 50" xml:space="preserve">
<g>
	<g>
		<g>
			<path fill="#7A796B" d="M-12.301,23.952c1.038,0.755,1.636,1.948,1.636,3.367c0,2.452-1.887,4.151-4.655,4.151h-2.832
				c-2.547,0-4.403-1.477-4.655-3.711c0-0.252,0.252-0.44,0.471-0.44h1.195c0.285,0,0.441,0.188,0.472,0.408
				c0.22,1.385,1.604,1.854,2.737,1.854h2.358c1.322,0,2.803-0.562,2.803-2.261c0-1.729-1.481-2.392-2.771-2.392h-2.611
				c-4.247,0-6.543-2.265-6.543-6.543v-3.303c0-4.248,2.296-6.544,6.543-6.544h1.886c4.28,0,6.545,2.296,6.545,6.544v3.303
				C-9.721,21.026-10.603,22.913-12.301,23.952 M-11.83,15.082c0-3.209-1.445-4.656-4.655-4.656h-1.416
				c-3.241,0-4.687,1.416-4.687,4.656v3.302c0,3.207,1.446,4.656,4.655,4.656h1.416c3.242,0,4.687-1.415,4.687-4.656V15.082z"/>
			<path fill="#7A796B" d="M6.294,25.147H-7.013c-0.284,0-0.503-0.189-0.503-0.472v-0.942c0-0.222,0.219-0.474,0.472-0.474h4.687
				V13.006c0-2.486,1.919-4.217,4.688-4.217h3.271c0.221,0,0.472,0.19,0.472,0.472v0.977c0,0.251-0.251,0.44-0.472,0.44h-3.02
				c-1.321,0-2.863,0.598-2.863,2.328V23.26h6.576c0.251,0,0.471,0.222,0.471,0.474v0.942C6.764,24.958,6.545,25.147,6.294,25.147"
				/>
			<path fill="#7A796B" d="M23.409,25.147H10.32c-0.283,0-0.503-0.189-0.503-0.47v-0.944c0-0.222,0.22-0.475,0.472-0.475h5.505
				V9.261c0-0.282,0.221-0.472,0.472-0.472h1.165c0.251,0,0.471,0.19,0.471,0.472v13.998h5.505c0.219,0,0.471,0.223,0.471,0.475
				v0.944C23.878,24.958,23.628,25.147,23.409,25.147 M17.432,5.991h-1.133c-0.283,0-0.503-0.222-0.503-0.471V3.159
				c0-0.22,0.221-0.471,0.472-0.471h1.165c0.251,0,0.472,0.251,0.472,0.471V5.52C17.904,5.769,17.713,5.991,17.432,5.991"/>
			<path fill="#7A796B" d="M37.345,25.4h-5.598c-2.612,0-4.437-1.541-4.656-3.744c-0.032-0.282,0.187-0.472,0.44-0.472h1.194
				c0.252,0,0.409,0.189,0.472,0.472c0.251,1.354,1.574,1.855,2.769,1.855h5.16c1.259,0,2.799-0.599,2.799-2.327v-1.194
				c0-1.732-1.509-2.297-2.799-2.297h-5.379c-2.769,0-4.688-1.729-4.688-4.217v-0.723c0-2.453,1.919-4.215,4.656-4.215h5.161
				c2.546,0,4.403,1.542,4.654,3.744c0.031,0.283-0.188,0.471-0.472,0.471h-1.195c-0.251,0-0.409-0.187-0.472-0.471
				c-0.22-1.384-1.604-1.856-2.738-1.856h-4.687c-1.291,0-2.832,0.598-2.832,2.327v0.723c0,1.731,1.541,2.297,2.832,2.297h5.379
				c2.769,0,4.657,1.729,4.657,4.217v1.194C42.001,23.638,40.114,25.4,37.345,25.4"/>
			<path fill="#7A796B" d="M53.8,25.4h-1.886c-4.249,0-6.544-2.295-6.544-6.542v-3.776c0-4.247,2.264-6.542,6.512-6.542h1.886
				c3.777,0,5.978,1.793,6.451,5.159c0.063,0.25-0.189,0.471-0.441,0.471h-1.195c-0.283,0-0.44-0.221-0.472-0.471
				c-0.377-2.234-1.856-3.272-4.562-3.272h-1.415c-3.209,0-4.687,1.417-4.687,4.655v3.776c0,3.207,1.446,4.655,4.687,4.655h1.415
				c2.706,0,4.185-1.038,4.562-3.271c0.032-0.25,0.188-0.472,0.472-0.472h1.163c0.284,0,0.536,0.222,0.503,0.472
				C59.745,23.607,57.576,25.4,53.8,25.4"/>
			<path fill="#7A796B" d="M79.378,25.147h-1.163c-0.284,0-0.471-0.189-0.471-0.472v-9.594c0-3.209-1.478-4.656-4.689-4.656H71.64
				c-3.241,0-4.687,1.417-4.687,4.656v9.594c0,0.282-0.188,0.472-0.442,0.472h-1.163c-0.283,0-0.472-0.189-0.472-0.472V3.159
				c0-0.22,0.188-0.471,0.472-0.471h1.163c0.253,0,0.442,0.251,0.442,0.471v6.889c1.102-0.974,2.673-1.51,4.687-1.51h1.633
				c4.28,0,6.545,2.296,6.545,6.544v9.594C79.819,24.958,79.63,25.147,79.378,25.147"/>
			<path fill="#008FD3" d="M92.876,25.4H90.99c-4.248,0-6.543-2.295-6.543-6.542v-3.776c0-4.247,2.264-6.542,6.511-6.542h1.887
				c3.776,0,5.979,1.793,6.45,5.159c0.063,0.25-0.188,0.471-0.441,0.471h-1.195c-0.283,0-0.44-0.221-0.472-0.471
				c-0.379-2.234-1.855-3.272-4.561-3.272h-1.416c-3.208,0-4.686,1.417-4.686,4.655v3.776c0,3.207,1.446,4.655,4.686,4.655h1.416
				c2.706,0,4.182-1.038,4.561-3.271c0.031-0.25,0.188-0.472,0.472-0.472h1.164c0.284,0,0.535,0.222,0.504,0.472
				C98.822,23.607,96.653,25.4,92.876,25.4"/>
			<path fill="#008FD3" d="M111.721,25.403h-1.886c-4.247,0-6.512-2.298-6.512-6.543v-3.776c0-4.248,2.265-6.544,6.512-6.544h1.886
				c4.278,0,6.545,2.296,6.545,6.544v3.776C118.266,23.103,116.033,25.403,111.721,25.403 M116.19,15.082
				c0-3.209-1.479-4.656-4.688-4.656h-1.416c-3.239,0-4.688,1.416-4.688,4.656v3.776c0,3.207,1.448,4.653,4.688,4.653h1.416
				c3.21,0,4.654-1.413,4.654-4.653L116.19,15.082z"/>
			<path fill="#008FD3" d="M137.362,25.147h-1.163c-0.284,0-0.473-0.189-0.473-0.472v-9.594c0-3.209-1.226-4.656-4.466-4.656h-1.633
				c-3.242,0-4.689,1.417-4.689,4.656v9.594c0,0.282-0.188,0.472-0.44,0.472h-1.164c-0.283,0-0.473-0.189-0.473-0.472V9.261
				c0-0.282,0.189-0.472,0.473-0.472h1.164c0.25,0,0.44,0.19,0.44,0.472v0.787c1.101-0.974,2.675-1.51,4.689-1.51h1.886
				c4.277,0,6.294,2.296,6.294,6.544v9.594C137.804,24.958,137.615,25.147,137.362,25.147"/>
			<path fill="#008FD3" d="M152.687,25.4h-5.603c-2.61,0-4.435-1.541-4.653-3.744c-0.031-0.282,0.188-0.472,0.441-0.472h1.196
				c0.253,0,0.41,0.189,0.473,0.472c0.249,1.354,1.57,1.855,2.768,1.855h5.16c1.259,0,2.8-0.599,2.8-2.327v-1.194
				c0-1.732-1.512-2.297-2.8-2.297h-5.38c-2.768,0-4.689-1.729-4.689-4.217v-0.723c0-2.453,1.922-4.215,4.657-4.215h5.158
				c2.548,0,4.405,1.542,4.652,3.744c0.031,0.283-0.185,0.471-0.471,0.471h-1.195c-0.251,0-0.408-0.187-0.473-0.471
				c-0.219-1.384-1.603-1.856-2.736-1.856h-4.689c-1.291,0-2.831,0.598-2.831,2.327v0.723c0,1.731,1.54,2.297,2.831,2.297h5.381
				c2.769,0,4.655,1.729,4.655,4.217v1.194C157.341,23.638,155.455,25.4,152.687,25.4"/>
			<path fill="#008FD3" d="M175.938,25.147h-1.134c-0.283,0-0.474-0.189-0.474-0.472V23.89c-1.098,0.976-2.451,1.511-4.466,1.511
				h-0.943c-4.247,0-6.51-2.298-6.51-6.542V9.261c0-0.282,0.188-0.472,0.469-0.472h1.164c0.251,0,0.444,0.19,0.444,0.472v9.597
				c0,3.207,1.447,4.654,4.688,4.654h0.471c3.21,0,4.654-1.414,4.654-4.654V9.261c0-0.282,0.22-0.472,0.471-0.472h1.166
				c0.219,0,0.469,0.19,0.469,0.472v15.415C176.406,24.958,176.156,25.147,175.938,25.147"/>
			<path fill="#008FD3" d="M190.817,25.147h-1.887c-4.247,0-6.573-2.326-6.573-6.512V3.159c0-0.22,0.22-0.471,0.471-0.471h1.196
				c0.222,0,0.44,0.251,0.44,0.471v15.447c0,3.208,1.513,4.654,4.719,4.654h1.636c0.282,0,0.471,0.222,0.471,0.474v0.942
				C191.29,24.958,191.099,25.147,190.817,25.147"/>
			<path fill="#008FD3" d="M205.539,11.369h-8.241v7.237c0,3.239,1.45,4.653,4.688,4.653h2.58c0.252,0,0.504,0.223,0.504,0.475
				v0.942c0,0.282-0.25,0.472-0.471,0.472h-2.832c-4.247,0-6.546-2.265-6.546-6.512V11.4h-3.741c-0.253,0-0.473-0.22-0.473-0.472
				V9.985c0-0.283,0.187-0.474,0.473-0.474h3.741V3.159c0-0.22,0.19-0.471,0.473-0.471h1.165c0.251,0,0.439,0.251,0.439,0.471v6.324
				h8.211c0.25,0,0.438,0.219,0.438,0.471v0.942C205.95,11.18,205.762,11.369,205.539,11.369"/>
			<path fill="#008FD3" d="M223.064,25.147h-1.193c-0.254,0-0.473-0.188-0.473-0.47v-0.033c-0.722,0.472-1.73,0.755-2.768,0.755
				h-5.411c-2.736,0-4.688-1.729-4.688-4.217v-2.076c0-2.484,1.95-4.277,4.688-4.277h5.379c1.069,0,2.047,0.282,2.8,0.818v-0.315
				c0-3.241-1.447-4.655-4.655-4.655h-5.631c-0.252,0-0.471-0.222-0.471-0.472V9.262c0-0.283,0.219-0.473,0.471-0.473h5.851
				c4.278,0,6.543,2.266,6.543,6.514v9.375C223.506,24.959,223.287,25.147,223.064,25.147 M221.398,19.107
				c0-1.73-1.512-2.391-2.768-2.391h-5.161c-1.29,0-2.832,0.631-2.832,2.36v2.106c0,1.729,1.513,2.328,2.832,2.328h5.128
				c1.259,0,2.8-0.599,2.8-2.328L221.398,19.107L221.398,19.107z"/>
			<path fill="#7A796B" d="M136.673,46.721c-0.03,0.139-0.107,0.232-0.232,0.232h-0.995c-0.141,0-0.2-0.092-0.232-0.232l-1.488-4.34
				l-1.352,4.34c-0.045,0.139-0.123,0.232-0.229,0.232h-0.996c-0.139,0-0.216-0.092-0.23-0.232l-1.211-7.519
				c-0.031-0.136,0.09-0.231,0.229-0.231h0.568c0.123,0,0.214,0.095,0.229,0.231l0.922,6.769l1.382-4.374
				c0.046-0.123,0.09-0.23,0.229-0.23h0.922c0.124,0,0.17,0.107,0.214,0.23l1.521,4.402l0.918-6.797
				c0.018-0.136,0.095-0.231,0.233-0.231h0.566c0.123,0,0.262,0.095,0.23,0.231L136.673,46.721z"/>
			<path fill="#7A796B" d="M147.074,43.423h-6.061v0.339c0,1.578,0.705,2.269,2.285,2.269h2.854c0.137,0,0.23,0.107,0.23,0.232v0.46
				c0,0.137-0.092,0.23-0.23,0.23h-2.976c-2.071,0-3.178-1.104-3.178-3.173v-1.736c0-2.069,1.106-3.19,3.178-3.19h0.92
				c2.087,0,3.19,1.121,3.19,3.19v1.151C147.288,43.305,147.196,43.423,147.074,43.423 M146.276,42.505v-0.461
				c0-1.567-0.719-2.27-2.286-2.27h-0.691c-1.58,0-2.285,0.69-2.285,2.27v0.461h5.247H146.276z"/>
			<path fill="#7A796B" d="M155.543,46.37c0.504,0.367,0.797,0.952,0.797,1.642c0,1.197-0.92,2.025-2.271,2.025h-1.379
				c-1.244,0-2.148-0.72-2.27-1.812c0-0.123,0.121-0.214,0.23-0.214h0.583c0.137,0,0.214,0.091,0.23,0.198
				c0.107,0.675,0.781,0.904,1.335,0.904h1.149c0.643,0,1.365-0.274,1.365-1.103c0-0.844-0.723-1.165-1.351-1.165h-1.273
				c-2.071,0-3.191-1.104-3.191-3.194v-1.61c0-2.072,1.12-3.19,3.191-3.19h0.921c2.087,0,3.192,1.118,3.192,3.19v1.61
				C156.803,44.946,156.372,45.863,155.543,46.37 M155.772,42.042c0-1.567-0.706-2.27-2.269-2.27h-0.691
				c-1.579,0-2.287,0.689-2.287,2.27v1.61c0,1.567,0.708,2.271,2.271,2.271h0.689c1.58,0,2.286-0.691,2.286-2.271V42.042
				L155.772,42.042z"/>
			<path fill="#7A796B" d="M166.176,46.721c-0.029,0.139-0.107,0.232-0.231,0.232h-0.996c-0.139,0-0.2-0.092-0.232-0.232
				l-1.487-4.34l-1.352,4.34c-0.046,0.139-0.125,0.232-0.232,0.232h-0.996c-0.137,0-0.217-0.092-0.229-0.232l-1.214-7.519
				c-0.029-0.136,0.093-0.231,0.231-0.231h0.565c0.125,0,0.215,0.095,0.232,0.231l0.923,6.769l1.379-4.374
				c0.047-0.123,0.092-0.23,0.231-0.23h0.922c0.122,0,0.169,0.107,0.215,0.23l1.518,4.402l0.921-6.797
				c0.017-0.136,0.094-0.231,0.232-0.231h0.565c0.124,0,0.261,0.095,0.231,0.231L166.176,46.721z"/>
			<path fill="#7A796B" d="M176.886,43.423h-6.06v0.339c0,1.578,0.704,2.269,2.284,2.269h2.854c0.137,0,0.23,0.107,0.23,0.232v0.46
				c0,0.137-0.092,0.23-0.23,0.23h-2.976c-2.071,0-3.177-1.104-3.177-3.173v-1.736c0-2.069,1.105-3.19,3.177-3.19h0.921
				c2.086,0,3.19,1.121,3.19,3.19v1.151C177.101,43.305,177.009,43.423,176.886,43.423 M176.088,42.505v-0.461
				c0-1.567-0.721-2.27-2.286-2.27h-0.691c-1.58,0-2.284,0.69-2.284,2.27v0.461h5.246H176.088z"/>
			<path fill="#7A796B" d="M185.247,46.953h-6.384c-0.136,0-0.242-0.09-0.242-0.232v-0.458c0-0.109,0.106-0.232,0.229-0.232h2.684
				v-6.828c0-0.136,0.107-0.229,0.232-0.229h0.568c0.121,0,0.229,0.09,0.229,0.229v6.828h2.684c0.107,0,0.231,0.107,0.231,0.232
				v0.458C185.479,46.863,185.354,46.953,185.247,46.953 M182.334,37.607h-0.554c-0.14,0-0.247-0.106-0.247-0.229V36.23
				c0-0.106,0.107-0.231,0.232-0.231h0.568c0.121,0,0.229,0.125,0.229,0.231v1.148C182.563,37.501,182.47,37.607,182.334,37.607"/>
			<path fill="#7A796B" d="M192.045,47.077h-2.734c-1.272,0-2.16-0.752-2.268-1.827c-0.017-0.138,0.09-0.23,0.214-0.23h0.584
				c0.122,0,0.197,0.092,0.229,0.23c0.123,0.662,0.769,0.903,1.353,0.903h2.516c0.612,0,1.364-0.29,1.364-1.134v-0.583
				c0-0.843-0.734-1.121-1.364-1.121h-2.625c-1.35,0-2.284-0.845-2.284-2.057v-0.348c0-1.199,0.935-2.058,2.269-2.058h2.518
				c1.244,0,2.148,0.752,2.27,1.825c0.018,0.138-0.09,0.233-0.23,0.233h-0.584c-0.121,0-0.197-0.093-0.229-0.233
				c-0.109-0.671-0.782-0.904-1.336-0.904h-2.285c-0.628,0-1.382,0.293-1.382,1.138v0.351c0,0.844,0.754,1.12,1.382,1.12h2.625
				c1.349,0,2.269,0.845,2.269,2.058v0.58C194.316,46.216,193.394,47.077,192.045,47.077"/>
			<path fill="#7A796B" d="M203.936,43.423h-6.061v0.339c0,1.578,0.705,2.269,2.288,2.269h2.852c0.137,0,0.231,0.107,0.231,0.232
				v0.46c0,0.137-0.093,0.23-0.231,0.23h-2.976c-2.071,0-3.177-1.104-3.177-3.173v-1.736c0-2.069,1.105-3.19,3.177-3.19h0.921
				c2.086,0,3.19,1.121,3.19,3.19v1.151C204.15,43.305,204.058,43.423,203.936,43.423 M203.139,42.505v-0.461
				c0-1.567-0.719-2.27-2.286-2.27h-0.689c-1.583,0-2.288,0.69-2.288,2.27v0.461h5.247H203.139z"/>
			<path fill="#7A796B" d="M213.771,46.953h-0.566c-0.138,0-0.232-0.09-0.232-0.232v-4.679c0-1.567-0.599-2.27-2.178-2.27h-0.799
				c-1.58,0-2.284,0.689-2.284,2.27v4.679c0,0.139-0.095,0.232-0.217,0.232h-0.567c-0.136,0-0.23-0.09-0.23-0.232v-7.519
				c0-0.136,0.093-0.229,0.23-0.229h0.567c0.122,0,0.217,0.09,0.217,0.229v0.384c0.535-0.475,1.303-0.734,2.284-0.734h0.921
				c2.09,0,3.068,1.118,3.068,3.19v4.679C213.985,46.863,213.891,46.953,213.771,46.953"/>
			<path fill="#7A796B" d="M223.451,46.953h-0.567c-0.139,0-0.229-0.09-0.229-0.232V46.34c-0.538,0.476-1.305,0.734-2.287,0.734
				h-0.814c-2.071,0-3.176-1.118-3.176-3.19v-1.842c0-2.072,1.104-3.19,3.176-3.19h0.814c0.967,0,1.732,0.26,2.271,0.734v-3.36
				c0-0.107,0.106-0.229,0.229-0.229h0.583c0.106,0,0.214,0.122,0.214,0.229v10.495C223.665,46.863,223.574,46.953,223.451,46.953
				 M222.654,42.042c0-1.567-0.72-2.27-2.287-2.27h-0.689c-1.581,0-2.286,0.689-2.286,2.27v1.842c0,1.563,0.705,2.268,2.286,2.268
				h0.689c1.567,0,2.271-0.689,2.271-2.268L222.654,42.042z"/>
		</g>
	</g>
</g>
</svg>
