<?xml version="1.0" encoding="utf-8"?>
<!-- Generator: Adobe Illustrator 22.1.0, SVG Export Plug-In . SVG Version: 6.00 Build 0)  -->
<svg version="1.1" id="Ebene_1" xmlns="http://www.w3.org/2000/svg" xmlns:xlink="http://www.w3.org/1999/xlink" x="0px" y="0px"
	 viewBox="0 0 238 53" style="enable-background:new 0 0 238 53;" xml:space="preserve">
<style type="text/css">
	.st0{fill:#136AB3;}
	.st1{fill:#BDBCBC;}
	.st2{fill:#231F20;}
</style>
<path d="M-207.8-476.2c0.1,0.3,0.5,1,1.4,1c0.9,0,1.3-0.5,1.3-1c0-0.4-0.2-0.7-1.1-0.9l-0.6-0.1c-0.8-0.2-1.3-0.5-1.3-1.2
	c0-0.2,0-0.7,0.4-1c0.3-0.3,0.9-0.4,1.3-0.4c0.1,0,0.8,0,1.2,0.3c0.4,0.3,0.5,0.6,0.5,0.8l-0.6,0.2c-0.1-0.6-0.7-0.7-1.2-0.7
	c-1,0-1.1,0.5-1.1,0.8c0,0.6,0.6,0.7,1,0.8l0.5,0.1c0.9,0.2,1.4,0.7,1.4,1.4c0,0.6-0.5,1.5-1.8,1.5c-0.4,0-1.5-0.1-2-1.3
	L-207.8-476.2z"/>
<g id="g10" transform="matrix(1.3333333,0,0,-1.3333333,0,94.493333)">
	<g id="g12" transform="scale(0.1)">
		<path id="path16" class="st0" d="M128.7,566.7v124.1H4.6V566.7L128.7,566.7"/>
		<path id="path18" class="st0" d="M342,335.9V460H218V335.9H342"/>
		<path id="path20" class="st1" d="M353.6,581l-25.8,121.3l-121.3-25.8l25.8-121.3L353.6,581"/>
		<path id="path22" class="st0" d="M128.7,335.9V460H4.6V335.9H128.7"/>
		<path id="path24" class="st2" d="M541.8,421.2v25.4h-33.3v-25.4h-5.1v54.2h5.1v-24.2h33.3v24.2h5.1v-54.2H541.8"/>
		<path id="path26" class="st2" d="M574.3,454.9c-6.6,0-11.8-4.8-11.8-15.8c0-11.3,5.9-14.8,11.7-14.8c5.7,0,11.9,3.7,11.9,15.4
			C586,451.2,580,454.9,574.3,454.9z M574,420.3c-9.4,0-16.4,7-16.4,18.8c0,11.4,6.2,19.6,16.7,19.6c11.4,0,16.4-9.7,16.5-19
			C590.8,426,582,420.3,574,420.3"/>
		<path id="path28" class="st2" d="M630.2,429.3c-2.2-4.7-6.4-9.1-14.7-9.1c-10.4,0-16.8,7.7-16.8,19c0,12,7.3,19.5,17.6,19.5
			c7.8,0,12-4.1,13.9-9.2l-4.2-1c-1.6,4.1-5.6,6.1-9.9,6.1c-8.4,0-12.4-7.2-12.4-15.2c0-8.2,3.7-15.2,12-15.2c4.6,0,7.8,2.1,9.9,6.1
			L630.2,429.3"/>
		<path id="path30" class="st2" d="M661.3,421.2v23.2c0,4.6-1.1,10.1-8.6,10.1c-5.5,0-8.1-3.1-9.2-5.1c-1.5-2.8-1.5-5.9-1.5-12.3
			v-15.8h-4.6v54.2h4.6V452c1.2,2.4,4.2,6.6,11.4,6.6c1.6,0,6.9-0.3,10.1-4.5c2.1-2.8,2.4-5.8,2.4-12.2v-20.7L661.3,421.2"/>
		<path id="path32" class="st2" d="M679.8,431.6c0.6-2.5,3.4-7.2,10.2-7.2c7.1,0,9.4,3.9,9.4,7.1c0,3.1-1.8,5.3-7.9,6.6l-4.3,0.9
			c-5.7,1.2-9.5,3.8-9.5,9.1c0,1.3,0.2,4.8,3.1,7.4c2.5,2.3,6.8,3.1,10,3.1c1.1,0,5.6,0,9-2.4c2.8-2,3.7-4.7,4-5.9l-4.3-1.2
			c-0.8,4.2-5.2,5.5-8.9,5.5c-7.4,0-8.4-3.9-8.4-6.1c0-4.3,4.5-5.3,7.7-5.9l3.8-0.8c6.4-1.3,10.1-5,10.1-10.7c0-4.2-3.4-11-13.7-11
			c-3.1,0-10.8,0.5-14.7,9.8L679.8,431.6"/>
		<path id="path34" class="st2" d="M743.8,429.3c-2.2-4.7-6.4-9.1-14.7-9.1c-10.4,0-16.8,7.7-16.8,19c0,12,7.3,19.5,17.6,19.5
			c7.8,0,12-4.1,13.9-9.2l-4.2-1c-1.6,4.1-5.6,6.1-9.9,6.1c-8.4,0-12.4-7.2-12.4-15.2c0-8.2,3.7-15.2,12-15.2c4.6,0,7.8,2.1,9.9,6.1
			L743.8,429.3"/>
		<path id="path36" class="st2" d="M774.9,421.2v23.2c0,4.6-1.1,10.1-8.6,10.1c-5.5,0-8.1-3.1-9.2-5.1c-1.5-2.8-1.5-5.9-1.5-12.3
			v-15.8H751v54.2h4.6V452c1.2,2.4,4.2,6.6,11.4,6.6c1.6,0,6.9-0.3,10.1-4.5c2.1-2.8,2.4-5.8,2.4-12.2v-20.7L774.9,421.2"/>
		<path id="path38" class="st2" d="M816,421.2v6.6c-2-4.5-5.4-7.4-11.7-7.4c-5.1,0-9.7,2.7-11.3,7.8c-0.8,2.5-1,6-1,11.7v18h4.6v-19
			c0-4.5,0.1-6.8,0.6-8.9c0.6-2.2,2.2-5.4,7.6-5.4c1.8,0,5.8,0.1,8.7,4.1c2.2,3.1,2.5,6.9,2.5,10.7v18.5h4.5v-36.6H816"/>
		<path id="path40" class="st2" d="M833.1,421.2v54.2h4.6v-54.2H833.1"/>
		<path id="path42" class="st2" d="M876,443.2c-1.1,9.4-7.4,11.4-11.4,11.4c-7.8,0-11.2-6.3-11.7-11.4H876z M852.8,438.4
			c0-5.5,2.3-14,12.3-14c3.3,0,8.4,0.7,11.9,7.7l4.2-1.2c-1.7-3.8-5.5-10.6-15.9-10.6c-14.9,0-17.5,13.2-17.5,19.6
			c0,12.5,8.4,18.9,16.9,18.9c10.4,0,16.5-9.1,16.5-18.6v-0.7h-28.4L852.8,438.4"/>
		<path id="path44" class="st2" d="M920.7,454v-32.8h-4.5V454h-8.1v3.8h8.1V468c0,3.3,0.4,8.5,8.1,8.5c1.8,0,3-0.2,4.7-0.5v-4.5
			c-0.8,0.3-2.2,1-4.4,1c-3.3,0-3.9-2.5-3.9-5.1v-9.6h8.3V454H920.7"/>
		<path id="path46" class="st2" d="M955.7,465.9v7.1h4.7v-7.1H955.7z M942.5,465.9v7.1h4.7v-7.1H942.5z M961.2,421.2v6.6
			c-2-4.5-5.4-7.4-11.7-7.4c-5.1,0-9.7,2.7-11.3,7.8c-0.8,2.5-1,6-1,11.7v18h4.6v-19c0-4.5,0.1-6.8,0.6-8.9c0.6-2.2,2.2-5.4,7.6-5.4
			c1.8,0,5.8,0.1,8.7,4.1c2.2,3.1,2.5,6.9,2.5,10.7v18.5h4.5v-36.6H961.2"/>
		<path id="path48" class="st2" d="M982.8,457.8V452c1.9,4.3,5.5,6.4,10.1,6.4c0.6,0,1.8,0,3.1-0.2v-4.1c-0.9,0.2-1.8,0.2-2.9,0.2
			c-7.8,0-10.3-5.8-10.3-13.1v-20h-4.5v36.6H982.8"/>
		<path id="path50" class="st2" d="M1041.9,470.9v-49.7h-5.1v49.7h-17v4.5h39.3v-4.5H1041.9"/>
		<path id="path52" class="st2" d="M1083.3,443.2c-1.1,9.4-7.4,11.4-11.4,11.4c-7.8,0-11.2-6.3-11.7-11.4H1083.3z M1060.1,438.4
			c0-5.5,2.3-14,12.3-14c3.3,0,8.4,0.7,11.9,7.7l4.2-1.2c-1.7-3.8-5.5-10.6-15.9-10.6c-14.9,0-17.5,13.2-17.5,19.6
			c0,12.5,8.4,18.9,16.9,18.9c10.4,0,16.5-9.1,16.5-18.6v-0.7h-28.4V438.4"/>
		<path id="path54" class="st2" d="M1127.6,429.3c-2.2-4.7-6.4-9.1-14.7-9.1c-10.4,0-16.8,7.7-16.8,19c0,12,7.3,19.5,17.6,19.5
			c7.8,0,12-4.1,13.9-9.2l-4.2-1c-1.6,4.1-5.6,6.1-9.9,6.1c-8.4,0-12.4-7.2-12.4-15.2c0-8.2,3.7-15.2,12.1-15.2
			c4.6,0,7.7,2.1,9.9,6.1L1127.6,429.3"/>
		<path id="path56" class="st2" d="M1158.8,421.2v23.2c0,4.6-1.2,10.1-8.6,10.1c-5.5,0-8.1-3.1-9.2-5.1c-1.5-2.8-1.5-5.9-1.5-12.3
			v-15.8h-4.6v54.2h4.6V452c1.2,2.4,4.2,6.6,11.4,6.6c1.6,0,6.9-0.3,10.1-4.5c2.1-2.8,2.4-5.8,2.4-12.2v-20.7L1158.8,421.2"/>
		<path id="path58" class="st2" d="M1199.9,421.2v19c0,4.9,0,7.8-0.8,10c-1.4,3.5-5.1,4.3-7.6,4.3c-7.6,0-11-5.7-11-12.4v-21h-4.5
			v36.6h4.5v-6.5c0.3,1,2.6,7.3,11.5,7.3c6.8,0,10-3.8,11.1-6.3c1.2-2.6,1.3-5.2,1.3-10.3v-20.8L1199.9,421.2"/>
		<path id="path60" class="st2" d="M1217,421.2v36.6h4.5v-36.6H1217z M1217,466.4v7h4.5v-7H1217"/>
		<path id="path62" class="st2" d="M1260.3,421.2l-14,19l-7.8-7.4v-11.5h-4.5v54.2h4.5v-36.8l20.6,19.3h5.7l-15.3-14.6l16.4-22
			H1260.3"/>
		<path id="path64" class="st2" d="M1318.3,421.2v6.6c-2-4.5-5.5-7.4-11.7-7.4c-5.1,0-9.7,2.7-11.3,7.8c-0.8,2.5-1,6-1,11.7v18h4.6
			v-19c0-4.5,0.1-6.8,0.6-8.9c0.6-2.2,2.2-5.4,7.6-5.4c1.8,0,5.8,0.1,8.7,4.1c2.2,3.1,2.5,6.9,2.5,10.7v18.5h4.5v-36.6H1318.3"/>
		<path id="path66" class="st2" d="M1359.4,421.2v19c0,4.9,0,7.8-0.9,10c-1.4,3.5-5.1,4.3-7.6,4.3c-7.6,0-11-5.7-11-12.4v-21h-4.5
			v36.6h4.5v-6.5c0.3,1,2.6,7.3,11.5,7.3c6.8,0,10-3.8,11.1-6.3c1.2-2.6,1.3-5.2,1.3-10.3v-20.8L1359.4,421.2"/>
		<path id="path68" class="st2" d="M1390,424.7c5.9,0,10.7,4.1,10.7,14.2v2c0,12.1-6.8,13.6-10.4,13.6c-6.9,0-11.1-5.8-11.1-14.9
			C1379,428.7,1384.3,424.7,1390,424.7z M1400.5,421.2v6.6c-1.7-4.8-6.4-7.4-11.3-7.4c-9.1,0-15.1,8.3-15.1,19.2
			c0,10.9,6.1,19,15.8,19c4.8,0,9.2-2.5,10.6-6.6v23.4h4.5v-54.2H1400.5"/>
		<path id="path70" class="st2" d="M1483.6,421.2h-4.1l-13,43.8l-12.9-43.8h-4.1l-16.1,54.2h5.5l12.7-45l12.9,45h3.5l13.3-45
			l12.4,45h5.1L1483.6,421.2"/>
		<path id="path72" class="st2" d="M1503.6,421.2v36.6h4.5v-36.6H1503.6z M1503.6,466.4v7h4.5v-7H1503.6"/>
		<path id="path74" class="st2" d="M1525.1,457.8V452c1.9,4.3,5.5,6.4,10.1,6.4c0.6,0,1.8,0,3.1-0.2v-4.1c-0.9,0.2-1.8,0.2-2.9,0.2
			c-7.8,0-10.3-5.8-10.3-13.1v-20h-4.5v36.6H1525.1"/>
		<path id="path76" class="st2" d="M1553.2,429c0-2.1,0.3-4.5,3-4.5c1.9,0,3.7,1.3,5.1,2.3v-4.6c-1-0.8-2.9-1.7-6.1-1.7
			c-1.3,0-4.7,0.1-5.8,3.3c-0.5,1.3-0.5,4-0.5,6V454h-7.7v3.8h7.7v15.6h4.4v-15.6h8.1V454h-8.1V429"/>
		<path id="path78" class="st2" d="M1570.5,431.6c0.6-2.5,3.4-7.2,10.2-7.2c7.1,0,9.4,3.9,9.4,7.1c0,3.1-1.8,5.3-7.9,6.6l-4.3,0.9
			c-5.7,1.2-9.5,3.8-9.5,9.1c0,1.3,0.2,4.8,3.1,7.4c2.5,2.3,6.8,3.1,10,3.1c1.1,0,5.6,0,9-2.4c2.8-2,3.7-4.7,4-5.9l-4.3-1.2
			c-0.8,4.2-5.2,5.5-8.9,5.5c-7.4,0-8.4-3.9-8.4-6.1c0-4.3,4.5-5.3,7.7-5.9l3.8-0.8c6.4-1.3,10.1-5,10.1-10.7c0-4.2-3.4-11-13.7-11
			c-3.1,0-10.8,0.5-14.7,9.8L1570.5,431.6"/>
		<path id="path80" class="st2" d="M1634.5,429.3c-2.2-4.7-6.4-9.1-14.7-9.1c-10.4,0-16.8,7.7-16.8,19c0,12,7.3,19.5,17.6,19.5
			c7.8,0,12-4.1,13.9-9.2l-4.2-1c-1.6,4.1-5.6,6.1-9.9,6.1c-8.4,0-12.4-7.2-12.4-15.2c0-8.2,3.7-15.2,12.1-15.2
			c4.6,0,7.8,2.1,9.9,6.1L1634.5,429.3"/>
		<path id="path82" class="st2" d="M1665.7,421.2v23.2c0,4.6-1.2,10.1-8.6,10.1c-5.5,0-8.1-3.1-9.2-5.1c-1.5-2.8-1.5-5.9-1.5-12.3
			v-15.8h-4.6v54.2h4.6V452c1.2,2.4,4.2,6.6,11.4,6.6c1.6,0,6.9-0.3,10.1-4.5c2.1-2.8,2.4-5.8,2.4-12.2v-20.7L1665.7,421.2"/>
		<path id="path84" class="st2" d="M1705,440.5l-2.3-0.6c-12.4-3.3-17.8-4.1-17.8-9.4c0-2.5,2-6.1,7.4-6.1c4.5,0,9.9,2.7,11.7,6.9
			c0.7,1.5,1,3.1,1,6.4V440.5z M1713.9,421.2c-6.1,0-8.9,1.5-8.9,6.7c-0.8-2.8-5-7.4-13-7.4c-7.8,0-11.5,4.8-11.5,10
			c0,7.3,6.2,9.9,18.3,12.7l6.1,1.4v2.8c0,3.5-1.8,7.4-8.5,7.4c-7.5,0-9.9-2.9-9.9-8.8l-5,0.8c0.9,7.4,5.9,12,14.4,12
			c6.4,0,13.4-1.9,13.4-11.1v-16c0-4.9,0.2-6.8,4.7-6.8h0.8v-3.6H1713.9"/>
		<path id="path86" class="st2" d="M1730.9,454v-32.8h-4.5V454h-8.1v3.8h8.1V468c0,3.3,0.4,8.5,8.1,8.5c1.8,0,3-0.2,4.7-0.5v-4.5
			c-0.9,0.3-2.2,1-4.4,1c-3.3,0-3.9-2.5-3.9-5.1v-9.6h8.3V454H1730.9"/>
		<path id="path88" class="st2" d="M1754.8,429c0-2.1,0.3-4.5,3-4.5c1.8,0,3.7,1.3,5.1,2.3v-4.6c-1-0.8-2.9-1.7-6.1-1.7
			c-1.3,0-4.7,0.1-5.9,3.3c-0.4,1.3-0.5,4-0.5,6V454h-7.7v3.8h7.7v15.6h4.4v-15.6h8.1V454h-8.1L1754.8,429"/>
		<path id="path90" class="st2" d="M543.9,356.1c0-12-4.5-21.6-20.3-21.6c-5.3,0-20.3,1.2-20.3,20.5v35.1h5.1v-36.5
			c0-12.1,9-14.4,15.3-14.4c9.7,0,15,4.5,15,15.7v35.2h5.1V356.1"/>
		<path id="path92" class="st2" d="M580.8,335.9v19c0,4.9,0,7.8-0.8,10c-1.4,3.5-5.1,4.3-7.6,4.3c-7.6,0-11-5.7-11-12.4v-21h-4.5
			v36.6h4.5V366c0.3,1,2.6,7.3,11.5,7.3c6.8,0,10-3.8,11.1-6.3c1.2-2.6,1.3-5.2,1.3-10.3v-20.8H580.8"/>
		<path id="path94" class="st2" d="M597.9,335.9v36.6h4.5v-36.6H597.9z M597.9,381.1v7h4.5v-7H597.9"/>
		<path id="path96" class="st2" d="M640.4,372.5l-14-36.6h-3.7L610,372.5h4.5l10.1-29.8l11.3,29.8H640.4"/>
		<path id="path98" class="st2" d="M673.8,357.9c-1.1,9.4-7.4,11.4-11.4,11.4c-7.8,0-11.2-6.3-11.7-11.4H673.8z M650.7,353.1
			c0-5.5,2.3-14,12.3-14c3.3,0,8.4,0.7,11.9,7.7l4.2-1.2c-1.7-3.8-5.5-10.6-15.9-10.6c-14.9,0-17.5,13.2-17.5,19.6
			c0,12.5,8.4,18.9,16.9,18.9c10.4,0,16.5-9.1,16.5-18.6v-0.7h-28.4L650.7,353.1"/>
		<path id="path100" class="st2" d="M693.6,372.5v-5.8c1.9,4.3,5.5,6.4,10.1,6.4c0.6,0,1.8,0,3.1-0.2v-4.1c-0.9,0.2-1.8,0.2-2.9,0.2
			c-7.8,0-10.3-5.8-10.3-13.1v-20h-4.5v36.6H693.6"/>
		<path id="path102" class="st2" d="M715.5,346.3c0.6-2.5,3.4-7.2,10.2-7.2c7.1,0,9.4,3.9,9.4,7.1c0,3.1-1.8,5.3-7.9,6.6l-4.3,0.9
			c-5.7,1.2-9.5,3.8-9.5,9.1c0,1.3,0.2,4.8,3.1,7.4c2.5,2.3,6.8,3.1,10,3.1c1.1,0,5.6,0,9-2.4c2.8-2,3.7-4.7,4-5.9l-4.3-1.2
			c-0.8,4.2-5.2,5.5-8.9,5.5c-7.4,0-8.4-3.9-8.4-6.1c0-4.3,4.5-5.3,7.7-5.9l3.8-0.8c6.4-1.3,10.1-5,10.1-10.7c0-4.2-3.4-11-13.7-11
			c-3.1,0-10.8,0.5-14.7,9.8L715.5,346.3"/>
		<path id="path104" class="st2" d="M750.5,335.9v36.6h4.5v-36.6H750.5z M750.5,381.1v7h4.5v-7H750.5"/>
		<path id="path106" class="st2" d="M774.9,343.7c0-2.1,0.3-4.5,3-4.5c1.8,0,3.7,1.3,5.1,2.3v-4.6c-1-0.8-2.9-1.7-6.1-1.7
			c-1.3,0-4.7,0.1-5.8,3.3c-0.5,1.3-0.5,4-0.5,6v24.2h-7.7v3.8h7.7v15.6h4.4v-15.6h8.1v-3.8h-8.1V343.7"/>
		<path id="path108" class="st2" d="M818,372.5l-17.3-43.8c-2.9-7.5-4.4-11.4-9.8-11.4c-2.5,0-4.1,0.9-4.8,1.5v4.6
			c2.1-1.5,3.5-1.8,4.8-1.8c2.6,0,3.4,1.6,4.9,5.5l3.4,8.8l-12.7,36.6h4.4l10.7-31.2l11.9,31.2H818"/>
		<path id="path110" class="st2" d="M860.8,369.6c-6.6,0-11.8-4.8-11.8-15.8c0-11.3,5.9-14.8,11.7-14.8c5.7,0,11.9,3.7,11.9,15.4
			C872.5,365.9,866.5,369.6,860.8,369.6z M860.5,335c-9.4,0-16.4,7-16.4,18.8c0,11.4,6.2,19.6,16.7,19.6c11.4,0,16.4-9.7,16.5-19
			C877.4,340.7,868.5,335,860.5,335"/>
		<path id="path112" class="st2" d="M896.2,368.7v-32.8h-4.5v32.8h-8.1v3.8h8.1v10.1c0,3.3,0.4,8.5,8.1,8.5c1.8,0,3-0.2,4.7-0.5
			v-4.5c-0.8,0.3-2.2,1-4.4,1c-3.3,0-3.9-2.5-3.9-5.1v-9.6h8.3v-3.8L896.2,368.7"/>
		<path id="path114" class="st2" d="M952.7,384.1l-10.6-27.7h21L952.7,384.1z M970.9,335.9l-6.2,16.4h-24.3l-6.2-16.4h-5.7
			l22.1,54.2h4.3l21.6-54.2H970.9"/>
		<path id="path116" class="st2" d="M988.7,352.9c0-5,0.9-8.8,4-11.3c2.5-2.1,5.1-2.1,6.4-2.1c8.4,0,11.4,8.2,11.4,15.3
			c0,6.8-2.9,14.4-11.4,14.4c-8.8,0-10.3-8.8-10.3-14.4L988.7,352.9z M988.7,372.5v-6c1.2,2.8,4.2,6.8,11.1,6.8
			c13.4,0,15.4-13.9,15.4-19.2c0-5.5-2.7-19-15.4-19c-6.4,0-9.8,3.8-11.1,7v-25.6h-4.5v56H988.7"/>
		<path id="path118" class="st2" d="M1029.7,352.9c0-5,0.9-8.8,4-11.3c2.5-2.1,5.1-2.1,6.4-2.1c8.4,0,11.4,8.2,11.4,15.3
			c0,6.8-2.9,14.4-11.4,14.4c-8.8,0-10.3-8.8-10.3-14.4L1029.7,352.9z M1029.7,372.5v-6c1.2,2.8,4.2,6.8,11.1,6.8
			c13.4,0,15.4-13.9,15.4-19.2c0-5.5-2.7-19-15.4-19c-6.4,0-9.8,3.8-11.1,7v-25.6h-4.5v56H1029.7"/>
		<path id="path120" class="st2" d="M1066.3,335.9v54.2h4.6v-54.2H1066.3"/>
		<path id="path122" class="st2" d="M1083.4,335.9v36.6h4.5v-36.6H1083.4z M1083.4,381.1v7h4.5v-7H1083.4"/>
		<path id="path124" class="st2" d="M1126.2,357.9c-1.1,9.4-7.4,11.4-11.4,11.4c-7.8,0-11.2-6.3-11.7-11.4H1126.2z M1103.1,353.1
			c0-5.5,2.3-14,12.3-14c3.3,0,8.4,0.7,11.9,7.7l4.2-1.2c-1.7-3.8-5.5-10.6-15.9-10.6c-14.9,0-17.5,13.2-17.5,19.6
			c0,12.5,8.4,18.9,16.9,18.9c10.4,0,16.5-9.1,16.5-18.6v-0.7h-28.4L1103.1,353.1"/>
		<path id="path126" class="st2" d="M1155,339.4c5.9,0,10.7,4.1,10.7,14.2v2c0,12.1-6.8,13.6-10.4,13.6c-6.9,0-11.1-5.8-11.1-14.9
			C1144.1,343.4,1149.3,339.4,1155,339.4z M1165.5,335.9v6.6c-1.7-4.8-6.4-7.4-11.3-7.4c-9.1,0-15.1,8.3-15.1,19.2
			c0,10.9,6.1,19,15.8,19c4.8,0,9.2-2.5,10.6-6.6v23.4h4.5v-54.2H1165.5"/>
		<path id="path128" class="st2" d="M1236,377.1c-0.5,1.7-1.2,3.2-2.2,4.7c-1.5,2.2-5.2,5.5-11.8,5.5c-9.4,0-12.7-5.1-12.7-9.7
			c0-7,6.3-8.8,11.5-10.1l5.2-1.4c9.7-2.6,15.9-6.8,15.9-15.4c0-2.8-0.8-8.1-6.7-12.4c-2.5-1.8-6.4-3.8-13.5-3.8
			c-10.4,0-18,4.5-20.2,15l5.1,2.7c0.2-3.2,0.5-4.6,1.2-6.1c1.5-3.4,5.6-7.1,13.8-7.1c10,0,15,5.4,15,11.5c0,6-3.8,8.8-11.5,10.8
			l-6.2,1.6c-6.1,1.6-14.7,4.5-14.7,14.4c0,7.5,5.5,14,17.9,14c7.4,0,15.2-2.5,18.7-11.9L1236,377.1"/>
		<path id="path130" class="st2" d="M1280,344c-2.2-4.7-6.4-9.1-14.7-9.1c-10.4,0-16.8,7.7-16.8,19c0,12,7.3,19.5,17.6,19.5
			c7.8,0,12-4.1,13.9-9.2l-4.2-1c-1.6,4.1-5.6,6.1-9.9,6.1c-8.5,0-12.4-7.2-12.4-15.2c0-8.2,3.7-15.2,12.1-15.2
			c4.6,0,7.7,2.1,9.9,6.1L1280,344"/>
		<path id="path132" class="st2" d="M1288.8,335.9v36.6h4.5v-36.6H1288.8z M1288.8,381.1v7h4.5v-7H1288.8"/>
		<path id="path134" class="st2" d="M1331.6,357.9c-1.1,9.4-7.4,11.4-11.4,11.4c-7.8,0-11.2-6.3-11.7-11.4H1331.6z M1308.4,353.1
			c0-5.5,2.3-14,12.3-14c3.3,0,8.4,0.7,11.9,7.7l4.2-1.2c-1.7-3.8-5.5-10.6-15.9-10.6c-14.9,0-17.5,13.2-17.5,19.6
			c0,12.5,8.4,18.9,16.9,18.9c10.4,0,16.5-9.1,16.5-18.6v-0.7h-28.4L1308.4,353.1"/>
		<path id="path136" class="st2" d="M1370.8,335.9v19c0,4.9,0,7.8-0.8,10c-1.4,3.5-5.1,4.3-7.6,4.3c-7.6,0-11-5.7-11-12.4v-21h-4.5
			v36.6h4.5V366c0.3,1,2.6,7.3,11.5,7.3c6.8,0,10-3.8,11.1-6.3c1.2-2.6,1.3-5.2,1.3-10.3v-20.8H1370.8"/>
		<path id="path138" class="st2" d="M1417,344c-2.2-4.7-6.4-9.1-14.7-9.1c-10.4,0-16.8,7.7-16.8,19c0,12,7.3,19.5,17.6,19.5
			c7.8,0,12-4.1,13.9-9.2l-4.2-1c-1.6,4.1-5.6,6.1-9.9,6.1c-8.5,0-12.4-7.2-12.4-15.2c0-8.2,3.7-15.2,12-15.2c4.6,0,7.8,2.1,9.9,6.1
			L1417,344"/>
		<path id="path140" class="st2" d="M1451.6,357.9c-1.1,9.4-7.4,11.4-11.4,11.4c-7.8,0-11.2-6.3-11.7-11.4H1451.6z M1428.4,353.1
			c0-5.5,2.3-14,12.3-14c3.3,0,8.4,0.7,11.9,7.7l4.2-1.2c-1.7-3.8-5.5-10.6-15.9-10.6c-14.9,0-17.5,13.2-17.5,19.6
			c0,12.5,8.4,18.9,16.9,18.9c10.4,0,16.5-9.1,16.5-18.6v-0.7h-28.4L1428.4,353.1"/>
		<path id="path142" class="st2" d="M1468.2,346.3c0.6-2.5,3.4-7.2,10.2-7.2c7.1,0,9.4,3.9,9.4,7.1c0,3.1-1.8,5.3-7.9,6.6l-4.3,0.9
			c-5.7,1.2-9.5,3.8-9.5,9.1c0,1.3,0.2,4.8,3.1,7.4c2.5,2.3,6.8,3.1,10,3.1c1.1,0,5.6,0,9-2.4c2.8-2,3.7-4.7,4-5.9l-4.3-1.2
			c-0.8,4.2-5.2,5.5-8.9,5.5c-7.4,0-8.4-3.9-8.4-6.1c0-4.3,4.5-5.3,7.7-5.9l3.8-0.8c6.4-1.3,10.1-5,10.1-10.7c0-4.2-3.4-11-13.7-11
			c-3.1,0-10.8,0.5-14.7,9.8L1468.2,346.3"/>
		<path id="path144" class="st2" d="M492.5,590.4h13.4v75.5h-13.4v19.3h54.8v-19.3h-11.6v-25.1h31.1v25.1h-11.6v19.3H610v-19.3
			h-13.4v-75.5H610v-19.3h-54.8v19.3h11.6v31.1h-31.1v-31.1h11.6v-19.3h-54.8V590.4L492.5,590.4"/>
		<path id="path146" class="st2" d="M733,639.4h-19.8v26.6H696v-75.5h17.1v-19.3h-64v19.3h17.1v75.5h-17.1v-26.6h-19.8v45.9H733
			V639.4L733,639.4"/>
		<path id="path148" class="st2" d="M753.7,665.9h-12.1v19.3h51.3v-19.3h-11.6l18.3-54.8h0.3l17.3,54.8h-10.4v19.3h41v-19.3h-10.6
			l18.5-54.8h0.3l18,54.8h-11.8v19.3h46.1v-19.3h-12.4L864,570.3h-20.7l-18.2,52.1h-0.3l-17.1-52.1h-21L753.7,665.9L753.7,665.9"/>
		<path id="path150" class="st2" d="M1051.4,657.2c-5,16.6-13.5,26.2-35,26.2c-26.7,0-40-21-40-52.4c0-38.2,17.6-52.4,41.9-52.4
			c18.8,0,28.2,9.7,33.6,25.4l10.9-5.9c-8.4-21.5-24.5-29.9-46.7-29.9c-28.4,0-51.1,17.8-51.1,62.9c0,45.4,24.2,62.9,50.3,62.9
			c23.7,0,38.2-8.4,47.6-30.9L1051.4,657.2L1051.4,657.2"/>
		<path id="path152" class="st2" d="M1078.4,690.8h10.1v-50.9h0.3c5,10.3,14.6,13.9,24.1,13.9c19.8,0,28.4-11.4,28.4-28.1v-54.6
			h-10.1v51.6c0,16.3-6.9,21.7-19.7,21.7c-12.1,0-23-8.1-23-26.2v-47.1h-10.1L1078.4,690.8L1078.4,690.8"/>
		<path id="path154" class="st2" d="M1218.9,582.9h-0.3c-5-10.1-14.6-13.8-24-13.8c-19.8,0-28.4,11.4-28.4,28.1v54.6h10.1v-51.6
			c0-16.3,6.9-21.7,19.7-21.7c12.1,0,23,8.1,23,26.2v47.1h10.1v-80.7h-10.1L1218.9,582.9L1218.9,582.9"/>
		<path id="path156" class="st2" d="M1257.8,651.8h10.1v-11.3h0.3c5.6,8.4,11.4,13.3,21.9,13.3c2.7,0,4.7-0.2,7.2-0.3v-8.7
			c-2.3,0.5-4.5,0.7-6.7,0.7c-15.6,0-22.7-11.4-22.7-27.9v-46.4h-10.1V651.8L1257.8,651.8"/>
	</g>
</g>
</svg>
