<svg xmlns="http://www.w3.org/2000/svg" width="284" height="76" viewBox="0 0 284 76"><path fill="#232d5a" d="M.268 39.957c23.261 0 44.934 6.106 61.027 17.194l.554.382.556-.381a20.565 20.565 0 0 1 2.329-1.382c13.055-6.616 31.666 1.549 44.251 19.419l.559.792.8-.548C120.378 68.559 131.619 64.145 142 63v-1.969c-.072.007-.144.013-.215.022-10.417 1.145-21.657 5.476-31.751 12.221-13.148-18.123-32.452-26.216-46.186-19.256a22.005 22.005 0 0 0-1.989 1.141c-11.2-7.585-24.981-12.829-40.065-15.383-.916-.136-3.085-.446-6.036-.789C11.183 38.454.479 38 .268 37.993v1.964zm64.466-19.734a20.8 20.8 0 0 1-2.879-1.771C46.44 29.271 24.548 36.033.268 36.033v1.96H142v-25C131.572 11.84 120.152 7.453 109.541 0 97.116 18.18 78.334 27.118 64.734 20.223zm100.331 17.769h9.8v-3.4h-9.8V27.5h10.706v-3.4h-14.806v26.145h14.874v-3.4h-10.774zm24.649-6.839a7.645 7.645 0 0 0-6.363 3.016l-.5-2.662h-3.217v18.738h4.03v-14a8.311 8.311 0 0 1 4.424-1.626 2.822 2.822 0 0 1 3.138 3.027v12.6h4.03V37.575c.004-4.275-2.106-6.422-5.542-6.422zm21.658 2.593a6.339 6.339 0 0 0-5.2-2.593c-2.793 0-7.221 1.62-7.279 9.723s4.519 9.723 6.887 9.723a6.256 6.256 0 0 0 5.191-2.2v3.046c0 2.612-1.5 4.11-3.947 4.11a3.287 3.287 0 0 1-3.192-2.419l-3.845.911c.72 2.711 3.156 4.275 6.874 4.275 3.878 0 8-1.548 8.14-6.917v-19.9h-3.211zm-.4 12.068a4.792 4.792 0 0 1-3.836 1.792c-2.15 0-4.211-1.518-4.211-6.73 0-5.55 2.294-6.611 4.273-6.611a5.206 5.206 0 0 1 3.774 1.763zm15.037-14.661c-4.583 0-6.827 2.319-7 4.881l3.759.891a3.016 3.016 0 0 1 3.127-3c1.945 0 3.377 1.121 3.377 3.552v.995s-2.5.159-4.7.47c-2.774.393-6.36 1.242-6.36 6 0 4.154 3.655 5.662 5.953 5.662a7.4 7.4 0 0 0 5.522-2.551l.4 2.2h3.213V37.79c0-5.162-3.341-6.637-7.288-6.637zm3.262 14.62a4.948 4.948 0 0 1-3.872 1.835c-1.65 0-3.159-.8-3.159-2.883 0-1.54 1.077-2.638 2.912-3a34.113 34.113 0 0 1 4.119-.466zm19.734-12.607a6.26 6.26 0 0 0-4.92-1.989c-2.366 0-7.156 1.622-7.156 9.71 0 7.646 4.216 9.709 7.006 9.709a6.077 6.077 0 0 0 5.37-2.618l.583 2.265h3.142V24.1h-4.025zm0 12.657a4.906 4.906 0 0 1-3.7 1.763c-1.977 0-4.355-1.156-4.355-6.7 0-5.327 2.184-6.616 4.3-6.616a5.13 5.13 0 0 1 3.749 1.737zm11.557-22.052a2.547 2.547 0 0 0 0 5.091 2.546 2.546 0 0 0 0-5.091zm-2.012 26.474h4.03V31.507h-4.03zm19.636-19.092a7.6 7.6 0 0 0-6.363 3.016l-.5-2.662h-3.213v18.738h4.03v-14a8.311 8.311 0 0 1 4.424-1.626 2.822 2.822 0 0 1 3.138 3.027v12.6h4.03V37.575c0-4.275-2.11-6.422-5.546-6.422z"/></svg>
