<svg enable-background="new -30 1.623 260 50" height="50" viewBox="-30 1.623 260 50" width="260" xmlns="http://www.w3.org/2000/svg"><g fill="#7a796b"><path d="m-12.301 23.952c1.038.755 1.636 1.948 1.636 3.367 0 2.452-1.887 4.151-4.655 4.151h-2.832c-2.547 0-4.403-1.477-4.655-3.711 0-.252.252-.44.471-.44h1.195c.285 0 .441.188.472.408.22 1.385 1.604 1.854 2.737 1.854h2.358c1.322 0 2.803-.562 2.803-2.261 0-1.729-1.481-2.392-2.771-2.392h-2.611c-4.247 0-6.543-2.265-6.543-6.543v-3.303c0-4.248 2.296-6.544 6.543-6.544h1.886c4.28 0 6.545 2.296 6.545 6.544v3.303c.001 2.641-.881 4.528-2.579 5.567m.471-8.87c0-3.209-1.445-4.656-4.655-4.656h-1.416c-3.241 0-4.687 1.416-4.687 4.656v3.302c0 3.207 1.446 4.656 4.655 4.656h1.416c3.242 0 4.687-1.415 4.687-4.656z"/><path d="m6.294 25.147h-13.307c-.284 0-.503-.189-.503-.472v-.942c0-.222.219-.474.472-.474h4.687v-10.253c0-2.486 1.919-4.217 4.688-4.217h3.271c.221 0 .472.19.472.472v.977c0 .251-.251.44-.472.44h-3.02c-1.321 0-2.863.598-2.863 2.328v10.254h6.576c.251 0 .471.222.471.474v.942c-.002.282-.221.471-.472.471"/><path d="m23.409 25.147h-13.089c-.283 0-.503-.189-.503-.47v-.944c0-.222.22-.475.472-.475h5.505v-13.997c0-.282.221-.472.472-.472h1.165c.251 0 .471.19.471.472v13.998h5.505c.219 0 .471.223.471.475v.944c0 .28-.25.469-.469.469m-5.977-19.156h-1.133c-.283 0-.503-.222-.503-.471v-2.361c0-.22.221-.471.472-.471h1.165c.251 0 .472.251.472.471v2.361c-.001.249-.192.471-.473.471"/><path d="m37.345 25.4h-5.598c-2.612 0-4.437-1.541-4.656-3.744-.032-.282.187-.472.44-.472h1.194c.252 0 .409.189.472.472.251 1.354 1.574 1.855 2.769 1.855h5.16c1.259 0 2.799-.599 2.799-2.327v-1.194c0-1.732-1.509-2.297-2.799-2.297h-5.379c-2.769 0-4.688-1.729-4.688-4.217v-.723c0-2.453 1.919-4.215 4.656-4.215h5.161c2.546 0 4.403 1.542 4.654 3.744.031.283-.188.471-.472.471h-1.195c-.251 0-.409-.187-.472-.471-.22-1.384-1.604-1.856-2.738-1.856h-4.687c-1.291 0-2.832.598-2.832 2.327v.723c0 1.731 1.541 2.297 2.832 2.297h5.379c2.769 0 4.657 1.729 4.657 4.217v1.194c-.001 2.454-1.888 4.216-4.657 4.216"/><path d="m53.8 25.4h-1.886c-4.249 0-6.544-2.295-6.544-6.542v-3.776c0-4.247 2.264-6.542 6.512-6.542h1.886c3.777 0 5.978 1.793 6.451 5.159.063.25-.189.471-.441.471h-1.195c-.283 0-.44-.221-.472-.471-.377-2.234-1.856-3.272-4.562-3.272h-1.415c-3.209 0-4.687 1.417-4.687 4.655v3.776c0 3.207 1.446 4.655 4.687 4.655h1.415c2.706 0 4.185-1.038 4.562-3.271.032-.25.188-.472.472-.472h1.163c.284 0 .536.222.503.472-.504 3.365-2.673 5.158-6.449 5.158"/><path d="m79.378 25.147h-1.163c-.284 0-.471-.189-.471-.472v-9.594c0-3.209-1.478-4.656-4.689-4.656h-1.415c-3.241 0-4.687 1.417-4.687 4.656v9.594c0 .282-.188.472-.442.472h-1.163c-.283 0-.472-.189-.472-.472v-21.516c0-.22.188-.471.472-.471h1.163c.253 0 .442.251.442.471v6.889c1.102-.974 2.673-1.51 4.687-1.51h1.633c4.28 0 6.545 2.296 6.545 6.544v9.594c.001.282-.188.471-.44.471"/></g><g fill="#008fd3"><path d="m92.876 25.4h-1.886c-4.248 0-6.543-2.295-6.543-6.542v-3.776c0-4.247 2.264-6.542 6.511-6.542h1.887c3.776 0 5.979 1.793 6.45 5.159.063.25-.188.471-.441.471h-1.195c-.283 0-.44-.221-.472-.471-.379-2.234-1.855-3.272-4.561-3.272h-1.416c-3.208 0-4.686 1.417-4.686 4.655v3.776c0 3.207 1.446 4.655 4.686 4.655h1.416c2.706 0 4.182-1.038 4.561-3.271.031-.25.188-.472.472-.472h1.164c.284 0 .535.222.504.472-.505 3.365-2.674 5.158-6.451 5.158"/><path d="m111.721 25.403h-1.886c-4.247 0-6.512-2.298-6.512-6.543v-3.776c0-4.248 2.265-6.544 6.512-6.544h1.886c4.278 0 6.545 2.296 6.545 6.544v3.776c0 4.243-2.233 6.543-6.545 6.543m4.469-10.321c0-3.209-1.479-4.656-4.688-4.656h-1.416c-3.239 0-4.688 1.416-4.688 4.656v3.776c0 3.207 1.448 4.653 4.688 4.653h1.416c3.21 0 4.654-1.413 4.654-4.653z"/><path d="m137.362 25.147h-1.163c-.284 0-.473-.189-.473-.472v-9.594c0-3.209-1.226-4.656-4.466-4.656h-1.633c-3.242 0-4.689 1.417-4.689 4.656v9.594c0 .282-.188.472-.44.472h-1.164c-.283 0-.473-.189-.473-.472v-15.414c0-.282.189-.472.473-.472h1.164c.25 0 .44.19.44.472v.787c1.101-.974 2.675-1.51 4.689-1.51h1.886c4.277 0 6.294 2.296 6.294 6.544v9.594c-.003.282-.192.471-.445.471"/><path d="m152.687 25.4h-5.603c-2.61 0-4.435-1.541-4.653-3.744-.031-.282.188-.472.441-.472h1.196c.253 0 .41.189.473.472.249 1.354 1.57 1.855 2.768 1.855h5.16c1.259 0 2.8-.599 2.8-2.327v-1.194c0-1.732-1.512-2.297-2.8-2.297h-5.38c-2.768 0-4.689-1.729-4.689-4.217v-.723c0-2.453 1.922-4.215 4.657-4.215h5.158c2.548 0 4.405 1.542 4.652 3.744.031.283-.185.471-.471.471h-1.195c-.251 0-.408-.187-.473-.471-.219-1.384-1.603-1.856-2.736-1.856h-4.689c-1.291 0-2.831.598-2.831 2.327v.723c0 1.731 1.54 2.297 2.831 2.297h5.381c2.769 0 4.655 1.729 4.655 4.217v1.194c.002 2.454-1.884 4.216-4.652 4.216"/><path d="m175.938 25.147h-1.134c-.283 0-.474-.189-.474-.472v-.785c-1.098.976-2.451 1.511-4.466 1.511h-.943c-4.247 0-6.51-2.298-6.51-6.542v-9.598c0-.282.188-.472.469-.472h1.164c.251 0 .444.19.444.472v9.597c0 3.207 1.447 4.654 4.688 4.654h.471c3.21 0 4.654-1.414 4.654-4.654v-9.597c0-.282.22-.472.471-.472h1.166c.219 0 .469.19.469.472v15.415c-.001.282-.251.471-.469.471"/><path d="m190.817 25.147h-1.887c-4.247 0-6.573-2.326-6.573-6.512v-15.476c0-.22.22-.471.471-.471h1.196c.222 0 .44.251.44.471v15.447c0 3.208 1.513 4.654 4.719 4.654h1.636c.282 0 .471.222.471.474v.942c0 .282-.191.471-.473.471"/><path d="m205.539 11.369h-8.241v7.237c0 3.239 1.45 4.653 4.688 4.653h2.58c.252 0 .504.223.504.475v.942c0 .282-.25.472-.471.472h-2.832c-4.247 0-6.546-2.265-6.546-6.512v-7.236h-3.741c-.253 0-.473-.22-.473-.472v-.943c0-.283.187-.474.473-.474h3.741v-6.352c0-.22.19-.471.473-.471h1.165c.251 0 .439.251.439.471v6.324h8.211c.25 0 .438.219.438.471v.942c.003.284-.185.473-.408.473"/><path d="m223.064 25.147h-1.193c-.254 0-.473-.188-.473-.47v-.033c-.722.472-1.73.755-2.768.755h-5.411c-2.736 0-4.688-1.729-4.688-4.217v-2.076c0-2.484 1.95-4.277 4.688-4.277h5.379c1.069 0 2.047.282 2.8.818v-.315c0-3.241-1.447-4.655-4.655-4.655h-5.631c-.252 0-.471-.222-.471-.472v-.943c0-.283.219-.473.471-.473h5.851c4.278 0 6.543 2.266 6.543 6.514v9.375c0 .281-.219.469-.442.469m-1.666-6.04c0-1.73-1.512-2.391-2.768-2.391h-5.161c-1.29 0-2.832.631-2.832 2.36v2.106c0 1.729 1.513 2.328 2.832 2.328h5.128c1.259 0 2.8-.599 2.8-2.328z"/></g><g fill="#7a796b"><path d="m136.673 46.721c-.03.139-.107.232-.232.232h-.995c-.141 0-.2-.092-.232-.232l-1.488-4.34-1.352 4.34c-.045.139-.123.232-.229.232h-.996c-.139 0-.216-.092-.23-.232l-1.211-7.519c-.031-.136.09-.231.229-.231h.568c.123 0 .214.095.229.231l.922 6.769 1.382-4.374c.046-.123.09-.23.229-.23h.922c.124 0 .17.107.214.23l1.521 4.402.918-6.797c.018-.136.095-.231.233-.231h.566c.123 0 .262.095.23.231z"/><path d="m147.074 43.423h-6.061v.339c0 1.578.705 2.269 2.285 2.269h2.854c.137 0 .23.107.23.232v.46c0 .137-.092.23-.23.23h-2.976c-2.071 0-3.178-1.104-3.178-3.173v-1.736c0-2.069 1.106-3.19 3.178-3.19h.92c2.087 0 3.19 1.121 3.19 3.19v1.151c.002.11-.09.228-.212.228m-.798-.918v-.461c0-1.567-.719-2.27-2.286-2.27h-.691c-1.58 0-2.285.69-2.285 2.27v.461h5.247z"/><path d="m155.543 46.37c.504.367.797.952.797 1.642 0 1.197-.92 2.025-2.271 2.025h-1.379c-1.244 0-2.148-.72-2.27-1.812 0-.123.121-.214.23-.214h.583c.137 0 .214.091.23.198.107.675.781.904 1.335.904h1.149c.643 0 1.365-.274 1.365-1.103 0-.844-.723-1.165-1.351-1.165h-1.273c-2.071 0-3.191-1.104-3.191-3.194v-1.61c0-2.072 1.12-3.19 3.191-3.19h.921c2.087 0 3.192 1.118 3.192 3.19v1.61c.002 1.295-.429 2.212-1.258 2.719m.229-4.328c0-1.567-.706-2.27-2.269-2.27h-.691c-1.579 0-2.287.689-2.287 2.27v1.61c0 1.567.708 2.271 2.271 2.271h.689c1.58 0 2.286-.691 2.286-2.271v-1.61z"/><path d="m166.176 46.721c-.029.139-.107.232-.231.232h-.996c-.139 0-.2-.092-.232-.232l-1.487-4.34-1.352 4.34c-.046.139-.125.232-.232.232h-.996c-.137 0-.217-.092-.229-.232l-1.214-7.519c-.029-.136.093-.231.231-.231h.565c.125 0 .215.095.232.231l.923 6.769 1.379-4.374c.047-.123.092-.23.231-.23h.922c.122 0 .169.107.215.23l1.518 4.402.921-6.797c.017-.136.094-.231.232-.231h.565c.124 0 .261.095.231.231z"/><path d="m176.886 43.423h-6.06v.339c0 1.578.704 2.269 2.284 2.269h2.854c.137 0 .23.107.23.232v.46c0 .137-.092.23-.23.23h-2.976c-2.071 0-3.177-1.104-3.177-3.173v-1.736c0-2.069 1.105-3.19 3.177-3.19h.921c2.086 0 3.19 1.121 3.19 3.19v1.151c.002.11-.09.228-.213.228m-.798-.918v-.461c0-1.567-.721-2.27-2.286-2.27h-.691c-1.58 0-2.284.69-2.284 2.27v.461h5.246z"/><path d="m185.247 46.953h-6.384c-.136 0-.242-.09-.242-.232v-.458c0-.109.106-.232.229-.232h2.684v-6.828c0-.136.107-.229.232-.229h.568c.121 0 .229.09.229.229v6.828h2.684c.107 0 .231.107.231.232v.458c.001.142-.124.232-.231.232m-2.913-9.346h-.554c-.14 0-.247-.106-.247-.229v-1.148c0-.106.107-.231.232-.231h.568c.121 0 .229.125.229.231v1.148c.001.123-.092.229-.228.229"/><path d="m192.045 47.077h-2.734c-1.272 0-2.16-.752-2.268-1.827-.017-.138.09-.23.214-.23h.584c.122 0 .197.092.229.23.123.662.769.903 1.353.903h2.516c.612 0 1.364-.29 1.364-1.134v-.583c0-.843-.734-1.121-1.364-1.121h-2.625c-1.35 0-2.284-.845-2.284-2.057v-.348c0-1.199.935-2.058 2.269-2.058h2.518c1.244 0 2.148.752 2.27 1.825.018.138-.09.233-.23.233h-.584c-.121 0-.197-.093-.229-.233-.109-.671-.782-.904-1.336-.904h-2.285c-.628 0-1.382.293-1.382 1.138v.351c0 .844.754 1.12 1.382 1.12h2.625c1.349 0 2.269.845 2.269 2.058v.58c-.001 1.196-.923 2.057-2.272 2.057"/><path d="m203.936 43.423h-6.061v.339c0 1.578.705 2.269 2.288 2.269h2.852c.137 0 .231.107.231.232v.46c0 .137-.093.23-.231.23h-2.976c-2.071 0-3.177-1.104-3.177-3.173v-1.736c0-2.069 1.105-3.19 3.177-3.19h.921c2.086 0 3.19 1.121 3.19 3.19v1.151c0 .11-.092.228-.214.228m-.797-.918v-.461c0-1.567-.719-2.27-2.286-2.27h-.689c-1.583 0-2.288.69-2.288 2.27v.461h5.247z"/><path d="m213.771 46.953h-.566c-.138 0-.232-.09-.232-.232v-4.679c0-1.567-.599-2.27-2.178-2.27h-.799c-1.58 0-2.284.689-2.284 2.27v4.679c0 .139-.095.232-.217.232h-.567c-.136 0-.23-.09-.23-.232v-7.519c0-.136.093-.229.23-.229h.567c.122 0 .217.09.217.229v.384c.535-.475 1.303-.734 2.284-.734h.921c2.09 0 3.068 1.118 3.068 3.19v4.679c0 .142-.094.232-.214.232"/><path d="m223.451 46.953h-.567c-.139 0-.229-.09-.229-.232v-.381c-.538.476-1.305.734-2.287.734h-.814c-2.071 0-3.176-1.118-3.176-3.19v-1.842c0-2.072 1.104-3.19 3.176-3.19h.814c.967 0 1.732.26 2.271.734v-3.36c0-.107.106-.229.229-.229h.583c.106 0 .214.122.214.229v10.495c0 .142-.091.232-.214.232m-.797-4.911c0-1.567-.72-2.27-2.287-2.27h-.689c-1.581 0-2.286.689-2.286 2.27v1.842c0 1.563.705 2.268 2.286 2.268h.689c1.567 0 2.271-.689 2.271-2.268z"/></g></svg>