<svg enable-background="new 0 0 183 84" height="84" viewBox="0 0 183 84" width="183" xmlns="http://www.w3.org/2000/svg"><g fill="#7aa5b7"><path d="m1.9 64.9v18h12.1v-3.2h-8.7v-14.8z"/><path d="m27.7 78.2c0 .1 0 .2-.1.3l-1 1c-.1.1-.2.1-.3.1h-4c-.1 0-.2 0-.3-.1l-1-1c-.1-.1-.1-.2-.1-.3v-13.3h-3.4v13.8c0 .5.2 1 .6 1.4l2.2 2.2c.4.4.9.6 1.4.6h5.3c.5 0 1-.2 1.4-.6l2.2-2.2c.4-.4.6-.9.6-1.4v-13.8h-3.4v13.3z"/><path d="m104 64.9v13.4c-.4-.9-5.7-13.4-5.7-13.4h-4.7v18h3.3v-13.4c.4.9 5.7 13.4 5.7 13.4h4.7v-18z"/><path d="m39.4 77.7s8.9-5.1 8.9-5.1c.7-.4 1.1-1 1.2-1.8v-5.9h-13.3v3.3h9.9v1.6c0 .2-.1.3-.3.4 0 0-8.9 5.1-8.9 5.1-.7.4-1.1 1-1.2 1.8v5.8h13.8v-3.3h-10.4v-1.6c0-.1.1-.2.3-.3"/><path d="m77.7 72.7v-4.5h5.9c.1 0 .2 0 .3.1l.6.6c.1.1.1.2.1.3v2.5c0 .1 0 .2-.1.3l-.6.6c-.1.1-.2.1-.3.1zm9.1 7c-1.2-1.5-2.8-3.6-3-3.8h.4c.5 0 1-.2 1.4-.6l1.8-1.8c.4-.4.6-.9.6-1.4v-3.5c0-.6-.2-1-.6-1.4l-1.8-1.8c-.4-.4-.8-.6-1.4-.6h-12.1v3.3h2.2v14.8h3.4v-7h1.8c.2 0 .3.1.4.2 0 0 5.3 6.8 5.3 6.8h1 2.8v-3.3h-2.2z"/><path d="m53.8 64.9v3.2h2.2v14.8h12.1v-3.2h-8.7v-4.2h6.5v-3.2h-6.5v-4.2h8.7v-3.2z"/></g><g fill="#355e6f"><path d="m12.2 37.9v7.4h-6.9v-7.4h-3.4v18h3.4v-7.4h6.9v7.4h3.4v-18z"/><path d="m32.9 42.6v8.6c0 .1 0 .2-.1.3l-1 1c-.1.1-.2.1-.3.1h-5.6c-.1 0-.2 0-.3-.1l-1-1c-.1-.1-.1-.2-.1-.3v-8.6c0-.1 0-.2.1-.3l1-1c.1-.1.2-.1.3-.1h5.6c.1 0 .2 0 .3.1l1 1c0 .1.1.2.1.3m2.8-1.9-2.2-2.2c-.4-.4-.9-.6-1.4-.6h-7c-.5 0-1 .2-1.4.6l-2.2 2.2c-.4.4-.6.9-.6 1.4v9.6c0 .5.2 1 .6 1.4l2.2 2.2c.4.4.9.6 1.4.6h7c.5 0 1-.2 1.4-.6l2.2-2.2c.4-.4.6-.9.6-1.4v-9.6c0-.6-.2-1-.6-1.4"/><path d="m50.5 52.5c-.1.1-.2.1-.3.1h-4.4c-.1 0-.2 0-.3-.1l-1-1c-.1-.1-.1-.2-.1-.3v-8.6c0-.1 0-.2.1-.3l1-1c.1-.1.2-.1.3-.1h4.4c.1 0 .2 0 .3.1l1.9 1.9 2.3-2.3-2.4-2.4c-.4-.4-.9-.6-1.4-.6h-5.8c-.5 0-1 .2-1.4.6l-2.2 2.2c-.4.4-.6.9-.6 1.4v9.6c0 .5.2 1 .6 1.4l2.2 2.2c.4.4.9.6 1.4.6h5.8c.5 0 1-.2 1.4-.6l2.4-2.4-2.3-2.3z"/><path d="m69.2 37.9v7.4h-6.9v-7.4h-3.5v18h3.5v-7.4h6.9v7.4h3.4v-18z"/><path d="m106.2 52.5c-.1.1-.2.1-.3.1h-4.4c-.1 0-.2 0-.3-.1l-1-1c-.1-.1-.1-.2-.1-.3v-8.6c0-.1 0-.2.1-.3l1-1c.1-.1.2-.1.3-.1h4.4c.1 0 .2 0 .3.1l1.9 1.9 2.3-2.3-2.4-2.4c-.4-.4-.9-.6-1.4-.6h-5.8c-.5 0-1 .2-1.4.6l-2.2 2.2c-.4.4-.6.9-.6 1.4v9.6c0 .5.2 1 .6 1.4l2.2 2.2c.4.4.9.6 1.4.6h5.8c.5 0 1-.2 1.4-.6l2.4-2.4-2.3-2.3z"/><path d="m124.9 37.9v7.4h-6.9v-7.4h-3.4v18h3.4v-7.4h6.9v7.4h3.5v-18z"/><path d="m144.4 37.9v13.3c0 .1 0 .2-.1.3l-1 1c-.1.1-.2.1-.3.1h-4c-.1 0-.2 0-.3-.1l-1-1c-.1-.1-.1-.2-.1-.3v-13.3h-3.4v13.8c0 .5.2 1 .6 1.4l2.2 2.2c.4.4.9.6 1.4.6h5.4c.5 0 1-.2 1.4-.6l2.2-2.2c.4-.4.6-.9.6-1.4v-13.8z"/><path d="m157 52.7v-14.8h-3.4v18h12.1v-3.2z"/><path d="m90.5 46-9.2-1.3c-.2 0-.4-.2-.4-.4v-1.7c0-.1 0-.2.1-.3l1-1c.1-.1.2-.1.3-.1h5.1c.1 0 .2 0 .3.1l1.9 1.9 2.3-2.3-2.3-2.3c-.4-.4-.9-.6-1.4-.6h-6.5c-.5 0-1 .2-1.4.6l-2.2 2.2c-.4.4-.6.9-.6 1.4v3.5c0 1.1.8 2 1.9 2.2l9.1 1.3c.2 0 .4.2.4.4v1.7c0 .1 0 .2-.1.3l-1 1c-.1.1-.2.1-.3.1h-6.1c-.1 0-.2 0-.3-.1l-1.9-1.9-2.1 2.3 2.3 2.3c.4.4.9.6 1.4.6h7.5c.5 0 1-.2 1.4-.6l2.2-2.2c.4-.4.6-.9.6-1.4v-3.5c0-1.1-.9-2-2-2.2"/><path d="m167.7 37.9v3.2h2.2v14.8h12.1v-3.2h-8.7v-4.2h6.6v-3.2h-6.6v-4.2h8.7v-3.2z"/><path d="m102.9 1.9c0-.1 0-.1-.1-.2-.3-.1-.6-.2-1-.2-1 0-1.5.6-1.7 1.5v.8.2h-.6c-.1 0-.1 0-.1.1v.3c0 .1 0 .2.1.2h.6v4.4c0 .1.1.2.2.2h.5c.1 0 .2-.1.2-.2v-4.3h1.3c.1 0 .1 0 .1-.1v-.4c0-.1-.1-.1-.2-.1h-1.2v-.5c0-.8.2-1.3.9-1.3.2 0 .5.1.7.1h.1c.1 0 .1 0 .1-.1l.1-.3zm-5.5 4.7c0 1-.4 2-1.5 2s-1.5-1-1.5-2c0-.9.4-1.9 1.5-1.9s1.5 1 1.5 1.9m.9 0c0-1.5-.7-2.6-2.3-2.6s-2.4 1.2-2.4 2.7.7 2.7 2.4 2.7c1.5-.1 2.3-1.3 2.3-2.8m-8.5-2.4c0-.1 0-.1-.1-.1h-.6c-.1 0-.2 0-.2.2l-1.3 3.9-1.4-4c0-.1-.1-.1-.2-.1h-.7c-.1 0-.1 0-.1.1v.1l1.9 5-.3.7c-.2.6-.6.8-1.2.8-.1 0-.3 0-.4 0s-.1 0-.2.1v.4.1c0 .1 0 .1.1.2h.5c1.1 0 1.7-.4 2.1-1.7zm-5.5 4.7-.1-.4c0-.1-.1-.1-.1-.1s0 0-.1 0c-.2.1-.4.1-.7.1s-.5-.1-.6-.2c-.2-.2-.2-.5-.2-.8v-2.8h1.2c.1 0 .2 0 .2-.1v-.4c0-.1-.1-.1-.1-.1h-1.2v-1.3c0-.1-.1-.2-.2-.2l-.5.1c-.1 0-.2.1-.2.2v1.2h-.6c-.1 0-.1 0-.1.1v.3c0 .1 0 .2.2.2h.6v2.8c0 .7 0 1.1.3 1.4.2.3.7.4 1.2.4.4 0 .7-.1 1-.2-.1 0 0-.1 0-.2m-4.7.1v-4.7c0-.1-.1-.2-.2-.2h-.5c-.1 0-.2.1-.2.2v4.7c0 .1.1.2.2.2h.5c.1 0 .2-.1.2-.2m.1-6.2c0-.3-.3-.5-.6-.5s-.5.2-.5.5.3.5.5.5c.3 0 .6-.2.6-.5m-2.5 4.9c0-.7-.5-1.1-1.1-1.3l-.8-.4c-.4-.2-.7-.4-.7-.7 0-.4.3-.7.9-.7.3 0 .8.1 1.1.3h.1c.1 0 .1 0 .1-.1l.1-.4v-.1s0-.1-.1-.1c-.4-.2-.9-.2-1.3-.2-.9 0-1.8.5-1.8 1.4 0 .7.5 1.1 1.1 1.3l.7.3c.5.2.8.4.8.8 0 .5-.4.8-1 .8-.4 0-.9-.1-1.3-.3 0 0 0 0-.1 0s-.1 0-.1.1l-.1.4v.1c0 .1 0 .1.1.1.4.2.9.3 1.5.3 1.1 0 1.9-.6 1.9-1.6m-4.4-3.5c0-.1 0-.2-.1-.2s-.2 0-.3 0c-.6 0-1 .3-1.2.7v-.4c0-.1-.1-.2-.2-.2h-.5c-.1 0-.2.1-.2.2v4.7c0 .1.1.2.2.2h.5c.1 0 .2-.1.2-.2v-3.6c.3-.4.7-.6 1.1-.6h.3c.1 0 .1 0 .1-.1zm-4.8 2h-2.7c.1-.8.6-1.5 1.5-1.5.8 0 1.2.6 1.2 1.3zm.9.3v-.2c0-.7-.2-1.3-.6-1.7s-.8-.6-1.5-.6c-1.5 0-2.5 1.2-2.5 2.7 0 1.6.9 2.7 2.5 2.7.5 0 1.2-.1 1.6-.3.1 0 .1-.1.1-.1s0 0 0-.1l-.1-.4c0-.1-.1-.1-.1-.1h-.1c-.3.1-.8.2-1.3.2-1.1 0-1.6-.8-1.7-1.8h3.3c.3 0 .4-.1.4-.3m-5.5-2.3c0-.1-.1-.1-.2-.1h-.5c-.1 0-.2 0-.3.2l-1 2.9c-.1.4-.3.8-.3 1-.1-.2-.2-.6-.3-1l-1-2.9c0-.1-.1-.1-.3-.1h-.6c-.1 0-.2 0-.2.1v.1l2 4.6c0 .1.1.2.3.2h.5c.1 0 .2 0 .2-.2zm-5.8 4.8v-4.7c0-.1-.1-.2-.2-.2h-.5c-.1 0-.2.1-.2.2v4.7c0 .1.1.2.2.2h.5c.1 0 .2-.1.2-.2m.1-6.2c0-.3-.3-.5-.6-.5s-.5.2-.5.5.3.5.5.5c.3 0 .6-.2.6-.5m-2.9 6.2v-3.1c0-1.2-.5-1.9-1.7-1.9-.6 0-1.3.2-1.7.6v-.3c0-.1-.1-.2-.2-.2h-.5c-.1 0-.2.1-.2.2v4.7c0 .1.1.2.2.2h.5c.1 0 .2-.1.2-.2v-3.7c.4-.3 1-.6 1.5-.6.8 0 1 .5 1 1.3v3c0 .1.1.2.2.2h.5c.1 0 .2-.1.2-.2m-6.2-3v-3.9c0-.1-.1-.2-.2-.2h-.6c-.1 0-.2.1-.2.2v3.7c0 1.4-.2 2.6-1.9 2.6-1.8 0-1.9-1.2-1.9-2.6v-3.7c0-.1-.1-.2-.2-.2h-.6c-.1 0-.2.1-.2.2v3.8c0 2.1.6 3.4 2.9 3.4 2.1 0 2.9-1.3 2.9-3.3m-11.1.2h-2.7c.1-.8.6-1.5 1.5-1.5.8 0 1.2.6 1.2 1.3zm.9.3v-.2c0-.7-.2-1.3-.6-1.7-.3-.4-.8-.6-1.4-.6-1.5 0-2.5 1.2-2.5 2.7 0 1.6.9 2.7 2.5 2.7.5 0 1.2-.1 1.6-.3.1 0 .1-.1.1-.1s0 0 0-.1l-.1-.5c0-.1-.1-.1-.1-.1h-.1c-.4.1-.8.2-1.3.2-1.1 0-1.6-.8-1.7-1.8h3.3c.3.1.3 0 .3-.2m-6 2.5v-3.1c0-1.2-.4-1.9-1.7-1.9-.6 0-1.2.2-1.7.6v-.3c0-.1-.1-.2-.2-.2h-.5c-.1 0-.2.1-.2.2v4.7c0 .1.1.2.2.2h.5c.2 0 .2-.1.2-.2v-3.7c.4-.3 1-.6 1.5-.6.8 0 1 .5 1 1.3v3c0 .1.1.2.2.2h.5c.2 0 .2-.1.2-.2m-5.5-4.8c0-.1 0-.2-.1-.2s-.2 0-.3 0c-.6 0-1 .3-1.2.7v-.4c0-.1-.1-.2-.2-.2h-.5c-.1 0-.2.1-.2.2v4.7c0 .1.1.2.2.2h.5c.1 0 .2-.1.2-.2v-3.6c.3-.4.7-.7 1.1-.7h.3c.1 0 .1 0 .1-.1zm-4.8 2h-2.7c.1-.8.6-1.5 1.5-1.5.8 0 1.2.6 1.2 1.3zm.9.3v-.2c0-.7-.2-1.3-.6-1.7s-.9-.6-1.5-.6c-1.5 0-2.5 1.2-2.5 2.7 0 1.6.9 2.7 2.5 2.7.5 0 1.2-.1 1.6-.3.1 0 .1-.1.1-.1s0 0 0-.1l-.1-.4c0-.1-.1-.1-.1-.1h-.1c-.3.1-.8.2-1.3.2-1.1 0-1.6-.8-1.7-1.8h3.3c.3 0 .4-.1.4-.3m-5.5 2.4v-.1l-.1-.3c0-.1-.1-.1-.1-.1h-.1c-.3.1-.7.3-1.2.3-1.1 0-1.6-.9-1.6-2 0-1.2.6-1.9 1.6-1.9.4 0 .8.1 1.1.3h.1c.1 0 .1-.1.1-.1l.1-.3v-.1c0-.1 0-.1-.1-.1-.3-.4-.8-.5-1.3-.5-1.6 0-2.5 1.1-2.5 2.7s.8 2.7 2.5 2.7c.5 0 1-.1 1.4-.3.1-.1.1-.2.1-.2m-5.5.1v-4.7c0-.1-.1-.2-.2-.2h-.5c-.1 0-.2.1-.2.2v3.6c-.3.3-.9.6-1.4.6-.8 0-1-.5-1-1.3v-3c0-.1-.1-.2-.2-.2h-.5c-.1 0-.2.1-.2.2v3.1c0 1.1.4 1.9 1.7 1.9.6 0 1.2-.2 1.7-.6v.3c0 .1.1.2.2.2h.5c0 .1.1 0 .1-.1m-5.5 0v-.4c0-.1-.1-.2-.2-.2h-2.6v-6.3c0-.2-.1-.2-.2-.2h-.6c-.2 0-.2.1-.2.2v6.9c0 .2.1.2.2.2h3.5c.1 0 .1 0 .1-.2"/><path d="m123.2 21.2c0-.7-.5-1.1-1.1-1.3l-.8-.3c-.4-.2-.7-.4-.7-.7s.3-.7.9-.7c.3 0 .8.1 1.1.3h.1c.1 0 .1 0 .1-.1l.1-.4v-.1s0-.1-.1-.1c-.5-.2-.9-.3-1.4-.3-.9 0-1.8.5-1.8 1.4 0 .7.5 1.1 1.1 1.3l.7.3c.5.2.8.4.8.8 0 .5-.4.8-1 .8-.4 0-.9-.1-1.3-.3 0 0 0 0-.1 0s-.1 0-.1.1l-.1.4v.1c0 .1 0 .1.1.1.3.2.9.3 1.5.3 1.1 0 2-.6 2-1.6m-4.4 1.3-.1-.4c0-.1-.1-.1-.1-.1s0 0-.1 0c-.2.1-.4.1-.7.1s-.5-.1-.6-.2c-.2-.2-.2-.5-.2-.8v-2.9h1.2c.1 0 .2 0 .2-.1v-.4c0-.1-.1-.1-.2-.1h-1.2v-1.3c0-.1-.1-.2-.2-.2l-.5.1c-.1 0-.2.1-.2.2v1.2h-.6c-.1 0-.1 0-.1.1v.3c0 .1 0 .2.2.2h.6v2.8c0 .7 0 1.1.3 1.4.2.3.7.4 1.2.4.4 0 .7-.1 1-.2.1 0 .1-.1.1-.1m-4-4.8c0-.1 0-.2-.1-.2s-.2 0-.3 0c-.6 0-1 .3-1.2.7v-.4c0-.1-.1-.2-.2-.2h-.5c-.1 0-.2.1-.2.2v4.7c0 .1.1.2.2.2h.5c.1 0 .2-.1.2-.2v-3.6c.3-.4.7-.6 1.1-.6h.3c.1 0 .1 0 .1-.1zm-5.7 2.1h-2.2l.9-2.4c.1-.4.2-.6.3-.8 0 .1.1.4.2.8zm2.1 2.8v-.1l-2.6-7c0-.1-.1-.1-.2-.1h-.6c-.1 0-.2.1-.2.1l-2.7 6.9v.1c0 .1 0 .1.1.1h.6c.1 0 .2 0 .2-.2l.7-2h2.7l.7 2c.1.2.1.2.3.2h.7c.2.1.3.1.3 0m-11.1-1.2c-.3.4-.8.7-1.3.7-.9 0-1.4-.8-1.4-2s.6-1.9 1.5-1.9c.5 0 1 .3 1.2.7zm.9 1.1v-7.1c0-.1-.1-.2-.2-.2h-.1l-.5.1c-.1 0-.2.1-.2.2v2.6c-.3-.4-.9-.6-1.4-.6-1.4 0-2.3 1.2-2.3 2.7 0 1.4.7 2.6 2.2 2.6.6 0 1.2-.3 1.6-.7v.4c0 .1.1.2.2.2h.5c.1 0 .2-.1.2-.2m-6.1 0v-3.1c0-1.2-.5-1.9-1.7-1.9-.6 0-1.3.2-1.7.6v-.3c0-.1-.1-.2-.2-.2h-.5c-.1 0-.2.1-.2.2v4.7c0 .1.1.2.2.2h.5c.1 0 .2-.1.2-.2v-3.6c.4-.3 1-.6 1.5-.6.8 0 1 .5 1 1.3v3c0 .1.1.2.2.2h.5c.2-.1.2-.2.2-.3m-7-1.5c-.2.5-.7 1.1-1.4 1.1-.8 0-1.3-.7-1.3-1.9 0-1.3.6-2 1.4-2 .5 0 1 .3 1.3.8zm1.4 1.6v-.4c0-.1-.1-.1-.1-.1h-.1c-.1 0-.1 0-.2-.1 0-.1-.1-.2-.1-.5v-3.7c0-.1-.1-.2-.2-.2h-.5c-.1 0-.2.1-.2.2v.4c-.3-.4-.9-.6-1.4-.6-1.2 0-2.3 1-2.3 2.8 0 1.3.6 2.6 2.1 2.6.6 0 1.3-.4 1.6-.9 0 .4.2.8.7.8h.4c.2-.2.3-.2.3-.3m-8.8-1.4c0-.7-.5-1.1-1.1-1.3l-.8-.3c-.4-.2-.7-.4-.7-.7s.3-.7.9-.7c.3 0 .8.1 1.1.3h.1c.1 0 .1 0 .1-.1l.1-.4v-.1s0-.1-.1-.1c-.5-.2-.9-.3-1.4-.3-.9 0-1.8.5-1.8 1.4 0 .7.5 1.1 1.1 1.3l.7.3c.5.2.8.4.8.8 0 .5-.4.8-1 .8-.4 0-.9-.1-1.3-.3 0 0 0 0-.1 0s-.1 0-.1.1v.4.1c0 .1 0 .1.1.1.4.2.9.3 1.5.3 1 0 1.9-.6 1.9-1.6m-5.5-1.5h-2.7c.1-.8.6-1.5 1.5-1.5.8 0 1.2.6 1.2 1.3zm.9.3v-.2c0-.7-.2-1.3-.6-1.7-.3-.4-.8-.6-1.4-.6-1.5 0-2.5 1.2-2.5 2.7 0 1.6.9 2.7 2.5 2.7.5 0 1.2-.1 1.6-.3.1 0 .1-.1.1-.1s0 0 0-.1l-.1-.4c0-.1-.1-.1-.1-.1h-.1c-.3.1-.8.2-1.3.2-1.1 0-1.6-.8-1.7-1.8h3.3c.3 0 .3-.1.3-.3m-5.4 2.4v-.1l-.1-.3c0-.1-.1-.1-.1-.1h-.1c-.3.1-.7.3-1.2.3-1.1 0-1.6-.9-1.6-2 0-1.2.6-1.9 1.6-1.9.4 0 .8.1 1.1.3h.1c.1 0 .1-.1.1-.1l.1-.3v-.1c0-.1 0-.1-.1-.1-.4-.2-.9-.3-1.4-.3-1.6 0-2.5 1.1-2.5 2.7s.8 2.7 2.5 2.7c.5 0 1-.1 1.4-.3.2-.3.2-.4.2-.4m-5.5.1v-3.1c0-1.2-.5-1.9-1.7-1.9-.6 0-1.2.2-1.7.6v-.3c0-.1-.1-.2-.2-.2h-.5c-.1 0-.2.1-.2.2v4.7c0 .1.1.2.2.2h.5c.1 0 .2-.1.2-.2v-3.6c.4-.3 1-.6 1.5-.6.8 0 1 .5 1 1.3v3c0 .1.1.2.2.2h.5c.2-.1.2-.2.2-.3m-6.6-2.8h-2.7c.1-.8.6-1.5 1.5-1.5.8 0 1.2.6 1.2 1.3zm.9.3v-.2c0-.7-.2-1.3-.6-1.7-.3-.4-.8-.6-1.4-.6-1.5 0-2.5 1.2-2.5 2.7 0 1.6.9 2.7 2.5 2.7.5 0 1.2-.1 1.6-.3.1 0 .1-.1.1-.1s0 0 0-.1l-.1-.4c0-.1-.1-.1-.1-.1h-.1c-.4.1-.8.2-1.3.2-1.1 0-1.6-.8-1.7-1.8h3.3c.3 0 .3-.1.3-.3m-6.1 2.5v-4.7c0-.1-.1-.2-.2-.2h-.5c-.1 0-.2.1-.2.2v4.7c0 .1.1.2.2.2h.5c.2 0 .2-.1.2-.2m.1-6.1c0-.3-.3-.5-.6-.5s-.5.2-.5.5.3.5.5.5c.4 0 .6-.2.6-.5m-2.4 6v-.1l-.1-.3c0-.1-.1-.1-.1-.1h-.1c-.3.1-.7.3-1.2.3-1.1 0-1.6-.9-1.6-2 0-1.2.6-1.9 1.6-1.9.4 0 .8.1 1.1.3h.1c.1 0 .1-.1.1-.1l.1-.3v-.1c0-.1 0-.1-.1-.1-.4-.2-.9-.3-1.4-.3-1.6 0-2.5 1.1-2.5 2.7s.8 2.7 2.5 2.7c.5 0 1-.1 1.4-.3.1-.3.2-.4.2-.4m-5.2-1.7c0-1-.6-1.5-1.4-2l-1.1-.6c-.4-.2-.8-.5-.8-1.1 0-.7.7-1 1.3-1 .4 0 .9.1 1.3.3h.1c.1 0 .1 0 .1-.1l.2-.4v-.1c0-.1-.1-.1-.2-.2-.6-.2-1.1-.3-1.7-.3-1.1 0-2.2.7-2.2 1.9 0 .8.5 1.3 1.2 1.7l1.3.7c.5.3.9.6.9 1.2 0 .8-.8 1.2-1.5 1.2-.5 0-1-.1-1.5-.3-.1 0-.1 0-.1 0-.1 0-.1 0-.1.1l-.1.5v.1c0 .1 0 .1.1.2.6.2 1.2.3 1.8.3 1.2 0 2.4-.7 2.4-2.1m-9.7.7c-.3.4-.8.7-1.3.7-.9 0-1.4-.8-1.4-2s.6-1.9 1.5-1.9c.5 0 1 .3 1.3.7v2.5zm.9 1.1v-7.1c0-.1-.1-.2-.2-.2h-.1l-.5.1c-.1 0-.2.1-.2.2v2.6c-.3-.4-.9-.6-1.4-.6-1.4 0-2.3 1.2-2.3 2.7 0 1.4.7 2.6 2.2 2.6.6 0 1.2-.3 1.6-.7v.4c0 .1.1.2.2.2h.5c.1 0 .2-.1.2-.2m-6.6-2.8h-2.7c.1-.8.6-1.5 1.5-1.5.8 0 1.2.6 1.2 1.3zm.9.3v-.2c0-.7-.2-1.3-.6-1.7s-.8-.6-1.4-.6c-1.5 0-2.5 1.2-2.5 2.7 0 1.6.9 2.7 2.5 2.7.5 0 1.2-.1 1.6-.3.1 0 .1-.1.1-.1s0 0 0-.1l-.1-.4c0-.1-.1-.1-.1-.1h-.1c-.4.1-.8.2-1.3.2-1.1 0-1.6-.8-1.7-1.8h3.3c.2 0 .3-.1.3-.3m-6.1 2.5v-4.7c0-.1-.1-.2-.2-.2h-.5c-.1 0-.2.1-.2.2v4.7c0 .1.1.2.2.2h.5c.1 0 .2-.1.2-.2m.1-6.1c0-.3-.3-.5-.6-.5s-.5.2-.5.5.3.5.5.5c.3 0 .6-.2.6-.5m-2.8 6.1v-7.1c0-.1-.1-.2-.2-.2h-.1l-.5.1c-.1 0-.2.1-.2.2v7c0 .1.1.2.2.2h.5c.2 0 .3-.1.3-.2m-3.4-2.4c0 .9-.4 2-1.5 2-.5 0-1.1-.3-1.3-.7v-2.5c.3-.4.8-.7 1.3-.7 1.2 0 1.5 1 1.5 1.9m1 0c0-1.4-.7-2.6-2.2-2.6-.6 0-1.2.3-1.6.7v-.4c0-.1-.1-.2-.2-.2h-.4c-.1 0-.2 0-.2.2v7c0 .1.1.2.2.2h.5c.1 0 .2 0 .2-.2v-2.6c.3.4.9.6 1.4.6 1.5 0 2.3-1.3 2.3-2.7m-7 0c0 .9-.4 2-1.5 2-.5 0-1.1-.3-1.3-.7v-2.5c.3-.4.8-.7 1.3-.7 1.2 0 1.5 1 1.5 1.9m.9 0c0-1.4-.7-2.6-2.2-2.6-.6 0-1.2.3-1.6.7v-.4c0-.1-.1-.2-.2-.2h-.4c-.1 0-.2 0-.2.2v7c0 .1.1.2.2.2h.5c.1 0 .2 0 .2-.2v-2.6c.3.4.9.6 1.4.6 1.6 0 2.3-1.3 2.3-2.7m-7.7-.3h-2.3l.9-2.4c.1-.4.2-.6.2-.8 0 .1.1.4.2.8zm2 2.8v-.1l-2.6-7c0-.1-.1-.1-.2-.1h-.6c-.1 0-.2.1-.2.1l-2.6 7v.1c0 .1 0 .1.1.1h.6c.1 0 .2 0 .2-.2l.7-2h2.7l.7 2c.1.2.1.2.3.2h.7c.2 0 .2 0 .2-.1"/></g></svg>