<svg enable-background="new 0 0 238 53" viewBox="0 0 238 53" xmlns="http://www.w3.org/2000/svg"><path d="m-207.8-476.2c.1.3.5 1 1.4 1s1.3-.5 1.3-1c0-.4-.2-.7-1.1-.9l-.6-.1c-.8-.2-1.3-.5-1.3-1.2 0-.2 0-.7.4-1 .3-.3.9-.4 1.3-.4.1 0 .8 0 1.2.3s.5.6.5.8l-.6.2c-.1-.6-.7-.7-1.2-.7-1 0-1.1.5-1.1.8 0 .6.6.7 1 .8l.5.1c.9.2 1.4.7 1.4 1.4 0 .6-.5 1.5-1.8 1.5-.4 0-1.5-.1-2-1.3z"/><g transform="matrix(.13333333 0 0 -.13333333 0 94.493333)"><path d="m128.7 566.7v124.1h-124.1v-124.1z" fill="#136ab3"/><path d="m342 335.9v124.1h-124v-124.1z" fill="#136ab3"/><path d="m353.6 581-25.8 121.3-121.3-25.8 25.8-121.3z" fill="#bdbcbc"/><path d="m128.7 335.9v124.1h-124.1v-124.1z" fill="#136ab3"/><g fill="#231f20"><path d="m541.8 421.2v25.4h-33.3v-25.4h-5.1v54.2h5.1v-24.2h33.3v24.2h5.1v-54.2z"/><path d="m574.3 454.9c-6.6 0-11.8-4.8-11.8-15.8 0-11.3 5.9-14.8 11.7-14.8 5.7 0 11.9 3.7 11.9 15.4-.1 11.5-6.1 15.2-11.8 15.2zm-.3-34.6c-9.4 0-16.4 7-16.4 18.8 0 11.4 6.2 19.6 16.7 19.6 11.4 0 16.4-9.7 16.5-19 0-13.7-8.8-19.4-16.8-19.4"/><path d="m630.2 429.3c-2.2-4.7-6.4-9.1-14.7-9.1-10.4 0-16.8 7.7-16.8 19 0 12 7.3 19.5 17.6 19.5 7.8 0 12-4.1 13.9-9.2l-4.2-1c-1.6 4.1-5.6 6.1-9.9 6.1-8.4 0-12.4-7.2-12.4-15.2 0-8.2 3.7-15.2 12-15.2 4.6 0 7.8 2.1 9.9 6.1z"/><path d="m661.3 421.2v23.2c0 4.6-1.1 10.1-8.6 10.1-5.5 0-8.1-3.1-9.2-5.1-1.5-2.8-1.5-5.9-1.5-12.3v-15.8h-4.6v54.2h4.6v-23.5c1.2 2.4 4.2 6.6 11.4 6.6 1.6 0 6.9-.3 10.1-4.5 2.1-2.8 2.4-5.8 2.4-12.2v-20.7z"/><path d="m679.8 431.6c.6-2.5 3.4-7.2 10.2-7.2 7.1 0 9.4 3.9 9.4 7.1 0 3.1-1.8 5.3-7.9 6.6l-4.3.9c-5.7 1.2-9.5 3.8-9.5 9.1 0 1.3.2 4.8 3.1 7.4 2.5 2.3 6.8 3.1 10 3.1 1.1 0 5.6 0 9-2.4 2.8-2 3.7-4.7 4-5.9l-4.3-1.2c-.8 4.2-5.2 5.5-8.9 5.5-7.4 0-8.4-3.9-8.4-6.1 0-4.3 4.5-5.3 7.7-5.9l3.8-.8c6.4-1.3 10.1-5 10.1-10.7 0-4.2-3.4-11-13.7-11-3.1 0-10.8.5-14.7 9.8z"/><path d="m743.8 429.3c-2.2-4.7-6.4-9.1-14.7-9.1-10.4 0-16.8 7.7-16.8 19 0 12 7.3 19.5 17.6 19.5 7.8 0 12-4.1 13.9-9.2l-4.2-1c-1.6 4.1-5.6 6.1-9.9 6.1-8.4 0-12.4-7.2-12.4-15.2 0-8.2 3.7-15.2 12-15.2 4.6 0 7.8 2.1 9.9 6.1z"/><path d="m774.9 421.2v23.2c0 4.6-1.1 10.1-8.6 10.1-5.5 0-8.1-3.1-9.2-5.1-1.5-2.8-1.5-5.9-1.5-12.3v-15.8h-4.6v54.2h4.6v-23.5c1.2 2.4 4.2 6.6 11.4 6.6 1.6 0 6.9-.3 10.1-4.5 2.1-2.8 2.4-5.8 2.4-12.2v-20.7z"/><path d="m816 421.2v6.6c-2-4.5-5.4-7.4-11.7-7.4-5.1 0-9.7 2.7-11.3 7.8-.8 2.5-1 6-1 11.7v18h4.6v-19c0-4.5.1-6.8.6-8.9.6-2.2 2.2-5.4 7.6-5.4 1.8 0 5.8.1 8.7 4.1 2.2 3.1 2.5 6.9 2.5 10.7v18.5h4.5v-36.6h-4.5"/><path d="m833.1 421.2v54.2h4.6v-54.2z"/><path d="m876 443.2c-1.1 9.4-7.4 11.4-11.4 11.4-7.8 0-11.2-6.3-11.7-11.4zm-23.2-4.8c0-5.5 2.3-14 12.3-14 3.3 0 8.4.7 11.9 7.7l4.2-1.2c-1.7-3.8-5.5-10.6-15.9-10.6-14.9 0-17.5 13.2-17.5 19.6 0 12.5 8.4 18.9 16.9 18.9 10.4 0 16.5-9.1 16.5-18.6v-.7h-28.4z"/><path d="m920.7 454v-32.8h-4.5v32.8h-8.1v3.8h8.1v10.2c0 3.3.4 8.5 8.1 8.5 1.8 0 3-.2 4.7-.5v-4.5c-.8.3-2.2 1-4.4 1-3.3 0-3.9-2.5-3.9-5.1v-9.6h8.3v-3.8z"/><path d="m955.7 465.9v7.1h4.7v-7.1zm-13.2 0v7.1h4.7v-7.1zm18.7-44.7v6.6c-2-4.5-5.4-7.4-11.7-7.4-5.1 0-9.7 2.7-11.3 7.8-.8 2.5-1 6-1 11.7v18h4.6v-19c0-4.5.1-6.8.6-8.9.6-2.2 2.2-5.4 7.6-5.4 1.8 0 5.8.1 8.7 4.1 2.2 3.1 2.5 6.9 2.5 10.7v18.5h4.5v-36.6h-4.5"/><path d="m982.8 457.8v-5.8c1.9 4.3 5.5 6.4 10.1 6.4.6 0 1.8 0 3.1-.2v-4.1c-.9.2-1.8.2-2.9.2-7.8 0-10.3-5.8-10.3-13.1v-20h-4.5v36.6z"/><path d="m1041.9 470.9v-49.7h-5.1v49.7h-17v4.5h39.3v-4.5z"/><path d="m1083.3 443.2c-1.1 9.4-7.4 11.4-11.4 11.4-7.8 0-11.2-6.3-11.7-11.4zm-23.2-4.8c0-5.5 2.3-14 12.3-14 3.3 0 8.4.7 11.9 7.7l4.2-1.2c-1.7-3.8-5.5-10.6-15.9-10.6-14.9 0-17.5 13.2-17.5 19.6 0 12.5 8.4 18.9 16.9 18.9 10.4 0 16.5-9.1 16.5-18.6v-.7h-28.4z"/><path d="m1127.6 429.3c-2.2-4.7-6.4-9.1-14.7-9.1-10.4 0-16.8 7.7-16.8 19 0 12 7.3 19.5 17.6 19.5 7.8 0 12-4.1 13.9-9.2l-4.2-1c-1.6 4.1-5.6 6.1-9.9 6.1-8.4 0-12.4-7.2-12.4-15.2 0-8.2 3.7-15.2 12.1-15.2 4.6 0 7.7 2.1 9.9 6.1z"/><path d="m1158.8 421.2v23.2c0 4.6-1.2 10.1-8.6 10.1-5.5 0-8.1-3.1-9.2-5.1-1.5-2.8-1.5-5.9-1.5-12.3v-15.8h-4.6v54.2h4.6v-23.5c1.2 2.4 4.2 6.6 11.4 6.6 1.6 0 6.9-.3 10.1-4.5 2.1-2.8 2.4-5.8 2.4-12.2v-20.7z"/><path d="m1199.9 421.2v19c0 4.9 0 7.8-.8 10-1.4 3.5-5.1 4.3-7.6 4.3-7.6 0-11-5.7-11-12.4v-21h-4.5v36.6h4.5v-6.5c.3 1 2.6 7.3 11.5 7.3 6.8 0 10-3.8 11.1-6.3 1.2-2.6 1.3-5.2 1.3-10.3v-20.8z"/><path d="m1217 421.2v36.6h4.5v-36.6zm0 45.2v7h4.5v-7z"/><path d="m1260.3 421.2-14 19-7.8-7.4v-11.5h-4.5v54.2h4.5v-36.8l20.6 19.3h5.7l-15.3-14.6 16.4-22h-5.6"/><path d="m1318.3 421.2v6.6c-2-4.5-5.5-7.4-11.7-7.4-5.1 0-9.7 2.7-11.3 7.8-.8 2.5-1 6-1 11.7v18h4.6v-19c0-4.5.1-6.8.6-8.9.6-2.2 2.2-5.4 7.6-5.4 1.8 0 5.8.1 8.7 4.1 2.2 3.1 2.5 6.9 2.5 10.7v18.5h4.5v-36.6h-4.5"/><path d="m1359.4 421.2v19c0 4.9 0 7.8-.9 10-1.4 3.5-5.1 4.3-7.6 4.3-7.6 0-11-5.7-11-12.4v-21h-4.5v36.6h4.5v-6.5c.3 1 2.6 7.3 11.5 7.3 6.8 0 10-3.8 11.1-6.3 1.2-2.6 1.3-5.2 1.3-10.3v-20.8z"/><path d="m1390 424.7c5.9 0 10.7 4.1 10.7 14.2v2c0 12.1-6.8 13.6-10.4 13.6-6.9 0-11.1-5.8-11.1-14.9-.2-10.9 5.1-14.9 10.8-14.9zm10.5-3.5v6.6c-1.7-4.8-6.4-7.4-11.3-7.4-9.1 0-15.1 8.3-15.1 19.2s6.1 19 15.8 19c4.8 0 9.2-2.5 10.6-6.6v23.4h4.5v-54.2z"/><path d="m1483.6 421.2h-4.1l-13 43.8-12.9-43.8h-4.1l-16.1 54.2h5.5l12.7-45 12.9 45h3.5l13.3-45 12.4 45h5.1z"/><path d="m1503.6 421.2v36.6h4.5v-36.6zm0 45.2v7h4.5v-7z"/><path d="m1525.1 457.8v-5.8c1.9 4.3 5.5 6.4 10.1 6.4.6 0 1.8 0 3.1-.2v-4.1c-.9.2-1.8.2-2.9.2-7.8 0-10.3-5.8-10.3-13.1v-20h-4.5v36.6z"/><path d="m1553.2 429c0-2.1.3-4.5 3-4.5 1.9 0 3.7 1.3 5.1 2.3v-4.6c-1-.8-2.9-1.7-6.1-1.7-1.3 0-4.7.1-5.8 3.3-.5 1.3-.5 4-.5 6v24.2h-7.7v3.8h7.7v15.6h4.4v-15.6h8.1v-3.8h-8.1v-25"/><path d="m1570.5 431.6c.6-2.5 3.4-7.2 10.2-7.2 7.1 0 9.4 3.9 9.4 7.1 0 3.1-1.8 5.3-7.9 6.6l-4.3.9c-5.7 1.2-9.5 3.8-9.5 9.1 0 1.3.2 4.8 3.1 7.4 2.5 2.3 6.8 3.1 10 3.1 1.1 0 5.6 0 9-2.4 2.8-2 3.7-4.7 4-5.9l-4.3-1.2c-.8 4.2-5.2 5.5-8.9 5.5-7.4 0-8.4-3.9-8.4-6.1 0-4.3 4.5-5.3 7.7-5.9l3.8-.8c6.4-1.3 10.1-5 10.1-10.7 0-4.2-3.4-11-13.7-11-3.1 0-10.8.5-14.7 9.8z"/><path d="m1634.5 429.3c-2.2-4.7-6.4-9.1-14.7-9.1-10.4 0-16.8 7.7-16.8 19 0 12 7.3 19.5 17.6 19.5 7.8 0 12-4.1 13.9-9.2l-4.2-1c-1.6 4.1-5.6 6.1-9.9 6.1-8.4 0-12.4-7.2-12.4-15.2 0-8.2 3.7-15.2 12.1-15.2 4.6 0 7.8 2.1 9.9 6.1z"/><path d="m1665.7 421.2v23.2c0 4.6-1.2 10.1-8.6 10.1-5.5 0-8.1-3.1-9.2-5.1-1.5-2.8-1.5-5.9-1.5-12.3v-15.8h-4.6v54.2h4.6v-23.5c1.2 2.4 4.2 6.6 11.4 6.6 1.6 0 6.9-.3 10.1-4.5 2.1-2.8 2.4-5.8 2.4-12.2v-20.7z"/><path d="m1705 440.5-2.3-.6c-12.4-3.3-17.8-4.1-17.8-9.4 0-2.5 2-6.1 7.4-6.1 4.5 0 9.9 2.7 11.7 6.9.7 1.5 1 3.1 1 6.4zm8.9-19.3c-6.1 0-8.9 1.5-8.9 6.7-.8-2.8-5-7.4-13-7.4-7.8 0-11.5 4.8-11.5 10 0 7.3 6.2 9.9 18.3 12.7l6.1 1.4v2.8c0 3.5-1.8 7.4-8.5 7.4-7.5 0-9.9-2.9-9.9-8.8l-5 .8c.9 7.4 5.9 12 14.4 12 6.4 0 13.4-1.9 13.4-11.1v-16c0-4.9.2-6.8 4.7-6.8h.8v-3.6h-.9"/><path d="m1730.9 454v-32.8h-4.5v32.8h-8.1v3.8h8.1v10.2c0 3.3.4 8.5 8.1 8.5 1.8 0 3-.2 4.7-.5v-4.5c-.9.3-2.2 1-4.4 1-3.3 0-3.9-2.5-3.9-5.1v-9.6h8.3v-3.8z"/><path d="m1754.8 429c0-2.1.3-4.5 3-4.5 1.8 0 3.7 1.3 5.1 2.3v-4.6c-1-.8-2.9-1.7-6.1-1.7-1.3 0-4.7.1-5.9 3.3-.4 1.3-.5 4-.5 6v24.2h-7.7v3.8h7.7v15.6h4.4v-15.6h8.1v-3.8h-8.1z"/><path d="m543.9 356.1c0-12-4.5-21.6-20.3-21.6-5.3 0-20.3 1.2-20.3 20.5v35.1h5.1v-36.5c0-12.1 9-14.4 15.3-14.4 9.7 0 15 4.5 15 15.7v35.2h5.1v-34"/><path d="m580.8 335.9v19c0 4.9 0 7.8-.8 10-1.4 3.5-5.1 4.3-7.6 4.3-7.6 0-11-5.7-11-12.4v-21h-4.5v36.6h4.5v-6.4c.3 1 2.6 7.3 11.5 7.3 6.8 0 10-3.8 11.1-6.3 1.2-2.6 1.3-5.2 1.3-10.3v-20.8z"/><path d="m597.9 335.9v36.6h4.5v-36.6zm0 45.2v7h4.5v-7z"/><path d="m640.4 372.5-14-36.6h-3.7l-12.7 36.6h4.5l10.1-29.8 11.3 29.8z"/><path d="m673.8 357.9c-1.1 9.4-7.4 11.4-11.4 11.4-7.8 0-11.2-6.3-11.7-11.4zm-23.1-4.8c0-5.5 2.3-14 12.3-14 3.3 0 8.4.7 11.9 7.7l4.2-1.2c-1.7-3.8-5.5-10.6-15.9-10.6-14.9 0-17.5 13.2-17.5 19.6 0 12.5 8.4 18.9 16.9 18.9 10.4 0 16.5-9.1 16.5-18.6v-.7h-28.4z"/><path d="m693.6 372.5v-5.8c1.9 4.3 5.5 6.4 10.1 6.4.6 0 1.8 0 3.1-.2v-4.1c-.9.2-1.8.2-2.9.2-7.8 0-10.3-5.8-10.3-13.1v-20h-4.5v36.6z"/><path d="m715.5 346.3c.6-2.5 3.4-7.2 10.2-7.2 7.1 0 9.4 3.9 9.4 7.1 0 3.1-1.8 5.3-7.9 6.6l-4.3.9c-5.7 1.2-9.5 3.8-9.5 9.1 0 1.3.2 4.8 3.1 7.4 2.5 2.3 6.8 3.1 10 3.1 1.1 0 5.6 0 9-2.4 2.8-2 3.7-4.7 4-5.9l-4.3-1.2c-.8 4.2-5.2 5.5-8.9 5.5-7.4 0-8.4-3.9-8.4-6.1 0-4.3 4.5-5.3 7.7-5.9l3.8-.8c6.4-1.3 10.1-5 10.1-10.7 0-4.2-3.4-11-13.7-11-3.1 0-10.8.5-14.7 9.8z"/><path d="m750.5 335.9v36.6h4.5v-36.6zm0 45.2v7h4.5v-7z"/><path d="m774.9 343.7c0-2.1.3-4.5 3-4.5 1.8 0 3.7 1.3 5.1 2.3v-4.6c-1-.8-2.9-1.7-6.1-1.7-1.3 0-4.7.1-5.8 3.3-.5 1.3-.5 4-.5 6v24.2h-7.7v3.8h7.7v15.6h4.4v-15.6h8.1v-3.8h-8.1v-25"/><path d="m818 372.5-17.3-43.8c-2.9-7.5-4.4-11.4-9.8-11.4-2.5 0-4.1.9-4.8 1.5v4.6c2.1-1.5 3.5-1.8 4.8-1.8 2.6 0 3.4 1.6 4.9 5.5l3.4 8.8-12.7 36.6h4.4l10.7-31.2 11.9 31.2z"/><path d="m860.8 369.6c-6.6 0-11.8-4.8-11.8-15.8 0-11.3 5.9-14.8 11.7-14.8 5.7 0 11.9 3.7 11.9 15.4-.1 11.5-6.1 15.2-11.8 15.2zm-.3-34.6c-9.4 0-16.4 7-16.4 18.8 0 11.4 6.2 19.6 16.7 19.6 11.4 0 16.4-9.7 16.5-19 .1-13.7-8.8-19.4-16.8-19.4"/><path d="m896.2 368.7v-32.8h-4.5v32.8h-8.1v3.8h8.1v10.1c0 3.3.4 8.5 8.1 8.5 1.8 0 3-.2 4.7-.5v-4.5c-.8.3-2.2 1-4.4 1-3.3 0-3.9-2.5-3.9-5.1v-9.6h8.3v-3.8z"/><path d="m952.7 384.1-10.6-27.7h21zm18.2-48.2-6.2 16.4h-24.3l-6.2-16.4h-5.7l22.1 54.2h4.3l21.6-54.2z"/><path d="m988.7 352.9c0-5 .9-8.8 4-11.3 2.5-2.1 5.1-2.1 6.4-2.1 8.4 0 11.4 8.2 11.4 15.3 0 6.8-2.9 14.4-11.4 14.4-8.8 0-10.3-8.8-10.3-14.4zm0 19.6v-6c1.2 2.8 4.2 6.8 11.1 6.8 13.4 0 15.4-13.9 15.4-19.2 0-5.5-2.7-19-15.4-19-6.4 0-9.8 3.8-11.1 7v-25.6h-4.5v56z"/><path d="m1029.7 352.9c0-5 .9-8.8 4-11.3 2.5-2.1 5.1-2.1 6.4-2.1 8.4 0 11.4 8.2 11.4 15.3 0 6.8-2.9 14.4-11.4 14.4-8.8 0-10.3-8.8-10.3-14.4zm0 19.6v-6c1.2 2.8 4.2 6.8 11.1 6.8 13.4 0 15.4-13.9 15.4-19.2 0-5.5-2.7-19-15.4-19-6.4 0-9.8 3.8-11.1 7v-25.6h-4.5v56z"/><path d="m1066.3 335.9v54.2h4.6v-54.2z"/><path d="m1083.4 335.9v36.6h4.5v-36.6zm0 45.2v7h4.5v-7z"/><path d="m1126.2 357.9c-1.1 9.4-7.4 11.4-11.4 11.4-7.8 0-11.2-6.3-11.7-11.4zm-23.1-4.8c0-5.5 2.3-14 12.3-14 3.3 0 8.4.7 11.9 7.7l4.2-1.2c-1.7-3.8-5.5-10.6-15.9-10.6-14.9 0-17.5 13.2-17.5 19.6 0 12.5 8.4 18.9 16.9 18.9 10.4 0 16.5-9.1 16.5-18.6v-.7h-28.4z"/><path d="m1155 339.4c5.9 0 10.7 4.1 10.7 14.2v2c0 12.1-6.8 13.6-10.4 13.6-6.9 0-11.1-5.8-11.1-14.9-.1-10.9 5.1-14.9 10.8-14.9zm10.5-3.5v6.6c-1.7-4.8-6.4-7.4-11.3-7.4-9.1 0-15.1 8.3-15.1 19.2s6.1 19 15.8 19c4.8 0 9.2-2.5 10.6-6.6v23.4h4.5v-54.2z"/><path d="m1236 377.1c-.5 1.7-1.2 3.2-2.2 4.7-1.5 2.2-5.2 5.5-11.8 5.5-9.4 0-12.7-5.1-12.7-9.7 0-7 6.3-8.8 11.5-10.1l5.2-1.4c9.7-2.6 15.9-6.8 15.9-15.4 0-2.8-.8-8.1-6.7-12.4-2.5-1.8-6.4-3.8-13.5-3.8-10.4 0-18 4.5-20.2 15l5.1 2.7c.2-3.2.5-4.6 1.2-6.1 1.5-3.4 5.6-7.1 13.8-7.1 10 0 15 5.4 15 11.5 0 6-3.8 8.8-11.5 10.8l-6.2 1.6c-6.1 1.6-14.7 4.5-14.7 14.4 0 7.5 5.5 14 17.9 14 7.4 0 15.2-2.5 18.7-11.9z"/><path d="m1280 344c-2.2-4.7-6.4-9.1-14.7-9.1-10.4 0-16.8 7.7-16.8 19 0 12 7.3 19.5 17.6 19.5 7.8 0 12-4.1 13.9-9.2l-4.2-1c-1.6 4.1-5.6 6.1-9.9 6.1-8.5 0-12.4-7.2-12.4-15.2 0-8.2 3.7-15.2 12.1-15.2 4.6 0 7.7 2.1 9.9 6.1z"/><path d="m1288.8 335.9v36.6h4.5v-36.6zm0 45.2v7h4.5v-7z"/><path d="m1331.6 357.9c-1.1 9.4-7.4 11.4-11.4 11.4-7.8 0-11.2-6.3-11.7-11.4zm-23.2-4.8c0-5.5 2.3-14 12.3-14 3.3 0 8.4.7 11.9 7.7l4.2-1.2c-1.7-3.8-5.5-10.6-15.9-10.6-14.9 0-17.5 13.2-17.5 19.6 0 12.5 8.4 18.9 16.9 18.9 10.4 0 16.5-9.1 16.5-18.6v-.7h-28.4z"/><path d="m1370.8 335.9v19c0 4.9 0 7.8-.8 10-1.4 3.5-5.1 4.3-7.6 4.3-7.6 0-11-5.7-11-12.4v-21h-4.5v36.6h4.5v-6.4c.3 1 2.6 7.3 11.5 7.3 6.8 0 10-3.8 11.1-6.3 1.2-2.6 1.3-5.2 1.3-10.3v-20.8z"/><path d="m1417 344c-2.2-4.7-6.4-9.1-14.7-9.1-10.4 0-16.8 7.7-16.8 19 0 12 7.3 19.5 17.6 19.5 7.8 0 12-4.1 13.9-9.2l-4.2-1c-1.6 4.1-5.6 6.1-9.9 6.1-8.5 0-12.4-7.2-12.4-15.2 0-8.2 3.7-15.2 12-15.2 4.6 0 7.8 2.1 9.9 6.1z"/><path d="m1451.6 357.9c-1.1 9.4-7.4 11.4-11.4 11.4-7.8 0-11.2-6.3-11.7-11.4zm-23.2-4.8c0-5.5 2.3-14 12.3-14 3.3 0 8.4.7 11.9 7.7l4.2-1.2c-1.7-3.8-5.5-10.6-15.9-10.6-14.9 0-17.5 13.2-17.5 19.6 0 12.5 8.4 18.9 16.9 18.9 10.4 0 16.5-9.1 16.5-18.6v-.7h-28.4z"/><path d="m1468.2 346.3c.6-2.5 3.4-7.2 10.2-7.2 7.1 0 9.4 3.9 9.4 7.1 0 3.1-1.8 5.3-7.9 6.6l-4.3.9c-5.7 1.2-9.5 3.8-9.5 9.1 0 1.3.2 4.8 3.1 7.4 2.5 2.3 6.8 3.1 10 3.1 1.1 0 5.6 0 9-2.4 2.8-2 3.7-4.7 4-5.9l-4.3-1.2c-.8 4.2-5.2 5.5-8.9 5.5-7.4 0-8.4-3.9-8.4-6.1 0-4.3 4.5-5.3 7.7-5.9l3.8-.8c6.4-1.3 10.1-5 10.1-10.7 0-4.2-3.4-11-13.7-11-3.1 0-10.8.5-14.7 9.8z"/><path d="m492.5 590.4h13.4v75.5h-13.4v19.3h54.8v-19.3h-11.6v-25.1h31.1v25.1h-11.6v19.3h54.8v-19.3h-13.4v-75.5h13.4v-19.3h-54.8v19.3h11.6v31.1h-31.1v-31.1h11.6v-19.3h-54.8z"/><path d="m733 639.4h-19.8v26.6h-17.2v-75.5h17.1v-19.3h-64v19.3h17.1v75.5h-17.1v-26.6h-19.8v45.9h103.7z"/><path d="m753.7 665.9h-12.1v19.3h51.3v-19.3h-11.6l18.3-54.8h.3l17.3 54.8h-10.4v19.3h41v-19.3h-10.6l18.5-54.8h.3l18 54.8h-11.8v19.3h46.1v-19.3h-12.4l-31.9-95.6h-20.7l-18.2 52.1h-.3l-17.1-52.1h-21z"/><path d="m1051.4 657.2c-5 16.6-13.5 26.2-35 26.2-26.7 0-40-21-40-52.4 0-38.2 17.6-52.4 41.9-52.4 18.8 0 28.2 9.7 33.6 25.4l10.9-5.9c-8.4-21.5-24.5-29.9-46.7-29.9-28.4 0-51.1 17.8-51.1 62.9 0 45.4 24.2 62.9 50.3 62.9 23.7 0 38.2-8.4 47.6-30.9z"/><path d="m1078.4 690.8h10.1v-50.9h.3c5 10.3 14.6 13.9 24.1 13.9 19.8 0 28.4-11.4 28.4-28.1v-54.6h-10.1v51.6c0 16.3-6.9 21.7-19.7 21.7-12.1 0-23-8.1-23-26.2v-47.1h-10.1z"/><path d="m1218.9 582.9h-.3c-5-10.1-14.6-13.8-24-13.8-19.8 0-28.4 11.4-28.4 28.1v54.6h10.1v-51.6c0-16.3 6.9-21.7 19.7-21.7 12.1 0 23 8.1 23 26.2v47.1h10.1v-80.7h-10.1z"/><path d="m1257.8 651.8h10.1v-11.3h.3c5.6 8.4 11.4 13.3 21.9 13.3 2.7 0 4.7-.2 7.2-.3v-8.7c-2.3.5-4.5.7-6.7.7-15.6 0-22.7-11.4-22.7-27.9v-46.4h-10.1z"/></g></g></svg>