<svg version="1.1" xmlns="http://www.w3.org/2000/svg" width="1632" height="850" viewBox="0 0 1632 950">
    <path fill="#8b5c06" d="M439.119 221.718c-14.328 0-30.026-13.986-40.889-13.994-8.524 0-12.745 5.401-22.95 5.401-3.563 0-6.978-0.854-10.43-1.937 19.852-5.071 75.455-19.287 77.945-19.818 3.012-0.63 2.811-3.398-0.244-3.21-2.402 0.147-49.603 3.488-69.345 4.87 10.729-6.001 12.532-13.406 19.223-15.587 8.216-2.658 18.923-1.162 24.831-3.079 5.946-1.937 13.253-6.801 18.379-15.911 0 0 1.662-2.437 0.93-4.626-0.476-1.448-5.724 0.532-8.682 1.503-13.62 4.405-32.86-4.039-43.2-0.684-8.103 2.645-10.453 9.080-20.17 12.233-3.367 1.093-6.862 1.326-10.485 1.375 17.292-10.961 65.789-41.653 67.983-42.925 2.658-1.528 1.649-4.094-1.217-2.988-2.236 0.885-46.083 18.636-64.426 26.054 8.334-9.001 7.748-16.608 13.461-20.738 6.978-5.071 17.605-6.978 22.651-10.63 5.060-3.677 10.497-10.54 12.556-20.792 0 0 0.83-2.823-0.556-4.692-0.885-1.217-5.248 2.279-7.772 4.106-11.592 8.414-32.507 6.33-41.318 12.721-6.862 4.992-7.118 11.847-15.392 17.848-2.866 2.083-6.122 3.398-9.557 4.564 13.051-15.753 49.701-59.954 51.394-61.824 2.059-2.279 0.299-4.43-2.090-2.481l-53.201 44.685c5.139-11.138 2.249-18.202 6.367-23.891 5.094-6.978 14.616-12.068 18.282-17.108 3.677-5.047 6.733-13.266 5.524-23.641 0 0-0.111-2.958-1.973-4.296-1.228-0.898-4.296 3.788-6.147 6.311-8.414 11.573-28.951 16.052-35.365 24.831-4.98 6.91-3.098 13.509-9.11 21.758-2.090 2.877-4.773 5.114-7.685 7.284 7.564-19.065 28.743-72.388 29.781-74.69 1.252-2.811-1.107-4.296-2.756-1.704-1.295 2.036-26.329 42.162-36.79 58.934 1.441-12.179-3.488-17.991-1.326-24.691 2.679-8.194 10.174-15.977 12.102-21.923 1.937-5.921 2.291-14.683-2.047-24.19 0 0-0.996-2.768-3.21-3.464-1.441-0.476-2.933 4.925-3.898 7.894-4.405 13.62-22.585 24.227-25.951 34.554-2.603 8.114 1.217 13.785-1.937 23.506-1.107 3.367-2.958 6.355-5.071 9.299 1.326-20.451 4.992-77.722 5.237-80.24 0.33-3.067-2.347-3.741-3.123-0.788-0.611 2.347-12.013 48.216-16.785 67.45-2.39-12.037-8.878-16.052-8.878-23.097 0-8.615 4.729-18.3 4.729-24.545s-2.371-14.702-9.434-22.388c0 0-1.827-2.327-4.118-2.327-1.552 0-1.271 5.616-1.271 8.725 0 14.316-13.994 30.006-13.994 40.877 0 8.535 5.401 12.733 5.401 22.95 0 3.544-0.843 6.954-1.926 10.406-5.071-19.865-19.265-75.455-19.818-77.911-0.63-3.012-3.398-2.847-3.21 0.221 0.135 2.413 3.477 49.578 4.87 69.333-6.001-10.705-13.398-12.52-15.577-19.21-2.658-8.206-1.162-18.899-3.098-24.823-1.926-5.946-6.789-13.266-15.887-18.379 0 0-2.437-1.638-4.638-0.941-1.46 0.489 0.532 5.738 1.503 8.689 4.418 13.607-4.039 32.86-0.684 43.2 2.645 8.114 9.080 10.442 12.245 20.17 1.093 3.354 1.326 6.862 1.362 10.497 28.542 49.014 14.371 26.832 0.247 4.623l-43.16-72.615c-1.552-2.679-4.118-1.662-3.012 1.198 0.885 2.249 18.643 46.102 26.085 64.438-9.036-8.327-16.632-7.748-20.759-13.454-5.083-6.978-6.954-17.605-10.619-22.651-3.654-5.047-10.552-10.516-20.781-12.576 0 0-2.847-0.788-4.705 0.556-1.24 0.885 2.279 5.271 4.094 7.797 8.414 11.58 6.324 32.507 12.71 41.298 5.016 6.919 11.847 7.13 17.879 15.401 2.071 2.877 3.386 6.134 4.552 9.576-15.734-13.064-59.954-49.712-61.835-51.394-2.303-2.071-4.43-0.312-2.481 2.059 1.541 1.881 31.951 38.066 44.696 53.221-11.16-5.139-18.202-2.249-23.904-6.38-6.978-5.083-12.044-14.616-17.084-18.269-5.060-3.677-13.284-6.752-23.659-5.536 0 0-2.945 0.111-4.307 1.981-0.885 1.228 3.799 4.319 6.311 6.147 11.58 8.414 16.064 28.962 24.857 35.354 6.91 5.016 13.485 3.11 21.758 9.11 2.877 2.090 5.126 4.773 7.284 7.693-19.046-7.564-72.388-28.754-74.679-29.781-2.847-1.252-4.319 1.087-1.748 2.737 2.047 1.308 42.185 26.329 58.981 36.814-12.19-1.441-18 3.5-24.704 1.308-8.216-2.658-15.977-10.142-21.899-12.080-5.946-1.937-14.713-2.303-24.203 2.047 0 0-2.768 1.030-3.5 3.21-0.452 1.46 4.95 2.933 7.906 3.898 13.62 4.43 24.234 22.585 34.565 25.951 8.114 2.622 13.772-1.217 23.506 1.937 3.379 1.107 6.343 2.969 9.299 5.071-20.451-1.326-77.722-4.98-80.227-5.248-3.079-0.324-3.764 2.358-0.795 3.146 2.327 0.598 48.229 12.002 67.45 16.772-12.037 2.402-16.052 8.878-23.097 8.878-8.615 0-18.324-4.729-24.545-4.729-6.256 0-14.702 2.347-22.388 9.434 0 0-2.327 1.827-2.335 4.131 0 1.528 5.624 1.264 8.713 1.264 14.34 0 30.038 13.986 40.908 13.986 8.524 0 12.733-5.414 22.95-5.414 3.544 0 6.942 0.854 10.406 1.937-19.84 5.071-75.455 19.287-77.924 19.818-3.033 0.642-2.847 3.409 0.201 3.232 2.426-0.147 49.603-3.488 69.345-4.894-10.705 6.001-12.513 13.406-19.21 15.587-8.216 2.658-18.887 1.162-24.823 3.091-5.946 1.926-13.266 6.789-18.379 15.898 0 0-1.638 2.444-0.93 4.626 0.476 1.472 5.724-0.52 8.67-1.472 13.62-4.43 32.884 4.009 43.224 0.666 8.103-2.658 10.43-9.080 20.152-12.245 3.379-1.093 6.862-1.326 10.516-1.384-17.292 10.95-65.812 41.684-68.001 42.936-2.658 1.552-1.649 4.106 1.198 3.012 2.26-0.885 46.071-18.624 64.426-26.061-8.303 9.013-7.748 16.608-13.454 20.75-6.978 5.071-17.579 6.942-22.651 10.608-5.047 3.677-10.509 10.552-12.544 20.805 0 0-0.807 2.823 0.52 4.682 0.917 1.264 5.303-2.279 7.803-4.094 11.573-8.414 32.507-6.324 41.298-12.71 6.91-5.016 7.143-11.847 15.401-17.879 2.877-2.071 6.111-3.379 9.544-4.54-38.069 46.547-54.869 66.665-71.721 86.743l20.347-24.907c-2.071 2.291-0.312 4.405 2.059 2.481 1.881-1.552 38.066-31.963 53.221-44.708-5.139 11.16-2.236 18.202-6.39 23.904-5.060 6.978-14.592 12.055-18.258 17.096-3.666 5.047-6.72 13.284-5.511 23.659 0 0 0.097 2.933 1.962 4.296 1.24 0.911 4.319-3.788 6.155-6.299 8.414-11.592 28.951-16.077 35.354-24.857 5.005-6.919 3.098-13.485 9.099-21.765 2.102-2.856 4.784-5.114 7.705-7.284-7.571 19.046-28.766 72.409-29.781 74.703-1.24 2.823 1.087 4.296 2.737 1.729 1.32-2.036 26.329-42.149 36.814-58.969-1.441 12.179 3.488 17.991 1.295 24.691-2.658 8.216-10.142 15.966-12.068 21.912-1.937 5.932-2.316 14.713 2.059 24.203 0 0 1.008 2.768 3.19 3.488 1.46 0.476 2.933-4.95 3.909-7.882 4.405-13.632 22.553-24.246 25.932-34.578 2.622-8.126-1.198-13.797 1.949-23.528 1.093-3.367 2.969-6.343 5.071-9.299-1.308 20.451-4.98 77.722-5.237 80.246-0.33 3.067 2.358 3.764 3.135 0.788 0.611-2.347 12.013-48.197 16.785-67.427 2.39 12.025 8.878 16.033 8.878 23.072 0 8.615-4.729 18.324-4.729 24.557 0 6.245 2.347 14.713 9.422 22.399 0 0 1.839 2.327 4.131 2.327 1.541 0 1.264-5.616 1.264-8.725 0-14.328 13.994-30.013 13.994-40.889 0-8.524-5.401-12.733-5.401-22.963 0-3.544 0.854-6.954 1.937-10.43 5.071 19.84 19.287 75.486 19.818 77.945 0.63 3.024 3.398 2.847 3.21-0.208-0.122-2.426-3.464-49.548-4.87-69.333 6.001 10.693 13.419 12.513 15.577 19.21 2.658 8.194 1.162 18.899 3.098 24.823 1.926 5.932 6.789 13.253 15.875 18.367 0 0 2.457 1.638 4.65 0.941 1.448-0.489-0.532-5.738-1.503-8.682-4.43-13.632 4.039-32.884 0.684-43.224-2.645-8.103-9.080-10.43-12.245-20.17-1.093-3.379-1.326-6.862-1.362-10.509 10.937 17.285 41.641 65.82 42.925 68.001 1.528 2.679 4.094 1.662 2.988-1.198-0.885-2.249-18.6-46.016-26.042-64.403 9.013 8.303 16.596 7.748 20.726 13.443 5.083 6.978 6.978 17.605 10.63 22.663 3.654 5.035 10.54 10.497 20.769 12.556 0 0 2.847 0.807 4.717-0.556 1.217-0.911-2.291-5.271-4.106-7.797-8.414-11.592-6.33-32.495-12.721-41.298-4.992-6.898-11.847-7.118-17.86-15.392-2.090-2.877-3.398-6.147-4.571-9.576 15.745 13.045 59.977 49.712 61.847 51.406 2.303 2.059 4.43 0.287 2.481-2.083-1.528-1.87-31.933-38.042-44.672-53.21 11.15 5.139 18.202 2.236 23.891 6.38 6.966 5.071 12.037 14.604 17.084 18.269 5.060 3.666 13.277 6.72 23.648 5.511 0 0 2.945-0.097 4.296-1.973 0.898-1.228-3.788-4.319-6.311-6.147-11.573-8.414-16.045-28.944-24.857-35.342-6.886-5.029-13.461-3.123-21.734-9.135-2.877-2.090-5.139-4.76-7.307-7.685 19.065 7.571 72.4 28.754 74.71 29.77 2.811 1.264 4.283-1.087 1.704-2.725-2.028-1.32-42.137-26.329-58.945-36.802 12.19 1.441 18-3.507 24.691-1.326 8.206 2.658 15.989 10.174 21.923 12.092 5.932 1.937 14.694 2.316 24.203-2.059 0 0 2.768-0.996 3.464-3.21 0.489-1.441-4.937-2.913-7.906-3.874-13.62-4.43-24.214-22.585-34.565-25.951-8.095-2.622-13.761 1.207-23.494-1.949-3.379-1.093-6.343-2.969-9.312-5.060 20.463 1.295 77.722 4.98 80.24 5.237 3.079 0.33 3.764-2.371 0.776-3.146-2.327-0.598-48.216-12.013-67.427-16.785 12.044-2.383 16.052-8.859 23.085-8.878 8.635 0.012 18.345 4.729 24.581 4.729 6.245 0 14.694-2.347 22.375-9.422 0 0 2.327-1.815 2.327-4.131 0-1.516-5.603-1.252-8.725-1.252z"></path>
    <path fill="#fddd04" d="M393.505 265.754c-7.906-2.792-11.138 1.46-22.352-1.607-12.102-3.3-21.935-16.651-34.156-17.616 0.898-4.46 1.441-9.044 1.796-13.675 9.135 0.043 18.655 5.114 27.435 5.182 16.62 0.097 22.997-9.808 32.354-9.819 10.041 0 26.848 12.809 44.952-3.764-21.124 2.371-31.809-12.809-45.394-13.142-8.383-0.221-10.142 4.803-21.758 5.383-12.568 0.587-26.054-9.099-37.976-6.202-0.638-5.247-1.503-9.848-2.636-14.34l0.168 0.792c8.713-2.792 19.32-0.917 27.679-3.563 15.844-5.029 18.844-16.443 27.734-19.333 9.568-3.11 29.531 3.898 41.608-17.494-19.351 8.804-34.223-2.358-47.244 1.552-8.039 2.371-8.158 7.693-19.022 11.836-11.781 4.43-27.624-0.611-38.066 5.866-1.926-4.21-4.118-8.248-6.507-12.179 7.387-5.335 18.080-6.807 25.223-11.925 13.509-9.688 12.844-21.459 20.415-26.959 8.114-5.914 29.261-5.426 34.144-29.483-15.69 14.347-33.27 8.327-44.44 16.052-6.919 4.748-5.39 9.864-14.439 17.127-9.855 7.894-26.506 7.974-34.423 17.383-3.124-3.411-6.362-6.56-9.774-9.51l-0.147-0.126c5.414-7.331 15.104-12.044 20.292-19.111 9.855-13.374 5.567-24.356 11.072-31.944 5.914-8.114 26.176-14.194 23.395-38.598-10.516 18.49-29.073 18.214-37.322 29.006-5.094 6.666-2.059 11.048-8.45 20.759-6.91 10.516-22.651 15.745-27.325 27.093-3.391-1.982-7.469-4.013-11.681-5.788l-0.723-0.267c2.877-8.635 10.619-16.107 13.351-24.411 5.248-15.764-2.213-24.881 0.684-33.801 3.079-9.544 20.494-21.588 10.295-43.921-4.271 20.816-22.034 26.306-26.519 39.105-2.799 7.924 1.441 11.16-1.619 22.363-3.324 12.11-16.663 21.942-17.616 34.169-4.473-0.898-9.044-1.441-13.687-1.803 0.043-9.122 5.114-18.655 5.169-27.435 0.111-16.632-9.808-22.974-9.808-32.354 0-10.052 12.832-26.86-3.764-44.965 2.358 21.124-12.809 31.822-13.155 45.382-0.208 8.414 4.839 10.162 5.383 21.777 0.587 12.576-9.099 26.054-6.19 37.976-4.619 0.556-9.122 1.394-13.574 2.457-2.78-8.682-0.885-19.309-3.544-27.679-5.047-15.832-16.443-18.82-19.333-27.734-3.123-9.557 3.886-29.507-17.494-41.608 8.781 19.375-2.371 34.246 1.528 47.256 2.39 8.039 7.729 8.158 11.847 19.046 4.441 11.756-0.598 27.6 5.866 38.042-4.197 1.926-8.237 4.118-12.146 6.532-5.347-7.418-6.843-18.111-11.957-25.241-9.688-13.509-21.447-12.844-26.947-20.406-5.914-8.114-5.414-29.261-29.483-34.169 14.34 15.698 8.327 33.295 16.045 44.464 4.76 6.91 9.874 5.383 17.139 14.439 7.882 9.831 7.974 26.473 17.383 34.401-3.379 3.135-6.612 6.422-9.612 9.922-7.351-5.39-12.068-15.092-19.131-20.286-13.374-9.855-24.356-5.579-31.933-11.084-8.126-5.89-14.207-26.151-38.598-23.359 18.49 10.485 18.19 29.063 28.998 37.302 6.654 5.094 11.041 2.059 20.769 8.426 10.516 6.91 15.721 22.663 27.069 27.349-2.249 3.996-4.271 8.126-6.056 12.398-8.615-2.877-16.1-10.608-24.404-13.363-15.764-5.248-24.881 2.236-33.79-0.666-9.568-3.098-21.588-20.494-43.932-10.32 20.816 4.283 26.296 22.046 39.105 26.549 7.918 2.792 11.138-1.46 22.363 1.594 12.102 3.324 21.942 16.686 34.156 17.639-0.885 4.449-1.441 9.025-1.803 13.662-9.122-0.031-18.655-5.139-27.414-5.182-16.62-0.097-22.986 9.819-32.354 9.819-10.041 0.012-26.86-12.819-44.965 3.764 21.113-2.371 31.809 12.844 45.382 13.162 8.392 0.221 10.154-4.839 21.765-5.383 12.556-0.611 26.061 9.080 37.976 6.19 0.556 4.607 1.394 9.122 2.457 13.564-8.682 2.792-19.32 0.911-27.655 3.563-15.856 5.029-18.82 16.431-27.747 19.32-9.557 3.123-29.507-3.886-41.598 17.482 19.351-8.768 34.235 2.383 47.233-1.516 8.048-2.383 8.158-7.729 19.046-11.847 11.769-4.441 27.612 0.611 38.054-5.859 1.926 4.186 4.106 8.225 6.507 12.135-7.394 5.347-18.105 6.855-25.223 11.97-13.509 9.678-12.819 21.435-20.406 26.947-8.126 5.921-29.286 5.426-34.169 29.463 15.698-14.316 33.295-8.316 44.44-16.033 6.919-4.76 5.39-9.855 14.451-17.139 9.855-7.862 26.483-7.974 34.412-17.383 3.135 3.386 6.41 6.612 9.91 9.612-5.39 7.351-15.092 12.068-20.286 19.131-9.855 13.398-5.561 24.356-11.072 31.933-5.902 8.151-26.176 14.207-23.384 38.598 10.509-18.466 29.097-18.214 37.309-28.998 5.114-6.642 2.071-11.041 8.45-20.759 6.898-10.516 22.663-15.745 27.325-27.081 3.996 2.249 8.114 4.271 12.398 6.056-2.866 8.615-10.608 16.1-13.363 24.404-5.224 15.789 2.249 24.868-0.642 33.79-3.098 9.576-20.518 21.588-10.339 43.932 4.296-20.816 22.056-26.296 26.538-39.093 2.811-7.906-1.441-11.15 1.619-22.363 3.324-12.123 16.663-21.954 17.616-34.169 4.473 0.885 9.036 1.441 13.675 1.784-0.031 9.146-5.126 18.655-5.182 27.435-0.097 16.62 9.819 22.997 9.819 32.354 0 10.041-12.819 26.86 3.776 44.984-2.383-21.148 12.809-31.831 13.155-45.394 0.208-8.402-4.839-10.162-5.383-21.788-0.598-12.556 9.091-26.054 6.178-37.976 5.231-0.626 9.836-1.495 14.333-2.633l-0.769 0.165c2.792 8.701 0.898 19.32 3.563 27.679 5.029 15.856 16.443 18.856 19.333 27.758 3.098 9.544-3.886 29.494 17.494 41.586-8.793-19.351 2.347-34.211-1.528-47.22-2.39-8.059-7.729-8.17-11.847-19.065-4.449-11.769 0.598-27.6-5.866-38.031 4.186-1.937 8.237-4.131 12.146-6.52 5.347 7.394 6.831 18.092 11.957 25.234 9.666 13.485 21.447 12.819 26.947 20.395 5.914 8.126 5.414 29.286 29.483 34.169-14.347-15.698-8.327-33.27-16.052-44.44-4.76-6.919-9.855-5.39-17.151-14.47-7.862-9.831-7.95-26.473-17.359-34.388 3.379-3.123 6.612-6.422 9.612-9.922 7.351 5.401 12.044 15.092 19.111 20.292 13.388 9.855 24.38 5.579 31.951 11.072 8.126 5.902 14.183 26.176 38.598 23.384-18.501-10.497-18.214-29.073-28.998-37.309-6.678-5.114-11.059-2.071-20.769-8.45-10.516-6.919-15.721-22.663-27.069-27.325 2.249-4.009 4.271-8.139 6.043-12.398 8.635 2.877 16.1 10.608 24.404 13.339 15.764 5.248 24.887-2.213 33.801 0.666 9.544 3.123 21.588 20.524 43.944 10.32-20.848-4.264-26.317-22.020-39.13-26.53z"></path>
    <path fill="#8b5c06" d="M305.672 168.43c-30.295-17.915-67.591-12.19-72.156 22.175-0.618 4.773-1.796 56.012-1.796 56.012s0.366 11.592-7.816 11.249c-8.182 0.33-7.803-11.249-7.803-11.249s-1.185-51.24-1.796-56.025c-4.564-34.357-41.874-40.078-72.144-22.167-2.823 1.693-1.351 4.748 1.815 3.685 49.578-18.869 65.233 9.831 65.754 23.561 0.52 13.751 1.594 40.823 2.059 49.303l0.097 1.496-0.012-0.111c0.088 6.507-3.807 9.135-7.418 9.135-1.992-0.035-3.801-0.792-5.191-2.012l0.009 0.008c-1.441-1.441-4.65-7.729 2.877-13.974 2.658-2.139 2.468-3.098 1.649-3.909-0.807-0.807-2.194-1.271-5.437 1.295-3.268 2.567-5.279 6.343-5.279 11.548 0 6.38 4.607 11.493 10.974 11.493 3.563 0 6.843-1.217 9.446-4.571 1.516 4.051 4.394 6.978 10.395 6.978 6.012 0 8.89-2.922 10.406-6.978 2.579 3.343 5.878 4.571 9.446 4.571 6.367 0 10.961-5.114 10.961-11.493 0-5.206-2.016-8.981-5.271-11.548-3.245-2.567-4.626-2.102-5.437-1.295-0.819 0.807-1.008 1.772 1.638 3.909 7.528 6.245 4.329 12.52 2.877 13.974-1.377 1.207-3.176 1.954-5.153 1.992h-0.008c-3.622 0-7.516-2.615-7.429-9.135l-0.012 0.111c0.024-0.5 0.066-0.996 0.097-1.485 0.452-8.48 1.552-35.542 2.059-49.303 0.52-13.729 16.174-42.43 65.754-23.561 3.166 1.063 4.638-1.992 1.827-3.685zM264.763 278.195s-6.919 1.962-11.017 1.962c-6.367 0-12.655-3.788-16.864-6.147-7.528-2.194-8.804 2.028-12.965 2.028-4.186 0-5.447-4.217-12.979-2.028-4.21 2.358-10.497 6.147-16.864 6.147-4.094 0-11.017-1.962-11.017-1.962s-0.33 1.264 3.135 4.21c6.422 5.536 15.69 3.22 27.832 4.705 2.267 0.287 5.724 2.502 9.886 1.528 4.152 0.972 7.595-1.24 9.874-1.528 12.135-1.485 21.403 0.819 27.832-4.692 3.464-2.958 3.135-4.21 3.135-4.21zM248.076 291.858s-12.697 5.426-24.172 5.426c-11.469 0-24.159-5.426-24.159-5.426-2.437 0-4.21 1.704 0.287 4.851s10.87 6.82 23.872 6.82c12.998 0 19.375-3.677 23.881-6.82 4.484-3.146 2.725-4.851 0.287-4.851z"></path>
    <path fill="#8b5c06" d="M198.163 183.455c-4.473-3.146-10.87-6.82-23.872-6.82-12.986 0-19.375 3.677-23.872 6.82s-2.745 4.858-0.287 4.858c0 0 7.033-2.988 15.367-4.54-1.427 1.643-2.309 3.795-2.347 6.151v0.008c0 5.417 4.39 9.808 9.808 9.808s9.808-4.39 9.808-9.808v0c-0.020-2.562-1.029-4.889-2.662-6.616l0.004 0.005c6.869 1.040 13.045 2.786 18.874 5.19l-0.537-0.197c2.457 0 4.21-1.718-0.287-4.87zM297.398 183.455c-4.484-3.146-10.882-6.82-23.872-6.82-12.998 0-19.399 3.677-23.881 6.82-4.496 3.146-2.737 4.858-0.287 4.858 0 0 8.781-3.722 18.324-4.98-1.616 1.726-2.615 4.041-2.634 6.595v0.005c0 5.417 4.39 9.808 9.808 9.808s9.808-4.39 9.808-9.808v0c-0.037-2.364-0.92-4.51-2.358-6.166l0.011 0.013c8.334 1.528 15.367 4.54 15.367 4.54 2.444 0 4.21-1.718-0.287-4.87z"></path>
    <path fill="#1f2c5a" d="M1361.295 485.26c9.819-8.878 11.646-22.82 4.094-31.187-7.571-8.372-21.644-7.974-31.467 0.885-9.808 8.878-11.701 21.19-4.131 29.562 7.539 8.372 21.691 9.6 31.499 0.74z"></path>
    <path fill="#1f2c5a" d="M1614.276 432.493c-26.94 3.819-58.439 8.225-73.659 10.131 0 0 23.371-27.57 25.498-30.295 2.89-3.752 4.296-5.094 1.583-7.595-2.725-2.511-32.983-11.628-41.385-4.241-0.36 0.326-0.689 0.65-1.015 0.978l-0.005 0.005c-0.177 0.122-0.379 0.208-0.544 0.355-2.347 2.071-13.241 14.151-22.699 24.356-9.099 9.855-53.465 57.351-91.299 89.937-0.898 0.795-1.815 1.571-2.713 2.327-54.682 46.071-114.041 81.266-125.353 81.687-1.881 0.088-4.296-2.169-1.149-6.801 10.65-16.663 45.858-60.871 50.819-66.696 2.524-3.917 1.619-5.169-13.174-9.777-14.793-4.638-22.21-4.21-25.29-1.375-3.067 2.823-32.341 35.018-74.533 67.67-42.137 32.628-63.119 42.252-72.064 42.607-3.398 0.135-4.319-1.594-2.823-4.65 4.583-8.392 35.428-42.692 45.515-57.198 9.244-9.721-7.539-10.638-18.466-12.257-8.084-1.271-7.394-4.009-5.591-7.143 3.379-6.452 2.977-27.825-19.046-26.959-23.152 0.911-22.278 22.919-17.647 30.326-18.978 11.756-45.839 23.206-70.060 22.034-2.036-10.142-7.394-30.368-29.183-24.942-21.746 5.401-14.127 34.963-1.24 41.244 0.684 17.292-32.805 70.293-54.925 71.16-10.741 0.434-15.104-13.761-5.102-29.873 14.105-22.651 38.751-36.216 43.688-41.562 1.441-1.552 1.093-5.426-2.89-7.033-4.009-1.607-20.615-9.191-25.418-9.001-3.722 0.147-14.725 4.87-26.628 13.332-11.891 8.45-23.482 22.853-32.072 37.908-9.099 15.911-22.065 23.384-35.329 31.889-16.785 9.323-46.499 25.542-52.701 22.431-6.202-3.135 0.024-10.895 8.28-20.615 62.379-73.494 185.886-209.147 193.004-216.852 5.279-5.701-5.89-6.685-16.296-8.438-10.375-1.738-15.832-2.768-17.415-2.725-6.623 0.265-10.693 5.89-16.254 11.249-46.202 44.586-119.51 118.168-176.183 167.029-22.939 20.261-39.949 34.278-42.571 31.291-4.217-4.405 77.79-106.012 100.441-131.388 28.063-31.327 48.628-53.971 69.306-76.51l-6.296 6.958c5.279-5.713-5.89-6.685-16.285-8.45-10.387-1.729-15.868-2.792-17.427-2.713-6.642 0.265-10.687 5.866-16.254 11.249-13.131 12.655-34.953 31.951-51.815 47.122-16.828 15.178-57.497 52.127-98.051 85.341-108.646 89.027-236.837 191.617-244.165 202.437-7.331 10.827 4.375 12.789 14.396 7.638 10.021-5.139 94.287-73.351 157.509-120.702 42.185-31.596 71.245-58.513 71.38-55.094 0.111 3.123-73.030 98.729-84.188 124.058-11.15 25.333 3.984 24.478 13.266 19.088 9.299-5.39 29.23-20.029 56.574-40.633 37.29-28.089 78.71-61.402 82.066-61.548 1.881-0.079-30.038 32.94-36.325 60.308-2.658 13.528 2.291 25.468 40.81 15.568 33.723-9.697 107.95-58.181 110.95-60.265 1.803 16.462 17.163 29.892 34.767 29.207 41.562-1.626 81.181-43.023 104.186-96.591 41.972-2.835 81.865-27.9 81.865-27.9s-32.243 39.772-48.197 60.595c-15.942 20.848-5.271 42.894 28.932 33.716 34.235-9.191 74.801-30.692 117.848-60.839-11.041 38.617 19.497 32.929 31.309 30.649 10.32-2.194 31.999-11.513 54.828-23.872 22.82-12.367 58.402-40.255 58.402-40.255l-5.447 8.933c-4.784 7.595-16.407 36.845 15.392 33.648 9.899-0.996 24.001-5.536 39.661-12.568 0.355-0.147 0.666-0.299 0.996-0.441l2.194-1.008c0.642-0.312 1.283-0.598 1.926-0.885l0.709-0.355c33.38-15.844 81.357-45.063 84.841-47.079 4.339-2.537 10.295-4.673 8.561-0.379-2.059 5.035-22.388 27.069-25.785 39.24-3.409 12.135 6.202 16.754 15.801 21.348 9.587 4.619 23.395 10.95 28.766 19.994 6.599 11.072-1.552 26.483-16.265 35.873-14.281 9.135-24.746 17.347-58.867 19.23-19.73 1.075-38.219-9.6-24.734-24.422 4.692-5.151 18.466-15.977 32.573-21.611 4.394-1.76 4.131-9.434-3.135-9.080-13.461 0.642-35.695 9.355-44.776 15.047-12.532 7.839-43.89 29.751-32.727 50.421 11.16 20.64 74.447 28.045 127.9 3.433 56.355-25.951 74.533-59.19 64.182-75.144-10.331-15.989-28.253-14.946-35.073-31.156-8.745-20.769 26.017-54.496 33.515-67.627 7.516-13.131 6.752-22.278 0.012-24.868-6.733-2.579-15.655-0.066-28.475 5.248-17.25 7.088-108.682 63.284-126.837 70.171-3.098 1.185-4.717 1.264-5.548 0.941l-0.611-0.776c-0.189-0.177-0.221-0.52-0.111-0.996 0.043-0.147 0.088-0.221 0.088-0.221l-0.066 0.088c3.012-11.438 82.708-95.272 82.708-95.272l0.043-0.031c36.050-7.862 77.57-18.459 97.519-23.861 5.689-1.516 10.406-2.78 12.898-5.492 2.108-1.317 3.495-3.622 3.495-6.252 0-0.223-0.011-0.442-0.029-0.665l0.002 0.029c-0.221-5.371-5.591-4.937-10.76-4.54zM434.225 570.038c25.058-30.704 56.123-63.773 84.676-76.408 28.865-12.777 28.187 15.635-28.932 54.119-11.536 8.248-31.701 19.876-53.555 32.75-6.919 3.965-13.675 7.748-20.23 11.336 3.611-4.449 7.882-9.379 18.037-21.813v0.012zM587.268 614.569c-0.265-5.383-5.646-4.894-10.796-4.46-30.447 4.571-60.541 9.099-72.509 10.552 6.642-9.013 12.288-14.604 15.159-18.355 2.856-3.788 4.252-5.126 1.503-7.619-2.737-2.492-29.886-11.469-38.208-4.033-8.334 7.442-91.244 101.264-143.756 145.327-2.847 2.115-25.828 20.861-54.62 39.204 32.641-38.054 45.141-60.119 71.002-93.37 8.402-10.638 27.179-39.613 41.476-60.052 20.524-9.864 43.401-21.348 69.198-34.865 8.45-3.984 17.848-8.867 29.593-15.745l0.147-0.079h-0.012c1.926-1.131 3.909-2.303 5.978-3.544 56.154-33.834 101.217-91.806 72.443-103.033-25.676-10.021-72.009 1.571-127.758 45.716-38.972 30.89-74.47 75.112-105.688 119.464-56.134 25.12-101.46 38.84-153.929 58.335-9.056 3.533-9.001 8.689-4.905 11.793 3.954 2.988 10.663 0.532 16.277-1.087 38.309-13.883 71.777-22.388 125.588-44.33-33.967 50.465-62.056 97.806-82.996 121.998-7.716 9.744-30.062 33.48-41.653 33.801-10.187 0.274-11.336-8.635-10.961-13.021 0.885-10.497 6.256-16.528 9.777-22.541 1.839-3.166 6.012-7.894 2.437-11.096-3.886-3.488-30.182-12.135-38.506-4.692-2.958 2.402-13.729 17.139-9.631 41.519 2.977 17.695 17.713 36.503 39.637 35.605 28.211-1.149 84.022-25.932 149.878-77.703-3.843 19.486 6.22 33.148 25.278 39.514 20.23 6.752 42.075 2.139 41.653-6.678-0.366-7.571-10.961-1.362-18.698-8.372-12.037-10.925-4.319-22.541 7.65-40.964 20.042-30.832 77.911-91.311 77.911-91.311 37.456-8.292 76.164-18.8 97.342-24.746 8.604-2.371 15.047-4.063 14.702-11.15z"></path>
    <path fill="#1f2c5a" d="M425.279 756.553c-9.721 8.945-11.513 21.29-3.874 29.585 7.619 8.303 21.777 9.398 31.523 0.464 9.709-8.97 11.451-22.919 3.819-31.223-7.662-8.303-21.71-7.785-31.467 1.173zM1609.015 715.7c0-3.453-2.15-5.182-5.97-5.182h-6.685v10.741h6.685c3.752 0 5.97-2.028 5.97-5.561zM1608.196 726.216l7.387 13.87h-7.387l-6.886-13.266h-5.26v13.266h-6.678v-35.428h14.572c7.484 0 11.946 4.143 11.946 11.041 0 5.359-2.835 9.11-7.693 10.516zM1626.222 722.274c0-14.78-10.638-25.81-25.418-25.81-14.671 0-25.387 11.029-25.387 25.797 0 14.78 10.717 26.017 25.387 26.017 14.78 0 25.418-11.237 25.418-26.017v0.012zM1632.002 722.274c0 17.605-13.461 31.18-31.199 31.18-17.605 0-31.058-13.564-31.058-31.18 0-17.628 13.454-30.967 31.058-30.967 17.737 0 31.199 13.339 31.199 30.967zM505.483 940.965v-50.874h-18.135v-11.072h48.24v11.072h-18.159v50.874h-11.946zM583.717 888.76c-8.225 0-14.505 7.252-14.505 20.702 0 15.134 6.001 21.857 14.505 21.857 8.493 0 14.505-6.544 14.505-21.857 0-13.454-6.367-20.702-14.505-20.702zM565.117 885.583c5.248-5.237 11.628-7.894 18.6-7.894 6.997 0 13.454 2.658 18.501 7.894 5.224 5.029 8.402 13.62 8.402 23.881 0 11.414-3.177 20.347-8.402 25.4-4.641 4.587-11.025 7.422-18.069 7.422-0.147 0-0.294-0.001-0.441-0.004h0.024c-7.088 0-13.363-2.457-18.6-7.418-5.035-5.047-8.316-13.986-8.316-25.4 0-10.265 3.275-18.856 8.303-23.881zM650.869 907.348h13.021c5.315 0 9.11-3.379 9.11-8.591 0-6.025-3.886-8.67-9.11-8.67h-13.021v17.262zM638.929 940.965v-61.946h25.132c6.288 0 11.414 1.772 15.392 5.401 3.996 3.544 5.946 8.316 5.946 14.34 0 12.037-8.151 19.641-21.337 19.641h-13.198v22.565h-11.933zM773.709 888.76c-8.237 0-14.525 7.252-14.525 20.702 0 15.134 6.036 21.857 14.517 21.857 8.505 0 14.525-6.544 14.525-21.857 0-13.454-6.38-20.702-14.525-20.702h0.012zM755.116 885.583c4.68-4.868 11.244-7.894 18.519-7.894 0.023 0 0.041 0 0.064 0h-0.003c6.997 0 13.454 2.658 18.501 7.894 5.213 5.029 8.414 13.62 8.414 23.881 0 11.414-3.201 20.347-8.414 25.4-4.641 4.587-11.025 7.422-18.069 7.422-0.147 0-0.294-0.001-0.441-0.004h0.024c-7.088 0-13.374-2.457-18.587-7.418-5.047-5.047-8.327-13.986-8.327-25.4 0-10.265 3.275-18.856 8.327-23.881zM828.909 940.965v-61.946h39.306v11.072h-27.349v16.363h24.868v10.54h-24.868v23.97h-11.957zM947.753 940.965v-50.874h-18.147v-11.072h48.24v11.072h-18.135v50.874h-11.957zM1003.515 940.965v-61.946h11.933v24.955h21.246v-24.955h11.957v61.946h-11.957v-26.817h-21.246v26.817h-11.933zM1080.394 940.965v-61.946h39.216v11.072h-27.246v13.883h24.765v10.63h-24.765v15.3h27.246v11.072h-39.204zM1196.672 940.965l-12.037-61.946h12.123l7.974 42.129h0.265l14.262-42.129h6.012l14.262 42.129h0.244l7.962-42.129h11.867l-12.037 61.946h-12.379l-12.752-38.486h-0.532l-12.832 38.486h-12.398zM1308.617 888.76c-8.225 0-14.517 7.252-14.517 20.702 0 15.134 6.025 21.857 14.505 21.857 8.524 0 14.536-6.544 14.536-21.857 0-13.454-6.38-20.702-14.525-20.702zM1290.036 885.583c4.679-4.868 11.241-7.894 18.514-7.894 0.025 0 0.045 0 0.071 0h-0.004c6.997 0 13.443 2.658 18.49 7.894 5.224 5.029 8.438 13.62 8.438 23.881 0 11.414-3.21 20.347-8.438 25.4-5.047 4.961-11.402 7.418-18.49 7.418-0.093 0.001-0.206 0.002-0.323 0.002-7.102 0-13.547-2.831-18.265-7.426l0.006 0.006c-5.047-5.047-8.327-13.986-8.327-25.4 0-10.265 3.275-18.856 8.327-23.881zM1375.788 907.604h12.202c6.82 0 10.187-2.922 10.187-8.859 0-5.921-3.367-8.933-10.187-8.933h-12.215l0.012 17.792zM1363.83 940.965v-61.946h25.144c6.367 0 11.506 1.772 15.401 5.401 3.975 3.544 5.921 8.316 5.921 14.34 0 8.933-4.961 15.477-13.1 18.050l13.174 24.159h-12.91l-12.489-23.005h-9.191v23.005h-11.957zM1437.813 940.965v-61.946h11.946v50.886h25.577v11.072h-37.523zM1513.378 929.901h8.237c4.241 0 7.252-0.788 10.1-3.533 2.823-2.745 4.418-8.225 4.418-16.454 0-13.815-5.567-19.829-13.986-19.829h-8.768v39.814zM1501.444 940.973v-61.958h20.702c13.717 0 26.825 9.477 26.825 30.89 0 11.316-3.275 19.907-8.591 24.514-5.315 4.505-11.426 6.544-18.764 6.544h-20.17z"></path>
</svg>
