<svg xmlns="http://www.w3.org/2000/svg" xmlns:xlink="http://www.w3.org/1999/xlink" width="257" height="23" viewBox="0 0 257 23">
  <defs>
    <polygon id="logo-white-a" points=".258 .291 6.744 .291 6.744 6.788 .258 6.788"/>
    <polygon id="logo-white-c" points="0 .227 16.768 .227 16.768 23 0 23"/>
    <polygon id="logo-white-e" points=".212 .046 19.906 .046 19.906 22.82 .212 22.82"/>
  </defs>
  <g fill="none" fill-rule="evenodd">
    <g transform="translate(250 16)">
      <mask id="logo-white-b" fill="#fff">
        <use xlink:href="#logo-white-a"/>
      </mask>
      <path fill="#C8D100" d="M3.500875,6.78785625 C1.7128125,6.78785625 0.2576875,5.33141875 0.2576875,3.54029375 C0.2576875,1.74873125 1.7128125,0.29054375 3.500875,0.29054375 C5.2885,0.29054375 6.743625,1.74873125 6.743625,3.54029375 C6.743625,5.33141875 5.2885,6.78785625 3.500875,6.78785625" mask="url(#logo-white-b)"/>
    </g>
    <mask id="logo-white-d" fill="#fff">
      <use xlink:href="#logo-white-c"/>
    </mask>
    <path fill="#FFF" d="M10.43868,9.53420769 C8.43523,9.01936154 7.15428,8.57351538 6.601355,8.19622692 C6.04673,7.81761154 5.770055,7.3094 5.770055,6.66805385 C5.770055,6.02670769 5.996155,5.51363077 6.450905,5.12484231 C6.90353,4.73605385 7.52318,4.54055385 8.309005,4.54055385 C10.262305,4.54055385 12.156105,5.26638077 13.98828,6.71538077 L16.37508,3.12561154 C15.32703,2.20118846 14.100055,1.48641923 12.68948,0.983073077 C11.279755,0.477957692 9.869605,0.227169231 8.459455,0.227169231 C6.303855,0.227169231 4.506955,0.792880769 3.066205,1.92695769 C1.625455,3.06147692 0.905505,4.67368846 0.905505,6.76226538 C0.905505,8.85261154 1.475005,10.3860923 2.613155,11.3618231 C3.75003,12.3379962 5.54863,13.1310538 8.006405,13.7383423 C9.55723,14.1390731 10.593805,14.5327269 11.11783,14.9215154 C11.643555,15.3103038 11.903655,15.8353231 11.903655,16.4952462 C11.903655,17.1582654 11.656305,17.6815154 11.16458,18.0703038 C10.66988,18.4590923 9.99073,18.6528231 9.12543,18.6528231 C7.189555,18.6528231 5.085805,17.6142846 2.80908,15.5358808 L-0.00017,19.12565 C2.67818,21.7091692 5.689305,22.9998231 9.033205,22.9998231 C11.34903,22.9998231 13.218605,22.3859 14.63853,21.1589385 C16.058455,19.9302077 16.768205,18.3281692 16.768205,16.3537077 C16.768205,14.3814577 16.21358,12.8784962 15.107305,11.8501308 C13.998055,10.8199962 12.44213,10.0494962 10.43868,9.53420769" mask="url(#logo-white-d)"/>
    <path fill="#FFF" d="M35.747808,2.96745812 C34.2464903,1.65758708 31.8529978,1 28.566469,1 L21,1 L21,23 L25.7783691,23 L25.7783691,16.8638464 L28.627211,16.8638464 C31.7905327,16.8638464 34.1448229,16.2332168 35.6853429,14.9754932 C37.2280168,13.7160018 38,11.728215 38,9.01080712 C38,6.29339922 37.2491257,4.27909686 35.747808,2.96745812 M32.2415742,11.6221526 C31.6694795,12.2832751 30.5877553,12.6147202 28.9942476,12.6147202 L25.7783691,12.6147202 L25.7783691,5.21907517 L28.5044346,5.21907517 C30.077695,5.21907517 31.235239,5.48644088 31.9809437,6.02117231 C32.7249252,6.55590374 33.0988546,7.45920212 33.0988546,8.72664819 C33.0988546,9.99807159 32.8119457,10.961472 32.2415742,11.6221526"/>
    <path fill="#C8D100" d="M60.677768,19.8462017 C62.891561,17.7428138 64,15.1281263 64,12.0008557 C64,8.87187366 62.891561,6.25675833 60.677768,4.15337042 C58.4644157,2.05169396 55.7376116,1 52.5008815,1 C49.2623884,1 46.5355843,2.05169396 44.322232,4.15337042 C42.1066761,6.25675833 41,8.87187366 41,12.0008557 C41,15.1281263 42.1066761,17.7428138 44.322232,19.8462017 C46.5355843,21.9500175 49.2623884,23 52.5008815,23 C55.7376116,23 58.4644157,21.9500175 60.677768,19.8462017 M46.0141992,12.0154032 C46.0141992,10.1152515 46.6395968,8.49706329 47.8939179,7.15570423 C49.1464761,5.81434517 50.686391,5.14345171 52.5158663,5.14345171 C54.3435787,5.14345171 55.8848159,5.81434517 57.1378147,7.15570423 C58.3903729,8.49706329 59.0175334,10.1152515 59.0175334,12.0154032 C59.0175334,13.915127 58.3903729,15.5303201 57.1378147,16.8605547 C55.8848159,18.1903614 54.3435787,18.8565483 52.5158663,18.8565483 C50.686391,18.8565483 49.1464761,18.1903614 47.8939179,16.8605547 C46.6395968,15.5303201 46.0141992,13.915127 46.0141992,12.0154032"/>
    <polygon fill="#FFF" points="65 1 65 5.132 71.097 5.132 71.097 22 75.903 14.906 75.903 5.132 82 5.132 82 1"/>
    <polygon fill="#FFF" points="107.834 1 103.585 13.653 99.825 1 94.84 1 91.051 13.653 87.397 2.697 84 7.892 89.125 23 92.671 23 97.316 7.703 101.994 23 105.542 23 113 1"/>
    <polygon fill="#FFF" points="116 1 116 9.679 116 14.106 116 23 132 23 132 18.656 120.846 18.656 120.846 14.094 130.57 14.094 130.57 9.906 120.846 9.906 120.846 5.374 131.657 5.374 131.657 1"/>
    <path fill="#FFF" d="M153.631829 8.30121934C153.631829 5.74196983 152.911439 3.8836303 151.471972 2.73017818 150.030318 1.57672606 147.620272 1 144.240084 1L136 1 136 23 140.851585 23 140.851585 15.9811776 144.210341 15.9811776 149.029996 23 155 23 149.496259 15.1304514C152.254034 14.102509 153.631829 11.8260983 153.631829 8.30121934M147.78517 10.914385C147.184189 11.4592917 146.054398 11.7315241 144.396671 11.7315241L140.851585 11.7315241 140.851585 5.21695024 144.489836 5.21695024C146.043901 5.21695024 147.133014 5.43747615 147.75499 5.87808602 148.375653 6.31869589 148.687078 7.13229947 148.687078 8.31624515 148.687078 9.50195858 148.3879 10.3677106 147.78517 10.914385M170.673717 11.5753083C171.038847 11.4073762 171.292982 11.2862882 171.434834 11.2138122 171.576686 11.1400104 171.831249 10.9566108 172.196809 10.6622876 173.272487 9.82306858 173.810754 8.54369049 173.810754 6.82326945 173.810754 5.39584589 173.334627 4.11602587 172.378945 2.98248363 171.850963 2.37395042 171.064989 1.89136636 170.018025 1.53473143 168.972774 1.17853843 167.728673 1 166.287007 1L158 1 158 23 167.321115 23C170.246445 23 172.299234 22.3172231 173.47648 20.9552047 174.492588 19.7779117 175 18.4260576 175 16.8943393 175 15.5102246 174.608727 14.3497248 173.827039 13.4150496 173.046209 12.4817002 171.99453 11.8678639 170.673717 11.5753083L170.673717 11.5753083zM162.75184 5.15499578L165.036478 5.15499578C166.438716 5.15499578 167.432969 5.31143787 168.02352 5.62785746 168.612358 5.94206741 168.907633 6.58595476 168.907633 7.56128721 168.907633 8.53838737 168.586216 9.17255233 167.947237 9.46510787 167.30783 9.76119883 166.326006 9.9074766 165.005193 9.9074766L162.75184 9.9074766 162.75184 5.15499578zM169.075628 18.3266241C168.393793 18.671327 167.372971 18.8445623 166.011445 18.8445623L162.75184 18.8445623 162.75184 13.7783134 165.555032 13.7783134C167.139836 13.7783134 168.292654 13.9413844 169.013487 14.2657587 169.732606 14.590133 170.096022 15.2631875 170.096022 16.2800611 170.096022 17.2978185 169.754033 17.9788277 169.075628 18.3266241L169.075628 18.3266241zM192.311809 13.0279617C192.311809 14.7728059 191.925916 16.1496927 191.1554 17.1568721 190.383615 18.1658016 189.337944 18.6685162 188.01585 18.6685162 186.692488 18.6685162 185.6409 18.1658016 184.860662 17.1568721 184.078733 16.1496927 183.688191 14.7728059 183.688191 13.0279617L183.688191 1 179 1 179 13.1845952C179 16.3207645 179.847864 18.7415826 181.539789 20.4448621 183.231714 22.147704 185.389837 23 188.01585 23 190.638904 23 192.792801 22.1525168 194.474581 20.4597379 196.158898 18.7665215 197 16.3426407 197 13.1845952L197 1 192.311809 1 192.311809 13.0279617z"/>
    <polygon fill="#FFF" points="217.163 1 217.163 15.163 206.529 1 202 1 202 23 206.837 23 206.837 9.213 217.163 23 222 23 222 1"/>
    <g transform="translate(226)">
      <mask id="logo-white-f" fill="#fff">
        <use xlink:href="#logo-white-e"/>
      </mask>
      <path fill="#FFF" d="M15.1571064,11.3535519 L15.1571064,17.4021096 C14.0673191,18.0536288 12.705617,18.3782827 11.0737021,18.3782827 C9.43838298,18.3782827 8.03285106,17.7537442 6.85242553,16.5033404 C5.672,15.2547058 5.0826383,13.5903019 5.0826383,11.5114558 C5.0826383,9.43305192 5.69795745,7.75670577 6.92689362,6.48639808 C8.15753191,5.21564808 9.67157447,4.58093654 11.465617,4.58093654 C12.3932766,4.58093654 13.2562553,4.74459038 14.0511489,5.06924423 C14.8494468,5.39566731 15.7205106,5.98791731 16.6698723,6.84953269 L19.1196596,3.16378269 C16.8817872,1.08537885 14.2439149,0.0455134615 11.2098723,0.0455134615 C8.17370213,0.0455134615 5.5813617,1.13757115 3.43455319,3.32035962 C1.28561702,5.50491731 0.212425532,8.229975 0.212425532,11.4946481 C0.212425532,14.7597635 1.26519149,17.464475 3.37497872,19.6070135 C5.4813617,21.7477827 8.08646809,22.8199365 11.1937021,22.8199365 C14.904766,22.8199365 17.8094468,21.6013788 19.9060426,19.1642635 L19.9060426,11.3535519 L15.1571064,11.3535519 Z" mask="url(#logo-white-f)"/>
    </g>
  </g>
</svg>
