<?xml version="1.0" standalone="no"?>
<!DOCTYPE svg PUBLIC "-//W3C//DTD SVG 1.1//EN" "http://www.w3.org/Graphics/SVG/1.1/DTD/svg11.dtd" >
<svg xmlns="http://www.w3.org/2000/svg">
<metadata></metadata>
<defs>
<font id="sfns_displaythin" horiz-adv-x="0" >
<font-face units-per-em="2048" ascent="1638" descent="-410" />
<missing-glyph horiz-adv-x="406" />
<glyph unicode="&#xd;" />
<glyph unicode=" "  horiz-adv-x="406" />
<glyph unicode="&#x09;" horiz-adv-x="406" />
<glyph unicode="&#xa0;" horiz-adv-x="406" />
<glyph unicode="!" horiz-adv-x="510" d="M296 1443l-3 -1017h-76l-3 1017h82zM255 -10q-29 0 -50 20.5t-21 50.5q0 29 21 49.5t50 20.5q30 0 50.5 -20.5t20.5 -49.5q0 -30 -20.5 -50.5t-50.5 -20.5z" />
<glyph unicode="&#x22;" horiz-adv-x="564" d="M107 984v459h74v-459h-74zM384 984v459h73v-459h-73z" />
<glyph unicode="#" horiz-adv-x="1224" d="M909 940l-86 -430h258l-14 -67h-258l-92 -443h-70l92 443h-383l-92 -443h-69l92 443h-247l12 67h250l85 430h-235l13 67h235l92 441h69l-90 -441h382l92 441h69l-91 -441h271l-14 -67h-271zM370 509h384l85 431h-382z" />
<glyph unicode="$" horiz-adv-x="1192" d="M563 -167v151q-101 4 -187.5 36t-150 85.5t-100.5 125t-39 154.5h77q4 -66 36 -124.5t85.5 -102.5t125 -71t153.5 -31v656l-22 6q-113 27 -193 61t-130 78t-73 100t-23 128q0 79 32.5 146t90.5 117t139 79.5t179 34.5v135h64v-135q93 -5 172.5 -35t138.5 -79t93.5 -113.5 t37.5 -138.5h-77q-3 58 -32 110t-78.5 91.5t-114.5 64.5t-140 30v-617l24 -6q121 -29 206 -64.5t138.5 -82t77.5 -107t24 -138.5q0 -83 -34.5 -152.5t-96.5 -121.5t-148.5 -83t-190.5 -36v-151h-64zM1020 373q0 64 -21 113.5t-68 88.5t-121.5 68.5t-182.5 54.5v-643 q85 3 157 28.5t124.5 68t82 99t29.5 122.5zM199 1089q0 -58 19.5 -103.5t63 -81t113 -63.5t168.5 -52v603q-78 -3 -145 -27t-115.5 -64.5t-76 -94.5t-27.5 -117z" />
<glyph unicode="%" horiz-adv-x="1420" d="M1370 334q0 -78 -17 -142t-49.5 -109.5t-79.5 -70t-107 -24.5q-59 0 -106 24.5t-79.5 70t-50 109.5t-17.5 142t17.5 141.5t50 109t79.5 70t106 24.5q60 0 107 -24.5t79.5 -70t49.5 -109t17 -141.5zM1117 48q43 0 76.5 20.5t56.5 58t35 90t12 117.5q0 64 -12 117t-35 90 t-56.5 57.5t-76.5 20.5q-42 0 -75.5 -20.5t-56.5 -58t-35 -90t-12 -116.5q0 -65 12 -117.5t35 -90t56.5 -58t75.5 -20.5zM556 1109q0 -78 -17 -142t-49.5 -109.5t-79.5 -70t-107 -24.5q-59 0 -106 24.5t-79.5 70t-50 109.5t-17.5 142t17.5 141.5t50 109t79.5 70t106 24.5 q60 0 107 -24.5t79.5 -70t49.5 -109t17 -141.5zM303 823q43 0 76.5 20.5t56.5 58t35 90t12 117.5q0 64 -12 117t-35 90t-56.5 57.5t-76.5 20.5q-42 0 -75.5 -20.5t-56.5 -58t-35 -90t-12 -116.5q0 -65 12 -117.5t35 -90t56.5 -58t75.5 -20.5zM126 0l1075 1443h85 l-1075 -1443h-85z" />
<glyph unicode="&#x26;" horiz-adv-x="1374" d="M1022 199q-47 -51 -104.5 -92t-121 -69.5t-131.5 -43.5t-136 -15q-101 0 -184.5 28.5t-143.5 80t-93.5 122.5t-33.5 156q0 113 66 206.5t210 171.5q3 1 19 9.5t34 18.5t33 18t16 8q-62 63 -103.5 112.5t-67 92t-36 80.5t-10.5 78q0 64 26.5 119t72.5 95.5t109 64 t135 23.5t134 -22.5t107 -62.5t70.5 -95t25.5 -120q0 -51 -19.5 -99.5t-61.5 -95t-108.5 -93t-160.5 -94.5l451 -476q28 45 51 96t39.5 105t25 110t8.5 110v79h75v-77q0 -62 -10.5 -125.5t-29.5 -125t-46 -118.5t-60 -105l246 -254h-101zM395 691q-127 -69 -184.5 -150 t-57.5 -173q0 -68 27.5 -126.5t77.5 -101.5t120 -67.5t156 -24.5q58 0 119 14.5t119 41t109 63.5t89 81l-471 499q-1 -1 -17 -9.5t-35 -18.5t-35 -18.5t-17 -9.5zM520 829q169 82 244 164t75 168q0 50 -20 93t-55.5 75t-83 50t-102.5 18t-103.5 -19t-85 -51.5t-57.5 -76 t-21 -92.5q0 -34 9.5 -66.5t33.5 -70t64.5 -84t101.5 -108.5z" />
<glyph unicode="'" horiz-adv-x="287" d="M107 984v459h74v-459h-74z" />
<glyph unicode="(" horiz-adv-x="570" d="M422 -257q-59 75 -108.5 167.5t-85 200t-55.5 229.5t-20 258t20 255.5t56 224.5t86 196t110 169h74q-56 -73 -104.5 -164.5t-84.5 -199t-57 -228.5t-21 -253t20.5 -252.5t56.5 -228t84.5 -201.5t104.5 -173h-76z" />
<glyph unicode=")" horiz-adv-x="570" d="M72 -257q56 79 104.5 173t84.5 201.5t56.5 228t20.5 252.5t-21 253t-57 228.5t-85 199t-104 164.5h74q60 -78 110 -169t86 -196t55.5 -224.5t19.5 -255.5t-20 -258t-55.5 -229.5t-85 -200t-107.5 -167.5h-76v0z" />
<glyph unicode="*" horiz-adv-x="953" d="M505 1017l5 -341h-66l5 341l-293 -175l-32 57l297 166l-297 165l32 58l293 -176l-5 342h66l-5 -342l292 176l33 -57l-297 -166l297 -166l-33 -57z" />
<glyph unicode="+" horiz-adv-x="1192" d="M633 35h-74v504h-453v73h453v490h74v-490h453v-73h-453v-504z" />
<glyph unicode="," horiz-adv-x="501" d="M156 -222l65 402h83l-86 -402h-62z" />
<glyph unicode="-" horiz-adv-x="868" d="M106 539v73h656v-73h-656z" />
<glyph unicode="." horiz-adv-x="496" d="M248 -10q-29 0 -49.5 20.5t-20.5 49.5t20.5 49.5t49.5 20.5t49.5 -20.5t20.5 -49.5t-20.5 -49.5t-49.5 -20.5z" />
<glyph unicode="/" horiz-adv-x="518" d="M0 -331l446 1774h72l-448 -1774h-70z" />
<glyph unicode="0" horiz-adv-x="1194" d="M598 -21q-119 0 -214 52t-161 148.5t-101.5 234t-35.5 308.5q0 170 35.5 307.5t101.5 234t161 148.5t214 52q118 0 212.5 -52t160.5 -148.5t101.5 -233.5t35.5 -308t-35.5 -308.5t-101.5 -234t-160.5 -148.5t-212.5 -52zM598 50q100 0 180 47t135.5 134.5t85.5 211.5 t30 279q0 154 -30 278t-86 211.5t-135.5 134.5t-179.5 47t-180 -47.5t-136 -135t-86 -211.5t-30 -277q0 -155 30 -279t85.5 -211.5t135.5 -134.5t181 -47z" />
<glyph unicode="1" horiz-adv-x="804" d="M484 1359h-2q-21 -12 -48 -30.5t-71 -47.5t-110 -72t-165 -104v88q37 24 90.5 58.5t110 71.5t108.5 70.5t87 54.5h78v-1448h-78v1359z" />
<glyph unicode="2" horiz-adv-x="1142" d="M124 1054q2 89 36 164.5t93 130t139 85t175 30.5q92 0 171.5 -30t138 -83t92 -124.5t33.5 -154.5q0 -57 -14.5 -110.5t-50 -113t-95 -131t-148.5 -164.5l-451 -477v-4h813v-72h-927v60l513 544q83 87 137.5 152t86.5 117.5t44.5 99t12.5 96.5q0 69 -27.5 128t-75.5 102.5 t-113.5 68.5t-141.5 25q-77 0 -142.5 -25.5t-114.5 -70.5t-77 -107.5t-30 -135.5h-77v0z" />
<glyph unicode="3" horiz-adv-x="1146" d="M384 784h161q82 0 149.5 22.5t116.5 63.5t76 97.5t27 124.5q0 65 -26.5 120t-74 95.5t-113 63t-144.5 22.5q-74 0 -137.5 -22.5t-111 -62t-77 -94.5t-33.5 -119h-77q4 81 39 148.5t93 116.5t136.5 76.5t170.5 27.5q93 0 172.5 -27.5t137.5 -76.5t91 -115.5t33 -145.5 q0 -67 -21 -124.5t-61 -102t-96.5 -75t-127.5 -43.5v-4q84 -5 152 -33t116.5 -74.5t74.5 -110t26 -139.5q0 -90 -37 -166t-102 -131t-154 -86t-193 -31t-191.5 29t-151.5 80.5t-101 122t-39 152.5h77q2 -67 34 -124t86 -99t127.5 -66t158.5 -24q87 0 161.5 25.5t129 71 t85 108t30.5 136.5q0 76 -29.5 136t-84.5 101.5t-135 63.5t-180 22h-163v70z" />
<glyph unicode="4" horiz-adv-x="1181" d="M813 361h-743v73q76 117 155 235t165.5 242t182 256.5t204.5 279.5l114 1v-1015h229v-72h-229v-361h-78v361zM157 433h656v935h-2q-192 -257 -354.5 -489.5t-299.5 -443.5v-2z" />
<glyph unicode="5" horiz-adv-x="1171" d="M595 -21q-93 0 -175.5 28t-145.5 78t-102.5 118.5t-47.5 149.5h79q8 -65 42 -120.5t86.5 -96t120 -63.5t144.5 -23q90 0 166 31t131.5 85.5t87 129.5t31.5 163q0 87 -31 162t-85.5 130t-128.5 86.5t-161 31.5q-121 0 -220.5 -56.5t-158.5 -156.5h-80l86 787h765v-72h-697 l-68 -617h3q29 43 70 77.5t90 58.5t104.5 37t114.5 13q102 0 189 -36.5t151 -100.5t100 -152t36 -191q0 -104 -37.5 -192.5t-103.5 -152.5t-157 -100t-198 -36z" />
<glyph unicode="6" horiz-adv-x="1179" d="M616 -21q-125 0 -226 52.5t-168 151.5q-132 176 -132 501q0 180 37 324.5t106.5 245.5t168 155.5t221.5 54.5q87 0 163 -25.5t135 -72.5t97.5 -112.5t51.5 -145.5h-80q-12 63 -44.5 115t-81.5 90t-110.5 59t-131.5 21q-110 0 -195.5 -53t-144 -152.5t-88 -243.5 t-26.5 -327h4q19 72 61.5 132t102 103.5t133 67.5t154.5 24q102 0 190 -36.5t152 -100t100.5 -150.5t36.5 -188q0 -105 -36.5 -194.5t-101.5 -155.5t-154 -103t-194 -37zM615 51q86 0 160.5 32t129 88t86 132t31.5 164q0 86 -31 160.5t-86 129t-129 85.5t-161 31 q-85 0 -160.5 -31t-132 -84.5t-89.5 -124.5t-33 -151q0 -91 32 -169.5t88 -136.5t131.5 -91.5t163.5 -33.5z" />
<glyph unicode="7" horiz-adv-x="1085" d="M921 1368v3h-839v72h920v-76l-685 -1367h-86z" />
<glyph unicode="8" horiz-adv-x="1189" d="M594 -21q-113 0 -205 31t-158 86t-102 131.5t-36 166.5q0 69 24.5 130.5t69 110.5t106.5 82.5t137 47.5v3q-65 15 -117 44.5t-89.5 71.5t-57.5 94.5t-20 112.5q0 81 33 149.5t92.5 118t141.5 77.5t181 28t181.5 -28t141.5 -77.5t92 -118t33 -149.5q0 -58 -20.5 -110 t-57.5 -94t-89 -73t-115 -46v-3q74 -14 136 -47.5t106.5 -82.5t69 -110.5t24.5 -130.5q0 -91 -36 -167t-102 -131t-158.5 -86t-205.5 -31zM594 50q96 0 173.5 26t133 72.5t85.5 110t30 138.5q0 72 -30.5 132.5t-86 104t-133 68t-172.5 24.5t-172.5 -24.5t-132.5 -68.5 t-85.5 -104t-30.5 -132q0 -75 30 -138.5t85 -110t132.5 -72.5t173.5 -26zM594 799q81 0 149 21.5t116.5 59.5t76 91t27.5 116q0 65 -26 121t-74.5 97t-116.5 64.5t-152 23.5t-152 -23.5t-116.5 -64.5t-75 -97t-26.5 -121q0 -63 27.5 -116t77 -91t117 -59.5t148.5 -21.5z" />
<glyph unicode="9" horiz-adv-x="1179" d="M557 -21q-90 0 -167 26t-135 73t-96 112.5t-50 144.5h80q11 -61 42 -113t79 -90.5t110.5 -60t136.5 -21.5q106 0 189.5 48.5t141.5 139.5t89.5 220t34.5 291q1 17 0.5 38t-1.5 39h-1h-1q-18 -69 -60.5 -129t-103 -104t-134.5 -69t-155 -25q-104 0 -192 36t-151.5 99 t-99.5 149t-36 186q0 106 36.5 196.5t101 157t154 104t194.5 37.5q127 0 227.5 -53.5t166.5 -152.5q66 -88 99 -212.5t33 -286.5q0 -179 -36.5 -323.5t-105 -246t-167.5 -156t-223 -54.5zM564 570q85 0 161 31.5t132 85.5t89 125t33 149q0 90 -31.5 168.5t-87.5 137t-132 92 t-164 33.5q-87 0 -162 -32.5t-129.5 -89.5t-85.5 -134t-31 -166q0 -83 30.5 -156t84.5 -127t129 -85.5t164 -31.5z" />
<glyph unicode=":" horiz-adv-x="496" d="M248 -10q-29 0 -49.5 20.5t-20.5 49.5t20.5 49.5t49.5 20.5t49.5 -20.5t20.5 -49.5t-20.5 -49.5t-49.5 -20.5zM248 760q-29 0 -49.5 20.5t-20.5 49.5t20.5 49.5t49.5 20.5t49.5 -20.5t20.5 -49.5t-20.5 -49.5t-49.5 -20.5z" />
<glyph unicode=";" horiz-adv-x="496" d="M248 760q-29 0 -49.5 20.5t-20.5 49.5t20.5 49.5t49.5 20.5t49.5 -20.5t20.5 -49.5t-20.5 -49.5t-49.5 -20.5zM140 -222l65 402h84l-86 -402h-63z" />
<glyph unicode="&#x3c;" horiz-adv-x="1192" d="M274 545v-6l730 -501v-85l-815 554v67l815 564v-85z" />
<glyph unicode="=" horiz-adv-x="1192" d="M112 353v70h969v-70h-969zM112 728v70h969v-70h-969z" />
<glyph unicode="&#x3e;" horiz-adv-x="1192" d="M189 1138l815 -564v-66l-815 -555v85l730 502v6l-730 507v85z" />
<glyph unicode="?" horiz-adv-x="931" d="M60 1096q5 78 35.5 144.5t82.5 115t123 76.5t156 28t157 -27t124 -74.5t81 -112.5t29 -140q0 -51 -12.5 -95.5t-38.5 -85t-66 -79t-96 -77.5q-51 -35 -85 -65.5t-54 -61.5t-28 -65.5t-8 -78.5v-90h-77v98q0 49 9.5 89.5t32.5 76.5t60 70.5t92 73.5q51 37 87.5 71t59 68.5 t33 70.5t10.5 77q0 63 -23.5 115.5t-65.5 90.5t-99 59t-124 21q-65 0 -120.5 -21t-97.5 -59t-68.5 -92.5t-32.5 -120.5h-76zM424 -10q-29 0 -49.5 20.5t-20.5 50.5q0 29 20.5 49.5t49.5 20.5q30 0 50.5 -20.5t20.5 -49.5q0 -30 -20.5 -50.5t-50.5 -20.5z" />
<glyph unicode="@" horiz-adv-x="1741" d="M865 947q-62 0 -114 -26.5t-89.5 -74t-59 -112.5t-21.5 -142q0 -78 20.5 -142.5t57.5 -110.5t89.5 -71t115.5 -25q60 0 109.5 25.5t84.5 72.5t54 113.5t19 147.5q0 80 -18.5 144t-53 108.5t-84 68.5t-110.5 24zM892 1432q175 0 321.5 -55t252.5 -154.5t164.5 -238 t58.5 -305.5q0 -120 -21.5 -214t-62 -159.5t-99.5 -100t-134 -34.5q-50 0 -91.5 14t-72 40.5t-50 64.5t-23.5 85h-5q-37 -97 -107.5 -148t-164.5 -51q-78 0 -142.5 30.5t-111 86t-72 132t-25.5 169.5q0 92 26 169t72.5 132.5t111 86.5t141.5 31q46 0 88.5 -13.5t77.5 -38 t62 -58.5t41 -76h5v165h71v-560q0 -96 44 -146.5t132 -50.5q57 0 101.5 29.5t76 86t48 139.5t16.5 190q0 153 -54 279.5t-150.5 217.5t-231.5 141.5t-297 50.5q-108 0 -205 -26t-180.5 -74t-150.5 -116t-114 -153t-72.5 -184.5t-25.5 -209.5q0 -175 56 -317.5t155.5 -244 t238 -156.5t303.5 -55q102 0 187.5 10t139.5 28v-64q-56 -18 -140 -27.5t-188 -9.5q-180 0 -330.5 60t-259.5 169.5t-169.5 264t-60.5 343.5q0 181 61 332.5t170 261t259.5 170.5t329.5 61z" />
<glyph unicode="A" horiz-adv-x="1221" d="M935 481h-649l-179 -481h-86l550 1443h80l549 -1443h-85zM312 552h598l-297 788h-5z" />
<glyph unicode="B" horiz-adv-x="1165" d="M128 0v1443h486q94 0 171.5 -25.5t133 -71.5t86 -111t30.5 -143q0 -65 -20 -121t-57.5 -100t-90 -74.5t-116.5 -42.5v-6q76 -8 142 -36.5t114.5 -75t76 -110t27.5 -141.5q0 -89 -33.5 -160t-96.5 -121t-153 -77t-203 -27h-497zM207 778h376q85 0 153.5 21.5t117 61.5 t75 97t26.5 128q0 65 -25 118t-71 90t-111 57t-146 20h-395v-593zM617 72q97 0 174 22t130.5 63t81.5 99t28 131q0 75 -29.5 134t-85.5 100.5t-136.5 63.5t-183.5 22h-389v-635h410z" />
<glyph unicode="C" horiz-adv-x="1326" d="M702 -21q-145 0 -262.5 53t-200 150.5t-127.5 236.5t-45 311q0 168 44.5 304t127.5 231.5t200 147t263 51.5q110 0 208 -37t174 -101.5t125 -153t60 -191.5h-79q-12 87 -54.5 162t-108 129.5t-149 86t-176.5 31.5q-127 0 -229.5 -46t-174.5 -132t-111 -208t-39 -274 q0 -156 39.5 -281t111.5 -213t174.5 -135.5t228.5 -47.5q95 0 179 27t148.5 77.5t106.5 121t54 157.5h79q-12 -103 -59.5 -187t-122 -144t-173 -93t-212.5 -33z" />
<glyph unicode="D" horiz-adv-x="1332" d="M577 1443q164 0 292 -48.5t216 -140.5t134 -226t46 -306t-46 -306.5t-134 -226.5t-216 -140.5t-292 -48.5h-449v1443h449zM208 73h365q147 0 261 43t192 125.5t118.5 203t40.5 276.5t-40.5 277t-118.5 203.5t-192 125.5t-261 43h-365v-1297z" />
<glyph unicode="E" horiz-adv-x="1068" d="M969 0h-841v1443h841v-73h-762v-594h726v-72h-726v-631h762v-73z" />
<glyph unicode="F" horiz-adv-x="1033" d="M128 0v1443h830v-73h-751v-603h691v-72h-691v-695h-79z" />
<glyph unicode="G" horiz-adv-x="1358" d="M1281 571q0 -138 -40 -248t-115 -186.5t-183 -117t-244 -40.5q-141 0 -257.5 54.5t-199.5 153t-129 237t-46 306.5q0 166 45.5 301.5t128 231.5t199 148.5t259.5 52.5q109 0 204.5 -31.5t170.5 -89t126.5 -138t71.5 -178.5h-81q-21 83 -66.5 150t-109.5 114.5t-144.5 73 t-171.5 25.5q-125 0 -227 -47t-174 -133t-111 -207.5t-39 -271.5q0 -152 40 -277t112.5 -214t174 -138t224.5 -49q116 0 209 35.5t158.5 101t100.5 159t35 210.5v83h-503v72h582v-143v0z" />
<glyph unicode="H" horiz-adv-x="1327" d="M1120 0v705h-913v-705h-79v1443h79v-666h913v666h79v-1443h-79z" />
<glyph unicode="I" horiz-adv-x="335" d="M128 0v1443h79v-1443h-79z" />
<glyph unicode="J" horiz-adv-x="951" d="M119 320q3 -60 27 -109.5t64.5 -85t95 -55.5t119.5 -20q75 0 134 22.5t100.5 66t63 106.5t21.5 144v1054h80v-1058q0 -94 -27.5 -169.5t-78.5 -129t-125 -82t-167 -28.5q-83 0 -152.5 25.5t-120.5 71t-80.5 109t-31.5 138.5h78z" />
<glyph unicode="K" horiz-adv-x="1142" d="M128 0v1443h79v-806h6l750 806h101l-594 -636l660 -807h-101l-615 751l-207 -223v-528h-79z" />
<glyph unicode="L" horiz-adv-x="1024" d="M964 0h-836v1443h79v-1370h757v-73z" />
<glyph unicode="M" horiz-adv-x="1604" d="M1476 0h-76v1279h-4l-556 -1276h-76l-556 1276h-4v-1279h-76v1443h88l583 -1340h6l581 1340h90v-1443z" />
<glyph unicode="N" horiz-adv-x="1341" d="M128 0v1443h82l919 -1299h6v1299h79v-1443h-75l-927 1307h-6v-1307h-78z" />
<glyph unicode="O" horiz-adv-x="1420" d="M710 1464q147 0 266 -52t203 -148.5t129 -234t45 -307.5q0 -171 -45 -308.5t-128.5 -234t-202.5 -148.5t-267 -52t-267 52t-202.5 148.5t-128.5 234t-45 308.5q0 170 45 307.5t129 234t203 148.5t266 52zM710 1390q-129 0 -232.5 -47t-177 -134t-113 -210.5t-39.5 -276.5 t39.5 -277t113 -211t177.5 -134t232 -47q129 0 232.5 47t177 134t113 211t39.5 277t-39.5 276.5t-113 210.5t-177 134t-232.5 47z" />
<glyph unicode="P" horiz-adv-x="1116" d="M597 1443q105 0 191 -30.5t146.5 -87t93.5 -136t33 -177.5t-33 -177.5t-94 -135.5t-146.5 -86.5t-190.5 -30.5h-390v-582h-79v1443h469zM207 654h377q91 0 164.5 24.5t125 71t79 113t27.5 149.5q0 84 -27.5 150.5t-79 113t-125 71t-164.5 24.5h-377v-717z" />
<glyph unicode="Q" horiz-adv-x="1420" d="M1153 -177l-159 217q-128 -61 -284 -61q-148 0 -267 52t-202.5 148.5t-128.5 234t-45 308.5q0 170 45 307.5t129 234t203 148.5t266 52t266 -52t203 -148.5t129 -234t45 -307.5q0 -223 -76.5 -389t-217.5 -257l185 -253h-91zM710 53q132 0 238 50l-196 269h91l170 -233 q126 82 192 232t66 351q0 153 -39.5 276.5t-112.5 210.5t-176.5 134t-232.5 47t-232.5 -47t-177 -134t-113 -210.5t-39.5 -276.5t39.5 -277t113 -211t177.5 -134t232 -47z" />
<glyph unicode="R" horiz-adv-x="1150" d="M207 688h387q91 0 162.5 23.5t121.5 67.5t76.5 107t26.5 143q0 81 -27 144.5t-77 107.5t-122 67t-163 23h-385v-683zM207 0h-79v1443h471q107 0 193 -28.5t146 -82t92 -130t32 -171.5q0 -78 -22.5 -144.5t-65.5 -118t-105 -86.5t-141 -51l371 -631h-93l-361 619 q-10 -2 -25 -2.5t-26 -0.5h-387v-616z" />
<glyph unicode="S" horiz-adv-x="1137" d="M136 385q4 -74 39.5 -135t94.5 -105t139 -68.5t174 -24.5q92 0 168.5 24.5t131.5 68.5t85.5 103.5t30.5 130.5q0 57 -19.5 102t-61.5 81t-107 64.5t-156 51.5l-171 42q-100 25 -173 59t-121 77.5t-71 98t-23 122.5q0 84 37 155t101 122.5t150 80.5t185 29 q102 0 189 -28.5t151.5 -78t102.5 -118t41 -147.5h-79q-4 65 -36.5 120t-86.5 94.5t-126.5 62t-157.5 22.5q-81 0 -152.5 -23t-124 -64.5t-83 -99t-30.5 -125.5q0 -108 82 -175t256 -110l161 -41q105 -26 181 -59.5t125.5 -78t73.5 -101.5t24 -129q0 -90 -36 -164.5 t-102 -128t-159 -83.5t-206 -30q-111 0 -204.5 30t-162 83.5t-109 128t-44.5 164.5h79z" />
<glyph unicode="T" horiz-adv-x="1138" d="M529 0v1370h-508v73h1096v-73h-508v-1370h-80z" />
<glyph unicode="U" horiz-adv-x="1334" d="M207 504q0 -103 32 -186.5t91.5 -142t144.5 -90.5t192 -32q106 0 191.5 32t145 90.5t91.5 142t32 186.5v939h79v-942q0 -118 -37.5 -214.5t-107.5 -164.5t-170 -105.5t-224 -37.5q-125 0 -224.5 37.5t-169.5 105.5t-107.5 164.5t-37.5 214.5v942h79v-939z" />
<glyph unicode="V" horiz-adv-x="1223" d="M571 0l-550 1443h85l503 -1338h5l503 1338h84l-550 -1443h-80z" />
<glyph unicode="W" horiz-adv-x="1803" d="M515 0h-70l-403 1443h82l356 -1306h5l379 1306h74l380 -1306h5l355 1306h83l-403 -1443h-70l-384 1295h-5z" />
<glyph unicode="X" horiz-adv-x="1215" d="M558 722v2l-514 719h95l469 -658h2l471 658h92l-518 -721v-2l515 -720h-95l-468 656h-2l-471 -656h-92z" />
<glyph unicode="Y" horiz-adv-x="1172" d="M547 0v629l-525 814h93l469 -733h5l469 733h92l-524 -814v-629h-79z" />
<glyph unicode="Z" horiz-adv-x="1173" d="M71 62l925 1303v5h-896v73h997v-62l-923 -1303v-5h928v-73h-1031v62z" />
<glyph unicode="[" horiz-adv-x="580" d="M532 1443v-65h-294v-1549h308v-65h-384v1679h370z" />
<glyph unicode="\" horiz-adv-x="518" d="M0 1443h72l446 -1774h-70z" />
<glyph unicode="]" horiz-adv-x="580" d="M419 -236h-384v65h308v1549h-294v65h370v-1679z" />
<glyph unicode="^" horiz-adv-x="782" d="M133 823h-80l301 603h75l300 -603h-79l-256 518h-6z" />
<glyph unicode="_" horiz-adv-x="807" d="M-63 -205v63h933v-63h-933z" />
<glyph unicode="`" horiz-adv-x="758" d="M479 1253l-249 303h93l230 -303h-74z" />
<glyph unicode="a" horiz-adv-x="1030" d="M453 55q81 0 151.5 27t123 73.5t82.5 109t30 134.5v161l-359 -27q-155 -11 -236 -72.5t-81 -170.5q0 -51 21.5 -94.5t60 -74.5t91.5 -48.5t116 -17.5zM443 -14q-79 0 -144.5 22t-113 62.5t-73.5 96t-26 123.5q0 139 97 216.5t288 91.5l369 27v96q0 70 -21 126t-60.5 94 t-96.5 58.5t-130 20.5q-138 0 -224 -66.5t-106 -189.5h-75q7 75 39.5 135t85.5 103t124.5 66t156.5 23q88 0 159.5 -25.5t121 -72.5t76.5 -115t27 -152v-726h-75v232h-2q-20 -55 -58.5 -100t-91 -77.5t-115.5 -50.5t-132 -18z" />
<glyph unicode="b" horiz-adv-x="1129" d="M611 -14q-72 0 -136 21t-116.5 60t-91.5 95t-60 126h-3v-288h-75v1506h78v-713h3q20 67 58 122t90 94t116.5 60.5t136.5 21.5q100 0 183.5 -40t143.5 -113t93 -174.5t33 -224.5t-33 -225t-93 -175t-143.5 -113t-183.5 -40zM600 1020q-87 0 -159 -35.5t-124 -99.5 t-81 -152.5t-29 -194.5t29 -194.5t81 -152.5t124 -99.5t158 -35.5t157 35t122 98.5t79 152.5t28 197t-28 196.5t-78.5 151.5t-121.5 98t-157 35z" />
<glyph unicode="c" horiz-adv-x="1028" d="M892 753q-12 58 -42 107t-76 84.5t-105.5 55.5t-129.5 20q-91 0 -164 -34t-124.5 -97t-79.5 -152t-28 -199q0 -111 28 -200t79.5 -151.5t125 -96.5t164.5 -34q69 0 128 18.5t104.5 52.5t76 82t42.5 106h78q-12 -73 -48.5 -133.5t-92.5 -104t-129.5 -67.5t-158.5 -24 q-108 0 -196 38.5t-150 110.5t-95.5 174t-33.5 229q0 126 33.5 228.5t95.5 174.5t149.5 111t195.5 39q87 0 160.5 -26t129.5 -71.5t92 -107.5t48 -133h-77z" />
<glyph unicode="d" horiz-adv-x="1136" d="M525 -14q-101 0 -185.5 40t-145.5 113t-95 174.5t-34 224.5t34 225t94.5 175t145 113t185.5 40q75 0 140.5 -23t118 -63t89.5 -94.5t55 -117.5h2v713h78v-1506h-73v290h-3q-19 -65 -56.5 -121t-90 -96.5t-118.5 -63.5t-141 -23zM534 1020q-86 0 -158 -35t-123.5 -98 t-80 -151.5t-28.5 -196.5t28.5 -197t80 -152.5t123.5 -98.5t158 -35q87 0 159.5 35.5t125 99t82 152t29.5 195.5t-29.5 195.5t-82 152.5t-125 99t-159.5 35z" />
<glyph unicode="e" horiz-adv-x="1062" d="M536 1021q-84 0 -154 -31t-121 -87t-81.5 -135.5t-34.5 -175.5h773q0 96 -28 175t-78.5 135.5t-120.5 87.5t-155 31zM984 301q-13 -68 -50 -126t-93.5 -100t-131.5 -65.5t-164 -23.5q-110 0 -198.5 37.5t-151 108.5t-96.5 173t-34 232q0 125 34 227.5t95.5 175t148.5 112 t194 39.5q104 0 189 -37t145 -105.5t93 -164.5t33 -213v-45h-853v-4q0 -110 29 -196.5t81.5 -146.5t126.5 -91.5t165 -31.5q74 0 135 18.5t107 51t75.5 77.5t41.5 98h79z" />
<glyph unicode="f" horiz-adv-x="536" d="M171 1009h-150v68h150v153q0 132 62.5 191t175.5 59q49 0 79 -9v-68q-33 9 -75 9q-77 0 -120.5 -42.5t-43.5 -144.5v-148h231v-68h-231v-1009h-78v1009z" />
<glyph unicode="g" horiz-adv-x="1119" d="M529 59q87 0 159.5 35t124 98.5t80.5 152t29 194.5t-29 194.5t-80.5 152.5t-124 99t-159.5 35q-86 0 -157 -35t-121.5 -98.5t-78.5 -152t-28 -195.5t28 -195.5t78.5 -151.5t121.5 -98t157 -35zM545 -361q-86 0 -158 18t-126 50.5t-88.5 78t-45.5 101.5h81 q10 -39 38.5 -72t73 -57t103 -37t127.5 -13q82 0 150.5 20t118 58t76.5 92.5t27 123.5v285h-2q-18 -63 -55 -118t-89 -95t-117 -63t-139 -23q-102 0 -185.5 40t-143.5 112.5t-93 174t-33 224.5t33 225t93 174.5t144 112.5t186 40q74 0 139 -23t117.5 -63.5t90 -96 t56.5 -119.5h3v288h73v-1070q0 -87 -33.5 -155.5t-93.5 -116t-143.5 -72t-184.5 -24.5z" />
<glyph unicode="h" horiz-adv-x="1095" d="M129 1506h78v-666h3q19 57 54 103t84 79t109 51t128 18q88 0 161.5 -28.5t125.5 -80t81 -125t29 -163.5v-694h-77v685q0 78 -24 140t-68.5 105.5t-106.5 66.5t-137 23q-80 0 -146.5 -28t-114.5 -78t-74.5 -120.5t-26.5 -154.5v-639h-78v1506z" />
<glyph unicode="i" horiz-adv-x="336" d="M129 1077h78v-1077h-78v1077zM168 1341q-26 0 -44 17.5t-18 43.5t18 44t44 18t44.5 -18t18.5 -44t-18.5 -43.5t-44.5 -17.5z" />
<glyph unicode="j" horiz-adv-x="336" d="M207 -80q0 -74 -17.5 -126t-52 -85t-87 -48.5t-121.5 -15.5h-30v69h27q106 0 154.5 47t48.5 155v1161h78v-1157zM168 1341q-26 0 -44 17.5t-18 43.5t18 44t44 18t44.5 -18t18.5 -44t-18.5 -43.5t-44.5 -17.5z" />
<glyph unicode="k" horiz-adv-x="938" d="M817 1077h102l-507 -464l511 -613h-95l-474 565l-147 -132v-433h-78v1506h78v-982h1z" />
<glyph unicode="l" horiz-adv-x="336" d="M129 1506h78v-1506h-78v1506z" />
<glyph unicode="m" horiz-adv-x="1645" d="M119 1077h73v-237h3q15 54 43.5 100t70 79.5t94.5 52.5t116 19q64 0 118 -20t95.5 -54.5t70 -81t40.5 -100.5h2q14 52 44.5 98.5t74.5 81.5t100.5 55.5t122.5 20.5q78 0 141.5 -26t108.5 -73.5t70 -115.5t25 -152v-724h-78v707q0 73 -19.5 131t-56 98.5t-89.5 62 t-119 21.5q-68 0 -124.5 -26t-97 -72.5t-62.5 -111.5t-22 -143v-667h-77v710q0 70 -21 127.5t-58.5 98t-89.5 62.5t-113 22q-68 0 -124.5 -27t-97.5 -76.5t-63.5 -119.5t-22.5 -156v-641h-78v1077z" />
<glyph unicode="n" horiz-adv-x="1080" d="M119 1077h73v-237h3q19 57 54 103t83.5 79t108.5 51t129 18q89 0 162 -28t125.5 -79.5t81 -124.5t28.5 -164v-695h-78v686q0 78 -24 140t-68.5 105t-106.5 66t-137 23q-79 0 -144.5 -27.5t-112.5 -78t-73 -120t-26 -153.5v-641h-78v1077z" />
<glyph unicode="o" horiz-adv-x="1089" d="M544 -14q-108 0 -196 38.5t-151 110.5t-97.5 174t-34.5 229t34.5 229.5t97.5 174.5t151.5 110.5t195.5 38.5q108 0 196.5 -38.5t151.5 -110.5t97.5 -174.5t34.5 -229.5t-34.5 -229t-97.5 -174t-151.5 -110.5t-196.5 -38.5zM544 56q91 0 165 33.5t126.5 96.5t81 152 t28.5 200q0 112 -28.5 201t-81 151.5t-126.5 96t-165 33.5t-165 -33.5t-126.5 -96t-81 -151.5t-28.5 -201q0 -111 28.5 -200.5t81 -152t126.5 -96t165 -33.5z" />
<glyph unicode="p" horiz-adv-x="1119" d="M598 1091q101 0 185 -40t144 -113t93.5 -175t33.5 -225t-33 -225t-93 -174.5t-144 -112.5t-185 -40q-75 0 -140 23t-116.5 63t-88 94.5t-54.5 117.5h-3v-629h-78v1422h73v-288h3q18 64 55.5 119.5t90 96t118 63.5t139.5 23zM589 56q86 0 157 35t122 98.5t79 152t28 196.5 t-28 196.5t-79 152t-122 98.5t-157 35q-87 0 -159 -35t-123.5 -99t-80.5 -152.5t-29 -195.5t29 -195.5t80.5 -152t123.5 -99t159 -35.5z" />
<glyph unicode="q" horiz-adv-x="1126" d="M524 1091q75 0 141 -23t119 -63.5t90.5 -95.5t56.5 -120h3v288h73v-1422h-78v629h-2q-18 -63 -55.5 -117.5t-90 -94.5t-118 -63t-140.5 -23q-101 0 -185 40t-145 112.5t-94.5 174.5t-33.5 225t33.5 225t94.5 175t145.5 113t185.5 40zM532 56q87 0 160 35.5t125.5 99 t82 152t29.5 195.5q0 106 -29.5 195t-82 152.5t-125.5 99t-160 35.5q-86 0 -157.5 -35t-122.5 -98.5t-79.5 -152t-28.5 -196.5t28.5 -196.5t79.5 -152t122.5 -98.5t157.5 -35z" />
<glyph unicode="r" horiz-adv-x="614" d="M119 1077h73v-213h3q32 111 106 169t183 58q29 0 56 -6t42 -12v-78q-17 8 -46 15t-64 7q-63 0 -114 -26t-87 -72t-55 -110t-19 -140v-669h-78v1077z" />
<glyph unicode="s" horiz-adv-x="923" d="M94 801q0 64 28.5 117.5t78.5 91.5t117.5 59.5t145.5 21.5q81 0 148.5 -23t117.5 -65.5t80 -102.5t36 -133h-76q-6 56 -29.5 103t-63 81t-93.5 53t-121 19q-60 0 -113.5 -16t-93 -45t-63 -69t-23.5 -89q0 -80 55.5 -125.5t170.5 -72.5l167 -41q80 -20 137 -45t93 -59 t53 -77.5t17 -98.5q0 -67 -29.5 -122t-82.5 -94.5t-126 -61t-160 -21.5t-159.5 24.5t-126 67.5t-85 101t-35.5 125h78q5 -53 31.5 -99t70 -80t101.5 -53t127 -19q67 0 125.5 16t101.5 46t67.5 72t24.5 93q0 42 -13.5 75t-43.5 59t-76.5 46t-112.5 36l-173 42 q-137 33 -205 95.5t-68 167.5z" />
<glyph unicode="t" horiz-adv-x="551" d="M256 1354v-277h224v-68h-224v-762q0 -97 37.5 -138.5t118.5 -41.5h15t27.5 0.5t26.5 1t13 0.5v-69q-2 0 -15 -0.5t-28.5 -1t-30 -0.5h-18.5q-59 0 -101 13.5t-69 43t-40 76.5t-13 114v764h-158v68h158v277h77z" />
<glyph unicode="u" horiz-adv-x="1080" d="M960 0h-72v235h-3q-18 -54 -54.5 -100t-87 -79t-111.5 -51.5t-128 -18.5q-87 0 -159 27.5t-123.5 78.5t-80 123.5t-28.5 162.5v699h78v-687q0 -80 23.5 -142t66.5 -104.5t104 -65t135 -22.5q77 0 143.5 26.5t115 76t76.5 119t28 155.5v644h77v-1077z" />
<glyph unicode="v" horiz-adv-x="918" d="M505 0h-92l-406 1077h83l368 -998h2l369 998h82z" />
<glyph unicode="w" horiz-adv-x="1430" d="M1108 0h-91l-301 976h-2l-301 -976h-91l-314 1077h82l277 -990h3l301 990h88l301 -990h3l277 990h82z" />
<glyph unicode="x" horiz-adv-x="897" d="M447 485l-347 -485h-90l395 546l-394 531h92l345 -471h3l344 471h92l-394 -529l392 -548h-90l-346 485h-2z" />
<glyph unicode="y" horiz-adv-x="919" d="M186 -354q-15 0 -30.5 3.5t-23.5 5.5v69q9 -3 25 -5.5t31 -2.5q36 0 65 11t53 34.5t44.5 61.5t41.5 92l27 70l-412 1092h83l369 -1001h2l369 1001h82l-417 -1111q-36 -97 -67.5 -159t-66 -98t-76.5 -49.5t-99 -13.5z" />
<glyph unicode="z" horiz-adv-x="928" d="M66 65l704 942v2h-704v68h795v-66l-705 -941v-2h706v-68h-796v65z" />
<glyph unicode="{" horiz-adv-x="694" d="M184 615q88 -8 128 -63t40 -166v-395q0 -237 250 -237h65v-67h-50q-90 0 -154.5 18.5t-105.5 57.5t-60.5 100t-19.5 147v336q0 62 -9 104.5t-29.5 69t-54 38t-81.5 11.5v113q48 0 81 11.5t54 38t30 69.5t9 106v284q0 84 19 143.5t60 97.5t105.5 55.5t155.5 17.5h50v-66 h-65q-130 0 -190 -57.5t-60 -180.5v-335q0 -110 -40 -165.5t-128 -63.5v-22v0z" />
<glyph unicode="|" horiz-adv-x="355" d="M143 -330v1773h69v-1773h-69z" />
<glyph unicode="}" horiz-adv-x="694" d="M510 637q-88 8 -128 63.5t-40 165.5v335q0 124 -60 181t-191 57h-65v66h51q91 0 155.5 -17.5t105.5 -55.5t60 -97.5t19 -143.5v-284q0 -63 9 -106t29.5 -69.5t54 -38t82.5 -11.5v-113q-49 0 -82.5 -11.5t-54 -38t-29.5 -69t-9 -104.5v-336q0 -86 -19.5 -147t-60.5 -100 t-105.5 -57.5t-154.5 -18.5h-51v67h65q251 0 251 237v395q0 111 40 166t128 63v22z" />
<glyph unicode="~" horiz-adv-x="1192" d="M563 668q-34 32 -60 53.5t-47.5 34t-41 18t-40.5 5.5q-36 0 -66 -15.5t-51.5 -44t-34 -69.5t-13.5 -91h-73q0 66 16.5 120.5t48 92.5t76 59t98.5 21q28 0 53.5 -6t52.5 -20.5t57.5 -38t69.5 -59.5q32 -30 59 -50.5t51 -34t45.5 -19.5t43.5 -6q36 0 67.5 17t55 47.5 t37.5 72.5t16 92h74q0 -65 -19 -120.5t-52 -96t-79 -63.5t-100 -23q-32 0 -59.5 5.5t-55 20t-59 38.5t-70.5 60z" />
<glyph unicode="&#xa1;" horiz-adv-x="510" d="M217 679h76l3 -1017h-82zM255 974q-29 0 -50 21t-21 50q0 30 21 50.5t50 20.5q30 0 50.5 -20.5t20.5 -50.5q0 -29 -20.5 -50t-50.5 -21z" />
<glyph unicode="&#xa2;" horiz-adv-x="1192" d="M1083 478q-11 -73 -49 -132.5t-95 -102.5t-129.5 -68.5t-153.5 -29.5v-213h-77v213q-102 7 -188.5 48t-149 112t-98 170.5t-35.5 223.5q0 123 35.5 222t98.5 170.5t149 112.5t188 47v199h77v-198q81 -5 154 -31.5t130.5 -71t95.5 -105.5t49 -134h-79q-12 63 -47.5 113.5 t-87.5 86t-117 54.5t-137 19q-92 0 -170.5 -33.5t-136.5 -96t-91 -152.5t-33 -202q0 -113 33 -203t90.5 -153t136.5 -96.5t171 -33.5q71 0 136.5 17.5t117.5 51t87.5 83t46.5 113.5h78v0z" />
<glyph unicode="&#xa3;" horiz-adv-x="1192" d="M1131 70v-70h-1065v71q72 18 136.5 48.5t113 74t77 101.5t28.5 133q0 66 -17 128.5t-40 125.5h-264v67h239q-30 80 -55 163t-25 175q0 87 30.5 158.5t89.5 122t145 78.5t196 28q55 0 104.5 -5.5t90.5 -13.5t73 -19t52 -21v-74q-42 23 -125.5 42t-190.5 19q-94 0 -166 -23 t-120.5 -65t-73.5 -100t-25 -128q0 -90 25.5 -173t56.5 -164h469v-67h-444q22 -62 37.5 -124.5t15.5 -128.5q0 -77 -26.5 -136t-67.5 -102t-90.5 -72t-96.5 -45v-4h913z" />
<glyph unicode="&#xa4;" horiz-adv-x="1192" d="M282 655q0 -65 24.5 -122.5t67.5 -100.5t100.5 -67.5t122.5 -24.5t122 25t100 68t67.5 100t24.5 122t-24.5 122.5t-67.5 100.5t-100 68t-122 25t-122.5 -25t-100.5 -68t-67.5 -100.5t-24.5 -122.5zM889 898q41 -50 64 -112t23 -131t-23 -130.5t-65 -111.5l167 -167 l-50 -50l-167 167q-50 -41 -111 -64t-130 -23t-130.5 23t-110.5 64l-168 -167l-51 50l168 168q-41 50 -64 111t-23 130t23 130.5t64 111.5l-168 167l51 50l166 -167q50 42 112 65t131 23t130 -22.5t111 -64.5l167 166l50 -50z" />
<glyph unicode="&#xa5;" horiz-adv-x="1192" d="M637 363v-363h-80v363h-341v66h341v208h-341v65h308l-492 741h93l470 -711h4l469 711h92l-490 -741h306v-65h-339v-208h339v-66h-339z" />
<glyph unicode="&#xa6;" horiz-adv-x="356" d="M143 752v691h70v-691h-70zM143 -330v695h70v-695h-70z" />
<glyph unicode="&#xa7;" horiz-adv-x="953" d="M503 337q64 1 117.5 18.5t92.5 48.5t60.5 74t21.5 94q0 88 -63.5 142t-201.5 85l-78 17q-64 -1 -118 -18.5t-93 -49t-60.5 -74t-21.5 -93.5q0 -87 64 -141.5t202 -85.5zM482 -240q-81 0 -149 19.5t-119 55t-82.5 85.5t-37.5 110h78q7 -45 33 -82.5t67 -63.5t95.5 -40.5 t117.5 -14.5t116.5 16t92.5 44t61 67t22 85q0 81 -61 132.5t-194 82.5l-113 27q-170 40 -249.5 109t-79.5 178q0 52 18 96.5t52.5 79.5t83.5 59t111 36v6q-125 37 -184 100.5t-59 160.5q0 62 27.5 114.5t76.5 90.5t116.5 59t148.5 21q80 0 147.5 -19t118 -54t81.5 -84.5 t38 -109.5h-77q-7 45 -32.5 81.5t-66 62.5t-94 40t-116.5 14t-116.5 -15.5t-92 -44t-60 -67.5t-21.5 -85q0 -81 60.5 -132.5t192.5 -82.5l113 -27q170 -40 249 -109t79 -176q0 -53 -19 -98.5t-55 -81.5t-86.5 -61t-113.5 -36v-6q130 -32 191.5 -94.5t61.5 -162.5 q0 -62 -27.5 -114t-77 -90t-117.5 -59.5t-149 -21.5z" />
<glyph unicode="&#xa8;" horiz-adv-x="758" d="M227 1256q-28 0 -48 19.5t-20 47.5q0 27 20 46.5t48 19.5q27 0 47 -19.5t20 -46.5q0 -28 -20 -47.5t-47 -19.5zM531 1256q-27 0 -47 19.5t-20 47.5q0 27 20 46.5t47 19.5q28 0 48 -19.5t20 -46.5q0 -28 -20 -47.5t-48 -19.5z" />
<glyph unicode="&#xa9;" horiz-adv-x="1732" d="M866 -145q-108 0 -207 26.5t-184.5 75.5t-155.5 118.5t-119.5 155.5t-76.5 185.5t-27 209.5t27 210t76.5 186t119.5 155t155.5 118t184.5 75.5t207 26.5t207.5 -26.5t185 -75.5t155 -118t119 -155t76.5 -186t27 -210t-27 -209.5t-76.5 -185.5t-119 -155.5t-155 -118.5 t-185 -75.5t-207.5 -26.5zM866 -78q99 0 189.5 24t168.5 69t141.5 108t108.5 141.5t69.5 169.5t24.5 192q0 152 -54 281t-148.5 223t-223 147t-276.5 53q-147 0 -275.5 -53t-223 -147t-149 -223t-54.5 -281q0 -101 24.5 -192t70 -169.5t109 -141.5t141.5 -108t168.5 -69 t188.5 -24zM1150 795q-11 42 -35.5 79t-60.5 64.5t-84 43t-106 15.5q-70 0 -129.5 -25t-102.5 -72t-67.5 -114.5t-24.5 -153.5q0 -87 24 -155.5t67.5 -116t102.5 -73t130 -25.5q60 0 108 14.5t84 40t59 60.5t33 77h69q-11 -56 -39.5 -102.5t-73.5 -80.5t-105 -52.5 t-134 -18.5q-86 0 -158 30t-124.5 85.5t-82 135.5t-29.5 181q0 100 29.5 179t81.5 134t124 84.5t158 29.5q73 0 134 -21.5t106.5 -57.5t74.5 -84t39 -101h-68z" />
<glyph unicode="&#xaa;" horiz-adv-x="879" d="M182 828q0 -42 16.5 -76t46 -58.5t70.5 -38t91 -13.5q61 0 114 20.5t93 55.5t63 82t23 100v136l-274 -22q-119 -10 -181 -57t-62 -129zM391 581q-63 0 -114.5 17.5t-88 50t-57 77.5t-20.5 100q0 109 76.5 171t225.5 73l285 22v83q0 51 -16.5 91.5t-48 69t-76 43.5 t-100.5 15q-53 0 -95 -12.5t-72.5 -34t-49.5 -51.5t-26 -65h-70q7 48 31 89t64 71.5t95 47.5t125 17q72 0 129 -19.5t97 -56t61.5 -88.5t21.5 -117v-585h-67v174h-6q-17 -41 -47.5 -74.5t-70 -57.5t-87.5 -37.5t-99 -13.5z" />
<glyph unicode="&#xab;" horiz-adv-x="1185" d="M666 563l366 -408h-95l-370 410v5l370 409h95l-366 -408v-8zM252 563l366 -408h-95l-370 410v5l370 409h95l-366 -408v-8z" />
<glyph unicode="&#xac;" horiz-adv-x="1192" d="M1076 170h-70v468h-890v69h960v-537z" />
<glyph unicode="&#xae;" horiz-adv-x="1207" d="M603 514q-101 0 -188.5 37.5t-153 102.5t-103 152.5t-37.5 188.5q0 100 37.5 188t102.5 152.5t153 102t189 37.5t189 -37.5t153.5 -102t103 -152.5t37.5 -188q0 -101 -37.5 -188.5t-103 -152.5t-153.5 -102.5t-189 -37.5zM603 569q90 0 168 33t135 90.5t90 135t33 167.5 t-33 167.5t-90 134.5t-135 90t-168 33q-89 0 -166.5 -33t-135 -90t-90.5 -134.5t-33 -167.5t33 -167.5t90.5 -135t135 -90.5t166.5 -33zM421 756v511h197q36 0 66.5 -10.5t53 -30.5t35.5 -48.5t13 -65.5q0 -32 -10 -58t-26.5 -44.5t-39 -30.5t-46.5 -15l148 -208h-66 l-141 200h-131v-200h-53zM474 1002h131q63 0 95 31t32 79t-32.5 77.5t-94.5 29.5h-131v-217z" />
<glyph unicode="&#xaf;" horiz-adv-x="856" d="M726 1308h-596v58h596v-58z" />
<glyph unicode="&#xb0;" horiz-adv-x="591" d="M295 998q-46 0 -86.5 17.5t-70.5 47.5t-47.5 70.5t-17.5 86.5t17.5 86.5t47.5 71t70.5 48t86.5 17.5t86.5 -17.5t71 -48t48 -71t17.5 -86.5t-17.5 -86.5t-48 -70.5t-71 -47.5t-86.5 -17.5zM295 1059q34 0 63.5 13t51.5 34.5t35 51t13 62.5q0 34 -13 63.5t-35 51.5 t-51.5 34.5t-63.5 12.5q-33 0 -62.5 -12.5t-51.5 -34.5t-35 -51.5t-13 -63.5q0 -33 13 -62.5t35 -51.5t51.5 -34.5t62.5 -12.5z" />
<glyph unicode="&#xb1;" horiz-adv-x="1192" d="M106 113v69h980v-69h-980zM631 332h-70v350h-455v66h455v332h70v-332h455v-66h-455v-350z" />
<glyph unicode="&#xb2;" horiz-adv-x="565" d="M63 1591q0 43 16.5 80t45.5 63t69 41t88 15q46 0 85.5 -14t68 -38.5t44.5 -59t16 -74.5q0 -26 -7 -50t-22.5 -50.5t-41.5 -57.5t-65 -70l-193 -202v-2h348v-61h-449v52l245 251q32 34 53.5 60t34.5 47.5t18.5 40t5.5 38.5q0 28 -10.5 51.5t-30 41t-46 27t-57.5 9.5 t-57.5 -10.5t-46 -28.5t-31 -43.5t-11.5 -55.5v-2h-70v2v0z" />
<glyph unicode="&#xb3;" horiz-adv-x="572" d="M198 1484h78q66 0 106.5 34.5t40.5 90.5q0 25 -10.5 47.5t-30 38.5t-46 25.5t-57.5 9.5t-57 -9t-45.5 -25.5t-31 -39t-13.5 -49.5h-69q2 40 19 74t45.5 58t68 37.5t86.5 13.5q46 0 84.5 -13t67 -36t44.5 -55t16 -69q0 -62 -37.5 -104t-102.5 -53v-3q78 -5 123 -49.5 t45 -113.5q0 -42 -18 -78t-49.5 -62t-76 -40.5t-96.5 -14.5q-51 0 -93.5 14t-73 39.5t-48 60t-18.5 75.5h71q1 -27 13.5 -50t33.5 -40.5t50.5 -27t64.5 -9.5q36 0 66.5 10.5t52 28.5t34 42.5t12.5 53.5q0 61 -44.5 96t-125.5 35h-79v57z" />
<glyph unicode="&#xb4;" horiz-adv-x="758" d="M205 1253l230 303h93l-249 -303h-74z" />
<glyph unicode="&#xb6;" horiz-adv-x="1165" d="M663 -162v737h-20q-105 0 -192 32.5t-149.5 90.5t-97.5 136.5t-35 171.5q0 97 34 177.5t96 138.5t149.5 89.5t195.5 31.5h98v-1605h-79zM917 1443h79v-1605h-79v1605z" />
<glyph unicode="&#xb7;" horiz-adv-x="496" d="M248 528q-29 0 -49.5 20.5t-20.5 49.5t20.5 49.5t49.5 20.5t49.5 -20.5t20.5 -49.5t-20.5 -49.5t-49.5 -20.5z" />
<glyph unicode="&#xb8;" horiz-adv-x="758" d="M266 -150l67 157l60 -7l-58 -141q97 0 152 -40.5t55 -111.5q0 -38 -16 -69t-44.5 -53.5t-68.5 -35t-88 -12.5q-35 -1 -69.5 3.5t-58.5 12.5v56q21 -8 54.5 -12.5t67.5 -4.5t63 8.5t50.5 23.5t33.5 36t12 45q0 50 -41 76t-119 26h-52v43z" />
<glyph unicode="&#xb9;" horiz-adv-x="434" d="M237 1709h-3l-178 -118v70l178 118h74v-668h-71v598z" />
<glyph unicode="&#xba;" horiz-adv-x="970" d="M180 1016q0 -87 21.5 -155.5t61.5 -116.5t96 -73.5t125 -25.5q70 0 126.5 25.5t96.5 73.5t61.5 117t21.5 155q0 87 -21.5 156.5t-61.5 117.5t-96.5 74t-126.5 26q-69 0 -125 -26t-96 -74t-61.5 -117.5t-21.5 -156.5zM484 580q-86 0 -156 30.5t-119 87t-75.5 137 t-26.5 181.5t27 182.5t76 138.5t118.5 87.5t155.5 30.5t156 -30.5t119.5 -87.5t76.5 -138.5t27 -182.5t-27 -181.5t-76.5 -137t-119.5 -87t-156 -30.5z" />
<glyph unicode="&#xbb;" horiz-adv-x="1185" d="M153 979h95l370 -409v-5l-370 -410h-95l365 408v8zM567 979h94l371 -409v-5l-371 -410h-94l365 408v8z" />
<glyph unicode="&#xbc;" horiz-adv-x="1394" d="M1185 150h-339v65q31 49 63.5 100t70 105.5t80 115.5t92.5 132h105v-457h99v-61h-99v-150h-72v150zM916 210h271v399h-2q-86 -120 -151 -216.5t-118 -181.5v-1zM240 1373h-3l-178 -118v70l178 118h74v-668h-71v598zM89 1l1075 1443h85l-1075 -1443h-85z" />
<glyph unicode="&#xbd;" horiz-adv-x="1409" d="M912 480q0 43 16.5 80t45.5 63t69 41t88 15q46 0 85.5 -14t68 -38.5t44.5 -59t16 -74.5q0 -26 -7 -50t-22.5 -50.5t-41.5 -57.5t-65 -70l-193 -202v-2h348v-61h-449v52l245 251q32 34 53.5 60t34.5 47.5t18.5 40t5.5 38.5q0 28 -10.5 51.5t-30 41t-46 27t-57.5 9.5 t-57.5 -10.5t-46 -28.5t-31 -43.5t-11.5 -55.5v-2h-70v2zM240 1373h-3l-178 -118v70l178 118h74v-668h-71v598zM89 1l1075 1443h85l-1075 -1443h-85z" />
<glyph unicode="&#xbe;" horiz-adv-x="1460" d="M191 1148h78q66 0 106.5 34.5t40.5 90.5q0 25 -10.5 47.5t-30 38.5t-46 25.5t-57.5 9.5t-57 -9t-45.5 -25.5t-31 -39t-13.5 -49.5h-69q2 40 19 74t45.5 58t68 37.5t86.5 13.5q46 0 84.5 -13t67 -36t44.5 -55t16 -69q0 -62 -37.5 -104t-102.5 -53v-3q78 -5 123 -49.5 t45 -113.5q0 -42 -18 -78t-49.5 -62t-76 -40.5t-96.5 -14.5q-51 0 -93.5 14t-73 39.5t-48 60t-18.5 75.5h71q1 -27 13.5 -50t33.5 -40.5t50.5 -27t64.5 -9.5q36 0 66.5 10.5t52 28.5t34 42.5t12.5 53.5q0 61 -44.5 96t-125.5 35h-79v57zM1252 150h-339v65q31 49 63.5 100 t70 105.5t80 115.5t92.5 132h105v-457h99v-61h-99v-150h-72v150zM983 210h271v399h-2q-86 -120 -151 -216.5t-118 -181.5v-1zM185 1l1075 1443h85l-1075 -1443h-85z" />
<glyph unicode="&#xbf;" horiz-adv-x="931" d="M871 2q-5 -78 -35.5 -145t-82.5 -115.5t-123 -76.5t-156 -28t-156.5 27t-123.5 74.5t-81.5 112.5t-29.5 141q0 51 12.5 95.5t38.5 85t66 78.5t96 77q51 36 85 66t53.5 61t27.5 65.5t8 78.5v90h78v-98q0 -50 -10 -90t-32.5 -76t-59.5 -70.5t-91 -73.5q-51 -37 -87.5 -71 t-59.5 -68.5t-33.5 -70.5t-10.5 -76q0 -63 24 -115.5t66 -91t99 -59.5t123 -21q65 0 120.5 21t97.5 59.5t68.5 92.5t32.5 121h76zM501 974q-29 0 -49.5 21t-20.5 50q0 30 20.5 50.5t49.5 20.5q30 0 50.5 -20.5t20.5 -50.5q0 -29 -20.5 -50t-50.5 -21z" />
<glyph unicode="&#xc0;" horiz-adv-x="1221" d="M935 481h-649l-179 -481h-86l550 1443h80l549 -1443h-85zM312 552h598l-297 788h-5zM283 1843h95l280 -290h-78z" />
<glyph unicode="&#xc1;" horiz-adv-x="1221" d="M935 481h-649l-179 -481h-86l550 1443h80l549 -1443h-85zM312 552h598l-297 788h-5zM565 1553l279 290h96l-297 -290h-78z" />
<glyph unicode="&#xc2;" horiz-adv-x="1221" d="M935 481h-649l-179 -481h-86l550 1443h80l549 -1443h-85zM312 552h598l-297 788h-5zM645 1843l271 -290h-83l-221 238h-2l-221 -238h-83l271 290h68z" />
<glyph unicode="&#xc3;" horiz-adv-x="1221" d="M935 481h-649l-179 -481h-86l550 1443h80l549 -1443h-85zM312 552h598l-297 788h-5zM746 1549q-32 0 -58 12t-47.5 30.5t-40 39.5t-37.5 39.5t-39.5 30.5t-45.5 12q-48 0 -69.5 -42t-21.5 -111h-60q0 48 9.5 87t28 66.5t46.5 43t66 15.5q33 0 59 -12t48 -30.5t41 -39.5 t37.5 -39.5t39 -30.5t44.5 -12q48 0 68.5 42.5t20.5 111.5h61q0 -47 -9.5 -86.5t-28.5 -67.5t-47 -43.5t-65 -15.5z" />
<glyph unicode="&#xc4;" horiz-adv-x="1221" d="M935 481h-649l-179 -481h-86l550 1443h80l549 -1443h-85zM312 552h598l-297 788h-5zM459 1563q-28 0 -48 19.5t-20 47.5q0 27 20 46.5t48 19.5q27 0 47 -19.5t20 -46.5q0 -28 -20 -47.5t-47 -19.5zM763 1563q-27 0 -47 19.5t-20 47.5q0 27 20 46.5t47 19.5q28 0 48 -19.5 t20 -46.5q0 -28 -20 -47.5t-48 -19.5z" />
<glyph unicode="&#xc5;" horiz-adv-x="1221" d="M935 481h-649l-179 -481h-86l550 1443h80l549 -1443h-85zM312 552h598l-297 788h-5zM611 1506q-36 0 -67 13.5t-54.5 37t-37 55t-13.5 67.5t13.5 67.5t37 55t54.5 37t67 13.5t67 -13.5t54.5 -37t37 -55t13.5 -67.5t-13.5 -67.5t-37 -55t-54.5 -37t-67 -13.5zM611 1554 q26 0 49 10t39.5 27t26 39.5t9.5 48.5t-9.5 48.5t-26 39.5t-39.5 27t-49 10t-49 -10t-39.5 -27t-26 -39.5t-9.5 -48.5t9.5 -48.5t26 -39.5t39.5 -27t49 -10z" />
<glyph unicode="&#xc6;" horiz-adv-x="1900" d="M374 492h625v881h-184zM999 422h-659l-210 -422h-84l722 1443h1021v-73h-712v-597h676v-72h-676v-628h712v-73h-790v422z" />
<glyph unicode="&#xc7;" horiz-adv-x="1326" d="M1190 981q-12 87 -54.5 162t-108 129.5t-149 86t-176.5 31.5q-127 0 -229.5 -46t-174.5 -132t-111 -208t-39 -274q0 -156 39.5 -281t111.5 -213t174.5 -135.5t228.5 -47.5q95 0 179 27t148.5 77.5t106.5 121t54 157.5h79q-12 -100 -57 -182.5t-116 -142t-165 -94 t-203 -38.5l-50 -120q97 0 152 -40.5t55 -111.5q0 -38 -16 -69t-44.5 -53.5t-68.5 -35t-88 -12.5q-35 -1 -69.5 3.5t-58.5 12.5v56q21 -8 54.5 -12.5t67.5 -4.5t63 8.5t50.5 23.5t33.5 36t12 45q0 50 -41 76t-119 26h-52v43l55 130q-137 7 -247.5 62.5t-188 153 t-119.5 232.5t-42 302q0 168 44.5 304t127.5 231.5t200 147t263 51.5q110 0 208 -37t174 -101.5t125 -153t60 -191.5h-79z" />
<glyph unicode="&#xc8;" horiz-adv-x="1068" d="M220 1843h95l280 -290h-78zM969 0h-841v1443h841v-73h-762v-594h726v-72h-726v-631h762v-73z" />
<glyph unicode="&#xc9;" horiz-adv-x="1068" d="M502 1553l279 290h96l-297 -290h-78zM969 0h-841v1443h841v-73h-762v-594h726v-72h-726v-631h762v-73z" />
<glyph unicode="&#xca;" horiz-adv-x="1068" d="M582 1843l271 -290h-83l-221 238h-2l-221 -238h-83l271 290h68zM969 0h-841v1443h841v-73h-762v-594h726v-72h-726v-631h762v-73z" />
<glyph unicode="&#xcb;" horiz-adv-x="1068" d="M396 1563q-28 0 -48 19.5t-20 47.5q0 27 20 46.5t48 19.5q27 0 47 -19.5t20 -46.5q0 -28 -20 -47.5t-47 -19.5zM700 1563q-27 0 -47 19.5t-20 47.5q0 27 20 46.5t47 19.5q28 0 48 -19.5t20 -46.5q0 -28 -20 -47.5t-48 -19.5zM969 0h-841v1443h841v-73h-762v-594h726v-72 h-726v-631h762v-73z" />
<glyph unicode="&#xcc;" horiz-adv-x="335" d="M128 0v1443h79v-1443h-79zM-161 1843h95l280 -290h-78z" />
<glyph unicode="&#xcd;" horiz-adv-x="335" d="M128 0v1443h79v-1443h-79zM121 1553l279 290h96l-297 -290h-78z" />
<glyph unicode="&#xce;" horiz-adv-x="335" d="M128 0v1443h79v-1443h-79zM201 1843l271 -290h-83l-221 238h-2l-221 -238h-83l271 290h68z" />
<glyph unicode="&#xcf;" horiz-adv-x="335" d="M128 0v1443h79v-1443h-79zM15 1563q-28 0 -48 19.5t-20 47.5q0 27 20 46.5t48 19.5q27 0 47 -19.5t20 -46.5q0 -28 -20 -47.5t-47 -19.5zM319 1563q-27 0 -47 19.5t-20 47.5q0 27 20 46.5t47 19.5q28 0 48 -19.5t20 -46.5q0 -28 -20 -47.5t-48 -19.5z" />
<glyph unicode="&#xd0;" horiz-adv-x="1399" d="M573 73q147 0 261 43t192 125.5t118.5 203t40.5 276.5t-40.5 277t-118.5 203.5t-192 125.5t-261 43h-365v-592h358v-73h-358v-632h365zM577 1443q164 0 292 -48.5t216 -140.5t134 -226t46 -306t-46 -306.5t-134 -226.5t-216 -140.5t-292 -48.5h-449v705h-115v73h115v665 h449z" />
<glyph unicode="&#xd1;" horiz-adv-x="1341" d="M806 1549q-32 0 -58 12t-47.5 30.5t-40 39.5t-37.5 39.5t-39.5 30.5t-45.5 12q-48 0 -69.5 -42t-21.5 -111h-60q0 48 9.5 87t28 66.5t46.5 43t66 15.5q33 0 59 -12t48 -30.5t41 -39.5t37.5 -39.5t39 -30.5t44.5 -12q48 0 68.5 42.5t20.5 111.5h61q0 -47 -9.5 -86.5 t-28.5 -67.5t-47 -43.5t-65 -15.5zM128 0v1443h82l919 -1299h6v1299h79v-1443h-75l-927 1307h-6v-1307h-78z" />
<glyph unicode="&#xd2;" horiz-adv-x="1420" d="M382 1843h95l280 -290h-78zM710 1464q147 0 266 -52t203 -148.5t129 -234t45 -307.5q0 -171 -45 -308.5t-128.5 -234t-202.5 -148.5t-267 -52t-267 52t-202.5 148.5t-128.5 234t-45 308.5q0 170 45 307.5t129 234t203 148.5t266 52zM710 1390q-129 0 -232.5 -47 t-177 -134t-113 -210.5t-39.5 -276.5t39.5 -277t113 -211t177.5 -134t232 -47q129 0 232.5 47t177 134t113 211t39.5 277t-39.5 276.5t-113 210.5t-177 134t-232.5 47z" />
<glyph unicode="&#xd3;" horiz-adv-x="1420" d="M664 1553l279 290h96l-297 -290h-78zM710 1464q147 0 266 -52t203 -148.5t129 -234t45 -307.5q0 -171 -45 -308.5t-128.5 -234t-202.5 -148.5t-267 -52t-267 52t-202.5 148.5t-128.5 234t-45 308.5q0 170 45 307.5t129 234t203 148.5t266 52zM710 1390q-129 0 -232.5 -47 t-177 -134t-113 -210.5t-39.5 -276.5t39.5 -277t113 -211t177.5 -134t232 -47q129 0 232.5 47t177 134t113 211t39.5 277t-39.5 276.5t-113 210.5t-177 134t-232.5 47z" />
<glyph unicode="&#xd4;" horiz-adv-x="1420" d="M744 1843l271 -290h-83l-221 238h-2l-221 -238h-83l271 290h68zM710 1464q147 0 266 -52t203 -148.5t129 -234t45 -307.5q0 -171 -45 -308.5t-128.5 -234t-202.5 -148.5t-267 -52t-267 52t-202.5 148.5t-128.5 234t-45 308.5q0 170 45 307.5t129 234t203 148.5t266 52z M710 1390q-129 0 -232.5 -47t-177 -134t-113 -210.5t-39.5 -276.5t39.5 -277t113 -211t177.5 -134t232 -47q129 0 232.5 47t177 134t113 211t39.5 277t-39.5 276.5t-113 210.5t-177 134t-232.5 47z" />
<glyph unicode="&#xd5;" horiz-adv-x="1420" d="M710 1464q147 0 266 -52t203 -148.5t129 -234t45 -307.5q0 -171 -45 -308.5t-128.5 -234t-202.5 -148.5t-267 -52t-267 52t-202.5 148.5t-128.5 234t-45 308.5q0 170 45 307.5t129 234t203 148.5t266 52zM710 1390q-129 0 -232.5 -47t-177 -134t-113 -210.5t-39.5 -276.5 t39.5 -277t113 -211t177.5 -134t232 -47q129 0 232.5 47t177 134t113 211t39.5 277t-39.5 276.5t-113 210.5t-177 134t-232.5 47zM845 1549q-32 0 -58 12t-47.5 30.5t-40 39.5t-37.5 39.5t-39.5 30.5t-45.5 12q-48 0 -69.5 -42t-21.5 -111h-60q0 48 9.5 87t28 66.5t46.5 43 t66 15.5q33 0 59 -12t48 -30.5t41 -39.5t37.5 -39.5t39 -30.5t44.5 -12q48 0 68.5 42.5t20.5 111.5h61q0 -47 -9.5 -86.5t-28.5 -67.5t-47 -43.5t-65 -15.5z" />
<glyph unicode="&#xd6;" horiz-adv-x="1420" d="M558 1563q-28 0 -48 19.5t-20 47.5q0 27 20 46.5t48 19.5q27 0 47 -19.5t20 -46.5q0 -28 -20 -47.5t-47 -19.5zM862 1563q-27 0 -47 19.5t-20 47.5q0 27 20 46.5t47 19.5q28 0 48 -19.5t20 -46.5q0 -28 -20 -47.5t-48 -19.5zM710 1464q147 0 266 -52t203 -148.5t129 -234 t45 -307.5q0 -171 -45 -308.5t-128.5 -234t-202.5 -148.5t-267 -52t-267 52t-202.5 148.5t-128.5 234t-45 308.5q0 170 45 307.5t129 234t203 148.5t266 52zM710 1390q-129 0 -232.5 -47t-177 -134t-113 -210.5t-39.5 -276.5t39.5 -277t113 -211t177.5 -134t232 -47 q129 0 232.5 47t177 134t113 211t39.5 277t-39.5 276.5t-113 210.5t-177 134t-232.5 47z" />
<glyph unicode="&#xd7;" horiz-adv-x="1192" d="M275 208l-50 49l322 322l-322 323l50 50l321 -323l322 321l50 -48l-321 -323l321 -321l-50 -50l-321 322z" />
<glyph unicode="&#xd8;" horiz-adv-x="1420" d="M352 181q70 -63 160 -95.5t198 -32.5q129 0 232.5 47t177 134t113 211t39.5 277q0 146 -35 263t-101 204zM1095 1236q-72 75 -169 114.5t-216 39.5q-129 0 -232.5 -47t-177 -134t-113 -210.5t-39.5 -276.5q0 -158 41.5 -283t118.5 -213zM1187 1254q80 -97 123 -230.5 t43 -301.5q0 -171 -45 -308.5t-128.5 -234t-202.5 -148.5t-267 -52q-123 0 -225 35.5t-182 103.5l-157 -202l-51 37l162 208q-92 97 -141 239t-49 322q0 170 45 307.5t129 234t203 148.5t266 52q134 0 243 -42t191 -122l144 184l50 -35z" />
<glyph unicode="&#xd9;" horiz-adv-x="1332" d="M338 1843h95l280 -290h-78zM207 504q0 -103 32 -186.5t91.5 -142t144.5 -90.5t192 -32q106 0 191.5 32t145 90.5t91.5 142t32 186.5v939h79v-942q0 -118 -37.5 -214.5t-107.5 -164.5t-170 -105.5t-224 -37.5q-125 0 -224.5 37.5t-169.5 105.5t-107.5 164.5t-37.5 214.5 v942h79v-939z" />
<glyph unicode="&#xda;" horiz-adv-x="1332" d="M620 1553l279 290h96l-297 -290h-78zM207 504q0 -103 32 -186.5t91.5 -142t144.5 -90.5t192 -32q106 0 191.5 32t145 90.5t91.5 142t32 186.5v939h79v-942q0 -118 -37.5 -214.5t-107.5 -164.5t-170 -105.5t-224 -37.5q-125 0 -224.5 37.5t-169.5 105.5t-107.5 164.5 t-37.5 214.5v942h79v-939z" />
<glyph unicode="&#xdb;" horiz-adv-x="1332" d="M700 1843l271 -290h-83l-221 238h-2l-221 -238h-83l271 290h68zM207 504q0 -103 32 -186.5t91.5 -142t144.5 -90.5t192 -32q106 0 191.5 32t145 90.5t91.5 142t32 186.5v939h79v-942q0 -118 -37.5 -214.5t-107.5 -164.5t-170 -105.5t-224 -37.5q-125 0 -224.5 37.5 t-169.5 105.5t-107.5 164.5t-37.5 214.5v942h79v-939z" />
<glyph unicode="&#xdc;" horiz-adv-x="1332" d="M514 1563q-28 0 -48 19.5t-20 47.5q0 27 20 46.5t48 19.5q27 0 47 -19.5t20 -46.5q0 -28 -20 -47.5t-47 -19.5zM818 1563q-27 0 -47 19.5t-20 47.5q0 27 20 46.5t47 19.5q28 0 48 -19.5t20 -46.5q0 -28 -20 -47.5t-48 -19.5zM207 504q0 -103 32 -186.5t91.5 -142 t144.5 -90.5t192 -32q106 0 191.5 32t145 90.5t91.5 142t32 186.5v939h79v-942q0 -118 -37.5 -214.5t-107.5 -164.5t-170 -105.5t-224 -37.5q-125 0 -224.5 37.5t-169.5 105.5t-107.5 164.5t-37.5 214.5v942h79v-939z" />
<glyph unicode="&#xdd;" horiz-adv-x="1172" d="M547 0v629l-525 814h93l469 -733h5l469 733h92l-524 -814v-629h-79zM540 1553l279 290h96l-297 -290h-78z" />
<glyph unicode="&#xde;" horiz-adv-x="1209" d="M243 1443v-285h404q97 0 178 -27.5t139 -79.5t90.5 -127t32.5 -170t-32 -169.5t-90 -126t-139 -79t-180 -27.5h-403v-352h-80v1443h80zM243 424h390q87 0 156.5 22.5t118 65.5t74.5 104t26 138q0 76 -26 137.5t-74.5 104.5t-118 66t-156.5 23h-390v-661z" />
<glyph unicode="&#xdf;" horiz-adv-x="1090" d="M134 0v1072q0 89 26 159t75 118.5t119.5 74t159.5 25.5q85 0 156 -24.5t121 -69.5t78 -108t28 -139q0 -64 -20 -121t-55.5 -102t-82.5 -76t-101 -44v-3q82 -8 151.5 -38t120 -78t78.5 -112.5t28 -141.5q0 -89 -33.5 -164t-93 -130t-141.5 -85.5t-179 -30.5q-45 0 -85 3.5 t-85 12.5v72q32 -8 77.5 -13t89.5 -5q79 0 147 25.5t118 70.5t79 107.5t29 136.5q0 73 -30.5 133t-85.5 103t-132.5 66.5t-170.5 23.5h-99v75h96q64 0 119 24.5t96 66.5t64.5 99t23.5 122q0 61 -22 111.5t-62.5 86.5t-96.5 56t-124 20q-71 0 -127.5 -21.5t-96 -61.5 t-60.5 -98t-21 -131v-1067h-76z" />
<glyph unicode="&#xe0;" horiz-adv-x="1030" d="M453 55q81 0 151.5 27t123 73.5t82.5 109t30 134.5v161l-359 -27q-155 -11 -236 -72.5t-81 -170.5q0 -51 21.5 -94.5t60 -74.5t91.5 -48.5t116 -17.5zM443 -14q-79 0 -144.5 22t-113 62.5t-73.5 96t-26 123.5q0 139 97 216.5t288 91.5l369 27v96q0 70 -21 126t-60.5 94 t-96.5 58.5t-130 20.5q-138 0 -224 -66.5t-106 -189.5h-75q7 75 39.5 135t85.5 103t124.5 66t156.5 23q88 0 159.5 -25.5t121 -72.5t76.5 -115t27 -152v-726h-75v232h-2q-20 -55 -58.5 -100t-91 -77.5t-115.5 -50.5t-132 -18zM509 1253l-249 303h93l230 -303h-74z" />
<glyph unicode="&#xe1;" horiz-adv-x="1030" d="M453 55q81 0 151.5 27t123 73.5t82.5 109t30 134.5v161l-359 -27q-155 -11 -236 -72.5t-81 -170.5q0 -51 21.5 -94.5t60 -74.5t91.5 -48.5t116 -17.5zM443 -14q-79 0 -144.5 22t-113 62.5t-73.5 96t-26 123.5q0 139 97 216.5t288 91.5l369 27v96q0 70 -21 126t-60.5 94 t-96.5 58.5t-130 20.5q-138 0 -224 -66.5t-106 -189.5h-75q7 75 39.5 135t85.5 103t124.5 66t156.5 23q88 0 159.5 -25.5t121 -72.5t76.5 -115t27 -152v-726h-75v232h-2q-20 -55 -58.5 -100t-91 -77.5t-115.5 -50.5t-132 -18zM478 1253l230 303h93l-249 -303h-74z" />
<glyph unicode="&#xe2;" horiz-adv-x="1030" d="M453 55q81 0 151.5 27t123 73.5t82.5 109t30 134.5v161l-359 -27q-155 -11 -236 -72.5t-81 -170.5q0 -51 21.5 -94.5t60 -74.5t91.5 -48.5t116 -17.5zM443 -14q-79 0 -144.5 22t-113 62.5t-73.5 96t-26 123.5q0 139 97 216.5t288 91.5l369 27v96q0 70 -21 126t-60.5 94 t-96.5 58.5t-130 20.5q-138 0 -224 -66.5t-106 -189.5h-75q7 75 39.5 135t85.5 103t124.5 66t156.5 23q88 0 159.5 -25.5t121 -72.5t76.5 -115t27 -152v-726h-75v232h-2q-20 -55 -58.5 -100t-91 -77.5t-115.5 -50.5t-132 -18zM831 1253h-80l-217 249h-3l-217 -249h-81 l268 303h62z" />
<glyph unicode="&#xe3;" horiz-adv-x="1030" d="M453 55q81 0 151.5 27t123 73.5t82.5 109t30 134.5v161l-359 -27q-155 -11 -236 -72.5t-81 -170.5q0 -51 21.5 -94.5t60 -74.5t91.5 -48.5t116 -17.5zM443 -14q-79 0 -144.5 22t-113 62.5t-73.5 96t-26 123.5q0 139 97 216.5t288 91.5l369 27v96q0 70 -21 126t-60.5 94 t-96.5 58.5t-130 20.5q-138 0 -224 -66.5t-106 -189.5h-75q7 75 39.5 135t85.5 103t124.5 66t156.5 23q88 0 159.5 -25.5t121 -72.5t76.5 -115t27 -152v-726h-75v232h-2q-20 -55 -58.5 -100t-91 -77.5t-115.5 -50.5t-132 -18zM667 1255q-33 0 -58.5 12t-47 30.5t-40 39.5 t-37.5 39.5t-39.5 30.5t-45.5 12q-48 0 -69.5 -42t-21.5 -111h-60q0 48 9.5 87t28 66.5t46.5 43t66 15.5q33 0 59 -12t48 -30.5t41 -39.5t37.5 -39.5t39 -30.5t44.5 -12q48 0 68.5 42.5t20.5 111.5h61q0 -47 -9.5 -86.5t-28.5 -67.5t-47 -43.5t-65 -15.5z" />
<glyph unicode="&#xe4;" horiz-adv-x="1030" d="M453 55q81 0 151.5 27t123 73.5t82.5 109t30 134.5v161l-359 -27q-155 -11 -236 -72.5t-81 -170.5q0 -51 21.5 -94.5t60 -74.5t91.5 -48.5t116 -17.5zM443 -14q-79 0 -144.5 22t-113 62.5t-73.5 96t-26 123.5q0 139 97 216.5t288 91.5l369 27v96q0 70 -21 126t-60.5 94 t-96.5 58.5t-130 20.5q-138 0 -224 -66.5t-106 -189.5h-75q7 75 39.5 135t85.5 103t124.5 66t156.5 23q88 0 159.5 -25.5t121 -72.5t76.5 -115t27 -152v-726h-75v232h-2q-20 -55 -58.5 -100t-91 -77.5t-115.5 -50.5t-132 -18zM380 1256q-28 0 -48 19.5t-20 47.5 q0 27 20 46.5t48 19.5q27 0 47 -19.5t20 -46.5q0 -28 -20 -47.5t-47 -19.5zM684 1256q-27 0 -47 19.5t-20 47.5q0 27 20 46.5t47 19.5q28 0 48 -19.5t20 -46.5q0 -28 -20 -47.5t-48 -19.5z" />
<glyph unicode="&#xe5;" horiz-adv-x="1030" d="M453 55q81 0 151.5 27t123 73.5t82.5 109t30 134.5v161l-359 -27q-155 -11 -236 -72.5t-81 -170.5q0 -51 21.5 -94.5t60 -74.5t91.5 -48.5t116 -17.5zM443 -14q-79 0 -144.5 22t-113 62.5t-73.5 96t-26 123.5q0 139 97 216.5t288 91.5l369 27v96q0 70 -21 126t-60.5 94 t-96.5 58.5t-130 20.5q-138 0 -224 -66.5t-106 -189.5h-75q7 75 39.5 135t85.5 103t124.5 66t156.5 23q88 0 159.5 -25.5t121 -72.5t76.5 -115t27 -152v-726h-75v232h-2q-20 -55 -58.5 -100t-91 -77.5t-115.5 -50.5t-132 -18zM532 1234q-36 0 -67 13.5t-54.5 37t-37 55 t-13.5 67.5t13.5 67.5t37 55t54.5 37t67 13.5t67 -13.5t54.5 -37t37 -55t13.5 -67.5t-13.5 -67.5t-37 -55t-54.5 -37t-67 -13.5zM532 1282q26 0 49 10t39.5 27t26 39.5t9.5 48.5t-9.5 48.5t-26 39.5t-39.5 27t-49 10t-49 -10t-39.5 -27t-26 -39.5t-9.5 -48.5t9.5 -48.5 t26 -39.5t39.5 -27t49 -10z" />
<glyph unicode="&#xe6;" horiz-adv-x="1830" d="M1318 -14q-155 0 -265.5 77t-160.5 226h-6q-22 -71 -63.5 -127t-97.5 -95t-125 -60t-147 -21q-83 0 -150.5 22t-115.5 61.5t-74.5 94.5t-26.5 122q0 133 96 207.5t285 85.5l373 24v127q0 68 -22 122t-62.5 91.5t-98.5 57t-130 19.5q-69 0 -126 -17.5t-100 -50.5 t-69.5 -80.5t-34.5 -107.5h-76q7 74 39.5 134.5t85.5 103t124 66t156 23.5q75 0 139.5 -19.5t113.5 -56t79.5 -90t37.5 -121.5h6q22 63 60.5 115.5t91 91t118.5 59.5t144 21q103 0 186.5 -36.5t141.5 -103.5t89.5 -161.5t31.5 -211.5v-46h-848v-9q0 -106 28.5 -192.5 t81 -147.5t126.5 -94t166 -33q72 0 131.5 18.5t104 51t74 77.5t41.5 98h79q-14 -68 -50 -126t-91.5 -100t-129 -65.5t-160.5 -23.5zM1312 1021q-85 0 -155.5 -30.5t-122 -86t-82 -133.5t-34.5 -173h768q0 95 -27 173t-75.5 133.5t-117.5 86t-154 30.5zM454 55q81 0 151 27 t122.5 74t82.5 110.5t30 136.5v134l-362 -23q-155 -10 -234.5 -67.5t-79.5 -159.5q0 -51 21 -93.5t59 -73t91.5 -48t118.5 -17.5z" />
<glyph unicode="&#xe7;" horiz-adv-x="1028" d="M892 753q-12 58 -42 107t-76 84.5t-105.5 55.5t-129.5 20q-91 0 -164 -34t-124.5 -97t-79.5 -152t-28 -199q0 -111 28 -200t79.5 -151.5t125 -96.5t164.5 -34q69 0 128 18.5t104.5 52.5t76 82t42.5 106h78q-12 -70 -46 -128.5t-86 -101.5t-120 -68.5t-148 -29.5l-53 -128 q97 0 152 -40.5t55 -111.5q0 -38 -16 -69t-44.5 -53.5t-68.5 -35t-88 -12.5q-35 -1 -69.5 3.5t-58.5 12.5v56q21 -8 54.5 -12.5t67.5 -4.5t63 8.5t50.5 23.5t33.5 36t12 45q0 50 -41 76t-119 26h-52v43l58 137q-101 6 -182.5 47t-138.5 112.5t-88 170.5t-31 221 q0 126 33.5 228.5t95.5 174.5t149.5 111t195.5 39q87 0 160.5 -26t129.5 -71.5t92 -107.5t48 -133h-77z" />
<glyph unicode="&#xe8;" horiz-adv-x="1062" d="M514 1253l-249 303h93l230 -303h-74zM536 1021q-84 0 -154 -31t-121 -87t-81.5 -135.5t-34.5 -175.5h773q0 96 -28 175t-78.5 135.5t-120.5 87.5t-155 31zM984 301q-13 -68 -50 -126t-93.5 -100t-131.5 -65.5t-164 -23.5q-110 0 -198.5 37.5t-151 108.5t-96.5 173 t-34 232q0 125 34 227.5t95.5 175t148.5 112t194 39.5q104 0 189 -37t145 -105.5t93 -164.5t33 -213v-45h-853v-4q0 -110 29 -196.5t81.5 -146.5t126.5 -91.5t165 -31.5q74 0 135 18.5t107 51t75.5 77.5t41.5 98h79z" />
<glyph unicode="&#xe9;" horiz-adv-x="1062" d="M483 1253l230 303h93l-249 -303h-74zM536 1021q-84 0 -154 -31t-121 -87t-81.5 -135.5t-34.5 -175.5h773q0 96 -28 175t-78.5 135.5t-120.5 87.5t-155 31zM984 301q-13 -68 -50 -126t-93.5 -100t-131.5 -65.5t-164 -23.5q-110 0 -198.5 37.5t-151 108.5t-96.5 173 t-34 232q0 125 34 227.5t95.5 175t148.5 112t194 39.5q104 0 189 -37t145 -105.5t93 -164.5t33 -213v-45h-853v-4q0 -110 29 -196.5t81.5 -146.5t126.5 -91.5t165 -31.5q74 0 135 18.5t107 51t75.5 77.5t41.5 98h79z" />
<glyph unicode="&#xea;" horiz-adv-x="1062" d="M836 1253h-80l-217 249h-3l-217 -249h-81l268 303h62zM536 1021q-84 0 -154 -31t-121 -87t-81.5 -135.5t-34.5 -175.5h773q0 96 -28 175t-78.5 135.5t-120.5 87.5t-155 31zM984 301q-13 -68 -50 -126t-93.5 -100t-131.5 -65.5t-164 -23.5q-110 0 -198.5 37.5t-151 108.5 t-96.5 173t-34 232q0 125 34 227.5t95.5 175t148.5 112t194 39.5q104 0 189 -37t145 -105.5t93 -164.5t33 -213v-45h-853v-4q0 -110 29 -196.5t81.5 -146.5t126.5 -91.5t165 -31.5q74 0 135 18.5t107 51t75.5 77.5t41.5 98h79z" />
<glyph unicode="&#xeb;" horiz-adv-x="1062" d="M536 1021q-84 0 -154 -31t-121 -87t-81.5 -135.5t-34.5 -175.5h773q0 96 -28 175t-78.5 135.5t-120.5 87.5t-155 31zM984 301q-13 -68 -50 -126t-93.5 -100t-131.5 -65.5t-164 -23.5q-110 0 -198.5 37.5t-151 108.5t-96.5 173t-34 232q0 125 34 227.5t95.5 175t148.5 112 t194 39.5q104 0 189 -37t145 -105.5t93 -164.5t33 -213v-45h-853v-4q0 -110 29 -196.5t81.5 -146.5t126.5 -91.5t165 -31.5q74 0 135 18.5t107 51t75.5 77.5t41.5 98h79zM385 1256q-28 0 -48 19.5t-20 47.5q0 27 20 46.5t48 19.5q27 0 47 -19.5t20 -46.5q0 -28 -20 -47.5 t-47 -19.5zM689 1256q-27 0 -47 19.5t-20 47.5q0 27 20 46.5t47 19.5q28 0 48 -19.5t20 -46.5q0 -28 -20 -47.5t-48 -19.5z" />
<glyph unicode="&#xec;" horiz-adv-x="336" d="M145 1253l-249 303h93l230 -303h-74zM129 1077h78v-1077h-78v1077z" />
<glyph unicode="&#xed;" horiz-adv-x="336" d="M114 1253l230 303h93l-249 -303h-74zM129 1077h78v-1077h-78v1077z" />
<glyph unicode="&#xee;" horiz-adv-x="336" d="M467 1253h-80l-217 249h-3l-217 -249h-81l268 303h62zM129 1077h78v-1077h-78v1077z" />
<glyph unicode="&#xef;" horiz-adv-x="336" d="M129 1077h78v-1077h-78v1077zM16 1256q-28 0 -48 19.5t-20 47.5q0 27 20 46.5t48 19.5q27 0 47 -19.5t20 -46.5q0 -28 -20 -47.5t-47 -19.5zM320 1256q-27 0 -47 19.5t-20 47.5q0 27 20 46.5t47 19.5q28 0 48 -19.5t20 -46.5q0 -28 -20 -47.5t-48 -19.5z" />
<glyph unicode="&#xf0;" horiz-adv-x="1120" d="M547 -17q-107 0 -194.5 39.5t-150.5 112t-97.5 173.5t-34.5 224q0 114 34.5 210t96 165t147.5 107.5t188 38.5q61 0 117.5 -15.5t105 -44.5t87 -71t64.5 -95h8q-29 134 -87 249.5t-137 198.5l-290 -117l-20 55l267 109q-21 20 -43.5 39t-50 39t-62 41.5t-77.5 47.5h108 q64 -37 109.5 -70.5t83.5 -71.5l267 107l20 -55l-243 -98q248 -283 248 -742q0 -132 -32.5 -238.5t-93 -181.5t-146.5 -115.5t-192 -40.5zM542 983q-86 0 -158.5 -33.5t-124.5 -93t-81 -142t-29 -181.5q0 -107 29 -195t81.5 -151t125.5 -98t162 -35q87 0 158.5 34t122.5 96 t79.5 148.5t28.5 191.5t-28 189.5t-79 144.5t-124 92.5t-163 32.5z" />
<glyph unicode="&#xf1;" horiz-adv-x="1080" d="M681 1255q-33 0 -58.5 12t-47 30.5t-40 39.5t-37.5 39.5t-39.5 30.5t-45.5 12q-48 0 -69.5 -42t-21.5 -111h-60q0 48 9.5 87t28 66.5t46.5 43t66 15.5q33 0 59 -12t48 -30.5t41 -39.5t37.5 -39.5t39 -30.5t44.5 -12q48 0 68.5 42.5t20.5 111.5h61q0 -47 -9.5 -86.5 t-28.5 -67.5t-47 -43.5t-65 -15.5zM119 1077h73v-237h3q19 57 54 103t83.5 79t108.5 51t129 18q89 0 162 -28t125.5 -79.5t81 -124.5t28.5 -164v-695h-78v686q0 78 -24 140t-68.5 105t-106.5 66t-137 23q-79 0 -144.5 -27.5t-112.5 -78t-73 -120t-26 -153.5v-641h-78v1077z " />
<glyph unicode="&#xf2;" horiz-adv-x="1089" d="M521 1252l-249 303h93l230 -303h-74zM544 -14q-108 0 -196 38.5t-151 110.5t-97.5 174t-34.5 229t34.5 229.5t97.5 174.5t151.5 110.5t195.5 38.5q108 0 196.5 -38.5t151.5 -110.5t97.5 -174.5t34.5 -229.5t-34.5 -229t-97.5 -174t-151.5 -110.5t-196.5 -38.5zM544 56 q91 0 165 33.5t126.5 96.5t81 152t28.5 200q0 112 -28.5 201t-81 151.5t-126.5 96t-165 33.5t-165 -33.5t-126.5 -96t-81 -151.5t-28.5 -201q0 -111 28.5 -200.5t81 -152t126.5 -96t165 -33.5z" />
<glyph unicode="&#xf3;" horiz-adv-x="1089" d="M490 1252l230 303h93l-249 -303h-74zM544 -14q-108 0 -196 38.5t-151 110.5t-97.5 174t-34.5 229t34.5 229.5t97.5 174.5t151.5 110.5t195.5 38.5q108 0 196.5 -38.5t151.5 -110.5t97.5 -174.5t34.5 -229.5t-34.5 -229t-97.5 -174t-151.5 -110.5t-196.5 -38.5zM544 56 q91 0 165 33.5t126.5 96.5t81 152t28.5 200q0 112 -28.5 201t-81 151.5t-126.5 96t-165 33.5t-165 -33.5t-126.5 -96t-81 -151.5t-28.5 -201q0 -111 28.5 -200.5t81 -152t126.5 -96t165 -33.5z" />
<glyph unicode="&#xf4;" horiz-adv-x="1089" d="M843 1252h-80l-217 249h-3l-217 -249h-81l268 303h62zM544 -14q-108 0 -196 38.5t-151 110.5t-97.5 174t-34.5 229t34.5 229.5t97.5 174.5t151.5 110.5t195.5 38.5q108 0 196.5 -38.5t151.5 -110.5t97.5 -174.5t34.5 -229.5t-34.5 -229t-97.5 -174t-151.5 -110.5 t-196.5 -38.5zM544 56q91 0 165 33.5t126.5 96.5t81 152t28.5 200q0 112 -28.5 201t-81 151.5t-126.5 96t-165 33.5t-165 -33.5t-126.5 -96t-81 -151.5t-28.5 -201q0 -111 28.5 -200.5t81 -152t126.5 -96t165 -33.5z" />
<glyph unicode="&#xf5;" horiz-adv-x="1089" d="M679 1254q-32 0 -58 12t-47.5 30.5t-40 39.5t-37.5 39.5t-39.5 30.5t-45.5 12q-48 0 -69.5 -42t-21.5 -111h-60q0 48 9.5 87t28 66.5t46.5 43t66 15.5q33 0 59 -12t48 -30.5t41 -39.5t37.5 -39.5t39 -30.5t44.5 -12q48 0 68.5 42.5t20.5 111.5h61q0 -47 -9.5 -86.5 t-28.5 -67.5t-47 -43.5t-65 -15.5zM544 -14q-108 0 -196 38.5t-151 110.5t-97.5 174t-34.5 229t34.5 229.5t97.5 174.5t151.5 110.5t195.5 38.5q108 0 196.5 -38.5t151.5 -110.5t97.5 -174.5t34.5 -229.5t-34.5 -229t-97.5 -174t-151.5 -110.5t-196.5 -38.5zM544 56 q91 0 165 33.5t126.5 96.5t81 152t28.5 200q0 112 -28.5 201t-81 151.5t-126.5 96t-165 33.5t-165 -33.5t-126.5 -96t-81 -151.5t-28.5 -201q0 -111 28.5 -200.5t81 -152t126.5 -96t165 -33.5z" />
<glyph unicode="&#xf6;" horiz-adv-x="1089" d="M392 1255q-28 0 -48 19.5t-20 47.5q0 27 20 46.5t48 19.5q27 0 47 -19.5t20 -46.5q0 -28 -20 -47.5t-47 -19.5zM696 1255q-27 0 -47 19.5t-20 47.5q0 27 20 46.5t47 19.5q28 0 48 -19.5t20 -46.5q0 -28 -20 -47.5t-48 -19.5zM544 -14q-108 0 -196 38.5t-151 110.5 t-97.5 174t-34.5 229t34.5 229.5t97.5 174.5t151.5 110.5t195.5 38.5q108 0 196.5 -38.5t151.5 -110.5t97.5 -174.5t34.5 -229.5t-34.5 -229t-97.5 -174t-151.5 -110.5t-196.5 -38.5zM544 56q91 0 165 33.5t126.5 96.5t81 152t28.5 200q0 112 -28.5 201t-81 151.5t-126.5 96 t-165 33.5t-165 -33.5t-126.5 -96t-81 -151.5t-28.5 -201q0 -111 28.5 -200.5t81 -152t126.5 -96t165 -33.5z" />
<glyph unicode="&#xf7;" horiz-adv-x="1192" d="M597 832q-35 0 -59 24t-24 59t24 58.5t59 23.5t58.5 -23.5t23.5 -58.5t-23.5 -59t-58.5 -24zM597 138q-35 0 -59 23.5t-24 58.5t24 59t59 24t58.5 -24t23.5 -59t-23.5 -58.5t-58.5 -23.5zM106 541v69h980v-69h-980z" />
<glyph unicode="&#xf8;" horiz-adv-x="1089" d="M309 131q98 -75 235 -75q91 0 165 33.5t126.5 96.5t81 152t28.5 200q0 109 -26.5 195t-75.5 149zM800 927q-51 45 -115 69t-141 24q-91 0 -165 -33.5t-126.5 -96t-81 -151.5t-28.5 -201q0 -117 31.5 -209t88.5 -155zM888 946q65 -72 100.5 -175t35.5 -233 q0 -127 -34.5 -229t-97.5 -174t-151.5 -110.5t-196.5 -38.5q-81 0 -150.5 21.5t-126.5 63.5l-110 -154l-53 35l114 160q-73 72 -113 180t-40 246q0 127 34.5 229.5t97.5 174.5t151.5 110.5t195.5 38.5q89 0 164.5 -26t135.5 -76l102 143l51 -33z" />
<glyph unicode="&#xf9;" horiz-adv-x="1080" d="M514 1252l-249 303h93l230 -303h-74zM960 0h-72v235h-3q-18 -54 -54.5 -100t-87 -79t-111.5 -51.5t-128 -18.5q-87 0 -159 27.5t-123.5 78.5t-80 123.5t-28.5 162.5v699h78v-687q0 -80 23.5 -142t66.5 -104.5t104 -65t135 -22.5q77 0 143.5 26.5t115 76t76.5 119 t28 155.5v644h77v-1077z" />
<glyph unicode="&#xfa;" horiz-adv-x="1080" d="M483 1252l230 303h93l-249 -303h-74zM960 0h-72v235h-3q-18 -54 -54.5 -100t-87 -79t-111.5 -51.5t-128 -18.5q-87 0 -159 27.5t-123.5 78.5t-80 123.5t-28.5 162.5v699h78v-687q0 -80 23.5 -142t66.5 -104.5t104 -65t135 -22.5q77 0 143.5 26.5t115 76t76.5 119 t28 155.5v644h77v-1077z" />
<glyph unicode="&#xfb;" horiz-adv-x="1080" d="M836 1252h-80l-217 249h-3l-217 -249h-81l268 303h62zM960 0h-72v235h-3q-18 -54 -54.5 -100t-87 -79t-111.5 -51.5t-128 -18.5q-87 0 -159 27.5t-123.5 78.5t-80 123.5t-28.5 162.5v699h78v-687q0 -80 23.5 -142t66.5 -104.5t104 -65t135 -22.5q77 0 143.5 26.5t115 76 t76.5 119t28 155.5v644h77v-1077z" />
<glyph unicode="&#xfc;" horiz-adv-x="1080" d="M960 0h-72v235h-3q-18 -54 -54.5 -100t-87 -79t-111.5 -51.5t-128 -18.5q-87 0 -159 27.5t-123.5 78.5t-80 123.5t-28.5 162.5v699h78v-687q0 -80 23.5 -142t66.5 -104.5t104 -65t135 -22.5q77 0 143.5 26.5t115 76t76.5 119t28 155.5v644h77v-1077zM385 1255 q-28 0 -48 19.5t-20 47.5q0 27 20 46.5t48 19.5q27 0 47 -19.5t20 -46.5q0 -28 -20 -47.5t-47 -19.5zM689 1255q-27 0 -47 19.5t-20 47.5q0 27 20 46.5t47 19.5q28 0 48 -19.5t20 -46.5q0 -28 -20 -47.5t-48 -19.5z" />
<glyph unicode="&#xfd;" horiz-adv-x="919" d="M186 -354q-15 0 -30.5 3.5t-23.5 5.5v69q9 -3 25 -5.5t31 -2.5q36 0 65 11t53 34.5t44.5 61.5t41.5 92l27 70l-412 1092h83l369 -1001h2l369 1001h82l-417 -1111q-36 -97 -67.5 -159t-66 -98t-76.5 -49.5t-99 -13.5zM406 1252l230 303h93l-249 -303h-74z" />
<glyph unicode="&#xfe;" horiz-adv-x="1129" d="M610 1093q101 0 184.5 -40t143.5 -113t93 -175.5t33 -226.5t-33 -226t-93 -175t-143.5 -113.5t-184.5 -40.5q-69 0 -131 19.5t-113.5 55.5t-90.5 87.5t-62 115.5h-7v-646h-77v1868h74v-680h7q23 66 62.5 120t91 91.5t114 58t132.5 20.5zM598 54q87 0 158.5 34.5t122 98 t78.5 153t28 198.5t-28 198t-78.5 153t-121.5 99t-158 35q-88 0 -160.5 -35.5t-124.5 -99.5t-80.5 -153t-28.5 -197q0 -107 29 -196t80.5 -153t124 -99.5t159.5 -35.5z" />
<glyph unicode="&#xff;" horiz-adv-x="919" d="M186 -354q-15 0 -30.5 3.5t-23.5 5.5v69q9 -3 25 -5.5t31 -2.5q36 0 65 11t53 34.5t44.5 61.5t41.5 92l27 70l-412 1092h83l369 -1001h2l369 1001h82l-417 -1111q-36 -97 -67.5 -159t-66 -98t-76.5 -49.5t-99 -13.5zM308 1255q-28 0 -48 19.5t-20 47.5q0 27 20 46.5 t48 19.5q27 0 47 -19.5t20 -46.5q0 -28 -20 -47.5t-47 -19.5zM612 1255q-27 0 -47 19.5t-20 47.5q0 27 20 46.5t47 19.5q28 0 48 -19.5t20 -46.5q0 -28 -20 -47.5t-48 -19.5z" />
<glyph unicode="&#x100;" horiz-adv-x="1221" d="M935 481h-649l-179 -481h-86l550 1443h80l549 -1443h-85zM312 552h598l-297 788h-5zM901 1622h-580v57h580v-57z" />
<glyph unicode="&#x101;" horiz-adv-x="1030" d="M453 55q81 0 151.5 27t123 73.5t82.5 109t30 134.5v161l-359 -27q-155 -11 -236 -72.5t-81 -170.5q0 -51 21.5 -94.5t60 -74.5t91.5 -48.5t116 -17.5zM443 -14q-79 0 -144.5 22t-113 62.5t-73.5 96t-26 123.5q0 139 97 216.5t288 91.5l369 27v96q0 70 -21 126t-60.5 94 t-96.5 58.5t-130 20.5q-138 0 -224 -66.5t-106 -189.5h-75q7 75 39.5 135t85.5 103t124.5 66t156.5 23q88 0 159.5 -25.5t121 -72.5t76.5 -115t27 -152v-726h-75v232h-2q-20 -55 -58.5 -100t-91 -77.5t-115.5 -50.5t-132 -18zM825 1308h-596v58h596v-58z" />
<glyph unicode="&#x102;" horiz-adv-x="1221" d="M935 481h-649l-179 -481h-86l550 1443h80l549 -1443h-85zM312 552h598l-297 788h-5zM403 1789q0 -38 15 -71t42.5 -57t65.5 -38t85 -14q46 0 84.5 14t66 38t42.5 57t15 71h61q0 -54 -20 -97.5t-56 -74.5t-85.5 -47.5t-107.5 -16.5q-59 0 -108 16.5t-85 47.5t-56 74.5 t-20 97.5h61z" />
<glyph unicode="&#x103;" horiz-adv-x="1030" d="M453 55q81 0 151.5 27t123 73.5t82.5 109t30 134.5v161l-359 -27q-155 -11 -236 -72.5t-81 -170.5q0 -51 21.5 -94.5t60 -74.5t91.5 -48.5t116 -17.5zM443 -14q-79 0 -144.5 22t-113 62.5t-73.5 96t-26 123.5q0 139 97 216.5t288 91.5l369 27v96q0 70 -21 126t-60.5 94 t-96.5 58.5t-130 20.5q-138 0 -224 -66.5t-106 -189.5h-75q7 75 39.5 135t85.5 103t124.5 66t156.5 23q88 0 159.5 -25.5t121 -72.5t76.5 -115t27 -152v-726h-75v232h-2q-20 -55 -58.5 -100t-91 -77.5t-115.5 -50.5t-132 -18zM322 1503q0 -44 15 -80t43 -62t66.5 -40 t85.5 -14t85.5 14t66.5 40t43 62t15 80h62q0 -60 -20.5 -107t-56.5 -79.5t-86 -49.5t-109 -17t-109 17t-86 49.5t-56.5 79.5t-20.5 107h62z" />
<glyph unicode="&#x104;" horiz-adv-x="1221" d="M1160 -412q-44 0 -81 14t-63.5 39.5t-41 60.5t-14.5 77q0 134 151 235l-176 467h-649l-179 -481h-86l550 1443h80l548 -1441q-164 -87 -164 -214q0 -30 10.5 -54.5t29.5 -42t45 -27.5t58 -10h11.5t10.5 1v-64q-6 -2 -19 -2.5t-21 -0.5zM312 552h598l-296 784h-7z" />
<glyph unicode="&#x105;" horiz-adv-x="1030" d="M878 -412q-44 0 -80.5 14t-62.5 38.5t-40.5 59.5t-14.5 77q0 70 39.5 128.5t122.5 111.5v215h-2q-20 -55 -58.5 -100t-91 -77.5t-115.5 -50.5t-132 -18q-79 0 -144.5 22t-113 62.5t-73.5 96t-26 123.5q0 139 97 216.5t288 91.5l369 27v96q0 70 -21 126t-60.5 94 t-96.5 58.5t-130 20.5q-138 0 -224 -66.5t-106 -189.5h-75q7 75 39.5 135t85.5 103t124.5 66t156.5 23q88 0 159.5 -25.5t121 -72.5t76.5 -115t27 -152v-724q-87 -52 -125 -101.5t-38 -112.5q0 -60 39.5 -97t102.5 -37h11.5t9.5 1v-64q-5 -2 -18 -2.5t-21 -0.5zM453 55 q81 0 151.5 27t123 73.5t82.5 109t30 134.5v161l-359 -27q-155 -11 -236 -72.5t-81 -170.5q0 -51 21.5 -94.5t60 -74.5t91.5 -48.5t116 -17.5z" />
<glyph unicode="&#x106;" horiz-adv-x="1326" d="M656 1554l279 290h96l-297 -290h-78zM702 -21q-145 0 -262.5 53t-200 150.5t-127.5 236.5t-45 311q0 168 44.5 304t127.5 231.5t200 147t263 51.5q110 0 208 -37t174 -101.5t125 -153t60 -191.5h-79q-12 87 -54.5 162t-108 129.5t-149 86t-176.5 31.5q-127 0 -229.5 -46 t-174.5 -132t-111 -208t-39 -274q0 -156 39.5 -281t111.5 -213t174.5 -135.5t228.5 -47.5q95 0 179 27t148.5 77.5t106.5 121t54 157.5h79q-12 -103 -59.5 -187t-122 -144t-173 -93t-212.5 -33z" />
<glyph unicode="&#x107;" horiz-adv-x="1028" d="M892 753q-12 58 -42 107t-76 84.5t-105.5 55.5t-129.5 20q-91 0 -164 -34t-124.5 -97t-79.5 -152t-28 -199q0 -111 28 -200t79.5 -151.5t125 -96.5t164.5 -34q69 0 128 18.5t104.5 52.5t76 82t42.5 106h78q-12 -73 -48.5 -133.5t-92.5 -104t-129.5 -67.5t-158.5 -24 q-108 0 -196 38.5t-150 110.5t-95.5 174t-33.5 229q0 126 33.5 228.5t95.5 174.5t149.5 111t195.5 39q87 0 160.5 -26t129.5 -71.5t92 -107.5t48 -133h-77zM485 1253l230 303h93l-249 -303h-74z" />
<glyph unicode="&#x108;" horiz-adv-x="1326" d="M702 -21q-145 0 -262.5 53t-200 150.5t-127.5 236.5t-45 311q0 168 44.5 304t127.5 231.5t200 147t263 51.5q110 0 208 -37t174 -101.5t125 -153t60 -191.5h-79q-12 87 -54.5 162t-108 129.5t-149 86t-176.5 31.5q-127 0 -229.5 -46t-174.5 -132t-111 -208t-39 -274 q0 -156 39.5 -281t111.5 -213t174.5 -135.5t228.5 -47.5q95 0 179 27t148.5 77.5t106.5 121t54 157.5h79q-12 -103 -59.5 -187t-122 -144t-173 -93t-212.5 -33zM736 1844l271 -290h-83l-221 238h-2l-221 -238h-83l271 290h68z" />
<glyph unicode="&#x109;" horiz-adv-x="1028" d="M838 1253h-80l-217 249h-3l-217 -249h-81l268 303h62zM892 753q-12 58 -42 107t-76 84.5t-105.5 55.5t-129.5 20q-91 0 -164 -34t-124.5 -97t-79.5 -152t-28 -199q0 -111 28 -200t79.5 -151.5t125 -96.5t164.5 -34q69 0 128 18.5t104.5 52.5t76 82t42.5 106h78 q-12 -73 -48.5 -133.5t-92.5 -104t-129.5 -67.5t-158.5 -24q-108 0 -196 38.5t-150 110.5t-95.5 174t-33.5 229q0 126 33.5 228.5t95.5 174.5t149.5 111t195.5 39q87 0 160.5 -26t129.5 -71.5t92 -107.5t48 -133h-77z" />
<glyph unicode="&#x10a;" horiz-adv-x="1326" d="M702 1564q-32 0 -54.5 22t-22.5 54t22.5 54t54.5 22t54.5 -22t22.5 -54t-22.5 -54t-54.5 -22zM702 -21q-145 0 -262.5 53t-200 150.5t-127.5 236.5t-45 311q0 168 44.5 304t127.5 231.5t200 147t263 51.5q110 0 208 -37t174 -101.5t125 -153t60 -191.5h-79 q-12 87 -54.5 162t-108 129.5t-149 86t-176.5 31.5q-127 0 -229.5 -46t-174.5 -132t-111 -208t-39 -274q0 -156 39.5 -281t111.5 -213t174.5 -135.5t228.5 -47.5q95 0 179 27t148.5 77.5t106.5 121t54 157.5h79q-12 -103 -59.5 -187t-122 -144t-173 -93t-212.5 -33z" />
<glyph unicode="&#x10b;" horiz-adv-x="1028" d="M892 753q-12 58 -42 107t-76 84.5t-105.5 55.5t-129.5 20q-91 0 -164 -34t-124.5 -97t-79.5 -152t-28 -199q0 -111 28 -200t79.5 -151.5t125 -96.5t164.5 -34q69 0 128 18.5t104.5 52.5t76 82t42.5 106h78q-12 -73 -48.5 -133.5t-92.5 -104t-129.5 -67.5t-158.5 -24 q-108 0 -196 38.5t-150 110.5t-95.5 174t-33.5 229q0 126 33.5 228.5t95.5 174.5t149.5 111t195.5 39q87 0 160.5 -26t129.5 -71.5t92 -107.5t48 -133h-77zM539 1256q-32 0 -55 22.5t-23 54.5t23 54.5t55 22.5t55 -22.5t23 -54.5t-23 -54.5t-55 -22.5z" />
<glyph unicode="&#x10c;" horiz-adv-x="1326" d="M702 -21q-145 0 -262.5 53t-200 150.5t-127.5 236.5t-45 311q0 168 44.5 304t127.5 231.5t200 147t263 51.5q110 0 208 -37t174 -101.5t125 -153t60 -191.5h-79q-12 87 -54.5 162t-108 129.5t-149 86t-176.5 31.5q-127 0 -229.5 -46t-174.5 -132t-111 -208t-39 -274 q0 -156 39.5 -281t111.5 -213t174.5 -135.5t228.5 -47.5q95 0 179 27t148.5 77.5t106.5 121t54 157.5h79q-12 -103 -59.5 -187t-122 -144t-173 -93t-212.5 -33zM397 1844h83l221 -239h2l221 239h83l-271 -290h-68z" />
<glyph unicode="&#x10d;" horiz-adv-x="1028" d="M508 1253l-268 303h81l217 -249h3l217 249h80l-268 -303h-62zM892 753q-12 58 -42 107t-76 84.5t-105.5 55.5t-129.5 20q-91 0 -164 -34t-124.5 -97t-79.5 -152t-28 -199q0 -111 28 -200t79.5 -151.5t125 -96.5t164.5 -34q69 0 128 18.5t104.5 52.5t76 82t42.5 106h78 q-12 -73 -48.5 -133.5t-92.5 -104t-129.5 -67.5t-158.5 -24q-108 0 -196 38.5t-150 110.5t-95.5 174t-33.5 229q0 126 33.5 228.5t95.5 174.5t149.5 111t195.5 39q87 0 160.5 -26t129.5 -71.5t92 -107.5t48 -133h-77z" />
<glyph unicode="&#x10e;" horiz-adv-x="1332" d="M247 1843h83l221 -239h2l221 239h83l-271 -290h-68zM577 1443q164 0 292 -48.5t216 -140.5t134 -226t46 -306t-46 -306.5t-134 -226.5t-216 -140.5t-292 -48.5h-449v1443h449zM208 73h365q147 0 261 43t192 125.5t118.5 203t40.5 276.5t-40.5 277t-118.5 203.5 t-192 125.5t-261 43h-365v-1297z" />
<glyph unicode="&#x10f;" horiz-adv-x="1231" d="M1261 1483l-15 -385h-53v385h68zM525 -14q-101 0 -185.5 40t-145.5 113t-95 174.5t-34 224.5t34 225t94.5 175t145 113t185.5 40q75 0 140.5 -23t118 -63t89.5 -94.5t55 -117.5h2v713h78v-1506h-73v290h-3q-19 -65 -56.5 -121t-90 -96.5t-118.5 -63.5t-141 -23zM534 1020 q-86 0 -158 -35t-123.5 -98t-80 -151.5t-28.5 -196.5t28.5 -197t80 -152.5t123.5 -98.5t158 -35q87 0 159.5 35.5t125 99t82 152t29.5 195.5t-29.5 195.5t-82 152.5t-125 99t-159.5 35z" />
<glyph unicode="&#x110;" horiz-adv-x="1404" d="M624 73q147 0 261 43t192 125.5t118.5 203t40.5 276.5t-40.5 277t-118.5 203.5t-192 125.5t-261 43h-365v-592h358v-73h-358v-632h365zM628 1443q164 0 292 -48.5t216 -140.5t134 -226t46 -306t-46 -306.5t-134 -226.5t-216 -140.5t-292 -48.5h-449v705h-115v73h115v665 h449z" />
<glyph unicode="&#x111;" horiz-adv-x="1147" d="M542 54q88 0 160.5 35.5t124.5 99t80.5 152.5t28.5 197t-29 197t-81 153t-124.5 99.5t-159.5 35.5t-159.5 -35.5t-124.5 -99t-80.5 -153t-28.5 -197.5t28.5 -197t80.5 -153t124.5 -99t159.5 -35zM1123 1283h-111v-1283h-74v271h-7q-23 -66 -62 -119t-90.5 -90.5 t-114.5 -58t-133 -20.5q-102 0 -187 40.5t-146 113.5t-94.5 175.5t-33.5 225.5t34 225t94.5 175.5t145.5 114t187 40.5q69 0 131 -19.5t113.5 -56t90.5 -88.5t62 -116h7v470h-289v62h289v177h77v-177h111v-62z" />
<glyph unicode="&#x112;" horiz-adv-x="1068" d="M969 0h-841v1443h841v-73h-762v-594h726v-72h-726v-631h762v-73zM838 1622h-580v57h580v-57z" />
<glyph unicode="&#x113;" horiz-adv-x="1062" d="M536 1021q-84 0 -154 -31t-121 -87t-81.5 -135.5t-34.5 -175.5h773q0 96 -28 175t-78.5 135.5t-120.5 87.5t-155 31zM984 301q-13 -68 -50 -126t-93.5 -100t-131.5 -65.5t-164 -23.5q-110 0 -198.5 37.5t-151 108.5t-96.5 173t-34 232q0 125 34 227.5t95.5 175t148.5 112 t194 39.5q104 0 189 -37t145 -105.5t93 -164.5t33 -213v-45h-853v-4q0 -110 29 -196.5t81.5 -146.5t126.5 -91.5t165 -31.5q74 0 135 18.5t107 51t75.5 77.5t41.5 98h79zM830 1308h-596v58h596v-58z" />
<glyph unicode="&#x114;" horiz-adv-x="1068" d="M969 0h-841v1443h841v-73h-762v-594h726v-72h-726v-631h762v-73zM340 1789q0 -38 15 -71t42.5 -57t65.5 -38t85 -14q46 0 84.5 14t66 38t42.5 57t15 71h61q0 -54 -20 -97.5t-56 -74.5t-85.5 -47.5t-107.5 -16.5q-59 0 -108 16.5t-85 47.5t-56 74.5t-20 97.5h61z" />
<glyph unicode="&#x115;" horiz-adv-x="1062" d="M536 1021q-84 0 -154 -31t-121 -87t-81.5 -135.5t-34.5 -175.5h773q0 96 -28 175t-78.5 135.5t-120.5 87.5t-155 31zM984 301q-13 -68 -50 -126t-93.5 -100t-131.5 -65.5t-164 -23.5q-110 0 -198.5 37.5t-151 108.5t-96.5 173t-34 232q0 125 34 227.5t95.5 175t148.5 112 t194 39.5q104 0 189 -37t145 -105.5t93 -164.5t33 -213v-45h-853v-4q0 -110 29 -196.5t81.5 -146.5t126.5 -91.5t165 -31.5q74 0 135 18.5t107 51t75.5 77.5t41.5 98h79zM327 1503q0 -44 15 -80t43 -62t66.5 -40t85.5 -14t85.5 14t66.5 40t43 62t15 80h62q0 -60 -20.5 -107 t-56.5 -79.5t-86 -49.5t-109 -17t-109 17t-86 49.5t-56.5 79.5t-20.5 107h62z" />
<glyph unicode="&#x116;" horiz-adv-x="1068" d="M548 1563q-32 0 -54.5 22t-22.5 54t22.5 54t54.5 22t54.5 -22t22.5 -54t-22.5 -54t-54.5 -22zM969 0h-841v1443h841v-73h-762v-594h726v-72h-726v-631h762v-73z" />
<glyph unicode="&#x117;" horiz-adv-x="1062" d="M537 1256q-32 0 -55 22.5t-23 54.5t23 54.5t55 22.5t55 -22.5t23 -54.5t-23 -54.5t-55 -22.5zM536 1021q-84 0 -154 -31t-121 -87t-81.5 -135.5t-34.5 -175.5h773q0 96 -28 175t-78.5 135.5t-120.5 87.5t-155 31zM984 301q-13 -68 -50 -126t-93.5 -100t-131.5 -65.5 t-164 -23.5q-110 0 -198.5 37.5t-151 108.5t-96.5 173t-34 232q0 125 34 227.5t95.5 175t148.5 112t194 39.5q104 0 189 -37t145 -105.5t93 -164.5t33 -213v-45h-853v-4q0 -110 29 -196.5t81.5 -146.5t126.5 -91.5t165 -31.5q74 0 135 18.5t107 51t75.5 77.5t41.5 98h79z " />
<glyph unicode="&#x118;" horiz-adv-x="1068" d="M128 0v1443h841v-73h-762v-594h726v-72h-726v-631h762v-62q-173 -93 -173 -223q0 -29 10.5 -53.5t29 -42.5t45 -28t58.5 -10q7 0 17 0.5t13 1.5v-62q-4 -3 -20.5 -4.5t-27.5 -1.5q-45 0 -82 14t-63.5 39t-41 60t-14.5 77q0 124 133 222h-725z" />
<glyph unicode="&#x119;" horiz-adv-x="1062" d="M727 -412q-42 0 -78 15t-62 41t-41 62t-15 78q0 59 30 111t88 97v3q-21 -5 -46.5 -7t-57.5 -2q-111 0 -200 38.5t-151 109.5t-95.5 173t-33.5 230q0 125 34 227.5t95.5 175t148.5 112t194 39.5q104 0 189 -37t145 -105.5t93 -164.5t33 -213v-45h-853v-4q0 -108 28 -194.5 t80 -146.5t126.5 -92.5t167.5 -32.5q70 0 130 17t106.5 49t78 77.5t44.5 101.5h79q-16 -78 -63 -144.5t-125 -119.5q-101 -65 -146.5 -122.5t-45.5 -120.5q0 -30 10.5 -55.5t29 -44t44.5 -28.5t57 -10q7 0 16.5 0.5t13.5 2.5v-65q-4 -3 -20 -4.5t-28 -1.5zM536 1021 q-84 0 -153.5 -31t-121 -87t-82 -135t-34.5 -176h773q0 96 -28 175t-78.5 135.5t-120.5 87.5t-155 31z" />
<glyph unicode="&#x11a;" horiz-adv-x="1068" d="M243 1843h83l221 -239h2l221 239h83l-271 -290h-68zM969 0h-841v1443h841v-73h-762v-594h726v-72h-726v-631h762v-73z" />
<glyph unicode="&#x11b;" horiz-adv-x="1062" d="M506 1253l-268 303h81l217 -249h3l217 249h80l-268 -303h-62zM536 1021q-84 0 -154 -31t-121 -87t-81.5 -135.5t-34.5 -175.5h773q0 96 -28 175t-78.5 135.5t-120.5 87.5t-155 31zM984 301q-13 -68 -50 -126t-93.5 -100t-131.5 -65.5t-164 -23.5q-110 0 -198.5 37.5 t-151 108.5t-96.5 173t-34 232q0 125 34 227.5t95.5 175t148.5 112t194 39.5q104 0 189 -37t145 -105.5t93 -164.5t33 -213v-45h-853v-4q0 -110 29 -196.5t81.5 -146.5t126.5 -91.5t165 -31.5q74 0 135 18.5t107 51t75.5 77.5t41.5 98h79z" />
<glyph unicode="&#x11c;" horiz-adv-x="1358" d="M733 1843l271 -290h-83l-221 238h-2l-221 -238h-83l271 290h68zM1281 571q0 -138 -40 -248t-115 -186.5t-183 -117t-244 -40.5q-141 0 -257.5 54.5t-199.5 153t-129 237t-46 306.5q0 166 45.5 301.5t128 231.5t199 148.5t259.5 52.5q109 0 204.5 -31.5t170.5 -89 t126.5 -138t71.5 -178.5h-81q-21 83 -66.5 150t-109.5 114.5t-144.5 73t-171.5 25.5q-125 0 -227 -47t-174 -133t-111 -207.5t-39 -271.5q0 -152 40 -277t112.5 -214t174 -138t224.5 -49q116 0 209 35.5t158.5 101t100.5 159t35 210.5v83h-503v72h582v-143z" />
<glyph unicode="&#x11d;" horiz-adv-x="1119" d="M857 1253h-80l-217 249h-3l-217 -249h-81l268 303h62zM529 59q87 0 159.5 35t124 98.5t80.5 152t29 194.5t-29 194.5t-80.5 152.5t-124 99t-159.5 35q-86 0 -157 -35t-121.5 -98.5t-78.5 -152t-28 -195.5t28 -195.5t78.5 -151.5t121.5 -98t157 -35zM545 -361 q-86 0 -158 18t-126 50.5t-88.5 78t-45.5 101.5h81q10 -39 38.5 -72t73 -57t103 -37t127.5 -13q82 0 150.5 20t118 58t76.5 92.5t27 123.5v285h-2q-18 -63 -55 -118t-89 -95t-117 -63t-139 -23q-102 0 -185.5 40t-143.5 112.5t-93 174t-33 224.5t33 225t93 174.5t144 112.5 t186 40q74 0 139 -23t117.5 -63.5t90 -96t56.5 -119.5h3v288h73v-1070q0 -87 -33.5 -155.5t-93.5 -116t-143.5 -72t-184.5 -24.5z" />
<glyph unicode="&#x11e;" horiz-adv-x="1358" d="M1281 571q0 -138 -40 -248t-115 -186.5t-183 -117t-244 -40.5q-141 0 -257.5 54.5t-199.5 153t-129 237t-46 306.5q0 166 45.5 301.5t128 231.5t199 148.5t259.5 52.5q109 0 204.5 -31.5t170.5 -89t126.5 -138t71.5 -178.5h-81q-21 83 -66.5 150t-109.5 114.5t-144.5 73 t-171.5 25.5q-125 0 -227 -47t-174 -133t-111 -207.5t-39 -271.5q0 -152 40 -277t112.5 -214t174 -138t224.5 -49q116 0 209 35.5t158.5 101t100.5 159t35 210.5v83h-503v72h582v-143zM491 1789q0 -38 15 -71t42.5 -57t65.5 -38t85 -14q46 0 84.5 14t66 38t42.5 57t15 71h61 q0 -54 -20 -97.5t-56 -74.5t-85.5 -47.5t-107.5 -16.5q-59 0 -108 16.5t-85 47.5t-56 74.5t-20 97.5h61z" />
<glyph unicode="&#x11f;" horiz-adv-x="1119" d="M348 1503q0 -44 15 -80t43 -62t66.5 -40t85.5 -14t85.5 14t66.5 40t43 62t15 80h62q0 -60 -20.5 -107t-56.5 -79.5t-86 -49.5t-109 -17t-109 17t-86 49.5t-56.5 79.5t-20.5 107h62zM529 59q87 0 159.5 35t124 98.5t80.5 152t29 194.5t-29 194.5t-80.5 152.5t-124 99 t-159.5 35q-86 0 -157 -35t-121.5 -98.5t-78.5 -152t-28 -195.5t28 -195.5t78.5 -151.5t121.5 -98t157 -35zM545 -361q-86 0 -158 18t-126 50.5t-88.5 78t-45.5 101.5h81q10 -39 38.5 -72t73 -57t103 -37t127.5 -13q82 0 150.5 20t118 58t76.5 92.5t27 123.5v285h-2 q-18 -63 -55 -118t-89 -95t-117 -63t-139 -23q-102 0 -185.5 40t-143.5 112.5t-93 174t-33 224.5t33 225t93 174.5t144 112.5t186 40q74 0 139 -23t117.5 -63.5t90 -96t56.5 -119.5h3v288h73v-1070q0 -87 -33.5 -155.5t-93.5 -116t-143.5 -72t-184.5 -24.5z" />
<glyph unicode="&#x120;" horiz-adv-x="1358" d="M699 1563q-32 0 -54.5 22t-22.5 54t22.5 54t54.5 22t54.5 -22t22.5 -54t-22.5 -54t-54.5 -22zM1281 571q0 -138 -40 -248t-115 -186.5t-183 -117t-244 -40.5q-141 0 -257.5 54.5t-199.5 153t-129 237t-46 306.5q0 166 45.5 301.5t128 231.5t199 148.5t259.5 52.5 q109 0 204.5 -31.5t170.5 -89t126.5 -138t71.5 -178.5h-81q-21 83 -66.5 150t-109.5 114.5t-144.5 73t-171.5 25.5q-125 0 -227 -47t-174 -133t-111 -207.5t-39 -271.5q0 -152 40 -277t112.5 -214t174 -138t224.5 -49q116 0 209 35.5t158.5 101t100.5 159t35 210.5v83h-503 v72h582v-143z" />
<glyph unicode="&#x121;" horiz-adv-x="1119" d="M558 1256q-32 0 -55 22.5t-23 54.5t23 54.5t55 22.5t55 -22.5t23 -54.5t-23 -54.5t-55 -22.5zM529 59q87 0 159.5 35t124 98.5t80.5 152t29 194.5t-29 194.5t-80.5 152.5t-124 99t-159.5 35q-86 0 -157 -35t-121.5 -98.5t-78.5 -152t-28 -195.5t28 -195.5t78.5 -151.5 t121.5 -98t157 -35zM545 -361q-86 0 -158 18t-126 50.5t-88.5 78t-45.5 101.5h81q10 -39 38.5 -72t73 -57t103 -37t127.5 -13q82 0 150.5 20t118 58t76.5 92.5t27 123.5v285h-2q-18 -63 -55 -118t-89 -95t-117 -63t-139 -23q-102 0 -185.5 40t-143.5 112.5t-93 174 t-33 224.5t33 225t93 174.5t144 112.5t186 40q74 0 139 -23t117.5 -63.5t90 -96t56.5 -119.5h3v288h73v-1070q0 -87 -33.5 -155.5t-93.5 -116t-143.5 -72t-184.5 -24.5z" />
<glyph unicode="&#x122;" horiz-adv-x="1358" d="M579 -493l99 344h78l-114 -344h-63zM1281 571q0 -138 -40 -248t-115 -186.5t-183 -117t-244 -40.5q-141 0 -257.5 54.5t-199.5 153t-129 237t-46 306.5q0 166 45.5 301.5t128 231.5t199 148.5t259.5 52.5q109 0 204.5 -31.5t170.5 -89t126.5 -138t71.5 -178.5h-81 q-21 83 -66.5 150t-109.5 114.5t-144.5 73t-171.5 25.5q-125 0 -227 -47t-174 -133t-111 -207.5t-39 -271.5q0 -152 40 -277t112.5 -214t174 -138t224.5 -49q116 0 209 35.5t158.5 101t100.5 159t35 210.5v83h-503v72h582v-143z" />
<glyph unicode="&#x123;" horiz-adv-x="1119" d="M425 -849l99 344h78l-114 -344h-63zM529 59q87 0 159.5 35t124 98.5t80.5 152t29 194.5t-29 194.5t-80.5 152.5t-124 99t-159.5 35q-86 0 -157 -35t-121.5 -98.5t-78.5 -152t-28 -195.5t28 -195.5t78.5 -151.5t121.5 -98t157 -35zM545 -361q-86 0 -158 18t-126 50.5 t-88.5 78t-45.5 101.5h81q10 -39 38.5 -72t73 -57t103 -37t127.5 -13q82 0 150.5 20t118 58t76.5 92.5t27 123.5v285h-2q-18 -63 -55 -118t-89 -95t-117 -63t-139 -23q-102 0 -185.5 40t-143.5 112.5t-93 174t-33 224.5t33 225t93 174.5t144 112.5t186 40q74 0 139 -23 t117.5 -63.5t90 -96t56.5 -119.5h3v288h73v-1070q0 -87 -33.5 -155.5t-93.5 -116t-143.5 -72t-184.5 -24.5z" />
<glyph unicode="&#x124;" horiz-adv-x="1327" d="M1120 0v705h-913v-705h-79v1443h79v-666h913v666h79v-1443h-79zM697 1843l271 -290h-83l-221 238h-2l-221 -238h-83l271 290h68z" />
<glyph unicode="&#x125;" horiz-adv-x="1095" d="M129 1506h78v-666h3q19 57 54 103t84 79t109 51t128 18q88 0 161.5 -28.5t125.5 -80t81 -125t29 -163.5v-694h-77v685q0 78 -24 140t-68.5 105.5t-106.5 66.5t-137 23q-80 0 -146.5 -28t-114.5 -78t-74.5 -120.5t-26.5 -154.5v-639h-78v1506zM202 1906l271 -290h-83 l-221 238h-2l-221 -238h-83l271 290h68z" />
<glyph unicode="&#x126;" horiz-adv-x="1386" d="M1150 1122h-913v-345h913v345zM1370 1122h-141v-1122h-79v705h-913v-705h-79v1122h-142v67h142v254h79v-254h913v254h79v-254h141v-67z" />
<glyph unicode="&#x127;" horiz-adv-x="1164" d="M245 848q21 57 57 102t84 76.5t107 48t125 16.5q88 0 161 -27.5t125.5 -78.5t82 -123t29.5 -162v-700h-77v686q0 77 -25.5 138.5t-70.5 105t-106.5 67t-133.5 23.5q-77 0 -143.5 -27.5t-115 -78t-76 -121t-27.5 -156.5v-637h-78v1272h-142v62h142v186h78v-186h289v-62 h-289v-424h4z" />
<glyph unicode="&#x128;" horiz-adv-x="335" d="M128 0v1443h79v-1443h-79zM302 1549q-33 0 -58.5 12t-47 30.5t-40 39.5t-37.5 39.5t-39.5 30.5t-45.5 12q-48 0 -69.5 -42t-21.5 -111h-60q0 48 9.5 87t28 66.5t46.5 43t66 15.5q33 0 59 -12t48 -30.5t41 -39.5t37.5 -39.5t39 -30.5t44.5 -12q48 0 68.5 42.5t20.5 111.5 h61q0 -47 -9.5 -86.5t-28.5 -67.5t-47 -43.5t-65 -15.5z" />
<glyph unicode="&#x129;" horiz-adv-x="336" d="M129 1077h78v-1077h-78v1077zM303 1255q-33 0 -58.5 12t-47 30.5t-40 39.5t-37.5 39.5t-39.5 30.5t-45.5 12q-48 0 -69.5 -42t-21.5 -111h-60q0 48 9.5 87t28 66.5t46.5 43t66 15.5q33 0 59 -12t48 -30.5t41 -39.5t37.5 -39.5t39 -30.5t44.5 -12q48 0 68.5 42.5 t20.5 111.5h61q0 -47 -9.5 -86.5t-28.5 -67.5t-47 -43.5t-65 -15.5z" />
<glyph unicode="&#x12a;" horiz-adv-x="335" d="M128 0v1443h79v-1443h-79zM457 1622h-580v57h580v-57z" />
<glyph unicode="&#x12b;" horiz-adv-x="336" d="M129 1077h78v-1077h-78v1077zM461 1308h-596v58h596v-58z" />
<glyph unicode="&#x12c;" horiz-adv-x="335" d="M128 0v1443h79v-1443h-79zM-41 1789q0 -38 15 -71t42.5 -57t65.5 -38t85 -14q46 0 84.5 14t66 38t42.5 57t15 71h61q0 -54 -20 -97.5t-56 -74.5t-85.5 -47.5t-107.5 -16.5q-59 0 -108 16.5t-85 47.5t-56 74.5t-20 97.5h61z" />
<glyph unicode="&#x12d;" horiz-adv-x="336" d="M129 1077h78v-1077h-78v1077zM-42 1503q0 -44 15 -80t43 -62t66.5 -40t85.5 -14t85.5 14t66.5 40t43 62t15 80h62q0 -60 -20.5 -107t-56.5 -79.5t-86 -49.5t-109 -17t-109 17t-86 49.5t-56.5 79.5t-20.5 107h62z" />
<glyph unicode="&#x12e;" horiz-adv-x="335" d="M167 -412q-44 0 -80.5 14t-62.5 38.5t-40.5 59.5t-14.5 77q0 71 37.5 128.5t121.5 111.5v1426h79v-1443q-44 -26 -75 -50.5t-51 -50t-29.5 -53t-9.5 -58.5q0 -60 39.5 -97t102.5 -37h11.5t10.5 1v-64q-6 -2 -19.5 -2.5t-19.5 -0.5z" />
<glyph unicode="&#x12f;" horiz-adv-x="336" d="M168 1341q-26 0 -44 17.5t-18 43.5t18 44t44 18t44.5 -18t18.5 -44t-18.5 -43.5t-44.5 -17.5zM168 -412q-44 0 -80.5 14t-62.5 38.5t-40.5 59.5t-14.5 77q0 71 39 129t120 111v1060h78v-1075q-87 -52 -125.5 -101.5t-38.5 -112.5q0 -60 39.5 -97t102.5 -37h11.5t10.5 1 v-64q-6 -2 -19 -2.5t-20 -0.5z" />
<glyph unicode="&#x130;" horiz-adv-x="335" d="M128 0v1443h79v-1443h-79zM167 1563q-32 0 -54.5 22t-22.5 54t22.5 54t54.5 22t54.5 -22t22.5 -54t-22.5 -54t-54.5 -22z" />
<glyph unicode="&#x131;" horiz-adv-x="336" d="M129 1077h78v-1077h-78v1077z" />
<glyph unicode="&#x132;" horiz-adv-x="1286" d="M128 0v1443h79v-1443h-79zM454 320q3 -60 27 -109.5t64.5 -85t95 -55.5t119.5 -20q75 0 134 22.5t100.5 66t63 106.5t21.5 144v1054h80v-1058q0 -94 -27.5 -169.5t-78.5 -129t-125 -82t-167 -28.5q-83 0 -152.5 25.5t-120.5 71t-80.5 109t-31.5 138.5h78z" />
<glyph unicode="&#x133;" horiz-adv-x="673" d="M129 1077h78v-1077h-78v1077zM168 1341q-26 0 -44 17.5t-18 43.5t18 44t44 18t44.5 -18t18.5 -44t-18.5 -43.5t-44.5 -17.5zM543 -80q0 -74 -17.5 -126t-52 -85t-87 -48.5t-121.5 -15.5h-30v69h27q106 0 154.5 47t48.5 155v1161h78v-1157zM504 1341q-26 0 -44 17.5 t-18 43.5t18 44t44 18t44.5 -18t18.5 -44t-18.5 -43.5t-44.5 -17.5z" />
<glyph unicode="&#x134;" horiz-adv-x="951" d="M119 320q3 -60 27 -109.5t64.5 -85t95 -55.5t119.5 -20q75 0 134 22.5t100.5 66t63 106.5t21.5 144v1054h80v-1058q0 -94 -27.5 -169.5t-78.5 -129t-125 -82t-167 -28.5q-83 0 -152.5 25.5t-120.5 71t-80.5 109t-31.5 138.5h78zM818 1843l271 -290h-83l-221 238h-2 l-221 -238h-83l271 290h68z" />
<glyph unicode="&#x135;" horiz-adv-x="336" d="M206 -80q0 -74 -17.5 -126t-52 -85t-87 -48.5t-121.5 -15.5h-29v69h27q106 0 154.5 47t48.5 155v1161h77v-1157zM467 1253h-80l-217 249h-3l-217 -249h-81l268 303h62z" />
<glyph unicode="&#x136;" horiz-adv-x="1142" d="M128 0v1443h79v-806h6l750 806h101l-594 -636l660 -807h-101l-615 751l-207 -223v-528h-79zM424 -493l99 344h78l-114 -344h-63z" />
<glyph unicode="&#x137;" horiz-adv-x="938" d="M817 1077h102l-507 -464l511 -613h-95l-474 565l-147 -132v-433h-78v1506h78v-982h1zM367 -493l99 344h78l-114 -344h-63z" />
<glyph unicode="&#x139;" horiz-adv-x="1024" d="M121 1553l279 290h96l-297 -290h-78zM964 0h-836v1443h79v-1370h757v-73z" />
<glyph unicode="&#x13a;" horiz-adv-x="336" d="M122 1616l279 290h96l-297 -290h-78zM129 1506h78v-1506h-78v1506z" />
<glyph unicode="&#x13b;" horiz-adv-x="1024" d="M426 -493l99 344h78l-114 -344h-63zM964 0h-836v1443h79v-1370h757v-73z" />
<glyph unicode="&#x13c;" horiz-adv-x="336" d="M48 -493l99 344h78l-114 -344h-63zM129 1506h78v-1506h-78v1506z" />
<glyph unicode="&#x13d;" horiz-adv-x="1024" d="M525 1443l-20 -385h-56v385h76zM964 0h-836v1443h79v-1370h757v-73z" />
<glyph unicode="&#x13e;" horiz-adv-x="432" d="M461 1483l-15 -385h-53v385h68zM129 1506h78v-1506h-78v1506z" />
<glyph unicode="&#x141;" horiz-adv-x="1052" d="M993 73v-73h-836v715l-127 -67v69l127 67v659h79v-617l390 206v-68l-390 -207v-684h757z" />
<glyph unicode="&#x142;" horiz-adv-x="347" d="M330 849l-123 -71v-778h-78v734l-114 -66v71l114 66v701h78v-656l123 71v-72z" />
<glyph unicode="&#x143;" horiz-adv-x="1341" d="M625 1553l279 290h96l-297 -290h-78zM128 0v1443h82l919 -1299h6v1299h79v-1443h-75l-927 1307h-6v-1307h-78z" />
<glyph unicode="&#x144;" horiz-adv-x="1080" d="M492 1253l230 303h93l-249 -303h-74zM119 1077h73v-237h3q19 57 54 103t83.5 79t108.5 51t129 18q89 0 162 -28t125.5 -79.5t81 -124.5t28.5 -164v-695h-78v686q0 78 -24 140t-68.5 105t-106.5 66t-137 23q-79 0 -144.5 -27.5t-112.5 -78t-73 -120t-26 -153.5v-641h-78 v1077z" />
<glyph unicode="&#x145;" horiz-adv-x="1341" d="M551 -493l99 344h78l-114 -344h-63zM128 0v1443h82l919 -1299h6v1299h79v-1443h-75l-927 1307h-6v-1307h-78z" />
<glyph unicode="&#x146;" horiz-adv-x="1080" d="M411 -493l99 344h78l-114 -344h-63zM119 1077h73v-237h3q19 57 54 103t83.5 79t108.5 51t129 18q89 0 162 -28t125.5 -79.5t81 -124.5t28.5 -164v-695h-78v686q0 78 -24 140t-68.5 105t-106.5 66t-137 23q-79 0 -144.5 -27.5t-112.5 -78t-73 -120t-26 -153.5v-641h-78 v1077z" />
<glyph unicode="&#x147;" horiz-adv-x="1341" d="M366 1843h83l221 -239h2l221 239h83l-271 -290h-68zM128 0v1443h82l919 -1299h6v1299h79v-1443h-75l-927 1307h-6v-1307h-78z" />
<glyph unicode="&#x148;" horiz-adv-x="1080" d="M515 1253l-268 303h81l217 -249h3l217 249h80l-268 -303h-62zM119 1077h73v-237h3q19 57 54 103t83.5 79t108.5 51t129 18q89 0 162 -28t125.5 -79.5t81 -124.5t28.5 -164v-695h-78v686q0 78 -24 140t-68.5 105t-106.5 66t-137 23q-79 0 -144.5 -27.5t-112.5 -78 t-73 -120t-26 -153.5v-641h-78v1077z" />
<glyph unicode="&#x14c;" horiz-adv-x="1420" d="M710 1464q147 0 266 -52t203 -148.5t129 -234t45 -307.5q0 -171 -45 -308.5t-128.5 -234t-202.5 -148.5t-267 -52t-267 52t-202.5 148.5t-128.5 234t-45 308.5q0 170 45 307.5t129 234t203 148.5t266 52zM710 1390q-129 0 -232.5 -47t-177 -134t-113 -210.5t-39.5 -276.5 t39.5 -277t113 -211t177.5 -134t232 -47q129 0 232.5 47t177 134t113 211t39.5 277t-39.5 276.5t-113 210.5t-177 134t-232.5 47zM1000 1622h-580v57h580v-57z" />
<glyph unicode="&#x14d;" horiz-adv-x="1089" d="M837 1307h-596v58h596v-58zM544 -14q-108 0 -196 38.5t-151 110.5t-97.5 174t-34.5 229t34.5 229.5t97.5 174.5t151.5 110.5t195.5 38.5q108 0 196.5 -38.5t151.5 -110.5t97.5 -174.5t34.5 -229.5t-34.5 -229t-97.5 -174t-151.5 -110.5t-196.5 -38.5zM544 56 q91 0 165 33.5t126.5 96.5t81 152t28.5 200q0 112 -28.5 201t-81 151.5t-126.5 96t-165 33.5t-165 -33.5t-126.5 -96t-81 -151.5t-28.5 -201q0 -111 28.5 -200.5t81 -152t126.5 -96t165 -33.5z" />
<glyph unicode="&#x14e;" horiz-adv-x="1420" d="M710 1464q147 0 266 -52t203 -148.5t129 -234t45 -307.5q0 -171 -45 -308.5t-128.5 -234t-202.5 -148.5t-267 -52t-267 52t-202.5 148.5t-128.5 234t-45 308.5q0 170 45 307.5t129 234t203 148.5t266 52zM710 1390q-129 0 -232.5 -47t-177 -134t-113 -210.5t-39.5 -276.5 t39.5 -277t113 -211t177.5 -134t232 -47q129 0 232.5 47t177 134t113 211t39.5 277t-39.5 276.5t-113 210.5t-177 134t-232.5 47zM502 1789q0 -38 15 -71t42.5 -57t65.5 -38t85 -14q46 0 84.5 14t66 38t42.5 57t15 71h61q0 -54 -20 -97.5t-56 -74.5t-85.5 -47.5 t-107.5 -16.5q-59 0 -108 16.5t-85 47.5t-56 74.5t-20 97.5h61z" />
<glyph unicode="&#x14f;" horiz-adv-x="1089" d="M334 1502q0 -44 15 -80t43 -62t66.5 -40t85.5 -14t85.5 14t66.5 40t43 62t15 80h62q0 -60 -20.5 -107t-56.5 -79.5t-86 -49.5t-109 -17t-109 17t-86 49.5t-56.5 79.5t-20.5 107h62zM544 -14q-108 0 -196 38.5t-151 110.5t-97.5 174t-34.5 229t34.5 229.5t97.5 174.5 t151.5 110.5t195.5 38.5q108 0 196.5 -38.5t151.5 -110.5t97.5 -174.5t34.5 -229.5t-34.5 -229t-97.5 -174t-151.5 -110.5t-196.5 -38.5zM544 56q91 0 165 33.5t126.5 96.5t81 152t28.5 200q0 112 -28.5 201t-81 151.5t-126.5 96t-165 33.5t-165 -33.5t-126.5 -96 t-81 -151.5t-28.5 -201q0 -111 28.5 -200.5t81 -152t126.5 -96t165 -33.5z" />
<glyph unicode="&#x150;" horiz-adv-x="1420" d="M813 1553l280 290h92l-297 -290h-75zM546 1553l280 290h93l-298 -290h-75zM710 1464q147 0 266 -52t203 -148.5t129 -234t45 -307.5q0 -171 -45 -308.5t-128.5 -234t-202.5 -148.5t-267 -52t-267 52t-202.5 148.5t-128.5 234t-45 308.5q0 170 45 307.5t129 234t203 148.5 t266 52zM710 1390q-129 0 -232.5 -47t-177 -134t-113 -210.5t-39.5 -276.5t39.5 -277t113 -211t177.5 -134t232 -47q129 0 232.5 47t177 134t113 211t39.5 277t-39.5 276.5t-113 210.5t-177 134t-232.5 47z" />
<glyph unicode="&#x151;" horiz-adv-x="1089" d="M856 1555h92l-247 -303h-71zM612 1555h92l-247 -303h-71zM544 -14q-108 0 -196 38.5t-151 110.5t-97.5 174t-34.5 229t34.5 229.5t97.5 174.5t151.5 110.5t195.5 38.5q108 0 196.5 -38.5t151.5 -110.5t97.5 -174.5t34.5 -229.5t-34.5 -229t-97.5 -174t-151.5 -110.5 t-196.5 -38.5zM544 56q91 0 165 33.5t126.5 96.5t81 152t28.5 200q0 112 -28.5 201t-81 151.5t-126.5 96t-165 33.5t-165 -33.5t-126.5 -96t-81 -151.5t-28.5 -201q0 -111 28.5 -200.5t81 -152t126.5 -96t165 -33.5z" />
<glyph unicode="&#x152;" horiz-adv-x="2178" d="M716 1390q-130 0 -235 -47t-179 -134t-114 -210.5t-40 -276.5t40 -276.5t114 -211t179 -134.5t235 -47t235 47t179 134t114 211t40 277t-40 276.5t-114 210.5t-179 134t-235 47zM1285 372q-34 -94 -88.5 -167t-127.5 -123.5t-162 -76.5t-191 -26q-150 0 -270 51.5 t-204.5 148t-129.5 234t-45 309.5t45 309.5t129.5 233.5t204.5 147.5t270 51.5q103 0 192 -26t161.5 -76t127 -122.5t88.5 -166.5v370h815v-73h-735v-594h698v-72h-698v-631h735v-73h-815v372z" />
<glyph unicode="&#x153;" horiz-adv-x="1943" d="M1426 -14q-84 0 -157.5 26t-131 72t-96.5 109.5t-55 138.5h-5q-17 -78 -55.5 -142.5t-95 -110.5t-129 -71t-157.5 -25q-109 0 -197.5 38.5t-151 110.5t-96.5 174t-34 229t34 229.5t97 174.5t151.5 111t196.5 39q84 0 156.5 -25t129 -71t95.5 -109.5t56 -141.5h5 q16 76 54.5 140t95 110.5t128 72.5t154.5 26q104 0 189 -37t145 -105.5t93 -164.5t33 -213v-46h-853v-4q0 -104 28.5 -190t81 -147t127 -94.5t166.5 -33.5q73 0 133.5 18.5t106.5 51.5t76 77.5t42 97.5h78q-13 -68 -49.5 -126t-93 -100t-131.5 -65.5t-164 -23.5zM1798 591 q0 95 -28 174t-78.5 136t-120.5 88.5t-154 31.5q-83 0 -153 -31t-121.5 -87.5t-82.5 -135.5t-35 -176h773zM143 535q0 -111 28.5 -200t81 -151.5t126.5 -96t165 -33.5t165 33.5t126.5 96t81 151.5t28.5 200t-28.5 200.5t-81 152.5t-126.5 96.5t-165 33.5t-165 -33.5 t-126.5 -96.5t-81 -152.5t-28.5 -200.5z" />
<glyph unicode="&#x154;" horiz-adv-x="1150" d="M449 1553l279 290h96l-297 -290h-78zM207 688h387q91 0 162.5 23.5t121.5 67.5t76.5 107t26.5 143q0 81 -27 144.5t-77 107.5t-122 67t-163 23h-385v-683zM207 0h-79v1443h471q107 0 193 -28.5t146 -82t92 -130t32 -171.5q0 -78 -22.5 -144.5t-65.5 -118t-105 -86.5 t-141 -51l371 -631h-93l-361 619q-10 -2 -25 -2.5t-26 -0.5h-387v-616z" />
<glyph unicode="&#x155;" horiz-adv-x="614" d="M288 1253l230 303h93l-249 -303h-74zM119 1077h73v-213h3q32 111 106 169t183 58q29 0 56 -6t42 -12v-78q-17 8 -46 15t-64 7q-63 0 -114 -26t-87 -72t-55 -110t-19 -140v-669h-78v1077z" />
<glyph unicode="&#x156;" horiz-adv-x="1150" d="M207 688h387q91 0 162.5 23.5t121.5 67.5t76.5 107t26.5 143q0 81 -27 144.5t-77 107.5t-122 67t-163 23h-385v-683zM207 0h-79v1443h471q107 0 193 -28.5t146 -82t92 -130t32 -171.5q0 -78 -22.5 -144.5t-65.5 -118t-105 -86.5t-141 -51l371 -631h-93l-361 619 q-10 -2 -25 -2.5t-26 -0.5h-387v-616zM375 -493l99 344h78l-114 -344h-63z" />
<glyph unicode="&#x157;" horiz-adv-x="614" d="M119 1077h73v-213h3q32 111 106 169t183 58q29 0 56 -6t42 -12v-78q-17 8 -46 15t-64 7q-63 0 -114 -26t-87 -72t-55 -110t-19 -140v-669h-78v1077zM38 -493l99 344h78l-114 -344h-63z" />
<glyph unicode="&#x158;" horiz-adv-x="1150" d="M207 688h387q91 0 162.5 23.5t121.5 67.5t76.5 107t26.5 143q0 81 -27 144.5t-77 107.5t-122 67t-163 23h-385v-683zM207 0h-79v1443h471q107 0 193 -28.5t146 -82t92 -130t32 -171.5q0 -78 -22.5 -144.5t-65.5 -118t-105 -86.5t-141 -51l371 -631h-93l-361 619 q-10 -2 -25 -2.5t-26 -0.5h-387v-616zM190 1843h83l221 -239h2l221 239h83l-271 -290h-68z" />
<glyph unicode="&#x159;" horiz-adv-x="614" d="M311 1253l-268 303h81l217 -249h3l217 249h80l-268 -303h-62zM119 1077h73v-213h3q32 111 106 169t183 58q29 0 56 -6t42 -12v-78q-17 8 -46 15t-64 7q-63 0 -114 -26t-87 -72t-55 -110t-19 -140v-669h-78v1077z" />
<glyph unicode="&#x15a;" horiz-adv-x="1137" d="M523 1553l279 290h96l-297 -290h-78zM136 385q4 -74 39.5 -135t94.5 -105t139 -68.5t174 -24.5q92 0 168.5 24.5t131.5 68.5t85.5 103.5t30.5 130.5q0 57 -19.5 102t-61.5 81t-107 64.5t-156 51.5l-171 42q-100 25 -173 59t-121 77.5t-71 98t-23 122.5q0 84 37 155 t101 122.5t150 80.5t185 29q102 0 189 -28.5t151.5 -78t102.5 -118t41 -147.5h-79q-4 65 -36.5 120t-86.5 94.5t-126.5 62t-157.5 22.5q-81 0 -152.5 -23t-124 -64.5t-83 -99t-30.5 -125.5q0 -108 82 -175t256 -110l161 -41q105 -26 181 -59.5t125.5 -78t73.5 -101.5 t24 -129q0 -90 -36 -164.5t-102 -128t-159 -83.5t-206 -30q-111 0 -204.5 30t-162 83.5t-109 128t-44.5 164.5h79z" />
<glyph unicode="&#x15b;" horiz-adv-x="923" d="M94 801q0 64 28.5 117.5t78.5 91.5t117.5 59.5t145.5 21.5q81 0 148.5 -23t117.5 -65.5t80 -102.5t36 -133h-76q-6 56 -29.5 103t-63 81t-93.5 53t-121 19q-60 0 -113.5 -16t-93 -45t-63 -69t-23.5 -89q0 -80 55.5 -125.5t170.5 -72.5l167 -41q80 -20 137 -45t93 -59 t53 -77.5t17 -98.5q0 -67 -29.5 -122t-82.5 -94.5t-126 -61t-160 -21.5t-159.5 24.5t-126 67.5t-85 101t-35.5 125h78q5 -53 31.5 -99t70 -80t101.5 -53t127 -19q67 0 125.5 16t101.5 46t67.5 72t24.5 93q0 42 -13.5 75t-43.5 59t-76.5 46t-112.5 36l-173 42 q-137 33 -205 95.5t-68 167.5zM410 1253l230 303h93l-249 -303h-74z" />
<glyph unicode="&#x15c;" horiz-adv-x="1137" d="M136 385q4 -74 39.5 -135t94.5 -105t139 -68.5t174 -24.5q92 0 168.5 24.5t131.5 68.5t85.5 103.5t30.5 130.5q0 57 -19.5 102t-61.5 81t-107 64.5t-156 51.5l-171 42q-100 25 -173 59t-121 77.5t-71 98t-23 122.5q0 84 37 155t101 122.5t150 80.5t185 29 q102 0 189 -28.5t151.5 -78t102.5 -118t41 -147.5h-79q-4 65 -36.5 120t-86.5 94.5t-126.5 62t-157.5 22.5q-81 0 -152.5 -23t-124 -64.5t-83 -99t-30.5 -125.5q0 -108 82 -175t256 -110l161 -41q105 -26 181 -59.5t125.5 -78t73.5 -101.5t24 -129q0 -90 -36 -164.5 t-102 -128t-159 -83.5t-206 -30q-111 0 -204.5 30t-162 83.5t-109 128t-44.5 164.5h79zM603 1843l271 -290h-83l-221 238h-2l-221 -238h-83l271 290h68z" />
<glyph unicode="&#x15d;" horiz-adv-x="923" d="M763 1253h-80l-217 249h-3l-217 -249h-81l268 303h62zM94 801q0 64 28.5 117.5t78.5 91.5t117.5 59.5t145.5 21.5q81 0 148.5 -23t117.5 -65.5t80 -102.5t36 -133h-76q-6 56 -29.5 103t-63 81t-93.5 53t-121 19q-60 0 -113.5 -16t-93 -45t-63 -69t-23.5 -89 q0 -80 55.5 -125.5t170.5 -72.5l167 -41q80 -20 137 -45t93 -59t53 -77.5t17 -98.5q0 -67 -29.5 -122t-82.5 -94.5t-126 -61t-160 -21.5t-159.5 24.5t-126 67.5t-85 101t-35.5 125h78q5 -53 31.5 -99t70 -80t101.5 -53t127 -19q67 0 125.5 16t101.5 46t67.5 72t24.5 93 q0 42 -13.5 75t-43.5 59t-76.5 46t-112.5 36l-173 42q-137 33 -205 95.5t-68 167.5z" />
<glyph unicode="&#x15e;" horiz-adv-x="1137" d="M676 753q105 -26 181 -59.5t125.5 -78t73.5 -101.5t24 -129q0 -87 -34 -160t-96.5 -126.5t-150 -84.5t-195.5 -35l-50 -120q97 0 152 -40.5t55 -111.5q0 -38 -16 -69t-44.5 -53.5t-68.5 -35t-88 -12.5q-35 -1 -69.5 3.5t-58.5 12.5v56q21 -8 54.5 -12.5t67.5 -4.5t63 8.5 t50.5 23.5t33.5 36t12 45q0 50 -41 76t-119 26h-52v43l55 130q-104 5 -190.5 36.5t-150.5 85t-101 125.5t-41 158h79q4 -74 39.5 -135t94.5 -105t139 -68.5t174 -24.5q92 0 168.5 24.5t131.5 68.5t85.5 103.5t30.5 130.5q0 57 -19.5 102t-61.5 81t-107 64.5t-156 51.5 l-171 42q-100 25 -173 59t-121 77.5t-71 98t-23 122.5q0 84 37 155t101 122.5t150 80.5t185 29q102 0 189 -28.5t151.5 -78t102.5 -118t41 -147.5h-79q-4 65 -36.5 120t-86.5 94.5t-126.5 62t-157.5 22.5q-81 0 -152.5 -23t-124 -64.5t-83 -99t-30.5 -125.5q0 -108 82 -175 t256 -110z" />
<glyph unicode="&#x15f;" horiz-adv-x="923" d="M563 565q80 -20 137 -45t93 -59t53 -77.5t17 -98.5q0 -64 -27.5 -117.5t-76.5 -92.5t-117 -62t-149 -26l-52 -128q97 0 152 -40.5t55 -111.5q0 -38 -16 -69t-44.5 -53.5t-68.5 -35t-88 -12.5q-35 -1 -69.5 3.5t-58.5 12.5v56q21 -8 54.5 -12.5t67.5 -4.5t63 8.5 t50.5 23.5t33.5 36t12 45q0 50 -41 76t-119 26h-52v43l58 137q-80 5 -146.5 31.5t-115 68.5t-77 98t-32.5 119h78q5 -53 31.5 -99t70 -80t101.5 -53t127 -19q67 0 125.5 16t101.5 46t67.5 72t24.5 93q0 42 -13.5 75t-43.5 59t-76.5 46t-112.5 36l-173 42q-137 33 -205 95.5 t-68 167.5q0 64 28.5 117.5t78.5 91.5t117.5 59.5t145.5 21.5q81 0 148.5 -23t117.5 -65.5t80 -102.5t36 -133h-76q-6 56 -29.5 103t-63 81t-93.5 53t-121 19q-60 0 -113.5 -16t-93 -45t-63 -69t-23.5 -89q0 -80 55.5 -125.5t170.5 -72.5z" />
<glyph unicode="&#x160;" horiz-adv-x="1137" d="M136 385q4 -74 39.5 -135t94.5 -105t139 -68.5t174 -24.5q92 0 168.5 24.5t131.5 68.5t85.5 103.5t30.5 130.5q0 57 -19.5 102t-61.5 81t-107 64.5t-156 51.5l-171 42q-100 25 -173 59t-121 77.5t-71 98t-23 122.5q0 84 37 155t101 122.5t150 80.5t185 29 q102 0 189 -28.5t151.5 -78t102.5 -118t41 -147.5h-79q-4 65 -36.5 120t-86.5 94.5t-126.5 62t-157.5 22.5q-81 0 -152.5 -23t-124 -64.5t-83 -99t-30.5 -125.5q0 -108 82 -175t256 -110l161 -41q105 -26 181 -59.5t125.5 -78t73.5 -101.5t24 -129q0 -90 -36 -164.5 t-102 -128t-159 -83.5t-206 -30q-111 0 -204.5 30t-162 83.5t-109 128t-44.5 164.5h79zM264 1843h83l221 -239h2l221 239h83l-271 -290h-68z" />
<glyph unicode="&#x161;" horiz-adv-x="923" d="M433 1253l-268 303h81l217 -249h3l217 249h80l-268 -303h-62zM94 801q0 64 28.5 117.5t78.5 91.5t117.5 59.5t145.5 21.5q81 0 148.5 -23t117.5 -65.5t80 -102.5t36 -133h-76q-6 56 -29.5 103t-63 81t-93.5 53t-121 19q-60 0 -113.5 -16t-93 -45t-63 -69t-23.5 -89 q0 -80 55.5 -125.5t170.5 -72.5l167 -41q80 -20 137 -45t93 -59t53 -77.5t17 -98.5q0 -67 -29.5 -122t-82.5 -94.5t-126 -61t-160 -21.5t-159.5 24.5t-126 67.5t-85 101t-35.5 125h78q5 -53 31.5 -99t70 -80t101.5 -53t127 -19q67 0 125.5 16t101.5 46t67.5 72t24.5 93 q0 42 -13.5 75t-43.5 59t-76.5 46t-112.5 36l-173 42q-137 33 -205 95.5t-68 167.5z" />
<glyph unicode="&#x162;" horiz-adv-x="1138" d="M603 0l-58 -141q97 0 152 -40.5t55 -111.5q0 -38 -16 -69t-44.5 -53.5t-68.5 -35t-88 -12.5q-35 -1 -69.5 3.5t-58.5 12.5v56q21 -8 54.5 -12.5t67.5 -4.5t63 8.5t50.5 23.5t33.5 36t12 45q0 50 -41 76t-119 26h-52v43l64 150h-11v1370h-508v73h1096v-73h-508v-1370h-6z " />
<glyph unicode="&#x163;" horiz-adv-x="551" d="M331 -141q97 0 152 -40.5t55 -111.5q0 -38 -16 -69t-44.5 -53.5t-68.5 -35t-88 -12.5q-35 -1 -69.5 3.5t-58.5 12.5v56q21 -8 54.5 -12.5t67.5 -4.5t63 8.5t50.5 23.5t33.5 36t12 45q0 50 -41 76t-119 26h-52v43l66 155q-78 16 -113.5 72.5t-35.5 167.5v764h-158v68h158 v277h77v-277h224v-68h-224v-762q0 -97 37.5 -138.5t118.5 -41.5h15t27.5 0.5t26.5 1t13 0.5v-69q-2 0 -15 -0.5t-28.5 -1t-30 -0.5h-18.5h-14z" />
<glyph unicode="&#x164;" horiz-adv-x="1138" d="M264 1843h83l221 -239h2l221 239h83l-271 -290h-68zM529 0v1370h-508v73h1096v-73h-508v-1370h-80z" />
<glyph unicode="&#x165;" horiz-adv-x="656" d="M467 1619l-15 -385h-53v385h68zM256 1354v-277h224v-68h-224v-762q0 -97 37.5 -138.5t118.5 -41.5h15t27.5 0.5t26.5 1t13 0.5v-69q-2 0 -15 -0.5t-28.5 -1t-30 -0.5h-18.5q-59 0 -101 13.5t-69 43t-40 76.5t-13 114v764h-158v68h158v277h77z" />
<glyph unicode="&#x166;" horiz-adv-x="1149" d="M609 1370v-588h307v-67h-307v-715h-80v715h-295v67h295v588h-508v73h1096v-73h-508z" />
<glyph unicode="&#x167;" horiz-adv-x="552" d="M256 247q0 -97 37.5 -138.5t118.5 -41.5h15t27.5 0.5t26.5 1t13 0.5v-69q-2 0 -15 -0.5t-28.5 -1t-30 -0.5h-18.5q-59 0 -101 13.5t-69 43t-40 76.5t-13 114v353h-158v68h158v343h-158v68h158v277h77v-277h224v-68h-224v-343h224v-68h-224v-351z" />
<glyph unicode="&#x168;" horiz-adv-x="1332" d="M207 504q0 -103 32 -186.5t91.5 -142t144.5 -90.5t192 -32q106 0 191.5 32t145 90.5t91.5 142t32 186.5v939h79v-942q0 -118 -37.5 -214.5t-107.5 -164.5t-170 -105.5t-224 -37.5q-125 0 -224.5 37.5t-169.5 105.5t-107.5 164.5t-37.5 214.5v942h79v-939zM801 1549 q-33 0 -58.5 12t-47 30.5t-40 39.5t-37.5 39.5t-39.5 30.5t-45.5 12q-48 0 -69.5 -42t-21.5 -111h-60q0 48 9.5 87t28 66.5t46.5 43t66 15.5q33 0 59 -12t48 -30.5t41 -39.5t37.5 -39.5t39 -30.5t44.5 -12q48 0 68.5 42.5t20.5 111.5h61q0 -47 -9.5 -86.5t-28.5 -67.5 t-47 -43.5t-65 -15.5z" />
<glyph unicode="&#x169;" horiz-adv-x="1080" d="M960 0h-72v235h-3q-18 -54 -54.5 -100t-87 -79t-111.5 -51.5t-128 -18.5q-87 0 -159 27.5t-123.5 78.5t-80 123.5t-28.5 162.5v699h78v-687q0 -80 23.5 -142t66.5 -104.5t104 -65t135 -22.5q77 0 143.5 26.5t115 76t76.5 119t28 155.5v644h77v-1077zM672 1254 q-33 0 -58.5 12t-47 30.5t-40 39.5t-37.5 39.5t-39.5 30.5t-45.5 12q-48 0 -69.5 -42t-21.5 -111h-60q0 48 9.5 87t28 66.5t46.5 43t66 15.5q33 0 59 -12t48 -30.5t41 -39.5t37.5 -39.5t39 -30.5t44.5 -12q48 0 68.5 42.5t20.5 111.5h61q0 -47 -9.5 -86.5t-28.5 -67.5 t-47 -43.5t-65 -15.5z" />
<glyph unicode="&#x16a;" horiz-adv-x="1332" d="M207 504q0 -103 32 -186.5t91.5 -142t144.5 -90.5t192 -32q106 0 191.5 32t145 90.5t91.5 142t32 186.5v939h79v-942q0 -118 -37.5 -214.5t-107.5 -164.5t-170 -105.5t-224 -37.5q-125 0 -224.5 37.5t-169.5 105.5t-107.5 164.5t-37.5 214.5v942h79v-939zM956 1622h-580 v57h580v-57z" />
<glyph unicode="&#x16b;" horiz-adv-x="1080" d="M960 0h-72v235h-3q-18 -54 -54.5 -100t-87 -79t-111.5 -51.5t-128 -18.5q-87 0 -159 27.5t-123.5 78.5t-80 123.5t-28.5 162.5v699h78v-687q0 -80 23.5 -142t66.5 -104.5t104 -65t135 -22.5q77 0 143.5 26.5t115 76t76.5 119t28 155.5v644h77v-1077zM830 1307h-596v58 h596v-58z" />
<glyph unicode="&#x16c;" horiz-adv-x="1332" d="M207 504q0 -103 32 -186.5t91.5 -142t144.5 -90.5t192 -32q106 0 191.5 32t145 90.5t91.5 142t32 186.5v939h79v-942q0 -118 -37.5 -214.5t-107.5 -164.5t-170 -105.5t-224 -37.5q-125 0 -224.5 37.5t-169.5 105.5t-107.5 164.5t-37.5 214.5v942h79v-939zM458 1789 q0 -38 15 -71t42.5 -57t65.5 -38t85 -14q46 0 84.5 14t66 38t42.5 57t15 71h61q0 -54 -20 -97.5t-56 -74.5t-85.5 -47.5t-107.5 -16.5q-59 0 -108 16.5t-85 47.5t-56 74.5t-20 97.5h61z" />
<glyph unicode="&#x16d;" horiz-adv-x="1080" d="M960 0h-72v235h-3q-18 -54 -54.5 -100t-87 -79t-111.5 -51.5t-128 -18.5q-87 0 -159 27.5t-123.5 78.5t-80 123.5t-28.5 162.5v699h78v-687q0 -80 23.5 -142t66.5 -104.5t104 -65t135 -22.5q77 0 143.5 26.5t115 76t76.5 119t28 155.5v644h77v-1077zM327 1502 q0 -44 15 -80t43 -62t66.5 -40t85.5 -14t85.5 14t66.5 40t43 62t15 80h62q0 -60 -20.5 -107t-56.5 -79.5t-86 -49.5t-109 -17t-109 17t-86 49.5t-56.5 79.5t-20.5 107h62z" />
<glyph unicode="&#x16e;" horiz-adv-x="1332" d="M666 1506q-36 0 -67 13.5t-54.5 37t-37 55t-13.5 67.5t13.5 67.5t37 55t54.5 37t67 13.5t67 -13.5t54.5 -37t37 -55t13.5 -67.5t-13.5 -67.5t-37 -55t-54.5 -37t-67 -13.5zM666 1554q26 0 49 10t39.5 27t26 39.5t9.5 48.5t-9.5 48.5t-26 39.5t-39.5 27t-49 10t-49 -10 t-39.5 -27t-26 -39.5t-9.5 -48.5t9.5 -48.5t26 -39.5t39.5 -27t49 -10zM207 504q0 -103 32 -186.5t91.5 -142t144.5 -90.5t192 -32q106 0 191.5 32t145 90.5t91.5 142t32 186.5v939h79v-942q0 -118 -37.5 -214.5t-107.5 -164.5t-170 -105.5t-224 -37.5q-125 0 -224.5 37.5 t-169.5 105.5t-107.5 164.5t-37.5 214.5v942h79v-939z" />
<glyph unicode="&#x16f;" horiz-adv-x="1080" d="M960 0h-72v235h-3q-18 -54 -54.5 -100t-87 -79t-111.5 -51.5t-128 -18.5q-87 0 -159 27.5t-123.5 78.5t-80 123.5t-28.5 162.5v699h78v-687q0 -80 23.5 -142t66.5 -104.5t104 -65t135 -22.5q77 0 143.5 26.5t115 76t76.5 119t28 155.5v644h77v-1077zM537 1233 q-36 0 -67 13.5t-54.5 37t-37 55t-13.5 67.5t13.5 67.5t37 55t54.5 37t67 13.5t67 -13.5t54.5 -37t37 -55t13.5 -67.5t-13.5 -67.5t-37 -55t-54.5 -37t-67 -13.5zM537 1281q26 0 49 10t39.5 27t26 39.5t9.5 48.5t-9.5 48.5t-26 39.5t-39.5 27t-49 10t-49 -10t-39.5 -27 t-26 -39.5t-9.5 -48.5t9.5 -48.5t26 -39.5t39.5 -27t49 -10z" />
<glyph unicode="&#x170;" horiz-adv-x="1332" d="M207 504q0 -103 32 -186.5t91.5 -142t144.5 -90.5t192 -32q106 0 191.5 32t145 90.5t91.5 142t32 186.5v939h79v-942q0 -118 -37.5 -214.5t-107.5 -164.5t-170 -105.5t-224 -37.5q-125 0 -224.5 37.5t-169.5 105.5t-107.5 164.5t-37.5 214.5v942h79v-939zM769 1553 l280 290h92l-297 -290h-75zM502 1553l280 290h93l-298 -290h-75z" />
<glyph unicode="&#x171;" horiz-adv-x="1080" d="M849 1555h92l-247 -303h-71zM605 1555h92l-247 -303h-71zM960 0h-72v235h-3q-18 -54 -54.5 -100t-87 -79t-111.5 -51.5t-128 -18.5q-87 0 -159 27.5t-123.5 78.5t-80 123.5t-28.5 162.5v699h78v-687q0 -80 23.5 -142t66.5 -104.5t104 -65t135 -22.5q77 0 143.5 26.5 t115 76t76.5 119t28 155.5v644h77v-1077z" />
<glyph unicode="&#x172;" horiz-adv-x="1334" d="M869 -412q-44 0 -80.5 14t-63 38.5t-41 59t-14.5 75.5q0 63 30 114.5t97 103.5v4q-60 -18 -130 -18q-123 0 -223 36.5t-170 104.5t-108 164.5t-38 216.5v942h79v-939q0 -102 33 -185t93 -142.5t145 -91.5t189 -32q103 0 188 32.5t145.5 91.5t93.5 142.5t33 184.5v939h79 v-942q0 -86 -17.5 -155t-53 -126.5t-90 -106.5t-127.5 -95q-81 -54 -128 -108.5t-47 -122.5q0 -29 10.5 -53.5t30 -42t45.5 -27.5t58 -10q5 0 14 0.5t14 1.5v-63q-6 -2 -22 -3.5t-24 -1.5z" />
<glyph unicode="&#x173;" horiz-adv-x="1080" d="M960 -409q-5 -2 -18.5 -2.5t-20.5 -0.5q-44 0 -80.5 14t-62.5 38.5t-40.5 59.5t-14.5 77q0 70 40 128.5t124 111.5v213h-4q-21 -57 -57 -102.5t-85 -77t-108.5 -48t-127.5 -16.5q-89 0 -161 28t-123.5 79t-79.5 122.5t-28 159.5v702h78v-684q0 -77 23.5 -139.5t66 -106.5 t103.5 -67.5t136 -23.5q80 0 146.5 28t114.5 78.5t75 120.5t27 154v640h77v-1075q-87 -52 -125 -101.5t-38 -112.5q0 -60 39 -97t102 -37h12t10 1v-64v0z" />
<glyph unicode="&#x174;" horiz-adv-x="1803" d="M935 1843l271 -290h-83l-221 238h-2l-221 -238h-83l271 290h68zM515 0h-70l-403 1443h82l356 -1306h5l379 1306h74l380 -1306h5l355 1306h83l-403 -1443h-70l-384 1295h-5z" />
<glyph unicode="&#x175;" horiz-adv-x="1430" d="M1014 1253h-80l-217 249h-3l-217 -249h-81l268 303h62zM1108 0h-91l-301 976h-2l-301 -976h-91l-314 1077h82l277 -990h3l301 990h88l301 -990h3l277 990h82z" />
<glyph unicode="&#x176;" horiz-adv-x="1172" d="M547 0v629l-525 814h93l469 -733h5l469 733h92l-524 -814v-629h-79zM620 1843l271 -290h-83l-221 238h-2l-221 -238h-83l271 290h68z" />
<glyph unicode="&#x177;" horiz-adv-x="919" d="M186 -354q-15 0 -30.5 3.5t-23.5 5.5v69q9 -3 25 -5.5t31 -2.5q36 0 65 11t53 34.5t44.5 61.5t41.5 92l27 70l-412 1092h83l369 -1001h2l369 1001h82l-417 -1111q-36 -97 -67.5 -159t-66 -98t-76.5 -49.5t-99 -13.5zM759 1252h-80l-217 249h-3l-217 -249h-81l268 303h62z " />
<glyph unicode="&#x178;" horiz-adv-x="1172" d="M547 0v629l-525 814h93l469 -733h5l469 733h92l-524 -814v-629h-79zM434 1563q-28 0 -48 19.5t-20 47.5q0 27 20 46.5t48 19.5q27 0 47 -19.5t20 -46.5q0 -28 -20 -47.5t-47 -19.5zM738 1563q-27 0 -47 19.5t-20 47.5q0 27 20 46.5t47 19.5q28 0 48 -19.5t20 -46.5 q0 -28 -20 -47.5t-48 -19.5z" />
<glyph unicode="&#x179;" horiz-adv-x="1173" d="M541 1553l279 290h96l-297 -290h-78zM71 62l925 1303v5h-896v73h997v-62l-923 -1303v-5h928v-73h-1031v62z" />
<glyph unicode="&#x17a;" horiz-adv-x="928" d="M410 1252l230 303h93l-249 -303h-74zM66 65l704 942v2h-704v68h795v-66l-705 -941v-2h706v-68h-796v65z" />
<glyph unicode="&#x17b;" horiz-adv-x="1173" d="M587 1563q-32 0 -54.5 22t-22.5 54t22.5 54t54.5 22t54.5 -22t22.5 -54t-22.5 -54t-54.5 -22zM71 62l925 1303v5h-896v73h997v-62l-923 -1303v-5h928v-73h-1031v62z" />
<glyph unicode="&#x17c;" horiz-adv-x="928" d="M464 1255q-32 0 -55 22.5t-23 54.5t23 54.5t55 22.5t55 -22.5t23 -54.5t-23 -54.5t-55 -22.5zM66 65l704 942v2h-704v68h795v-66l-705 -941v-2h706v-68h-796v65z" />
<glyph unicode="&#x17d;" horiz-adv-x="1173" d="M71 62l925 1303v5h-896v73h997v-62l-923 -1303v-5h928v-73h-1031v62zM282 1843h83l221 -239h2l221 239h83l-271 -290h-68z" />
<glyph unicode="&#x17e;" horiz-adv-x="928" d="M433 1252l-268 303h81l217 -249h3l217 249h80l-268 -303h-62zM66 65l704 942v2h-704v68h795v-66l-705 -941v-2h706v-68h-796v65z" />
<glyph unicode="&#x192;" horiz-adv-x="1192" d="M1149 1355q-13 8 -32 15t-40.5 12t-45.5 8t-48 3q-122 0 -190.5 -66.5t-92.5 -213.5l-48 -289h416v-68h-427l-72 -429q-30 -178 -115.5 -262.5t-236.5 -84.5q-23 0 -47.5 3t-48 8t-44 11.5t-34.5 14.5v76q15 -9 35 -16.5t42.5 -13.5t46.5 -9t45 -3q60 0 106.5 16.5 t80.5 51.5t56.5 89t35.5 128l70 420h-396v68h408l49 296q30 177 116.5 260.5t238.5 83.5q24 0 48.5 -2.5t48 -7.5t43 -11.5t32.5 -13.5v-74z" />
<glyph unicode="&#x1a0;" horiz-adv-x="1458" d="M710 1390q-129 0 -232.5 -47t-177 -134t-113 -210.5t-39.5 -276.5t39.5 -276.5t113 -211t177.5 -134.5t232 -47q129 0 232.5 47t177 134.5t113 211t39.5 276.5t-39.5 276.5t-113 210.5t-177 134t-232.5 47zM1353 721q0 -172 -44.5 -309.5t-128 -233.5t-202.5 -147.5 t-268 -51.5t-268 51.5t-202.5 147.5t-128 233.5t-44.5 309.5t45 309.5t128.5 234t203 148t268.5 51.5q71 0 128.5 -11.5t105 -28.5t86.5 -37t74.5 -37t69 -28.5t69.5 -11.5q110 0 110 146v141h73v-155q0 -94 -41 -145t-117 -51q-21 0 -49 6.5t-46 16.5l-4 -4 q91 -103 136.5 -239.5t45.5 -304.5z" />
<glyph unicode="&#x1a1;" horiz-adv-x="1179" d="M543 56q92 0 166 34t126.5 97t81 152t28.5 199t-28.5 199t-81 152t-126.5 97t-166 34t-165.5 -34t-126 -97t-80.5 -152t-28 -199t28 -199t80.5 -152t126 -97t165.5 -34zM1024 538q0 -126 -34 -228t-96.5 -174t-151.5 -111t-198 -39q-110 0 -198.5 39t-151 111 t-96.5 174.5t-34 228.5q0 127 34 229t97 174t152.5 110.5t200.5 38.5q64 0 113 -12t87.5 -30.5t68.5 -39.5t57 -39.5t54 -30.5t58 -12q59 0 86 35.5t27 111.5v139h73v-153q0 -95 -45.5 -147t-128.5 -52q-11 0 -25.5 2.5t-24.5 7.5l-2 -2q-1 -1 -2 -1q39 -66 59.5 -149.5 t20.5 -180.5z" />
<glyph unicode="&#x1af;" horiz-adv-x="1502" d="M1206 1320q3 -3 13.5 -5.5t23.5 -4t24.5 -2t15.5 -0.5q75 0 108 37t33 122v127h73v-145q0 -102 -52 -155t-153 -53q-5 0 -18 0.5t-26.5 2t-25.5 4t-16 5.5v-752q0 -120 -38 -216.5t-108.5 -164.5t-170 -104.5t-222.5 -36.5t-223 36.5t-170 104.5t-108 164.5t-38 216.5 v942h79v-939q0 -102 33 -185t93 -142.5t145 -91.5t189 -32t189 32t145 91.5t93 142.5t33 185v939h79v-123v0z" />
<glyph unicode="&#x1b0;" horiz-adv-x="1250" d="M883 230q-21 -57 -57 -102.5t-85 -77t-108.5 -48t-127.5 -16.5q-89 0 -161 28t-123.5 79t-79.5 122.5t-28 159.5v702h78v-684q0 -77 23 -139t66 -106t104 -68t136 -24q80 0 146.5 28t114.5 78.5t75 120.5t27 154v640h77v-141q3 -2 12 -4t20 -3.5t20.5 -2t13.5 -0.5 q75 0 108 37.5t33 122.5v127h73v-145q0 -102 -51.5 -155t-152.5 -53q-5 0 -16.5 0.5t-23.5 2t-22 3.5t-14 5v-871h-73v230h-4v0z" />
<glyph unicode="&#x1c4;" horiz-adv-x="2505" d="M577 1443q164 0 292 -48.5t216 -140.5t134 -226t46 -306t-46 -306.5t-134 -226.5t-216 -140.5t-292 -48.5h-449v1443h449zM208 73h365q147 0 261 43t192 125.5t118.5 203t40.5 276.5t-40.5 277t-118.5 203.5t-192 125.5t-261 43h-365v-1297zM1403 62l925 1303v5h-896v73 h997v-62l-923 -1303v-5h928v-73h-1031v62zM1614 1843h83l221 -239h2l221 239h83l-271 -290h-68z" />
<glyph unicode="&#x1c5;" horiz-adv-x="2260" d="M577 1443q164 0 292 -48.5t216 -140.5t134 -226t46 -306t-46 -306.5t-134 -226.5t-216 -140.5t-292 -48.5h-449v1443h449zM208 73h365q147 0 261 43t192 125.5t118.5 203t40.5 276.5t-40.5 277t-118.5 203.5t-192 125.5t-261 43h-365v-1297zM1765 1252l-268 303h81 l217 -249h3l217 249h80l-268 -303h-62zM1398 65l704 942v2h-704v68h795v-66l-705 -941v-2h706v-68h-796v65z" />
<glyph unicode="&#x1c6;" horiz-adv-x="2064" d="M525 -14q-101 0 -185.5 40t-145.5 113t-95 174.5t-34 224.5t34 225t94.5 175t145 113t185.5 40q75 0 140.5 -23t118 -63t89.5 -94.5t55 -117.5h2v713h78v-1506h-73v290h-3q-19 -65 -56.5 -121t-90 -96.5t-118.5 -63.5t-141 -23zM534 1020q-86 0 -158 -35t-123.5 -98 t-80 -151.5t-28.5 -196.5t28.5 -197t80 -152.5t123.5 -98.5t158 -35q87 0 159.5 35.5t125 99t82 152t29.5 195.5t-29.5 195.5t-82 152.5t-125 99t-159.5 35zM1569 1252l-268 303h81l217 -249h3l217 249h80l-268 -303h-62zM1202 65l704 942v2h-704v68h795v-66l-705 -941v-2 h706v-68h-796v65z" />
<glyph unicode="&#x1c7;" horiz-adv-x="1968" d="M1136 320q3 -60 27 -109.5t64.5 -85t95 -55.5t119.5 -20q75 0 134 22.5t100.5 66t63 106.5t21.5 144v1054h80v-1058q0 -94 -27.5 -169.5t-78.5 -129t-125 -82t-167 -28.5q-83 0 -152.5 25.5t-120.5 71t-80.5 109t-31.5 138.5h78zM964 0h-836v1443h79v-1370h757v-73z" />
<glyph unicode="&#x1c8;" horiz-adv-x="1354" d="M1224 -80q0 -74 -17.5 -126t-52 -85t-87 -48.5t-121.5 -15.5h-30v69h27q106 0 154.5 47t48.5 155v1161h78v-1157zM1185 1341q-26 0 -44 17.5t-18 43.5t18 44t44 18t44.5 -18t18.5 -44t-18.5 -43.5t-44.5 -17.5zM964 0h-836v1443h79v-1370h757v-73z" />
<glyph unicode="&#x1c9;" horiz-adv-x="673" d="M543 -80q0 -74 -17.5 -126t-52 -85t-87 -48.5t-121.5 -15.5h-30v69h27q106 0 154.5 47t48.5 155v1161h78v-1157zM504 1341q-26 0 -44 17.5t-18 43.5t18 44t44 18t44.5 -18t18.5 -44t-18.5 -43.5t-44.5 -17.5zM129 1506h78v-1506h-78v1506z" />
<glyph unicode="&#x1ca;" horiz-adv-x="2293" d="M1460 320q3 -60 27 -109.5t64.5 -85t95 -55.5t119.5 -20q75 0 134 22.5t100.5 66t63 106.5t21.5 144v1054h80v-1058q0 -94 -27.5 -169.5t-78.5 -129t-125 -82t-167 -28.5q-83 0 -152.5 25.5t-120.5 71t-80.5 109t-31.5 138.5h78zM128 0v1443h82l919 -1299h6v1299h79 v-1443h-75l-927 1307h-6v-1307h-78z" />
<glyph unicode="&#x1cb;" horiz-adv-x="1678" d="M1548 -80q0 -74 -17.5 -126t-52 -85t-87 -48.5t-121.5 -15.5h-30v69h27q106 0 154.5 47t48.5 155v1161h78v-1157zM1509 1341q-26 0 -44 17.5t-18 43.5t18 44t44 18t44.5 -18t18.5 -44t-18.5 -43.5t-44.5 -17.5zM128 0v1443h82l919 -1299h6v1299h79v-1443h-75l-927 1307 h-6v-1307h-78z" />
<glyph unicode="&#x1cc;" horiz-adv-x="1416" d="M1287 -80q0 -74 -17.5 -126t-52 -85t-87 -48.5t-121.5 -15.5h-30v69h27q106 0 154.5 47t48.5 155v1161h78v-1157zM1248 1341q-26 0 -44 17.5t-18 43.5t18 44t44 18t44.5 -18t18.5 -44t-18.5 -43.5t-44.5 -17.5zM119 1077h73v-237h3q19 57 54 103t83.5 79t108.5 51t129 18 q89 0 162 -28t125.5 -79.5t81 -124.5t28.5 -164v-695h-78v686q0 78 -24 140t-68.5 105t-106.5 66t-137 23q-79 0 -144.5 -27.5t-112.5 -78t-73 -120t-26 -153.5v-641h-78v1077z" />
<glyph unicode="&#x1cd;" horiz-adv-x="1221" d="M935 481h-649l-179 -481h-86l550 1443h80l549 -1443h-85zM312 552h598l-297 788h-5zM306 1843h83l221 -239h2l221 239h83l-271 -290h-68z" />
<glyph unicode="&#x1ce;" horiz-adv-x="1030" d="M453 55q81 0 151.5 27t123 73.5t82.5 109t30 134.5v161l-359 -27q-155 -11 -236 -72.5t-81 -170.5q0 -51 21.5 -94.5t60 -74.5t91.5 -48.5t116 -17.5zM443 -14q-79 0 -144.5 22t-113 62.5t-73.5 96t-26 123.5q0 139 97 216.5t288 91.5l369 27v96q0 70 -21 126t-60.5 94 t-96.5 58.5t-130 20.5q-138 0 -224 -66.5t-106 -189.5h-75q7 75 39.5 135t85.5 103t124.5 66t156.5 23q88 0 159.5 -25.5t121 -72.5t76.5 -115t27 -152v-726h-75v232h-2q-20 -55 -58.5 -100t-91 -77.5t-115.5 -50.5t-132 -18zM501 1253l-268 303h81l217 -249h3l217 249h80 l-268 -303h-62z" />
<glyph unicode="&#x1cf;" horiz-adv-x="335" d="M128 0v1443h79v-1443h-79zM-138 1843h83l221 -239h2l221 239h83l-271 -290h-68z" />
<glyph unicode="&#x1d0;" horiz-adv-x="336" d="M137 1253l-268 303h81l217 -249h3l217 249h80l-268 -303h-62zM129 1077h78v-1077h-78v1077z" />
<glyph unicode="&#x1d1;" horiz-adv-x="1420" d="M405 1843h83l221 -239h2l221 239h83l-271 -290h-68zM710 1464q147 0 266 -52t203 -148.5t129 -234t45 -307.5q0 -171 -45 -308.5t-128.5 -234t-202.5 -148.5t-267 -52t-267 52t-202.5 148.5t-128.5 234t-45 308.5q0 170 45 307.5t129 234t203 148.5t266 52zM710 1390 q-129 0 -232.5 -47t-177 -134t-113 -210.5t-39.5 -276.5t39.5 -277t113 -211t177.5 -134t232 -47q129 0 232.5 47t177 134t113 211t39.5 277t-39.5 276.5t-113 210.5t-177 134t-232.5 47z" />
<glyph unicode="&#x1d2;" horiz-adv-x="1089" d="M513 1252l-268 303h81l217 -249h3l217 249h80l-268 -303h-62zM544 -14q-108 0 -196 38.5t-151 110.5t-97.5 174t-34.5 229t34.5 229.5t97.5 174.5t151.5 110.5t195.5 38.5q108 0 196.5 -38.5t151.5 -110.5t97.5 -174.5t34.5 -229.5t-34.5 -229t-97.5 -174t-151.5 -110.5 t-196.5 -38.5zM544 56q91 0 165 33.5t126.5 96.5t81 152t28.5 200q0 112 -28.5 201t-81 151.5t-126.5 96t-165 33.5t-165 -33.5t-126.5 -96t-81 -151.5t-28.5 -201q0 -111 28.5 -200.5t81 -152t126.5 -96t165 -33.5z" />
<glyph unicode="&#x1d3;" horiz-adv-x="1332" d="M361 1843h83l221 -239h2l221 239h83l-271 -290h-68zM207 504q0 -103 32 -186.5t91.5 -142t144.5 -90.5t192 -32q106 0 191.5 32t145 90.5t91.5 142t32 186.5v939h79v-942q0 -118 -37.5 -214.5t-107.5 -164.5t-170 -105.5t-224 -37.5q-125 0 -224.5 37.5t-169.5 105.5 t-107.5 164.5t-37.5 214.5v942h79v-939z" />
<glyph unicode="&#x1d4;" horiz-adv-x="1080" d="M506 1252l-268 303h81l217 -249h3l217 249h80l-268 -303h-62zM960 0h-72v235h-3q-18 -54 -54.5 -100t-87 -79t-111.5 -51.5t-128 -18.5q-87 0 -159 27.5t-123.5 78.5t-80 123.5t-28.5 162.5v699h78v-687q0 -80 23.5 -142t66.5 -104.5t104 -65t135 -22.5q77 0 143.5 26.5 t115 76t76.5 119t28 155.5v644h77v-1077z" />
<glyph unicode="&#x1d5;" horiz-adv-x="1332" d="M207 504q0 -103 32 -186.5t91.5 -142t144.5 -90.5t192 -32q106 0 191.5 32t145 90.5t91.5 142t32 186.5v939h79v-942q0 -118 -37.5 -214.5t-107.5 -164.5t-170 -105.5t-224 -37.5q-125 0 -224.5 37.5t-169.5 105.5t-107.5 164.5t-37.5 214.5v942h79v-939zM517 1691 q26 0 44.5 -18.5t18.5 -44.5t-18.5 -44.5t-44.5 -18.5t-45 18.5t-19 44.5t19 44.5t45 18.5zM956 1919v-57h-580v57h580zM815 1691q26 0 45 -18.5t19 -44.5t-19 -44.5t-45 -18.5t-44.5 18.5t-18.5 44.5t18.5 44.5t44.5 18.5z" />
<glyph unicode="&#x1d6;" horiz-adv-x="1080" d="M960 0h-72v235h-3q-18 -54 -54.5 -100t-87 -79t-111.5 -51.5t-128 -18.5q-87 0 -159 27.5t-123.5 78.5t-80 123.5t-28.5 162.5v699h78v-687q0 -80 23.5 -142t66.5 -104.5t104 -65t135 -22.5q77 0 143.5 26.5t115 76t76.5 119t28 155.5v644h77v-1077zM385 1255 q-27 0 -46.5 19t-19.5 46t19.5 46t46.5 19t46.5 -19t19.5 -46t-19.5 -46t-46.5 -19zM689 1255q-27 0 -46.5 19t-19.5 46t19.5 46t46.5 19q28 0 47 -19t19 -46t-19 -46t-47 -19zM830 1600h-596v58h596v-58z" />
<glyph unicode="&#x1d7;" horiz-adv-x="1332" d="M824 1979h91l-224 -203h-74zM517 1565q-26 0 -45 18.5t-19 44.5t19 44.5t45 18.5t44.5 -18.5t18.5 -44.5t-18.5 -44.5t-44.5 -18.5zM815 1565q-26 0 -44.5 18.5t-18.5 44.5t18.5 44.5t44.5 18.5t45 -18.5t19 -44.5t-19 -44.5t-45 -18.5zM207 504q0 -103 32 -186.5 t91.5 -142t144.5 -90.5t192 -32q106 0 191.5 32t145 90.5t91.5 142t32 186.5v939h79v-942q0 -118 -37.5 -214.5t-107.5 -164.5t-170 -105.5t-224 -37.5q-125 0 -224.5 37.5t-169.5 105.5t-107.5 164.5t-37.5 214.5v942h79v-939z" />
<glyph unicode="&#x1d8;" horiz-adv-x="1080" d="M712 1813h93l-240 -284h-75zM385 1255q-28 0 -48 19.5t-20 47.5q0 27 20 46.5t48 19.5q27 0 47 -19.5t20 -46.5q0 -28 -20 -47.5t-47 -19.5zM689 1255q-27 0 -47 19.5t-20 47.5q0 27 20 46.5t47 19.5q28 0 48 -19.5t20 -46.5q0 -28 -20 -47.5t-48 -19.5zM960 0h-72v235 h-3q-18 -54 -54.5 -100t-87 -79t-111.5 -51.5t-128 -18.5q-87 0 -159 27.5t-123.5 78.5t-80 123.5t-28.5 162.5v699h78v-687q0 -80 23.5 -142t66.5 -104.5t104 -65t135 -22.5q77 0 143.5 26.5t115 76t76.5 119t28 155.5v644h77v-1077z" />
<glyph unicode="&#x1d9;" horiz-adv-x="1332" d="M365 1979h93l205 -157h6l205 157h93l-266 -203h-70zM517 1691q26 0 44.5 -18.5t18.5 -44.5t-18.5 -44.5t-44.5 -18.5t-45 18.5t-19 44.5t19 44.5t45 18.5zM815 1691q26 0 45 -18.5t19 -44.5t-19 -44.5t-45 -18.5t-44.5 18.5t-18.5 44.5t18.5 44.5t44.5 18.5zM207 504 q0 -103 32 -186.5t91.5 -142t144.5 -90.5t192 -32q106 0 191.5 32t145 90.5t91.5 142t32 186.5v939h79v-942q0 -118 -37.5 -214.5t-107.5 -164.5t-170 -105.5t-224 -37.5q-125 0 -224.5 37.5t-169.5 105.5t-107.5 164.5t-37.5 214.5v942h79v-939z" />
<glyph unicode="&#x1da;" horiz-adv-x="1080" d="M385 1255q-28 0 -48 19.5t-20 47.5q0 27 20 46.5t48 19.5q27 0 47 -19.5t20 -46.5q0 -28 -20 -47.5t-47 -19.5zM689 1255q-27 0 -47 19.5t-20 47.5q0 27 20 46.5t47 19.5q28 0 48 -19.5t20 -46.5q0 -28 -20 -47.5t-48 -19.5zM500 1529l-264 284h80l219 -237h4l219 237h80 l-264 -284h-74zM960 0h-72v235h-3q-18 -54 -54.5 -100t-87 -79t-111.5 -51.5t-128 -18.5q-87 0 -159 27.5t-123.5 78.5t-80 123.5t-28.5 162.5v699h78v-687q0 -80 23.5 -142t66.5 -104.5t104 -65t135 -22.5q77 0 143.5 26.5t115 76t76.5 119t28 155.5v644h77v-1077z" />
<glyph unicode="&#x1db;" horiz-adv-x="1332" d="M641 1776l-224 203h91l207 -203h-74zM517 1565q-26 0 -45 18.5t-19 44.5t19 44.5t45 18.5t44.5 -18.5t18.5 -44.5t-18.5 -44.5t-44.5 -18.5zM815 1565q-26 0 -44.5 18.5t-18.5 44.5t18.5 44.5t44.5 18.5t45 -18.5t19 -44.5t-19 -44.5t-45 -18.5zM207 504 q0 -103 32 -186.5t91.5 -142t144.5 -90.5t192 -32q106 0 191.5 32t145 90.5t91.5 142t32 186.5v939h79v-942q0 -118 -37.5 -214.5t-107.5 -164.5t-170 -105.5t-224 -37.5q-125 0 -224.5 37.5t-169.5 105.5t-107.5 164.5t-37.5 214.5v942h79v-939z" />
<glyph unicode="&#x1dc;" horiz-adv-x="1080" d="M509 1529l-240 284h93l222 -284h-75zM385 1255q-28 0 -48 19.5t-20 47.5q0 27 20 46.5t48 19.5q27 0 47 -19.5t20 -46.5q0 -28 -20 -47.5t-47 -19.5zM689 1255q-27 0 -47 19.5t-20 47.5q0 27 20 46.5t47 19.5q28 0 48 -19.5t20 -46.5q0 -28 -20 -47.5t-48 -19.5zM960 0 h-72v235h-3q-18 -54 -54.5 -100t-87 -79t-111.5 -51.5t-128 -18.5q-87 0 -159 27.5t-123.5 78.5t-80 123.5t-28.5 162.5v699h78v-687q0 -80 23.5 -142t66.5 -104.5t104 -65t135 -22.5q77 0 143.5 26.5t115 76t76.5 119t28 155.5v644h77v-1077z" />
<glyph unicode="&#x1de;" horiz-adv-x="1221" d="M935 481h-649l-179 -481h-86l550 1443h80l549 -1443h-85zM312 552h598l-297 788h-5zM462 1691q26 0 44.5 -18.5t18.5 -44.5t-18.5 -44.5t-44.5 -18.5t-45 18.5t-19 44.5t19 44.5t45 18.5zM901 1919v-57h-580v57h580zM760 1691q26 0 45 -18.5t19 -44.5t-19 -44.5 t-45 -18.5t-44.5 18.5t-18.5 44.5t18.5 44.5t44.5 18.5z" />
<glyph unicode="&#x1df;" horiz-adv-x="1030" d="M453 55q81 0 151.5 27t123 73.5t82.5 109t30 134.5v161l-359 -27q-155 -11 -236 -72.5t-81 -170.5q0 -51 21.5 -94.5t60 -74.5t91.5 -48.5t116 -17.5zM443 -14q-79 0 -144.5 22t-113 62.5t-73.5 96t-26 123.5q0 139 97 216.5t288 91.5l369 27v96q0 70 -21 126t-60.5 94 t-96.5 58.5t-130 20.5q-138 0 -224 -66.5t-106 -189.5h-75q7 75 39.5 135t85.5 103t124.5 66t156.5 23q88 0 159.5 -25.5t121 -72.5t76.5 -115t27 -152v-726h-75v232h-2q-20 -55 -58.5 -100t-91 -77.5t-115.5 -50.5t-132 -18zM380 1256q-27 0 -46.5 19t-19.5 46t19.5 46 t46.5 19t46.5 -19t19.5 -46t-19.5 -46t-46.5 -19zM684 1256q-27 0 -46.5 19t-19.5 46t19.5 46t46.5 19q28 0 47 -19t19 -46t-19 -46t-47 -19zM825 1601h-596v58h596v-58z" />
<glyph unicode="&#x1e0;" horiz-adv-x="1221" d="M935 481h-649l-179 -481h-86l550 1443h80l549 -1443h-85zM312 552h598l-297 788h-5zM611 1560q-31 0 -53.5 22t-22.5 53t22.5 53t53.5 22t53.5 -22t22.5 -53t-22.5 -53t-53.5 -22zM901 1862h-580v57h580v-57z" />
<glyph unicode="&#x1e1;" horiz-adv-x="1030" d="M453 55q81 0 151.5 27t123 73.5t82.5 109t30 134.5v161l-359 -27q-155 -11 -236 -72.5t-81 -170.5q0 -51 21.5 -94.5t60 -74.5t91.5 -48.5t116 -17.5zM443 -14q-79 0 -144.5 22t-113 62.5t-73.5 96t-26 123.5q0 139 97 216.5t288 91.5l369 27v96q0 70 -21 126t-60.5 94 t-96.5 58.5t-130 20.5q-138 0 -224 -66.5t-106 -189.5h-75q7 75 39.5 135t85.5 103t124.5 66t156.5 23q88 0 159.5 -25.5t121 -72.5t76.5 -115t27 -152v-726h-75v232h-2q-20 -55 -58.5 -100t-91 -77.5t-115.5 -50.5t-132 -18zM532 1256q-32 0 -54.5 22.5t-22.5 54.5 q0 31 22.5 53.5t54.5 22.5t54.5 -22.5t22.5 -53.5q0 -32 -22.5 -54.5t-54.5 -22.5zM825 1601h-596v58h596v-58z" />
<glyph unicode="&#x1e2;" horiz-adv-x="1908" d="M374 492h625v881h-184zM999 422h-659l-210 -422h-84l722 1443h1021v-73h-712v-597h676v-72h-676v-628h712v-73h-790v422zM1621 1622h-580v57h580v-57z" />
<glyph unicode="&#x1e3;" horiz-adv-x="1830" d="M1318 -14q-155 0 -265.5 77t-160.5 226h-6q-22 -71 -63.5 -127t-97.5 -95t-125 -60t-147 -21q-83 0 -150.5 22t-115.5 61.5t-74.5 94.5t-26.5 122q0 133 96 207.5t285 85.5l373 24v127q0 68 -22 122t-62.5 91.5t-98.5 57t-130 19.5q-69 0 -126 -17.5t-100 -50.5 t-69.5 -80.5t-34.5 -107.5h-76q7 74 39.5 134.5t85.5 103t124 66t156 23.5q75 0 139.5 -19.5t113.5 -56t79.5 -90t37.5 -121.5h6q22 63 60.5 115.5t91 91t118.5 59.5t144 21q103 0 186.5 -36.5t141.5 -103.5t89.5 -161.5t31.5 -211.5v-46h-848v-9q0 -106 28.5 -192.5 t81 -147.5t126.5 -94t166 -33q72 0 131.5 18.5t104 51t74 77.5t41.5 98h79q-14 -68 -50 -126t-91.5 -100t-129 -65.5t-160.5 -23.5zM1312 1021q-85 0 -155.5 -30.5t-122 -86t-82 -133.5t-34.5 -173h768q0 95 -27 173t-75.5 133.5t-117.5 86t-154 30.5zM454 55q81 0 151 27 t122.5 74t82.5 110.5t30 136.5v134l-362 -23q-155 -10 -234.5 -67.5t-79.5 -159.5q0 -51 21 -93.5t59 -73t91.5 -48t118.5 -17.5zM1217 1308h-596v58h596v-58z" />
<glyph unicode="&#x1e6;" horiz-adv-x="1358" d="M394 1843h83l221 -239h2l221 239h83l-271 -290h-68zM1281 571q0 -138 -40 -248t-115 -186.5t-183 -117t-244 -40.5q-141 0 -257.5 54.5t-199.5 153t-129 237t-46 306.5q0 166 45.5 301.5t128 231.5t199 148.5t259.5 52.5q109 0 204.5 -31.5t170.5 -89t126.5 -138 t71.5 -178.5h-81q-21 83 -66.5 150t-109.5 114.5t-144.5 73t-171.5 25.5q-125 0 -227 -47t-174 -133t-111 -207.5t-39 -271.5q0 -152 40 -277t112.5 -214t174 -138t224.5 -49q116 0 209 35.5t158.5 101t100.5 159t35 210.5v83h-503v72h582v-143z" />
<glyph unicode="&#x1e7;" horiz-adv-x="1119" d="M527 1253l-268 303h81l217 -249h3l217 249h80l-268 -303h-62zM529 59q87 0 159.5 35t124 98.5t80.5 152t29 194.5t-29 194.5t-80.5 152.5t-124 99t-159.5 35q-86 0 -157 -35t-121.5 -98.5t-78.5 -152t-28 -195.5t28 -195.5t78.5 -151.5t121.5 -98t157 -35zM545 -361 q-86 0 -158 18t-126 50.5t-88.5 78t-45.5 101.5h81q10 -39 38.5 -72t73 -57t103 -37t127.5 -13q82 0 150.5 20t118 58t76.5 92.5t27 123.5v285h-2q-18 -63 -55 -118t-89 -95t-117 -63t-139 -23q-102 0 -185.5 40t-143.5 112.5t-93 174t-33 224.5t33 225t93 174.5t144 112.5 t186 40q74 0 139 -23t117.5 -63.5t90 -96t56.5 -119.5h3v288h73v-1070q0 -87 -33.5 -155.5t-93.5 -116t-143.5 -72t-184.5 -24.5z" />
<glyph unicode="&#x1e8;" horiz-adv-x="1142" d="M128 0v1443h79v-806h6l750 806h101l-594 -636l660 -807h-101l-615 751l-207 -223v-528h-79zM239 1843h83l221 -239h2l221 239h83l-271 -290h-68z" />
<glyph unicode="&#x1e9;" horiz-adv-x="938" d="M817 1077h102l-507 -464l511 -613h-95l-474 565l-147 -132v-433h-78v1506h78v-982h1zM-137 1906h83l221 -239h2l221 239h83l-271 -290h-68z" />
<glyph unicode="&#x1ea;" horiz-adv-x="1420" d="M971 -407q-3 -1 -9 -2t-12.5 -1.5l-13 -1t-10.5 -0.5q-44 0 -81 14t-63.5 38.5t-41 59t-14.5 76.5q0 63 30.5 116t95.5 101v4q-29 -9 -66.5 -13.5t-75.5 -4.5q-149 0 -268.5 51.5t-202.5 147.5t-127.5 233.5t-44.5 310.5q0 172 45 309.5t128 233.5t202 147.5t268 51.5 t268 -51.5t202.5 -147.5t128 -233.5t44.5 -309.5q0 -109 -16 -195t-43 -154t-63 -120t-77 -93t-84 -72.5t-84 -58.5q-87 -59 -136.5 -116.5t-49.5 -124.5q0 -60 39.5 -97t103.5 -37q5 0 15.5 0.5t12.5 1.5v-63zM710 1390q-129 0 -232.5 -47t-177 -134t-113 -210.5 t-39.5 -276.5t39.5 -277t113 -211t177 -134t232.5 -47t232.5 47t177 134t113 211t39.5 277t-39.5 276.5t-113 210.5t-177 134t-232.5 47z" />
<glyph unicode="&#x1eb;" horiz-adv-x="1089" d="M714 -412q-42 0 -78.5 15t-62.5 41t-41 62t-15 78q0 58 29.5 111.5t86.5 96.5v4q-15 -5 -41 -7.5t-48 -2.5q-110 0 -198.5 39t-151 111t-96.5 174t-34 228t34 228.5t96.5 174.5t151 111t198.5 39q109 0 198 -39t151.5 -111t96.5 -174.5t34 -228.5q0 -173 -59.5 -294 t-180.5 -199q-102 -67 -148 -126.5t-46 -125.5q0 -31 10.5 -56.5t29.5 -44t45 -28.5t57 -10q5 0 16.5 0.5t15.5 1.5v-62q-3 -1 -9.5 -2t-14 -2t-15 -1.5t-11.5 -0.5zM544 56q91 0 165.5 34t126.5 97t80.5 152t28.5 199t-28.5 199t-80.5 152t-126.5 97t-165.5 34 q-92 0 -166 -34t-126.5 -97t-80.5 -152t-28 -199t28 -199t80.5 -152t126.5 -97t166 -34z" />
<glyph unicode="&#x1ec;" horiz-adv-x="1420" d="M971 -407q-3 -1 -9 -2t-12.5 -1.5l-13 -1t-10.5 -0.5q-44 0 -81 14t-63.5 38.5t-41 59t-14.5 76.5q0 63 30.5 116t95.5 101v4q-29 -9 -66.5 -13.5t-75.5 -4.5q-149 0 -268.5 51.5t-202.5 147.5t-127.5 233.5t-44.5 310.5q0 172 45 309.5t128 233.5t202 147.5t268 51.5 t268 -51.5t202.5 -147.5t128 -233.5t44.5 -309.5q0 -109 -16 -195t-43 -154t-63 -120t-77 -93t-84 -72.5t-84 -58.5q-87 -59 -136.5 -116.5t-49.5 -124.5q0 -60 39.5 -97t103.5 -37q5 0 15.5 0.5t12.5 1.5v-63zM710 1390q-129 0 -232.5 -47t-177 -134t-113 -210.5 t-39.5 -276.5t39.5 -277t113 -211t177 -134t232.5 -47t232.5 47t177 134t113 211t39.5 277t-39.5 276.5t-113 210.5t-177 134t-232.5 47zM1000 1622h-580v57h580v-57z" />
<glyph unicode="&#x1ed;" horiz-adv-x="1089" d="M837 1307h-596v58h596v-58zM714 -412q-42 0 -78.5 15t-62.5 41t-41 62t-15 78q0 58 29.5 111.5t86.5 96.5v4q-15 -5 -41 -7.5t-48 -2.5q-110 0 -198.5 39t-151 111t-96.5 174t-34 228t34 228.5t96.5 174.5t151 111t198.5 39q109 0 198 -39t151.5 -111t96.5 -174.5 t34 -228.5q0 -173 -59.5 -294t-180.5 -199q-102 -67 -148 -126.5t-46 -125.5q0 -31 10.5 -56.5t29.5 -44t45 -28.5t57 -10q5 0 16.5 0.5t15.5 1.5v-62q-3 -1 -9.5 -2t-14 -2t-15 -1.5t-11.5 -0.5zM544 56q91 0 165.5 34t126.5 97t80.5 152t28.5 199t-28.5 199t-80.5 152 t-126.5 97t-165.5 34q-92 0 -166 -34t-126.5 -97t-80.5 -152t-28 -199t28 -199t80.5 -152t126.5 -97t166 -34z" />
<glyph unicode="&#x1f1;" horiz-adv-x="2505" d="M1403 62l925 1303v5h-896v73h997v-62l-923 -1303v-5h928v-73h-1031v62zM577 1443q164 0 292 -48.5t216 -140.5t134 -226t46 -306t-46 -306.5t-134 -226.5t-216 -140.5t-292 -48.5h-449v1443h449zM208 73h365q147 0 261 43t192 125.5t118.5 203t40.5 276.5t-40.5 277 t-118.5 203.5t-192 125.5t-261 43h-365v-1297z" />
<glyph unicode="&#x1f2;" horiz-adv-x="2260" d="M1398 65l704 942v2h-704v68h795v-66l-705 -941v-2h706v-68h-796v65zM577 1443q164 0 292 -48.5t216 -140.5t134 -226t46 -306t-46 -306.5t-134 -226.5t-216 -140.5t-292 -48.5h-449v1443h449zM208 73h365q147 0 261 43t192 125.5t118.5 203t40.5 276.5t-40.5 277 t-118.5 203.5t-192 125.5t-261 43h-365v-1297z" />
<glyph unicode="&#x1f3;" horiz-adv-x="2064" d="M1202 65l704 942v2h-704v68h795v-66l-705 -941v-2h706v-68h-796v65zM525 -14q-101 0 -185.5 40t-145.5 113t-95 174.5t-34 224.5t34 225t94.5 175t145 113t185.5 40q75 0 140.5 -23t118 -63t89.5 -94.5t55 -117.5h2v713h78v-1506h-73v290h-3q-19 -65 -56.5 -121 t-90 -96.5t-118.5 -63.5t-141 -23zM534 1020q-86 0 -158 -35t-123.5 -98t-80 -151.5t-28.5 -196.5t28.5 -197t80 -152.5t123.5 -98.5t158 -35q87 0 159.5 35.5t125 99t82 152t29.5 195.5t-29.5 195.5t-82 152.5t-125 99t-159.5 35z" />
<glyph unicode="&#x1f4;" horiz-adv-x="1358" d="M653 1553l279 290h96l-297 -290h-78zM1281 571q0 -138 -40 -248t-115 -186.5t-183 -117t-244 -40.5q-141 0 -257.5 54.5t-199.5 153t-129 237t-46 306.5q0 166 45.5 301.5t128 231.5t199 148.5t259.5 52.5q109 0 204.5 -31.5t170.5 -89t126.5 -138t71.5 -178.5h-81 q-21 83 -66.5 150t-109.5 114.5t-144.5 73t-171.5 25.5q-125 0 -227 -47t-174 -133t-111 -207.5t-39 -271.5q0 -152 40 -277t112.5 -214t174 -138t224.5 -49q116 0 209 35.5t158.5 101t100.5 159t35 210.5v83h-503v72h582v-143z" />
<glyph unicode="&#x1f5;" horiz-adv-x="1119" d="M504 1253l230 303h93l-249 -303h-74zM529 59q87 0 159.5 35t124 98.5t80.5 152t29 194.5t-29 194.5t-80.5 152.5t-124 99t-159.5 35q-86 0 -157 -35t-121.5 -98.5t-78.5 -152t-28 -195.5t28 -195.5t78.5 -151.5t121.5 -98t157 -35zM545 -361q-86 0 -158 18t-126 50.5 t-88.5 78t-45.5 101.5h81q10 -39 38.5 -72t73 -57t103 -37t127.5 -13q82 0 150.5 20t118 58t76.5 92.5t27 123.5v285h-2q-18 -63 -55 -118t-89 -95t-117 -63t-139 -23q-102 0 -185.5 40t-143.5 112.5t-93 174t-33 224.5t33 225t93 174.5t144 112.5t186 40q74 0 139 -23 t117.5 -63.5t90 -96t56.5 -119.5h3v288h73v-1070q0 -87 -33.5 -155.5t-93.5 -116t-143.5 -72t-184.5 -24.5z" />
<glyph unicode="&#x1f8;" horiz-adv-x="1341" d="M343 1843h95l280 -290h-78zM128 0v1443h82l919 -1299h6v1299h79v-1443h-75l-927 1307h-6v-1307h-78z" />
<glyph unicode="&#x1f9;" horiz-adv-x="1080" d="M523 1253l-249 303h93l230 -303h-74zM119 1077h73v-237h3q19 57 54 103t83.5 79t108.5 51t129 18q89 0 162 -28t125.5 -79.5t81 -124.5t28.5 -164v-695h-78v686q0 78 -24 140t-68.5 105t-106.5 66t-137 23q-79 0 -144.5 -27.5t-112.5 -78t-73 -120t-26 -153.5v-641h-78 v1077z" />
<glyph unicode="&#x1fa;" horiz-adv-x="1221" d="M935 481h-649l-179 -481h-86l550 1443h80l549 -1443h-85zM312 552h598l-297 788h-5zM611 1498q-36 0 -67 13.5t-54.5 37t-37 55t-13.5 67.5q0 35 13.5 66.5t37 55t54.5 37.5t67 14t67 -14t54.5 -37.5t37 -55t13.5 -66.5q0 -36 -13.5 -67.5t-37 -55t-54.5 -37t-67 -13.5z M611 1546q26 0 49 9.5t39.5 26.5t26 40t9.5 49t-9.5 48.5t-26 39.5t-39.5 27t-49 10t-49 -10t-39.5 -27t-26 -39.5t-9.5 -48.5t9.5 -49t26 -40t39.5 -26.5t49 -9.5zM807 2086l-167 -169h-67l146 169h88z" />
<glyph unicode="&#x1fb;" horiz-adv-x="1030" d="M453 55q81 0 151.5 27t123 73.5t82.5 109t30 134.5v161l-359 -27q-155 -11 -236 -72.5t-81 -170.5q0 -51 21.5 -94.5t60 -74.5t91.5 -48.5t116 -17.5zM443 -14q-79 0 -144.5 22t-113 62.5t-73.5 96t-26 123.5q0 139 97 216.5t288 91.5l369 27v96q0 70 -21 126t-60.5 94 t-96.5 58.5t-130 20.5q-138 0 -224 -66.5t-106 -189.5h-75q7 75 39.5 135t85.5 103t124.5 66t156.5 23q88 0 159.5 -25.5t121 -72.5t76.5 -115t27 -152v-726h-75v232h-2q-20 -55 -58.5 -100t-91 -77.5t-115.5 -50.5t-132 -18zM532 1220q-36 0 -67 13.5t-54.5 37t-37 55 t-13.5 67.5t13.5 67.5t37 55t54.5 37t67 13.5t67 -13.5t54.5 -37t37 -55t13.5 -67.5t-13.5 -67.5t-37 -55t-54.5 -37t-67 -13.5zM408 1393q0 -26 9.5 -48.5t26 -39.5t39.5 -27t49 -10t49 10t39.5 27t26 39.5t9.5 48.5t-9.5 48.5t-26 39.5t-39.5 27t-49 10t-49 -10t-39.5 -27 t-26 -39.5t-9.5 -48.5zM638 1821h82l-161 -172h-67z" />
<glyph unicode="&#x1fc;" horiz-adv-x="1908" d="M1285 1553l279 290h96l-297 -290h-78zM374 492h625v881h-184zM999 422h-659l-210 -422h-84l722 1443h1021v-73h-712v-597h676v-72h-676v-628h712v-73h-790v422z" />
<glyph unicode="&#x1fd;" horiz-adv-x="1830" d="M870 1253l230 303h93l-249 -303h-74zM1318 -14q-155 0 -265.5 77t-160.5 226h-6q-22 -71 -63.5 -127t-97.5 -95t-125 -60t-147 -21q-83 0 -150.5 22t-115.5 61.5t-74.5 94.5t-26.5 122q0 133 96 207.5t285 85.5l373 24v127q0 68 -22 122t-62.5 91.5t-98.5 57t-130 19.5 q-69 0 -126 -17.5t-100 -50.5t-69.5 -80.5t-34.5 -107.5h-76q7 74 39.5 134.5t85.5 103t124 66t156 23.5q75 0 139.5 -19.5t113.5 -56t79.5 -90t37.5 -121.5h6q22 63 60.5 115.5t91 91t118.5 59.5t144 21q103 0 186.5 -36.5t141.5 -103.5t89.5 -161.5t31.5 -211.5v-46h-848 v-9q0 -106 28.5 -192.5t81 -147.5t126.5 -94t166 -33q72 0 131.5 18.5t104 51t74 77.5t41.5 98h79q-14 -68 -50 -126t-91.5 -100t-129 -65.5t-160.5 -23.5zM1312 1021q-85 0 -155.5 -30.5t-122 -86t-82 -133.5t-34.5 -173h768q0 95 -27 173t-75.5 133.5t-117.5 86t-154 30.5 zM454 55q81 0 151 27t122.5 74t82.5 110.5t30 136.5v134l-362 -23q-155 -10 -234.5 -67.5t-79.5 -159.5q0 -51 21 -93.5t59 -73t91.5 -48t118.5 -17.5z" />
<glyph unicode="&#x1fe;" horiz-adv-x="1420" d="M784 1553h-78l279 290h96zM352 181q70 -63 160 -95.5t198 -32.5q129 0 232.5 47t177 134t113 211t39.5 277q0 146 -35 263t-101 204zM1095 1236q-72 75 -169 114.5t-216 39.5q-129 0 -232.5 -47t-177 -134t-113 -210.5t-39.5 -276.5q0 -158 41.5 -283t118.5 -213z M1187 1254q80 -97 123 -230.5t43 -301.5q0 -171 -45 -308.5t-128.5 -234t-202.5 -148.5t-267 -52q-123 0 -225 35.5t-182 103.5l-157 -202l-51 37l162 208q-92 97 -141 239t-49 322q0 170 45 307.5t129 234t203 148.5t266 52q134 0 243 -42t191 -122l144 184l50 -35z" />
<glyph unicode="&#x1ff;" horiz-adv-x="1089" d="M599 1253h-74l230 303h93zM309 131q98 -75 235 -75q91 0 165 33.5t126.5 96.5t81 152t28.5 200q0 109 -26.5 195t-75.5 149zM800 927q-51 45 -115 69t-141 24q-91 0 -165 -33.5t-126.5 -96t-81 -151.5t-28.5 -201q0 -117 31.5 -209t88.5 -155zM888 946q65 -72 100.5 -175 t35.5 -233q0 -127 -34.5 -229t-97.5 -174t-151.5 -110.5t-196.5 -38.5q-81 0 -150.5 21.5t-126.5 63.5l-110 -154l-53 35l114 160q-73 72 -113 180t-40 246q0 127 34.5 229.5t97.5 174.5t151.5 110.5t195.5 38.5q89 0 164.5 -26t135.5 -76l102 143l51 -33z" />
<glyph unicode="&#x200;" horiz-adv-x="1221" d="M935 481h-649l-179 -481h-86l550 1443h80l549 -1443h-85zM312 552h598l-297 788h-5zM402 1843h93l280 -290h-75zM136 1843h92l280 -290h-75z" />
<glyph unicode="&#x201;" horiz-adv-x="1030" d="M453 55q81 0 151.5 27t123 73.5t82.5 109t30 134.5v161l-359 -27q-155 -11 -236 -72.5t-81 -170.5q0 -51 21.5 -94.5t60 -74.5t91.5 -48.5t116 -17.5zM443 -14q-79 0 -144.5 22t-113 62.5t-73.5 96t-26 123.5q0 139 97 216.5t288 91.5l369 27v96q0 70 -21 126t-60.5 94 t-96.5 58.5t-130 20.5q-138 0 -224 -66.5t-106 -189.5h-75q7 75 39.5 135t85.5 103t124.5 66t156.5 23q88 0 159.5 -25.5t121 -72.5t76.5 -115t27 -152v-726h-75v232h-2q-20 -55 -58.5 -100t-91 -77.5t-115.5 -50.5t-132 -18zM375 1253l-247 303h92l227 -303h-72zM619 1253 l-247 303h92l227 -303h-72z" />
<glyph unicode="&#x202;" horiz-adv-x="1221" d="M935 481h-649l-179 -481h-86l550 1443h80l549 -1443h-85zM312 552h598l-297 788h-5zM342 1553q0 54 20 97.5t56 74t85 47.5t108 17q58 0 107.5 -17t85.5 -47.5t56 -74t20 -97.5h-61q0 38 -15 70.5t-42.5 56.5t-66 38t-84.5 14q-47 0 -85 -14t-65.5 -38t-42.5 -56.5 t-15 -70.5h-61z" />
<glyph unicode="&#x203;" horiz-adv-x="1030" d="M453 55q81 0 151.5 27t123 73.5t82.5 109t30 134.5v161l-359 -27q-155 -11 -236 -72.5t-81 -170.5q0 -51 21.5 -94.5t60 -74.5t91.5 -48.5t116 -17.5zM443 -14q-79 0 -144.5 22t-113 62.5t-73.5 96t-26 123.5q0 139 97 216.5t288 91.5l369 27v96q0 70 -21 126t-60.5 94 t-96.5 58.5t-130 20.5q-138 0 -224 -66.5t-106 -189.5h-75q7 75 39.5 135t85.5 103t124.5 66t156.5 23q88 0 159.5 -25.5t121 -72.5t76.5 -115t27 -152v-726h-75v232h-2q-20 -55 -58.5 -100t-91 -77.5t-115.5 -50.5t-132 -18zM260 1253q0 60 20.5 107t56.5 79.5t86 49.5 t109 17t109 -17t86 -49.5t56.5 -79.5t20.5 -107h-62q0 44 -15 80t-43 62t-66.5 40t-85.5 14t-85.5 -14t-66.5 -40t-43 -62t-15 -80h-62z" />
<glyph unicode="&#x204;" horiz-adv-x="1068" d="M339 1843h93l280 -290h-75zM73 1843h92l280 -290h-75zM969 0h-841v1443h841v-73h-762v-594h726v-72h-726v-631h762v-73z" />
<glyph unicode="&#x205;" horiz-adv-x="1062" d="M536 1021q-84 0 -154 -31t-121 -87t-81.5 -135.5t-34.5 -175.5h773q0 96 -28 175t-78.5 135.5t-120.5 87.5t-155 31zM984 301q-13 -68 -50 -126t-93.5 -100t-131.5 -65.5t-164 -23.5q-110 0 -198.5 37.5t-151 108.5t-96.5 173t-34 232q0 125 34 227.5t95.5 175t148.5 112 t194 39.5q104 0 189 -37t145 -105.5t93 -164.5t33 -213v-45h-853v-4q0 -110 29 -196.5t81.5 -146.5t126.5 -91.5t165 -31.5q74 0 135 18.5t107 51t75.5 77.5t41.5 98h79zM380 1253l-247 303h92l227 -303h-72zM624 1253l-247 303h92l227 -303h-72z" />
<glyph unicode="&#x206;" horiz-adv-x="1068" d="M969 0h-841v1443h841v-73h-762v-594h726v-72h-726v-631h762v-73zM279 1553q0 54 20 97.5t56 74t85 47.5t108 17q58 0 107.5 -17t85.5 -47.5t56 -74t20 -97.5h-61q0 38 -15 70.5t-42.5 56.5t-66 38t-84.5 14q-47 0 -85 -14t-65.5 -38t-42.5 -56.5t-15 -70.5h-61z" />
<glyph unicode="&#x207;" horiz-adv-x="1062" d="M536 1021q-84 0 -154 -31t-121 -87t-81.5 -135.5t-34.5 -175.5h773q0 96 -28 175t-78.5 135.5t-120.5 87.5t-155 31zM984 301q-13 -68 -50 -126t-93.5 -100t-131.5 -65.5t-164 -23.5q-110 0 -198.5 37.5t-151 108.5t-96.5 173t-34 232q0 125 34 227.5t95.5 175t148.5 112 t194 39.5q104 0 189 -37t145 -105.5t93 -164.5t33 -213v-45h-853v-4q0 -110 29 -196.5t81.5 -146.5t126.5 -91.5t165 -31.5q74 0 135 18.5t107 51t75.5 77.5t41.5 98h79zM265 1253q0 60 20.5 107t56.5 79.5t86 49.5t109 17t109 -17t86 -49.5t56.5 -79.5t20.5 -107h-62 q0 44 -15 80t-43 62t-66.5 40t-85.5 14t-85.5 -14t-66.5 -40t-43 -62t-15 -80h-62z" />
<glyph unicode="&#x208;" horiz-adv-x="335" d="M128 0v1443h79v-1443h-79zM-42 1843h93l280 -290h-75zM-308 1843h92l280 -290h-75z" />
<glyph unicode="&#x209;" horiz-adv-x="336" d="M129 1077h78v-1077h-78v1077zM11 1253l-247 303h92l227 -303h-72zM255 1253l-247 303h92l227 -303h-72z" />
<glyph unicode="&#x20a;" horiz-adv-x="335" d="M128 0v1443h79v-1443h-79zM-102 1553q0 54 20 97.5t56 74t85 47.5t108 17q58 0 107.5 -17t85.5 -47.5t56 -74t20 -97.5h-61q0 38 -15 70.5t-42.5 56.5t-66 38t-84.5 14q-47 0 -85 -14t-65.5 -38t-42.5 -56.5t-15 -70.5h-61z" />
<glyph unicode="&#x20b;" horiz-adv-x="336" d="M129 1077h78v-1077h-78v1077zM-104 1253q0 60 20.5 107t56.5 79.5t86 49.5t109 17t109 -17t86 -49.5t56.5 -79.5t20.5 -107h-62q0 44 -15 80t-43 62t-66.5 40t-85.5 14t-85.5 -14t-66.5 -40t-43 -62t-15 -80h-62z" />
<glyph unicode="&#x20c;" horiz-adv-x="1420" d="M501 1843h93l280 -290h-75zM235 1843h92l280 -290h-75zM710 1464q147 0 266 -52t203 -148.5t129 -234t45 -307.5q0 -171 -45 -308.5t-128.5 -234t-202.5 -148.5t-267 -52t-267 52t-202.5 148.5t-128.5 234t-45 308.5q0 170 45 307.5t129 234t203 148.5t266 52zM710 1390 q-129 0 -232.5 -47t-177 -134t-113 -210.5t-39.5 -276.5t39.5 -277t113 -211t177.5 -134t232 -47q129 0 232.5 47t177 134t113 211t39.5 277t-39.5 276.5t-113 210.5t-177 134t-232.5 47z" />
<glyph unicode="&#x20d;" horiz-adv-x="1089" d="M544 -14q-108 0 -196 38.5t-151 110.5t-97.5 174t-34.5 229t34.5 229.5t97.5 174.5t151.5 110.5t195.5 38.5q108 0 196.5 -38.5t151.5 -110.5t97.5 -174.5t34.5 -229.5t-34.5 -229t-97.5 -174t-151.5 -110.5t-196.5 -38.5zM544 56q91 0 165 33.5t126.5 96.5t81 152 t28.5 200q0 112 -28.5 201t-81 151.5t-126.5 96t-165 33.5t-165 -33.5t-126.5 -96t-81 -151.5t-28.5 -201q0 -111 28.5 -200.5t81 -152t126.5 -96t165 -33.5zM387 1252l-247 303h92l227 -303h-72zM631 1252l-247 303h92l227 -303h-72z" />
<glyph unicode="&#x20e;" horiz-adv-x="1420" d="M441 1553q0 54 20 97.5t56 74t85 47.5t108 17q58 0 107.5 -17t85.5 -47.5t56 -74t20 -97.5h-61q0 38 -15 70.5t-42.5 56.5t-66 38t-84.5 14q-47 0 -85 -14t-65.5 -38t-42.5 -56.5t-15 -70.5h-61zM710 1464q147 0 266 -52t203 -148.5t129 -234t45 -307.5 q0 -171 -45 -308.5t-128.5 -234t-202.5 -148.5t-267 -52t-267 52t-202.5 148.5t-128.5 234t-45 308.5q0 170 45 307.5t129 234t203 148.5t266 52zM710 1390q-129 0 -232.5 -47t-177 -134t-113 -210.5t-39.5 -276.5t39.5 -277t113 -211t177.5 -134t232 -47q129 0 232.5 47 t177 134t113 211t39.5 277t-39.5 276.5t-113 210.5t-177 134t-232.5 47z" />
<glyph unicode="&#x20f;" horiz-adv-x="1089" d="M544 -14q-108 0 -196 38.5t-151 110.5t-97.5 174t-34.5 229t34.5 229.5t97.5 174.5t151.5 110.5t195.5 38.5q108 0 196.5 -38.5t151.5 -110.5t97.5 -174.5t34.5 -229.5t-34.5 -229t-97.5 -174t-151.5 -110.5t-196.5 -38.5zM544 56q91 0 165 33.5t126.5 96.5t81 152 t28.5 200q0 112 -28.5 201t-81 151.5t-126.5 96t-165 33.5t-165 -33.5t-126.5 -96t-81 -151.5t-28.5 -201q0 -111 28.5 -200.5t81 -152t126.5 -96t165 -33.5zM272 1252q0 60 20.5 107t56.5 79.5t86 49.5t109 17t109 -17t86 -49.5t56.5 -79.5t20.5 -107h-62q0 44 -15 80 t-43 62t-66.5 40t-85.5 14t-85.5 -14t-66.5 -40t-43 -62t-15 -80h-62z" />
<glyph unicode="&#x210;" horiz-adv-x="1150" d="M286 1843h93l280 -290h-75zM20 1843h92l280 -290h-75zM207 688h387q91 0 162.5 23.5t121.5 67.5t76.5 107t26.5 143q0 81 -27 144.5t-77 107.5t-122 67t-163 23h-385v-683zM207 0h-79v1443h471q107 0 193 -28.5t146 -82t92 -130t32 -171.5q0 -78 -22.5 -144.5t-65.5 -118 t-105 -86.5t-141 -51l371 -631h-93l-361 619q-10 -2 -25 -2.5t-26 -0.5h-387v-616z" />
<glyph unicode="&#x211;" horiz-adv-x="614" d="M119 1077h73v-213h3q32 111 106 169t183 58q29 0 56 -6t42 -12v-78q-17 8 -46 15t-64 7q-63 0 -114 -26t-87 -72t-55 -110t-19 -140v-669h-78v1077zM185 1253l-247 303h92l227 -303h-72zM429 1253l-247 303h92l227 -303h-72z" />
<glyph unicode="&#x212;" horiz-adv-x="1150" d="M207 688h387q91 0 162.5 23.5t121.5 67.5t76.5 107t26.5 143q0 81 -27 144.5t-77 107.5t-122 67t-163 23h-385v-683zM207 0h-79v1443h471q107 0 193 -28.5t146 -82t92 -130t32 -171.5q0 -78 -22.5 -144.5t-65.5 -118t-105 -86.5t-141 -51l371 -631h-93l-361 619 q-10 -2 -25 -2.5t-26 -0.5h-387v-616zM226 1553q0 54 20 97.5t56 74t85 47.5t108 17q58 0 107.5 -17t85.5 -47.5t56 -74t20 -97.5h-61q0 38 -15 70.5t-42.5 56.5t-66 38t-84.5 14q-47 0 -85 -14t-65.5 -38t-42.5 -56.5t-15 -70.5h-61z" />
<glyph unicode="&#x213;" horiz-adv-x="614" d="M119 1077h73v-213h3q32 111 106 169t183 58q29 0 56 -6t42 -12v-78q-17 8 -46 15t-64 7q-63 0 -114 -26t-87 -72t-55 -110t-19 -140v-669h-78v1077zM70 1253q0 60 20.5 107t56.5 79.5t86 49.5t109 17t109 -17t86 -49.5t56.5 -79.5t20.5 -107h-62q0 44 -15 80t-43 62 t-66.5 40t-85.5 14t-85.5 -14t-66.5 -40t-43 -62t-15 -80h-62z" />
<glyph unicode="&#x214;" horiz-adv-x="1332" d="M457 1843h93l280 -290h-75zM191 1843h92l280 -290h-75zM207 504q0 -103 32 -186.5t91.5 -142t144.5 -90.5t192 -32q106 0 191.5 32t145 90.5t91.5 142t32 186.5v939h79v-942q0 -118 -37.5 -214.5t-107.5 -164.5t-170 -105.5t-224 -37.5q-125 0 -224.5 37.5t-169.5 105.5 t-107.5 164.5t-37.5 214.5v942h79v-939z" />
<glyph unicode="&#x215;" horiz-adv-x="1080" d="M960 0h-72v235h-3q-18 -54 -54.5 -100t-87 -79t-111.5 -51.5t-128 -18.5q-87 0 -159 27.5t-123.5 78.5t-80 123.5t-28.5 162.5v699h78v-687q0 -80 23.5 -142t66.5 -104.5t104 -65t135 -22.5q77 0 143.5 26.5t115 76t76.5 119t28 155.5v644h77v-1077zM380 1252l-247 303 h92l227 -303h-72zM624 1252l-247 303h92l227 -303h-72z" />
<glyph unicode="&#x216;" horiz-adv-x="1332" d="M207 504q0 -103 32 -186.5t91.5 -142t144.5 -90.5t192 -32q106 0 191.5 32t145 90.5t91.5 142t32 186.5v939h79v-942q0 -118 -37.5 -214.5t-107.5 -164.5t-170 -105.5t-224 -37.5q-125 0 -224.5 37.5t-169.5 105.5t-107.5 164.5t-37.5 214.5v942h79v-939zM397 1553 q0 54 20 97.5t56 74t85 47.5t108 17q58 0 107.5 -17t85.5 -47.5t56 -74t20 -97.5h-61q0 38 -15 70.5t-42.5 56.5t-66 38t-84.5 14q-47 0 -85 -14t-65.5 -38t-42.5 -56.5t-15 -70.5h-61z" />
<glyph unicode="&#x217;" horiz-adv-x="1080" d="M960 0h-72v235h-3q-18 -54 -54.5 -100t-87 -79t-111.5 -51.5t-128 -18.5q-87 0 -159 27.5t-123.5 78.5t-80 123.5t-28.5 162.5v699h78v-687q0 -80 23.5 -142t66.5 -104.5t104 -65t135 -22.5q77 0 143.5 26.5t115 76t76.5 119t28 155.5v644h77v-1077zM265 1252 q0 60 20.5 107t56.5 79.5t86 49.5t109 17t109 -17t86 -49.5t56.5 -79.5t20.5 -107h-62q0 44 -15 80t-43 62t-66.5 40t-85.5 14t-85.5 -14t-66.5 -40t-43 -62t-15 -80h-62z" />
<glyph unicode="&#x218;" horiz-adv-x="1137" d="M136 385q4 -74 39.5 -135t94.5 -105t139 -68.5t174 -24.5q92 0 168.5 24.5t131.5 68.5t85.5 103.5t30.5 130.5q0 57 -19.5 102t-61.5 81t-107 64.5t-156 51.5l-171 42q-100 25 -173 59t-121 77.5t-71 98t-23 122.5q0 84 37 155t101 122.5t150 80.5t185 29 q102 0 189 -28.5t151.5 -78t102.5 -118t41 -147.5h-79q-4 65 -36.5 120t-86.5 94.5t-126.5 62t-157.5 22.5q-81 0 -152.5 -23t-124 -64.5t-83 -99t-30.5 -125.5q0 -108 82 -175t256 -110l161 -41q105 -26 181 -59.5t125.5 -78t73.5 -101.5t24 -129q0 -90 -36 -164.5 t-102 -128t-159 -83.5t-206 -30q-111 0 -204.5 30t-162 83.5t-109 128t-44.5 164.5h79zM458 -493l99 344h78l-114 -344h-63z" />
<glyph unicode="&#x219;" horiz-adv-x="923" d="M94 801q0 64 28.5 117.5t78.5 91.5t117.5 59.5t145.5 21.5q81 0 148.5 -23t117.5 -65.5t80 -102.5t36 -133h-76q-6 56 -29.5 103t-63 81t-93.5 53t-121 19q-60 0 -113.5 -16t-93 -45t-63 -69t-23.5 -89q0 -80 55.5 -125.5t170.5 -72.5l167 -41q80 -20 137 -45t93 -59 t53 -77.5t17 -98.5q0 -67 -29.5 -122t-82.5 -94.5t-126 -61t-160 -21.5t-159.5 24.5t-126 67.5t-85 101t-35.5 125h78q5 -53 31.5 -99t70 -80t101.5 -53t127 -19q67 0 125.5 16t101.5 46t67.5 72t24.5 93q0 42 -13.5 75t-43.5 59t-76.5 46t-112.5 36l-173 42 q-137 33 -205 95.5t-68 167.5zM345 -493l99 344h78l-114 -344h-63z" />
<glyph unicode="&#x21a;" horiz-adv-x="1138" d="M449 -493l99 344h78l-114 -344h-63zM529 0v1370h-508v73h1096v-73h-508v-1370h-80z" />
<glyph unicode="&#x21b;" horiz-adv-x="551" d="M235 -493l99 344h78l-114 -344h-63zM256 1354v-277h224v-68h-224v-762q0 -97 37.5 -138.5t118.5 -41.5h15t27.5 0.5t26.5 1t13 0.5v-69q-2 0 -15 -0.5t-28.5 -1t-30 -0.5h-18.5q-59 0 -101 13.5t-69 43t-40 76.5t-13 114v764h-158v68h158v277h77z" />
<glyph unicode="&#x21e;" horiz-adv-x="1327" d="M1120 0v705h-913v-705h-79v1443h79v-666h913v666h79v-1443h-79zM358 1843h83l221 -239h2l221 239h83l-271 -290h-68z" />
<glyph unicode="&#x21f;" horiz-adv-x="1095" d="M129 1506h78v-666h3q19 57 54 103t84 79t109 51t128 18q88 0 161.5 -28.5t125.5 -80t81 -125t29 -163.5v-694h-77v685q0 78 -24 140t-68.5 105.5t-106.5 66.5t-137 23q-80 0 -146.5 -28t-114.5 -78t-74.5 -120.5t-26.5 -154.5v-639h-78v1506zM-137 1906h83l221 -239h2 l221 239h83l-271 -290h-68z" />
<glyph unicode="&#x226;" horiz-adv-x="1221" d="M935 481h-649l-179 -481h-86l550 1443h80l549 -1443h-85zM312 552h598l-297 788h-5zM611 1563q-32 0 -54.5 22t-22.5 54t22.5 54t54.5 22t54.5 -22t22.5 -54t-22.5 -54t-54.5 -22z" />
<glyph unicode="&#x227;" horiz-adv-x="1030" d="M453 55q81 0 151.5 27t123 73.5t82.5 109t30 134.5v161l-359 -27q-155 -11 -236 -72.5t-81 -170.5q0 -51 21.5 -94.5t60 -74.5t91.5 -48.5t116 -17.5zM443 -14q-79 0 -144.5 22t-113 62.5t-73.5 96t-26 123.5q0 139 97 216.5t288 91.5l369 27v96q0 70 -21 126t-60.5 94 t-96.5 58.5t-130 20.5q-138 0 -224 -66.5t-106 -189.5h-75q7 75 39.5 135t85.5 103t124.5 66t156.5 23q88 0 159.5 -25.5t121 -72.5t76.5 -115t27 -152v-726h-75v232h-2q-20 -55 -58.5 -100t-91 -77.5t-115.5 -50.5t-132 -18zM532 1256q-32 0 -55 22.5t-23 54.5t23 54.5 t55 22.5t55 -22.5t23 -54.5t-23 -54.5t-55 -22.5z" />
<glyph unicode="&#x228;" horiz-adv-x="1068" d="M207 1370v-594h726v-72h-726v-631h762v-73h-387l-58 -141q97 0 152 -40.5t55 -111.5q0 -38 -16 -69t-44.5 -53.5t-68.5 -35t-88 -12.5q-35 -1 -69.5 3.5t-58.5 12.5v56q21 -8 54.5 -12.5t67.5 -4.5t63 8.5t50.5 23.5t33.5 36t12 45q0 50 -41 76t-119 26h-52v43l64 150 h-391v1443h841v-73h-762z" />
<glyph unicode="&#x229;" horiz-adv-x="1062" d="M918 592q0 96 -28 175t-78.5 135.5t-120.5 87.5t-155 31q-84 0 -154 -31t-121 -87t-81.5 -135.5t-34.5 -175.5h773zM144 526v-4q0 -110 29 -196.5t81.5 -146.5t126.5 -91.5t165 -31.5q74 0 135 18.5t107 51t75.5 77.5t41.5 98h79q-13 -66 -47.5 -121.5t-87 -97 t-122.5 -66.5t-153 -29l-53 -128q97 0 152 -40.5t55 -111.5q0 -38 -16 -69t-44.5 -53.5t-68.5 -35t-88 -12.5q-35 -1 -69.5 3.5t-58.5 12.5v56q21 -8 54.5 -12.5t67.5 -4.5t63 8.5t50.5 23.5t33.5 36t12 45q0 50 -41 76t-119 26h-52v43l58 137q-102 6 -184.5 46t-140 110.5 t-89 169.5t-31.5 224t34 227.5t95.5 175t148.5 112t194 39.5q104 0 189 -37t145 -105.5t93 -164.5t33 -213v-45h-853z" />
<glyph unicode="&#x22a;" horiz-adv-x="1420" d="M710 1464q147 0 266 -52t203 -148.5t129 -234t45 -307.5q0 -171 -45 -308.5t-128.5 -234t-202.5 -148.5t-267 -52t-267 52t-202.5 148.5t-128.5 234t-45 308.5q0 170 45 307.5t129 234t203 148.5t266 52zM710 1390q-129 0 -232.5 -47t-177 -134t-113 -210.5t-39.5 -276.5 t39.5 -277t113 -211t177.5 -134t232 -47q129 0 232.5 47t177 134t113 211t39.5 277t-39.5 276.5t-113 210.5t-177 134t-232.5 47zM561 1691q26 0 44.5 -18.5t18.5 -44.5t-18.5 -44.5t-44.5 -18.5t-45 18.5t-19 44.5t19 44.5t45 18.5zM1000 1919v-57h-580v57h580zM859 1691 q26 0 45 -18.5t19 -44.5t-19 -44.5t-45 -18.5t-44.5 18.5t-18.5 44.5t18.5 44.5t44.5 18.5z" />
<glyph unicode="&#x22b;" horiz-adv-x="1089" d="M392 1255q-27 0 -46.5 19t-19.5 46t19.5 46t46.5 19t46.5 -19t19.5 -46t-19.5 -46t-46.5 -19zM696 1255q-27 0 -46.5 19t-19.5 46t19.5 46t46.5 19q28 0 47 -19t19 -46t-19 -46t-47 -19zM837 1600h-596v58h596v-58zM544 -14q-108 0 -196 38.5t-151 110.5t-97.5 174 t-34.5 229t34.5 229.5t97.5 174.5t151.5 110.5t195.5 38.5q108 0 196.5 -38.5t151.5 -110.5t97.5 -174.5t34.5 -229.5t-34.5 -229t-97.5 -174t-151.5 -110.5t-196.5 -38.5zM544 56q91 0 165 33.5t126.5 96.5t81 152t28.5 200q0 112 -28.5 201t-81 151.5t-126.5 96t-165 33.5 t-165 -33.5t-126.5 -96t-81 -151.5t-28.5 -201q0 -111 28.5 -200.5t81 -152t126.5 -96t165 -33.5z" />
<glyph unicode="&#x22c;" horiz-adv-x="1420" d="M830 1548q-31 0 -54.5 11t-42.5 28t-35 36t-32 36t-34.5 28t-41.5 11q-45 0 -66.5 -36.5t-21.5 -95.5h-60q0 42 9.5 77.5t28.5 60.5t46 39t63 14q32 0 55.5 -11t42.5 -28t35 -36t32.5 -36t34.5 -28t41 -11q45 0 65 36t20 96h61q0 -42 -9.5 -77t-28.5 -60.5t-46 -39.5 t-62 -14zM1000 1862h-580v57h580v-57zM710 1464q147 0 266 -52t203 -148.5t129 -234t45 -307.5q0 -171 -45 -308.5t-128.5 -234t-202.5 -148.5t-267 -52t-267 52t-202.5 148.5t-128.5 234t-45 308.5q0 170 45 307.5t129 234t203 148.5t266 52zM710 1390q-129 0 -232.5 -47 t-177 -134t-113 -210.5t-39.5 -276.5t39.5 -277t113 -211t177.5 -134t232 -47q129 0 232.5 47t177 134t113 211t39.5 277t-39.5 276.5t-113 210.5t-177 134t-232.5 47z" />
<glyph unicode="&#x22d;" horiz-adv-x="1089" d="M685 1236q-32 0 -58 12t-47.5 30.5t-40 39.5t-37.5 39.5t-39.5 30.5t-45.5 12q-48 0 -69.5 -42t-21.5 -111h-60q0 48 9.5 87t28 66.5t46.5 43t66 15.5q33 0 59 -12t48 -30.5t41 -39.5t37.5 -39.5t39 -30.5t44.5 -12q48 0 68.5 42.5t20.5 111.5h61q0 -47 -9.5 -86.5 t-28.5 -67.5t-47 -43.5t-65 -15.5zM842 1600h-596v58h596v-58zM544 -14q-108 0 -196 38.5t-151 110.5t-97.5 174t-34.5 229t34.5 229.5t97.5 174.5t151.5 110.5t195.5 38.5q108 0 196.5 -38.5t151.5 -110.5t97.5 -174.5t34.5 -229.5t-34.5 -229t-97.5 -174t-151.5 -110.5 t-196.5 -38.5zM544 56q91 0 165 33.5t126.5 96.5t81 152t28.5 200q0 112 -28.5 201t-81 151.5t-126.5 96t-165 33.5t-165 -33.5t-126.5 -96t-81 -151.5t-28.5 -201q0 -111 28.5 -200.5t81 -152t126.5 -96t165 -33.5z" />
<glyph unicode="&#x22e;" horiz-adv-x="1420" d="M710 1563q-32 0 -54.5 22t-22.5 54t22.5 54t54.5 22t54.5 -22t22.5 -54t-22.5 -54t-54.5 -22zM710 1464q147 0 266 -52t203 -148.5t129 -234t45 -307.5q0 -171 -45 -308.5t-128.5 -234t-202.5 -148.5t-267 -52t-267 52t-202.5 148.5t-128.5 234t-45 308.5q0 170 45 307.5 t129 234t203 148.5t266 52zM710 1390q-129 0 -232.5 -47t-177 -134t-113 -210.5t-39.5 -276.5t39.5 -277t113 -211t177.5 -134t232 -47q129 0 232.5 47t177 134t113 211t39.5 277t-39.5 276.5t-113 210.5t-177 134t-232.5 47z" />
<glyph unicode="&#x22f;" horiz-adv-x="1089" d="M544 1255q-32 0 -55 22.5t-23 54.5t23 54.5t55 22.5t55 -22.5t23 -54.5t-23 -54.5t-55 -22.5zM544 -14q-108 0 -196 38.5t-151 110.5t-97.5 174t-34.5 229t34.5 229.5t97.5 174.5t151.5 110.5t195.5 38.5q108 0 196.5 -38.5t151.5 -110.5t97.5 -174.5t34.5 -229.5 t-34.5 -229t-97.5 -174t-151.5 -110.5t-196.5 -38.5zM544 56q91 0 165 33.5t126.5 96.5t81 152t28.5 200q0 112 -28.5 201t-81 151.5t-126.5 96t-165 33.5t-165 -33.5t-126.5 -96t-81 -151.5t-28.5 -201q0 -111 28.5 -200.5t81 -152t126.5 -96t165 -33.5z" />
<glyph unicode="&#x230;" horiz-adv-x="1420" d="M710 1560q-31 0 -53.5 22t-22.5 53t22.5 53t53.5 22t53.5 -22t22.5 -53t-22.5 -53t-53.5 -22zM1000 1862h-580v57h580v-57zM710 1464q147 0 266 -52t203 -148.5t129 -234t45 -307.5q0 -171 -45 -308.5t-128.5 -234t-202.5 -148.5t-267 -52t-267 52t-202.5 148.5 t-128.5 234t-45 308.5q0 170 45 307.5t129 234t203 148.5t266 52zM710 1390q-129 0 -232.5 -47t-177 -134t-113 -210.5t-39.5 -276.5t39.5 -277t113 -211t177.5 -134t232 -47q129 0 232.5 47t177 134t113 211t39.5 277t-39.5 276.5t-113 210.5t-177 134t-232.5 47z" />
<glyph unicode="&#x231;" horiz-adv-x="1089" d="M544 -14q-108 0 -196 38.5t-151 110.5t-97.5 174t-34.5 229t34.5 229.5t97.5 174.5t151.5 110.5t195.5 38.5q108 0 196.5 -38.5t151.5 -110.5t97.5 -174.5t34.5 -229.5t-34.5 -229t-97.5 -174t-151.5 -110.5t-196.5 -38.5zM544 56q91 0 165 33.5t126.5 96.5t81 152 t28.5 200q0 112 -28.5 201t-81 151.5t-126.5 96t-165 33.5t-165 -33.5t-126.5 -96t-81 -151.5t-28.5 -201q0 -111 28.5 -200.5t81 -152t126.5 -96t165 -33.5zM544 1255q-32 0 -54.5 22.5t-22.5 54.5q0 31 22.5 53.5t54.5 22.5t54.5 -22.5t22.5 -53.5q0 -32 -22.5 -54.5 t-54.5 -22.5zM837 1600h-596v58h596v-58z" />
<glyph unicode="&#x232;" horiz-adv-x="1172" d="M547 0v629l-525 814h93l469 -733h5l469 733h92l-524 -814v-629h-79zM876 1622h-580v57h580v-57z" />
<glyph unicode="&#x233;" horiz-adv-x="919" d="M186 -354q-15 0 -30.5 3.5t-23.5 5.5v69q9 -3 25 -5.5t31 -2.5q36 0 65 11t53 34.5t44.5 61.5t41.5 92l27 70l-412 1092h83l369 -1001h2l369 1001h82l-417 -1111q-36 -97 -67.5 -159t-66 -98t-76.5 -49.5t-99 -13.5zM753 1307h-596v58h596v-58z" />
<glyph unicode="&#x237;" horiz-adv-x="336" d="M206 -80q0 -74 -17.5 -126t-52 -85t-87 -48.5t-121.5 -15.5h-29v69h27q106 0 154.5 47t48.5 155v1161h77v-1157z" />
<glyph unicode="&#x2c6;" horiz-adv-x="758" d="M678 1253h-80l-217 249h-3l-217 -249h-81l268 303h62z" />
<glyph unicode="&#x2c7;" horiz-adv-x="758" d="M348 1253l-268 303h81l217 -249h3l217 249h80l-268 -303h-62z" />
<glyph unicode="&#x2d8;" horiz-adv-x="856" d="M218 1503q0 -44 15 -80t43 -62t66.5 -40t85.5 -14t85.5 14t66.5 40t43 62t15 80h62q0 -60 -20.5 -107t-56.5 -79.5t-86 -49.5t-109 -17t-109 17t-86 49.5t-56.5 79.5t-20.5 107h62z" />
<glyph unicode="&#x2d9;" horiz-adv-x="827" d="M414 1256q-32 0 -55 22.5t-23 54.5t23 54.5t55 22.5t55 -22.5t23 -54.5t-23 -54.5t-55 -22.5z" />
<glyph unicode="&#x2da;" horiz-adv-x="770" d="M385 1235q-36 0 -67 13.5t-54.5 37t-37 55t-13.5 67.5t13.5 67.5t37 55t54.5 37t67 13.5t67 -13.5t54.5 -37t37 -55t13.5 -67.5t-13.5 -67.5t-37 -55t-54.5 -37t-67 -13.5zM385 1283q26 0 49 10t39.5 27t26 39.5t9.5 48.5t-9.5 48.5t-26 39.5t-39.5 27t-49 10t-49 -10 t-39.5 -27t-26 -39.5t-9.5 -48.5t9.5 -48.5t26 -39.5t39.5 -27t49 -10z" />
<glyph unicode="&#x2db;" horiz-adv-x="626" d="M470 -371q-23 -11 -53 -18t-60 -7q-42 0 -76.5 12.5t-59 35t-37.5 54t-13 70.5q0 66 38 128.5t116 112.5l55 -5q-68 -46 -104 -101t-36 -116q0 -58 35.5 -92.5t98.5 -34.5q24 0 51.5 6.5t44.5 16.5v-62z" />
<glyph unicode="&#x2dc;" horiz-adv-x="758" d="M514 1255q-33 0 -58.5 12t-47 30.5t-40 39.5t-37.5 39.5t-39.5 30.5t-45.5 12q-48 0 -69.5 -42t-21.5 -111h-60q0 48 9.5 87t28 66.5t46.5 43t66 15.5q33 0 59 -12t48 -30.5t41 -39.5t37.5 -39.5t39 -30.5t44.5 -12q48 0 68.5 42.5t20.5 111.5h61q0 -47 -9.5 -86.5 t-28.5 -67.5t-47 -43.5t-65 -15.5z" />
<glyph unicode="&#x2dd;" horiz-adv-x="857" d="M634 1556h92l-247 -303h-71zM390 1556h92l-247 -303h-71z" />
<glyph unicode="&#x300;" d="M-23 1253l-249 303h93l230 -303h-74z" />
<glyph unicode="&#x301;" d="M-54 1253l230 303h93l-249 -303h-74z" />
<glyph unicode="&#x302;" d="M299 1253h-80l-217 249h-3l-217 -249h-81l268 303h62z" />
<glyph unicode="&#x303;" d="M136 1255q-32 0 -58 12t-47.5 30.5t-40 39.5t-37.5 39.5t-39.5 30.5t-45.5 12q-48 0 -69.5 -42t-21.5 -111h-60q0 48 9.5 87t28 66.5t46.5 43t66 15.5q33 0 59 -12t48 -30.5t41 -39.5t37.5 -39.5t39 -30.5t44.5 -12q48 0 68.5 42.5t20.5 111.5h61q0 -47 -9.5 -86.5 t-28.5 -67.5t-47 -43.5t-65 -15.5z" />
<glyph unicode="&#x304;" d="M293 1308h-596v58h596v-58z" />
<glyph unicode="&#x306;" d="M-210 1503q0 -44 15 -80t43 -62t66.5 -40t85.5 -14t85.5 14t66.5 40t43 62t15 80h62q0 -60 -20.5 -107t-56.5 -79.5t-86 -49.5t-109 -17t-109 17t-86 49.5t-56.5 79.5t-20.5 107h62z" />
<glyph unicode="&#x307;" d="M0 1256q-32 0 -55 22.5t-23 54.5t23 54.5t55 22.5t55 -22.5t23 -54.5t-23 -54.5t-55 -22.5z" />
<glyph unicode="&#x308;" d="M-152 1256q-28 0 -48 19.5t-20 47.5q0 27 20 46.5t48 19.5q27 0 47 -19.5t20 -46.5q0 -28 -20 -47.5t-47 -19.5zM152 1256q-27 0 -47 19.5t-20 47.5q0 27 20 46.5t47 19.5q28 0 48 -19.5t20 -46.5q0 -28 -20 -47.5t-48 -19.5z" />
<glyph unicode="&#x309;" d="M-115 1496q22 13 50.5 20.5t61.5 7.5q71 0 113.5 -38.5t42.5 -101.5q0 -51 -31.5 -92t-81.5 -62l-35 44q38 16 60.5 42.5t22.5 63.5q0 39 -28.5 63t-74.5 24q-26 0 -52 -7.5t-48 -21.5v58z" />
<glyph unicode="&#x30a;" d="M0 1234q-36 0 -67 13.5t-54.5 37t-37 55t-13.5 67.5t13.5 67.5t37 55t54.5 37t67 13.5t67 -13.5t54.5 -37t37 -55t13.5 -67.5t-13.5 -67.5t-37 -55t-54.5 -37t-67 -13.5zM0 1282q26 0 49 10t39.5 27t26 39.5t9.5 48.5t-9.5 48.5t-26 39.5t-39.5 27t-49 10t-49 -10 t-39.5 -27t-26 -39.5t-9.5 -48.5t9.5 -48.5t26 -39.5t39.5 -27t49 -10z" />
<glyph unicode="&#x30b;" d="M312 1556h92l-247 -303h-71zM68 1556h92l-247 -303h-71z" />
<glyph unicode="&#x30c;" d="M-31 1253l-268 303h81l217 -249h3l217 249h80l-268 -303h-62z" />
<glyph unicode="&#x30f;" d="M-157 1253l-247 303h92l227 -303h-72zM87 1253l-247 303h92l227 -303h-72z" />
<glyph unicode="&#x311;" d="M-272 1253q0 60 20.5 107t56.5 79.5t86 49.5t109 17t109 -17t86 -49.5t56.5 -79.5t20.5 -107h-62q0 44 -15 80t-43 62t-66.5 40t-85.5 14t-85.5 -14t-66.5 -40t-43 -62t-15 -80h-62v0z" />
<glyph unicode="&#x31b;" d="M0 1094q3 -3 10 -5.5t16 -4t17 -2t12 -0.5q74 0 114.5 38t40.5 125v123h74v-141q0 -52 -16 -91.5t-45 -66.5t-69 -40.5t-89 -13.5q-6 0 -15.5 1t-19 2.5t-18 3.5t-12.5 5v67z" />
<glyph unicode="&#x323;" d="M0 -295q-32 0 -54.5 22t-22.5 54t22.5 54t54.5 22t54.5 -22t22.5 -54t-22.5 -54t-54.5 -22z" />
<glyph unicode="&#x324;" d="M-152 -279q-28 0 -48 19.5t-20 47.5q0 27 20 46.5t48 19.5q27 0 47 -19.5t20 -46.5q0 -28 -20 -47.5t-47 -19.5zM152 -279q-27 0 -47 19.5t-20 47.5q0 27 20 46.5t47 19.5q28 0 48 -19.5t20 -46.5q0 -28 -20 -47.5t-48 -19.5z" />
<glyph unicode="&#x325;" d="M0 -492q-36 0 -67 13.5t-54.5 37t-37 55t-13.5 67.5t13.5 67.5t37 55t54.5 37t67 13.5t67 -13.5t54.5 -37t37 -55t13.5 -67.5t-13.5 -67.5t-37 -55t-54.5 -37t-67 -13.5zM0 -444q26 0 49 10t39.5 27t26 39.5t9.5 48.5t-9.5 48.5t-26 39.5t-39.5 27t-49 10t-49 -10 t-39.5 -27t-26 -39.5t-9.5 -48.5t9.5 -48.5t26 -39.5t39.5 -27t49 -10z" />
<glyph unicode="&#x326;" d="M-120 -493l99 344h78l-114 -344h-63z" />
<glyph unicode="&#x327;" d="M-93 -150l67 157l60 -7l-58 -141q97 0 152 -40.5t55 -111.5q0 -38 -16 -69t-44.5 -53.5t-68.5 -35t-88 -12.5q-35 -1 -69.5 3.5t-58.5 12.5v56q21 -8 54.5 -12.5t67.5 -4.5t63 8.5t50.5 23.5t33.5 36t12 45q0 50 -41 76t-119 26h-52v43z" />
<glyph unicode="&#x328;" d="M119 -371q-23 -11 -53 -18t-60 -7q-42 0 -76.5 12.5t-59 35t-37.5 54t-13 70.5q0 66 38 128.5t116 112.5l55 -5q-68 -46 -104 -101t-36 -116q0 -58 35.5 -92.5t98.5 -34.5q24 0 51.5 6.5t44.5 16.5v-62z" />
<glyph unicode="&#x32d;" d="M34 -147l271 -290h-83l-221 238h-2l-221 -238h-83l271 290h68z" />
<glyph unicode="&#x32e;" d="M-208 -155q0 -38 15 -71t42.5 -57t65.5 -38t85 -14q46 0 84.5 14t66 38t42.5 57t15 71h61q0 -54 -20 -97.5t-56 -74.5t-85.5 -47.5t-107.5 -16.5q-59 0 -108 16.5t-85 47.5t-56 74.5t-20 97.5h61z" />
<glyph unicode="&#x330;" d="M135 -366q-32 0 -58 12t-47.5 30.5t-40 39.5t-37.5 39.5t-39.5 30.5t-45.5 12q-48 0 -69.5 -42t-21.5 -111h-60q0 48 9.5 87t28 66.5t46.5 43t66 15.5q33 0 59 -12t48 -30.5t41 -39.5t37.5 -39.5t39 -30.5t44.5 -12q48 0 68.5 42.5t20.5 111.5h61q0 -47 -9.5 -86.5 t-28.5 -67.5t-47 -43.5t-65 -15.5z" />
<glyph unicode="&#x331;" d="M290 -262h-580v57h580v-57z" />
<glyph unicode="&#x37e;" horiz-adv-x="496" d="M248 760q-29 0 -49.5 20.5t-20.5 49.5t20.5 49.5t49.5 20.5t49.5 -20.5t20.5 -49.5t-20.5 -49.5t-49.5 -20.5zM140 -222l65 402h84l-86 -402h-63z" />
<glyph unicode="&#x384;" horiz-adv-x="621" d="M293 1569h98l-121 -316h-65z" />
<glyph unicode="&#x385;" horiz-adv-x="889" d="M247 1256q-28 0 -48 19.5t-20 47.5q0 27 20 46.5t48 19.5q27 0 47 -19.5t20 -46.5q0 -28 -20 -47.5t-47 -19.5zM642 1256q-27 0 -47 19.5t-20 47.5q0 27 20 46.5t47 19.5q28 0 48 -19.5t20 -46.5q0 -28 -20 -47.5t-48 -19.5zM393 1253l48 316h97l-81 -316h-64z" />
<glyph unicode="&#x386;" horiz-adv-x="1220" d="M934 481h-649l-179 -481h-86l550 1443h80l549 -1443h-85zM311 552h598l-297 788h-5zM135 1109l94 334h99l-126 -334h-67z" />
<glyph unicode="&#x387;" horiz-adv-x="496" d="M248 939q-29 0 -49.5 20.5t-20.5 49.5t20.5 49.5t49.5 20.5t49.5 -20.5t20.5 -49.5t-20.5 -49.5t-49.5 -20.5z" />
<glyph unicode="&#x388;" horiz-adv-x="1283" d="M48 1109l94 334h99l-126 -334h-67zM1204 0h-841v1443h841v-73h-762v-594h726v-72h-726v-631h762v-73z" />
<glyph unicode="&#x389;" horiz-adv-x="1562" d="M48 1109l94 334h99l-126 -334h-67zM1355 0v705h-913v-705h-79v1443h79v-666h913v666h79v-1443h-79z" />
<glyph unicode="&#x38a;" horiz-adv-x="570" d="M363 0v1443h79v-1443h-79zM48 1109l94 334h99l-126 -334h-67z" />
<glyph unicode="&#x38c;" horiz-adv-x="1553" d="M843 1464q147 0 266 -52t203 -148.5t129 -234t45 -307.5q0 -171 -45 -308.5t-128.5 -234t-202.5 -148.5t-267 -52t-267 52t-202.5 148.5t-128.5 234t-45 308.5q0 170 45 307.5t129 234t203 148.5t266 52zM843 1390q-129 0 -232.5 -47t-177 -134t-113 -210.5t-39.5 -276.5 t39.5 -277t113 -211t177.5 -134t232 -47q129 0 232.5 47t177 134t113 211t39.5 277t-39.5 276.5t-113 210.5t-177 134t-232.5 47zM41 1109l94 334h99l-126 -334h-67z" />
<glyph unicode="&#x38e;" horiz-adv-x="1477" d="M42 1110l94 334h99l-126 -334h-67zM852 0v629l-525 814h93l469 -733h5l469 733h92l-524 -814v-629h-79z" />
<glyph unicode="&#x38f;" horiz-adv-x="1614" d="M1429 771q0 136 -41 250t-115.5 196t-179.5 127.5t-232 45.5q-128 0 -233 -45t-180 -127t-116.5 -195.5t-41.5 -251.5q0 -227 108 -390.5t337 -278.5v-102h-528v73h439v5q-216 112 -326.5 284.5t-110.5 410.5q0 153 47.5 280t133 218.5t205.5 142t266 50.5 q145 0 264.5 -51t205 -142.5t132.5 -218.5t47 -279q0 -237 -109.5 -410t-326.5 -285v-5h438v-73h-527v102q229 115 336.5 278.5t107.5 390.5zM41 1109l94 334h99l-126 -334h-67z" />
<glyph unicode="&#x390;" horiz-adv-x="493" d="M370 -9q-68 0 -115.5 14.5t-78 46t-44.5 81t-14 119.5v825h77v-815q0 -107 43 -155t139 -48q29 0 48.5 2.5t39.5 7.5l2 -68q-17 -5 -42 -7.5t-55 -2.5zM-21 1256q-28 0 -48 19.5t-20 47.5q0 27 20 46.5t48 19.5q27 0 47 -19.5t20 -46.5q0 -28 -20 -47.5t-47 -19.5z M374 1256q-27 0 -47 19.5t-20 47.5q0 27 20 46.5t47 19.5q28 0 48 -19.5t20 -46.5q0 -28 -20 -47.5t-48 -19.5zM125 1253l48 316h97l-81 -316h-64z" />
<glyph unicode="&#x391;" horiz-adv-x="1221" d="M935 481h-649l-179 -481h-86l550 1443h80l549 -1443h-85zM312 552h598l-297 788h-5z" />
<glyph unicode="&#x392;" horiz-adv-x="1165" d="M128 0v1443h486q94 0 171.5 -25.5t133 -71.5t86 -111t30.5 -143q0 -65 -20 -121t-57.5 -100t-90 -74.5t-116.5 -42.5v-6q76 -8 142 -36.5t114.5 -75t76 -110t27.5 -141.5q0 -89 -33.5 -160t-96.5 -121t-153 -77t-203 -27h-497zM207 778h376q85 0 153.5 21.5t117 61.5 t75 97t26.5 128q0 65 -25 118t-71 90t-111 57t-146 20h-395v-593zM617 72q97 0 174 22t130.5 63t81.5 99t28 131q0 75 -29.5 134t-85.5 100.5t-136.5 63.5t-183.5 22h-389v-635h410z" />
<glyph unicode="&#x393;" horiz-adv-x="993" d="M128 0v1443h810v-73h-731v-1370h-79z" />
<glyph unicode="&#x394;" horiz-adv-x="1264" d="M44 0v57l548 1386h80l548 -1386v-57h-1176zM136 73h991v5l-493 1265h-5l-493 -1265v-5z" />
<glyph unicode="&#x395;" horiz-adv-x="1047" d="M969 0h-841v1443h841v-73h-762v-594h726v-72h-726v-631h762v-73z" />
<glyph unicode="&#x396;" horiz-adv-x="1173" d="M71 62l925 1303v5h-896v73h997v-62l-923 -1303v-5h928v-73h-1031v62z" />
<glyph unicode="&#x397;" horiz-adv-x="1327" d="M1120 0v705h-913v-705h-79v1443h79v-666h913v666h79v-1443h-79z" />
<glyph unicode="&#x398;" horiz-adv-x="1423" d="M370 691v73h683v-73h-683zM712 1464q148 0 267 -52t203 -148.5t129 -234t45 -307.5q0 -171 -45 -308.5t-128.5 -234t-203 -148.5t-267.5 -52q-149 0 -268 52t-203 148.5t-129 234t-45 308.5q0 170 45 307.5t129 234t203.5 148.5t267.5 52zM712 1390q-129 0 -233.5 -47 t-178 -134t-113 -210.5t-39.5 -276.5t39.5 -277t113 -211t178 -134t233.5 -47t233 47t177.5 134t113 211t39.5 277t-39.5 276.5t-112.5 210.5t-177.5 134t-233.5 47z" />
<glyph unicode="&#x399;" horiz-adv-x="335" d="M128 0v1443h79v-1443h-79z" />
<glyph unicode="&#x39a;" horiz-adv-x="1142" d="M128 0v1443h79v-806h6l750 806h101l-594 -636l660 -807h-101l-615 751l-207 -223v-528h-79z" />
<glyph unicode="&#x39b;" horiz-adv-x="1181" d="M593 1334h-5l-481 -1334h-86l530 1443h80l529 -1443h-85z" />
<glyph unicode="&#x39c;" horiz-adv-x="1604" d="M1476 0h-76v1279h-4l-556 -1276h-76l-556 1276h-4v-1279h-76v1443h88l583 -1340h6l581 1340h90v-1443z" />
<glyph unicode="&#x39d;" horiz-adv-x="1341" d="M128 0v1443h82l919 -1299h6v1299h79v-1443h-75l-927 1307h-6v-1307h-78z" />
<glyph unicode="&#x39e;" horiz-adv-x="1177" d="M1098 1443v-75h-1020v75h1020zM143 704v75h891v-75h-891zM1098 75v-75h-1020v75h1020z" />
<glyph unicode="&#x39f;" horiz-adv-x="1420" d="M710 1464q147 0 266 -52t203 -148.5t129 -234t45 -307.5q0 -171 -45 -308.5t-128.5 -234t-202.5 -148.5t-267 -52t-267 52t-202.5 148.5t-128.5 234t-45 308.5q0 170 45 307.5t129 234t203 148.5t266 52zM710 1390q-129 0 -232.5 -47t-177 -134t-113 -210.5t-39.5 -276.5 t39.5 -277t113 -211t177.5 -134t232 -47q129 0 232.5 47t177 134t113 211t39.5 277t-39.5 276.5t-113 210.5t-177 134t-232.5 47z" />
<glyph unicode="&#x3a0;" horiz-adv-x="1307" d="M1100 0v1370h-893v-1370h-79v1443h1051v-1443h-79z" />
<glyph unicode="&#x3a1;" horiz-adv-x="1116" d="M597 1443q105 0 191 -30.5t146.5 -87t93.5 -136t33 -177.5t-33 -177.5t-94 -135.5t-146.5 -86.5t-190.5 -30.5h-390v-582h-79v1443h469zM207 654h377q91 0 164.5 24.5t125 71t79 113t27.5 149.5q0 84 -27.5 150.5t-79 113t-125 71t-164.5 24.5h-377v-717z" />
<glyph unicode="&#x3a3;" horiz-adv-x="1150" d="M171 73h908v-73h-1008v62l469 675l-450 640v66h967v-73h-866v-5l438 -622v-5l-458 -660v-5z" />
<glyph unicode="&#x3a4;" horiz-adv-x="1138" d="M529 0v1370h-508v73h1096v-73h-508v-1370h-80z" />
<glyph unicode="&#x3a5;" horiz-adv-x="1172" d="M547 0v629l-525 814h93l469 -733h5l469 733h92l-524 -814v-629h-79z" />
<glyph unicode="&#x3a6;" horiz-adv-x="1533" d="M1404 722q0 135 -40.5 242.5t-118 182t-188.5 115t-252 42.5v-1163q141 1 252 41.5t188 115.5t118 182t41 242zM128 722q0 -135 41 -242t118 -182t188 -115.5t251 -41.5v1163q-141 -2 -252 -42.5t-188 -115t-117.5 -182t-40.5 -242.5zM726 -59v127q-159 2 -285 47.5 t-213.5 130t-134 204.5t-46.5 272t46.5 272.5t134 204.5t213.5 129.5t285 47.5v116h79v-116q159 -2 285.5 -47.5t214.5 -129.5t134.5 -204.5t46.5 -272.5t-46.5 -272t-134.5 -204.5t-214.5 -130t-285.5 -47.5v-127h-79z" />
<glyph unicode="&#x3a7;" horiz-adv-x="1215" d="M558 722v2l-514 719h95l469 -658h2l471 658h92l-518 -721v-2l515 -720h-95l-468 656h-2l-471 -656h-92z" />
<glyph unicode="&#x3a8;" horiz-adv-x="1430" d="M675 0v353q-138 0 -245 36.5t-179.5 108t-110.5 175.5t-38 239v531h79v-530q0 -237 126 -361t368 -125v1016h80v-1016q242 1 368 125t126 361v530h79v-531q0 -135 -38 -239t-110.5 -175.5t-179.5 -108t-245 -36.5v-353h-80z" />
<glyph unicode="&#x3a9;" horiz-adv-x="1509" d="M1324 771q0 136 -41 250t-115.5 196t-179.5 127.5t-232 45.5q-128 0 -233 -45t-180 -127t-116.5 -195.5t-41.5 -251.5q0 -227 108 -390.5t337 -278.5v-102h-528v73h439v5q-216 112 -326.5 284.5t-110.5 410.5q0 153 47.5 280t133 218.5t205.5 142t266 50.5 q145 0 264.5 -51t205 -142.5t132.5 -218.5t47 -279q0 -237 -109.5 -410t-326.5 -285v-5h438v-73h-527v102q229 115 336.5 278.5t107.5 390.5z" />
<glyph unicode="&#x3aa;" horiz-adv-x="373" d="M166 0v1443h79v-1443h-79zM53 1563q-28 0 -48 19.5t-20 47.5q0 27 20 46.5t48 19.5q27 0 47 -19.5t20 -46.5q0 -28 -20 -47.5t-47 -19.5zM357 1563q-27 0 -47 19.5t-20 47.5q0 27 20 46.5t47 19.5q28 0 48 -19.5t20 -46.5q0 -28 -20 -47.5t-48 -19.5z" />
<glyph unicode="&#x3ab;" horiz-adv-x="1218" d="M594 0v629l-525 814h93l469 -733h5l469 733h92l-524 -814v-629h-79zM481 1563q-28 0 -48 19.5t-20 47.5q0 27 20 46.5t48 19.5q27 0 47 -19.5t20 -46.5q0 -28 -20 -47.5t-47 -19.5zM785 1563q-27 0 -47 19.5t-20 47.5q0 27 20 46.5t47 19.5q28 0 48 -19.5t20 -46.5 q0 -28 -20 -47.5t-48 -19.5z" />
<glyph unicode="&#x3ac;" horiz-adv-x="1214" d="M526 56q83 0 153.5 36t121.5 100.5t79.5 153t28.5 192.5q0 105 -29.5 193.5t-81.5 152.5t-122.5 100t-151.5 36q-83 0 -152.5 -36t-120 -100t-79 -152.5t-28.5 -193.5q0 -106 28 -194.5t78.5 -152.5t121 -99.5t154.5 -35.5zM521 -14q-100 0 -184 41t-144.5 114t-94 174.5 t-33.5 223.5q0 121 33.5 222t94 174.5t144 114.5t182.5 41q64 0 126.5 -22t115.5 -61.5t92.5 -95.5t57.5 -123h3v288h73v-865q0 -79 26 -115t85 -36q35 0 64 10l7 -69q-16 -5 -37.5 -7.5t-44.5 -2.5q-85 0 -129 45.5t-49 141.5v105h-2q-16 -61 -53 -115.5t-88.5 -95 t-114.5 -64t-130 -23.5zM591 1569h98l-121 -316h-65z" />
<glyph unicode="&#x3ad;" horiz-adv-x="1031" d="M566 1569h98l-121 -316h-65zM492 -14q-98 0 -174.5 20.5t-130 59t-81.5 94t-28 124.5q0 103 60 173t166 92v3q-96 14 -150 77t-54 162q0 68 29.5 123.5t83 94.5t129 60.5t168.5 21.5t170 -23.5t134 -67.5t92.5 -106t45.5 -138h-78q-6 59 -35 107.5t-76.5 83.5t-112 54 t-141.5 19q-76 0 -137.5 -16.5t-105 -46.5t-67.5 -72.5t-24 -94.5q0 -202 296 -202h148v-70h-149q-74 0 -132 -16t-98.5 -45.5t-62 -72t-21.5 -95.5q0 -112 88 -172.5t248 -60.5q75 0 141.5 18t118.5 52t87.5 81t50.5 106h79q-14 -72 -56 -132.5t-105 -103.5t-144 -67 t-172 -24z" />
<glyph unicode="&#x3ae;" horiz-adv-x="1213" d="M1023 -385v1063q0 77 -23 140t-65.5 108t-102 69.5t-131.5 24.5q-82 0 -148.5 -27.5t-113.5 -77.5t-72.5 -121t-25.5 -158v-636h-78v864q0 80 -27.5 115.5t-85.5 35.5q-20 0 -37.5 -2t-31.5 -7v68q19 5 40 7.5t44 2.5q81 0 121.5 -44.5t46.5 -141.5q0 -1 0.5 -9.5t1 -19 t1 -19.5t0.5 -10h2q21 59 57.5 105.5t85 79t108 49.5t127.5 17q85 0 155.5 -28.5t121.5 -80t79 -123.5t28 -158v-1086h-77zM566 1569h98l-121 -316h-65z" />
<glyph unicode="&#x3af;" horiz-adv-x="493" d="M370 -9q-68 0 -115.5 14.5t-78 46t-44.5 81t-14 119.5v825h77v-815q0 -107 43 -155t139 -48q29 0 48.5 2.5t39.5 7.5l2 -68q-17 -5 -42 -7.5t-55 -2.5zM216 1569h98l-121 -316h-65z" />
<glyph unicode="&#x3b0;" horiz-adv-x="1048" d="M298 1256q-28 0 -48 19.5t-20 47.5q0 27 20 46.5t48 19.5q27 0 47 -19.5t20 -46.5q0 -28 -20 -47.5t-47 -19.5zM693 1256q-27 0 -47 19.5t-20 47.5q0 27 20 46.5t47 19.5q28 0 48 -19.5t20 -46.5q0 -28 -20 -47.5t-48 -19.5zM444 1253l48 316h97l-81 -316h-64zM519 -14 q-97 0 -172.5 28t-127.5 82.5t-79 134t-27 181.5v665h77v-661q0 -176 84.5 -267.5t243.5 -91.5q87 0 154.5 35t114 101t71 160.5t24.5 213.5q0 146 -21.5 277t-62.5 233h79q40 -101 61.5 -230t21.5 -274q0 -137 -30 -246t-86.5 -184.5t-138.5 -116t-186 -40.5z" />
<glyph unicode="&#x3b1;" horiz-adv-x="1214" d="M526 56q83 0 153.5 36t121.5 100.5t79.5 153t28.5 192.5q0 105 -29.5 193.5t-81.5 152.5t-122.5 100t-151.5 36q-83 0 -152.5 -36t-120 -100t-79 -152.5t-28.5 -193.5q0 -106 28 -194.5t78.5 -152.5t121 -99.5t154.5 -35.5zM521 -14q-100 0 -184 41t-144.5 114t-94 174.5 t-33.5 223.5q0 121 33.5 222t94 174.5t144 114.5t182.5 41q64 0 126.5 -22t115.5 -61.5t92.5 -95.5t57.5 -123h3v288h73v-865q0 -79 26 -115t85 -36q35 0 64 10l7 -69q-16 -5 -37.5 -7.5t-44.5 -2.5q-85 0 -129 45.5t-49 141.5v105h-2q-16 -61 -53 -115.5t-88.5 -95 t-114.5 -64t-130 -23.5z" />
<glyph unicode="&#x3b2;" horiz-adv-x="1124" d="M428 850h136q73 0 132 21.5t100 60.5t63.5 94.5t22.5 123.5t-23 123.5t-65 94.5t-101 60.5t-131 21.5q-180 0 -273 -109.5t-93 -326.5v-470q0 -112 29 -202t84 -153.5t132.5 -98t175.5 -34.5q82 0 149.5 26.5t114.5 73.5t73 112t26 143q0 90 -30 158.5t-85.5 115 t-134.5 70.5t-177 24h-125v71zM119 1022q0 242 113.5 370t325.5 128q93 0 167.5 -26t126 -74t79 -115.5t27.5 -150.5q0 -59 -17 -113t-49.5 -97.5t-81 -75.5t-111.5 -47v-2q177 -28 268.5 -133t91.5 -271q0 -97 -32 -176t-89 -135.5t-137 -87t-176 -30.5q-79 0 -148 20 t-124 58t-94 93.5t-59 126.5h-3v-669h-78v1407z" />
<glyph unicode="&#x3b3;" horiz-adv-x="999" d="M904 914q0 -119 -23 -224t-72 -212t-126.5 -225.5t-185.5 -263.5v-342h-77v337l-384 1093h83l347 -1005h2q95 129 163 237.5t112 207.5t65 195t21 202q0 22 -0.5 40.5t-2 37.5t-4 39t-6.5 46h76q7 -45 9.5 -81t2.5 -82z" />
<glyph unicode="&#x3b4;" horiz-adv-x="1064" d="M535 -14q-107 0 -195 36.5t-150.5 103t-97 160t-34.5 206.5q0 114 31.5 205.5t89 156.5t138 102t179.5 42v4q-70 28 -119 57t-80 62t-45 70t-14 81q0 58 23.5 104.5t68 78t107.5 48.5t142 17q92 0 173.5 -18t140.5 -49l-3 -71q-67 32 -147 50.5t-167 18.5 q-126 0 -193.5 -46.5t-67.5 -131.5q0 -38 14.5 -69.5t51 -61.5t97.5 -61t154 -68q95 -40 164.5 -90t115.5 -114.5t68 -144.5t22 -180q0 -111 -34.5 -202.5t-96.5 -157t-148 -102t-188 -36.5zM533 55q87 0 159 31t124 87t80.5 134.5t28.5 174.5q0 121 -34.5 207.5t-91 142.5 t-128 82.5t-145.5 26.5q-81 0 -152.5 -29.5t-124.5 -86.5t-83.5 -140.5t-30.5 -191.5q0 -97 28.5 -177.5t81 -138.5t126 -90t162.5 -32z" />
<glyph unicode="&#x3b5;" horiz-adv-x="1031" d="M492 -14q-98 0 -174.5 20.5t-130 59t-81.5 94t-28 124.5q0 103 60 173t166 92v3q-96 14 -150 77t-54 162q0 68 29.5 123.5t83 94.5t129 60.5t168.5 21.5t170 -23.5t134 -67.5t92.5 -106t45.5 -138h-78q-6 59 -35 107.5t-76.5 83.5t-112 54t-141.5 19q-76 0 -137.5 -16.5 t-105 -46.5t-67.5 -72.5t-24 -94.5q0 -202 296 -202h148v-70h-149q-74 0 -132 -16t-98.5 -45.5t-62 -72t-21.5 -95.5q0 -112 88 -172.5t248 -60.5q75 0 141.5 18t118.5 52t87.5 81t50.5 106h79q-14 -72 -56 -132.5t-105 -103.5t-144 -67t-172 -24z" />
<glyph unicode="&#x3b6;" horiz-adv-x="849" d="M712 -370q54 82 54 178q0 32 -11 61.5t-39 56.5t-75.5 53t-119.5 52q-129 46 -216 95.5t-140.5 110.5t-76.5 137t-23 174q0 120 48 244t133 240t201 219t253 180v3h-553v72h681v-72q-154 -85 -280 -188.5t-216 -217.5t-139 -235.5t-49 -242.5q0 -87 18.5 -151t66 -116 t128 -96t204.5 -91q82 -30 136 -61t86.5 -64.5t45.5 -72t13 -83.5q0 -55 -15.5 -104t-48.5 -96z" />
<glyph unicode="&#x3b7;" horiz-adv-x="1213" d="M1023 -385v1063q0 77 -23 140t-65.5 108t-102 69.5t-131.5 24.5q-82 0 -148.5 -27.5t-113.5 -77.5t-72.5 -121t-25.5 -158v-636h-78v864q0 80 -27.5 115.5t-85.5 35.5q-20 0 -37.5 -2t-31.5 -7v68q19 5 40 7.5t44 2.5q81 0 121.5 -44.5t46.5 -141.5q0 -1 0.5 -9.5t1 -19 t1 -19.5t0.5 -10h2q21 59 57.5 105.5t85 79t108 49.5t127.5 17q85 0 155.5 -28.5t121.5 -80t79 -123.5t28 -158v-1086h-77z" />
<glyph unicode="&#x3b8;" horiz-adv-x="1114" d="M558 -14q-236 0 -355 194.5t-119 574.5q0 376 120.5 570.5t353.5 194.5q232 0 352 -195t120 -571q0 -383 -118.5 -575.5t-353.5 -192.5zM558 56q194 0 293 168t101 500h-789q2 -331 101 -499.5t294 -168.5zM952 794q-4 325 -103 490.5t-291 165.5q-193 0 -292.5 -165.5 t-102.5 -490.5h789z" />
<glyph unicode="&#x3b9;" horiz-adv-x="493" d="M370 -9q-68 0 -115.5 14.5t-78 46t-44.5 81t-14 119.5v825h77v-815q0 -107 43 -155t139 -48q29 0 48.5 2.5t39.5 7.5l2 -68q-17 -5 -42 -7.5t-55 -2.5z" />
<glyph unicode="&#x3ba;" horiz-adv-x="1069" d="M119 1077h77v-689h2l493 568q31 36 57.5 60.5t52 39.5t52 21.5t56.5 6.5q19 0 42.5 -2.5t35.5 -7.5v-68q-14 5 -33 7t-37 2q-22 0 -41.5 -5t-40 -18t-43 -34t-50.5 -54l-210 -243l472 -661h-92l-430 604l-286 -323v-281h-77v1077z" />
<glyph unicode="&#x3bb;" horiz-adv-x="1091" d="M484 1040l-75 207q-22 60 -43.5 99.5t-47 62t-56 31.5t-70.5 9q-43 0 -70 -9v70q17 5 38.5 7.5t41.5 2.5q52 0 92 -12t72 -40.5t58.5 -76.5t51.5 -120l389 -1107q11 -30 22.5 -50t26.5 -31.5t33.5 -16.5t42.5 -5q37 0 64 10l7 -69q-15 -5 -35.5 -7.5t-43.5 -2.5 q-37 0 -64.5 6.5t-49 24t-38.5 46.5t-33 74l-278 799h-2l-395 -942h-82z" />
<glyph unicode="&#x3bc;" horiz-adv-x="1197" d="M119 1077h78v-677q0 -81 22 -144.5t63.5 -108t101 -67.5t135.5 -23q79 0 145.5 28t114 78.5t74 120t26.5 153.5v640h78v-865q0 -80 26.5 -115.5t84.5 -35.5q35 0 64 10l7 -69q-16 -5 -39 -7.5t-44 -2.5q-82 0 -124.5 43.5t-48.5 137.5q0 1 -0.5 10t-1 19.5t-0.5 19.5v10 h-2q-20 -56 -55.5 -101.5t-83 -77.5t-104 -49.5t-119.5 -17.5q-60 0 -112 14.5t-93.5 41t-70.5 64t-42 84.5h-2v-575h-78v1462z" />
<glyph unicode="&#x3bd;" horiz-adv-x="994" d="M36 1077h83l347 -1005h2q95 129 162 237.5t110 207.5t62.5 195t19.5 202q0 22 -0.5 40.5t-2 37.5t-4 39t-6.5 46h78q7 -45 9.5 -81t2.5 -82q0 -117 -21 -220.5t-67.5 -209.5t-121.5 -223t-183 -261h-91z" />
<glyph unicode="&#x3be;" horiz-adv-x="882" d="M712 -370q28 42 41 87t13 93q0 34 -13 64t-42 56.5t-76 51.5t-116 50q-135 50 -223 95.5t-139 94t-71.5 104t-20.5 126.5q0 73 23.5 134.5t68.5 108t110 76.5t148 40v2q-146 40 -216 113.5t-70 190.5q0 124 86 205t241 110v2h-325v72h671v-66l-113 -10 q-242 -22 -366 -100t-124 -213q0 -129 110.5 -196.5t316.5 -67.5h100v-72h-99q-239 0 -361.5 -81.5t-122.5 -244.5q0 -59 18.5 -105t64.5 -86.5t124.5 -79t197.5 -83.5q83 -30 139.5 -60t91 -64t49 -73.5t14.5 -88.5q0 -55 -15.5 -104t-48.5 -96z" />
<glyph unicode="&#x3bf;" horiz-adv-x="1079" d="M539 -14q-107 0 -194.5 38.5t-149.5 110.5t-96 174t-34 229t34 229.5t96 174.5t149.5 110.5t194.5 38.5q108 0 195.5 -38.5t149.5 -110.5t96 -174.5t34 -229.5t-34 -229t-96.5 -174t-150 -110.5t-194.5 -38.5zM539 56q88 0 161.5 33.5t125.5 96t81 152t29 200.5t-29 200 t-81.5 152t-125.5 96.5t-161 33.5q-89 0 -161.5 -33.5t-124.5 -96.5t-80.5 -152t-28.5 -200q0 -112 28.5 -201t80 -151.5t124.5 -96t162 -33.5z" />
<glyph unicode="&#x3c0;" horiz-adv-x="1293" d="M281 1006h-209v71h1143v-71h-218v-796q0 -78 26.5 -113.5t84.5 -35.5q35 0 64 10l7 -69q-15 -5 -36.5 -7.5t-45.5 -2.5q-91 0 -133.5 50.5t-42.5 160.5v803h-565v-1005h-75v1005z" />
<glyph unicode="&#x3c1;" horiz-adv-x="1085" d="M551 56q89 0 161 35t123 98.5t79 154t28 201.5q0 106 -28 194t-79 150t-122 96.5t-158 34.5q-92 0 -165 -32.5t-123 -93.5t-76.5 -150t-26.5 -201q0 -107 28.5 -196.5t79.5 -154t122 -100.5t157 -36zM86 546q0 126 33 226.5t94 171.5t147.5 109t194.5 38 q103 0 188.5 -40.5t147 -113t95.5 -174t34 -223.5q0 -125 -33 -227t-93 -175t-145 -112.5t-188 -39.5q-69 0 -133 22t-116.5 61.5t-90 94.5t-55.5 120h-3v-669h-77v931z" />
<glyph unicode="&#x3c2;" horiz-adv-x="1023" d="M712 -370q54 82 54 178q0 32 -11 61.5t-39 56.5t-75.5 53t-119.5 52q-129 46 -216 95.5t-140.5 110.5t-76.5 136.5t-23 173.5q0 124 33 225t94 171.5t148 109t194 38.5q87 0 160 -24.5t128.5 -69t92 -106.5t50.5 -138h-78q-12 60 -42.5 109t-76 84t-104 54.5t-127.5 19.5 q-92 0 -164.5 -33.5t-123.5 -95t-78 -149t-27 -194.5q0 -87 19 -151t66 -115.5t128 -95.5t204 -90q82 -30 136 -61t86.5 -64.5t45.5 -72t13 -83.5q0 -55 -15.5 -104t-48.5 -96z" />
<glyph unicode="&#x3c3;" horiz-adv-x="1208" d="M533 -14q-104 0 -190.5 39t-148 110t-95.5 170.5t-34 219.5q0 128 34.5 230.5t100 174t159 109.5t211.5 38h566v-71h-365v-3q56 -27 100.5 -72t75 -105t46.5 -133t16 -156q0 -123 -34.5 -224.5t-97 -174t-150.5 -112.5t-194 -40zM532 57q90 0 164.5 34.5t127 97.5 t81.5 151t29 195q0 109 -26 196t-75 147.5t-119.5 93t-158.5 32.5q-95 0 -171 -33.5t-129.5 -95.5t-82 -150.5t-28.5 -199.5q0 -105 28 -191.5t79 -148t122.5 -95t158.5 -33.5z" />
<glyph unicode="&#x3c4;" horiz-adv-x="985" d="M685 -9q-69 0 -118 14.5t-79.5 46t-44.5 81t-14 120.5v753h-369v71h873v-71h-427v-741q0 -110 43.5 -158t143.5 -48q31 0 49 2t38 8l7 -68q-39 -10 -102 -10z" />
<glyph unicode="&#x3c5;" horiz-adv-x="1048" d="M519 -14q-97 0 -172.5 28t-127.5 82.5t-79 134t-27 181.5v665h77v-661q0 -176 84.5 -267.5t243.5 -91.5q87 0 154.5 35t114 101t71 160.5t24.5 213.5q0 146 -21.5 277t-62.5 233h79q40 -101 61.5 -230t21.5 -274q0 -137 -30 -246t-86.5 -184.5t-138.5 -116t-186 -40.5z " />
<glyph unicode="&#x3c6;" horiz-adv-x="1369" d="M647 -14q-136 4 -245.5 45t-186 113t-118 172t-41.5 222q0 123 40.5 223.5t117 172.5t186 113t247.5 44v271h75v-271q138 -3 247.5 -44t186 -113t117 -172.5t40.5 -223.5q0 -122 -41.5 -222t-118 -172t-186 -113t-245.5 -45v-371h-75v371zM722 53q116 2 210.5 37.5 t162 99.5t104 152.5t36.5 195.5q0 108 -36.5 197t-103 152.5t-161.5 99.5t-212 37v-971zM647 1024q-117 -1 -212 -37t-161.5 -99.5t-103 -152.5t-36.5 -197q0 -107 36.5 -195.5t104 -152.5t162 -99.5t210.5 -37.5v971z" />
<glyph unicode="&#x3c7;" horiz-adv-x="1149" d="M565 344l-275 551q-18 36 -34 59t-34 36.5t-39 19t-49 5.5q-14 0 -32.5 -2t-32.5 -7v68q17 5 37 7.5t42 2.5q39 0 68.5 -8t53 -26t44 -47.5t41.5 -72.5l259 -517h2l361 664h85l-408 -735l273 -545q17 -34 32.5 -57t32.5 -37.5t37.5 -20.5t47.5 -6q19 0 33 2t31 7l7 -68 q-15 -5 -35.5 -7.5t-40.5 -2.5q-44 0 -74.5 9t-53.5 28t-42 48t-39 69l-259 511h-2l-356 -657h-85z" />
<glyph unicode="&#x3c8;" horiz-adv-x="1302" d="M609 -14q-117 0 -209.5 28t-156 82t-97 133t-33.5 181v667h77v-664q0 -77 23.5 -142t74.5 -112.5t130.5 -74.5t190.5 -27v1305h76v-1306q89 2 157 24t118 59t83.5 86.5t54 106t29 117.5t8.5 121q0 87 -6 159.5t-17.5 134t-27.5 114t-36 99.5h80q40 -93 63 -221.5 t23 -274.5q0 -112 -27.5 -218.5t-89.5 -189.5t-163.5 -134.5t-248.5 -53.5v-370h-76v371z" />
<glyph unicode="&#x3c9;" horiz-adv-x="1468" d="M435 -17q-83 0 -148 34t-109 100t-67 162t-23 220q0 77 12 157.5t34 156.5t52.5 144t67.5 120h90q-42 -54 -75 -120.5t-56 -141t-35 -154.5t-12 -162q0 -214 71 -329.5t202 -115.5q60 0 107.5 24.5t80.5 71t50.5 113.5t17.5 151v330h77v-330q0 -84 17.5 -151t50.5 -113.5 t81 -71t108 -24.5q65 0 116 29.5t86 86t53 139.5t18 190q0 82 -12 162t-35 154.5t-56 141t-75 120.5h90q37 -52 67.5 -120t52.5 -144t34 -156.5t12 -157.5q0 -124 -23 -220t-67.5 -162t-109 -100t-147.5 -34q-112 0 -189 66t-109 189h-3q-32 -123 -108.5 -189t-188.5 -66z " />
<glyph unicode="&#x3ca;" horiz-adv-x="493" d="M13 1256q-28 0 -48 19.5t-20 47.5q0 27 20 46.5t48 19.5q27 0 47 -19.5t20 -46.5q0 -28 -20 -47.5t-47 -19.5zM317 1256q-27 0 -47 19.5t-20 47.5q0 27 20 46.5t47 19.5q28 0 48 -19.5t20 -46.5q0 -28 -20 -47.5t-48 -19.5zM370 -9q-68 0 -115.5 14.5t-78 46t-44.5 81 t-14 119.5v825h77v-815q0 -107 43 -155t139 -48q29 0 48.5 2.5t39.5 7.5l2 -68q-17 -5 -42 -7.5t-55 -2.5z" />
<glyph unicode="&#x3cb;" horiz-adv-x="1048" d="M343 1256q-28 0 -48 19.5t-20 47.5q0 27 20 46.5t48 19.5q27 0 47 -19.5t20 -46.5q0 -28 -20 -47.5t-47 -19.5zM647 1256q-27 0 -47 19.5t-20 47.5q0 27 20 46.5t47 19.5q28 0 48 -19.5t20 -46.5q0 -28 -20 -47.5t-48 -19.5zM519 -14q-97 0 -172.5 28t-127.5 82.5 t-79 134t-27 181.5v665h77v-661q0 -176 84.5 -267.5t243.5 -91.5q87 0 154.5 35t114 101t71 160.5t24.5 213.5q0 146 -21.5 277t-62.5 233h79q40 -101 61.5 -230t21.5 -274q0 -137 -30 -246t-86.5 -184.5t-138.5 -116t-186 -40.5z" />
<glyph unicode="&#x3cc;" horiz-adv-x="1079" d="M539 -14q-107 0 -194.5 38.5t-149.5 110.5t-96 174t-34 229t34 229.5t96 174.5t149.5 110.5t194.5 38.5q108 0 195.5 -38.5t149.5 -110.5t96 -174.5t34 -229.5t-34 -229t-96.5 -174t-150 -110.5t-194.5 -38.5zM539 56q88 0 161.5 33.5t125.5 96t81 152t29 200.5t-29 200 t-81.5 152t-125.5 96.5t-161 33.5q-89 0 -161.5 -33.5t-124.5 -96.5t-80.5 -152t-28.5 -200q0 -112 28.5 -201t80 -151.5t124.5 -96t162 -33.5zM593 1569h98l-121 -316h-65z" />
<glyph unicode="&#x3cd;" horiz-adv-x="1048" d="M530 1569h98l-121 -316h-65zM519 -14q-97 0 -172.5 28t-127.5 82.5t-79 134t-27 181.5v665h77v-661q0 -176 84.5 -267.5t243.5 -91.5q87 0 154.5 35t114 101t71 160.5t24.5 213.5q0 146 -21.5 277t-62.5 233h79q40 -101 61.5 -230t21.5 -274q0 -137 -30 -246 t-86.5 -184.5t-138.5 -116t-186 -40.5z" />
<glyph unicode="&#x3ce;" horiz-adv-x="1468" d="M435 -17q-83 0 -148 34t-109 100t-67 162t-23 220q0 77 12 157.5t34 156.5t52.5 144t67.5 120h90q-42 -54 -75 -120.5t-56 -141t-35 -154.5t-12 -162q0 -214 71 -329.5t202 -115.5q60 0 107.5 24.5t80.5 71t50.5 113.5t17.5 151v330h77v-330q0 -84 17.5 -151t50.5 -113.5 t81 -71t108 -24.5q65 0 116 29.5t86 86t53 139.5t18 190q0 82 -12 162t-35 154.5t-56 141t-75 120.5h90q37 -52 67.5 -120t52.5 -144t34 -156.5t12 -157.5q0 -124 -23 -220t-67.5 -162t-109 -100t-147.5 -34q-112 0 -189 66t-109 189h-3q-32 -123 -108.5 -189t-188.5 -66z M791 1569h98l-121 -316h-65z" />
<glyph unicode="&#x401;" horiz-adv-x="1067" d="M406 1563q-28 0 -48 19.5t-20 47.5q0 27 20 46.5t48 19.5q27 0 47 -19.5t20 -46.5q0 -28 -20 -47.5t-47 -19.5zM710 1563q-27 0 -47 19.5t-20 47.5q0 27 20 46.5t47 19.5q28 0 48 -19.5t20 -46.5q0 -28 -20 -47.5t-48 -19.5zM979 0h-841v1443h841v-73h-762v-594h726v-72 h-726v-631h762v-73z" />
<glyph unicode="&#x402;" horiz-adv-x="1558" d="M1068 -12q-32 0 -62.5 3.5t-45.5 9.5v72q15 -5 45 -7.5t61 -2.5q72 0 130.5 26t99.5 73t63 113t22 146q0 86 -26.5 155t-75 118t-118 75t-155.5 26q-59 0 -116 -13.5t-107.5 -38t-92.5 -58.5t-72 -74v-611h-79v1370h-508v73h1096v-73h-509v-654h5q69 70 169.5 110.5 t216.5 40.5q103 0 186.5 -31.5t142 -90t90.5 -140.5t32 -183q0 -97 -28.5 -177t-80 -137t-123.5 -88.5t-160 -31.5z" />
<glyph unicode="&#x403;" horiz-adv-x="1024" d="M479 1553l279 290h96l-297 -290h-78zM138 0v1443h824v-73h-745v-1370h-79z" />
<glyph unicode="&#x404;" horiz-adv-x="1345" d="M1277 422q-12 -100 -59.5 -181.5t-122 -139.5t-172.5 -90t-211 -32q-145 0 -262.5 53t-200 150.5t-127.5 236.5t-45 311q0 168 44.5 304t127.5 231.5t200 147t263 51.5q109 0 206.5 -35.5t173.5 -98.5t125 -149t61 -186h-80q-12 84 -55 156t-108 125.5t-148 83.5t-175 30 q-122 0 -222 -42.5t-171.5 -122t-113 -193t-46.5 -255.5h743v-72h-743q2 -150 42.5 -271t113 -205.5t173.5 -130t224 -45.5q94 0 177.5 26.5t148 74.5t106 116t53.5 152h80v0z" />
<glyph unicode="&#x405;" horiz-adv-x="1157" d="M146 385q4 -74 39.5 -135t94.5 -105t139 -68.5t174 -24.5q92 0 168.5 24.5t131.5 68.5t85.5 103.5t30.5 130.5q0 57 -19.5 102t-61.5 81t-107 64.5t-156 51.5l-171 42q-100 25 -173 59t-121 77.5t-71 98t-23 122.5q0 84 37 155t101 122.5t150 80.5t185 29 q102 0 189 -28.5t151.5 -78t102.5 -118t41 -147.5h-79q-4 65 -36.5 120t-86.5 94.5t-126.5 62t-157.5 22.5q-81 0 -152.5 -23t-124 -64.5t-83 -99t-30.5 -125.5q0 -108 82 -175t256 -110l161 -41q105 -26 181 -59.5t125.5 -78t73.5 -101.5t24 -129q0 -90 -36 -164.5 t-102 -128t-159 -83.5t-206 -30q-111 0 -204.5 30t-162 83.5t-109 128t-44.5 164.5h79z" />
<glyph unicode="&#x406;" horiz-adv-x="355" d="M138 0v1443h79v-1443h-79z" />
<glyph unicode="&#x407;" horiz-adv-x="355" d="M138 0v1443h79v-1443h-79zM25 1563q-28 0 -48 19.5t-20 47.5q0 27 20 46.5t48 19.5q27 0 47 -19.5t20 -46.5q0 -28 -20 -47.5t-47 -19.5zM329 1563q-27 0 -47 19.5t-20 47.5q0 27 20 46.5t47 19.5q28 0 48 -19.5t20 -46.5q0 -28 -20 -47.5t-48 -19.5z" />
<glyph unicode="&#x408;" horiz-adv-x="971" d="M129 320q3 -60 27 -109.5t64.5 -85t95 -55.5t119.5 -20q75 0 134 22.5t100.5 66t63 106.5t21.5 144v1054h80v-1058q0 -94 -27.5 -169.5t-78.5 -129t-125 -82t-167 -28.5q-83 0 -152.5 25.5t-120.5 71t-80.5 109t-31.5 138.5h78z" />
<glyph unicode="&#x409;" horiz-adv-x="2064" d="M372 470q-6 -101 -22.5 -188.5t-49.5 -152t-86 -101.5t-131 -37q-23 0 -38.5 4t-19.5 5v73q2 -1 17.5 -4.5t36.5 -3.5q57 0 96 31.5t64 87t37.5 131t17.5 162.5l58 966h791v-588h387q105 0 190.5 -30.5t146.5 -86t94 -134.5t33 -176t-33 -176t-93.5 -135t-146.5 -86.5 t-191 -30.5h-466v1370h-637zM1517 73q92 0 165.5 24.5t125 70.5t79 112t27.5 148t-27.5 147.5t-79.5 111.5t-125.5 71t-164.5 25h-374v-710h374z" />
<glyph unicode="&#x40a;" horiz-adv-x="2099" d="M1558 73q91 0 164.5 22.5t125 64.5t79 102t27.5 135q0 71 -27.5 128t-79 97t-125 61.5t-164.5 21.5h-374v-632h374zM217 0h-79v1443h79v-666h887v666h80v-666h386q105 0 191 -27t146.5 -76.5t93.5 -119.5t33 -157q0 -90 -33 -163.5t-93.5 -125t-146 -80t-190.5 -28.5 h-467v705h-887v-705z" />
<glyph unicode="&#x40b;" horiz-adv-x="1578" d="M1003 795q-56 0 -112 -13.5t-106.5 -37.5t-93.5 -58t-73 -75v-611h-79v1370h-508v73h1096v-73h-509v-654h5q72 73 172 112t213 39q100 0 182.5 -33.5t140.5 -95t90 -148t32 -192.5v-398h-80v389q0 92 -26 167t-74.5 128t-117 82t-152.5 29z" />
<glyph unicode="&#x40c;" horiz-adv-x="1165" d="M585 1553h-78l279 290h96zM1139 0h-114l-803 718h-5v-718h-79v1443h79v-679h5l753 679h107l-778 -697z" />
<glyph unicode="&#x40e;" horiz-adv-x="1138" d="M380 1789q0 -42 15 -76t42.5 -57.5t65.5 -36t83 -12.5t83 12.5t65.5 36t42.5 57.5t15 76h64q0 -56 -20 -99.5t-55.5 -74t-85 -46.5t-109.5 -16t-109.5 16t-85 46.5t-55.5 74t-20 99.5h64zM265 -9q-30 0 -47.5 4t-21.5 6v73q5 -2 22.5 -5.5t46.5 -3.5q48 0 87 21t72 58.5 t62 88.5t57 112l-511 1098h87l463 -1005h6l437 1005h84l-468 -1062q-39 -90 -76.5 -162t-81 -122.5t-96 -78t-122.5 -27.5z" />
<glyph unicode="&#x40f;" horiz-adv-x="1334" d="M138 0v1443h79v-1370h900v1370h79v-1443h-491v-285h-76v285h-491z" />
<glyph unicode="&#x410;" horiz-adv-x="1241" d="M945 481h-649l-179 -481h-86l550 1443h80l549 -1443h-85zM322 552h598l-297 788h-5z" />
<glyph unicode="&#x411;" horiz-adv-x="1150" d="M1072 415q0 -94 -33 -170.5t-93.5 -131t-146 -84t-190.5 -29.5h-471v1443h811v-73h-732v-540h391q105 0 191 -29.5t146.5 -83.5t93.5 -131t33 -171zM596 73q91 0 164.5 24t125 68t79 107.5t27.5 142.5t-27.5 142t-79 107.5t-125 68.5t-164.5 24h-379v-684h379z" />
<glyph unicode="&#x412;" horiz-adv-x="1185" d="M138 0v1443h486q94 0 171.5 -25.5t133 -71.5t86 -111t30.5 -143q0 -65 -20 -121t-57.5 -100t-90 -74.5t-116.5 -42.5v-6q76 -8 142 -36.5t114.5 -75t76 -110t27.5 -141.5q0 -89 -33.5 -160t-96.5 -121t-153 -77t-203 -27h-497zM217 778h376q85 0 153.5 21.5t117 61.5 t75 97t26.5 128q0 65 -25 118t-71 90t-111 57t-146 20h-395v-593zM627 72q97 0 174 22t130.5 63t81.5 99t28 131q0 75 -29.5 134t-85.5 100.5t-136.5 63.5t-183.5 22h-389v-635h410z" />
<glyph unicode="&#x413;" horiz-adv-x="1024" d="M138 0v1443h824v-73h-745v-1370h-79z" />
<glyph unicode="&#x414;" horiz-adv-x="1372" d="M347 467q-4 -65 -12 -122.5t-21.5 -107t-34.5 -89.5t-51 -69v-6h854v1297h-681zM91 -286h-75v359h96q39 19 66.5 56t46 88.5t29 116t15.5 138.5l59 971h833v-1370h187v-359h-76v286h-1181v-286z" />
<glyph unicode="&#x415;" horiz-adv-x="1067" d="M979 0h-841v1443h841v-73h-762v-594h726v-72h-726v-631h762v-73z" />
<glyph unicode="&#x416;" horiz-adv-x="1804" d="M1784 0h-111l-727 718h-5v-718h-80v718h-5l-728 -718h-109l756 745l-702 698h107l676 -679h5v679h80v-679h5l677 679h104l-700 -696z" />
<glyph unicode="&#x417;" horiz-adv-x="1121" d="M366 784h172q90 0 162 22.5t122 63.5t76.5 98t26.5 125q0 63 -25.5 118.5t-72.5 96t-114 64t-151 23.5q-78 0 -143.5 -22t-114.5 -62t-79 -94.5t-39 -119.5h-77q9 81 44.5 149.5t94.5 117.5t139 76.5t177 27.5q99 0 180.5 -28.5t139 -79t89.5 -118t32 -145.5 q0 -65 -21 -121t-60 -100t-96 -75t-129 -45v-5q85 -7 151.5 -35.5t112.5 -75.5t70 -110.5t24 -139.5q0 -87 -35.5 -163t-101 -131.5t-157.5 -87.5t-205 -32q-105 0 -193.5 30t-153.5 82t-103 122.5t-43 150.5h78q5 -65 38 -121.5t88 -99.5t129 -67.5t161 -24.5q95 0 172 26 t131.5 72.5t84 109t29.5 136.5q0 76 -27.5 135.5t-82 100.5t-136 62.5t-190.5 21.5h-174v72z" />
<glyph unicode="&#x418;" horiz-adv-x="1361" d="M1145 1311h-7l-922 -1311h-78v1443h78v-1312h8l921 1312h79v-1443h-79v1311z" />
<glyph unicode="&#x419;" horiz-adv-x="1361" d="M475 1789q0 -42 15 -76t42.5 -57.5t65.5 -36t83 -12.5t83 12.5t65.5 36t42.5 57.5t15 76h64q0 -56 -20 -99.5t-55.5 -74t-85 -46.5t-109.5 -16t-109.5 16t-85 46.5t-55.5 74t-20 99.5h64zM1145 1311h-7l-922 -1311h-78v1443h78v-1312h8l921 1312h79v-1443h-79v1311z" />
<glyph unicode="&#x41a;" horiz-adv-x="1168" d="M1139 0h-114l-803 718h-5v-718h-79v1443h79v-679h5l753 679h107l-778 -697z" />
<glyph unicode="&#x41b;" horiz-adv-x="1288" d="M1071 0v1370h-644l-55 -900q-6 -105 -23.5 -192.5t-51 -151.5t-86 -99.5t-128.5 -35.5q-23 0 -38.5 4t-19.5 5v73q2 -1 17.5 -4.5t36.5 -3.5q54 0 92.5 29.5t64 83.5t39.5 130t19 169l58 966h798v-1443h-79z" />
<glyph unicode="&#x41c;" horiz-adv-x="1624" d="M1486 0h-76v1279h-4l-556 -1276h-76l-556 1276h-4v-1279h-76v1443h88l583 -1340h6l581 1340h90v-1443z" />
<glyph unicode="&#x41d;" horiz-adv-x="1347" d="M1130 0v705h-913v-705h-79v1443h79v-666h913v666h79v-1443h-79z" />
<glyph unicode="&#x41e;" horiz-adv-x="1440" d="M720 1464q147 0 266 -52t203 -148.5t129 -234t45 -307.5q0 -171 -45 -308.5t-128.5 -234t-202.5 -148.5t-267 -52t-267 52t-202.5 148.5t-128.5 234t-45 308.5q0 170 45 307.5t129 234t203 148.5t266 52zM720 1390q-129 0 -232.5 -47t-177 -134t-113 -210.5t-39.5 -276.5 t39.5 -277t113 -211t177.5 -134t232 -47q129 0 232.5 47t177 134t113 211t39.5 277t-39.5 276.5t-113 210.5t-177 134t-232.5 47z" />
<glyph unicode="&#x41f;" horiz-adv-x="1334" d="M1117 0v1370h-900v-1370h-79v1443h1058v-1443h-79z" />
<glyph unicode="&#x420;" horiz-adv-x="1136" d="M607 1443q105 0 191 -30.5t146.5 -87t93.5 -136t33 -177.5t-33 -177.5t-94 -135.5t-146.5 -86.5t-190.5 -30.5h-390v-582h-79v1443h469zM217 654h377q91 0 164.5 24.5t125 71t79 113t27.5 149.5q0 84 -27.5 150.5t-79 113t-125 71t-164.5 24.5h-377v-717z" />
<glyph unicode="&#x421;" horiz-adv-x="1345" d="M712 -21q-145 0 -262.5 53t-200 150.5t-127.5 236.5t-45 311q0 168 44.5 304t127.5 231.5t200 147t263 51.5q109 0 206.5 -35.5t173.5 -98.5t125 -149t61 -186h-80q-12 84 -55 156t-108 125.5t-148 83.5t-175 30q-127 0 -229.5 -46t-174.5 -132t-111 -208t-39 -274 q0 -156 39.5 -281t111.5 -213t174.5 -135.5t228.5 -47.5q94 0 177.5 26.5t148 74.5t106 116t53.5 152h80q-12 -100 -59.5 -181.5t-122 -139.5t-172.5 -90t-211 -32z" />
<glyph unicode="&#x422;" horiz-adv-x="1158" d="M539 0v1370h-508v73h1096v-73h-508v-1370h-80z" />
<glyph unicode="&#x423;" horiz-adv-x="1138" d="M265 -9q-30 0 -47.5 4t-21.5 6v73q5 -2 22.5 -5.5t46.5 -3.5q48 0 87 21t72 58.5t62 88.5t57 112l-511 1098h87l463 -1005h6l437 1005h84l-468 -1062q-39 -90 -76.5 -162t-81 -122.5t-96 -78t-122.5 -27.5z" />
<glyph unicode="&#x424;" horiz-adv-x="1527" d="M724 1229q-132 -1 -238.5 -37t-182 -102t-116 -159t-40.5 -208t41 -208t116 -159t181.5 -102t238.5 -37v1012zM1379 723q0 115 -40.5 208t-115.5 159t-181.5 102t-238.5 37v-1012q132 1 238.5 37t181.5 102t115.5 159t40.5 208zM724 145q-152 1 -273 41.5t-206.5 115.5 t-131 181.5t-45.5 239.5t45.5 239.5t131 181.5t206.5 115.5t273 41.5v155h79v-155q151 -1 272.5 -41.5t206.5 -115.5t131 -181.5t46 -239.5t-45.5 -239.5t-131 -181.5t-207 -115.5t-272.5 -41.5v-158h-79v158z" />
<glyph unicode="&#x425;" horiz-adv-x="1235" d="M568 722v2l-514 719h95l469 -658h2l471 658h92l-518 -721v-2l515 -720h-95l-468 656h-2l-471 -656h-92z" />
<glyph unicode="&#x426;" horiz-adv-x="1400" d="M1301 -285v285h-1163v1443h79v-1370h893v1370h79v-1370h187v-358h-75z" />
<glyph unicode="&#x427;" horiz-adv-x="1226" d="M1009 0v737h-4q-26 -26 -64.5 -54.5t-90.5 -52t-117.5 -39t-144.5 -15.5q-106 0 -194 34t-151.5 96.5t-98.5 150.5t-35 197v389h79v-380q0 -98 30 -174.5t83.5 -129.5t126.5 -81t160 -28q89 0 160.5 21.5t125 51.5t87.5 62.5t48 55.5v602h79v-1443h-79z" />
<glyph unicode="&#x428;" horiz-adv-x="1770" d="M138 1443h79v-1370h629v1370h79v-1370h628v1370h79v-1443h-1494v1443z" />
<glyph unicode="&#x429;" horiz-adv-x="1844" d="M1744 -285v285h-1606v1443h79v-1370h629v1370h79v-1370h628v1370h79v-1370h188v-358h-76z" />
<glyph unicode="&#x42a;" horiz-adv-x="1389" d="M394 0v1370h-352v73h431v-588h387q105 0 190.5 -30.5t146.5 -86t94 -134.5t33 -176t-33 -176t-93.5 -135t-146 -86.5t-190.5 -30.5h-467zM847 73q92 0 165.5 24.5t125 70.5t79 112t27.5 148t-27.5 147.5t-79.5 111.5t-125.5 71t-164.5 25h-374v-710h374z" />
<glyph unicode="&#x42b;" horiz-adv-x="1509" d="M1292 0v1443h79v-1443h-79zM138 1443h79v-588h387q105 0 190.5 -30.5t146.5 -86t94 -134.5t33 -176t-33 -176t-93.5 -135t-146.5 -86.5t-191 -30.5h-466v1443zM591 73q92 0 165.5 24.5t125 70.5t79 112t27.5 148t-27.5 147.5t-79.5 111.5t-125.5 71t-164.5 25h-374v-710 h374z" />
<glyph unicode="&#x42c;" horiz-adv-x="1133" d="M138 1443h79v-588h387q105 0 190.5 -30.5t146.5 -86t94 -134.5t33 -176t-33 -176t-93.5 -135t-146.5 -86.5t-191 -30.5h-466v1443zM591 73q92 0 165.5 24.5t125 70.5t79 112t27.5 148t-27.5 147.5t-79.5 111.5t-125.5 71t-164.5 25h-374v-710h374z" />
<glyph unicode="&#x42d;" horiz-adv-x="1353" d="M649 -21q-117 0 -217 31.5t-176.5 89.5t-125.5 140t-63 182h80q13 -82 56.5 -150t110.5 -116.5t152.5 -75.5t182.5 -27q124 0 224.5 46t171.5 131t109.5 205.5t40.5 269.5h-736v72h734q-6 140 -46.5 253.5t-111.5 193.5t-168.5 123t-217.5 43q-92 0 -177 -30 t-152.5 -83.5t-113.5 -125.5t-59 -156h-80q9 67 35 128t66.5 113t93 94t114 72t130.5 46t143 16q145 0 261 -52t197.5 -148.5t125 -234t43.5 -307.5q0 -172 -43 -309.5t-124 -234t-197.5 -148t-262.5 -51.5z" />
<glyph unicode="&#x42e;" horiz-adv-x="1853" d="M1152 -24q-144 0 -258.5 50.5t-195 145t-124.5 229.5t-46 304h-311v-705h-79v1443h79v-666h312q7 160 53 288t126.5 217t193 137t250.5 48q145 0 260.5 -52t196.5 -148.5t124 -234.5t43 -310q0 -173 -43 -311t-124 -234.5t-196.5 -148.5t-260.5 -52zM1152 1393 q-125 0 -225.5 -47.5t-171.5 -135t-109 -211.5t-38 -277t38 -277.5t108.5 -212t171.5 -135t226 -47.5q124 0 224.5 47.5t171.5 135.5t109 212t38 277t-38 277t-109 211.5t-171.5 135t-224.5 47.5z" />
<glyph unicode="&#x42f;" horiz-adv-x="1157" d="M940 1370h-374q-93 0 -166.5 -23.5t-124.5 -68t-78 -108t-27 -143.5t27 -143.5t78 -107.5t124.5 -67.5t166.5 -23.5h374v685zM129 0h-92l423 622q-81 12 -149 44.5t-117 84.5t-76.5 121t-27.5 155q0 96 32.5 173t92.5 131t145.5 83t192.5 29h466v-1443h-79v612h-395z" />
<glyph unicode="&#x430;" horiz-adv-x="1040" d="M463 55q81 0 151.5 27t123 73.5t82.5 109t30 134.5v161l-359 -27q-155 -11 -236 -72.5t-81 -170.5q0 -51 21.5 -94.5t60 -74.5t91.5 -48.5t116 -17.5zM453 -14q-79 0 -144.5 22t-113 62.5t-73.5 96t-26 123.5q0 139 97 216.5t288 91.5l369 27v96q0 70 -21 126t-60.5 94 t-96.5 58.5t-130 20.5q-138 0 -224 -66.5t-106 -189.5h-75q7 75 39.5 135t85.5 103t124.5 66t156.5 23q88 0 159.5 -25.5t121 -72.5t76.5 -115t27 -152v-726h-75v232h-2q-20 -55 -58.5 -100t-91 -77.5t-115.5 -50.5t-132 -18z" />
<glyph unicode="&#x431;" horiz-adv-x="1125" d="M569 -20q-116 0 -205 40.5t-150.5 119.5t-93 193.5t-31.5 263.5q0 245 28.5 414t93.5 274.5t170.5 153t260.5 49.5q39 0 84 2t76 5q54 5 100 14t77 23v-68q-24 -14 -69.5 -24t-101.5 -15q-32 -4 -78.5 -6.5t-86.5 -2.5q-124 -1 -209.5 -34t-141.5 -106.5t-87 -191 t-46 -287.5h4q50 131 157 203.5t256 72.5q108 0 195.5 -38.5t149.5 -109t95.5 -170t33.5 -222.5q0 -126 -34 -228t-97 -174.5t-152 -111.5t-198 -39zM569 51q92 0 166.5 34t127 97t80.5 152t28 199q0 108 -28 194.5t-80.5 147.5t-127 94t-166.5 33q-93 0 -167 -33 t-126.5 -94t-80.5 -147.5t-28 -194.5q0 -111 28 -200t80.5 -151.5t127 -96.5t166.5 -34z" />
<glyph unicode="&#x432;" horiz-adv-x="984" d="M206 1008v-417h308q61 0 110 15t83.5 43t52.5 68.5t18 90.5q0 95 -66 147.5t-187 52.5h-319zM206 523v-455h329q148 0 224 58.5t76 175.5q0 55 -22 96.5t-63.5 69t-100 41.5t-131.5 14h-312zM129 1077h401q75 0 135 -18.5t102.5 -52.5t65 -82.5t22.5 -109.5 q0 -49 -14.5 -91t-41.5 -74.5t-64.5 -54.5t-83.5 -30v-4q53 -5 100.5 -24t83 -52t56 -79t20.5 -104q0 -147 -98 -224t-276 -77h-408v1077z" />
<glyph unicode="&#x433;" horiz-adv-x="859" d="M206 1009v-1009h-77v1077h675v-68h-598z" />
<glyph unicode="&#x434;" horiz-adv-x="1188" d="M902 1009h-546q-2 -33 -5 -77.5t-6 -95t-7 -104.5t-8 -105t-8 -97t-7 -80q-6 -59 -13.5 -115t-20 -105t-30.5 -90t-44 -69v-3h695v941zM24 -285v353h85q31 20 53 58t38 88.5t26 111.5t16 129q3 36 7 86.5t8.5 108t9 118.5t8 118t6.5 106.5t5 84.5h693v-1009h178v-353h-74 v285h-985v-285h-74z" />
<glyph unicode="&#x435;" horiz-adv-x="1082" d="M546 1021q-84 0 -154 -31t-121 -87t-81.5 -135.5t-34.5 -175.5h773q0 96 -28 175t-78.5 135.5t-120.5 87.5t-155 31zM994 301q-13 -68 -50 -126t-93.5 -100t-131.5 -65.5t-164 -23.5q-110 0 -198.5 37.5t-151 108.5t-96.5 173t-34 232q0 125 34 227.5t95.5 175t148.5 112 t194 39.5q104 0 189 -37t145 -105.5t93 -164.5t33 -213v-45h-853v-4q0 -110 29 -196.5t81.5 -146.5t126.5 -91.5t165 -31.5q74 0 135 18.5t107 51t75.5 77.5t41.5 98h79z" />
<glyph unicode="&#x436;" horiz-adv-x="1424" d="M1398 0h-108l-537 535h-4v-535h-77v535h-4l-537 -535h-105l566 560l-542 517h104l514 -495h4v495h77v-495h4l514 495h102l-539 -514z" />
<glyph unicode="&#x437;" horiz-adv-x="939" d="M477 -19q-88 0 -159 21.5t-123.5 60t-85.5 92t-45 118.5h78q11 -47 37.5 -88t68.5 -71t99.5 -47.5t129.5 -17.5q70 0 127 16.5t97 47.5t62 76t22 101q0 59 -22.5 102.5t-64 72t-100.5 42.5t-132 14h-173v68h173q135 0 209 59t74 160q0 48 -18.5 88t-53 68t-85 43.5 t-113.5 15.5q-69 0 -123.5 -18t-94.5 -49t-65.5 -74t-35.5 -92h-77q12 63 42 118t79.5 95.5t118 64t155.5 23.5q81 0 145.5 -20t109.5 -56.5t68.5 -88.5t23.5 -116q0 -48 -16.5 -89.5t-45.5 -73.5t-69 -54t-86 -31v-5q52 -7 98.5 -27t81 -52.5t54.5 -78t20 -104.5 q0 -75 -28 -133.5t-78.5 -98.5t-121.5 -61t-157 -21z" />
<glyph unicode="&#x438;" horiz-adv-x="1103" d="M129 0v1077h77v-955h5l686 955h77v-1077h-77v954h-4l-687 -954h-77z" />
<glyph unicode="&#x439;" horiz-adv-x="1103" d="M362 1503q0 -92 55.5 -145t152.5 -53t152.5 53t55.5 145h65q0 -59 -19 -105.5t-54.5 -79.5t-86 -50.5t-113.5 -17.5t-113.5 17.5t-86 50.5t-54.5 79.5t-19 105.5h65zM129 0v1077h77v-955h5l686 955h77v-1077h-77v954h-4l-687 -954h-77z" />
<glyph unicode="&#x43a;" horiz-adv-x="948" d="M922 0h-109l-603 535h-4v-535h-77v1077h77v-495h4l580 495h104l-605 -516z" />
<glyph unicode="&#x43b;" horiz-adv-x="1091" d="M327 450q-8 -95 -22.5 -179t-42 -146t-71.5 -98t-112 -36q-23 0 -38.5 4t-17.5 6v71q2 -1 16.5 -5t37.5 -4q45 0 75.5 30t50.5 82.5t31.5 124t18.5 155.5q3 36 7 86.5t8 108t8 118.5t7.5 118t6.5 106.5t5 84.5h667v-1077h-77v1009h-519q-2 -33 -5 -77.5t-6 -95 t-6.5 -104.5t-7.5 -105t-7.5 -97t-6.5 -80z" />
<glyph unicode="&#x43c;" horiz-adv-x="1382" d="M129 0v1077h90l472 -976h4l470 976h87v-1077h-77v929h-5l-448 -921h-62l-449 921h-5v-929h-77z" />
<glyph unicode="&#x43d;" horiz-adv-x="1092" d="M885 524h-679v-524h-77v1077h77v-485h679v485h77v-1077h-77v524z" />
</font>
</defs>
</svg>
