<svg height="382.95" viewBox="0 0 50 382.95" width="50" xmlns="http://www.w3.org/2000/svg"><path d="m9.08 63.5a4.13 4.13 0 0 1 -4.08 4.35 4.35 4.35 0 0 1 0-8.68 4.12 4.12 0 0 1 4.08 4.33zm-1.59 0a2.69 2.69 0 0 0 -2.49-2.83 2.87 2.87 0 0 0 0 5.68 2.69 2.69 0 0 0 2.49-2.85z"/><path d="m16 64.4c0 2.13-1.12 3.45-3.22 3.45s-3.2-1.32-3.2-3.45v-5h1.58v5.07q0 1.86 1.62 1.86t1.62-1.86v-5.09h1.6z"/><path d="m23.45 67.7h-1.61a2.46 2.46 0 0 1 -.17-.91v-1.27c0-.71-.33-1-1.08-1h-2.16v3.18h-1.58v-8.32h3.8c1.74 0 2.86.92 2.86 2.48a2 2 0 0 1 -1.17 1.9 1.84 1.84 0 0 1 .92 1.77v1.16a3.24 3.24 0 0 0 .19 1.01zm-2.76-4.64a1.15 1.15 0 0 0 1.23-1.12c0-.27 0-1.09-1.27-1.09h-2.22v2.21z"/><path d="m30.43 67.7h-3.08v-8.32h3.08c2.32 0 3.76 1.59 3.76 4.16s-1.48 4.16-3.76 4.16zm0-6.85h-1.5v5.38h1.5c1.89 0 2.17-1.69 2.17-2.7 0-1.23-.38-2.68-2.17-2.68z"/><path d="m41.64 67.7h-1.91l-3.39-5.92v5.92h-1.58v-8.32h1.9l3.34 5.92v-5.92h1.6z"/><path d="m44.13 66-.57 1.67h-1.68l2.91-8.32h2l2.9 8.32h-1.69l-.55-1.67zm1.65-4.89-1.16 3.42h2.38z"/><path d="m25 91.93v291.02" fill="none" stroke="#1a1a1a" stroke-miterlimit="10"/><g fill="#1a1a1a"><path d="m38.21 24.41a.86.86 0 0 0 -1.21.15.85.85 0 0 0 .14 1.2c4 3.11 7.25 12.07 7.25 13.2a.86.86 0 0 0 .71.84c.33-.45.64-.91.94-1.37-.49-2.56-3.83-10.88-7.83-14.02z"/><path d="m50 23.86c-.15-.24-.26-.39-.27-.42a.86.86 0 1 0 -1.38 1 8.73 8.73 0 0 1 1.43 4 25.62 25.62 0 0 0 .22-3.51c0-.36 0-.71 0-1.07z"/><path d="m47.28 26a.86.86 0 0 0 -1 1.37c1.11.84 2.15 3.68 1.94 4.42a.85.85 0 0 0 .53 1 24 24 0 0 0 .84-3.18 8.13 8.13 0 0 0 -2.31-3.61z"/><path d="m23.84 18.19a23.82 23.82 0 0 0 -23.74 4.61c-.1.7-.1 1.41-.1 2.13a.87.87 0 0 0 .56-.23 22.1 22.1 0 0 1 22.73-4.88c9.8 3.27 16.75 12 18.58 23.31a1.06 1.06 0 0 0 .06.19c.5-.46 1-.94 1.45-1.44-2.17-11.49-9.38-20.31-19.54-23.69z"/><path d="m24.12 24.59c-5-1.32-12.73-.77-22.93 8q.28.89.63 1.74c8-7 15.44-9.76 21.86-8 6.85 1.83 12.29 9 15 19.61.51-.34 1-.69 1.5-1.06-2.96-11.14-8.62-18.3-16.06-20.29z"/><path d="m2.9 18.58a27.17 27.17 0 0 1 23.65-2.79c8.26 2.76 14.08 8.49 15 10.92a.86.86 0 0 0 1.11.5.86.86 0 0 0 .49-1.11c-1.15-3.1-7.58-9.1-16.06-11.94a28.8 28.8 0 0 0 -25.1 3 .87.87 0 0 0 -.27 1.19.86.86 0 0 0 1.18.23z"/><path d="m48.59 16.65a24.55 24.55 0 0 0 -1.39-3.2.87.87 0 0 0 -.11 1.21c.49.65 1 1.34 1.5 1.99z"/><path d="m5.88 12.75c1.17-1 7.06-3.05 14.7-2.19h.18c6.49.77 15.73 3.84 23.34 14.05a.83.83 0 0 0 .59.34.88.88 0 0 0 .62-.16.85.85 0 0 0 .17-1.2c-8.05-10.79-17.91-13.93-24.71-14.74-7.48-.84-14.11 1-16 2.59a.86.86 0 0 0 1.12 1.31z"/><path d="m36.64 45.18a56.67 56.67 0 0 1 -5.08-10.73.86.86 0 1 0 -1.63.54 58.07 58.07 0 0 0 5.22 11l.67 1.17a1 1 0 0 0 .17.18c.48-.23.95-.49 1.42-.75a.94.94 0 0 0 -.1-.28z"/><path d="m13.74 42a.86.86 0 0 0 -1.18.27 8.77 8.77 0 0 0 -1.11 3.64c.53.34 1.07.67 1.63 1a7.85 7.85 0 0 1 .92-3.69.86.86 0 0 0 -.26-1.22z"/><path d="m21.39 22.58a.86.86 0 0 0 .51-1.65c-7.09-2.17-16.64 2.52-21.76 6.61.06.67.17 1.33.29 2 4.46-3.91 14.16-9.05 20.96-6.96z"/><path d="m7.23 8.26c1.22-.93 11-3.54 21.08-1.12a26.47 26.47 0 0 1 18.5 14.72.83.83 0 0 0 .67.48.82.82 0 0 0 .48-.08.87.87 0 0 0 .4-1.15 28.14 28.14 0 0 0 -19.65-15.64 42 42 0 0 0 -19.71.3 24.46 24.46 0 0 0 -2.68 2.56.86.86 0 0 0 .91-.07z"/><path d="m28.4 35c-1.7-3.93-4-6.1-6.93-6.44-4.4-.51-9.68 3.31-15.7 11.38l-.4.52c.37.46.74.91 1.14 1.35l.64-.84c5.55-7.43 10.43-11.13 14.11-10.7 2.24.26 4.11 2.09 5.55 5.42a37.17 37.17 0 0 1 1.26 3.75c.91 3.06 2 6.68 4.32 9.43.59-.18 1.18-.39 1.75-.62-2.39-2.49-3.46-6.07-4.42-9.31a37.67 37.67 0 0 0 -1.32-3.94z"/><path d="m10.4 31.78a.85.85 0 0 0 -1.17-.3 28.28 28.28 0 0 0 -6.37 5.07c.28.53.58 1.05.89 1.56a26.35 26.35 0 0 1 6.35-5.11.86.86 0 0 0 .3-1.22z"/><path d="m21.53 34.28a4.52 4.52 0 0 0 -3.53-.08 18.11 18.11 0 0 0 -9.85 9.17c.44.4.89.78 1.36 1.15a16.5 16.5 0 0 1 9.09-8.7 2.72 2.72 0 0 1 2.22 0c2.18 1.08 3.69 5.37 5.18 9.51.54 1.56 1.06 3.09 1.64 4.47.59-.06 1.18-.15 1.76-.25-.63-1.45-1.21-3.13-1.78-4.78-1.62-4.48-3.2-9.11-6.09-10.49z"/><path d="m18.16 39.61a2.27 2.27 0 0 0 -1.68 1.39c-.72 1.52-.5 4.43.1 7.51.61.22 1.24.41 1.87.58-.67-3.11-1-6.08-.41-7.35.16-.36.33-.39.41-.4 1.59-.26 3.22 4.59 4.38 8.53.6 0 1.21.08 1.82.09-1.65-5.6-3.36-10.89-6.49-10.35z"/><path d="m44.64 11.54a.89.89 0 0 0 .5.23.83.83 0 0 0 .71-.25.55.55 0 0 0 .12-.19 25.62 25.62 0 0 0 -2.14-2.83 36.55 36.55 0 0 0 -20.55-8.5 25 25 0 0 0 -8.55 2.14c7.46-1.58 20.19-.02 29.91 9.4z"/></g></svg>