<svg height="95" viewBox="0 0 520 95" width="520" xmlns="http://www.w3.org/2000/svg"><g fill="#1a1a1a"><path d="m0 29.03h17.72v62.08h-17.72z"/><path d="m0 8.29h17.72v16.67h-17.72z"/><path d="m53.28 27.52a20.62 20.62 0 0 0 -14.2 5.48v-4h-17v62.11h17.7v-36.11c0-6.14 4.36-10.6 10.37-10.6 8.62 0 9.91 6.64 9.91 10.6v36.11h17.71v-36.11c0-16.42-9.84-27.48-24.49-27.48z"/><path d="m108.94 51.28c-7-1.09-10.79-2.07-10.79-4.13 0-1.37 2.37-3.54 8.75-3.54 4.58 0 8 1.6 8.81 4.16l.27.83h18.19l-.25-1.43c-2.09-11.93-12.7-19.65-27-19.65-18.35 0-26.7 10.54-26.7 20.33 0 15.09 16.87 17.66 25.93 19 10.93 1.71 11.49 3.08 11.49 5.18 0 2.46-3.85 4.11-9.56 4.11-4.53 0-9.87-1.91-11.63-6.19l-.3-.76h-17.76l.2 1.39c1.92 13.3 13.48 21.89 29.47 21.89s27.39-8.79 27.39-21.37c0-14.28-12.54-17.52-26.51-19.82z"/><path d="m136.43 29.03h17.71v62.08h-17.71z"/><path d="m136.43 8.29h17.71v16.67h-17.71z"/><path d="m202.21 33.27a26.29 26.29 0 0 0 -16.39-5.52c-16.59 0-29.59 14.22-29.59 32.38s13 32.25 29.59 32.25a26.18 26.18 0 0 0 17.09-6.08v4.81h17v-88.61h-17.7zm-14.07 42.56c-7.9 0-14.08-6.85-14.08-15.59 0-8.93 6.18-15.93 14.08-15.93s14.07 7.15 14.07 15.93c0 8.6-6.31 15.59-14.07 15.59z"/><path d="m252.59 27.52c-17.53 0-31.79 14.63-31.79 32.61s14.26 32.37 31.79 32.37c14.76 0 26.26-8.15 30-21.27l.44-1.54h-18.65l-.35.64c-2.12 4-6.44 6.31-11.55 6.31a13.81 13.81 0 0 1 -13.29-9.39h44.51l.1-1.1c1.1-11.75-1.76-21.74-8.26-28.87a30.57 30.57 0 0 0 -22.95-9.76zm-13.09 24.79a13.92 13.92 0 0 1 13-8.93 13.66 13.66 0 0 1 13.28 8.93z"/><path d="m314.32 2.5h17.72v88.61h-17.72z"/><path d="m392.84 80.17v-31.05c0-5.07-2-21.6-27.28-21.6-15.83 0-27.58 8.38-29.23 20.86l-.19 1.37h17.6l.25-.89c1.24-4.56 7.05-6.63 11.92-6.63 6.35 0 9.68 2.24 9.68 4.46 0 3.58-5.6 4.78-15.93 5.74-11.89 1-25.55 4.18-25.55 19.28 0 14.2 12.77 20.56 25.43 20.56 7.3 0 13.18-1.86 17.52-5.53a18.32 18.32 0 0 0 1.18 3.66l.33.71h16.5l-.56-1.61a35.23 35.23 0 0 1 -1.67-9.33zm-16.68-13.44c0 8.63-10.73 9.56-15.35 9.56-5.22 0-8.87-1.84-8.87-4.46 0-3.15 3.22-4.79 11.09-5.63 6.05-.68 10.15-1.6 13.13-3z"/><path d="m490.36 51.28c-7-1.09-10.79-2.07-10.79-4.13 0-1.37 2.38-3.54 8.75-3.54 4.58 0 8 1.6 8.81 4.16l.28.83h18.19l-.25-1.43c-2.1-11.93-12.7-19.65-27-19.65-18.34 0-26.7 10.54-26.7 20.33 0 15.09 16.87 17.66 25.94 19 10.89 1.74 11.41 3.15 11.41 5.21 0 2.46-3.84 4.11-9.56 4.11-4.52 0-9.87-1.91-11.62-6.19l-.31-.76h-17.51a35.93 35.93 0 0 0 1.15-9.09c0-18.16-13-32.38-29.59-32.38a26.27 26.27 0 0 0 -16.28 5.5v-30.75h-17.87v88.61h17.14v-4.78a26.17 26.17 0 0 0 17 6c13.56 0 24.72-9.46 28.35-22.8l.14 1c1.92 13.3 13.49 21.89 29.47 21.89s27.39-8.79 27.39-21.37c-.03-14.23-12.56-17.47-26.54-19.77zm-61 24.55c-7.76 0-14.08-7-14.08-15.59 0-8.78 6.32-15.93 14.08-15.93s14.08 7 14.08 15.93c-.04 8.76-6.23 15.59-14.12 15.59z"/></g></svg>