<?xml version="1.0" encoding="UTF-8"?><svg id="Layer_2" xmlns="http://www.w3.org/2000/svg" viewBox="0 0 1920.49 1080.46"><defs><style>.cls-1{opacity:0.75;}.cls-2{stroke:#004040;}.cls-2,.cls-3,.cls-4,.cls-5{fill:none;stroke-miterlimit:10;stroke-width:0.75px;}.cls-3{stroke:#005757;}.cls-4{stroke:#008f8f;}.cls-5{stroke:#006e6e;}</style></defs><g id="Layer_3"><g class="cls-1"><path class="cls-2" d="M1920.16,39.22c-21.17,5.96-42.97,4.76-64.6,4.35-12.79-.24-25.58-1.01-38.4-1-30.21,.01-59.55,5.12-88.35,13.05-13.26,3.65-24.48,11.12-35.99,17.94-6.69,3.97-13.22,8.2-20.17,11.73-5.6,2.85-11.7,4.08-17.63,.12-1.41-.94-3.05-1.36-4.86-1.16-15.51,1.77-23.33-6.34-28.06-18.56-3.74-9.7-7.79-19.21-14.49-27.68-4.12-5.21-4.95-11.95-7.46-17.93-4.33-10.33-6.79-12.1-18.87-11.74-11.27,.33-22.38,.04-33.55-1.65-9.31-1.41-18.28,2.01-27.42,3.17-10.56,1.34-21.27,1.88-31.06,6.3-5.55,2.51-11.28,4.66-15.31,9.5-9.16,11.01-18.5,21.91-28.05,32.64-3.37,3.78-3.89,8.64-7.12,12.53-8.36,10.08-16.83,20.13-23.34,31.41-2.14,3.71-4.15,7.46-6.05,11.28-1.52,3.05-2.64,6.56-8.01,6.18,1.27,7.25-2.06,13.28-3.14,19.7-1.21,7.17-.98,14.56,2.98,20.09,5.7,7.95,3.56,13.89-.82,21.11-9.82,16.17-16.26,33.57-15.82,52.29,.49,20.83,1.06,41.66,1.11,62.5,.02,7.89-2.84,14.48-8.54,20.3-5.81,5.93-11.41,12.05-16.51,18.54-9.83,12.53-10.44,25.15-1.28,38.33,6,8.64,11.48,17.45,21.35,23.13,7.06,4.06,10.21,11.02,12.8,17.95,5.19,13.87,10.21,27.81,13.45,42.21,2.65,11.78,.91,23.65,.51,35.47-.35,10.41-.4,20.35,7.91,28.82,3.94,4.02,6.13,9.33,8.03,14.54,3.12,8.54-.45,16.24-5.03,22.99-13.76,20.24-24.15,41.97-34.57,63.72-2.41,5.03-3.3,10.1-2.64,15.78,.95,8.18,.95,16.51,.67,24.75-.17,5.14,1.42,9.44,4.4,13.51,14.36,19.63,9.49,43.83-10.85,58.7-9.72,7.11-20.08,13.31-30.02,20.08-4.86,3.32-8.27,7.55-10.94,12.43-7.37,13.5-14.92,26.89-22.87,40.12-4.47,7.43-8.54,15.56-8.86,24.63-.55,15.24,6.96,27.91,14.68,40.53,4.66,7.62,10.47,14.56,14.73,22.47,10.18,18.87,9.37,37.17-1.98,55.21-3.76,5.98-8.47,11.19-15.19,14.68-8.8,4.58-17.54,9.28-26.21,14.07-9,4.97-18.74,3.6-28,1.99-7.72-1.35-15.5-2.46-23.23-2.92-11.31-.67-21.33-3.88-29.76-10.45-12.12-9.43-23.85-19.28-30.65-33.09-3.65-7.42-4.8-15.27-5.96-23.13-4.29-29.06-18.19-52.22-47-66.41-5.61-2.76-11.43-5.16-17.04-7.93-10.47-5.15-21.56-5.01-32.93-3.99-10.14,.91-20.01,1.6-30.56,.02-15.91-2.39-32.39-5.05-48.68-.53-11.95,3.31-23.92,6.57-35.96,9.56-23.55,5.83-45.2,2.11-65.91-9.96-23.89-13.92-47.88-27.71-71.09-42.54-15.87-10.14-29.81-22.7-44.64-34.15-15.32-11.82-29.57-24.89-46.9-34.38-10.24-5.61-21.32-9.46-32.32-13.48-13.26-4.84-25.03-11.56-35.49-20.71-8.04-7.03-15.88-14.8-27.28-17.6-14.72-3.61-28.87-8.3-40.92-17.36-1.48-1.11-3.91-1.38-5.99-1.86-6.42-1.49-12.89-2.97-18.89-5.6-6.04-2.65-12.28-3.62-18.92-3.36-13.46,.52-26.85-.13-39.58-4.57-6.52-2.27-12.78-5.3-18.9-8.4-10.87-5.51-22.69-7.96-34.78-8.24-19.42-.45-37.95-4.69-55.99-10.49-12.61-4.05-24.78-7.57-38.49-6.76-16.5,.99-32.96-1.1-49.38-2.98-4.88-.56-10.13,.29-15.21,.37-22.58,.34-45.05,2.68-67.65,2.94-15.34,.17-30.54-1.26-45.69-2.64-11.21-1.03-22.39-.41-33.56-1.33-26.02-2.16-49.85-7.97-67.83-27.53-8.98-9.77-17.64-20.96-30.45-26.27-17.06-7.06-30.39-19.4-47.4-26.19-1.84-.73-3.06-2.17-4.85-2.86"/><path class="cls-2" d="M1428.9,.37c-7.72,12.58-17.69,23.69-28.24,34.17-6.55,6.5-13.19,12.76-18.08,20.45-4.66,7.32-7.66,14.97-8.73,23.63-2.02,16.26-6.73,32.12-13.47,47.21-3.03,6.78-8.32,12.39-15.18,17.45-8.19,6.05-15.97,13.91-18.71,24.31-1.08,4.08-1.22,8.3-1.64,12.41-1.77,17.25-1.52,34.49,.26,51.8,1.58,15.32,1.89,30.79-.44,46.15-1.35,8.9-7.09,15.86-12.2,23.08-6.74,9.52-14.6,18.54-17.57,29.87-1.89,7.21-3.18,14.59-4.29,21.95-1.53,10.18,3.13,19.33,7.52,28.03,4.14,8.19,7.92,16.47,11.18,24.93,2.25,5.85,5.06,10.77,11.06,14.1,7.78,4.32,11.94,10.96,14.88,19.01,6.17,16.91,12.22,33.72,11.34,51.86-.51,10.43-3.79,20.39-6.64,30.41-1.8,6.34-3.47,12.72-4.86,19.14-1.57,7.26-.06,13.83,6.7,18.52,2.37,1.65,4.3,3.55,5.89,5.53,1.31,5.2-1.14,9.78-3.72,13.53-3.78,5.48-7.3,11.14-11.37,16.45-6.79,8.84-8.36,18.74-7.98,29.3,.38,10.51,.25,21.02,1.12,31.54,.54,6.51,1.71,12.83,3.27,19.12,2.14,8.66,3.51,17.04-1.76,25.41-3.33,5.29-8.11,9.29-13.05,12.72-12.93,8.98-21.78,20.84-29.66,33.42-10.24,16.35-20.05,32.92-28.8,50.04-7.73,15.12-10.66,30.8-8.42,47.33,.96,7.13,.51,14.27,.54,21.4,.02,5.35-4.27,7.52-9.06,4.45-8.31-5.33-15.22-11.97-20.14-20.22-3.76-6.31-8.17-11.87-14.51-16.47-9.94-7.21-16.59-17.33-24.5-26.32-13.13-14.92-29.46-24.87-49.96-29.4-18.59-4.1-37.2-7.97-56.1-10.59-13.2-1.83-26.45-3.08-39.59-.41-6.28,1.28-12.09,4.47-18.34,5.96-14.04,3.35-28.03,2.2-42.05-.94-12.28-2.75-23.25-8.17-34.03-13.73-21.78-11.22-43.17-23.11-64.67-34.81-6.42-3.49-13.2-6.78-18.2-11.88-11.08-11.3-25.48-16.25-40.96-18.94-10.42-1.81-19.4-6.11-28-11.4-12.08-7.44-23.33-15.93-34.7-24.25-2.85-2.09-5.7-2.9-9.2-2.79-4.67,.15-9.38-.29-14.01,.11-7.99,.68-14.88-1.94-20.63-6.37-9.63-7.42-20.11-13.37-31.82-17.27-13.86-4.62-23.79-13.72-32.82-23.77-12.09-13.45-26.64-23.62-44.62-29.06-5.12-1.55-9.21-4.44-13.92-6.45-6.26-2.66-12.13-3.99-18.35,.05-8.18,5.31-17.27,6.73-26.76,3.89-6.05-1.81-11.93-4.19-17.68-6.73-7.75-3.42-15-7.69-21.96-12.35-6.14-4.11-13.13-6.47-20.08-9.1-10.36-3.94-20.02-.19-29.91,1.26-22.34,3.29-32.05,.92-44.42-15.28-9.61-12.59-21.96-21.04-38.5-23.47-6.18-.91-12.42-1.59-18.88-1.47-13.86,.26-27.79-.41-41.43-3.18-16.3-3.31-32.48-7.02-49.38-6.79-14.39,.19-28.53,1.5-42.03,6.31-6.65,2.37-13.34,1.38-18.79-1.41-11.41-5.84-23.51-7.24-36.09-7.71-9.67-.36-16.86-5.67-24.47-10.53-11.51-7.35-23.64-13.65-38.3-14.38-3.37-.17-5.97,.18-8.54,1.88-1.06,.7-2.11,1.42-3.04,2.25-7.28,6.47-15.35,7.86-24.39,3.37-3.44-1.71-7.15-3.06-10.31-5.13-7.91-5.18-16.98-6.93-26.27-7.7-4.87-.4-8.11-2.33-11.01-5.71-4.1-4.79-7.99-9.99-15.19-11.3"/><path class="cls-2" d="M1381.36,93.27c2.09,7.41-.76,14.39-2.51,21.38-4.24,17.01-8.85,33.93-11.6,51.24-1.56,9.82-4.39,19.48-5.85,29.31-.88,5.9-.86,12.04-.6,17.99,.96,22.15,.06,44.3,.45,66.44,.27,15.05-7.23,26.88-17.62,37.78-8.69,9.11-15.02,19.26-15.46,32.03-.22,6.43,.35,12.51,2.55,18.6,3.02,8.37,6.82,16.34,12.23,23.64,2.82,3.81,6.4,6.23,11.58,6.84,3.9,.46,6.55,3.07,8.54,6.11,4.66,7.12,8.34,14.74,12.6,22.05,3.98,6.83,5.3,14.54,2.68,22.43-2.94,8.84-.05,17.64,.55,26.45,.13,1.89,.91,3.67,.67,5.63-1.96,15.67,4.7,29.14,12.78,42.22,2.77,4.48,5.28,9.2,6.5,14.12,1.36,5.52,.01,11.25-2.92,16.26-10.34,17.67-20.05,35.74-32.48,52.24-4.75,6.31-6.74,12.86-6.9,19.86-.26,11.62-.76,23.27,.86,34.93,.93,6.66,3.95,12.5,6.44,18.5,4.22,10.16,2.91,19.9-.07,29.93-1.33,4.5-4.63,7.26-8.04,10.09-8.29,6.89-17.08,13.22-26.2,19.15-4.45,2.89-8.66,6.42-10.79,10.78-8.46,17.33-20.63,32.68-30.05,49.47-2.86,5.09-4.82,10.53-7.34,15.75-4.44,9.21-3.78,18.76-1.69,28.14,3.98,17.83,11.17,34.26,24.12,48.56,12.23,13.51,11.9,22.28,.72,38.7-1.52,2.24-3.6,4.17-5.45,6.22-12.04,13.31-28.93,12.17-41.91,4.85-21.49-12.11-38.53-28.36-49.76-49.78-5.4-10.31-11.97-20.25-23.39-26.77-7.56-4.31-11.91-11.93-16.63-18.92-16.24-24.03-41.12-35.91-70.07-41.62-14.62-2.88-29.46-4.29-44.47-4.73-12.32-.36-24,2.59-35.97,4.05-21.71,2.64-43.02,7.86-65.21,7.52-16.71-.25-32.14-3.99-47.61-9.55-29.5-10.59-54.53-27.32-78.63-45.7-7.73-5.89-16.57-10.39-25.41-14.92-11.57-5.92-22.54-12.95-32.4-21.22-15.84-13.3-34.8-21.17-54.9-26.93-8.8-2.52-16.99-6.2-24.88-10.34-5.91-3.1-9.98-8.31-14.2-13.31-9.37-11.1-21.22-19.14-35.8-23.89-4.33-1.41-8.67-.98-12.94-1.74-4.83-.86-9.43-1.93-13.26-4.39-7.1-4.55-15.28-6.22-23.29-8.18-4.25-1.04-8.26-2.35-12.13-4.12-7.32-3.35-14.99-5.08-23.17-5.06-14.04,.03-27.38-3.79-40.81-6.85-9.81-2.23-18.54-6.66-27.04-12.01-7.23-4.56-16.36-5.97-25.4-5.9-11.27,.08-22.45-1.32-33.5-2.96-13.95-2.07-26.81-7.83-40.21-11.79-8.1-2.39-15.99-2.99-24.44-2.29-10.96,.91-21.94-.66-32.91-1.42-16.94-1.17-33.41-5.71-50.58-5.33-8.43,.19-15.83-3.63-22.56-8.29-3.16-2.18-6.11-4.76-9.8-5.22-3.11,.26-4.7,2.24-5.9,3.62-9.85,11.24-22.35,11.53-36.1,8.39-23.73-5.41-47.51-10.61-71.31-15.76-4.97-1.08-10.14,.47-15.25-.5-2.61-.5-5.79-.74-7.15-2.45-6.78-8.52-16.47-12.13-26.96-14.52-9.66-2.2-17.21-7.99-25.64-12.33-11.23-5.77-23.27-9.98-35.27-14.24-8.91-3.16-17.08-7.56-21.97-15.69"/><path class="cls-2" d="M1494.73,.37c-12.27,1.61-23.17,6.38-33.52,12.39-19.46,11.31-28.2,29.95-37.67,47.9-6.47,12.28-14.05,23.5-26.34,31.45-6.01,3.89-7.95,9.17-8.04,15.78-.1,8.12-3.22,15.82-5.24,23.67-2.41,9.38-4.67,18.8-3.26,28.7,1.86,13.11-2.48,25.62-5.29,38.29-2.3,10.36-2.17,20.91-2.1,31.51,.15,22.33,1.63,44.73-1.22,66.98-1.1,8.63-7.92,14.99-13.85,21.41-6.65,7.2-12.11,15.06-16.52,23.62-3.33,6.46-2.34,12.82-.44,19.15,1.43,4.79,3.71,9.36,5.54,14.05,2.02,5.15,6.52,8.49,11.22,12.1,16.78,12.88,27.65,29.59,32.4,49.34,2.08,8.65,1.93,17.46,1.82,26.45-.25,21.09-.65,42.69,11.76,61.89,1.18,1.83,1.19,4.16,2.47,5.59,7.86,8.78,5.43,17.61-.2,25.92-10.54,15.58-18.27,32.5-28,48.44-3.36,5.51-8.19,10.29-9.09,16.92-.13,.95-.61,1.89-.57,2.82,.66,14.08-1.82,28.3,2.35,42.24,1.45,4.85,3.2,9.62,5.64,14.01,7.43,13.34,5.08,30.74-6.77,42.3-9.11,8.88-20.57,14.84-31.19,21.83-4.62,3.04-9.11,6.42-11.31,10.88-8.5,17.18-20.41,32.6-29.31,49.52-3.26,6.2-6.56,12.69-7.35,19.66-1.7,14.96,1.86,29.01,9.62,42.24,5.34,9.11,12.46,17.1,18.49,25.78,11.67,16.79,5.99,41.3-10.04,52.89-7.33,5.3-14.71,10.64-22.92,14.97-4.13,2.18-8.21,3.36-12.28,2.48-18.69-4.04-37.43-8.26-51.83-21.27-12.44-11.24-21.84-24.34-28.07-39.39-5.25-12.68-12.75-24.03-23.03-33.88-3.3-3.16-5.42-7.4-8.02-11.17-15.92-23.09-39.96-35.28-67.73-41.37-11.34-2.49-23.48-2.07-35.28-2.43-7.23-.22-14.22-1.59-21.34-2.3-9.85-.99-19.04,2.85-28.63,3.97-19.16,2.24-37.44,8.51-56.68,10.72-18.19,2.09-34.88-1.37-51.25-8.48-34.39-14.92-64.42-35.8-94.6-56.74-21.55-14.96-41.95-31.3-63.97-45.62-10.38-6.75-22.8-10.38-34.6-14.82-14.01-5.27-28.49-10.27-38.23-21.52-7.52-8.69-16.52-14.94-26.86-20.36-5.98-3.14-12.28-3.79-18.46-4.62-8.04-1.08-14.73-4.05-21.37-8-3.62-2.16-7.57-3.82-12.05-4.85-7.93-1.82-15.79-4.33-23.21-7.68-7.39-3.33-15.43-2.76-23.19-3.23-21.8-1.32-42.38-5.58-61.06-16.84-7.21-4.35-16.3-5.34-24.87-5.68-20.16-.79-39.6-4.22-58.54-10.74-13.47-4.63-27.39-7.25-42.03-6.37-19.41,1.17-38.61-1.94-57.9-3.28-11.82-.82-23.53,1.3-35.35,1.17-18.28-.2-36.61,.61-54.84-.29-11.83-.58-23.68-2.53-35.37-4.83-4.03-.79-8.13-.72-12.19-.53-14.31,.67-28.18-1.58-42.09-4.42-12.21-2.5-22.32-7.24-31.26-15.7-12.2-11.56-24.96-22.8-40.63-30.6-10.41-5.18-20.64-10.66-31.13-15.69-6.06-2.91-11.99-5.89-17.03-10.2"/><path class="cls-2" d="M1460.6,.37c-5.77,1.76-10.38,5.17-14.61,9.03-7.82,7.14-14.12,15.13-19.99,23.93-9.42,14.13-16.75,29.51-28.19,42.48-.54,.61-1.1,1.4-1.84,1.65-7.95,2.74-10.04,10.6-15.71,15.36-1.93,1.62-2.58,4.53-3.27,7.18-3.14,12.03-5.14,24.35-9.69,36.04-4.41,11.35-8.43,22.81-13.7,33.91-3.08,6.49-4.33,13.85-4.69,21.28-1.03,21.07,2.81,42.03,1.3,63.06-.7,9.76-.61,19.55-2.2,29.31-1.48,9.11-6.22,16.42-11.74,23.64-6.22,8.13-13.07,15.86-17.15,25.3-7.33,16.97-4.21,33.17,3.8,48.97,3.5,6.91,6.55,14.07,11.48,20.31,2.92,3.69,5.94,6.62,11.59,6.92,4.64,.24,8.3,2.79,10.45,7.12,2.5,5.03,5.76,9.72,8.41,14.69,2.47,4.65,2.32,9.93,1.06,14.57-2.4,8.8-1.42,17.32,.22,25.94,1.67,8.77,1.72,17.71,3.55,26.48,1.81,8.7,3.28,17.73,9.39,24.64,11.74,13.27,10.12,26.43,1.66,40.09-8.02,12.95-16.44,25.65-26.79,37.18-7.63,8.51-10.42,18.32-8.58,29.26,.15,.92,.07,1.88,.01,2.81-1.16,18.31,2.13,35.94,7.59,53.58,2.91,9.41,.67,19.3-7.56,26.95-5.91,5.49-12.41,10.32-18.82,15.29-10.21,7.92-17.21,18.09-23.52,29.04-7.77,13.49-18.31,25.59-25.28,39.56-5.86,11.76-11.95,23.66-10.36,37.13,2.69,22.82,10.33,44.04,25.57,62.48,9.35,11.31,6.38,24.1-7.37,29.25-8.89,3.33-18.54,3.02-26.01-1.87-15.82-10.36-30.99-21.69-40.47-38.02-1.18-2.03-2.3-4.04-2.93-6.24-.41-1.43-.39-3.16-1.9-3.88-4.98-2.37-7.14-6.97-10.32-10.76-3.06-3.65-6.43-6.8-10.95-9.07-9.85-4.93-15.5-13.58-21.34-21.91-14.09-20.09-34.35-31.4-59.11-37.3-15.14-3.61-30.35-7-45.79-8.58-12.28-1.26-25.04-1.57-37.12,2.07-15.5,4.66-31.49,5.86-47.56,7.36-25.82,2.42-49.48-4.14-73.22-12.34-28.35-9.79-52.07-26.1-75.43-43.05-9.36-6.79-19.68-11.7-30.59-15.58-10.74-3.82-19.69-10.01-28.62-16.41-12.85-9.21-25.49-18.67-42.02-22.05-9.35-1.91-18.8-3.75-27.44-7.82-9.57-4.51-19.12-8.48-25.27-17.85-6.14-9.35-16.73-15.04-26.57-20.94-12.69-7.62-27.54-11.44-40.22-19.16-2.89-1.76-6.46-1.99-9.74-2.17-7.06-.39-13.57-2.16-20.17-4.45-6.92-2.39-14.19-4.03-21.88-3.61-16.95,.94-32.48-4.62-48.15-9.48-8.12-2.52-15.57-5.97-22.65-10.58-8.74-5.71-19.19-7.51-29.76-7.97-9.74-.42-19.5-.49-29.25-.59-11.5-.12-21.45-4.29-31.11-9.56-9.97-5.44-20.85-8.42-32.25-10.34-5.47-.92-10.3,.7-15.23,1.5-6.93,1.12-13.48-.93-20.15-.67-16.43,.66-29.28-7.23-42.71-14.12-9.65-4.95-17.95-11.56-26.82-17.47-10.26-6.84-18.24-5.99-26.8,2.19-3.32,3.17-5.88,6.77-7.89,10.72-5.34,10.47-11,12.84-23.76,8.94-17.2-5.26-34.25-11.03-51.11-17.08-13.16-4.73-25.76-9.38-40.36-8.49-5.04,.31-10.62-2.01-13.59-7.48-1.43-2.63-4.24-5.13-7.83-6.28-2.33,.54-4.84,.92-7.19,1.71-9.89,3.33-19.68,1.53-27.86-3.13-8.92-5.07-18.2-7.85-28.19-9.99-14.07-3.01-23.7-11.09-28.07-24.08"/><path class="cls-2" d="M1920.16,69.62c-16.7,1.86-32.95-1.54-49.39-3.21-13.53-1.37-27.15-2.18-40.81-2.6-11-.34-21.97-.29-32.91,.27-22.82,1.18-45.58,3.41-66.99,11.32-12.35,4.56-22.82,12.35-33.67,19.45-16.7,10.92-27.28,25.63-34.73,42.88-9.95,23.05-26.97,40.97-50.07,53.25-10.06,5.35-21.74,7.66-34.02,4.96-5.11-1.12-10.54-1.43-15.82-2.33-4.86-.83-7.98-3.23-10.32-6.89-3.1-4.85-6.11-9.75-9.15-14.63-.45-.73-.61-1.75-1.26-2.21-7.8-5.57-11.71-13.43-16.03-21.33-4.44-8.12-16.96-9.31-25.38-3.48-5.73,3.96-6.32,9.18-4.93,15.22,2.25,9.79,7.81,18.45,10.61,28.09,2.27,7.82,1.52,11.98-9.93,11.18-5.95-.42-11.74-2.66-17.7-3.15-14.33-1.17-28.71-2.72-42.72,2.56-3.42,1.29-5.52,3.11-7.25,5.78-4.43,6.86-9.42,13.36-13.01,20.74-2.1,4.31-3.5,8.34-3.51,13.04,0,11.07-.98,22.18-.35,33.21,.51,8.82,.3,17.65,1.36,26.5,1.37,11.37-1.01,22.14-11.21,30.48-6.21,5.08-13.12,9.57-17.84,16.18-5.2,7.28-6.73,14.68-3.74,23.17,1.7,4.83,1.07,11.34,6.96,13.17,5.49,1.71,8.03,5.58,11.32,8.87,2.57,2.56,4.24,6.11,5.56,9.47,5.81,14.88,15.26,28.07,22.88,42.08,5.43,9.99,9.62,20.24,10.45,31.1,1.04,13.79,4.06,26.97,8.79,39.96,6.27,17.24,4.55,33.83-4.18,50.14-10.19,19.05-19.59,38.44-28.94,57.87-5.48,11.39-4.69,22.74-4.1,34.44,.54,10.66,6.03,19.47,10.82,28.8,8.94,17.41,8.64,33.34-5.2,49.51-10.89,12.73-25.54,21.05-39.84,29.58-11.66,6.95-19.88,15.2-23.84,27.74-3.25,10.29-8.77,20-14.63,29.22-6.56,10.33-5.5,19.91-.4,29.96,9.44,18.61,18.11,37.53,25.53,56.89,7.94,20.71,5.51,40.87-4.05,60.84-6.24,13.02-13.25,25.87-16.49,39.94-1.1,4.76-2.07,9.66-1.94,14.62,.25,10.16-.19,20.35-1.42,30.38-1.56,12.8-8.93,22.39-22.35,27.33"/><path class="cls-2" d="M.85,532.43c16.4,9.67,30.41,22.3,47.94,30.77,12.23,5.91,22.59,15.11,31.37,25.48,11.37,13.42,26.18,22.81,43.87,27.45,9.6,2.52,19.61,4.27,29.81,4.16,29.49-.32,58.86,3.6,88.38,2.2,17.06-.81,34.07-2.29,51.2-2.34,11.29-.03,22.42,.95,33.5,2.52,3.48,.49,6.91,1.18,10.38,.94,23.84-1.66,46.65,2.46,68.89,10.15,18.25,6.31,36.98,10.14,56.67,9.08,11.7-.63,22.67,1.95,32.92,7.26,14.37,7.45,29.88,10.52,46.31,10.81,13.32,.24,26.35,2.74,39.01,6.66,4.16,1.29,7.54,3.86,10.92,6.25,7.6,5.38,15.4,10.27,24.42,13.49,16.78,6.01,30.6,16.73,45.55,25.55,11.36,6.71,23.51,11.6,35.66,16.36,11.75,4.6,22.47,10.32,32.14,17.76,20.14,15.49,39.41,31.79,56.85,49.96,8.93,9.3,20.29,16.2,32.2,22.03,19.51,9.55,37.42,21.23,54.19,34.42,11.89,9.35,24.9,17.14,38.47,24.11,14.74,7.57,30.43,7.43,46.27,3.42,9.81-2.48,19.78-4.16,29.88-4.97,13.47-1.08,24.98,3.74,35.33,11.22,11.15,8.06,23.04,13.72,37.81,13.59,23.43-.21,37.33,12.94,48.22,30.27,7.09,11.29,12.8,23.21,18.67,35.01,8.19,16.48,20.07,29.21,37.92,37.14,12.8,5.68,24.36,13.38,35.85,20.96,8.87,5.86,18.5,9.71,28.82,11.46,15.46,2.61,27.86,9.71,38.95,19.35,9.16,7.97,16.82,17.29,26.26,25,.34,.28,1.18,.04,1.79,.04"/><path class="cls-2" d="M1920.16,54.99c-22.41,2.83-44.69,.29-67.05-.97-23.13-1.3-46.28-2.21-69.51,.74-15.63,1.99-31.19,4.35-46.2,8.39-16.75,4.51-31.43,13.46-45.15,23.42-8.18,5.94-16.76,11.38-24.52,17.87-7.25,6.07-12,13.46-15.69,21.52-5.1,11.15-10.74,22.04-19.03,31.45-8.72,9.9-19.98,16.69-32.8,21.53-9.83,3.71-18.26-2.33-17.32-12.49,.85-9.17,3.59-17.92,6.63-26.35,5.44-15.09,4.94-30.03,1.95-45.11-1.09-5.51-.75-10.91-1.03-16.36-.53-10.37-3.49-19.94-9.6-28.81-1.85-2.69-3.87-4.25-6.87-4.95-16.3-3.77-32.31-8.58-48.76-11.82-4.6-.91-9.2-1.36-14.03-.73-4.49,.58-5.99,2.5-6.11,6.33-.24,7.55-.46,15.19,1.4,22.49,3.75,14.72-1.65,27.54-8.79,39.95-4.96,8.62-14.43,12.27-23.67,15.8-6.48,2.48-13.32,4.26-18.89,8.46-4.33,3.27-5.22,7.25-4.43,12.41,1.26,8.29,3.94,16.18,6.23,24.2,.89,3.12,2.04,6.29-.08,10.47-1.84,3.29-5.98,5.32-10.86,6.43-5.41,1.23-9.32,5.21-14.6,6.83-2.9,.89-5.54,2.47-8.47,3.51-4.59,1.63-8.31,4.41-10.68,9.25-4.43,9.02-9.56,17.75-13.17,27.12-1.05,2.73-1.29,5.54-1.27,8.44,.1,12.76,.12,25.52,.02,38.29-.07,9.03,1.68,17.96,1.34,27.03-.41,10.92-4.52,19.8-14.09,26.49-9.28,6.48-17.18,15.05-18.4,25.36-1.51,12.76,1.03,26.46,14.28,34.04,11.81,6.76,17.24,16.55,21.16,27.84,4.6,13.27,10.83,25.96,16.6,38.8,5.02,11.17,6.59,22.63,5.21,34.38-1.06,9.06-.88,17.91,3.96,25.83,3.99,6.54,5.28,13.93,9.3,20.51,3.16,5.18,.15,11.36-2.2,16.72-5.35,12.17-13.05,23.25-19.36,34.97-7.17,13.3-12.99,27.19-20.07,40.56-1.28,2.42-1.48,5.46-1.41,8.39,.2,8.07,.18,16.14,.03,24.21-.11,6.19,2.24,11.36,6.04,16.39,4.88,6.45,10.38,12.64,10.55,21.33,.28,13.8-2.97,26.19-13.44,36.65-7.96,7.95-17.4,14.15-27,20.06-6.09,3.75-11.63,8.09-17.52,12.03-5.66,3.78-9.19,9.24-11.56,15.17-5.22,13.05-11.42,25.76-19.17,37.58-7.4,11.28-5.85,21.75-1.81,33.4,5.37,15.49,16.01,28.29,23.44,42.7,12.3,23.85,13.58,47.26-.51,71.05-5.51,9.31-11.68,18.24-17.45,27.38-4.6,7.29-7.46,15.15-11.35,22.64-1.06,2.04-1.84,4.24-3.09,6.17-3.68,5.66-7.81,6.67-14.61,4.58-10.96-3.38-20.1-10.11-30.98-13.77-7.44-2.5-14.81-5.08-22.63-4.74-18.57,.81-34.61-4.17-48.84-15.25-10.69-8.32-23.52-14.43-31.58-25.44-13.92-19-22.88-39.41-20.92-63.04,.48-5.75,1.21-11.64,.13-17.44-1.72-9.28-5.8-14.18-15.86-15.56-11.81-1.61-21.6-6.51-31.06-12.59-3.29-2.11-6.6-4.24-10.63-5.64-6.15,2.35-12.82,3.97-18.69,7.77-7.98,5.17-16.91,4.53-25.49,1.17-7.19-2.82-13.74-7.06-21.38-8.89-11.23-2.7-22.5-1.26-33.48,1.18-14.42,3.2-28.62,7.23-43.29,9.51-11.56,1.79-22.42-.45-32.9-4.59-14.22-5.61-26.24-14.35-38.56-22.87-16.23-11.22-33.62-20.97-51.02-30.63-8.7-4.83-16.58-10.77-23.81-17.4-19.23-17.61-39.16-34.5-60.34-50.11-11.19-8.24-23.88-13.89-37.16-18.62-15.7-5.59-30.16-13.24-43.33-23.01-5.89-4.37-12.36-8.07-18.17-12.51-3.7-2.83-7.99-3.3-12.23-4.53-9-2.6-17.39-6.59-24.99-11.76-5.98-4.07-12.23-7.17-19.49-9.11-12.82-3.41-25.36-6.85-39.06-6.24-13.9,.62-27.35-2.25-39.61-8.82-13.94-7.47-29.01-10.65-45.1-10.78-20.99-.17-40.86-5.68-60.31-12.39-11.48-3.96-22.99-6.65-35.39-6.18-25.24,.96-50.31-3.78-75.57-2.15-23.95,1.54-47.92,3.01-71.92,2.08-12.59-.49-25.21-1.16-37.8-1.36-9.35-.14-18.7,.42-28.04-.74-23.04-2.86-44.44-8.44-60.49-25.8-9.12-9.86-19.66-18.61-29.76-27.66-3.81-3.42-9.48-4.01-13.85-6.42-6.44-3.56-12.91-7.29-18.42-12.19-6.96-6.18-16.22-9.23-23.75-14.66"/><path class="cls-2" d="M.85,387.17c2.64,2.25,5.25,4.54,7.93,6.75,5.45,4.49,12.05,6.82,18.82,4.36,15.47-5.61,29.27-1.82,42,5.95,9.31,5.68,19.29,8.64,29.99,9.29,22.32,1.36,44.76,.13,67.05,2.84,10.73,1.3,21.1-2.29,31.68-3.27,16.44-1.51,31.91,2.12,46.91,7.89,2.34,.9,4.46,2.27,6.72,3.34,7.67,3.6,14.83,3.17,21.98-1.62,10.9-7.3,23.37-11.5,36.54-13.45,8.15-1.21,16.25,1.2,24.38,1.96,11.16,1.05,22.34,2.43,33.51,2.76,8.44,.25,15.92-4.43,23.76-7.1,2.66-.9,5.31-1.81,7.92-2.82,15.39-5.95,28.22,.8,40.78,7.43,12.12,6.4,22.35,15.31,32.21,24.25,14.48,13.13,31.35,19,51.35,17.86,5.55-.32,10.79-2.22,16.45-2.36,6.21-.15,11.03,1.66,15.29,5.71,3.3,3.14,6.38,6.48,10.29,9.08,7.23,4.8,15.03,4.58,23.19,2.82,7.62-1.65,14.18-.44,20.22,4.93,7.98,7.09,13.78,15.24,18.95,24.24,10.01,17.45,21.95,33.64,40.01,45.19,7.46,4.77,16.03,5.72,24.46,7.11,2.99,.49,6.01,1.15,9.1,1.44,5.28,.5,10.16,.6,14.68-2.38,.44-.29,1.19-.16,1.82-.57,8.81-5.76,17.14-3.93,25.61,1.04,11.62,6.81,22.75,14.31,33.94,21.65,12.61,8.27,26.3,13.5,40.97,17.33,13.3,3.47,24.79,10.92,31.33,21.53,12.62,20.44,31.36,33.88,52.9,44.68,6.95,3.48,13.61,7.13,19.36,12.03,7.98,6.79,16.72,12.71,24.98,19.16,8.83,6.89,15.63,15.59,23.25,23.56,8.65,9.04,17.9,17.21,30.96,21.12,4.23,1.27,7.65,.12,11.02-.47,12.01-2.12,23.65-.18,35.4,1.32,11.14,1.43,22.31,1.59,33.52,.6,12.77-1.12,25.56-2.38,38.39-1.63,9.92,.58,19.44,3.66,29.26,4.98,13.13,1.76,23.18,8.53,33.02,16.22,9.33,7.29,16.14,16.62,24.88,24.33,13.61,12.01,18.79,9.62,26.86-3.36,5.45-8.76,10.52-17.61,14.77-26.98,6.4-14.11,17.4-25.56,27.86-37.23,5.51-6.14,11.55-11.83,17.64-17.49,6.8-6.32,5.61-14.39,4.14-21.9-2.23-11.4-3.3-22.8-3.67-34.37-.25-7.8-2.94-14.8-11.3-19.32-5.92-3.2-11.43-7.26-16.62-11.6-9.7-8.12-9.23-17.19-.55-25.38,6.04-5.69,12.27-11.2,17.72-17.42,4.2-4.81,7.51-10.05,9.63-15.82,3.7-10.06,7.47-20.13,10.3-30.41,3.34-12.11,2.53-24.4-.48-36.57-4.06-16.41-7.28-33.13-15.38-48.36-6.01-11.3-10.67-22.93-14.64-34.93-1.46-4.41-3.79-9.22-7.33-12.26-11.34-9.76-11.76-21.9-10.07-34.5,1.24-9.26,3.39-18.43,5.4-27.59,2.79-12.73,10.93-23.01,18.96-33.16,7.02-8.86,11.02-18.1,11.06-29.35,.07-17.65-1.73-34.99-4.77-52.41-1.66-9.54-.27-19.48,1.4-29.25,3.09-18.1,9.65-35.32,14.8-52.89,1.35-4.6,3.66-8.38,8.33-11.47,6.81-4.5,10.63-11.42,12.98-18.94,1.92-6.13,5.17-11.51,11.57-14.61,1.69-.82,3.76-1.86,5.44-1.6,6.86,1.06,10.51-3,12.65-7.51,4.49-9.49,9.15-19.05,9.35-29.77,.09-4.6,3.22-8.23,6.78-10.56,11.14-7.28,19.15-16.99,26.75-27.14,.53-.71,1.11-1.74,2.39-1.72"/><path class="cls-2" d="M1424.03,.37c-10.23,11.34-20.35,22.79-32.34,32.62-11.88,9.73-18.41,22.25-21.73,36.11-2.73,11.38-5.77,22.71-7.7,34.28-1.32,7.92-5.1,15.3-11.95,20.89-2.05,1.67-3.85,3.29-6.73,1.3-9.49,10.14-20.44,18.94-26.13,31.36-3.09,6.74-4.54,13.98-5,21.36-.34,5.45-.77,10.92-1.41,16.31-1.15,9.73,.54,19.25,1.79,28.7,.77,5.85,.98,11.74,1.21,17.5,.49,12.55,2.53,25.21-1.45,37.74-2.63,8.26-8.35,14.65-13.58,21.32-13.09,16.69-19.22,35.62-20.4,55.8-.5,8.53,2.03,16.87,8.08,24.33,6.5,8.01,9.08,18.02,12.21,27.5,2.2,6.65,5.09,12.63,10.55,17.38,6.23,5.42,9.75,11.95,11.75,19.68,1.7,6.59,4.7,12.97,7.81,19.15,5.81,11.52,5.84,23.23,3.75,35.53-2.27,13.36-7.3,25.92-10.94,38.87-2.09,7.43-3.65,15.19-3.2,23.03,.14,2.5-.19,4.98-.8,7.29-.56,2.13-1.14,4.61-.31,6.15,4.9,9.15,1.94,18.11-.18,27.09-2.37,10.04-3.01,20.24-2.23,30.4,.42,5.44,.87,10.98,.76,16.34-.21,10.57,1.32,20.89,4.13,30.92,2.83,10.13-1.09,18.02-8.89,23.51-23.17,16.3-36.58,38.89-49.18,62.14-5.13,9.46-9.36,19.34-14.8,28.63-4.65,7.96-7.77,16.36-10.83,24.84-.87,2.42-1.4,4.97-2.49,7.3-3.63,7.78-6.75,7.32-12.86,3.53-10.22-6.35-17.05-15.45-24.91-23.77-8.7-9.2-16.82-18.86-27.34-26.56-13.7-10.02-29.75-13.92-46.38-16.84-13.76-2.42-27.55-4.53-41.44-6.23-14.6-1.78-29.24-2.56-43.88-1.48-6.28,.47-12.46,2.52-18.28,4.96-11.84,4.96-23.74,2.75-35.33-.17-14.09-3.55-25.75-11.18-35.35-21.29-7.69-8.1-17.27-12.85-27.95-17.13-22.68-9.08-45.65-18.11-64.11-34.08-16.44-14.23-36.74-21.91-57.28-29.32-12.22-4.41-23.49-10.42-32.31-19.66-7.32-7.66-16.85-12.66-25.65-18.52-3.25-2.17-7.44-1.8-10.22,.09-8.39,5.71-15.14,3.74-22.8-1.64-6.7-4.71-13.82-8.99-20.54-13.74-3.11-2.2-5.93-2.3-9.19-.53-6.47,3.49-12.2,2.96-17.64-1.69-2.95-2.52-6.03-5-8.49-7.9-9.54-11.24-21.3-20.28-33.67-28.56-9.76-6.53-16.56-15.51-24.86-23.23-4.84-4.5-10.64-7.64-16.55-10.57-3.92-1.95-7.95-1.8-11.59,1.54-4.18,3.83-8.03,8.1-13.99,11.08-6.95-1.7-13.42-5.43-20.07-8.78-6.71-3.38-12.92-7.44-18.9-11.81-5.36-3.92-11.49-5.57-18.28-5.66-9.75-.14-19.43-2.05-29.29-.11-4.42,.87-8.85,1.88-13.34,2.58-4.12,.65-8.24,.63-11.53-.91-10.17-4.77-21.26-7.6-31.13-12.86-6.28-3.35-11.52-8.09-17.07-12.37-7.66-5.9-16.27-9.3-26.24-8.91-12.26,.48-23.96-2.78-35.95-4.07-5.54-.59-10.93-1.02-16.48,.01-6.48,1.21-12.91,1.24-19.52-.39-10.49-2.58-21.09-.99-31.67,.35-7.45,.94-14.91,2.34-22.54,1.8-8.17-.57-16.25,.74-24.38,1.06-8.16,.33-15.41-2.17-21.96-6.69-8.33-5.75-16.87-11.01-28.02-10.82-3.64,.06-7.54-.48-10.93-1.68-15.38-5.48-31.18-9.77-47.02-13.81-10.26-2.62-21.16-3.41-31.58-.54-4.56,1.25-8.73,.71-12.15-.93-8.55-4.1-17.52-6.47-26.92-7.67-10.96-1.41-20.3-6.82-30.47-10.17-1.64-.54-3.25-1.12-4.88-1.69"/><path class="cls-2" d="M.24,413.07c7.22,1.75,13.87,5.08,21.32,6.26,3.48,.55,6.98,.83,10.36,.42,14.68-1.81,28.74,1.36,42.62,4.76,6.97,1.71,13.36,5.85,20.78,5.92,18.5,.18,36.9,1.94,55.47,1.58,12.76-.24,26.21-2.36,38.52,4.5,5.09,2.84,9.44,6.17,12.51,10.43,5.03,6.98,11.77,8.48,19.64,6.57,10.6-2.57,20.14-1.94,30.04,3.23,7.98,4.16,16.83,3.28,25.54-.72,8.25-3.78,16.22-8.25,26.1-8.86,7.82-.49,14.57,.79,20.71,4.8,12,7.85,24.34,10.45,37.84,3.35,4.03-2.12,8.26-3.87,12.21-6.16,10.13-5.86,20.66-5.6,31.69-1.83,13.71,4.68,27.81,7.74,42.63,5.16,9.58-1.67,16.77,2.98,23.75,7.9,9.05,6.37,18.55,11.87,29.88,14.05,6.09,1.17,12.22,1.8,18.27-.02,4.68-1.41,8.49-.35,10.88,3.46,1.49,2.37,3.43,4.44,5.11,6.61,8.92,11.56,22.24,14.62,36.4,13.31,7.27-.67,12.62,1.34,16.98,5.47,8.75,8.28,16.9,17.13,24.48,26.37,12.43,15.14,27.7,27.71,42.82,40.38,3.35,2.8,7.96,4.43,13.28,4.23,11.28-.42,22.56-.71,33.59,3.04,4.68,1.59,10.38,.49,15.1-1.07,9.98-3.3,17.94,1.02,25.52,5.4,4.85,2.81,9.34,6.5,14.25,9.22,9.41,5.22,16.48,12.64,23.48,20.01,3.92,4.13,8.17,6.84,13.6,8.27,21.71,5.72,38.54,18.34,55.03,31.92,8.96,7.38,16.05,16.31,25.35,23.35,11.78,8.91,25.97,13.61,39.09,20.17,6.99,3.49,14.92,5.12,21.86,8.59,9.24,4.62,15,12.77,21.39,20.16,10.7,12.38,23.6,21.52,40.83,24.84,6.74,1.3,13.3,.23,19.47-1.38,13.33-3.47,26.53-3.9,40.3-2.92,12.72,.9,25.6,.55,38.37,1.47,19.37,1.39,38.79,2.86,57.28,8.98,9.32,3.09,17.31,8.34,24.35,14.65,11.76,10.55,22.87,21.7,33.48,33.25,2.45,2.67,5.21,4.13,8.62,5,7.62-1.59,10.22-7.89,13.97-12.98,11.2-15.18,16.93-32.92,26.36-48.9,9.16-15.51,19.68-30.37,34.73-41.6,12.26-9.15,17.13-19.56,12.29-33.95-2.21-6.57-2.45-13.73-2.07-20.78,.76-13.95-1.43-27.79-2.52-41.65-.38-4.85-2.56-9.67-6.67-12.86-5.42-4.21-5.2-9.24-2.85-14.13,10.9-22.67,16.24-46.94,24.09-70.47,3.81-11.42,3.1-23.51-1.2-34.8-4.94-12.98-7.59-26.55-12.65-39.46-2.26-5.76-6.54-10.5-9.89-15.69-3.25-5.04-5.08-10.49-7.06-15.88-3.35-9.13-7.96-17.37-13.67-25.57-5.75-8.25-8.51-18.57-6.52-29.01,1.72-9.03,3.3-18.09,5.55-27.01,2.62-10.4,8.7-19.63,16-27.41,14.14-15.07,15.94-32.22,14.57-50.88-1.1-14.9-4.91-29.58-4.86-44.47,.08-21.02,3.29-41.65,13.71-60.86,2.44-4.49,5.34-8.45,9.28-11.74,6.1-5.1,10.58-11.2,14-18.04,2.05-4.1,4.63-6.88,10.32-7.54,7.34-.85,9.27-7.33,11.56-12.75,3.85-9.11,4.52-19.05,8.52-28.16,2.68-6.1,3.91-12.69,7.29-18.6,1.12-1.96,1.84-4.09,3.74-5.59,13.88-11.02,25.37-24.23,38.4-36.03"/><path class="cls-5" d="M1920.16,439.53c-4.54-14.46-3.29-29.2-2.38-43.91,.1-1.61-1.61-2.87-.42-4.4-1.34-2.27-3.25-2.82-5.73-2.97-12.93-.77-25.48-.05-37.86,4.39-11.79,4.23-25.36,1.07-30.99-6.06-3.47-4.4-5.25-9.63-7.23-14.66-1.78-4.5-2.52-9.35-3.78-14.03-4.45-16.53-24.55-30.96-42.66-30.35-7.71,.26-14.74,3.28-21.96,5.53-12.36,3.85-25.3,6.08-37.16,11.31-10.21,4.51-15.52,9.62-8.71,20.35,1.01,1.59,1.75,3.89,2.78,5.44,7.13,10.73,7.96,21.89,4.83,33.91-2.24,8.61-5.47,16.73-10.54,24.15-7.89,11.54-20.73,15.75-34.01,19.93-14.56,4.58-27.63-.34-40.84-3.78-9.95-2.59-19.81-3.48-29.93-3.08-3.73,.15-7.25,1.73-9.72,4.45-5.45,5.98-10.23,12.14-13.71,19.57-8.57,18.27-19.04,35.76-30.95,52.39-4.69,6.54-7.85,12.58-6.86,20.94,1.23,10.4-1.53,20.95-.98,31.5,.5,9.57-.23,19.13,1.11,28.73,1.43,10.2-1.55,20.19-4.88,29.78-3.92,11.29-5.34,22.49-5,34.4,.59,20.56-1.95,40.89-10.63,60.26-12.42,27.73-23.46,55.94-31.72,85-6.83,24.04-14.44,47.89-20.95,72.01-1.8,6.67-5.74,12.88-9.03,19.15-1.27,2.42-1.85,4.73-1.77,7.36,.45,14.43-2.09,28.4-6.41,42.3-1.79,5.76-2.46,12.15-1.08,18.54,.86,3.96,.16,8.2-.9,12.38-2.75,10.9-3.23,22.14-4.88,33.21-.88,5.95,.58,12.07,1.35,17.97,1.42,10.93,.51,21.8,.95,32.68,.22,5.44,.41,10.88,.61,16.33"/><path class="cls-5" d="M1920.16,345.51c-16.33-3.93-27.55-13.44-35.46-26.97-2.98-5.09-5.73-10.31-9.01-15.27-4.07-6.16-10.26-8.65-17.69-9.6-10.66-1.37-21.58-1.48-31.71-5.56-5.01-2.02-9.85-4.31-14.63-6.76-14.35-7.35-21.99-6.12-32.85,3.4-6.61,5.79-13.19,11.55-20.75,16.31-12.96,8.16-27.63,12.15-42.69,15.14-14.31,2.84-28.81,4.74-43.26,6.81-1.84,.26-3.77,.69-5.44,1.23-9.47,3.03-12.71,9.54-9.13,18.44,3.39,8.44,8.64,16.09,12.75,24.23,3.98,7.89,3.1,15.69-3.79,21.25-17.28,13.97-36.54,23.35-60.84,19.43-6.53-1.05-13.05-1.86-19.5-3.43-7.56-1.84-14.77,1.97-20.07,10.05-15.86,24.22-29.95,49.27-40.15,76.03-2.33,6.11-3.58,12.47-1.38,19.13,5.47,16.56,5.4,33.55,4.43,50.66-.52,9.21-.36,18.44-1.91,27.58-1.87,11.07-3.51,22.17-5.54,33.21-2.03,11.07-3.73,22.16-.47,33.2,1.58,5.36,4.58,10.31,6.04,15.78,5.72,21.4,2.27,41.84-6.67,61.97-12.76,28.75-23.02,58.32-33.75,87.76-7.13,19.57-12.48,39.69-21.62,58.67-4.41,9.15-6.09,19.24-7.45,29.21-1.33,9.75-2.12,19.57-3.8,29.26-1.11,6.41-3.18,12.69-4.15,19.16-1.43,9.57-2.53,19.19-4.35,28.7-2.25,11.77-1.57,23.72-1.92,35.49-.5,16.64,0,33.44,1.95,50.1,.39,3.34,.06,6.75,.06,10.13"/><path class="cls-3" d="M1920.16,276.25c-6.87-11.54-13.73-23.42-29.29-26.31-9.68-1.8-19.52,.29-29.22,1.54-14.11,1.81-27.79,1.68-40.27-6.14-6.99-4.38-13.25-9.58-20.02-14.19-3.07-2.09-6.41-3.7-9.84-4.91-7.21-2.54-12.15,.21-18.32,8.3-6.26,8.22-9.46,17.79-14.53,26.52-6.74,11.59-15.05,21.79-28.7,26.96-10.69,4.05-21.99,5.83-33.49,6.88-18.83,1.72-37.89,1.85-56.11,7.73-11.94,3.86-17.62,10.37-17.11,21.49,.43,9.57,2.23,19.11,1.26,28.71-.71,6.96-1.67,13.85-6.6,19.75-5.51,6.58-12.5,7.51-20.79,6.23-12.37-1.91-24.82-2.77-37.17,.48-12.12,3.19-21.14,9.85-26.81,20.28-11.26,20.74-26.37,39.41-38.14,59.81-8.27,14.33-8.53,30.14-.07,44.81,4.49,7.79,6.31,15.89,7.73,24.31,1.29,7.65,2.17,15.31,2.54,23.08,.79,16.44-.62,32.54-5.45,48.46-2.18,7.2-5.02,14.31-5.73,21.91-.45,4.73,.15,9.18,1.95,13.51,5.73,13.84,9.97,28.03,17.77,41.35,8.07,13.78,6.78,29.53,1.83,44.83-4.83,14.95-11.34,29.3-17.23,43.87-8.98,22.2-18.1,44.36-27.44,66.43-5.86,13.85-10.8,27.95-15.21,42.24-4.67,15.14-6.83,30.72-9.72,46.18-3.33,17.84-6.49,35.66-12.55,53-2.55,7.28-3.47,15.1-6.17,22.5-1.41,3.87-.12,8.3,1.08,12.32,2.11,7.08,1.94,14.37,.99,21.38-2.14,15.8-.88,31.29,2.59,46.76,.28,1.26,.04,2.62,.04,3.93"/><path class="cls-3" d="M.85,575.22c16.24,16.18,35.41,29.31,53.8,43.17,17.63,13.29,36.05,25.81,57.71,33.48,10.13,3.59,20.7,5.54,31.16,7.6,13.97,2.75,27.35,7.37,41.38,9.85,18.35,3.24,36.57,4.15,54.87-.06,13.2-3.04,26.51-6.33,40.21-4.94,12.93,1.31,25.76,3.75,38.4,6.68,14.48,3.35,28.41,8.57,43.28,10.72,5.28,.77,10.63,.9,15.89,1.33,11.05,.91,21.21,4.31,30.96,8.36,11.57,4.8,23.34,8.91,35.49,12.05,3.39,.88,7.33,.5,10.92,.06,8.98-1.1,17.5,2.67,26.21,2.15,14.48-.86,27.75,3.61,41.48,6.25,6.35,1.22,12.97,1.54,19.48,1.74,15.48,.48,26.6,8.33,36.51,18.12,4.43,4.38,8.41,9.16,12.29,14,5.73,7.14,12.81,12.48,23.11,12.4,9.5-.08,17.33,3.97,24.29,9.13,9.44,7,19.81,12.02,31.14,15.74,6.57,2.16,12.03,6.36,17.02,10.7,13.78,11.99,28.09,23.36,44.62,31.94,22.05,11.45,43.43,23.84,64.63,36.57,16.5,9.9,30.58,22.42,45.62,33.91,12,9.16,22.73,19.51,33.01,30.32,8.24,8.66,17.82,15.93,28.5,22.12,20.09,11.65,36.53,26.92,50.08,44.92,12.67,16.85,28.29,31.02,46.92,42.21,13.49,8.11,22.65,19.34,29.3,32.66,1.97,3.94,4.82,7.51,6.63,11.57"/><path class="cls-5" d="M1920.16,499.21c-3.18-16.63-14.05-26.93-31.11-32.03-1.08-.32-2.05-.57-3.08-1.09-1.59-.79-3.36-1.3-4.81-2.33-.76-5.78,2.01-10.8,4.36-15.75,4.29-9.07,5.67-18.43,4.79-28.19-.68-7.53-6.67-11.46-14.63-9.57-6.45,1.52-12.87,3.19-19.5,3.94-15.93,1.8-26.98-4.84-35.45-16.83-5.42-7.68-8.34-16.4-13.12-24.37-6.36-10.61-15.11-16.55-28.21-14.96-12.34,1.5-21.66,7.48-25.59,19.01-2.99,8.78-5.56,17.68-8.59,26.44-7.68,22.18-17.41,43.51-32.38,62.43-3.04,3.84-7.16,6.92-12.03,9.17-6.8,3.14-13.53,1.66-20.14,.37-12.25-2.38-23.54-7.54-35.37-11.17-3.17-.97-6.37-1.51-9.74-1.78-8.03-.64-12.78,2.93-16.54,9.06-7.89,12.89-16.6,25.36-24.16,38.4-4.9,8.46-11.74,15.2-19.78,20.6-12.98,8.73-15.26,20.69-13.8,33.93,1.36,12.24,3.87,24.38,5.26,36.62,.71,6.26-.76,12.48-2.84,18.59-4.24,12.47-9.6,24.66-8.87,38.27,.24,4.58-1.86,9.43-3.34,14.08-2.61,8.26-2.82,16.99-5.06,25.29-3.36,12.48-9.64,24.05-14.58,36.04-13.11,31.78-24.92,63.84-31.86,97.39-2.78,13.45-7.72,26.54-10.71,40.02-1.93,8.72-4.3,17.29-8.55,25.33-3.38,6.39-3.64,13.52-4.66,20.29-2.98,19.87-10.57,39.15-8.85,59.66,.67,8.01-2.02,15.89-3.83,23.59-3.78,16.08-.6,31.96-.22,47.91,.26,10.89,1.25,21.76,.49,32.66"/><path class="cls-3" d="M.85,542.56c19.11,14.9,39.71,27.86,60.97,39.94,7.51,4.27,11.83,11.23,17.66,16.92,15.05,14.68,32.76,24.58,54.83,27.71,16,2.27,32.21,2.21,48.15,4.48,14.6,2.08,29.22,2.24,43.9,2.16,13.28-.07,26.37-2.28,39.61-2.9,18.27-.86,36.39-1.06,54.28,3.36,4.31,1.07,8.76,2.07,13.38,1.8,25.9-1.46,50.8,3.03,74.94,11.31,13.07,4.48,26.51,7.24,40.26,8.91,1.8,.22,3.71,.31,5.47-.01,15.39-2.84,29.62,.14,43.31,6.76,10.26,4.96,21.81,5.64,32.86,8.06,13.29,2.91,27.04,2.39,40.28,5.44,6.7,1.54,12.05,4.89,17.07,9.04,11.09,9.18,24.26,15.63,37.31,21.7,17.99,8.36,33.85,20.24,52.88,26.72,21.22,7.22,38.9,19.29,55.55,33.15,16.89,14.07,32.48,29.31,48.69,43.99,9.09,8.23,20.04,14.18,31.14,19.59,16.72,8.15,31.85,18.22,46.27,29.39,16.15,12.5,31.74,25.63,48.73,37.2,9.46,6.45,20.25,9.52,31.69,11.3,14.82,2.3,29.85,3.32,44.53,6.6,8.75,1.96,15.77,6.48,22.45,11.45,8.95,6.66,18.85,11.64,29.38,15.56,3.59,1.34,6.2,4.4,10.81,4.64,3.65-2.23,8.45-2.26,12.94-3.29,4.66-1.07,8.75,.99,12.14,3.86,5.24,4.44,9.24,9.92,12.1,15.79,9.93,20.37,25.02,37.03,42.85,51.68,8.51,6.99,19.35,10.35,29.8,14.14,12.01,4.36,23.01,10.41,32.2,18.68,11.11,10,23.63,16.77,39.09,19.15,10.92,1.68,20.35,6.67,28.66,13.41"/><path class="cls-5" d="M1920.16,536.37c-4.52-5.95-5.4-13.24-8.4-19.76-1.03-2.24-1.99-4.54-3.21-6.69-4.92-8.69-10.49-10.31-18.82-8.81-10.61,1.91-20.99,2.15-31.75,1.8-9.39-.31-18.98,1.84-27.99,4.83-8.12,2.69-7.97,4.39-12.75-4.06-4.3-7.6-10.36-14.3-13.49-22.48,4.29-6.49,10.91-10,18.24-13.04,14.71-6.11,28.95-13.02,39.66-24.68,3.01-3.27,5.39-6.69,3.91-11.1-2.49-1.63-5.07-1.38-7.57-1.27-18.93,.84-35.76-4.29-49.87-15.9-5.54-4.56-9.6-10.63-14.79-15.6-11.04-10.58-19.62-9.95-28.54,2.24-10.35,14.15-18.12,29.52-24.49,45.55-6.98,17.54-12.53,35.46-17.52,53.53-1.69,6.12-2.38,12.5-4.42,18.54-3.3,9.8-11.19,14.85-17.63,14.2-8.2-.83-11.95-5.8-14.57-11.95-4.06-9.52-10.19-17.69-19.64-22.93-9.58-5.31-24.04-5.6-29.72,1.6-4.08,5.17-7.92,10.52-11.07,16.27-1.81,3.3-3.76,6.58-6.11,9.55-4.94,6.23-11.88,9.45-20.05,10.77-6.98,1.13-12.99,4.35-18.94,7.8-5.56,3.22-6.95,7.88-7.39,13.56-.81,10.37,2.63,20.13,5.33,29.77,3.06,10.93,2.16,20.9-2.16,31.05-4.95,11.64-7.95,23.71-10.57,35.99-4.95,23.24-11.36,46.11-24.08,67.09-5.19,8.56-7.82,18.19-11.2,27.5-6.19,17.05-12.37,34.11-18.07,51.3-3.57,10.77-4.25,22.11-6.07,33.21-2.23,13.59-5.79,26.98-7.8,40.55-1.97,13.32-6.74,25.8-12.85,37.51-5.1,9.77-5.42,20.67-11.01,30.1-1.38,2.32-1.47,5.44-1.43,8.37,.16,12.01,.47,24.04-.07,36.03-.37,8.3-2.63,16.47-3.73,24.75-1.88,14.13-.98,28.19-.23,42.24,.47,8.84,.09,17.65,.45,26.47"/><path class="cls-3" d="M.24,584.79c24.08,26.27,51.8,48.47,83.99,66.06,11.58,6.33,23.1,12.78,36.13,15.34,16.44,3.23,32.58,7.34,48.67,11.6,16.4,4.34,32.94,7.07,50.01,7.25,12.71,.13,24.96-2.85,37.11-5.37,12.63-2.63,24.78-1.5,37.26-.38,18.89,1.7,35.9,8.64,52.97,15.38,8.09,3.2,16.32,5.28,25.03,5.5,16.46,.41,31.26,6.03,45.65,12.54,9.56,4.32,19.23,7.22,29.92,6.63,4.21-.23,8.31,.12,12.19,1.71,8.43,3.45,16.96,4.99,26.24,2.9,8.24-1.86,16.34,.44,24.35,2.18,10.84,2.35,22.04,2.09,32.96,4.3,10.9,2.21,19.05,7.42,25.55,15.39,3.94,4.83,7.84,9.71,11.45,14.72,5.97,8.28,13.97,12.01,24.51,12.39,7.06,.26,14.3-.1,20.81,3.73,2.49,1.46,5.06,2.9,7.16,4.69,8.34,7.1,17.23,13.28,27.43,18.07,11.72,5.51,20.36,15.01,31.06,21.95,11.2,7.26,23.11,13.26,35.49,18.36,24.92,10.27,48.95,21.98,70.56,37.37,22.02,15.68,43.59,31.98,62.76,50.66,11.11,10.82,21.74,22.03,34.88,30.84,8.91,5.97,17.76,11.92,25.63,19.12,12.05,11.02,22.44,23.21,30.95,36.69,6.23,9.87,12.78,19.6,20.35,28.56,9.48,11.22,15.38,23.87,20.56,37"/><path class="cls-3" d="M.85,596.61c9.36,9.96,18.33,20.24,27.54,30.32,11.65,12.75,27.41,20.72,42.5,29.45,8.04,4.65,16.12,9.22,24.43,13.43,11.63,5.9,24.52,8.35,37.21,11.16,13.98,3.1,27.49,7.63,41.43,10.74,18.8,4.19,37.64,7.22,57.3,5.31,19.85-1.93,39.66-4.93,59.71-4.64,12.37,.18,23.8,3.73,34.77,8.91,10.6,5,20.26,11.81,32.27,14.16,8.07,1.58,16.33,1.91,24.38,3.39,15.18,2.8,28.43,10.1,41.98,16.44,12.5,5.85,25.66,10.07,38.58,14.81,6.87,2.52,14.84,1.47,21.8-1.01,16.37-5.83,32.77-5.66,49.41-1.58,9.35,2.29,16.48,7.14,22.05,14.57,5.74,7.65,10.1,16.45,19.37,21.5,6.26,3.41,12.69,5.83,20.14,5.65,4.26-.11,8.55,.16,12.79,.56,3.13,.3,6.1,1.41,8.51,3.35,2.16,1.74,4.27,3.59,6.09,5.63,6.68,7.44,13.97,13.9,23.72,18.16,8.69,3.8,16.02,9.84,23.92,14.95,12.63,8.18,27.16,12.91,41.39,18.08,28.23,10.25,56.34,20.59,80.5,38.24,12.91,9.43,24.87,19.88,37.74,29.34,13.36,9.82,24.84,21.32,36,33.19,9.49,10.09,21.25,17.95,32.33,26.41,16.83,12.85,30.5,28.06,40.63,45.76,10.74,18.77,22.53,37.09,30.61,57.08"/><path class="cls-2" d="M1436.22,.37c-7.73,8.72-15.15,17.7-21.76,27.13-3.6,5.14-7.07,10.31-11.82,14.47-10.36,9.07-18.3,19.77-22.18,32.24-2.89,9.28-6.29,18.58-8.06,28.1-3.47,18.61-10.39,35.68-22.01,51.27-4.57,6.13-10.59,11.98-11.52,19.66-1.6,13.25-4.42,26.49-2.61,39.96,2.97,22.12,2.73,44.3,.46,66.42-.98,9.54-6.86,17.56-12.65,25.34-4.25,5.71-8.38,11.47-12.26,17.42-6.95,10.66-8.57,22.44-8.92,34.39-.21,7.03,2.56,13.77,5.42,20.24,4.19,9.49,9.11,18.7,13.25,28.21,2.73,6.27,8.03,9.79,14.15,12.26,9.7,3.92,16.76,12.81,17.02,22.61,.05,1.69,.14,3.39-.02,5.07-.83,8.77,.91,17.33,2.46,25.9,3,16.63,5.09,33.25,1.91,50.12-1.94,10.28,.44,13.9,10.89,19.13,4.35,2.18,6.11,9.12,3.62,15.75-3.08,8.18-8.25,15.38-13.44,22.49-4.2,5.75-8.83,11.26-13.95,16.37-6.69,6.67-9.57,14.74-9.71,23.65-.21,13.34-.5,26.7,1.29,39.96,.79,5.89,2.72,11.65,4.17,17.46,.79,3.16,1.39,6.34,1.91,9.56,2.51,15.6-8.2,24.41-19.65,32.6-11.57,8.27-20.6,18.05-26.94,30.4-6.16,11.99-15.01,22.66-21.84,34.39-5.5,9.45-10.59,19.07-13.84,29.34-3.64,11.51-1.54,23.17-.3,34.9,1.6,15.07,9.04,28.42,13.08,42.75,2.79,9.91,.07,13.39-10.45,11.83-11.51-1.7-20.05-8.34-27.26-15.89-8.93-9.35-17.56-19.11-23.91-30.28-2.51-4.41-5.55-8.3-10.4-10.67-11.37-5.56-17.15-15.86-24.25-24.87-13.9-17.62-32.24-28.59-54.97-33.71-16.15-3.63-32.27-7.34-48.75-9.63-18.15-2.52-35.82-2.48-53.08,4.47-9.01,3.63-18.87,3.28-28.59,3.59-19.15,.61-37.19-3.16-54.89-9.61-21.94-7.99-42.28-18.53-61.55-31.01-12.69-8.22-26.28-15.2-38.44-24.16-5.08-3.74-11.31-6.18-17.63-7.27-17.16-2.94-31.28-11-44.49-20.94-5.17-3.89-10.46-7.63-15.85-11.26-6.87-4.62-15.14-5.42-23.15-6.1-16.81-1.43-31.98-7.21-43.6-17.82-14.81-13.52-32.61-23.11-48.6-35.01-6.79-5.05-12.25-11.23-19.14-16.19-8.55-6.14-18.26-7.95-28.21-9.94-12.44-2.48-24.4-1.39-36.66,1.99-7.84,2.16-15.99-1.07-23.69-3.64-15.77-5.26-30.74-11.59-44.69-20.58-11.41-7.35-25.46-9.01-39.39-7.48-7.11,.78-14.27,.68-21.38,1.25-8.63,.69-15.9-4.39-22.48-9.29-7.39-5.51-15.33-10.43-20.84-17.92-3.95-5.37-10.93-6.33-17-8.47-7-2.47-13.94-2.01-21.37-.83-11.09,1.76-22.16-1.25-32.82-3.85-19.26-4.7-38.09-10.89-57.38-15.44-16.46-3.88-31.56,2.8-39.43,16.79-4.29,7.62-10.39,7.74-17.23,5.05-8.18-3.22-16.03-6.98-23.1-11.93-7.47-5.23-16.46-5.87-25.03-7.82-9.33-2.12-18.7-4.08-28.03-6.23-5.62-1.29-9.59-4.77-11.48-9.58-3.63-9.22-9.7-9.25-18.37-6.11-2.77,1-5.32,2.56-7.94,3.9-9.4,4.79-18.67,4.34-27.38-1.2-5.72-3.64-11.6-6.78-18.34-8.35-4.59-1.07-9.37-1.08-14.03-1.53-8.45-.83-15.14-3.67-18.79-10.91-2.03-4.03-5.33-7.26-7.4-11.22"/><path class="cls-2" d="M.85,621.39c9.44,10.73,16.99,22.73,26.72,33.29,6.83,7.42,13.58,14.63,23.24,19.11,18.86,8.74,37.02,19,57.35,24.62,21.93,6.06,43.1,14.2,65.16,19.88,8.22,2.12,16.42,3.71,25.01,3.34,13.9-.61,27.64,1.33,41.45,2.13,11.94,.69,23.58-2.36,35.35-3.81,17.45-2.15,33.74,.88,47.45,11.34,13.31,10.15,28.63,15.59,45.2,18.41,14.33,2.45,27.14,7.87,39.69,14.57,18.07,9.66,34.21,21.86,51.71,32.24,14.86,8.82,30.4,12.43,47.57,6.22,4.06-1.47,8.25-2.55,12.79-2.38,2.82,.1,5.5,.45,7.26,2.38,6.4,7.07,15.77,9.9,23.84,14.58,11.11,6.45,23.99,8.97,35.99,13.43,6.36,2.37,12.38,4.86,17.69,9.04,17.38,13.68,37.31,23.34,58.45,31.05,11.19,4.08,23.12,4.5,34.77,6.02,17.83,2.33,34.55,7.47,51.26,13.47,21.44,7.71,38.68,20.5,55.5,34.42,12.86,10.64,27.42,19.61,38.81,31.71,18.32,19.46,39.33,36.65,56.19,57.34,14.09,17.28,25.2,36.08,34.72,55.76,1.7,3.52,3.64,6.95,5.47,10.42"/><path class="cls-2" d="M.24,634.34c14.12,18.1,25.7,38.25,47.54,50.12,13.9,7.55,28.08,14.6,43.29,19.68,25.27,8.44,50.75,16.34,75.61,25.83,6.02,2.3,12.48,3.82,18.88,5.05,5.79,1.11,11.48-1.01,17-2.3,6.01-1.41,11.86-1.35,17.7-.35,14.37,2.48,28.64,2.93,43.31,1.92,15.36-1.05,31.22-2.13,45.72,5.28,4.28,2.19,8.48,4.54,12.08,7.45,12.21,9.86,26.51,15.51,42.14,18.45,15.3,2.88,29.22,8.54,42.72,15.7,19.73,10.46,37.7,23.49,57.82,33.36,11.1,5.45,22.82,8.76,35.36,7.72,11.89-.98,21.83,3.84,32.33,7.4,17.15,5.81,34.87,10.68,49.24,21.56,9.23,6.99,20.25,10.31,30.57,15.11,13.55,6.31,26.53,13.75,40.88,18.47,8.02,2.64,16.38,4.56,24.96,4.52,16.94-.07,33.75,.74,49.97,5.72,18.6,5.71,36.84,12.21,52.41,23.64,10.27,7.54,19.33,16.41,29.91,23.59,20.16,13.69,36.15,31.12,52.55,48.32,15.24,15.98,29.2,32.7,41.3,50.79,8.33,12.46,15.89,25.29,22.53,38.58"/><path class="cls-2" d="M.85,650.1c9.8,15.58,22.05,29.14,37.77,40,20.26,14,43.19,22.65,67.01,29.96,19.03,5.84,37.7,12.73,56.14,20.1,12.81,5.12,26.03,7.42,39.58,2.77,8.48-2.91,16.4,.01,24.38,1.34,10.73,1.78,21.46,2.71,32.32,3.36,13.94,.84,28.08,.56,41.48,5.44,6.94,2.52,14.08,5,19.36,9.75,12.25,11.04,27.15,16.58,43.38,20.22,22.31,5.01,42.31,14.98,62.24,25.19,18.99,9.72,36.72,21.77,57.85,27.66,13,3.62,26.61,4.79,39.63,8.42,6.74,1.88,13.9,2.16,20.65,3.66,9.32,2.08,17.36,7.45,24.27,13.43,5.46,4.73,11.58,6.88,18.39,9.01,14.21,4.46,27.35,11.34,40.96,17.15,11.18,4.78,22.05,10.31,34.65,12.14,8.75,1.27,17.46,2.51,26.23,1.96,13.87-.86,27.13,.69,40.28,5.06,16.74,5.56,33.44,11.32,47.37,21.65,13.25,9.83,26.09,20.17,39.06,30.34,36.27,28.41,63.17,63.82,87.24,101.26,4.18,6.51,8.43,12.97,11.57,19.99"/><path class="cls-2" d="M829.77,1079.97c-15.58-24.13-36.58-43.74-59.66-61.73-10.98-8.56-21.53-17.59-31.88-26.84-14.3-12.78-30.59-23.22-49.29-29.87-11.73-4.17-24.34-5.41-36.58-7.79-13.03-2.53-25.03-7.26-37.15-11.97-18.27-7.09-35.74-15.93-55.42-19.88-11.51-2.31-22.56-1.14-33.53,1.37-16.21,3.71-32.14,2.43-48.19-.6-6.6-1.25-13.26-2.61-20.1-1.73-6.12,.79-7.63,3.38-6.82,9.01,.91,6.31,4.39,11.82,5.66,17.99,1.83,8.96-1.58,12.9-11.63,13.57-12.65,.85-23.66-2.86-34.17-9-14.8-8.64-26.35-20.73-39.55-31.06-10.76-8.42-22.38-15.91-31.8-25.8-5.33-5.6-9.92-11.74-15.7-17.02-6.54-5.98-13.96-8.99-23.22-9.64-17.31-1.21-34.54-3.3-51.82-4.91-9.76-.9-19.34-1.65-27.6,5.43-2.87,2.47-8.21,1.38-11.28-.57-6.39-4.05-15.31-6.02-16.68-15.02-.13-.84-1.44-1.63-2.36-2.25-8.01-5.34-12.05-13.42-17.06-20.85-14.82-21.98-35.64-36.11-63.38-41.09-4.05-.73-8.25-1.99-12.03,2.09,6.17,9.24,8.27,19.64,6.9,31.33-4.82,4.36-17.21,5.7-25.93,2-2.14-.91-4.2-2.07-6.09-3.37-4.91-3.39-10.61-5.26-16.49-5.45-8.78-.29-16.92-2.57-24.96-5.29-10.12-3.42-20.69-5.04-31.11-7.25"/><path class="cls-2" d="M.85,667.55c16.39,22.12,39.23,37.12,64.67,48.86,18.72,8.64,38.84,14.29,58.51,20.8,15.58,5.16,30.48,11.84,46.24,16.55,9.25,2.77,18.6,3.75,28.04,2.09,9.42-1.66,18.45,.51,27.41,1.95,17.5,2.83,35.21,4.75,52.43,8.9,14.13,3.4,28.35,7.09,39.56,16.35,7.9,6.53,16.95,10.9,26.93,13.31,13.91,3.36,26.48,10.06,40.23,13.51,29.21,7.33,54.9,21.62,81.66,33.87,20.72,9.49,42.83,14.47,65.8,16.37,7.04,.58,14.11,2.29,19.35,6.36,10.33,8,22.5,11.8,34.87,15.65,16.51,5.14,31.98,12.58,47.5,19.75,14.32,6.61,29.21,10.01,45.16,10.07,12.23,.05,24.7-1.5,36.54,2.28,22.94,7.32,45.12,15.89,63.5,31.37,13.53,11.39,28.74,21.02,41.92,32.79,23.58,21.06,42.25,45.64,59.21,71.43,6.53,9.93,13.34,19.69,18.85,30.14"/><path class="cls-3" d="M1125.38,1079.97c-11.83-4.12-24.15-7.24-35.26-12.83-8.12-4.08-13.76-10.95-18.42-18.4-3.47-5.54-6.7-11.22-10.91-16.36-10.62-12.99-26.54-17.56-42.12-22.4-11.64-3.61-23.95-5.51-34.67-11.42-4.46-2.46-8.61-5.45-12.21-8.97-8.11-7.92-15.98-16.02-23.87-24.13-11.1-11.4-23.18-21.92-38.33-28.76-16.4-7.4-27.37-20.45-39.53-32.19-12.07-11.66-25.37-22-38.42-32.64-18.67-15.21-40.86-25.6-61.12-38.63-25.25-16.24-49.93-33-71.82-53.07-6.22-5.7-13.57-9.64-21.87-12.54-12.17-4.24-22.93-11.03-33.6-17.85-6.41-4.1-13.47-6.75-21.29-8-12.09-1.93-20.73-9.46-29.23-16.85-9.06-7.88-17.44-16.35-28.56-22.14-4.12-2.15-8.38-3.31-12.3-2.93-11.48,1.13-21.75-1.89-32.4-5.09-11.21-3.36-23.27-3.85-34.68-6.92-10.74-2.89-21.54-4.06-32.93-2.52-12.09,1.63-23.62-2.58-34.65-6.67-12.95-4.8-25.71-9.87-39.66-11.75-5.68-.76-11.44-1.22-17.08-1.42-9.41-.34-18.26-2.96-27.42-4.12-16.02-2.03-31.4-6.82-47.5-8.72-12.33-1.46-24.13-.16-35.98,1.98-18.15,3.27-36.28,6.4-54.86,3.86-11.13-1.52-22.06-3.97-32.93-6.68-13.67-3.4-27.84-4.74-41.43-8.51-18.43-5.11-34.96-13.86-48.52-26.12-11.74-10.61-24.63-19.49-38.07-27.87-11.93-7.43-22.58-16.2-32.87-25.39"/><path class="cls-2" d="M.85,700.21c25.29,22.57,56.39,35.54,88.96,46.23,22.16,7.27,44.56,14.01,65.27,24.66,14.05,7.22,28.38,13.99,42.64,20.87,10.58,5.1,22.13,7.67,33.49,10.78,10.41,2.85,20.61,7.27,31.7,6,14.28-1.64,27.06,2.64,39.56,7.62,7.81,3.11,15.78,5.5,23.87,7.65,7.89,2.09,14.95,5.31,20.7,10.77,6.24,5.93,12.47,11.9,20.14,16.3,4.99,2.86,10.02,3.99,15.87,1.23,14.62-6.89,28.95-2.52,43.24,1.59,16.61,4.78,31.99,12.16,47.52,19.19,16.95,7.67,34.64,11.97,53.65,11.87,16.04-.09,30.97,4.84,45.7,10.09,21.74,7.76,42.32,17.89,63.46,26.87,12.99,5.52,27.06,8.23,41.38,7.89,22.83-.54,42.75,6.96,62.23,16.9,20.11,10.26,36.2,24.93,53,38.92,12.19,10.15,23.9,20.68,34.81,32.04,9.44,9.83,17.18,20.69,24.83,31.65,6.96,9.97,13.62,20.12,19.56,30.65"/><path class="cls-2" d="M.85,718.23c23.81,17.31,51.28,27.6,79.8,36.16,17.9,5.37,35.8,10.93,53.02,18,18.01,7.39,33.86,18.15,49.38,29.22,8.36,5.96,17.36,10.62,27.46,13.48,16.47,4.66,32.36,11.06,49.38,14.05,10.28,1.81,20.86,1.63,31.09,3.92,11.4,2.55,23.07,4.21,34.1,7.99,9,3.08,15.43,9.52,21.97,15.7,6.02,5.69,12.34,10.8,19.98,14.86,7.27,3.87,14.63,3.87,20.7,.63,12.77-6.81,25.41-4.8,38.58-2.62,15.53,2.56,29.54,8.78,43.17,15.44,20.49,10.01,41.54,14.03,64.75,11.47,9.78-1.08,20.09,1.54,29.85,4.63,21.69,6.88,42.19,16.19,62.73,25.44,14.1,6.35,28.67,10.91,44.51,11.22,27.63,.53,51.29,11.14,73.75,24.78,13.35,8.11,24.21,18.9,35.86,28.81,7.39,6.29,14.71,12.68,22.04,19.04,21.99,19.1,39.15,41.56,53.65,65.87,.84,1.41,1.54,2.95,3.04,3.95"/><path class="cls-5" d="M1920.16,584.23c-13.19,0-24.22-5.72-35.37-11.23-8.37-4.14-16.12-9.25-24.16-13.84-9.87-5.62-18.79-3.68-28.22-.79-8.78,2.69-16.97,6.88-26.2,8.52-2.5,.45-4.92,.07-7.21,.51-5.44-4.18-6.06-10.15-7.44-15.83-3.45-14.13-6.33-28.42-14.56-41.14-1.37-2.11-2.7-4.22-4.34-6.15-2.64-3.11-8.52-3.16-11.59-.03-5.02,5.11-7.52,11.53-10.96,17.47-7.76,13.4-15.85,26.47-27.88,37.3-9.25,8.33-19.27,9.62-31.26,7.37-7.53-1.41-14.46-4.36-22.2-6.18-3.98,3.03-6.66,7.09-10.08,10.49-3.61,3.6-7.28,7.16-10.97,10.7-6.24,5.98-14.18,6.82-22.54,6.16-1.84-.14-3.84-.91-4.8-2.26-3.59-5.05-8.7-4.76-14.35-4.23-2.72,6.77-3.64,13.53-.81,19.99,2.43,5.55,2.15,11.34,3.42,16.96,.78,3.46,0,6.83-3.58,8.99-10.56,6.38-14.32,16.36-15.71,27.05-2.17,16.73-8.48,32.29-14.89,47.8-4.24,10.27-9.71,20.1-16.31,29.34-5.88,8.24-9.32,17.32-11.77,26.98-3.15,12.41-7.95,24.45-12.25,36.56-6.04,17-5.92,34.21-3.16,51.27,3.51,21.69-.89,41.6-11.23,60.85-6.54,12.18-12.97,24.41-19.52,36.59-6.7,12.44-7.65,25.99-8.38,39.42-.89,16.3-3,32.39-6.2,48.42-3.23,16.18-4.09,32.55-3.69,48.98"/><path class="cls-3" d="M1920.16,97.78c-14.05,.99-27.02-3.64-40.19-6.88-9.86-2.43-19.74-3.78-29.89-4.51-14.23-1.01-28.46-1.4-42.67-.9-19.32,.68-38.75,.49-57.89,3.37-16.74,2.52-30.74,10.37-43.33,20.69-10.37,8.5-15.78,19.68-21.39,30.97-7.93,15.97-15.52,32.18-27.34,46.2-13.23,15.7-30.58,24.6-51.76,28.34-16.28,2.87-32.53,1.79-48.8,1.95-5.99,.06-10.75,2.04-15.21,5.22-1.83,1.31-3.97,2.53-5.39,4.01-10.64,10.98-23.02,9.22-36.1,5.02-10.56-3.39-20.87-7.41-31.66-10.23-12.21-3.19-15.78-2.03-23.25,7.31-2.91,3.64-4.23,7.74-4.68,11.89-1.54,14.23-2.78,28.5-3.7,42.78-.63,9.76,1.18,19.48,1.36,29.27,.16,8.84-.99,16.69-8.13,23.1-4.29,3.85-8.83,7.33-14,10.17-3.73,2.05-6.27,5.05-8.08,8.91-3.28,7.01-7.29,13.72-10.57,19.79,.71,3.99,3.64,5.22,5.34,7.19,4.5,5.23,8.41,10.65,10.9,16.97,1.15,2.93,3.23,5.44,5.36,7.95,17.38,20.42,27.87,43.6,32.45,69.2,.99,5.54,3.1,10.91,4.8,16.34,2.77,8.84,5.43,17.65,3.72,27.04-.29,1.6-.68,3.47,.44,5.12,1.63,1.28,3.55,1.59,5.57,1.62"/><path class="cls-3" d="M.24,552.13c15.45,14.24,33.26,25.61,51.86,35.96,7.1,3.95,12.97,8.67,18.43,14.56,14.87,16,33.44,27.19,55.88,32.22,16.45,3.69,33.48,4.37,49.97,7.91,13.84,2.97,27.88,3.66,42.06,3.44,12.16-.19,23.99-2.54,35.96-4.02,10.54-1.31,21.1-1.38,31.7-1.12,13.79,.35,26.79,4.66,40.24,6.7,6.63,1,13.39,1.24,20.1,1.76,14.94,1.16,29.99,1.98,44.46,5.76,12.16,3.17,23.91,7.64,35.96,11.25,12.48,3.74,25.05,3.7,37.83,2.74,6.43-.48,12.89,.1,18.86,2.3,10.48,3.87,20.94,7.22,32.31,8.57,11.15,1.32,21.58,5.98,32.91,7.32,4.34,.51,8.04-1.5,12.23-.82,7.85,1.27,14.38,5.06,20,9.73,11.54,9.59,23.88,18.05,37.29,25.22,2.69,1.44,5.48,2.56,8.46,3.57,8.19,2.78,16.26,5.64,23.39,10.89,9.27,6.83,20.68,10.48,31.53,14.83,14.19,5.7,26.04,14.39,37.25,24.13,20.14,17.49,40.09,35.19,62.1,50.74,13.04,9.21,27.55,16.27,41.5,24.13,10.87,6.12,20.16,14.01,29.76,21.54,16.22,12.73,31.42,26.49,46.41,40.44,7.37,6.86,16.86,10.79,26.22,14.57,11.58,4.68,21.13,11.71,29.13,20.43,14.2,15.49,31.79,24.38,53.68,27.18,13,1.66,25.74,4.96,39.04,4.31,3.56-.17,6.12,1.98,8.49,3.96,8.24,6.87,15.05,14.99,22.62,22.46,9.01,8.88,16.36,19,24.98,28.16,7.59,8.05,17.62,13.08,28.08,16.74,18.92,6.62,35.86,15.53,48.69,30.29"/><path class="cls-3" d="M1920.16,142.25c-13.46,1.97-26.37-.13-38.34-5.73-14.68-6.87-29.83-10.49-46.38-9.54-18.84,1.08-37.14-2.75-55.46-6.11-10.7-1.97-21.47-2.52-32.3-1.12-18.79,2.43-28.75,13.67-34.82,29.24-5.56,14.24-10.25,28.75-16.32,42.84-5.9,13.69-12.77,26.93-26.39,35.29-13.14,8.07-28.18,12.42-43.77,14.77-15.82,2.39-31.87,3.38-47.54,6.75-7.93,1.7-15.12,4.56-20.07,10.75-8.08,10.13-19.83,13.63-32.32,16.37-19.45,4.27-30.07,17.28-35.79,33.76-4.39,12.64-7.85,25.44-17.22,36-4.01,4.51-8.42,8.42-14.01,11.3-5.46,2.81-9.54,6.95-12.28,12.3-4.3,8.38-9.09,16.53-16.42,23.09-1.25,1.12-1.63,2.47-1.92,4.38,10.09,12.02,20.1,25.05,24.55,39.69,5.72,18.87,13.12,37.37,16.99,56.73,.12,.61-.11,1.29,.63,1.69"/><path class="cls-5" d="M1802.53,448.54c-4.1-2.33-6.66-6.19-8.9-9.7-3.09-4.84-8.16-7-12.58-9.8-4.29-2.73-9.36-.96-13.23,2.09-7.57,5.95-11.54,13.97-14.7,22.47-4.91,13.21-7.21,26.97-10.29,40.56-2.96,13.07-5.36,26.26-12.19,38.3-4.79,8.45-11.05,15.56-20.17,20.21-4.18,2.14-8.63,2.2-13.41,1.25-9.86-1.96-18.99-4.88-25.59-12.46-2.72-3.12-3-7.47-6.63-10.22-3.78-2.86-6.46-3.25-9.16,.1-6.67,8.25-15.34,14.79-22.46,22.6-8.34,9.14-18.45,9.01-28.66,5.24-5.28-1.95-10.61-3.31-16.29-4.87-4.3,2.9-4.77,6.89-3.33,11.35,3.01,9.26,6.44,18.37,7.41,28.15,.83,8.37,.37,16.39-3.13,24.23-6.82,15.24-10.85,31.2-14.8,47.25-5.3,21.54-13.01,42.32-26.62,60.87-5.57,7.6-7.17,16.62-9.91,25.28-5.92,18.68-12.78,37.11-18.64,55.81-2.67,8.52-3.31,17.47-3.23,26.43,.19,19.6-1.24,39.1-7.36,57.97-5.16,15.92-12.51,31.12-20.13,46.14-5.42,10.68-7.48,21.61-6.64,33.27,.92,12.86-.61,25.64-3.07,38.27-3.24,16.62-5.18,33.17-3.23,50.15,.78,6.77-.32,13.86-.35,20.81"/><path class="cls-3" d="M1920.16,84.26c-13.15,.59-25.7-2.67-38.41-5.02-12.46-2.3-25.1-3.37-37.78-3.97-11.17-.53-22.34-1.77-33.52-1.08-22.64,1.39-45.68,.76-67.6,6.87-30.01,8.36-52.61,25.17-66.03,52.13-8.5,17.06-16.67,34.53-30.97,48.45-15.23,14.83-33.11,24.44-56.03,25.59-11.74,.59-23.18-.88-34.76-1.21-8.49-.24-17.71,.38-23.6,6.75-9.68,10.48-20.8,8.14-32.47,4.94-8.99-2.47-17.54-6.19-26.8-7.95-3.05-.58-6.05-1.25-9.15-1.67-14.61-1.99-24.38,3.84-31.88,15.15-4.52,6.81-6.75,13.78-6.47,21.49,.41,11.49-1.67,22.86-1.33,34.35,.34,11.26,1.38,22.49,1.45,33.78,.07,11.18-6.41,17.96-15.43,23.63-9.49,5.97-16.11,13.99-18.68,24.27-.98,3.9-1.96,7.65-3.87,11.26,2.85,5.83,10.35,7.76,13.43,13.46,.58,1.07,1.89,1.56,2.47,2.8,9.13,19.44,24.2,35.85,33.36,55.24,4.88,10.34,7.9,21.3,9.32,32.6,.96,7.65,2.66,15.28,5.53,22.49,5.07,12.74,5.15,25.75,3.43,38.87-.49,3.75-.15,7.58-1.58,11.31-1.16,3.02,.34,5.49,4.14,6.15"/><path class="cls-3" d="M1920.16,237.97c-6.23-6.89-15.23-7.43-23.78-8.33-9.65-1.01-19.12,1.48-28.63,2.71-11.91,1.54-23.75,3.12-35.38-1.65-7.14-2.93-12.68-7.69-18.23-12.46-5.5-4.72-10.79-9.53-17-13.61-18.71-12.29-29.44-2.24-34.77,10.84-4.75,11.66-7.72,23.86-12.73,35.5-7.54,17.52-21.22,27.13-40.97,30.41-15.56,2.58-31.34,3.49-46.92,5.71-12.16,1.73-24.28,4.09-35.96,7.8-10.3,3.28-15.62,11.83-15.89,24.16-.17,7.7,.36,15.38-1.08,23.1-2.71,14.51-7.74,19.2-23.26,21.45-14.54,2.1-29.31,3.54-42.69,10.04-11.78,5.72-23.23,11.92-27.91,24.27-4.53,11.96-12.63,21.71-20.85,31.49-.52,.62-1.37,1.05-1.79,1.71-3.5,5.56-7.07,10.16-6.26,18.07,.86,8.45-.02,17.58-.38,26.4-.41,10.03,1.02,19.95,2.89,29.85,3.06,16.19,6.57,32.3,5.71,48.98-.92,17.84-3.43,35.3-9.24,52.37-4.56,13.41-2.11,26.22,4.11,38.88,6.46,13.17,14.44,25.66,20.63,38.88,6.16,13.16,4.83,26.98,.17,40.45-6.48,18.75-15.09,36.76-22.51,55.19-10.55,26.21-24.72,51.06-34.17,77.69-5.46,15.38-11.15,30.75-13.8,46.76-1.64,9.9-1.98,20.04-4.56,29.79-3.85,14.54-6.58,29.27-9.62,43.94-2.52,12.14-3.61,24.52-.39,36.53,2.2,8.18,.28,15.98-.61,23.67-1.54,13.17,.39,25.96,1.57,38.89,.09,.93,.01,1.88,.01,2.81"/><path class="cls-5" d="M1920.16,367.46c-13.08-.22-25.61-3.71-38.4-5.64-9.88-1.49-15.41-7.27-18.31-15.75-1.49-4.36-3.08-8.69-4.88-12.95-3.38-7.97-9.1-13.45-18.19-16.49-11.02-3.68-21.83-8.05-32.3-12.92-11.53-5.36-21.57-2.23-31.09,3.57-17.95,10.93-38.07,16.38-58.52,21.47-9.95,2.48-20.41,4.05-29.28,9.45-7.2,4.39-8.44,8.2-4.2,15.13,4.49,7.33,10.05,14.11,14.44,21.49,5.35,9,6.84,18.5,1.31,28.1-3.5,6.06-9.36,9.59-15.85,12.37-5.86,2.51-11.8,4.84-17.66,7.35-9.22,3.95-19.11,3.36-28.62,2.5-5.44-.49-11.05-1.23-16.51-1.71-7.46-.65-15.03-.59-22.53-1.33-5.01-.49-9.21,1.04-12.83,4.44-9.95,9.34-16.09,20.64-21.44,32.63-7.13,16-14.72,31.84-25.36,46.29-3.82,5.19-4.35,11.42-1.87,17.37,3.45,8.26,3.69,16.84,2.84,25.35-.86,8.63-.61,17.29-1.37,25.94-.98,11.19-.99,22.5-1.5,33.76-.38,8.31-3.17,16.2-5.17,24.15-2.26,9-1.94,17.84-.17,26.49,4.74,23.17,3.59,45.53-6.13,67.65-8.8,20.02-17.61,40.15-24.22,60.84-8.45,26.43-17.83,52.6-25.51,79.25-2.26,7.85-5.41,15.71-10.65,22.64-2.79,3.7-4.23,8.11-3.79,12.88,.77,8.43-3.09,16.43-2.96,24.77,.22,14.32-5.95,27.62-7.46,41.66-.05,.46-.62,1.07-.51,1.7,3.07,18.27-3.22,36.42-1.1,54.6,2.12,18.19-.43,36.5,2.31,54.63"/><path class="cls-3" d="M1920.16,111.85c-8.57,.38-16.92-.54-24.99-3.37-12.48-4.39-24.85-9.12-38.39-10.23-1.61-.13-3.24-.52-4.88-.46-16.25,.55-32.47-1.07-48.77-.18-14.37,.79-28.86-.25-43.26,.25-28.38,.99-49.2,13.07-61.59,37.06-9,17.43-15.92,35.72-26.7,52.42-13.55,21-33.46,32.73-59.22,36.52-14.53,2.14-29.11,3.8-43.88,3.41-10.02-.26-18.91,2.1-26.26,8.95-11.92,11.11-26.52,12.49-41.98,8.41-11.43-3.02-23.27-5.12-33.59-11.12-1.56-.91-3.62-1.19-5.17-.3-3.48,3.06-2.81,7-3.2,10.39-2,17.81-6.15,35.43-5.67,53.48,.17,6.57,1.05,13.07,.91,19.71-.31,14.07-7.65,24.23-19.92,30.69-10.29,5.42-15.18,13.78-19.04,22.9-1.64,3.86-3.66,6.6-7.25,9.04,3.82,3.06,6.07,7.47,7.82,11.27,6.38,13.83,18.24,24.29,25.45,37.54,5.39,9.9,8.4,20.45,11.46,31.02,4.23,14.6,9.38,28.98,12.25,43.9,.72,3.76,.01,8.09,4.23,10.7"/><path class="cls-3" d="M1920.16,175.47c-11.39-.05-22.74-.07-34.15-.87-12.03-.84-23.87-2.1-35.3-5.42-17.83-5.18-35.51-10.81-53.09-16.71-9.59-3.22-19.04-6.78-29.19-8.66-21.2-3.92-30.32,2.22-37.15,19.84-5.02,12.95-7.47,26.52-10.39,39.96-3.31,15.24-8.05,29.76-21.98,39.96-7.84,5.74-17.53,7.13-26.79,9.64-19.58,5.31-39.61,8.41-59.73,11.33-8.87,1.29-17.45,3.59-25.14,8.72-7.12,4.75-9.92,11.78-13.76,18.25-4.13,6.95-9.54,12.53-16.6,16.8-8.28,5-13.55,13.2-22.51,17.53-10.79,5.22-17.63,14.51-25.49,22.58-6.42,6.59-13.43,12.71-21.1,17.58-6.71,4.25-11.65,9.29-14.83,15.6-5.04,10.03-12.5,18.37-19.71,26.92-2.41,2.86-2.84,5.7-.52,8.45,10.23,12.11,11.32,27.18,15.72,41.15,2.39,7.59,4.55,15.27,6.36,23.03,.58,2.48,.91,4.88,1.03,7.36"/><path class="cls-3" d="M1919.86,212.63c-10.97-2.23-22.1-2.39-33.21-1.62-11.39,.79-22.62,3-34.14,2.83-8.39-.12-15.84-2.28-22.55-6.83-10.03-6.8-18.49-15.45-29.26-21.39-7.9-4.35-16.09-7.93-25.59-7.9-12.77,.04-17.28,3.26-22.01,14.62-4.11,9.85-5.44,20.25-7.8,30.44-2,8.63-4.14,17.2-7.97,25.33-6.28,13.32-18.58,19.17-32.93,21.87-15.97,3-32.09,5.28-48.13,7.99-10.39,1.76-20.74,3.67-31.08,5.63-6.16,1.17-11.93,3.43-17.04,6.77-8.14,5.33-8.76,13.92-10.34,21.93-2.03,10.31-4.09,20.42-10.89,29.35-5.45,7.15-13.07,10.37-21.47,12.85-8.93,2.65-18.57,2.86-26.88,7.8-10.35,6.15-20.31,12.78-30.38,19.27-1.67,1.08-2.79,2.68-3.73,4.45-4.21,7.93-8.45,15.81-13.89,23.16-5.91,7.99-13.03,15-20,22.61,7.63,7.69,8.21,17.25,9.02,26.88,.89,10.53,2.79,21,3.45,31.54,.6,9.54,1.09,19.1,.31,28.72-.59,7.26,1.49,14.59,1.02,21.94-1.53,24.12-3.7,48.14-13.38,70.95-.53,1.25-1.34,2.18-.76,3.97,2.74,8.55,4.97,17.24,7.46,25.86,3.19,11.02,10,20.72,16.85,29.58,15.28,19.77,15.68,39.83,7.61,61.66-12.73,34.42-29.5,67.17-47.08,99.6-8.73,16.1-14.47,33.18-20.67,50.14-3.13,8.55-8.84,16.05-11.6,24.77-4.26,13.47-7.15,27.15-4.06,41.07,1.63,7.32-.17,14.3-.12,21.43,.13,16.54-1.39,33.08,2.14,49.59,1.52,7.11-.92,14.6-1.59,21.91-.86,9.38-1.12,18.8,.13,28.14,.48,3.6,.16,7.15,.48,10.71"/><path class="cls-3" d="M1920.16,127.05c-16.29,1.62-30.35-4.79-44.47-10.75-8.97-3.78-18.34-5.46-28.06-5.55-18.08-.17-36.18,.33-54.24-.62-10.78-.57-21.47-2.32-32.31-2.23-27.36,.23-46.32,11.59-56.24,34.85-6.53,15.33-12.75,30.77-20.33,45.76-13.78,27.26-37.06,40.68-68.47,44.51-15.64,1.91-31.32,3.51-46.97,5.35-9.24,1.09-16.35,5.26-22.42,10.95-7.39,6.92-16.62,9.13-26.32,10.56-10.28,1.51-20.56,3.07-31.09,1.83-4.14-.49-6.95,1.54-8.61,5.5-5.5,13.08-8.74,26.35-8.68,40.57,.06,11.61-3.57,22.69-10.61,32.73-3.21,4.57-7.34,7.79-12.36,9.97-8.06,3.5-13.24,9.26-17.03,16.41-3.6,6.81-7.15,13.65-12.18,19.62,1.83,8.62,7.13,15.25,12.57,22.2,9.26,11.83,17,24.52,20.53,39.22,2.93,12.2,7.8,24,11.3,36.09,2.49,8.61,5.27,17.31,3.14,26.44"/><path class="cls-2" d="M790.76,1079.97c-13.95-16.81-30.59-31.09-49.47-42.94-12.56-7.88-23.34-17.51-33.9-27.28-18.71-17.33-40.67-28.45-66.58-33.08-14.28-2.55-27.4-8.12-40.99-12.57-9.07-2.97-19.04-5.46-29.1-4.81-6.59,.43-12.26,4.21-18.89,5.05-10.38,1.32-19.42,5.57-25.51,13.51-9.93,12.93-24.49,14.76-39.72,15.08-13.81,.29-27.65,.51-41.44-.04-23.63-.95-45.91-6.07-63.97-21.33-16.45-13.9-36.02-23.23-55.61-32.42-6.39-3-11.22-6.76-15.14-12.01-5.54-7.41-9.15-7.59-17.74-2.94-7.96,4.31-13.53,10.81-20,16.48-5.64,4.95-11.28,6.59-19.61,5.45-10.65-1.47-21.07,2.2-29.77,8.63-2.23,1.65-4.13,3.69-6.12,5.6-6.13,5.91-8.65,6.16-15.19,.5-3.8-3.29-8.04-5.64-11.59-6.71-6.54-.17-8.71,3.63-9.66,7.36-3.25,12.73-13.82,14.12-25.13,14.59-11.79,.49-20.69-6.22-30.46-10.7-5.12-2.35-9.34-6.33-15.87-8.26,.25,5.77,3.44,9.24,6.14,12.76,21.44,27.91,47.85,51.77,72.95,76.73,11.3,11.24,23.73,21.49,34.29,33.36"/><path class="cls-3" d="M1472.18,524.55c.61,7.31,3.42,14.12,1.69,22.05-1.78,8.14-4.3,16.6-2.95,25.25,.71,4.5-.85,9.09-2.66,12.84-5.46,11.29-5.17,22.78-3.34,34.44,2.08,13.26,4.15,26.59,12.12,38.3,4.32,6.35,7.92,13.21,12.93,19.05,13.91,16.21,13.92,33.84,7.82,52.45-9.69,29.53-24.02,57.08-41.44,83.33-5.8,8.74-11.3,17.62-15.98,26.96-3.83,7.65-6.12,15.66-8.35,23.71-2.81,10.16-6.98,19.88-13.06,28.58-4.97,7.1-7.39,14.62-7.59,22.64-.37,15.21-1.4,30.49,1.75,45.59,.49,2.33,.19,4.48,.05,6.77-.81,13.51-1.38,26.99,.34,40.55,1.4,10.99,1.65,22.02,.48,33.23-1.38,13.2-.32,26.62-.32,39.95"/><path class="cls-4" d="M1920.16,682.76c-3.39-4.54-9.02-5.64-14.06-7.2-10.17-3.17-19.88-7.56-30.43-9.7-4.08-.83-8.13-.89-12.19,.01-7.89,1.75-14.76-.75-20.63-5.17-4.53-3.41-8.83-7.39-12.12-11.82-3.92-5.27-9.49-7.05-15.4-7.05-11.27,0-21.91-1.95-32.34-5.72-3.21-1.16-6.66-1.88-10.33-1.85-13.33,.12-18.68-4.02-22.61-16.24-2.5-7.79-3.91-15.8-5.92-23.69-.47-1.86-1.39-3.14-2.83-4.81-14.21,10.44-25.39,23.55-37.49,35.83-2.13,2.17-2.82,5.05-3.75,7.84-2.41,7.22-5.49,14.03-12.68,18.67-6.32,4.08-4.2,12.12,3.57,15.76,3.16,1.48,6.57,2.11,9.82,3.24,14.12,4.91,13.96,10.86,10.32,21.47-3.44,10.04-9.15,18.89-17.08,26.44-5.63,5.37-10.8,11.07-15.87,16.88-8.1,9.29-18.92,10.89-31.05,9.11-10.22-1.5-20.5-4.56-30.52,1.55-8.87,5.41-13.24,13.41-17.04,22.03-7.38,16.72-4.65,32.29,5.47,47.33,10.29,15.29,16,32.01,15.77,50.08-.13,9.75-2.96,19.13-7.15,28.17-6.48,14-12.49,28.19-18.98,42.19-7.26,15.67-17.24,29.81-31.75,40.44-20.1,14.72-28.48,34.97-33.34,57-3.45,15.64-8.14,30.97-12.28,46.43"/><path class="cls-4" d="M1920.16,839.28c-12.93-9.42-20.91-21.93-23.55-36.63-3.19-17.74-14.32-31.2-25.2-45.01-10.47-13.28-24.36-23.8-34.94-37.02-1.78-2.22-4.28-5.93-9.44-4.34-5.76,6.79-1.96,13.54,1.8,19.92,4.81,8.16,7.83,16.66,7.79,25.94-.04,8.31,.86,16.65-2.22,24.83-1.02,2.71-2.26,4.85-4.44,6.7-2.64,.18-5.22-1.42-7.96,.51-12.86,9.04-28.37,12.55-43.19,17.62-14.56,4.97-28.67,11.59-37.56,23.71-6.61,9.02-11.61,19.25-11.92,30.79-.32,11.82,.86,23.64-1,35.49-2.07,13.19-5.23,26.13-9.42,38.79-7.34,22.23-16.37,43.78-30.84,63.17-9.34,12.51-20.92,23.08-31.83,34.26-14.86,15.22-31.09,29.14-48.14,42.24"/><path class="cls-3" d="M1919.86,158.58c-12.96,2.09-25.71,.28-38.05-2.95-17.67-4.63-35.12-9.3-53.65-10.88-16.69-1.42-32.7-7-48.79-11.52-9.37-2.63-18.97-3.95-28.64-2.7-12.77,1.65-20.93,8.78-26.35,19.55-6.28,12.49-8.85,25.94-13.24,38.91-3.53,10.41-6.85,20.74-12.61,30.51-7.98,13.54-20.48,20.33-35.56,24.71-17.92,5.2-36.24,8.14-54.85,10.27-8.74,1-17.45,2.82-25.71,6.41-6.71,2.92-11.87,6.9-15.77,12.55-5.6,8.12-13.43,13.43-23.12,16.97-16.92,6.19-28.49,18.25-37.68,32.09-7.75,11.68-13.82,24.24-25.01,33.83-3.29,2.82-6.97,5.15-10.64,6.92-3.89,1.87-6.11,4.31-7.75,7.6-5.89,11.83-13.02,22.89-23.32,31.63,7.32,11.57,16.31,22.49,19.09,34.9,3.88,17.36,11.83,33.6,14.64,51.12,.07,.45,.74,.76,.54,1.14,.99,.15,1.2-.77,1.8-1.1,2.57,1.06,.16,3.68,1.85,5.04"/><path class="cls-3" d="M1920.16,193.49c-15.64-.83-31.28-1.32-46.93-.03-18.34,1.51-34.31-3.9-49.48-13.33-15.92-9.9-33.39-17.19-52.31-20.96-19.8-3.94-24.43,2.12-29.83,16.31-5.41,14.21-6.29,29.31-9.82,43.9-3.01,12.48-6.14,24.9-18.21,33.27-8.39,5.82-18.5,7.09-28.11,9.38-12.64,3.02-25.53,5.14-38.37,7.43-11.58,2.06-23.26,3.58-34.75,6.15-14.23,3.18-22.63,11.31-25.52,24.3-2,9-6.17,17.19-10.51,25.28-3.45,6.44-9.4,10.74-16.99,12.36-13.71,2.91-24.63,10.39-35.26,18.17-9.13,6.68-17.56,14.1-28.04,19.18-5.24,2.54-6.68,8.14-9.3,12.78-6.78,12.01-16.64,22.04-24.83,31.8,2.32,8.98,6.73,16.59,8.5,25.1,2.08,9.98,3.84,20.05,6.83,29.8,3.12,10.21,1.04,20.3,1.03,30.45,0,2.22-2.27,3.1-3.63,4.5"/><path class="cls-5" d="M1918.94,316.79c-10.52-10.6-17.65-23.3-25.54-35.5-5.94-9.2-15.05-12.69-25.63-11.05-23.04,3.58-43.27-1.08-62.33-13.52-14.84-9.69-22.15-4-29.8,5.98-4.69,6.12-9.4,12.24-14.51,18.09-12.92,14.8-30.51,21.19-50.03,24.15-15.54,2.36-31.36,2.54-46.9,4.67-9.18,1.26-18.81,2.72-24.39,11.13-2.53,3.81-3.17,7.77-2.63,12.4,1.04,8.82,4.28,17.16,5.69,25.88,2,12.35-3.66,21.48-13.39,29.34-9.03,7.29-19.31,6.81-29.91,4.97-6.34-1.1-12.54-3.11-18.92-3.79-12.92-1.37-22.76,3.62-29.22,13.98-11.26,18.05-24.01,35.34-33,54.58-1.83,3.92-4.11,7.72-6.71,11.25-6.18,8.4-6.51,17.31-5.04,27.09,1.57,10.46,4.57,20.41,8,30.42,4.25,12.41,3.52,25.43,3.1,38.24-.63,18.98-6.71,37.21-9.77,55.81-2.4,14.57,.1,29.58,7.95,43.33,8.47,14.86,10.74,30.68,6.85,47.26-3.63,15.44-10.5,29.81-16.51,44.47-7.1,17.32-13.47,34.89-20.21,52.33-8.6,22.25-17.56,44.4-24.74,67.07-4.01,12.66-7.08,25.62-8.72,38.8-.57,4.53-1.43,9.04-2.43,13.51-4.3,19.32-6.92,38.98-12.86,57.97-1.87,5.99-1.16,12.06-1.54,18.05-.67,10.71-1,21.43-2.53,32.1-.09,.64,1.51,1.49,2.32,2.24-3.02,8.45-2.32,17.04,.2,25.29,1.71,5.61,.66,11.74,4.07,16.94"/><path class="cls-5" d="M1919.86,614.63c-8.84-1.88-17.81-3.33-26.48-5.73-12.23-3.4-23.62-8.89-35.29-13.6-9.9-4-20.06-5.72-30.57-6.54-10.96-.86-21.97-1.59-32.92-1.98-9.92-.36-12.79-5.87-15.19-12.69-2.97-8.4-2.63-17.38-4.98-25.87-1.75-6.32-2.38-13.28-8.71-17.48-5.17,.14-7.98,3.3-10.67,6.24-10.15,11.08-19.15,23.05-30.49,33.22-3.44,3.09-7.21,5.85-11.11,8.27-4.39,2.72-9.13,5.16-15.18,3.65-3.96-.99-7.84,.06-10.99,3.2-5.68,5.67-11.59,11.06-16.54,17.41-6.18,7.95-15.55,9.3-25.46,7.92-3.46-.48-6.95-.89-10.4-1.48-3.5-.6-7.99-1.34-8.63,3.19,5.82,15.3,15.58,28.5,21.47,43.38,3.01,7.59,2.7,14.87-1.8,21.98-4.22,6.67-7.08,7.94-15.27,6.18-2.89-.62-5.73-1.28-8.56-2.18-14.89-4.74-18.22-.65-24.31,8.39-7.59,11.28-13.06,23.64-20.68,34.93-5.28,7.83-11.46,15.33-14.63,24.19-7.46,20.82-15.5,41.55-17.7,63.6-.99,9.96,1.56,19.79,5.7,28.6,9.76,20.78,5.52,39.84-4.36,59.3-8.55,16.83-18.84,32.66-29.52,48.29-6.8,9.94-9.67,20.84-11.46,32.15-3.09,19.54-5.39,39.17-9.63,58.58-2.91,13.32-3.71,26.97-5.03,40.51"/><path class="cls-5" d="M1920.16,648.97c-4.26-3.78-10.2-3.63-15.3-4.85-20.86-5.01-41.34-10.63-60.35-20.36-5.62-2.88-12.49-2.18-18.82-2.97-11.38-1.42-22.14-4.63-31.67-10.7-3.57-2.28-7.54-2.96-11.61-3.3-8.3-.7-14.14-4.12-16.46-11.86-2.43-8.11-3.55-16.39-3.61-24.78-.04-4.83-1.25-9.29-3.33-13.45-2.72-1.16-4.5-.71-6.51,1.01-7.54,6.43-14.19,13.59-20.64,20.91-2.83,3.21-5.74,6.44-9.24,8.91-13.97,9.86-24.23,22.45-32.18,36.7-7.29,13.07-12.75,11.38-25.04,10.02-3.6-.4-6.98-1.46-8.29,.82,1.32,13.68,10.11,23.13,14.88,34.2,4.21,9.75,4.8,19.25-3.39,28.24-4.33,4.75-7.02,10.8-10.36,16.29-2.37,3.91-5.33,4.18-9.31,3.9-6.53-.47-12.72-1.95-18.93-3.88-9.92-3.08-19.04-1.27-26.13,6.12-15.34,15.98-28.19,33.35-33.54,54.59-3.31,13.14-7.83,26.16-4.33,39.98,2.21,8.74,7.59,16.07,12.36,23.57,9.92,15.59,10.8,31.56,3.44,47.89-6.91,15.36-14.26,30.56-21.96,45.59-4.89,9.55-11.74,18.23-19.56,25.81-14.69,14.23-20.36,31.77-24.23,50.25-3.85,18.39-7.81,36.77-11.52,55.19-1.16,5.76-1.68,11.63-2.49,17.44"/><path class="cls-3" d="M1456.33,593.8c2.79,6.71,3.57,13.75,3.61,20.83,.08,11.71,1.01,23.22,5.45,34.37,2.8,7.03,7.05,13.3,11.14,19.63,4.49,6.97,9.96,13.4,14.46,20.36,5.18,8.01,5.18,16.91,3.73,25.86-4.01,24.69-15.68,46.65-28.66,68.12-5.65,9.34-12.61,17.89-19.5,26.46-10.03,12.49-16.12,26.49-19.55,41.66-2.47,10.94-7.47,20.98-13.92,30.43-3.03,4.45-4.85,9.62-5.25,14.64-.45,5.62-1.79,11.18-1.52,16.87,.57,12.01-1.79,24.05,.1,36.02,2.26,14.3,.04,28.54-.13,42.8-.13,11.34,2.72,22.52,2.34,33.78-.62,18.21-1.28,36.4-1.06,54.62"/><path class="cls-3" d="M1452.68,595.49c.55,10.15,3.27,20.11,2.58,30.41-.45,6.8,1.04,13.63,2.93,20.25,3.69,12.95,10.84,24.35,19.53,34.87,11.86,14.37,12.96,30.4,7.69,46.72-8.27,25.59-22.14,48.54-41.22,68.78-12.4,13.16-21.48,27.83-24.74,45.52-1.16,6.29-4.3,12.63-8.77,18.11-6.19,7.59-7.23,16.71-8.01,25.85-2.36,27.38-.2,54.82-1.4,82.2-.58,13.15-.95,26.27-1,39.42-.02,6.77,1.38,13.45,1.3,20.27-.2,17.45-1.53,34.91-.1,52.36"/><path class="cls-3" d="M1444.14,599.43c-1.22,9.2-3.08,18.37-3.53,27.59-1.12,22.82,4.9,44.43,15.87,64.67,8.56,15.82,5.56,30.56-2.66,45.07-10.34,18.26-25.75,32.63-43.26,45-15.07,10.65-26.64,22.99-29.33,41.16-.88,5.92-4.4,11.21-7.78,16.35-1.05,1.59-1.86,3.22-2.57,5.02-2.58,6.58-.37,12.94,.9,19.16,2.28,11.21,8.06,21.59,10.68,32.71,4.15,17.6,5.27,35.35,3.45,53.48-1.71,17-6.72,33.33-9.35,50.09-1.58,10.07-1.23,20.32-.48,30.38,1.25,16.75,1.67,33.42-.19,50.12"/><path class="cls-2" d="M.85,684.45c10.44,10.02,21.51,19.31,34.1,27.08,17.49,10.79,36.45,18.84,56.17,25.13,26.44,8.43,52.29,18.12,77.96,28.3,11.92,4.73,24.86,6.13,37.18,9.55,12.91,3.59,26.52,2.83,39.64,5.53,28.32,5.84,54.7,16.42,80.99,27.24,7.44,3.06,15.42,4.65,22.66,8.23,5.77,2.86,11.17,6.13,16.37,9.71,6.97,4.81,14.57,6.27,23.2,5.15,8.02-1.04,15.76,1.34,23.11,3.92,19.82,6.96,39.05,15.17,57.99,24.03,15.08,7.05,30.87,12.15,48.09,13.16,16.31,.95,31.25,6.47,46.48,11.91,24.86,8.88,48.83,19.41,72.97,29.68,12.44,5.29,25.36,8.1,39.03,7.82,14.31-.29,28.58-.04,42.04,5.12,21.56,8.27,42.48,17.51,59.82,32.54,9.34,8.1,19.53,15.35,29.16,23.18,21.05,17.1,38.06,37.33,53.04,59.1,8.8,12.79,17.18,25.8,24.99,39.13"/><path class="cls-3" d="M1473.4,496.96c1.93,9.49,.66,18.48-5.55,26.42-3.14,4.01-1.85,8.76-3.46,13.03-2.42,6.44-2.95,13.27-5.86,19.8-2.89,6.5-2.44,14.2-4.13,21.23-1.66,6.95-.89,14.73-7.32,20.01,2.18,5.8-.25,11.23-.74,16.59-2.3,25.23,1.85,49.13,16.18,70.9,11.88,18.05,10.56,36.03,1.05,54.07-9.82,18.62-24,34.15-40.67,47.98-11.67,9.68-22.13,20.48-26.87,34.83-1.85,5.59-1.45,11.79-6.55,16.49-1.27,1.17-2.41,3.13-3.91,4.26-6.98,5.24-6.97,12.08-5.39,19.2,2.78,12.49,8.35,24.36,9.7,37.17,.69,6.56,1.57,13.13,1.78,19.71,.8,24.58-1.03,48.95-5.73,73.24-1.68,8.69-1.37,17.91-.5,26.99,.88,9.31,.2,18.75,.2,28.14v33.22"/><path class="cls-3" d="M953.5,1080.25c-4.52-11.94-11.79-22.71-17.14-34.32-13.54-29.34-35.94-52.48-61.57-73.13-7.77-6.26-14.41-13.44-21.08-20.5-14.62-15.47-32.56-27.38-48.95-40.94-10.07-8.33-20.38-16.3-32.2-22.67-19.83-10.67-41.04-18.02-62.86-24.06-16.38-4.53-33.84-6.68-48.6-14.89-15.95-8.87-32.03-17.83-45.84-29.63-8.3-7.09-18.08-11.01-29.27-11.78-14.2-.97-24.45-8.24-33.51-17.49-4.92-5.03-9.15-10.65-14.66-15.17-10.94-8.95-19.38-9.75-31.61,.03-5.22,4.18-9.96,8.8-17.12,10.08-11.24,2.01-21.16-1.23-29.81-7.4-19.63-13.99-40.12-26.66-62.21-37.11-9.82-4.64-20.45-6.82-31.12-8.27-14.12-1.92-26.32-7.23-37.8-14.73-13.25-8.66-27.85-14-44.44-12.36-8.99,.89-17.84,3.01-26.84,3.77-16.22,1.36-32.49,.78-48.75,.13-29.83-1.2-57.1-11.95-85.34-19.15-11.25-2.87-22.77-5.31-32.83-10.83-16.6-9.11-34.49-16.18-50.05-26.92-8.61-5.94-13.92-14.57-20.62-22.03-6.76-7.53-12.7-15.69-19-23.57"/><path class="cls-3" d="M1449.02,606.19c2.67,6.79,1.41,13.94,1.6,20.84,.57,20.7,6.87,39.49,19.8,56.25,10.4,13.48,12.13,27.94,7.22,43.39-6.77,21.27-18.69,39.88-34.71,56.31-6.74,6.92-13.66,13.7-20.06,20.88-7.75,8.7-11.7,19.26-15.18,29.83-2.31,7.02-5.53,13.42-11.17,18.48-5.1,4.57-5.93,10.27-4.65,15.8,6.36,27.59,4.74,55.52,4.58,83.36-.11,19.92-4.89,39.73-3.35,59.67,1.78,23.1,.49,46.18,1.05,69.26"/><path class="cls-4" d="M1920.16,757.08c-3.41-4.68-9.29-4.37-14.05-4.78-5.92-.5-10.22-3.04-14.58-5.94-12.04-8-24.04-16.06-35.95-24.22-4.58-3.14-7.99-7.15-11.17-11.69-9.27-13.25-22.22-22.13-39.45-24.85-5.97-.94-11.37-3.43-17.09-4.99-4.01-1.1-8.33-1.5-12.47,.57,8.13,12.13,18.81,21.7,27.84,32.49,9.07,10.84,17.4,21.88,20.51,36.37-1.42,3.67-5.66,5.48-9.62,7.63-19.76,10.76-41.21,15.35-64.01,15.84-13.43,.29-25.46,4.09-34.18,14.5-6.02,7.19-13.36,13.28-21.33,18.56-13.88,9.18-15.46,21.97-13.38,36.1,2.25,15.26,7.77,30.02,7.97,45.6,.15,11.95-3.6,23.14-7.35,34.34-6.88,20.52-14.99,40.51-27.96,58.6-9.16,12.77-19.52,24.57-31.17,35.41-19.77,18.39-39.18,37.05-54.24,59.12-1.04,1.52-3.27,2.19-3.64,4.23"/><path class="cls-3" d="M1450.24,569.03c-6.25,16.55-10.11,33.69-14.95,50.59-3.87,13.52-2.57,26.42,.42,39.47,2.61,11.4,6.24,22.52,11.35,33.29,7.67,16.17,3.62,31.16-6.47,45.61-12.93,18.53-31.56,31.2-50.82,43.12-8.01,4.96-12.92,10.72-16.01,19.23-4.16,11.47-6.38,23.47-12.17,34.58-3,5.75-.52,12.96,.08,19.57,1.26,13.72,6.96,26.17,11.92,38.78,7.3,18.58,8.68,37.63,6.39,56.9-1.84,15.42-7.7,30.1-11.92,45.08-3.11,11.03-3.74,22.29-2.67,33.77,1.59,16.99,3.18,34.09-1.7,50.94"/><path class="cls-4" d="M1919.86,872.49c-4.8-2.62-9.61-5.22-15.49-4.44-7.98-9.09-8.97-20.33-11.62-31.03-2.33-9.41-4.11-18.89-7.1-28.21-3.89-12.13-10.99-22.42-18.61-32.53-2.47-3.28-5.41-6.28-7.6-10.22-4.49,1.82-7.78,3.47-8.25,8.46-1.64,17.42-4.9,34.63-8.38,51.82-3.89,19.25-12.26,34.9-33.47,43.02-10.31,3.95-15.61,13.23-15.07,23.39,.66,12.65-3.09,22.99-12.37,32.18-5.73,5.68-6.92,13.48-8.51,20.77-1.52,6.93-3.81,13.59-6.21,20.25-5.03,13.92-9.74,27.93-13.41,42.23-3.66,14.23-12.57,25.59-23.15,36.04-11,10.87-24.38,19.15-36.56,28.72-2.9,2.28-5.7,4.68-8.54,7.03"/><path class="cls-4" d="M1919.86,717.1c-5.37-1.71-9.7-5.14-14.22-8.03-13.34-8.54-29.16-10.52-44.11-14.06-11.31-2.68-20.29-7.76-29.14-13.93-7.79-5.43-15.97-9.85-26.19-10.25-5.21-.2-9.99-2.2-14.04-5.51-9.21-7.52-20.59-7.61-31.65-6.57-10.62,1-19.48-1.86-24.33-10.37-1.69-2.96-3.91-5.67-5-8.96-1.01-3.06-1.42-6.36-3.31-8.94-9.37-2.63-16.64,2.09-16.75,10.61-.06,4.32,.47,8.71-.68,12.93-1.05,3.85,2.04,5.82,4.01,8.91,7.51-.25,11.5,5.96,17.3,9.27,8.39,4.78,18.01,7.46,25.72,13.34,4.13,3.14,8.6,5.92,11.54,10.17,2.7,3.9,6.42,7.2,10.48,9.39,10.25,5.52,16.28,14.35,23.24,22.93-3.32,7.18-10.83,4.72-16.65,5.93-14.6,3.03-29.24-.63-43.88-.08-4.88,.18-9.57,1.14-13.95,2.54-6.75,2.15-13.2,5.22-19.54,8.33-7.52,3.69-13.06,9.35-17.1,16.27-5.2,8.9-13.32,14.23-23.76,16.94-4.75,1.23-9.64,2.47-13.97,4.57-7.6,3.69-10.7,10.15-10.39,17.91,.41,10.24,1.69,20.42,4.26,30.4,3.45,13.38,7.35,26.75,7.73,40.55,.28,10-1.81,19.82-5.85,29.3-7.58,17.78-14.58,35.78-23.9,52.87-7.47,13.71-17.13,26.03-28.57,37.21-10.27,10.03-21.92,18.81-31.16,29.78-4.91,5.83-8.15,12.34-10.96,19.16-5.55,13.47-11.34,26.85-17.03,40.27"/><path class="cls-2" d="M813.31,1080.25c-15.84-19.27-33.36-37.11-54.32-51.7-14.91-10.38-28.48-22.06-41.97-33.88-16.76-14.68-36.33-24.21-59.12-28.19-20.36-3.55-39.25-11.3-58.53-17.95-11.94-4.12-23.78-8.52-36.55-10.21-9.08-1.2-18.13-1.43-26.78,1.3-8.47,2.67-17.08,4.87-25.67,7.11-6.94,1.81-11.41,5.11-12.82,11.91-2.92,14.06-7.84,17.77-27.99,19.68-13.92,1.32-27.77,.69-41.44-2.23-13.63-2.91-25.34-9.25-35.95-17.45-14.87-11.51-29.04-23.75-45.63-33.34-10.31-5.96-18.36-14.6-25.61-23.56-9.83-12.16-22.1-15.27-37.27-10.11-4.5,1.53-9.24,2.45-14.01,2.77-3.37,.23-4.76,1.92-5.48,4.57-1.87,6.88-6.09,9.51-13.33,6.6-10.35-4.17-21.01-3.99-31.77-3.72-6.02,.15-10.79-1.74-13.91-6.32-1.46-2.14-3.61-3.77-5.59-3.71-9.6,.28-14.91-5.92-19.93-11.57-5.32-5.99-9.45-12.83-16.63-17.34-5.16-3.24-5.57-8.05-3.6-12.89,2.68-6.58,2.73-13.04-.78-19.12-3.69-6.4-9.75-10.89-16.36-14.69-1.24-.71-2.44-.78-4.07,.29-2.77,2.9-.4,6.5,.64,9.21,3.33,8.7,1.84,14.85-6.76,20.57-7.73,5.14-14.5,11.76-20.76,18.46-7.53,8.06-15.03,14.55-28.37,8.57-4.14-9.18-13.95-13.68-24.19-17.67-4.15-1.62-7.83-3.23-10.55-7.21-4.67-6.86-15.19-11.07-22.79-10.2-1,3.32,1.57,5.95,3.01,8.32,12.6,20.69,18.92,43.42,26.24,65.9,6.11,18.77,17.61,35.14,30.31,50.71,15.8,19.36,31.66,38.69,47.54,57.99,10.27,12.49,23.49,22.24,36.02,32.59,10.25,8.46,20.41,16.97,29.8,26.25"/><path class="cls-2" d="M.24,784.1c10.54,5.23,21.67,4.55,32.26,2.92,10.18-7.12,10.29-15.89,5.74-25.5,4.55-2.4,9.07-.73,13.18-.33,20.68,1.98,40.2,8.41,59.73,14.53,24.33,7.62,46.3,19.03,63.97,36.58,12.56,12.48,28.77,18.68,45.77,23.56,14.55,4.17,29.18,8.15,43.89,11.81,14.75,3.67,29.96,5.22,45.1,6.7,11.09,1.09,19.19,6.21,26.21,13.61,8.45,8.91,16.51,18.3,27.47,24.7,11.13,6.5,21.02,14.57,32.17,21.03,2.21,1.28,4.24,2.38,6.79,2.26,6.34-1.08,6.6-6.83,7.64-10.87,3.76-14.53,16.19-17.33,30.74-14,12.58,2.88,24.1,8.32,35.99,12.87,16.66,6.37,33.97,8.94,51.76,5.05,13.95-3.05,27.18-.37,40.21,3.55,9.42,2.84,18.48,6.64,27.53,10.45,16.31,6.86,32.01,15.12,49.32,19.79,11.92,3.22,24.31,4.7,36.57,6.07,14.22,1.59,26.18,7.71,38.38,13.69,19.38,9.51,34.33,24,49.99,37.72,12.4,10.87,25.32,21.25,37.17,32.66,14.61,14.07,26.76,29.77,36.57,47.02"/><path class="cls-3" d="M1451.46,554.39c-6.56,18.5-14.82,36.46-20.66,55.19-.97,3.13-2.25,6.11-3.78,8.96-4.97,9.28-6.91,19.03-6.03,29.3,.88,10.34,2.27,20.52,7.87,29.87,5.36,8.94,8.64,18.71,10.17,28.72,.86,5.59-.82,11.45-3.38,16.87-7.06,14.95-19.24,25.82-32.96,35.44-7.37,5.17-15.09,9.85-23.1,14.17-7.79,4.2-13.06,10.57-15.87,18.52-3.71,10.52-7.71,20.97-12.93,30.91-5.18,9.87-3.47,19.23-.76,29.38,4.81,17.98,12.96,34.82,19.07,52.33,5.18,14.87,6.18,29.97,3.39,45.62-2.46,13.79-8.44,26.34-13.1,39.36-5.12,14.32-7.62,28.62-5.8,43.96,1.57,13.19,2.09,26.8-2.12,39.93-.8,2.5-2,4.89-3.02,7.33"/><path class="cls-2" d="M1623.33,.37c-4.98,12.68,1.54,23.54,5.95,34.95,6.08,15.73,19.81,21.28,35.46,25.41,9.72,2.57,18.29,2.56,27.59-2.16,12.17-6.17,24.44-12.7,38.28-15.36,30.75-5.92,61.56-11.47,93.24-10.8,14.82,.31,29.67,.29,44.49,0,17.66-.36,34.98-2.8,51.5-8.95"/><path class="cls-2" d="M1658.69,.37c.97,5.39-3.75,8.43-6.23,12.32-1.33,2.09-3.64,3.66-4.13,6.26-1.68,8.79-1.14,11.92,8.01,14.36,10.18,2.71,20.7,5.17,31.61,4.83,9.85-.31,18.74-4.03,28.01-6.33,8.04-1.99,16.2-3.42,24.41-3.7,10.02-.34,19.98-1.48,29.82-2.68,13.21-1.61,26.46-2.66,39.66-2.88,18.49-.31,37-.63,55.45-1.51,16.89-.81,33.44-3.95,48.76-11.12,2.03-.95,4.94-.26,6.1-2.8"/><path class="cls-5" d="M1920.16,916.97c-8.5-5.38-16.96-10.66-24.53-17.31-9.65-8.47-18.59-17.03-21.44-29.3-2.31-1.6-4.62-2.15-7.91-2.56-9.53,12.6-15.76,25.4-9.76,41.93,6.97,19.21,18.76,35.46,31.96,51.15,4.44,5.28,11.58,7.52,16.48,12.37,4.94,4.89,5.46,9.21,1.17,14.66-2.39,3.03-4.54,6.51-7.44,8.87-8.93,7.23-13.36,17.08-19.42,26.01-10.09,14.87-21.19,29.12-32.28,43.36-3.33,4.27-5.21,8.88-5.45,14.1"/><path class="cls-5" d="M1920.16,897.83c-7.43-6.28-15.82-11.59-22.54-18.59-9.37-9.78-11.78-22.12-14.71-34.32-2-8.35-2.88-16.96-7.13-24.84-1.77-3.29-3.68-6.2-6.75-8.18-8.63,3.03-8.52,10.81-10.33,17.28-4.71,16.85-9.83,33.46-22.06,47.26-10.49,11.85-9.58,19.76-2.21,31.42,8.45,13.38,16.94,26.8,26.5,39.6,2.91,3.89,4.7,8.51,6.77,12.9,1.62,3.44,.96,6.77-1.81,9.53-2.73,2.72-5.39,5.61-8.57,7.83-5.59,3.92-8.07,9.05-7.81,15.27,.42,9.9-4.43,17.37-11.56,24.28-8.16,7.9-14.26,17.24-19.54,26.98-5.96,10.98-13,21.15-23.15,29.32-2.3,1.85-4.97,3.57-6.15,6.42"/><path class="cls-2" d="M.85,840.97c12.37,12.5,22.06,26.55,27.31,42.82,3.27,10.15,5.02,20.71,8.13,30.91,4.64,15.24,13.53,28.49,23.64,41.15,14.33,17.94,29.7,35.19,42.69,54.03,4.36,6.32,8.45,12.81,12.84,19.12,6.7,9.63,14.9,17.98,24.94,24.82,12.46,8.49,24.71,17.25,36.6,26.42"/><path class="cls-2" d="M.85,861.23c10.41,11.85,14.97,25.93,18.33,40.53,3.16,13.73,4.23,28.03,12.16,40.54,5.53,8.73,12.73,16.33,19.5,24.21,11.54,13.45,23.36,26.68,33.59,41.06,6.53,9.18,11.35,19.17,16.92,28.79,9.48,16.39,22.86,29.09,40.28,38.28,2.84,1.49,5.85,2.84,7.94,5.32"/><path class="cls-2" d="M.85,884.32c6.26,15.06,7.57,31.11,10.85,46.75,3,14.28,10.96,25.77,21.49,35.98,22.12,21.47,40.79,44.84,53.32,72.53,7.05,15.58,18.32,29.26,32.58,40.38"/><path class="cls-2" d="M1695.86,.37c12.33,9.08,27.13,10.47,42.05,11.89,13,1.23,26.03,1.54,39.01,.95,26.21-1.18,52.47-.97,78.64-3.14,15.81-1.31,31.16-3.64,45.72-9.66,.85-.35,2.01-.05,3.03-.05"/><path class="cls-5" d="M1805.57,447.41c-8.49,5.24-10.96,13.89-13.87,22-2.95,8.24-2.63,16.79-.22,25.31,2.38,8.41,4.94,16.79,8.71,24.71,5.85,12.27,14,16.17,29.68,10.59,3.68-1.31,7.56-2.54,11.01-4.39,6.38-3.42,13.24-2.85,19.44-.84,5.36,1.74,10.57,2.3,15.93,1.92,7.23-.51,12.01,2.5,15.21,7.99,6.51,11.18,15.3,20.11,28.07,25.33,.66,.27,.82,.74,.62,1.11"/><path class="cls-2" d="M399.46,1079.97c.67-3.09,3.9-3.21,6.14-4.13,7.56-3.11,10.69-8.4,12.37-15.81,3.2-14.14,9.09-27.4,19.89-38.33,4.11-4.16,8.94-6.39,15.24-6.85,18.08-1.32,36.06-3.31,54.27-1.13,10.48,1.25,19.69-2.74,28-8.36,7.26-4.9,16.37-6.71,23.26-12.28,2.09-1.69,5.29-.73,7.82-.04,8.48,2.32,15.8,.9,22.01-5.08,.32-.31,1.36,.1,1.82-.72,3.11,1.16,1.95,4.74,4.48,6.48,10.27,2.91,21.26,2.84,32.05,3.04,21.76,.4,39.24,9.22,55.52,21.49,11.85,8.93,22.47,19.06,33.99,28.31,6.96,5.58,14.49,10.31,22.01,15.13,8.15,5.22,16.09,10.7,21.96,18.28"/><path class="cls-2" d="M.24,939.49c3.75,14.99,12.81,27.1,24.42,37.69,12.62,11.51,24.78,23.27,33.55,37.72,4.77,7.87,8.9,16.03,12.58,24.3,6.61,14.86,16.78,27.61,26.36,40.76"/><path class="cls-2" d="M.24,968.77c3.01,5.12,7.27,9.33,11.57,13.52,8.5,8.3,17.79,15.84,25.17,25.21,6.66,8.46,11.56,17.57,15.64,27.15,6.93,16.27,17.4,30.68,27.46,45.31"/><path class="cls-2" d="M.85,989.6c10.67,11.06,23.58,20.43,30.47,34.35,3.7,7.49,7.61,14.91,10.91,22.54,4.81,11.11,12.62,20.5,19.64,30.33,.8,1.12,1.21,2.27,1.75,3.42"/><path class="cls-2" d="M1443.53,.37c-9.01,11.08-19.21,21.16-26.59,33.59-7.2,12.14-17.61,22.64-26.4,34-5.03,6.5-8.8,13.54-7.96,21.93"/><path class="cls-5" d="M1920.16,933.86c-8.39-1.69-16.32-4.69-24.38-7.31-4.37-1.42-8.74-2.68-12.54,1.54,2.95,11.84,11.31,19.47,21.73,25.41,5.04,2.87,10.53,5.06,15.19,8.52"/><path class="cls-2" d="M1842.14,.37c-26.82,.4-53.64,1.16-80.45,0"/><path class="cls-2" d="M.24,1007.06c12.97,12.81,20.44,28.53,27.4,44.49,4.52,10.36,12.18,18.97,18.31,28.42"/><path class="cls-2" d="M.85,1030.7c7.99,16.85,14.98,34.16,26.21,49.55"/><path class="cls-5" d="M1920.16,1047.59c-10.59,4.82-19.91,11.34-28.6,18.62-4.92,4.12-9.68,8.48-12.84,14.03"/><path class="cls-3" d="M1464.87,554.39c1.57,4.76,.87,9.53-.72,14.04-1.63,4.64-3.1,9.22-2.9,14.11,.11,2.61-1.9,4.43-2.48,6.76"/><path class="cls-4" d="M1808.01,902.9c-4.41,2.87-3.73,6.95-2.32,10.66,1.43,3.78,4.98,4.59,10.32,3.39-.21-5.82-3.17-10.17-7.39-14.05"/><path class="cls-3" d="M1473.4,490.2c.9,4.42-3.82,7.85-2.49,12.4,.43,1.49-.35,3.27,1.27,4.49"/><path class="cls-3" d="M1459.99,525.11c-1.12,3-2.24,6.01,0,9.01"/><path class="cls-3" d="M1464.87,511.6c-.91,2.63-2.3,5.25,0,7.88"/></g></g></svg>