<?xml version="1.0" encoding="UTF-8"?><svg id="Layer_2" xmlns="http://www.w3.org/2000/svg" viewBox="0 0 206.71 96.24"><defs><style>.cls-1{fill:#fff;}</style></defs><g id="Layer_2-2"><g><g><path class="cls-1" d="M7.64,22.78H0V1.23H7.7c2.17,0,4.03,.43,5.6,1.29,1.56,.86,2.77,2.09,3.61,3.7,.85,1.61,1.27,3.53,1.27,5.76s-.42,4.17-1.27,5.79-2.06,2.85-3.63,3.71c-1.57,.86-3.46,1.29-5.64,1.29Zm-3.08-3.9h2.89c1.35,0,2.48-.24,3.4-.72s1.62-1.23,2.08-2.24c.47-1.01,.7-2.32,.7-3.93s-.23-2.89-.7-3.9c-.47-1.01-1.16-1.75-2.08-2.23-.92-.48-2.05-.72-3.4-.72h-2.9v13.74Z"/><path class="cls-1" d="M22.98,4.53c-.67,0-1.24-.22-1.72-.66-.48-.44-.72-.97-.72-1.6s.24-1.16,.72-1.6,1.05-.67,1.7-.67,1.25,.22,1.72,.66c.47,.44,.71,.98,.71,1.6s-.24,1.16-.71,1.6-1.04,.67-1.71,.67Zm-2.26,18.24V6.62h4.48V22.78h-4.48Z"/><path class="cls-1" d="M35.32,29.07c-1.45,0-2.69-.2-3.73-.59s-1.86-.92-2.47-1.59c-.61-.67-1.01-1.41-1.19-2.22l4.15-.56c.13,.29,.33,.57,.6,.84,.27,.26,.64,.48,1.09,.65,.45,.17,1,.25,1.66,.25,.97,0,1.78-.23,2.41-.69s.95-1.22,.95-2.28v-2.96h-.19c-.2,.45-.49,.87-.88,1.27-.39,.4-.9,.73-1.52,.98-.62,.25-1.35,.38-2.21,.38-1.21,0-2.32-.28-3.31-.85-.99-.56-1.78-1.43-2.37-2.6-.59-1.17-.88-2.65-.88-4.43s.3-3.36,.89-4.59c.6-1.23,1.39-2.15,2.38-2.76,.99-.61,2.08-.92,3.27-.92,.9,0,1.66,.15,2.27,.46,.61,.31,1.1,.68,1.48,1.14,.38,.45,.66,.9,.87,1.33h.17v-2.71h4.45V22.94c0,1.35-.34,2.47-1.01,3.38s-1.6,1.59-2.79,2.06-2.56,.7-4.1,.7Zm.09-9.89c.72,0,1.33-.18,1.84-.54s.89-.88,1.16-1.56,.41-1.49,.41-2.44-.13-1.77-.4-2.47-.65-1.24-1.16-1.63-1.12-.58-1.84-.58-1.36,.2-1.86,.59c-.51,.4-.89,.95-1.15,1.65-.26,.7-.39,1.51-.39,2.43s.13,1.74,.39,2.42c.26,.68,.65,1.2,1.15,1.57s1.12,.55,1.86,.55Z"/><path class="cls-1" d="M48.32,4.53c-.67,0-1.24-.22-1.72-.66-.48-.44-.72-.97-.72-1.6s.24-1.16,.72-1.6,1.05-.67,1.7-.67,1.25,.22,1.72,.66c.47,.44,.71,.98,.71,1.6s-.24,1.16-.71,1.6-1.04,.67-1.71,.67Zm-2.26,18.24V6.62h4.48V22.78h-4.48Z"/><path class="cls-1" d="M61.97,6.62v3.37h-9.73v-3.37h9.73Zm-7.52-3.87h4.48v15.07c0,.41,.06,.73,.19,.96,.13,.23,.3,.39,.53,.48,.23,.09,.49,.14,.79,.14,.21,0,.42-.02,.63-.06,.21-.04,.37-.07,.48-.09l.71,3.33c-.22,.07-.54,.15-.95,.25-.41,.09-.9,.15-1.48,.17-1.08,.04-2.03-.1-2.84-.43-.81-.33-1.44-.84-1.89-1.54s-.67-1.57-.66-2.63V2.75Z"/><path class="cls-1" d="M68.75,23.08c-1.03,0-1.95-.18-2.76-.54-.81-.36-1.44-.9-1.91-1.61-.47-.71-.7-1.6-.7-2.67,0-.9,.16-1.65,.49-2.26s.78-1.1,1.35-1.47c.57-.37,1.22-.65,1.94-.84,.73-.19,1.49-.32,2.29-.4,.94-.1,1.7-.19,2.27-.28s.99-.22,1.25-.39c.26-.18,.39-.43,.39-.78v-.06c0-.67-.21-1.18-.63-1.55-.42-.36-1.01-.55-1.77-.55-.81,0-1.45,.18-1.93,.53-.48,.35-.79,.8-.95,1.33l-4.15-.34c.21-.98,.62-1.83,1.24-2.55,.62-.72,1.42-1.27,2.39-1.66,.98-.39,2.11-.58,3.4-.58,.9,0,1.76,.1,2.58,.32,.82,.21,1.56,.54,2.2,.98,.64,.44,1.15,1.01,1.52,1.7,.37,.69,.56,1.52,.56,2.48v10.9h-4.25v-2.24h-.13c-.26,.5-.61,.95-1.04,1.33-.44,.38-.96,.68-1.57,.89-.61,.21-1.31,.32-2.11,.32Zm1.28-3.09c.66,0,1.24-.13,1.75-.39s.9-.62,1.19-1.07c.29-.45,.43-.96,.43-1.53v-1.71c-.14,.09-.33,.17-.57,.25-.24,.07-.51,.14-.82,.2-.3,.06-.6,.11-.9,.16-.3,.05-.58,.09-.82,.12-.53,.08-.99,.2-1.38,.37-.39,.17-.7,.39-.92,.68s-.33,.64-.33,1.06c0,.61,.22,1.08,.67,1.39s1.01,.48,1.7,.48Z"/><path class="cls-1" d="M85.08,1.23V22.78h-4.48V1.23h4.48Z"/><path class="cls-1" d="M0,36.78H5.62l5.93,14.48h.25l5.93-14.48h5.62v21.55h-4.42v-14.02h-.18l-5.58,13.92h-3.01l-5.58-13.97h-.18v14.08H0v-21.55Z"/><path class="cls-1" d="M30.88,58.63c-1.03,0-1.95-.18-2.76-.54-.81-.36-1.44-.9-1.91-1.61-.47-.71-.7-1.6-.7-2.67,0-.9,.16-1.65,.49-2.26s.78-1.1,1.35-1.47c.57-.37,1.22-.65,1.94-.84,.73-.19,1.49-.32,2.29-.4,.94-.1,1.7-.19,2.27-.28s.99-.22,1.25-.39c.26-.18,.39-.43,.39-.78v-.06c0-.67-.21-1.18-.63-1.55-.42-.36-1.01-.55-1.77-.55-.81,0-1.45,.18-1.93,.53-.48,.35-.79,.8-.95,1.33l-4.15-.34c.21-.98,.62-1.83,1.24-2.55,.62-.72,1.42-1.27,2.39-1.66,.98-.39,2.11-.58,3.4-.58,.9,0,1.76,.1,2.58,.32,.82,.21,1.56,.54,2.2,.98,.64,.44,1.15,1.01,1.52,1.7,.37,.69,.56,1.52,.56,2.48v10.9h-4.25v-2.24h-.13c-.26,.5-.61,.95-1.04,1.33-.44,.38-.96,.68-1.57,.89-.61,.21-1.31,.32-2.11,.32Zm1.28-3.09c.66,0,1.24-.13,1.75-.39s.9-.62,1.19-1.07c.29-.45,.43-.96,.43-1.53v-1.71c-.14,.09-.33,.17-.57,.25-.24,.07-.51,.14-.82,.2-.3,.06-.6,.11-.9,.16-.3,.05-.58,.09-.82,.12-.53,.08-.99,.2-1.38,.37-.39,.17-.7,.39-.92,.68s-.33,.64-.33,1.06c0,.61,.22,1.08,.67,1.39s1.01,.48,1.7,.48Z"/><path class="cls-1" d="M51.32,42.17v3.37h-9.73v-3.37h9.73Zm-7.52-3.87h4.48v15.07c0,.41,.06,.73,.19,.96,.13,.23,.3,.39,.53,.48,.23,.09,.49,.14,.79,.14,.21,0,.42-.02,.63-.06,.21-.04,.37-.07,.48-.09l.71,3.33c-.22,.07-.54,.15-.95,.25-.41,.09-.9,.15-1.48,.17-1.08,.04-2.03-.1-2.84-.43-.81-.33-1.44-.84-1.89-1.54s-.67-1.57-.66-2.63v-15.66Z"/><path class="cls-1" d="M63.86,51.45v-9.28h4.48v16.16h-4.3v-2.94h-.17c-.36,.95-.97,1.71-1.81,2.28s-1.87,.86-3.09,.86c-1.08,0-2.03-.25-2.85-.74-.82-.49-1.46-1.19-1.92-2.09-.46-.9-.69-1.99-.7-3.25v-10.29h4.48v9.49c0,.95,.26,1.71,.77,2.26s1.18,.83,2.03,.83c.54,0,1.05-.12,1.52-.37s.85-.62,1.14-1.11,.43-1.1,.43-1.82Z"/><path class="cls-1" d="M71.18,58.33v-16.16h4.35v2.82h.17c.29-1,.79-1.76,1.48-2.28s1.49-.77,2.4-.77c.22,0,.47,.01,.73,.04,.26,.03,.49,.07,.68,.12v3.98c-.21-.06-.5-.12-.87-.17-.37-.05-.71-.07-1.02-.07-.66,0-1.25,.14-1.76,.43-.52,.28-.92,.68-1.22,1.18-.3,.5-.45,1.09-.45,1.75v9.14h-4.48Z"/><path class="cls-1" d="M84.81,40.09c-.67,0-1.24-.22-1.72-.66-.48-.44-.72-.97-.72-1.6s.24-1.16,.72-1.6,1.05-.67,1.7-.67,1.25,.22,1.72,.66c.47,.44,.71,.98,.71,1.6s-.24,1.16-.71,1.6-1.04,.67-1.71,.67Zm-2.26,18.24v-16.16h4.48v16.16h-4.48Z"/><path class="cls-1" d="M98.46,42.17v3.37h-9.73v-3.37h9.73Zm-7.52-3.87h4.48v15.07c0,.41,.06,.73,.19,.96,.13,.23,.3,.39,.53,.48,.23,.09,.49,.14,.79,.14,.21,0,.42-.02,.63-.06,.21-.04,.37-.07,.48-.09l.71,3.33c-.22,.07-.54,.15-.95,.25-.41,.09-.9,.15-1.48,.17-1.08,.04-2.03-.1-2.84-.43-.81-.33-1.44-.84-1.89-1.54s-.67-1.57-.66-2.63v-15.66Z"/><path class="cls-1" d="M103.4,64.36c-.57,0-1.1-.04-1.59-.13-.49-.09-.9-.2-1.23-.32l1.01-3.36c.79,.25,1.46,.31,2,.2,.54-.12,.97-.54,1.29-1.27l.26-.68-5.8-16.62h4.71l3.35,11.87h.17l3.38-11.87,4.75,.02-6.28,17.88c-.3,.86-.71,1.62-1.23,2.26-.52,.64-1.17,1.14-1.95,1.49s-1.73,.53-2.84,.53Z"/><path class="cls-1" d="M123.47,36.78h5.62l5.93,14.48h.25l5.93-14.48h5.62v21.55h-4.42v-14.02h-.18l-5.58,13.92h-3.01l-5.58-13.97h-.18v14.08h-4.42v-21.55Z"/><path class="cls-1" d="M157.04,58.65c-1.63,0-3.05-.35-4.23-1.05-1.19-.7-2.11-1.67-2.75-2.92-.65-1.25-.97-2.71-.97-4.36s.32-3.13,.97-4.38c.65-1.25,1.56-2.23,2.75-2.92,1.19-.7,2.6-1.05,4.23-1.05s3.05,.35,4.23,1.05c1.19,.7,2.11,1.67,2.75,2.92,.65,1.25,.97,2.71,.97,4.38s-.32,3.11-.97,4.36c-.65,1.25-1.56,2.23-2.75,2.92-1.19,.7-2.6,1.05-4.23,1.05Zm.02-3.47c.74,0,1.36-.21,1.86-.64,.5-.42,.88-1,1.13-1.74,.26-.74,.38-1.57,.38-2.51s-.13-1.78-.38-2.51c-.26-.74-.63-1.32-1.13-1.75s-1.12-.64-1.86-.64-1.38,.21-1.89,.64c-.51,.43-.89,1.01-1.15,1.75-.26,.74-.38,1.58-.38,2.51s.13,1.78,.38,2.51,.64,1.32,1.15,1.74c.51,.42,1.14,.64,1.89,.64Z"/><path class="cls-1" d="M173.14,58.59c-1.23,0-2.34-.32-3.33-.95-.99-.63-1.78-1.57-2.36-2.81s-.87-2.76-.87-4.56,.3-3.39,.89-4.62c.6-1.23,1.39-2.15,2.38-2.77,.99-.61,2.08-.92,3.27-.92,.9,0,1.66,.15,2.27,.46,.61,.31,1.1,.68,1.47,1.14,.38,.45,.66,.9,.86,1.33h.14v-8.1h4.47v21.55h-4.42v-2.59h-.19c-.21,.45-.51,.89-.89,1.33s-.88,.8-1.48,1.09c-.61,.29-1.35,.43-2.21,.43Zm1.42-3.57c.72,0,1.33-.2,1.84-.59,.5-.4,.89-.95,1.16-1.67,.27-.72,.41-1.55,.41-2.51s-.13-1.8-.4-2.5-.65-1.26-1.16-1.64-1.12-.58-1.84-.58-1.36,.2-1.86,.6c-.51,.4-.89,.95-1.15,1.66-.26,.71-.39,1.53-.39,2.46s.13,1.77,.39,2.49c.26,.72,.65,1.28,1.15,1.68s1.12,.6,1.86,.6Z"/><path class="cls-1" d="M192.63,58.65c-1.66,0-3.09-.34-4.29-1.01s-2.12-1.64-2.76-2.88c-.65-1.25-.97-2.72-.97-4.42s.32-3.12,.97-4.38c.65-1.26,1.56-2.23,2.73-2.94s2.55-1.05,4.14-1.05c1.07,0,2.06,.17,2.98,.51,.92,.34,1.73,.85,2.42,1.53,.69,.68,1.23,1.53,1.61,2.56s.58,2.23,.58,3.6v1.23h-13.65v-2.78h9.43c0-.65-.14-1.22-.42-1.71-.28-.5-.67-.89-1.16-1.17s-1.07-.43-1.72-.43-1.28,.16-1.8,.47-.93,.73-1.23,1.25c-.29,.52-.45,1.1-.45,1.74v2.64c0,.8,.15,1.49,.45,2.07,.3,.58,.72,1.03,1.27,1.35,.55,.32,1.2,.47,1.95,.47,.5,0,.95-.07,1.37-.21,.41-.14,.77-.35,1.06-.63,.29-.28,.52-.62,.67-1.03l4.15,.27c-.21,1-.64,1.86-1.29,2.6-.65,.74-1.48,1.32-2.5,1.73s-2.2,.62-3.53,.62Z"/><path class="cls-1" d="M206.71,36.78v21.55h-4.48v-21.55h4.48Z"/></g><g><path class="cls-1" d="M4.43,93c-1.16,0-2.17-.66-2.72-1.47v1.27H.46v-11.38H1.76v4.69c.57-.76,1.55-1.39,2.68-1.39,2.26,0,3.93,1.87,3.93,4.14s-1.67,4.13-3.93,4.13Zm0-7.06c-1.45,0-2.68,1.31-2.68,2.95s1.22,2.92,2.68,2.92,2.63-1.32,2.63-2.92-1.16-2.95-2.63-2.95Z"/><path class="cls-1" d="M11.8,94.32c-.55,1.47-1.42,2.07-3,1.9v-1.19c1.02,.08,1.45-.25,1.79-1.16l.41-1.1-3.01-7.83h1.41l2.29,6.27,2.25-6.27h1.39l-3.53,9.39Z"/><path class="cls-1" d="M21.34,84.07h-2.02v-1.88h2.02v1.88Zm0,8.73h-2.02v-7.87h2.02v7.87Z"/><path class="cls-1" d="M29.34,92.8h-2.02v-4.6c0-.46-.14-1.56-1.47-1.56-.9,0-1.53,.67-1.53,1.56v4.6h-2.02v-7.87h1.93v.76c.5-.6,1.19-.96,2.03-.96,1.85,0,3.07,1.39,3.07,3.47v4.6Z"/><path class="cls-1" d="M33.4,92.99c-2,0-3.49-1.06-3.73-2.75h2.05c.27,.67,1.09,.92,1.68,.92,.81,0,1.42-.24,1.42-.7s-.27-.63-1.65-.84c-1.41-.21-3.29-.6-3.29-2.35,0-1.24,1.09-2.52,3.36-2.52,1.8,0,3.15,.98,3.41,2.46h-2.1c-.12-.37-.57-.66-1.31-.66-.93,0-1.32,.34-1.32,.63,0,.41,.58,.55,1.56,.7,1.96,.32,3.36,.75,3.36,2.46,0,1.56-1.44,2.66-3.45,2.66Z"/><path class="cls-1" d="M39.4,84.07h-2.02v-1.88h2.02v1.88Zm0,8.73h-2.02v-7.87h2.02v7.87Z"/><path class="cls-1" d="M47.99,92.8h-1.93v-.84c-.63,.64-1.45,1.01-2.42,1.01-2.05,0-3.75-1.77-3.75-4.1s1.7-4.11,3.75-4.11c.92,0,1.71,.34,2.32,.92v-4.25h2.02v11.38Zm-4.04-6.18c-1.12,0-2.02,.98-2.02,2.26s.9,2.22,2.02,2.22,2.02-.99,2.02-2.22-.9-2.26-2.02-2.26Z"/><path class="cls-1" d="M50.54,89.65c.26,.96,1.02,1.56,1.97,1.56,.67,0,1.33-.29,1.67-.92h2.16c-.46,1.61-1.85,2.69-3.81,2.69-2.22,0-4.04-1.84-4.04-4.11s1.82-4.14,4.04-4.14,4.25,1.8,3.96,4.92h-5.95Zm3.94-1.65c-.24-.92-1.01-1.5-1.97-1.5s-1.65,.58-1.94,1.5h3.91Z"/><path class="cls-1" d="M62.83,92.8h-2.02v-11.38h2.02v11.38Z"/><path class="cls-1" d="M68.95,92.07c-.52,.55-1.32,.89-2.42,.89-1.67,0-3.2-.84-3.2-2.55s1.48-2.23,3.23-2.38c1.32-.12,2.25-.28,2.25-.92,0-.41-.53-.75-1.44-.75-.72,0-1.55,.32-1.73,.99h-2.02c.2-1.5,1.64-2.61,3.7-2.61,3.2,0,3.44,2.07,3.44,2.69v4.1c0,.38,.12,.98,.23,1.28h-1.85c-.09-.2-.15-.44-.2-.73Zm-.06-3.06c-.43,.28-1.09,.41-1.91,.5-.99,.11-1.61,.32-1.61,.9,0,.44,.52,.75,1.33,.75,1.21,0,2.19-.41,2.19-1.42v-.73Z"/><path class="cls-1" d="M76.1,92.97c-.95,0-1.79-.37-2.4-1.01v.84h-1.94v-11.38h2.03v4.25c.6-.58,1.41-.92,2.31-.92,2.06,0,3.75,1.77,3.75,4.11s-1.68,4.1-3.75,4.1Zm-.29-6.35c-1.12,0-2.02,1.01-2.02,2.26s.9,2.22,2.02,2.22,2.02-.96,2.02-2.22-.9-2.26-2.02-2.26Z"/><path class="cls-1" d="M83.5,92.99c-2,0-3.49-1.06-3.73-2.75h2.05c.27,.67,1.09,.92,1.68,.92,.81,0,1.42-.24,1.42-.7s-.27-.63-1.65-.84c-1.41-.21-3.29-.6-3.29-2.35,0-1.24,1.09-2.52,3.36-2.52,1.8,0,3.15,.98,3.41,2.46h-2.1c-.12-.37-.57-.66-1.31-.66-.93,0-1.32,.34-1.32,.63,0,.41,.58,.55,1.56,.7,1.96,.32,3.36,.75,3.36,2.46,0,1.56-1.44,2.66-3.45,2.66Z"/></g></g></g></svg>