<svg height="63" viewBox="0 0 95 63" width="95" xmlns="http://www.w3.org/2000/svg"><g fill="#1a1a1a"><path d="m0 9.7h5.81v20.36h-5.81z"/><path d="m0 2.9h5.81v5.47h-5.81z"/><path d="m17.48 9.21a6.79 6.79 0 0 0 -4.66 1.79v-1.3h-5.58v20.36h5.81v-11.83a3.33 3.33 0 0 1 3.4-3.48c2.83 0 3.25 2.18 3.25 3.48v11.83h5.81v-11.83c0-5.4-3.23-9.02-8.03-9.02z"/><path d="m35.73 17c-2.29-.36-3.54-.68-3.54-1.35 0-.45.78-1.16 2.87-1.16 1.51 0 2.61.52 2.89 1.36l.09.27h6l-.08-.47c-.69-3.91-4.17-6.44-8.87-6.44-6 0-8.75 3.45-8.75 6.66 0 5 5.53 5.8 8.5 6.25 3.59.56 3.77 1 3.77 1.7s-1.26 1.35-3.14 1.35c-1.48 0-3.23-.63-3.81-2l-.1-.24h-5.85l.07.45c.63 4.36 4.42 7.18 9.66 7.18s9-2.88 9-7c-.01-4.74-4.12-5.81-8.71-6.56z"/><path d="m44.75 9.7h5.81v20.36h-5.81z"/><path d="m44.75 2.9h5.81v5.47h-5.81z"/><path d="m66.33 1v10.09a8.68 8.68 0 0 0 -5.33-1.81c-5.44 0-9.71 4.67-9.71 10.62s4.22 10.58 9.71 10.58a8.59 8.59 0 0 0 5.61-2v1.57h5.58v-29.05zm0 18.94a4.89 4.89 0 0 1 -4.62 5.11 4.83 4.83 0 0 1 -4.62-5.11c0-2.93 2-5.23 4.62-5.23s4.62 2.35 4.62 5.23z"/><path d="m90.38 12.41a10 10 0 0 0 -7.53-3.2 10.57 10.57 0 0 0 -10.43 10.69 10.54 10.54 0 0 0 10.43 10.62c4.84 0 8.62-2.67 9.85-7l.14-.5h-6.12l-.11.21a4.19 4.19 0 0 1 -3.8 2.07 4.52 4.52 0 0 1 -4.35-3.08h14.6v-.36c.39-3.86-.55-7.11-2.68-9.45zm-11.82 4.93a4.56 4.56 0 0 1 4.25-2.93 4.48 4.48 0 0 1 4.36 2.93z"/><path d="m0 32h5.81v29.06h-5.81z"/><path d="m26.3 60.54a11.53 11.53 0 0 1 -.54-3.06v-10.19c0-1.66-.65-7.08-9-7.08-5.19 0-9 2.75-9.59 6.84l-.06.45h5.77l.08-.29c.41-1.5 2.32-2.18 3.91-2.18 2.09 0 3.18.74 3.18 1.46 0 1.18-1.84 1.57-5.23 1.89-3.9.34-8.38 1.37-8.38 6.32 0 4.66 4.19 6.74 8.34 6.74a8.59 8.59 0 0 0 5.75-1.81 5.83 5.83 0 0 0 .39 1.2l.11.23h5.41zm-6-8.63v1.16c0 2.83-3.52 3.13-5 3.13-1.71 0-2.91-.6-2.91-1.46 0-1 1.06-1.57 3.64-1.85a14 14 0 0 0 4.26-.98z"/><path d="m38.44 40.28a8.63 8.63 0 0 0 -5.34 1.81v-10.09h-5.84v29.06h5.62v-1.56a8.59 8.59 0 0 0 5.56 2c5.45 0 9.71-4.64 9.71-10.58s-4.26-10.64-9.71-10.64zm3.9 10.66a4.83 4.83 0 0 1 -4.62 5.11 4.89 4.89 0 0 1 -4.62-5.11c0-2.88 2.08-5.23 4.62-5.23s4.62 2.29 4.62 5.23z"/><path d="m57.74 48c-2.29-.36-3.54-.68-3.54-1.35 0-.45.78-1.16 2.88-1.16 1.5 0 2.61.52 2.89 1.36l.09.27h6l-.08-.47c-.69-3.91-4.17-6.44-8.86-6.44-6 0-8.76 3.45-8.76 6.66 0 5 5.53 5.8 8.5 6.25 3.59.56 3.77 1 3.77 1.7s-1.26 1.35-3.14 1.35c-1.48 0-3.23-.63-3.81-2l-.1-.24h-5.86l.07.45c.63 4.36 4.42 7.18 9.66 7.18s9-2.88 9-7c-.01-4.74-4.12-5.81-8.71-6.56z"/></g></svg>