<svg viewBox="0 0 1000 1000" xmlns="http://www.w3.org/2000/svg"><g fill="none" stroke="#3c3c3b" stroke-miterlimit="10" stroke-width=".36"><path d="m53.19 503.68h459.25"/><path d="m99.59 539.97 412.85-36.3"/><path d="m67.03 596.67 445.41-92.99"/><path d="m512.44 503.68 475.83-84.24"/><path d="m26.88 694.13 485.61-190.45"/><path d="m512.44 503.7 194.67-409.46"/><path d="m140.64 738.71 371.8-235.03"/><path d="m512.44 503.68 449.1-349.19"/><path d="m98.56 873.2 413.88-369.52"/><path d="m107.51 934.92 404.93-431.24"/><path d="m219.78 939.81 292.63-436.11"/><path d="m512.44 503.68-142.95 430.05"/><path d="m512.44 503.68-6.61 131.31"/><path d="m465.7 47.12 46.74 456.56"/><path d="m512.44 503.68 227.24 465.12"/><path d="m512.44 503.68 312.98 407.17"/><path d="m512.44 503.68 331.43 243.06"/><path d="m512.44 503.68 184.43 115.1"/><path d="m914.54 553.31-402.1-49.63"/><path d="m512.44 503.68 149.87 72.62"/><path d="m512.44 503.68 169.25 55.2"/><path d="m738.7 444.76-226.26 58.92"/><path d="m876.71 322.78-364.24 180.9"/><path d="m686.05 368.75-173.61 134.9"/><path d="m912.41 66.13-399.97 437.54"/><path d="m512.44 503.68-170.24 129.87"/><path d="m639.1 319.91-126.66 183.74"/><path d="m605.78 307.33-93.34 196.34"/><path d="m584.73 270.99-72.29 232.68"/><path d="m547.62 221.18-35.18 282.49"/><path d="m512.44 503.68-204.62-238.45"/><path d="m512.43 503.64-175.79-371.44"/><path d="m512.42 503.68-167.74-397.49"/><path d="m512.8 503.87 16.08-299.83"/><path d="m512.44 503.59-53.51-261.2"/><path d="m512.44 503.59-86.03-314.79"/><path d="m512.43 503.64-64.41-203.34"/><path d="m576.85 707.01-64.41-203.34"/><path d="m512.44 503.66-205.91-55.66"/><path d="m512.44 503.68-214.07-19.37"/><path d="m726.95 490.14-214.51 13.54"/><path d="m512.44 503.68-276.77-50.82"/><path d="m548.58 783.03-36.14-279.35"/><path d="m512.44 503.68-244.69-105.91"/><path d="m512.44 503.67-352.26-180.97"/><path d="m512.44 503.67-228.97-139.79"/><path d="m512.44 503.68-258.08 73.22"/><path d="m512.44 503.68 226 215.79"/><path d="m950.04 602.01-437.6-98.33"/><path d="m512.44 503.67-103.37 483.98"/><path d="m512.44 503.68-188.53-151.76"/><path d="m512.44 503.68-369.4-369.4"/><path d="m512.44 503.67-102.96-155.02"/></g><path d="m61.19 494.25c.29 0 .6.02.93.05 2.01.2 4.32 2.06 4.61 5.63v1.19c-.27 3.41-2.81 7.63-10.24 12.91-7.43-5.28-9.98-9.49-10.23-12.91v-1.19c.28-3.56 2.6-5.43 4.6-5.63.33-.03.64-.05.92-.05 2.33 0 3.43 1.01 4.71 2.55 1.27-1.54 2.39-2.55 4.7-2.55" fill="#404041"/><path d="m72.7 588.31c.29 0 .6.02.93.05 2.01.2 4.32 2.06 4.61 5.63v1.19c-.27 3.41-2.81 7.63-10.24 12.91-7.43-5.28-9.98-9.49-10.23-12.91v-1.19c.28-3.56 2.6-5.43 4.6-5.63.33-.03.64-.05.92-.05 2.33 0 3.43 1.01 4.71 2.55 1.27-1.54 2.39-2.55 4.7-2.55" fill="#404041"/><path d="m142.91 732.82c.17 0 .35 0 .54.03 1.17.12 2.52 1.2 2.69 3.28v.69c-.16 1.99-1.64 4.45-5.97 7.53-4.33-3.08-5.82-5.54-5.97-7.53v-.69c.16-2.08 1.52-3.17 2.68-3.28.19-.02.37-.03.54-.03 1.36 0 2 .59 2.75 1.49.74-.9 1.39-1.49 2.74-1.49" fill="#404041"/><path d="m241.11 789.86c.21 0 .44.01.68.03 1.47.15 3.15 1.5 3.36 4.1v.87c-.19 2.49-2.05 5.56-7.47 9.41-5.42-3.85-7.27-6.92-7.46-9.41v-.87c.2-2.6 1.9-3.96 3.36-4.1.24-.02.46-.03.67-.03 1.7 0 2.5.74 3.43 1.86.93-1.12 1.74-1.86 3.43-1.86" fill="#e42221"/><path d="m99.28 534.56c.21 0 .44.01.68.03 1.47.15 3.15 1.5 3.36 4.1v.87c-.19 2.49-2.05 5.56-7.47 9.41-5.42-3.85-7.27-6.92-7.46-9.41v-.87c.2-2.6 1.9-3.96 3.36-4.1.24-.02.46-.03.67-.03 1.7 0 2.5.74 3.43 1.86.93-1.12 1.74-1.86 3.43-1.86" fill="#b2b2b2"/><path d="m285.9 356.89c.21 0 .44.01.68.03 1.47.15 3.15 1.5 3.36 4.1v.87c-.19 2.49-2.05 5.56-7.47 9.41-5.42-3.85-7.27-6.92-7.46-9.41v-.87c.2-2.6 1.9-3.96 3.36-4.1.24-.02.46-.03.67-.03 1.7 0 2.5.74 3.43 1.86.93-1.12 1.74-1.86 3.43-1.86" fill="#404041"/><path d="m317.19 258.76c.29 0 .61.02.94.05 2.03.2 4.37 2.08 4.66 5.69v1.2c-.27 3.45-2.84 7.71-10.35 13.05-7.51-5.34-10.08-9.6-10.34-13.05v-1.2c.28-3.6 2.63-5.48 4.65-5.69.33-.03.64-.05.93-.05 2.35 0 3.47 1.02 4.76 2.58 1.29-1.55 2.41-2.58 4.75-2.58" fill="#404041"/><path d="m454.55 293.1c.29 0 .61.02.94.05 2.03.2 4.37 2.08 4.66 5.69v1.2c-.27 3.45-2.84 7.71-10.35 13.05-7.51-5.34-10.08-9.6-10.34-13.05v-1.2c.28-3.6 2.63-5.48 4.65-5.69.33-.03.64-.05.93-.05 2.35 0 3.47 1.02 4.76 2.58 1.29-1.55 2.41-2.58 4.75-2.58" fill="#404041"/><path d="m589.09 264.58c.21 0 .44.01.68.03 1.47.15 3.15 1.5 3.36 4.1v.87c-.19 2.49-2.05 5.56-7.47 9.42-5.42-3.85-7.28-6.93-7.46-9.42v-.87c.2-2.6 1.9-3.96 3.36-4.1.24-.02.46-.03.67-.03 1.7 0 2.5.74 3.43 1.86.93-1.12 1.74-1.86 3.43-1.86" fill="#e42221"/><path d="m533.33 197.5c.27 0 .56.02.87.04 1.88.19 4.05 1.93 4.32 5.28v1.11c-.25 3.2-2.63 7.15-9.6 12.1-6.96-4.95-9.35-8.9-9.59-12.1v-1.11c.26-3.34 2.44-5.09 4.32-5.28.31-.03.6-.04.87-.04 2.18 0 3.22.95 4.41 2.39 1.2-1.44 2.24-2.39 4.41-2.39" fill="#b2b2b2"/><path d="m475.63 28.71c.58 0 1.2.03 1.86.09 4.03.4 8.66 4.13 9.24 11.27v2.38c-.53 6.84-5.63 15.28-20.51 25.86-14.88-10.59-19.98-19.02-20.5-25.86v-2.38c.56-7.14 5.21-10.87 9.22-11.27.66-.06 1.28-.09 1.85-.09 4.66 0 6.88 2.03 9.43 5.11 2.55-3.08 4.78-5.11 9.42-5.11" fill="#e42221"/><path d="m414.72 972.92c.33 0 .68.02 1.05.05 2.28.23 4.91 2.34 5.24 6.39v1.35c-.3 3.88-3.19 8.66-11.63 14.67-8.44-6-11.33-10.79-11.63-14.67v-1.35c.32-4.05 2.95-6.16 5.23-6.39.38-.03.72-.05 1.05-.05 2.64 0 3.9 1.15 5.35 2.9 1.45-1.75 2.71-2.9 5.34-2.9" fill="#e42221"/><path d="m551.66 774.93c.21 0 .44.01.68.03 1.47.15 3.15 1.5 3.36 4.1v.87c-.19 2.49-2.05 5.56-7.47 9.41-5.42-3.85-7.27-6.92-7.46-9.41v-.87c.2-2.6 1.9-3.96 3.36-4.1.24-.02.46-.03.67-.03 1.7 0 2.5.74 3.43 1.86.93-1.12 1.74-1.86 3.43-1.86" fill="#404041"/><path d="m581.52 701.78c.21 0 .44.01.68.03 1.47.15 3.15 1.5 3.36 4.1v.87c-.19 2.49-2.05 5.56-7.47 9.41-5.42-3.85-7.27-6.92-7.46-9.41v-.87c.2-2.6 1.9-3.96 3.36-4.1.24-.02.46-.03.67-.03 1.7 0 2.5.74 3.43 1.86.93-1.12 1.74-1.86 3.43-1.86" fill="#404041"/><path d="m739.78 710.73c.21 0 .44.01.68.03 1.47.15 3.15 1.5 3.36 4.1v.87c-.19 2.49-2.05 5.56-7.47 9.41-5.42-3.85-7.27-6.92-7.46-9.41v-.87c.2-2.6 1.9-3.96 3.36-4.1.24-.02.46-.03.67-.03 1.7 0 2.5.74 3.43 1.86.93-1.12 1.74-1.86 3.43-1.86" fill="#e42221"/><path d="m687.3 557.57c.11 0 .22 0 .34.02.73.07 1.58.75 1.68 2.05v.43c-.1 1.24-1.02 2.78-3.73 4.7-2.71-1.93-3.64-3.46-3.73-4.7v-.43c.1-1.3.95-1.98 1.68-2.05.12-.01.23-.02.34-.02.85 0 1.25.37 1.72.93.46-.56.87-.93 1.71-.93" fill="#e42221"/><path d="m917.22 550.11c.11 0 .22 0 .34.02.73.07 1.58.75 1.68 2.05v.43c-.1 1.24-1.02 2.78-3.73 4.7-2.71-1.93-3.64-3.46-3.73-4.7v-.43c.1-1.3.95-1.98 1.68-2.05.12-.01.23-.02.34-.02.85 0 1.25.37 1.72.93.46-.56.87-.93 1.71-.93" fill="#404041"/><path d="m738.06 441.12c.11 0 .22 0 .34.02.73.07 1.58.75 1.68 2.05v.43c-.1 1.24-1.02 2.78-3.73 4.7-2.71-1.93-3.64-3.46-3.73-4.7v-.43c.1-1.3.95-1.98 1.68-2.05.12-.01.23-.02.34-.02.85 0 1.25.37 1.72.93.46-.56.87-.93 1.71-.93" fill="#404041"/><path d="m641.24 315.09c.21 0 .44.01.68.03 1.47.15 3.15 1.5 3.36 4.1v.87c-.19 2.49-2.05 5.56-7.47 9.41-5.42-3.85-7.27-6.92-7.46-9.41v-.87c.2-2.6 1.9-3.96 3.36-4.1.24-.02.46-.03.67-.03 1.7 0 2.5.74 3.43 1.86.93-1.12 1.74-1.86 3.43-1.86" fill="#404041"/><path d="m831.82 903.33c.32 0 .66.02 1.01.05 2.2.22 4.73 2.26 5.04 6.15v1.3c-.29 3.74-3.07 8.34-11.2 14.12-8.13-5.78-10.91-10.39-11.19-14.12v-1.3c.31-3.9 2.84-5.94 5.03-6.15.36-.03.7-.05 1.01-.05 2.54 0 3.76 1.11 5.15 2.79 1.39-1.68 2.61-2.79 5.14-2.79" fill="#404041"/><path d="m509.85 630.11c.21 0 .44.01.68.03 1.47.15 3.15 1.5 3.36 4.1v.87c-.19 2.49-2.05 5.56-7.47 9.41-5.42-3.85-7.27-6.92-7.46-9.41v-.87c.2-2.6 1.9-3.96 3.36-4.1.24-.02.46-.03.67-.03 1.7 0 2.5.74 3.43 1.86.93-1.12 1.74-1.86 3.43-1.86" fill="#404041"/><path d="m29.44 689.52c.17 0 .35 0 .54.03 1.17.12 2.52 1.2 2.69 3.28v.69c-.16 1.99-1.64 4.45-5.97 7.53-4.33-3.08-5.82-5.54-5.97-7.53v-.69c.16-2.08 1.52-3.17 2.68-3.28.19-.02.37-.03.54-.03 1.36 0 2 .59 2.75 1.49.74-.9 1.39-1.49 2.74-1.49" fill="#b2b2b2"/><path d="m104.17 864.51c.29 0 .6.02.93.05 2.01.2 4.32 2.06 4.61 5.63v1.19c-.27 3.41-2.81 7.63-10.24 12.91-7.43-5.28-9.98-9.49-10.23-12.91v-1.19c.28-3.56 2.6-5.43 4.6-5.63.33-.03.64-.05.92-.05 2.33 0 3.43 1.01 4.71 2.55 1.27-1.54 2.39-2.55 4.7-2.55" fill="#404041"/><path d="m227.59 922.44c.49 0 1.02.03 1.57.08 3.41.34 7.34 3.5 7.83 9.55v2.01c-.45 5.8-4.77 12.95-17.39 21.92-12.61-8.97-16.94-16.12-17.37-21.92v-2.01c.48-6.05 4.41-9.21 7.81-9.55.56-.05 1.08-.08 1.57-.08 3.95 0 5.83 1.72 7.99 4.33 2.16-2.61 4.05-4.33 7.98-4.33" fill="#b2b2b2"/><path d="m746.78 951.11c.49 0 1.02.03 1.57.08 3.41.34 7.34 3.5 7.83 9.55v2.01c-.45 5.8-4.77 12.95-17.39 21.92-12.61-8.97-16.94-16.12-17.37-21.92v-2.01c.48-6.05 4.41-9.21 7.81-9.55.56-.05 1.08-.08 1.57-.08 3.95 0 5.83 1.72 7.99 4.33 2.16-2.61 4.05-4.33 7.98-4.33" fill="#e42221"/><path d="m255.7 573.74c.13 0 .27 0 .42.02.91.09 1.96.93 2.09 2.55v.54c-.12 1.55-1.27 3.46-4.64 5.85-3.37-2.39-4.52-4.3-4.64-5.85v-.54c.13-1.62 1.18-2.46 2.09-2.55.15-.01.29-.02.42-.02 1.05 0 1.56.46 2.13 1.16.58-.7 1.08-1.16 2.13-1.16" fill="#e42221"/><path d="m699.05 611.06c.22 0 .45.01.7.03 1.52.15 3.27 1.56 3.48 4.25v.9c-.2 2.58-2.12 5.76-7.73 9.75-5.61-3.99-7.53-7.17-7.73-9.75v-.9c.21-2.69 1.96-4.1 3.48-4.25.25-.02.48-.03.7-.03 1.76 0 2.59.77 3.55 1.93.96-1.16 1.8-1.93 3.55-1.93" fill="#b2b2b2"/><path d="m877.66 321.15c.12 0 .25 0 .39.02.85.08 1.83.87 1.95 2.38v.5c-.11 1.44-1.19 3.22-4.33 5.45-3.14-2.23-4.22-4.01-4.32-5.45v-.5c.12-1.51 1.1-2.29 1.94-2.38.14-.01.27-.02.39-.02.98 0 1.45.43 1.99 1.08.54-.65 1.01-1.08 1.99-1.08" fill="#e42221"/><path d="m111.25 931.85c.15 0 .32 0 .49.02 1.07.11 2.3 1.1 2.45 2.99v.63c-.14 1.81-1.49 4.05-5.44 6.86-3.94-2.81-5.3-5.04-5.43-6.86v-.63c.15-1.89 1.38-2.88 2.44-2.99.18-.02.34-.02.49-.02 1.24 0 1.82.54 2.5 1.35.68-.82 1.27-1.35 2.5-1.35" fill="#404041"/><path d="m371.41 930.06c.15 0 .32 0 .49.02 1.07.11 2.3 1.1 2.45 2.99v.63c-.14 1.81-1.49 4.05-5.44 6.86-3.94-2.81-5.3-5.04-5.43-6.86v-.63c.15-1.89 1.38-2.88 2.44-2.99.18-.02.34-.02.49-.02 1.24 0 1.82.54 2.5 1.35.68-.82 1.27-1.35 2.5-1.35" fill="#404041"/><path d="m469.57 713.88c.15 0 .32 0 .49.02 1.07.11 2.3 1.1 2.45 2.99v.63c-.14 1.81-1.49 4.05-5.44 6.86-3.94-2.81-5.3-5.04-5.43-6.86v-.63c.15-1.89 1.38-2.88 2.44-2.99.18-.02.34-.02.49-.02 1.24 0 1.82.54 2.5 1.35.68-.82 1.27-1.35 2.5-1.35" fill="#b2b2b2"/><path d="m654.7 681.03c.15 0 .32 0 .49.02 1.07.11 2.3 1.1 2.45 2.99v.63c-.14 1.81-1.49 4.05-5.44 6.86-3.94-2.81-5.3-5.04-5.43-6.86v-.63c.15-1.89 1.38-2.88 2.44-2.99.18-.02.34-.02.49-.02 1.24 0 1.82.54 2.5 1.35.68-.82 1.27-1.35 2.5-1.35" fill="#404041"/><path d="m850.97 732.87c.47 0 .98.03 1.51.08 3.28.33 7.05 3.36 7.52 9.17v1.93c-.43 5.57-4.58 12.43-16.69 21.05-12.11-8.61-16.26-15.48-16.68-21.05v-1.93c.46-5.81 4.24-8.85 7.5-9.17.54-.05 1.04-.08 1.51-.08 3.79 0 5.6 1.65 7.67 4.16 2.08-2.51 3.89-4.16 7.67-4.16" fill="#404041"/><path d="m665.3 574.87c.07 0 .15 0 .23.01.49.05 1.06.5 1.13 1.38v.29c-.07.84-.69 1.87-2.51 3.16-1.82-1.29-2.44-2.32-2.5-3.16v-.29c.07-.87.64-1.33 1.13-1.38.08 0 .16-.01.23-.01.57 0 .84.25 1.15.62.31-.38.58-.62 1.15-.62" fill="#404041"/><path d="m730.84 485.45c.15 0 .32 0 .49.02 1.07.11 2.3 1.1 2.45 2.99v.63c-.14 1.81-1.49 4.05-5.44 6.86-3.94-2.81-5.3-5.04-5.43-6.86v-.63c.15-1.89 1.38-2.88 2.44-2.99.18-.02.34-.02.49-.02 1.24 0 1.82.54 2.5 1.35.68-.82 1.27-1.35 2.5-1.35" fill="#b2b2b2"/><path d="m466.58 310.76c.15 0 .32 0 .49.02 1.07.11 2.3 1.1 2.45 2.99v.63c-.14 1.81-1.49 4.05-5.44 6.86-3.94-2.81-5.3-5.04-5.43-6.86v-.63c.15-1.89 1.38-2.88 2.44-2.99.18-.02.34-.02.49-.02 1.24 0 1.82.54 2.5 1.35.68-.82 1.27-1.35 2.5-1.35" fill="#b2b2b2"/><path d="m617.37 470.52c.15 0 .32 0 .49.02 1.07.11 2.3 1.1 2.45 2.99v.63c-.14 1.81-1.49 4.05-5.44 6.86-3.94-2.81-5.3-5.04-5.43-6.86v-.63c.15-1.89 1.38-2.88 2.44-2.99.18-.02.34-.02.49-.02 1.24 0 1.82.54 2.5 1.35.68-.82 1.27-1.35 2.5-1.35" fill="#b2b2b2"/><path d="m964.48 146.33c.29 0 .6.02.93.05 2.02.2 4.34 2.07 4.63 5.65v1.19c-.27 3.43-2.82 7.66-10.28 12.97-7.46-5.31-10.02-9.54-10.28-12.97v-1.19c.28-3.58 2.61-5.45 4.62-5.65.33-.03.64-.05.93-.05 2.34 0 3.45 1.02 4.73 2.56 1.28-1.54 2.4-2.56 4.72-2.56" fill="#b2b2b2"/><path d="m344.15 628.77c.15 0 .32 0 .49.02 1.07.11 2.3 1.1 2.45 2.99v.63c-.14 1.81-1.49 4.05-5.44 6.86-3.94-2.81-5.3-5.04-5.43-6.86v-.63c.15-1.89 1.38-2.88 2.44-2.99.18-.02.34-.02.49-.02 1.24 0 1.82.54 2.5 1.35.68-.82 1.27-1.35 2.5-1.35" fill="#b2b2b2"/><path d="m380.13 501.71c.07 0 .15 0 .23.01.49.05 1.06.5 1.13 1.38v.29c-.07.84-.69 1.87-2.51 3.16-1.82-1.29-2.44-2.32-2.5-3.16v-.29c.07-.87.64-1.33 1.13-1.38.08 0 .16-.01.23-.01.57 0 .84.25 1.15.62.31-.38.58-.62 1.15-.62" fill="#b2b2b2"/><g fill="#404041"><path d="m237.87 449.61c.09 0 .19 0 .29.01.63.06 1.35.64 1.44 1.76v.37c-.08 1.07-.88 2.38-3.2 4.03-2.32-1.65-3.12-2.97-3.2-4.03v-.37c.09-1.11.81-1.69 1.44-1.76.1 0 .2-.01.29-.01.73 0 1.07.32 1.47.8.4-.48.75-.8 1.47-.8"/><path d="m269.22 394.37c.09 0 .19 0 .29.01.63.06 1.35.64 1.44 1.76v.37c-.08 1.07-.88 2.38-3.2 4.03-2.32-1.65-3.12-2.97-3.2-4.03v-.37c.09-1.11.81-1.69 1.44-1.76.1 0 .2-.01.29-.01.73 0 1.07.32 1.47.8.4-.48.75-.8 1.47-.8"/><path d="m147.58 123.67c.32 0 .67.02 1.03.05 2.24.22 4.82 2.3 5.14 6.28v1.32c-.3 3.81-3.13 8.51-11.42 14.4-8.29-5.89-11.13-10.59-11.41-14.4v-1.32c.31-3.98 2.9-6.05 5.13-6.28.37-.03.71-.05 1.03-.05 2.59 0 3.83 1.13 5.25 2.85 1.42-1.71 2.66-2.85 5.24-2.85"/><path d="m428.97 186.84c.09 0 .19 0 .29.01.63.06 1.35.64 1.44 1.76v.37c-.08 1.07-.88 2.38-3.2 4.03-2.32-1.65-3.12-2.97-3.2-4.03v-.37c.09-1.11.81-1.69 1.44-1.76.1 0 .2-.01.29-.01.73 0 1.07.32 1.47.8.4-.48.75-.8 1.47-.8"/><path d="m460.33 239.1c.09 0 .19 0 .29.01.63.06 1.35.64 1.44 1.76v.37c-.08 1.07-.88 2.38-3.2 4.03-2.32-1.65-3.12-2.97-3.2-4.03v-.37c.09-1.11.81-1.69 1.44-1.76.1 0 .2-.01.29-.01.73 0 1.07.32 1.47.8.4-.48.75-.8 1.47-.8"/><path d="m548.41 219.69c.09 0 .19 0 .29.01.63.06 1.35.64 1.44 1.76v.37c-.08 1.07-.88 2.38-3.2 4.03-2.32-1.65-3.12-2.97-3.2-4.03v-.37c.09-1.11.81-1.69 1.44-1.76.1 0 .2-.01.29-.01.73 0 1.07.32 1.47.8.4-.48.75-.8 1.47-.8"/><path d="m411.06 346.6c.09 0 .19 0 .29.01.63.06 1.35.64 1.44 1.76v.37c-.08 1.07-.88 2.38-3.2 4.03-2.32-1.65-3.12-2.97-3.2-4.03v-.37c.09-1.11.81-1.69 1.44-1.76.1 0 .2-.01.29-.01.73 0 1.07.32 1.47.8.4-.48.75-.8 1.47-.8"/><path d="m955.37 595.47c.23 0 .49.01.75.04 1.63.16 3.51 1.68 3.75 4.57v.96c-.22 2.77-2.28 6.19-8.32 10.49-6.03-4.29-8.1-7.71-8.31-10.49v-.96c.23-2.9 2.11-4.41 3.74-4.57.27-.02.52-.04.75-.04 1.89 0 2.79.82 3.82 2.07 1.04-1.25 1.94-2.07 3.82-2.07"/><path d="m987.87 416.85c.09 0 .19 0 .29.01.63.06 1.35.64 1.44 1.76v.37c-.08 1.07-.88 2.38-3.2 4.03-2.32-1.65-3.12-2.97-3.2-4.03v-.37c.09-1.11.81-1.69 1.44-1.76.1 0 .2-.01.29-.01.73 0 1.07.32 1.47.8.4-.48.75-.8 1.47-.8"/><path d="m915.19 60.02c.19 0 .4.01.62.03 1.34.13 2.89 1.38 3.08 3.75v.79c-.18 2.28-1.87 5.09-6.83 8.61-4.96-3.53-6.66-6.34-6.83-8.61v-.79c.19-2.38 1.73-3.62 3.07-3.75.22-.02.42-.03.62-.03 1.55 0 2.29.68 3.14 1.7.85-1.03 1.59-1.7 3.14-1.7"/><path d="m710.88 87.08c.26 0 .53.01.82.04 1.79.18 3.85 1.83 4.1 5v1.06c-.24 3.04-2.5 6.78-9.11 11.48-6.61-4.7-8.87-8.44-9.1-11.48v-1.06c.25-3.17 2.31-4.83 4.09-5 .29-.03.57-.04.82-.04 2.07 0 3.05.9 4.19 2.27 1.13-1.37 2.12-2.27 4.18-2.27"/><path d="m309.35 442.15c.18 0 .37.01.57.03 1.23.12 2.66 1.27 2.83 3.46v.73c-.16 2.1-1.73 4.69-6.29 7.93-4.56-3.25-6.13-5.83-6.29-7.93v-.73c.17-2.19 1.6-3.33 2.83-3.46.2-.02.39-.03.57-.03 1.43 0 2.11.62 2.89 1.57.78-.94 1.47-1.57 2.89-1.57"/></g><path d="m302.36 479.68c.15 0 .32 0 .49.02 1.06.11 2.29 1.09 2.44 2.97v.63c-.14 1.81-1.49 4.03-5.41 6.82-3.93-2.79-5.27-5.02-5.41-6.82v-.63c.15-1.88 1.37-2.87 2.43-2.97.17-.02.34-.02.49-.02 1.23 0 1.81.54 2.49 1.35.67-.81 1.26-1.35 2.49-1.35" fill="#b2b2b2"/><path d="m324.76 345.31c.15 0 .32 0 .49.02 1.06.11 2.29 1.09 2.44 2.97v.63c-.14 1.81-1.49 4.03-5.41 6.82-3.93-2.79-5.27-5.02-5.41-6.82v-.63c.15-1.88 1.37-2.87 2.43-2.97.17-.02.34-.02.49-.02 1.23 0 1.81.54 2.49 1.35.67-.81 1.26-1.35 2.49-1.35" fill="#b2b2b2"/><path d="m339.04 127.99c.15 0 .32 0 .49.02 1.06.11 2.29 1.09 2.44 2.97v.63c-.14 1.81-1.49 4.03-5.41 6.82-3.93-2.79-5.27-5.02-5.41-6.82v-.63c.15-1.88 1.37-2.87 2.43-2.97.17-.02.34-.02.49-.02 1.23 0 1.81.54 2.49 1.35.67-.81 1.26-1.35 2.49-1.35" fill="#b2b2b2"/><path d="m348.66 101.12c.2 0 .41.01.63.03 1.37.14 2.94 1.4 3.13 3.82v.81c-.18 2.32-1.91 5.18-6.96 8.77-5.05-3.59-6.78-6.45-6.96-8.77v-.81c.19-2.42 1.77-3.69 3.13-3.82.22-.02.43-.03.63-.03 1.58 0 2.33.69 3.2 1.73.87-1.04 1.62-1.73 3.2-1.73" fill="#e42221"/><path d="m425.1 460.06c.13 0 .28 0 .43.02.93.09 2 .96 2.14 2.61v.55c-.12 1.58-1.3 3.53-4.75 5.98-3.44-2.45-4.62-4.4-4.74-5.98v-.55c.13-1.65 1.2-2.51 2.13-2.61.15-.01.3-.02.43-.02 1.08 0 1.59.47 2.18 1.18.59-.71 1.11-1.18 2.18-1.18" fill="#404041"/><path d="m163.04 318.23c.18 0 .37.01.57.03 1.23.12 2.66 1.27 2.83 3.46v.73c-.16 2.1-1.73 4.69-6.29 7.93-4.56-3.25-6.13-5.83-6.29-7.93v-.73c.17-2.19 1.6-3.33 2.83-3.46.2-.02.39-.03.57-.03 1.43 0 2.11.62 2.89 1.57.78-.94 1.47-1.57 2.89-1.57" fill="#404041"/></svg>