<svg viewBox="0 0 1000 1000" xmlns="http://www.w3.org/2000/svg"><g opacity=".5"><g fill="none" stroke="#3c3c3b" stroke-miterlimit="10" stroke-width=".24"><path d="m9.22 500.08h495.81"/><path d="m228.5 524.39 276.53-24.32"/><path d="m151.77 562.36 353.26-62.28"/><path d="m505.03 500.08 388.36-68.48"/><path d="m33.12 671.85 471.94-171.77"/><path d="m505.03 500.09 130.38-274.25"/><path d="m109.31 701.7 395.72-201.62"/><path d="m505.03 500.08 300.8-233.89"/><path d="m227.81 747.58 277.22-247.5"/><path d="m233.81 788.92 271.22-288.84"/><path d="m254.75 907.4 250.26-407.31"/><path d="m505.03 500.08-150 403.25"/><path d="m505.03 500.08-4.43 87.95"/><path d="m473.72 194.27 31.31 305.81"/><path d="m505.03 500.08 152.2 311.53"/><path d="m505.03 500.08 209.63 272.71"/><path d="m505.03 500.08 221.99 162.8"/><path d="m505.03 500.08 123.53 77.09"/><path d="m774.35 533.32-269.32-33.24"/><path d="m505.03 500.08 100.38 48.63"/><path d="m505.03 500.08 113.36 36.97"/><path d="m656.57 460.61-151.54 39.47"/><path d="m749.01 378.91-243.96 121.17"/><path d="m621.31 409.7-116.28 90.35"/><path d="m656.38 335.61-151.35 164.46"/><path d="m505.03 500.08-114.03 86.98"/><path d="m589.87 376.99-84.84 123.06"/><path d="m567.55 368.57-62.52 131.5"/><path d="m553.44 344.22-48.41 155.85"/><path d="m528.59 310.86-23.56 189.21"/><path d="m505.03 500.08-137.06-159.71"/><path d="m505.02 500.05-96.31-201.23"/><path d="m505.02 500.08-90.92-218.68"/><path d="m505.27 500.2 10.77-200.82"/><path d="m505.03 500.01-35.84-174.95"/><path d="m505.03 500.02-57.62-210.85"/><path d="m505.02 500.05-43.14-136.2"/><path d="m548.17 636.26-43.14-136.19"/><path d="m505.03 500.06-137.92-37.28"/><path d="m505.03 500.08-143.38-12.98"/><path d="m648.71 491.01-143.68 9.07"/><path d="m505.03 500.08-185.38-34.04"/><path d="m529.24 687.19-24.21-187.11"/><path d="m505.03 500.08-163.89-70.94"/><path d="m505.03 500.07-235.94-121.21"/><path d="m505.03 500.07-153.37-93.63"/><path d="m505.03 500.08-172.86 49.04"/><path d="m505.03 500.08 151.37 144.53"/><path d="m798.13 565.94-293.1-65.86"/><path d="m505.03 500.07-69.24 324.17"/><path d="m505.03 500.08-126.27-101.65"/><path d="m505.03 500.08-247.43-247.43"/><path d="m505.03 500.07-68.96-103.83"/></g><g fill="#3c3c3b"><circle cx="269.98" cy="380.01" r="4.33"/><circle cx="366.76" cy="462.69" r="4.33"/><circle cx="109.31" cy="701.7" r="4.33"/><circle cx="444.79" cy="473.34" r="4.33"/><circle cx="341.33" cy="429.23" r="2.29"/><circle cx="257.46" cy="252.51" r="2.29"/><circle cx="727.02" cy="662.88" r="2.29"/><circle cx="598.95" cy="622.08" r="2.29"/><circle cx="355.49" cy="902.86" r="2.29"/><circle cx="234.7" cy="788.35" r="2.29"/><circle cx="799.49" cy="566.24" r="2.29"/><circle cx="892.35" cy="431.95" r="2.29"/><circle cx="319.74" cy="466.06" r="2.29"/><circle cx="436.5" cy="396.89" r="2.29"/><circle cx="468.94" cy="325.08" r="2.29"/><circle cx="447.8" cy="289.9" r="2.29"/><circle cx="528.51" cy="311.57" r="2.29"/><circle cx="656.44" cy="335.55" r="2.29"/><circle cx="634.97" cy="226.75" r="2.29"/><circle cx="351.41" cy="406.27" r="5.38"/><circle cx="655.56" cy="461.39" r="5.65"/><circle cx="549.05" cy="637.41" r="5.35"/><circle cx="500.6" cy="588.03" r="5.35"/><circle cx="529.17" cy="686.66" r="5.35"/><circle cx="606.29" cy="549.86" r="3.07"/><circle cx="228.7" cy="748.72" r="6.62"/><circle cx="11.92" cy="500.08" r="6.62"/><circle cx="371.09" cy="341.92" r="6.62"/><circle cx="589.41" cy="378.13" r="5.27"/><circle cx="774.56" cy="533.01" r="5.27"/><circle cx="462.76" cy="365" r="7.29"/><circle cx="715.54" cy="773.94" r="7.32"/><circle cx="152.66" cy="563.51" r="8.2"/></g><circle cx="748.53" cy="379.61" fill="#e42221" r="10.71"/><circle cx="656.44" cy="809.99" fill="#e42221" r="10.71"/><circle cx="553.96" cy="344.01" fill="#e42221" r="7.58"/><ellipse cx="321.45" cy="695.58" fill="#e42221" rx="4.72" ry="4.64"/><ellipse cx="656.44" cy="644.54" fill="#e42221" rx="4.72" ry="4.64"/><ellipse cx="435.79" cy="824.24" fill="#e42221" rx="4.72" ry="4.64"/><ellipse cx="414.1" cy="281.4" fill="#e42221" rx="4.72" ry="4.64"/><ellipse cx="620.94" cy="538.28" fill="#e42221" rx="4.72" ry="4.64"/><circle cx="627.44" cy="577.68" fill="#b2b2b2" r="12.24"/><circle cx="255.17" cy="906.72" fill="#b2b2b2" r="12.24"/><circle cx="473.72" cy="194.27" fill="#b2b2b2" r="6.27"/><circle cx="516.21" cy="300.66" fill="#b2b2b2" r="6.27"/><circle cx="362.49" cy="487.29" fill="#b2b2b2" r="3.89"/><circle cx="226.1" cy="524.6" fill="#b2b2b2" r="3.89"/><circle cx="415.72" cy="501.24" fill="#b2b2b2" r="3.89"/><circle cx="32.78" cy="672.18" fill="#b2b2b2" r="3.89"/><circle cx="391.04" cy="587.03" fill="#b2b2b2" r="3.89"/><circle cx="475.1" cy="644.54" fill="#b2b2b2" r="3.89"/><circle cx="378.06" cy="397.8" fill="#b2b2b2" r="3.89"/><circle cx="408.7" cy="298.8" fill="#b2b2b2" r="3.89"/><circle cx="472.33" cy="374.25" fill="#b2b2b2" r="3.89"/><circle cx="649.54" cy="491.1" fill="#b2b2b2" r="3.89"/><circle cx="573.82" cy="481.42" fill="#b2b2b2" r="3.89"/><circle cx="804.59" cy="267.29" fill="#b2b2b2" r="3.89"/><circle cx="332.17" cy="549.12" fill="#e42221" r="10.71"/></g></svg>