<svg viewBox="0 0 1000 1000" xmlns="http://www.w3.org/2000/svg"><g fill="none" stroke="#3c3c3b" stroke-miterlimit="10" stroke-width=".24"><path d="m9.22 500.08h495.81"/><path d="m228.5 524.39 276.53-24.32"/><path d="m151.77 562.36 353.26-62.28"/><path d="m505.03 500.08 388.36-68.48"/><path d="m33.12 671.85 471.94-171.77"/><path d="m505.03 500.09 130.38-274.25"/><path d="m109.31 701.7 395.72-201.62"/><path d="m505.03 500.08 300.8-233.89"/><path d="m227.81 747.58 277.22-247.5"/><path d="m233.81 788.92 271.22-288.84"/><path d="m254.75 907.4 250.26-407.31"/><path d="m505.03 500.08-150 403.25"/><path d="m505.03 500.08-4.43 87.95"/><path d="m473.72 194.27 31.31 305.81"/><path d="m505.03 500.08 152.2 311.53"/><path d="m505.03 500.08 209.63 272.71"/><path d="m505.03 500.08 221.99 162.8"/><path d="m505.03 500.08 123.53 77.09"/><path d="m774.35 533.32-269.32-33.24"/><path d="m505.03 500.08 100.38 48.63"/><path d="m505.03 500.08 113.36 36.97"/><path d="m656.57 460.61-151.54 39.47"/><path d="m749.01 378.91-243.96 121.17"/><path d="m621.31 409.7-116.28 90.35"/><path d="m656.38 335.61-151.35 164.46"/><path d="m505.03 500.08-114.03 86.98"/><path d="m589.87 376.99-84.84 123.06"/><path d="m567.55 368.57-62.52 131.5"/><path d="m553.44 344.22-48.41 155.85"/><path d="m528.59 310.86-23.56 189.21"/><path d="m505.03 500.08-137.06-159.71"/><path d="m505.02 500.05-96.31-201.23"/><path d="m505.02 500.08-90.92-218.68"/><path d="m505.27 500.2 10.77-200.82"/><path d="m505.03 500.01-35.84-174.95"/><path d="m505.03 500.02-57.62-210.85"/><path d="m505.02 500.05-43.14-136.2"/><path d="m548.17 636.26-43.14-136.19"/><path d="m505.03 500.06-137.92-37.28"/><path d="m505.03 500.08-143.38-12.98"/><path d="m648.71 491.01-143.68 9.07"/><path d="m505.03 500.08-185.38-34.04"/><path d="m529.24 687.19-24.21-187.11"/><path d="m505.03 500.08-163.89-70.94"/><path d="m505.03 500.07-235.94-121.21"/><path d="m505.03 500.07-153.37-93.63"/><path d="m505.03 500.08-172.86 49.04"/><path d="m505.03 500.08 151.37 144.53"/><path d="m798.13 565.94-293.1-65.86"/><path d="m505.03 500.07-69.24 324.17"/><path d="m505.03 500.08-126.27-101.65"/><path d="m505.03 500.08-247.43-247.43"/><path d="m505.03 500.07-68.96-103.83"/></g><path d="m14.57 493.76c.19 0 .4.01.62.03 1.35.13 2.9 1.38 3.09 3.77v.79c-.18 2.29-1.88 5.11-6.86 8.65-4.97-3.54-6.68-6.36-6.85-8.65v-.79c.19-2.39 1.74-3.63 3.08-3.77.22-.02.43-.03.62-.03 1.56 0 2.3.68 3.15 1.71.85-1.03 1.6-1.71 3.15-1.71" fill="#404041"/><path d="m155.57 556.76c.19 0 .4.01.62.03 1.35.13 2.9 1.38 3.09 3.77v.79c-.18 2.29-1.88 5.11-6.86 8.65-4.97-3.54-6.68-6.36-6.85-8.65v-.79c.19-2.39 1.74-3.63 3.08-3.77.22-.02.43-.03.62-.03 1.56 0 2.3.68 3.15 1.71.85-1.03 1.6-1.71 3.15-1.71" fill="#404041"/><path d="m110.84 697.76c.11 0 .23 0 .36.02.79.08 1.69.81 1.8 2.2v.46c-.1 1.33-1.1 2.98-4 5.04-2.9-2.06-3.9-3.71-4-5.04v-.46c.11-1.39 1.02-2.12 1.8-2.2.13-.01.25-.02.36-.02.91 0 1.34.4 1.84 1 .5-.6.93-1 1.84-1" fill="#404041"/><path d="m323.29 691.76c.14 0 .29 0 .45.02.98.1 2.11 1.01 2.25 2.75v.58c-.13 1.67-1.37 3.72-5 6.31-3.63-2.58-4.87-4.64-5-6.31v-.58c.14-1.74 1.27-2.65 2.25-2.75.16-.01.31-.02.45-.02 1.14 0 1.68.5 2.3 1.25.62-.75 1.17-1.25 2.3-1.25" fill="#e42221"/><path d="m228.29 520.76c.14 0 .29 0 .45.02.98.1 2.11 1.01 2.25 2.75v.58c-.13 1.67-1.37 3.72-5 6.31-3.63-2.58-4.87-4.64-5-6.31v-.58c.14-1.74 1.27-2.65 2.25-2.75.16-.01.31-.02.45-.02 1.14 0 1.68.5 2.3 1.25.62-.75 1.17-1.25 2.3-1.25" fill="#b2b2b2"/><path d="m353.29 401.76c.14 0 .29 0 .45.02.98.1 2.11 1.01 2.25 2.75v.58c-.13 1.67-1.37 3.72-5 6.31-3.63-2.58-4.87-4.64-5-6.31v-.58c.14-1.74 1.27-2.65 2.25-2.75.16-.01.31-.02.45-.02 1.14 0 1.68.5 2.3 1.25.62-.75 1.17-1.25 2.3-1.25" fill="#404041"/><path d="m374.25 336.03c.2 0 .41.01.63.03 1.36.14 2.93 1.4 3.12 3.81v.8c-.18 2.31-1.9 5.16-6.93 8.74-5.03-3.58-6.75-6.43-6.93-8.74v-.8c.19-2.41 1.76-3.67 3.12-3.81.22-.02.43-.03.63-.03 1.57 0 2.32.69 3.19 1.73.86-1.04 1.62-1.73 3.18-1.73" fill="#404041"/><path d="m466.25 359.03c.2 0 .41.01.63.03 1.36.14 2.93 1.4 3.12 3.81v.8c-.18 2.31-1.9 5.16-6.93 8.74-5.03-3.58-6.75-6.43-6.93-8.74v-.8c.19-2.41 1.76-3.67 3.12-3.81.22-.02.43-.03.63-.03 1.57 0 2.32.69 3.19 1.73.86-1.04 1.62-1.73 3.18-1.73" fill="#404041"/><path d="m557.71 337.1c.22 0 .46.01.72.04 1.56.16 3.35 1.6 3.57 4.36v.92c-.21 2.64-2.18 5.91-7.93 10-5.75-4.09-7.73-7.35-7.93-10v-.92c.22-2.76 2.01-4.2 3.56-4.36.26-.02.49-.04.72-.04 1.8 0 2.66.79 3.65 1.98.99-1.19 1.85-1.98 3.64-1.98" fill="#e42221"/><path d="m519.02 295c.18 0 .38.01.58.03 1.26.13 2.72 1.3 2.9 3.53v.75c-.17 2.14-1.76 4.79-6.43 8.11-4.66-3.32-6.27-5.96-6.43-8.11v-.75c.18-2.24 1.63-3.41 2.89-3.53.21-.02.4-.03.58-.03 1.46 0 2.16.64 2.96 1.6.8-.97 1.5-1.6 2.95-1.6" fill="#b2b2b2"/><path d="m477.02 189c.18 0 .38.01.58.03 1.26.13 2.72 1.3 2.9 3.53v.75c-.17 2.14-1.76 4.79-6.43 8.11-4.66-3.32-6.27-5.96-6.43-8.11v-.75c.18-2.24 1.63-3.41 2.89-3.53.21-.02.4-.03.58-.03 1.46 0 2.16.64 2.96 1.6.8-.97 1.5-1.6 2.95-1.6" fill="#b2b2b2"/><path d="m438.29 819.76c.14 0 .29 0 .45.02.98.1 2.11 1.01 2.25 2.75v.58c-.13 1.67-1.37 3.72-5 6.31-3.63-2.58-4.87-4.64-5-6.31v-.58c.14-1.74 1.27-2.65 2.25-2.75.16-.01.31-.02.45-.02 1.14 0 1.68.5 2.3 1.25.62-.75 1.17-1.25 2.3-1.25" fill="#e42221"/><path d="m531.29 681.76c.14 0 .29 0 .45.02.98.1 2.11 1.01 2.25 2.75v.58c-.13 1.67-1.37 3.72-5 6.31-3.63-2.58-4.87-4.64-5-6.31v-.58c.14-1.74 1.27-2.65 2.25-2.75.16-.01.31-.02.45-.02 1.14 0 1.68.5 2.3 1.25.62-.75 1.17-1.25 2.3-1.25" fill="#404041"/><path d="m551.29 632.76c.14 0 .29 0 .45.02.98.1 2.11 1.01 2.25 2.75v.58c-.13 1.67-1.37 3.72-5 6.31-3.63-2.58-4.87-4.64-5-6.31v-.58c.14-1.74 1.27-2.65 2.25-2.75.16-.01.31-.02.45-.02 1.14 0 1.68.5 2.3 1.25.62-.75 1.17-1.25 2.3-1.25" fill="#404041"/><path d="m657.29 638.76c.14 0 .29 0 .45.02.98.1 2.11 1.01 2.25 2.75v.58c-.13 1.67-1.37 3.72-5 6.31-3.63-2.58-4.87-4.64-5-6.31v-.58c.14-1.74 1.27-2.65 2.25-2.75.16-.01.31-.02.45-.02 1.14 0 1.68.5 2.3 1.25.62-.75 1.17-1.25 2.3-1.25" fill="#e42221"/><path d="m622.15 536.17c.07 0 .15 0 .23.01.49.05 1.06.5 1.13 1.37v.29c-.07.83-.69 1.86-2.5 3.15-1.81-1.29-2.43-2.32-2.5-3.15v-.29c.07-.87.63-1.32 1.12-1.37.08 0 .16-.01.23-.01.57 0 .84.25 1.15.62.31-.38.58-.62 1.15-.62" fill="#e42221"/><path d="m776.15 531.17c.07 0 .15 0 .23.01.49.05 1.06.5 1.13 1.37v.29c-.07.83-.69 1.86-2.5 3.15-1.81-1.29-2.43-2.32-2.5-3.15v-.29c.07-.87.63-1.32 1.12-1.37.08 0 .16-.01.23-.01.57 0 .84.25 1.15.62.31-.38.58-.62 1.15-.62" fill="#404041"/><path d="m656.15 458.17c.07 0 .15 0 .23.01.49.05 1.06.5 1.13 1.37v.29c-.07.83-.69 1.86-2.5 3.15-1.81-1.29-2.43-2.32-2.5-3.15v-.29c.07-.87.63-1.32 1.12-1.37.08 0 .16-.01.23-.01.57 0 .84.25 1.15.62.31-.38.58-.62 1.15-.62" fill="#404041"/><path d="m591.29 373.76c.14 0 .29 0 .45.02.98.1 2.11 1.01 2.25 2.75v.58c-.13 1.67-1.37 3.72-5 6.31-3.63-2.58-4.87-4.64-5-6.31v-.58c.14-1.74 1.27-2.65 2.25-2.75.16-.01.31-.02.45-.02 1.14 0 1.68.5 2.3 1.25.62-.75 1.17-1.25 2.3-1.25" fill="#404041"/><path d="m718.94 767.76c.21 0 .44.01.68.03 1.47.15 3.17 1.51 3.38 4.12v.87c-.2 2.5-2.06 5.59-7.5 9.46-5.44-3.87-7.31-6.96-7.5-9.46v-.87c.21-2.61 1.9-3.98 3.37-4.12.24-.02.47-.03.68-.03 1.7 0 2.52.74 3.45 1.87.93-1.13 1.75-1.87 3.45-1.87" fill="#404041"/><path d="m503.29 584.76c.14 0 .29 0 .45.02.98.1 2.11 1.01 2.25 2.75v.58c-.13 1.67-1.37 3.72-5 6.31-3.63-2.58-4.87-4.64-5-6.31v-.58c.14-1.74 1.27-2.65 2.25-2.75.16-.01.31-.02.45-.02 1.14 0 1.68.5 2.3 1.25.62-.75 1.17-1.25 2.3-1.25" fill="#404041"/><path d="m34.84 668.76c.11 0 .23 0 .36.02.79.08 1.69.81 1.8 2.2v.46c-.1 1.33-1.1 2.98-4 5.04-2.9-2.06-3.9-3.71-4-5.04v-.46c.11-1.39 1.02-2.12 1.8-2.2.13-.01.25-.02.36-.02.91 0 1.34.4 1.84 1 .5-.6.93-1 1.84-1" fill="#b2b2b2"/><path d="m231.57 741.76c.19 0 .4.01.62.03 1.35.13 2.9 1.38 3.09 3.77v.79c-.18 2.29-1.88 5.11-6.86 8.65-4.97-3.54-6.68-6.36-6.85-8.65v-.79c.19-2.39 1.74-3.63 3.08-3.77.22-.02.43-.03.62-.03 1.56 0 2.3.68 3.15 1.71.85-1.03 1.6-1.71 3.15-1.71" fill="#404041"/><path d="m259.98 895.76c.33 0 .68.02 1.05.05 2.28.23 4.92 2.35 5.24 6.4v1.35c-.3 3.88-3.2 8.67-11.64 14.68-8.45-6.01-11.34-10.8-11.64-14.68v-1.35c.32-4.05 2.96-6.17 5.23-6.4.38-.03.72-.05 1.05-.05 2.65 0 3.9 1.15 5.35 2.9 1.45-1.75 2.71-2.9 5.35-2.9" fill="#b2b2b2"/><path d="m661.98 799.76c.33 0 .68.02 1.05.05 2.28.23 4.92 2.35 5.24 6.4v1.35c-.3 3.88-3.2 8.67-11.64 14.68-8.45-6.01-11.34-10.8-11.64-14.68v-1.35c.32-4.05 2.96-6.17 5.23-6.4.38-.03.72-.05 1.05-.05 2.65 0 3.9 1.15 5.35 2.9 1.45-1.75 2.71-2.9 5.35-2.9" fill="#e42221"/><path d="m333.07 547c.09 0 .18 0 .28.01.61.06 1.31.63 1.4 1.71v.36c-.08 1.04-.85 2.31-3.11 3.92-2.25-1.6-3.03-2.88-3.11-3.92v-.36c.09-1.08.79-1.65 1.4-1.71.1 0 .19-.01.28-.01.71 0 1.04.31 1.43.77.39-.47.72-.77 1.43-.77" fill="#e42221"/><path d="m630.02 572c.15 0 .3 0 .47.02 1.02.1 2.19 1.04 2.33 2.85v.6c-.13 1.73-1.42 3.86-5.18 6.53-3.76-2.67-5.05-4.8-5.18-6.53v-.6c.14-1.8 1.31-2.74 2.33-2.85.17-.02.32-.02.47-.02 1.18 0 1.74.51 2.38 1.29.64-.78 1.21-1.29 2.38-1.29" fill="#b2b2b2"/><path d="m752.89 371c.28 0 .58.02.9.05 1.96.2 4.21 2.01 4.49 5.48v1.15c-.26 3.32-2.73 7.42-9.97 12.56-7.23-5.14-9.71-9.24-9.96-12.56v-1.15c.27-3.47 2.53-5.28 4.48-5.48.32-.03.62-.05.9-.05 2.26 0 3.34.99 4.58 2.48 1.24-1.5 2.32-2.48 4.58-2.48" fill="#e42221"/><path d="m236.31 786.86c.1 0 .21 0 .33.02.71.07 1.54.73 1.64 2v.42c-.09 1.21-1 2.71-3.64 4.59-2.64-1.88-3.55-3.38-3.64-4.59v-.42c.1-1.27.92-1.93 1.64-2 .12-.01.23-.02.33-.02.83 0 1.22.36 1.67.91.45-.55.85-.91 1.67-.91" fill="#404041"/><path d="m356.31 900.86c.1 0 .21 0 .33.02.71.07 1.54.73 1.64 2v.42c-.09 1.21-1 2.71-3.64 4.59-2.64-1.88-3.55-3.38-3.64-4.59v-.42c.1-1.27.92-1.93 1.64-2 .12-.01.23-.02.33-.02.83 0 1.22.36 1.67.91.45-.55.85-.91 1.67-.91" fill="#404041"/><path d="m476.31 640.86c.1 0 .21 0 .33.02.71.07 1.54.73 1.64 2v.42c-.09 1.21-1 2.71-3.64 4.59-2.64-1.88-3.55-3.38-3.64-4.59v-.42c.1-1.27.92-1.93 1.64-2 .12-.01.23-.02.33-.02.83 0 1.22.36 1.67.91.45-.55.85-.91 1.67-.91" fill="#b2b2b2"/><path d="m600.31 618.86c.1 0 .21 0 .33.02.71.07 1.54.73 1.64 2v.42c-.09 1.21-1 2.71-3.64 4.59-2.64-1.88-3.55-3.38-3.64-4.59v-.42c.1-1.27.92-1.93 1.64-2 .12-.01.23-.02.33-.02.83 0 1.22.36 1.67.91.45-.55.85-.91 1.67-.91" fill="#404041"/><path d="m728.31 660.86c.1 0 .21 0 .33.02.71.07 1.54.73 1.64 2v.42c-.09 1.21-1 2.71-3.64 4.59-2.64-1.88-3.55-3.38-3.64-4.59v-.42c.1-1.27.92-1.93 1.64-2 .12-.01.23-.02.33-.02.83 0 1.22.36 1.67.91.45-.55.85-.91 1.67-.91" fill="#404041"/><path d="m607.41 547.76s.1 0 .15 0c.33.03.71.34.76.92v.19c-.04.56-.46 1.25-1.68 2.12-1.22-.87-1.64-1.56-1.68-2.12v-.19c.05-.58.43-.89.75-.92h.15c.38 0 .56.17.77.42.21-.25.39-.42.77-.42" fill="#404041"/><path d="m651.31 487.86c.1 0 .21 0 .33.02.71.07 1.54.73 1.64 2v.42c-.09 1.21-1 2.71-3.64 4.59-2.64-1.88-3.55-3.38-3.64-4.59v-.42c.1-1.27.92-1.93 1.64-2 .12-.01.23-.02.33-.02.83 0 1.22.36 1.67.91.45-.55.85-.91 1.67-.91" fill="#b2b2b2"/><path d="m474.31 370.86c.1 0 .21 0 .33.02.71.07 1.54.73 1.64 2v.42c-.09 1.21-1 2.71-3.64 4.59-2.64-1.88-3.55-3.38-3.64-4.59v-.42c.1-1.27.92-1.93 1.64-2 .12-.01.23-.02.33-.02.83 0 1.22.36 1.67.91.45-.55.85-.91 1.67-.91" fill="#b2b2b2"/><path d="m575.31 477.86c.1 0 .21 0 .33.02.71.07 1.54.73 1.64 2v.42c-.09 1.21-1 2.71-3.64 4.59-2.64-1.88-3.55-3.38-3.64-4.59v-.42c.1-1.27.92-1.93 1.64-2 .12-.01.23-.02.33-.02.83 0 1.22.36 1.67.91.45-.55.85-.91 1.67-.91" fill="#b2b2b2"/><path d="m806.31 263.86c.1 0 .21 0 .33.02.71.07 1.54.73 1.64 2v.42c-.09 1.21-1 2.71-3.64 4.59-2.64-1.88-3.55-3.38-3.64-4.59v-.42c.1-1.27.92-1.93 1.64-2 .12-.01.23-.02.33-.02.83 0 1.22.36 1.67.91.45-.55.85-.91 1.67-.91" fill="#b2b2b2"/><path d="m392.31 583.86c.1 0 .21 0 .33.02.71.07 1.54.73 1.64 2v.42c-.09 1.21-1 2.71-3.64 4.59-2.64-1.88-3.55-3.38-3.64-4.59v-.42c.1-1.27.92-1.93 1.64-2 .12-.01.23-.02.33-.02.83 0 1.22.36 1.67.91.45-.55.85-.91 1.67-.91" fill="#b2b2b2"/><path d="m416.41 498.76s.1 0 .15 0c.33.03.71.34.76.92v.19c-.04.56-.46 1.25-1.68 2.12-1.22-.87-1.64-1.56-1.68-2.12v-.19c.05-.58.43-.89.75-.92h.15c.38 0 .56.17.77.42.21-.25.39-.42.77-.42" fill="#b2b2b2"/><g fill="#404041"><path d="m321.12 463.86h.19c.42.04.9.43.96 1.18v.25c-.06.71-.59 1.6-2.14 2.7-1.55-1.11-2.09-1.99-2.14-2.7v-.25c.06-.75.54-1.14.96-1.18h.19c.49 0 .72.21.98.53.27-.32.5-.53.98-.53"/><path d="m342.12 426.86h.19c.42.04.9.43.96 1.18v.25c-.06.71-.59 1.6-2.14 2.7-1.55-1.11-2.09-1.99-2.14-2.7v-.25c.06-.75.54-1.14.96-1.18h.19c.49 0 .72.21.98.53.27-.32.5-.53.98-.53"/><path d="m258.12 250.86h.19c.42.04.9.43.96 1.18v.25c-.06.71-.59 1.6-2.14 2.7-1.55-1.11-2.09-1.99-2.14-2.7v-.25c.06-.75.54-1.14.96-1.18h.19c.49 0 .72.21.98.53.27-.32.5-.53.98-.53"/><path d="m449.12 287.86h.19c.42.04.9.43.96 1.18v.25c-.06.71-.59 1.6-2.14 2.7-1.55-1.11-2.09-1.99-2.14-2.7v-.25c.06-.75.54-1.14.96-1.18h.19c.49 0 .72.21.98.53.27-.32.5-.53.98-.53"/><path d="m470.12 322.86h.19c.42.04.9.43.96 1.18v.25c-.06.71-.59 1.6-2.14 2.7-1.55-1.11-2.09-1.99-2.14-2.7v-.25c.06-.75.54-1.14.96-1.18h.19c.49 0 .72.21.98.53.27-.32.5-.53.98-.53"/><path d="m529.12 309.86h.19c.42.04.9.43.96 1.18v.25c-.06.71-.59 1.6-2.14 2.7-1.55-1.11-2.09-1.99-2.14-2.7v-.25c.06-.75.54-1.14.96-1.18h.19c.49 0 .72.21.98.53.27-.32.5-.53.98-.53"/><path d="m437.12 394.86h.19c.42.04.9.43.96 1.18v.25c-.06.71-.59 1.6-2.14 2.7-1.55-1.11-2.09-1.99-2.14-2.7v-.25c.06-.75.54-1.14.96-1.18h.19c.49 0 .72.21.98.53.27-.32.5-.53.98-.53"/><path d="m800.12 564.86h.19c.42.04.9.43.96 1.18v.25c-.06.71-.59 1.6-2.14 2.7-1.55-1.11-2.09-1.99-2.14-2.7v-.25c.06-.75.54-1.14.96-1.18h.19c.49 0 .72.21.98.53.27-.32.5-.53.98-.53"/><path d="m893.12 429.86h.19c.42.04.9.43.96 1.18v.25c-.06.71-.59 1.6-2.14 2.7-1.55-1.11-2.09-1.99-2.14-2.7v-.25c.06-.75.54-1.14.96-1.18h.19c.49 0 .72.21.98.53.27-.32.5-.53.98-.53"/><path d="m657.12 333.86h.19c.42.04.9.43.96 1.18v.25c-.06.71-.59 1.6-2.14 2.7-1.55-1.11-2.09-1.99-2.14-2.7v-.25c.06-.75.54-1.14.96-1.18h.19c.49 0 .72.21.98.53.27-.32.5-.53.98-.53"/><path d="m636.12 224.86h.19c.42.04.9.43.96 1.18v.25c-.06.71-.59 1.6-2.14 2.7-1.55-1.11-2.09-1.99-2.14-2.7v-.25c.06-.75.54-1.14.96-1.18h.19c.49 0 .72.21.98.53.27-.32.5-.53.98-.53"/><path d="m369 458.86c.12 0 .25 0 .38.02.83.08 1.78.85 1.9 2.32v.49c-.11 1.41-1.16 3.14-4.21 5.31-3.06-2.17-4.11-3.91-4.21-5.31v-.49c.12-1.47 1.07-2.23 1.89-2.32.14-.01.26-.02.38-.02.96 0 1.41.42 1.94 1.05.52-.63.98-1.05 1.94-1.05"/></g><path d="m364.32 484c.1 0 .21 0 .33.02.71.07 1.53.73 1.63 1.99v.42c-.09 1.21-.99 2.7-3.63 4.57-2.63-1.87-3.53-3.36-3.62-4.57v-.42c.1-1.26.92-1.92 1.63-1.99.12-.01.23-.02.33-.02.82 0 1.22.36 1.67.9.45-.54.84-.9 1.66-.9" fill="#b2b2b2"/><path d="m379.32 394c.1 0 .21 0 .33.02.71.07 1.53.73 1.63 1.99v.42c-.09 1.21-.99 2.7-3.63 4.57-2.63-1.87-3.53-3.36-3.62-4.57v-.42c.1-1.26.92-1.92 1.63-1.99.12-.01.23-.02.33-.02.82 0 1.22.36 1.67.9.45-.54.84-.9 1.66-.9" fill="#b2b2b2"/><path d="m410.32 296c.1 0 .21 0 .33.02.71.07 1.53.73 1.63 1.99v.42c-.09 1.21-.99 2.7-3.63 4.57-2.63-1.87-3.53-3.36-3.62-4.57v-.42c.1-1.26.92-1.92 1.63-1.99.12-.01.23-.02.33-.02.82 0 1.22.36 1.67.9.45-.54.84-.9 1.66-.9" fill="#b2b2b2"/><path d="m416.76 278c.13 0 .27 0 .42.02.91.09 1.97.94 2.1 2.56v.54c-.12 1.55-1.28 3.47-4.66 5.88-3.38-2.41-4.54-4.32-4.66-5.88v-.54c.13-1.62 1.18-2.47 2.1-2.56.15-.01.29-.02.42-.02 1.06 0 1.56.46 2.14 1.16.58-.7 1.09-1.16 2.14-1.16" fill="#e42221"/><path d="m446.53 470.86c.09 0 .19 0 .29.01.62.06 1.34.64 1.43 1.75v.37c-.08 1.06-.87 2.37-3.18 4.01-2.31-1.64-3.1-2.95-3.18-4.01v-.37c.09-1.11.81-1.68 1.43-1.75.1 0 .2-.01.29-.01.72 0 1.07.31 1.46.79.4-.48.74-.79 1.46-.79" fill="#404041"/><path d="m271 375.86c.12 0 .25 0 .38.02.83.08 1.78.85 1.9 2.32v.49c-.11 1.41-1.16 3.14-4.21 5.31-3.06-2.17-4.11-3.91-4.21-5.31v-.49c.12-1.47 1.07-2.23 1.89-2.32.14-.01.26-.02.38-.02.96 0 1.41.42 1.94 1.05.52-.63.98-1.05 1.94-1.05" fill="#404041"/></svg>