<svg viewBox="0 0 1000 1000" xmlns="http://www.w3.org/2000/svg"><g fill="none" stroke="#3c3c3b" stroke-miterlimit="10" stroke-width=".36"><path d="m16.63 478.96 513.6 25.91"/><path d="m119.7 540.96 410.52-36.1"/><path d="m87.22 571.43 443.01-66.56"/><path d="m530.23 504.87 463.05-81.92"/><path d="m49.26 690.79 481.02-185.92"/><path d="m530.23 504.89 193.57-407.15"/><path d="m24.19 778.29 506.04-273.42"/><path d="m530.23 504.87 446.56-347.22"/><path d="m118.67 872.31 411.56-367.44"/><path d="m127.58 933.68 402.65-428.81"/><path d="m272.18 936.84 258.02-431.95"/><path d="m530.23 504.87-153.6 480.22"/><path d="m530.23 504.87-6.57 130.57"/><path d="m483.75 50.88 46.48 453.99"/><path d="m530.23 504.87 187.71 390.93"/><path d="m530.23 504.87 311.21 404.87"/><path d="m530.23 504.87 329.56 241.69"/><path d="m530.23 504.87 183.39 114.45"/><path d="m930.06 554.22-399.83-49.35"/><path d="m530.23 504.87 149.02 72.21"/><path d="m530.23 504.87 168.29 54.89"/><path d="m755.21 446.28-224.98 58.59"/><path d="m892.45 324.99-362.19 179.88"/><path d="m702.86 370.7-172.63 134.14"/><path d="m754.93 260.71-224.7 244.15"/><path d="m530.22 504.87-169.28 129.14"/><path d="m656.18 322.13-125.95 182.71"/><path d="m623.05 309.63-92.82 195.23"/><path d="m602.11 273.49-71.88 231.37"/><path d="m565.21 223.97-34.98 280.89"/><path d="m530.23 504.87-203.47-237.1"/><path d="m530.22 504.83-142.99-298.74"/><path d="m530.21 504.87-134.98-324.65"/><path d="m530.59 505.06 15.98-298.14"/><path d="m530.23 504.78-53.21-259.73"/><path d="m530.22 504.79-85.54-313.02"/><path d="m530.22 504.83-64.05-202.19"/><path d="m594.27 707.05-64.05-202.19"/><path d="m530.23 504.85-204.75-55.34"/><path d="m530.23 504.87-212.86-19.26"/><path d="m743.53 491.41-213.3 13.46"/><path d="m530.23 504.87-275.21-50.53"/><path d="m566.17 782.65-35.94-277.78"/><path d="m530.23 504.87-243.31-105.31"/><path d="m530.22 504.86-350.26-179.95"/><path d="m530.22 504.86-227.67-139"/><path d="m530.22 504.87-256.62 72.81"/><path d="m530.23 504.87 224.72 214.58"/><path d="m965.37 602.65-435.14-97.78"/><path d="m530.23 504.86-102.79 481.26"/><path d="m530.23 504.87-187.47-150.9"/><path d="m530.23 504.87-367.32-367.32"/><path d="m530.23 504.86-102.38-154.14"/></g><g fill="#3c3c3b"><circle cx="181.27" cy="326.62" r="6.43"/><circle cx="324.96" cy="449.37" r="6.43"/><circle cx="24.19" cy="778.29" r="6.43"/><circle cx="440.81" cy="465.18" r="6.43"/><circle cx="287.21" cy="399.69" r="3.39"/><circle cx="162.68" cy="137.33" r="3.39"/><circle cx="859.79" cy="746.56" r="3.39"/><circle cx="669.67" cy="686" r="3.39"/><circle cx="377.32" cy="984.4" r="3.39"/><circle cx="128.9" cy="932.84" r="3.39"/><circle cx="967.39" cy="603.1" r="3.39"/><circle cx="991.72" cy="423.47" r="3.39"/><circle cx="255.16" cy="454.37" r="3.39"/><circle cx="428.49" cy="351.68" r="3.39"/><circle cx="476.65" cy="245.07" r="3.39"/><circle cx="445.27" cy="192.84" r="3.39"/><circle cx="565.08" cy="225.01" r="3.39"/><circle cx="755.01" cy="260.61" r="3.39"/><circle cx="723.14" cy="99.1" r="3.39"/><circle cx="302.17" cy="365.61" r="7.99"/><circle cx="753.7" cy="447.44" r="8.39"/><circle cx="595.59" cy="708.76" r="7.95"/><circle cx="523.66" cy="635.44" r="7.95"/><circle cx="566.07" cy="781.88" r="7.95"/><circle cx="680.57" cy="578.78" r="4.56"/><circle cx="119.99" cy="874.01" r="9.83"/><circle cx="20.64" cy="478.96" r="9.83"/><circle cx="331.39" cy="270.07" r="9.83"/><circle cx="655.51" cy="323.84" r="7.82"/><circle cx="930.37" cy="553.76" r="7.82"/><circle cx="467.48" cy="304.34" r="10.82"/><circle cx="842.76" cy="911.45" r="10.86"/><circle cx="88.54" cy="573.14" r="12.18"/></g><circle cx="891.72" cy="326.02" fill="#e42221" r="15.91"/><circle cx="716.76" cy="893.4" fill="#e42221" r="15.91"/><circle cx="602.87" cy="273.17" fill="#e42221" r="11.25"/><ellipse cx="257.69" cy="795.11" fill="#e42221" rx="7" ry="6.88"/><ellipse cx="755.01" cy="719.34" fill="#e42221" rx="7" ry="6.88"/><ellipse cx="427.44" cy="986.12" fill="#e42221" rx="7" ry="6.88"/><ellipse cx="395.23" cy="180.22" fill="#e42221" rx="7" ry="6.88"/><ellipse cx="702.31" cy="561.59" fill="#e42221" rx="7" ry="6.88"/><circle cx="711.97" cy="620.08" fill="#b2b2b2" r="18.18"/><circle cx="272.8" cy="935.83" fill="#b2b2b2" r="18.18"/><circle cx="483.75" cy="50.88" fill="#b2b2b2" r="9.32"/><circle cx="546.83" cy="208.82" fill="#b2b2b2" r="9.32"/><circle cx="318.62" cy="485.88" fill="#b2b2b2" r="5.77"/><circle cx="116.13" cy="541.28" fill="#b2b2b2" r="5.77"/><circle cx="397.64" cy="506.59" fill="#b2b2b2" r="5.77"/><circle cx="48.75" cy="691.28" fill="#b2b2b2" r="5.77"/><circle cx="361.01" cy="633.96" fill="#b2b2b2" r="5.77"/><circle cx="485.79" cy="719.34" fill="#b2b2b2" r="5.77"/><circle cx="341.73" cy="353.03" fill="#b2b2b2" r="5.77"/><circle cx="387.22" cy="206.05" fill="#b2b2b2" r="5.77"/><circle cx="481.68" cy="318.06" fill="#b2b2b2" r="5.77"/><circle cx="744.76" cy="491.55" fill="#b2b2b2" r="5.77"/><circle cx="632.36" cy="477.18" fill="#b2b2b2" r="5.77"/><circle cx="974.96" cy="159.27" fill="#b2b2b2" r="5.77"/><circle cx="273.6" cy="577.68" fill="#e42221" r="15.91"/><path d="m438.25 361.84c.15-.15.38-.23.68-.23 15.76-13.94 27.35-24.93 34.78-32.96 7.42-8.03 13.26-17.28 17.5-27.73 4.24-10.46 6.36-23.42 6.36-38.87 0-21.52-4.85-40.69-14.55-57.51s-23.04-29.93-40.01-39.33c-16.98-9.39-36.07-14.09-57.29-14.09-23.34 0-43.8 4.48-61.38 13.41-17.58 8.94-31.3 21.67-41.15 38.19s-14.78 35.85-14.78 57.97h63.65c-.31-9.09 1.74-17.57 6.14-25.46 4.39-7.88 10.61-14.17 18.64-18.87s17.2-7.05 27.51-7.05c9.7 0 18.34 2.2 25.91 6.59 7.57 4.4 13.41 10.54 17.5 18.41 4.09 7.89 6.14 16.82 6.14 26.82 0 7.28-2.27 14.93-6.82 22.96s-11.67 16.45-21.37 25.23l-137.31 121.85v53.65h229.15v-58.2h-133.12l73.1-64.11.68-.68z" fill="#f00"/><path d="m738.77 209.08c-10.16-18.34-24.4-32.58-42.74-42.74-18.34-10.15-39.48-15.23-63.42-15.23s-45.09 5.08-63.42 15.23c-18.34 10.16-32.59 24.4-42.74 42.74-10.16 18.34-15.23 39.48-15.23 63.42v98.21c0 23.95 5.07 45.09 15.23 63.42 10.15 18.34 24.39 32.59 42.74 42.74 18.34 10.15 39.48 15.23 63.42 15.23s45.08-5.08 63.42-15.23 32.58-24.4 42.74-42.74c10.15-18.34 15.23-39.48 15.23-63.42v-98.21c0-23.94-5.08-45.08-15.23-63.42zm-47.97 166.18c0 10.61-2.58 20.39-7.73 29.33-5.16 8.94-12.2 15.99-21.14 21.14-8.94 5.16-18.72 7.73-29.33 7.73s-20.39-2.57-29.33-7.73c-8.94-5.15-15.99-12.2-21.14-21.14-5.16-8.94-7.73-18.71-7.73-29.33v-107.75c0-10.61 2.57-20.38 7.73-29.33 5.15-8.94 12.2-15.98 21.14-21.14 8.94-5.15 18.71-7.73 29.33-7.73s20.38 2.58 29.33 7.73c8.94 5.16 15.98 12.2 21.14 21.14 5.15 8.94 7.73 18.72 7.73 29.33z" opacity=".3"/><path d="m438.25 716.24c.15-.15.38-.23.68-.23 15.76-13.94 27.35-24.93 34.78-32.96 7.42-8.03 13.26-17.28 17.5-27.73 4.24-10.46 6.36-23.42 6.36-38.87 0-21.52-4.85-40.69-14.55-57.51s-23.04-29.93-40.01-39.33c-16.98-9.39-36.07-14.09-57.29-14.09-23.34 0-43.8 4.48-61.38 13.41-17.58 8.94-31.3 21.67-41.15 38.19s-14.78 35.85-14.78 57.97h63.65c-.31-9.09 1.74-17.57 6.14-25.46 4.39-7.88 10.61-14.17 18.64-18.87s17.2-7.05 27.51-7.05c9.7 0 18.34 2.2 25.91 6.59 7.57 4.4 13.41 10.54 17.5 18.41 4.09 7.89 6.14 16.82 6.14 26.82 0 7.28-2.27 14.93-6.82 22.96s-11.67 16.45-21.37 25.23l-137.31 121.85v53.65h229.15v-58.2h-133.12l73.1-64.11.68-.68z" opacity=".3"/><path d="m685.57 716.24c.15-.15.38-.23.68-.23 15.76-13.94 27.35-24.93 34.78-32.96 7.42-8.03 13.26-17.28 17.5-27.73 4.24-10.46 6.36-23.42 6.36-38.87 0-21.52-4.85-40.69-14.55-57.51s-23.04-29.93-40.01-39.33c-16.98-9.39-36.07-14.09-57.29-14.09-23.34 0-43.8 4.48-61.38 13.41-17.58 8.94-31.3 21.67-41.15 38.19s-14.78 35.85-14.78 57.97h63.65c-.31-9.09 1.74-17.57 6.14-25.46 4.39-7.88 10.61-14.17 18.64-18.87s17.2-7.05 27.51-7.05c9.7 0 18.34 2.2 25.91 6.59 7.57 4.4 13.41 10.54 17.5 18.41 4.09 7.89 6.14 16.82 6.14 26.82 0 7.28-2.27 14.93-6.82 22.96s-11.67 16.45-21.37 25.23l-137.31 121.85v53.65h229.15v-58.2h-133.12l73.1-64.11.68-.68z" fill="#f00"/></svg>