<svg height="32" viewBox="0 0 32 32" width="32" xmlns="http://www.w3.org/2000/svg"><path d="m16 4c-7.732 0-14 6.268-14 14s6.268 14 14 14 14-6.268 14-14-6.268-14-14-14zm0 25.25c-6.213 0-11.25-5.037-11.25-11.25s5.037-11.25 11.25-11.25 11.25 5.037 11.25 11.25-5.037 11.25-11.25 11.25zm13.212-20.276c.501-.877.788-1.892.788-2.974 0-3.314-2.686-6-6-6-1.932 0-3.65.913-4.747 2.331 4.121.851 7.663 3.287 9.96 6.643zm-16.464-6.643c-1.097-1.418-2.816-2.331-4.748-2.331-3.314 0-6 2.686-6 6 0 1.082.287 2.098.788 2.974 2.297-3.356 5.838-5.792 9.96-6.643z"/><path d="m16 18v-8h-2v10h8v-2z"/></svg>