<svg height="32" viewBox="0 0 32 32" width="32" xmlns="http://www.w3.org/2000/svg"><path d="m32 25.333h-32c.344-3.051 1.396-5.801 2.988-8.158l-.041.064c1.261-1.929 2.896-3.509 4.813-4.669l.613-.344-2.693-4.547c-.062-.101-.099-.223-.099-.353 0-.244.129-.459.323-.579l.003-.002c.098-.059.216-.094.342-.094.246 0 .461.133.576.331l.002.003 2.773 4.667c1.849-.76 3.995-1.201 6.244-1.201.074 0 .147 0 .221.001h-.011c.059-.001.129-.001.198-.001 2.212 0 4.32.441 6.243 1.241l-.108-.04 2.76-4.667c.118-.199.331-.331.576-.331.133 0 .256.039.36.106l-.003-.002c.191.123.316.334.316.574 0 .133-.038.257-.104.362l.002-.003-2.693 4.56.667.373c1.972 1.241 3.594 2.859 4.803 4.765l.037.062c1.464 2.247 2.488 4.913 2.882 7.779l.011.101zm-10-5.973c0 .736.597 1.333 1.333 1.333s1.333-.597 1.333-1.333-.597-1.333-1.333-1.333-1.333.597-1.333 1.333zm-14.667 0c0 .736.597 1.333 1.333 1.333s1.333-.597 1.333-1.333-.597-1.333-1.333-1.333-1.333.597-1.333 1.333z" fill="#3ddc84"/></svg>