<svg height="32" viewBox="0 0 32 32" width="32" xmlns="http://www.w3.org/2000/svg"><path d="m2 0h12v2h-12zm16 0h12v2h-12zm11.75 10h-1.75v-8h-8v8h-8v-8h-8v8h-1.75c-1.238 0-2.25 1.012-2.25 2.25v17.5c0 1.238 1.012 2.25 2.25 2.25h9.5c1.238 0 2.25-1.012 2.25-2.25v-11.75h4v11.75c0 1.238 1.012 2.25 2.25 2.25h9.5c1.238 0 2.25-1.012 2.25-2.25v-17.5c0-1.238-1.012-2.25-2.25-2.25zm-18.875 20h-7.75c-.619 0-1.125-.45-1.125-1s.506-1 1.125-1h7.75c.619 0 1.125.45 1.125 1s-.506 1-1.125 1zm6.125-14h-2c-.55 0-1-.45-1-1s.45-1 1-1h2c.55 0 1 .45 1 1s-.45 1-1 1zm11.875 14h-7.75c-.619 0-1.125-.45-1.125-1s.506-1 1.125-1h7.75c.619 0 1.125.45 1.125 1s-.506 1-1.125 1z"/></svg>