<svg height="32" viewBox="0 0 36 32" width="36" xmlns="http://www.w3.org/2000/svg"><path d="m34 28.161c0 1.422.813 2.653 2 3.256v.498c-.332.045-.671.07-1.016.07-2.125 0-4.042-.892-5.398-2.321-.819.218-1.688.336-2.587.336-4.971 0-9-3.582-9-8s4.029-8 9-8 9 3.582 9 8c0 1.73-.618 3.331-1.667 4.64-.213.463-.333.979-.333 1.522zm-26.791-21.249c-2.069 1.681-3.209 3.843-3.209 6.088 0 1.259.35 2.481 1.039 3.63.711 1.185 1.781 2.268 3.093 3.133.949.625 1.587 1.623 1.755 2.747.056.375.091.753.105 1.129.233-.194.461-.401.684-.624.755-.755 1.774-1.172 2.828-1.172.168 0 .336.011.505.032.655.083 1.323.125 1.987.126v4c-.848 0-1.68-.054-2.492-.158-3.437 3.437-7.539 4.053-11.505 4.144v-.841c2.142-1.049 4-2.961 4-5.145 0-.305-.024-.604-.068-.897-3.619-2.383-5.932-6.024-5.932-10.103 0-7.18 7.163-13 16-13 8.702 0 15.781 5.644 15.995 12.672-1.284-.572-2.683-.919-4.133-1.018-.36-1.752-1.419-3.401-3.07-4.742-1.104-.897-2.404-1.606-3.863-2.108-1.553-.534-3.211-.804-4.928-.804s-3.375.271-4.928.804c-1.46.502-2.76 1.211-3.863 2.108z"/></svg>