<svg height="32" viewBox="0 0 36 32" width="36" xmlns="http://www.w3.org/2000/svg"><path d="m15 4c-1.583 0-3.112.248-4.543.738-1.341.459-2.535 1.107-3.547 1.926-1.876 1.518-2.91 3.463-2.91 5.474 0 1.125.315 2.217.935 3.247.646 1.073 1.622 2.056 2.821 2.842.951.624 1.592 1.623 1.761 2.748.028.187.051.375.068.564.085-.079.169-.16.254-.244.754-.751 1.771-1.166 2.823-1.166.167 0 .335.011.503.032.605.077 1.223.116 1.836.116 1.583 0 3.112-.248 4.543-.738 1.341-.459 2.535-1.107 3.547-1.926 1.876-1.518 2.91-3.463 2.91-5.474s-1.033-3.956-2.91-5.474c-1.012-.819-2.206-1.467-3.547-1.926-1.431-.49-2.96-.738-4.543-.738zm0-4c8.284 0 15 5.435 15 12.139s-6.716 12.139-15 12.139c-.796 0-1.576-.051-2.339-.147-3.222 3.209-6.943 3.785-10.661 3.869v-.785c2.008-.98 3.625-2.765 3.625-4.804 0-.285-.022-.564-.063-.837-3.392-2.225-5.562-5.625-5.562-9.434 0-6.704 6.716-12.139 15-12.139zm16.125 27.209c0 1.748 1.135 3.278 2.875 4.118v.673c-3.223-.072-6.181-.566-8.973-3.316-.661.083-1.337.126-2.027.126-2.983 0-5.732-.805-7.925-2.157 4.521-.016 8.789-1.464 12.026-4.084 1.631-1.32 2.919-2.87 3.825-4.605.961-1.84 1.449-3.799 1.449-5.825 0-.326-.014-.651-.039-.974 2.268 1.873 3.664 4.426 3.664 7.24 0 3.265-1.88 6.179-4.82 8.086-.036.234-.055.474-.055.718z"/></svg>