<svg height="32" viewBox="0 0 32 32" width="32" xmlns="http://www.w3.org/2000/svg"><path d="m16 6c-1.717 0-3.375.271-4.928.804-1.46.502-2.76 1.211-3.863 2.108-2.069 1.681-3.209 3.843-3.209 6.088 0 1.259.35 2.481 1.039 3.63.711 1.185 1.781 2.268 3.093 3.133.949.625 1.587 1.623 1.755 2.747.056.375.091.753.105 1.129.233-.194.461-.401.684-.624.755-.755 1.774-1.172 2.828-1.172.168 0 .336.011.505.032.655.083 1.325.126 1.99.126 1.717 0 3.375-.271 4.928-.804 1.46-.502 2.76-1.211 3.863-2.108 2.069-1.681 3.209-3.843 3.209-6.088s-1.14-4.407-3.209-6.088c-1.104-.897-2.404-1.606-3.863-2.108-1.553-.534-3.211-.804-4.928-.804zm0-4c8.837 0 16 5.82 16 13s-7.163 13-16 13c-.849 0-1.682-.054-2.495-.158-3.437 3.437-7.539 4.053-11.505 4.144v-.841c2.142-1.049 4-2.961 4-5.145 0-.305-.024-.604-.068-.897-3.619-2.383-5.932-6.024-5.932-10.103 0-7.18 7.163-13 16-13z"/></svg>