<svg height="32" viewBox="0 0 36 32" width="36" xmlns="http://www.w3.org/2000/svg"><path d="m34 28.161c0 1.422.813 2.653 2 3.256v.498c-.332.045-.671.07-1.016.07-2.125 0-4.042-.892-5.398-2.321-.819.218-1.688.336-2.587.336-4.971 0-9-3.582-9-8s4.029-8 9-8 9 3.582 9 8c0 1.73-.618 3.331-1.667 4.64-.213.463-.333.979-.333 1.522zm-18-28.161c8.702 0 15.781 5.644 15.995 12.672-1.537-.685-3.237-1.047-4.995-1.047-2.986 0-5.807 1.045-7.942 2.943-2.214 1.968-3.433 4.607-3.433 7.432 0 1.396.298 2.747.867 3.993-.163.004-.327.007-.492.007-.849 0-1.682-.054-2.495-.158-3.437 3.437-7.539 4.053-11.505 4.144v-.841c2.142-1.049 4-2.961 4-5.145 0-.305-.024-.604-.068-.897-3.619-2.383-5.932-6.024-5.932-10.103 0-7.18 7.163-13 16-13z"/></svg>