<svg height="32" viewBox="0 0 32 32" width="32" xmlns="http://www.w3.org/2000/svg"><path d="m11.366 22.564 1.291-1.807-1.414-1.414-1.807 1.291c-.335-.187-.694-.337-1.071-.444l-.365-2.19h-2l-.365 2.19c-.377.107-.736.256-1.071.444l-1.807-1.291-1.414 1.414 1.291 1.807c-.187.335-.337.694-.443 1.071l-2.19.365v2l2.19.365c.107.377.256.736.444 1.071l-1.291 1.807 1.414 1.414 1.807-1.291c.335.187.694.337 1.071.444l.365 2.19h2l.365-2.19c.377-.107.736-.256 1.071-.444l1.807 1.291 1.414-1.414-1.291-1.807c.187-.335.337-.694.444-1.071l2.19-.365v-2l-2.19-.365c-.107-.377-.256-.736-.444-1.071zm-4.366 4.436c-1.105 0-2-.895-2-2s.895-2 2-2 2 .895 2 2-.895 2-2 2zm25-15v-2l-2.106-.383c-.039-.251-.088-.499-.148-.743l1.799-1.159-.765-1.848-2.092.452c-.132-.216-.273-.426-.422-.629l1.219-1.761-1.414-1.414-1.761 1.219c-.203-.149-.413-.29-.629-.422l.452-2.092-1.848-.765-1.159 1.799c-.244-.059-.492-.109-.743-.148l-.383-2.106h-2l-.383 2.106c-.251.039-.499.088-.743.148l-1.159-1.799-1.848.765.452 2.092c-.216.132-.426.273-.629.422l-1.761-1.219-1.414 1.414 1.219 1.761c-.149.203-.29.413-.422.629l-2.092-.452-.765 1.848 1.799 1.159c-.059.244-.109.492-.148.743l-2.106.383v2l2.106.383c.039.251.088.499.148.743l-1.799 1.159.765 1.848 2.092-.452c.132.216.273.426.422.629l-1.219 1.761 1.414 1.414 1.761-1.219c.203.149.413.29.629.422l-.452 2.092 1.848.765 1.159-1.799c.244.059.492.109.743.148l.383 2.106h2l.383-2.106c.251-.039.499-.088.743-.148l1.159 1.799 1.848-.765-.452-2.092c.216-.132.426-.273.629-.422l1.761 1.219 1.414-1.414-1.219-1.761c.149-.203.29-.413.422-.629l2.092.452.765-1.848-1.799-1.159c.059-.244.109-.492.148-.743zm-11 3.35c-2.402 0-4.35-1.948-4.35-4.35s1.948-4.35 4.35-4.35 4.35 1.948 4.35 4.35-1.948 4.35-4.35 4.35z"/></svg>