<svg height="32" viewBox="0 0 32 32" width="32" xmlns="http://www.w3.org/2000/svg"><path d="m27 6h-16c-2.75 0-5 2.25-5 5v16c0 2.75 2.25 5 5 5h16c2.75 0 5-2.25 5-5v-16c0-2.75-2.25-5-5-5zm-14 22c-1.657 0-3-1.343-3-3s1.343-3 3-3 3 1.343 3 3-1.343 3-3 3zm0-12c-1.657 0-3-1.343-3-3s1.343-3 3-3 3 1.343 3 3-1.343 3-3 3zm6 6c-1.657 0-3-1.343-3-3s1.343-3 3-3 3 1.343 3 3-1.343 3-3 3zm6 6c-1.657 0-3-1.343-3-3s1.343-3 3-3 3 1.343 3 3-1.343 3-3 3zm0-12c-1.657 0-3-1.343-3-3s1.343-3 3-3 3 1.343 3 3-1.343 3-3 3zm.899-12c-.467-2.275-2.491-4-4.899-4h-16c-2.75 0-5 2.25-5 5v16c0 2.408 1.725 4.432 4 4.899v-19.899c0-1.1.9-2 2-2z"/></svg>