<svg height="32" viewBox="0 0 32 32" width="32" xmlns="http://www.w3.org/2000/svg"><path d="m16 0c-8.837 0-16 7.163-16 16s7.163 16 16 16 16-7.163 16-16-7.163-16-16-16zm0 30c-1.967 0-3.84-.407-5.538-1.139l7.286-8.197c.163-.183.253-.419.253-.664v-3c0-.552-.448-1-1-1-3.531 0-7.256-3.671-7.293-3.707-.188-.188-.442-.293-.707-.293h-4c-.552 0-1 .448-1 1v6c0 .379.214.725.553.894l3.447 1.724v5.871c-3.627-2.53-6-6.732-6-11.489 0-2.147.484-4.181 1.348-6h3.652c.265 0 .52-.105.707-.293l4-4c.188-.188.293-.442.293-.707v-2.419c1.268-.377 2.61-.581 4-.581 2.2 0 4.281.508 6.134 1.412-.13.109-.256.224-.376.345-1.133 1.133-1.757 2.64-1.757 4.243s.624 3.109 1.757 4.243c1.139 1.139 2.663 1.758 4.239 1.758.099 0 .198-.002.297-.007.432 1.619 1.211 5.833-.263 11.635-.014.055-.022.109-.026.163-2.541 2.596-6.084 4.208-10.004 4.208z"/></svg>