<svg height="32" viewBox="0 0 32 32" width="32" xmlns="http://www.w3.org/2000/svg"><path d="m24.306.527c-.174-.324-.513-.527-.881-.527h-14.85c-.368 0-.707.202-.881.527-1.108 2.063-1.694 4.474-1.694 6.973 0 3.294 1.012 6.401 2.849 8.748 1.42 1.814 3.203 3.017 5.151 3.505v10.247h-3c-.552 0-1 .448-1 1s.448 1 1 1h10c.552 0 1-.448 1-1s-.448-1-1-1h-3v-10.247c1.949-.488 3.732-1.691 5.151-3.505 1.837-2.347 2.849-5.454 2.849-8.748 0-2.499-.586-4.91-1.694-6.973zm-15.115 1.473h13.619c.78 1.653 1.191 3.542 1.191 5.5 0 .168-.003.334-.009.5h-15.981c-.006-.166-.009-.332-.009-.5 0-1.958.41-3.847 1.191-5.5z"/></svg>