<svg height="32" viewBox="0 0 32 32" width="32" xmlns="http://www.w3.org/2000/svg"><path d="m16 32c8.837 0 16-7.163 16-16s-7.163-16-16-16-16 7.163-16 16 7.163 16 16 16zm0-29c7.18 0 13 5.82 13 13s-5.82 13-13 13-13-5.82-13-13 5.82-13 13-13zm-10 13v2c0 4.4 3.6 8 8 8h4c4.4 0 8-3.6 8-8v-2zm6 7.656c-.829-.296-1.591-.776-2.236-1.42-1.138-1.138-1.764-2.642-1.764-4.236h4zm6 .344h-4v-6h4zm4.236-1.764c-.645.645-1.407 1.125-2.236 1.42v-5.656h4c0 1.594-.627 3.098-1.764 4.236zm-15.194-10.236c.305 0 .566-.22.616-.522.192-1.146 1.177-1.978 2.341-1.978s2.149.832 2.341 1.978c.05.301.311.522.616.522s.566-.22.616-.521c.034-.201.051-.404.051-.604 0-1.999-1.626-3.625-3.625-3.625s-3.625 1.626-3.625 3.625c0 .199.017.402.051.604.051.301.311.521.616.521zm12 0c.305 0 .566-.22.616-.522.192-1.146 1.177-1.978 2.341-1.978s2.149.832 2.341 1.978c.05.301.311.522.616.522s.566-.22.616-.521c.034-.201.051-.404.051-.604 0-1.999-1.626-3.625-3.625-3.625s-3.625 1.626-3.625 3.625c0 .199.017.402.051.604.051.301.311.521.617.521z"/></svg>