<svg height="32" viewBox="0 0 32 32" width="32" xmlns="http://www.w3.org/2000/svg"><path d="m7 26.46h-.66v-3.59h.66z"/><path d="m8.86 26.23c-.18.175-.426.282-.696.282-.024 0-.048-.001-.072-.003h.003c-.525 0-1-.265-1-.805s.465-.705 1-.755c.415-.04.71-.085.71-.29s-.17-.235-.455-.235c-.016-.002-.034-.003-.053-.003-.218 0-.405.129-.491.314l-.001.003h-.625c.11-.483.536-.837 1.044-.837.044 0 .088.003.131.008h-.005c1 0 1.085.655 1.085.85v1.295c.007.147.032.285.073.417l-.003-.012h-.585c-.026-.066-.047-.144-.059-.224l-.001-.006zm0-.965c-.176.091-.383.149-.601.16h-.004c-.31.03-.5.1-.5.285s.165.235.42.235c.38 0 .69-.13.69-.45z"/><path d="m11.07 26.5c-.004 0-.009 0-.014 0-.293 0-.558-.123-.746-.32v.265h-.61v-3.575h.64v1.34c.189-.18.445-.29.726-.29h.004c.658.073 1.165.626 1.165 1.297s-.507 1.225-1.159 1.297l-.006.001zm-.07-2c-.358.021-.641.317-.641.679 0 .013 0 .025.001.038v-.002c-.001.012-.001.026-.001.041 0 .36.284.654.64.669h.001c.355-.016.636-.307.636-.664 0-.013 0-.025-.001-.037v.002c.001-.015.002-.033.002-.051 0-.359-.281-.653-.635-.674h-.002z"/><path d="m13.355 26.5c-.036.004-.077.007-.118.007-.524 0-.96-.374-1.055-.87l-.001-.007h.645c.1.175.285.291.497.291.012 0 .023 0 .035-.001h-.002c.26 0 .45-.08.45-.225s-.085-.195-.5-.265-1.04-.185-1.04-.74c0-.39.345-.8 1.065-.8.03-.003.064-.005.098-.005.476 0 .874.333.975.778l.001.007h-.68c-.04-.115-.18-.21-.415-.21s-.415.11-.415.2.18.175.5.22c.62.105 1.065.24 1.065.78s-.46.84-1.105.84z"/><path d="m8.035 30.63c-.196.214-.477.347-.789.347-.023 0-.046-.001-.069-.002h.003c-.5 0-.97-.235-.97-.77s.37-.745 1-.775.805-.14.805-.34-.19-.345-.61-.345c-.26 0-.6.08-.645.44h-.41c.03-.5.44-.82 1.075-.82s1 .31 1 .775v1.36c.003.146.03.285.078.414l-.003-.009h-.41c-.032-.081-.052-.175-.055-.274zm0-1.05c-.199.123-.44.196-.698.196-.02 0-.04 0-.06-.001h.003c-.54.035-.66.225-.66.43s.26.385.58.385c.425 0 .825-.18.835-.63z"/><path d="m9.945 31c-.721 0-1.305-.584-1.305-1.305s.584-1.305 1.305-1.305h.022c.53 0 .979.345 1.136.822l.002.008h-.44c-.131-.268-.403-.45-.716-.45-.001 0-.003 0-.004 0-.468.029-.836.416-.836.888 0 .015 0 .029.001.044v-.002c-.001.012-.001.027-.001.041 0 .471.369.855.834.879h.002.01c.312 0 .581-.182.708-.445l.002-.005h.44c-.157.485-.606.83-1.134.83-.009 0-.018 0-.027 0z"/><path d="m13.05 30.63c-.196.214-.477.347-.789.347-.023 0-.046-.001-.069-.002h.003c-.5 0-.97-.235-.97-.77s.37-.745 1-.775.805-.14.805-.34-.19-.345-.61-.345c-.26 0-.605.08-.645.44h-.425c.03-.5.44-.82 1.075-.82s1 .31 1 .775v1.36c.004.146.029.285.073.415l-.003-.01h-.405c-.026-.072-.041-.154-.041-.241 0-.012 0-.024.001-.036zm0-1.05c-.199.123-.44.196-.698.196-.02 0-.04 0-.06-.001h.003c-.54.035-.66.225-.66.43s.26.385.58.385c.425 0 .825-.18.835-.63z"/><path d="m16.215 30.915h-.395v-.415c-.191.276-.504.457-.859.465h-.001c-.688-.044-1.229-.612-1.229-1.308s.541-1.264 1.225-1.307h.004c.346.009.651.179.843.437l.002.003v-1.5h.41zm-1.255-2.165c-.47.05-.834.445-.834.925s.363.875.83.925h.004c.47-.05.834-.445.834-.925s-.363-.875-.83-.925z"/><path d="m18.94 30.145c-.138.497-.587.856-1.119.856-.018 0-.035 0-.053-.001h.003c-.721 0-1.305-.584-1.305-1.305s.584-1.305 1.305-1.305c.689.042 1.233.611 1.233 1.308 0 .029-.001.058-.003.086v-.004h-2.09c.027.456.401.815.86.82.009 0 .02.001.03.001.311 0 .578-.185.698-.451l.002-.005zm-.395-.73c-.076-.381-.407-.664-.805-.664s-.729.283-.804.659l-.001.005z"/><path d="m22.78 30.915h-.41v-1.55c0-.385-.18-.62-.565-.62-.324.01-.582.275-.582.6 0 .018.001.035.002.052v-.002 1.5h-.405v-1.55c0-.385-.195-.62-.56-.62-.328.007-.592.275-.592.605 0 .016.001.032.002.047v-.002 1.5h-.41v-2.5h.395v.27c.147-.204.384-.335.651-.335h.009c.011 0 .024-.001.036-.001.312 0 .585.17.732.422l.002.004c.156-.257.433-.425.751-.425h.026-.001.026c.497 0 .9.403.9.9 0 .035-.002.07-.006.105v-.004z"/><path d="m24.08 31.395c-.084.359-.401.622-.78.622-.058 0-.115-.006-.17-.018l.005.001v-.375c.032.008.07.013.108.013.226 0 .414-.161.456-.375v-.003l.13-.35-.95-2.47h.445l.72 2 .71-2h.44z"/><path d="m16 0-11.135 19.305h22.27zm2.4 11.7 1.1-1.935v5l-.24-.415-1.195-2.08zm-.54.94.5.845.935 1.625h-2.855zm-1.86-3.235.94 1.64.695 1.215-.43.74-1.205 2.11-1.635-2.85zm-.44 5.705h-2.835l1.42-2.47zm-3.06-5.345 1.435 2.5-1.435 2.5zm-.5 6.645.3-.53h7.43l.245.43.06.1h-8.065z" fill="#1a1a1a"/></svg>