<svg height="32" viewBox="0 0 32 32" width="32" xmlns="http://www.w3.org/2000/svg"><path d="m16.79 12.62c-.012 0-.026 0-.04 0-2.209 0-4 1.791-4 4s1.791 4 4 4 4-1.791 4-4c0-2.195-1.768-3.977-3.958-4zm-.05 6.465c-1.381 0-2.5-1.119-2.5-2.5s1.119-2.5 2.5-2.5 2.5 1.119 2.5 2.5v.042-.002c-.023 1.363-1.133 2.46-2.5 2.46z"/><path d="m31.385 9.815c.31-2.155 0-4-.935-5.36.154-.322.245-.701.245-1.1 0-.007 0-.014 0-.022 0-1.48-1.2-2.68-2.68-2.68-.99 0-1.854.536-2.318 1.334l-.007.013c-2.53-.145-5.63.765-8.845 2.59-5.445-3.2-10.39-3.59-12.98-1.065-1.072 1.134-1.731 2.668-1.731 4.355 0 .097.002.193.006.288v-.014c-.968.42-1.633 1.367-1.633 2.47 0 1.473 1.187 2.669 2.656 2.685h.046c.495 1.25 1.01 2.3 1.596 3.303l-.061-.113c-3.2 5.465-3.615 10.415-1.065 13 1.125 1.14 2.72 1.71 4.62 1.725 2.405 0 5.305-.86 8.375-2.605 3.04 1.79 5.93 2.71 8.335 2.725.107.006.233.01.359.01 1.655 0 3.162-.635 4.291-1.674l-.004.004c2.585-2.55 2.24-7.5-.88-13 1.237-1.971 2.148-4.28 2.592-6.752l.018-.118zm-3.385-7.65c.647.003 1.17.528 1.17 1.175 0 .649-.526 1.175-1.175 1.175s-1.175-.526-1.175-1.175c0-.003 0-.007 0-.011v.001c.006-.645.53-1.165 1.175-1.165zm-2.665 1.335c.102 1.395 1.254 2.49 2.664 2.5h.001.024c.511 0 .988-.145 1.392-.397l-.011.006c.39.804.617 1.75.617 2.748 0 .432-.043.855-.124 1.263l.007-.041c-.363 2.109-1.061 3.996-2.044 5.697l.044-.082c-1.317-1.996-2.735-3.736-4.308-5.323l.003.003c-1.577-1.599-3.308-3.039-5.17-4.299l-.12-.076c2.585-1.355 5.02-2.05 7.025-2zm-22.16 8.3c-.647-.003-1.17-.528-1.17-1.175 0-.649.526-1.175 1.175-1.175s1.175.526 1.175 1.175v.011-.001c-.006.645-.53 1.165-1.175 1.165-.002 0-.004 0-.005 0zm1.5 1.065c.72-.488 1.188-1.302 1.188-2.226 0-1.315-.947-2.409-2.196-2.636l-.016-.002c-.001-.038-.002-.083-.002-.128 0-1.264.485-2.414 1.28-3.275l-.003.003c1.945-1.915 5.965-1.545 10.445.9-3.86 2.565-7.088 5.746-9.628 9.437l-.077.118c-.322-.587-.66-1.308-.956-2.051l-.049-.139zm.095 15.575c-1.93-1.94-1.565-5.94.875-10.44 1.318 1.996 2.735 3.736 4.308 5.323l-.003-.003c1.57 1.6 3.291 3.041 5.142 4.304l.118.076c-4.51 2.375-8.54 2.685-10.455.74zm6.255-6.18c-1.673-1.687-3.159-3.565-4.422-5.596l-.078-.134c1.374-2.135 2.893-3.989 4.599-5.654l.006-.006c1.686-1.673 3.562-3.159 5.591-4.422l.134-.078c2.128 1.371 3.978 2.883 5.64 4.58l.005.005c1.672 1.687 3.158 3.562 4.422 5.59l.078.135c-1.374 2.135-2.893 3.989-4.599 5.654l-.006.006c-1.688 1.67-3.563 3.156-5.59 4.421l-.135.079c-2.128-1.372-3.977-2.882-5.64-4.575zm17.57 6.35c-1.945 1.915-5.97 1.55-10.445-.885 1.996-1.318 3.736-2.737 5.322-4.312l-.002.002c1.603-1.57 3.046-3.29 4.31-5.143l.075-.117c2.37 4.51 2.685 8.54.74 10.455z"/></svg>