<svg height="32" viewBox="0 0 32 32" width="32" xmlns="http://www.w3.org/2000/svg"><path d="m27 4.325c-2.816-2.648-6.608-4.287-10.783-4.325h-.007-.055c-.022 0-.049 0-.075 0-3.13 0-6.026 1.005-8.382 2.709l.042-.029c-1.62.954-2.986 2.157-4.091 3.573l-.024.032c-2.05 2.39-3.375 5.63-3.375 9.82v.07s0 .055 0 .085c.093 3.65 1.499 6.954 3.762 9.474l-.012-.014c2.759 3.816 7.194 6.272 12.204 6.28h.001c5.569-.01 10.415-3.096 12.931-7.649l.039-.076c.55-.977 1.024-2.109 1.363-3.298l.027-.112c.751-1.7 1.188-3.682 1.188-5.767 0-4.262-1.828-8.097-4.742-10.763zm-9.925 23.575c-.083.002-.18.003-.278.003-3.37 0-6.432-1.319-8.698-3.468l.006.005c-2.435-2.268-3.988-5.454-4.104-9.004l-.001-.021c-.003-.101-.004-.22-.004-.339 0-1.166.151-2.296.435-3.373l-.021.092c.198-.543.397-.989.621-1.421l-.031.066c1.592-2.865 4.262-4.968 7.448-5.777l.082-.018c.943-.237 2.025-.373 3.14-.373 2.42 0 4.691.641 6.651 1.762l-.066-.035c1.626.904 2.983 2.1 4.041 3.531l.024.034c.145.235.265.5.395.73.713 1.534 1.129 3.329 1.129 5.222 0 2.31-.619 4.475-1.701 6.339l.032-.061c-1.469 2.658-3.79 4.692-6.588 5.761l-.087.029c-.719.176-1.552.29-2.407.315h-.018z" fill="#f00"/></svg>