<svg height="32" viewBox="0 0 32 32" width="32" xmlns="http://www.w3.org/2000/svg"><path d="m0 8.24h1.995v7.005h-1.995z"/><path d="m0 5.905h1.995v1.88h-1.995z"/><path d="m6 8.07c-.005 0-.011 0-.017 0-.611 0-1.167.238-1.579.626l.001-.001v-.455h-1.905v7h2v-4.065c0-.009 0-.019 0-.03 0-.632.513-1.145 1.145-1.145h.006c.021-.001.045-.002.07-.002.583 0 1.055.472 1.055 1.055 0 .05-.003.1-.01.148l.001-.006v4.07h2v-4.09c-.005-1.855-1.11-3.105-2.765-3.105z"/><path d="m12.275 10.755c-.79-.125-1.215-.235-1.215-.47 0-.155.265-.395 1-.395.5 0 .895.175 1 .465l.03.095h2.05l-.025-.16c-.235-1.345-1.435-2.22-3.045-2.22-2.07 0-3 1.19-3 2.295 0 1.7 1.9 2 2.92 2.145 1.235.195 1.295.35 1.295.585s-.43.465-1.075.465c-.031.002-.067.004-.104.004-.515 0-.964-.281-1.202-.697l-.004-.007-.035-.085h-2l.025.16c.215 1.5 1.5 2.465 3.32 2.465s3.085-1 3.085-2.41c-.035-1.615-1.445-1.99-3.02-2.235z"/><path d="m15.37 8.24h1.995v7.005h-1.995z"/><path d="m15.37 5.905h1.995v1.88h-1.995z"/><path d="m22.78 5.25v3.47c-.496-.387-1.128-.62-1.815-.62-.011 0-.021 0-.032 0h.002c-1.87 0-3.335 1.6-3.335 3.65s1.465 3.64 3.335 3.64h.036c.722 0 1.383-.261 1.893-.694l-.004.004v.545h1.92v-10zm0 6.5c.001.023.002.05.002.077 0 .894-.7 1.624-1.583 1.672h-.004c-.885-.037-1.588-.763-1.588-1.654 0-.036.001-.071.003-.106v.005c-.003-.035-.004-.076-.004-.118 0-.897.701-1.63 1.585-1.682h.005c.89.06 1.59.796 1.59 1.696 0 .043-.002.087-.005.129v-.006z"/><path d="m31.045 9.175c-.632-.681-1.532-1.105-2.531-1.105-.019 0-.038 0-.057 0h.003c-2.024 0-3.665 1.641-3.665 3.665s1.641 3.665 3.665 3.665c.053.003.115.005.177.005 1.51 0 2.786-1.004 3.197-2.381l.006-.024.05-.175h-2.105l-.04.07c-.25.431-.71.716-1.236.716-.022 0-.045-.001-.067-.002h.003c-.008 0-.017 0-.026 0-.682 0-1.261-.439-1.471-1.049l-.003-.011h5v-.125c.029-.185.046-.398.046-.614 0-1.004-.357-1.925-.951-2.642l.006.007zm-4.045 1.695c.234-.589.799-.999 1.46-1 .017-.001.037-.001.057-.001.657 0 1.218.411 1.439.991l.004.011z"/><path d="m0 16.6h1.995v9.995h-1.995z"/><path d="m9.035 26.41c-.105-.311-.173-.669-.19-1.042v-.008-3.5c0-.57-.22-2.435-3.07-2.435-1.775-.005-3.11.94-3.275 2.35v.155h2l.03-.1c.14-.5.795-.75 1.345-.75.715 0 1.09.25 1.09.5 0 .4-.635.535-1.795.645-1.34.12-2.88.47-2.88 2.175 0 1.6 1.44 2.32 2.865 2.32.052.003.113.005.174.005.692 0 1.328-.237 1.832-.635l-.006.005c.034.159.079.297.136.43l-.006-.015.04.08h1.775zm-2.065-2.965v.4c0 .97-1.21 1.075-1.73 1.075s-1-.205-1-.5.36-.54 1.25-.635c.542-.039 1.046-.16 1.513-.352z"/><path d="m13.205 19.445c-.003 0-.006 0-.009 0-.69 0-1.326.233-1.833.625l.007-.005v-3.465h-2v10h1.93v-.545c.51.423 1.17.68 1.891.68h.025-.001c1.87 0 3.335-1.595 3.335-3.635s-1.475-3.655-3.345-3.655zm1.34 3.665c.002.029.003.063.003.097 0 .894-.705 1.624-1.589 1.663h-.004c-.887-.051-1.587-.782-1.587-1.677 0-.029.001-.058.002-.087v.004c-.002-.029-.003-.064-.003-.099 0-.899.698-1.636 1.583-1.696h.005c.89.05 1.594.784 1.594 1.683 0 .04-.001.079-.004.118v-.005z"/><path d="m19.835 22.1c-.79-.125-1.215-.235-1.215-.465s.265-.4 1-.4c.5 0 .895.18 1 .47l.035.095h2.045l-.025-.165c-.235-1.345-1.43-2.215-3.045-2.215-2.065 0-3 1.19-3 2.295 0 1.7 1.9 2 2.925 2.145 1.23.19 1.29.345 1.29.585s-.43.465-1.075.465c-.029.002-.062.003-.096.003-.517 0-.968-.28-1.211-.697l-.004-.007-.035-.085h-2v.155c.215 1.5 1.5 2.47 3.32 2.47s3.085-1 3.085-2.41c-.01-1.615-1.42-1.98-2.995-2.24z"/></svg>