<svg height="32" viewBox="0 0 32 32" width="32" xmlns="http://www.w3.org/2000/svg"><path d="m18.915 19.23v-4.135l-.92 1.605-.27.465.99 1.72z"/><path d="m12.65 20.6h6.7l-.05-.08-.2-.355h-6.195z"/><path d="m15.635 19.525-1.175-2.05-1.18 2.05z"/><path d="m13.085 15.095v4.135l1.19-2.065z"/><path d="m25.6 0h-19.2c-3.53.011-6.389 2.87-6.4 6.399v19.201c.011 3.53 2.87 6.389 6.399 6.4h19.201c3.53-.011 6.389-2.87 6.4-6.399v-19.201c-.011-3.53-2.87-6.389-6.399-6.4h-.001zm-18.85 23 9.25-16 9.25 16z"/><path d="m16.37 19.525h2.355l-.775-1.345-.405-.705-1.18 2.05z"/><path d="m16 19.525 1-1.735.365-.63-1.365-2.365-1.36 2.365z"/></svg>