<svg height="32" viewBox="0 0 32 32" width="32" xmlns="http://www.w3.org/2000/svg"><path d="m28.87 4.93c-1.492-1.664-3.647-2.705-6.047-2.705-2.366 0-4.495 1.013-5.978 2.629l-.005.006-.84.875-.81-.875c-1.487-1.621-3.615-2.634-5.98-2.634s-4.493 1.013-5.975 2.628l-.005.006c-1.548 1.643-2.5 3.864-2.5 6.307v.051-.003.044c0 2.444.952 4.666 2.504 6.316l-.004-.005 10.57 11.23c.55.601 1.339.977 2.215.977s1.665-.376 2.213-.974l.002-.002 10.5-11.16c1.555-1.686 2.509-3.948 2.509-6.433 0-2.411-.898-4.612-2.378-6.287l.009.01zm-1.245 11.535-10.5 11.16c-.275.301-.669.488-1.108.488s-.832-.188-1.106-.487l-.001-.001-10.575-11.235c-1.252-1.357-2.02-3.178-2.02-5.178s.768-3.82 2.025-5.183l-.005.005c1.213-1.321 2.947-2.146 4.875-2.146s3.662.825 4.871 2.141l.004.005.825.88-1.265 1.345c-.142.154-.228.361-.228.588s.087.433.229.588l-.001-.001c.139.149.336.243.555.245.218-.002.413-.096.55-.244l.001-.001 3.2-3.4c1.212-1.321 2.946-2.146 4.873-2.146 1.955 0 3.712.85 4.922 2.2l.006.006c1.202 1.356 1.937 3.15 1.937 5.116 0 2.031-.784 3.88-2.066 5.259l.004-.005z"/><path d="m28.525 10.835c-.082-1.521-.699-2.884-1.663-3.919l.003.004c-.665-.715-1.509-1.255-2.46-1.549l-.04-.011c-.062-.018-.133-.028-.207-.028-.368 0-.676.258-.752.603l-.001.005c-.016.062-.026.133-.026.206 0 .366.234.677.56.792l.006.002c.722.22 1.336.611 1.818 1.128l.002.002c.697.75 1.144 1.74 1.204 2.833l.001.012c.013.425.355.767.779.78h.001.05c.41-.044.727-.388.727-.806 0-.019-.001-.038-.002-.057z"/></svg>