<svg height="32" viewBox="0 0 32 32" width="32" xmlns="http://www.w3.org/2000/svg"><g fill="#f00"><path d="m21.73 12.365c-.596-.823-1.35-1.495-2.22-1.982l-.035-.018c-1.048-.608-2.306-.966-3.648-.966-.622 0-1.226.077-1.803.222l.051-.011c-1.827.47-3.317 1.655-4.183 3.231l-.017.034c-.102.201-.21.452-.304.71l-.016.05c-.145.548-.228 1.178-.228 1.827 0 .073.001.146.003.219v-.011c.063 2.006.928 3.798 2.281 5.077l.004.003c1.248 1.202 2.948 1.942 4.821 1.942.063 0 .125-.001.188-.003h-.009c.477-.018.93-.086 1.364-.2l-.044.01c1.612-.622 2.907-1.769 3.702-3.228l.018-.037c.583-1.017.926-2.235.926-3.533 0-1.064-.231-2.074-.645-2.982l.018.045c-.075-.13-.14-.265-.225-.4z"/><path d="m25.6 0h-19.2c-3.53.011-6.389 2.87-6.4 6.399v19.201c.011 3.53 2.87 6.389 6.399 6.4h19.201c3.53-.011 6.389-2.87 6.4-6.399v-19.201c-.011-3.53-2.87-6.389-6.399-6.4h-.001zm-1.5 18.73c-.203.733-.466 1.37-.794 1.967l.024-.047c-1.406 2.598-4.106 4.337-7.213 4.35h-.002c-2.793-.008-5.261-1.392-6.763-3.509l-.017-.026c-1.254-1.416-2.036-3.274-2.085-5.315v-.01-.085c-.002-.072-.003-.156-.003-.241 0-2.002.709-3.839 1.89-5.273l-.011.014c.624-.824 1.383-1.509 2.249-2.035l.036-.02c1.285-.938 2.895-1.5 4.636-1.5h.041.028c2.33.022 4.44.944 6.004 2.433l-.004-.003c1.624 1.515 2.637 3.668 2.637 6.057 0 1.172-.244 2.286-.683 3.296l.021-.053z"/></g></svg>