<svg height="32" viewBox="0 0 32 32" width="32" xmlns="http://www.w3.org/2000/svg"><path d="m20.06 11.285c-.695.042-1.243.616-1.243 1.318 0 .031.001.061.003.091v-.004c-.001.023-.002.049-.002.076 0 .698.55 1.267 1.239 1.299h.003c.694-.04 1.241-.613 1.241-1.313 0-.022-.001-.044-.002-.065v.003c.001-.023.002-.05.002-.078 0-.704-.546-1.28-1.238-1.327h-.004z"/><path d="m6.81 22.575c0 .235.325.395.785.395s1.35-.08 1.35-.845v-.305c-.339.137-.732.23-1.142.259l-.013.001c-.695.075-.98.22-.98.495z"/><path d="m25.6 0h-19.2c-3.53.011-6.389 2.87-6.4 6.399v19.201c.011 3.53 2.87 6.389 6.399 6.4h19.201c3.53-.011 6.389-2.87 6.4-6.399v-19.201c-.011-3.53-2.87-6.389-6.399-6.4h-.001zm-10.1 8.11h1.56v1.47h-1.56zm0 1.83h1.56v5.47h-1.56zm-2.67 3.335c-.795-.12-2.28-.345-2.28-1.675 0-.865.735-1.795 2.35-1.795 1.26 0 2.195.68 2.38 1.735v.125h-1.6l-.025-.075c-.075-.225-.375-.365-.775-.365-.56 0-.77.19-.77.31s.33.27.95.365c1.23.205 2.33.5 2.33 1.75 0 1.11-1 1.885-2.41 1.885s-2.425-.76-2.595-1.93v-.125h1.56l.03.07c.189.329.539.547.939.547.021 0 .043-.001.064-.002h-.003c.5 0 .84-.145.84-.365s-.01-.305-.975-.455zm-7.4-3.335h1.5v.35c.325-.308.765-.498 1.25-.5 1.29 0 2.155.975 2.155 2.425v3.18h-1.55v-3.165c.005-.034.008-.072.008-.112 0-.456-.369-.825-.825-.825-.019 0-.037.001-.055.002h.002c-.006 0-.014 0-.021 0-.494 0-.895.401-.895.895 0 .014 0 .028.001.042v-.002 3.18h-1.56zm-1.93-1.83h1.56v1.47h-1.56zm0 1.83h1.56v5.47h-1.56zm1.56 14.335h-1.56v-7.81h1.56zm4.095 0-.03-.06c-.042-.093-.077-.202-.098-.316l-.002-.009c-.391.313-.894.502-1.44.502-.037 0-.074-.001-.11-.003h.005c-1.115 0-2.235-.56-2.235-1.815 0-1.33 1.2-1.605 2.245-1.7.91-.08 1.405-.19 1.405-.5 0-.195-.295-.39-.855-.39-.425 0-.94.18-1.05.585v.075h-1.55v-.12c.15-1.1 1.18-1.84 2.575-1.84 2.23 0 2.4 1.46 2.4 1.905v2.735c.014.299.067.581.156.847l-.006-.022.05.14zm9.765.125c-1.41 0-2.425-.76-2.595-1.93v-.09c-.282 1.144-1.29 1.982-2.498 2h-.002c-.005 0-.012 0-.018 0-.565 0-1.083-.202-1.486-.538l.004.003v.42h-1.5v-7.8h1.57v2.71c.389-.31.887-.497 1.429-.5h.001c1.452.053 2.609 1.243 2.609 2.703 0 .052-.001.103-.004.154v-.007.008c0 .282-.037.555-.105.815l.005-.022h1.55v.07c.192.33.543.548.946.548.028 0 .056-.001.083-.003h-.004c.5 0 .84-.145.84-.365s-.05-.305-1-.455c-.8-.12-2.285-.345-2.285-1.675 0-.865.735-1.795 2.35-1.795 1.26 0 2.195.68 2.38 1.735v.125h-1.6v-.075c-.075-.225-.37-.365-.775-.365-.56 0-.77.19-.77.31s.335.27.95.365c1.23.205 2.335.5 2.335 1.75 0 1.13-.995 1.905-2.41 1.905zm3.94-9h-1.5v-.4c-.394.333-.907.535-1.468.535-.011 0-.023 0-.034 0h.002c-1.451-.051-2.609-1.239-2.609-2.698 0-.05.001-.099.004-.148v.007c-.003-.044-.004-.095-.004-.147 0-1.461 1.156-2.652 2.604-2.708h.005.008c.545 0 1.046.188 1.442.504l-.005-.004v-2.74h1.56zm5.64-2.19v.095h-3.945c.166.486.619.83 1.152.83h.018-.001c.011 0 .023.001.035.001.41 0 .768-.221.962-.55l.003-.005.03-.06h1.645l-.04.14c-.327 1.094-1.325 1.878-2.505 1.878-.047 0-.094-.001-.141-.004h.007c-1.582 0-2.865-1.283-2.865-2.865s1.283-2.865 2.865-2.865h.028c.778 0 1.479.33 1.97.858l.002.002c.5.567.806 1.317.806 2.138 0 .143-.009.285-.027.423l.002-.016z"/><path d="m25.725 11.205h-.001c-.521 0-.966.327-1.141.787l-.003.008h2.31c-.169-.468-.609-.796-1.126-.796-.014 0-.027 0-.041.001z"/><path d="m13.62 20.15c-.694.05-1.237.625-1.237 1.327 0 .028.001.055.002.082v-.004c-.005.041-.008.088-.008.136 0 .688.557 1.245 1.245 1.245s1.245-.557 1.245-1.245c0-.048-.003-.096-.008-.142l.001.006c.002-.026.003-.057.003-.087 0-.702-.548-1.276-1.239-1.318z"/></svg>