<svg height="32" viewBox="0 0 32 32" width="32" xmlns="http://www.w3.org/2000/svg"><g fill="#f00"><path d="m6.275 14.88c-.027-.002-.058-.003-.089-.003-.42 0-.799.178-1.066.462l-.001.001c-.252.331-.404.75-.404 1.205s.152.874.407 1.21l-.004-.005c.267.285.646.463 1.066.463.031 0 .062-.001.093-.003h-.004c.027.002.058.003.089.003.42 0 .799-.178 1.066-.462l.001-.001c.252-.331.404-.75.404-1.205s-.152-.874-.407-1.21l.004.005c-.267-.285-.646-.463-1.066-.463-.031 0-.062.001-.093.003z"/><path d="m25.6 0h-19.2c-3.53.011-6.389 2.87-6.4 6.399v19.201c.011 3.53 2.87 6.389 6.399 6.4h19.201c3.53-.011 6.389-2.87 6.4-6.399v-19.201c-.011-3.53-2.87-6.389-6.399-6.4h-.001zm-16.075 17.965c-.351.835-1.021 1.477-1.853 1.783l-.022.007c-.41.155-.883.245-1.377.245s-.968-.09-1.405-.254l.028.009c-.852-.316-1.519-.957-1.862-1.769l-.008-.021c-.174-.402-.276-.87-.276-1.361 0-.021 0-.041.001-.062v.003c0-.017 0-.037 0-.057 0-.494.101-.964.284-1.391l-.009.023c.181-.426.434-.789.749-1.089l.001-.001c.312-.297.685-.533 1.098-.688l.022-.007c.41-.155.883-.245 1.377-.245s.968.09 1.405.254l-.028-.009c.853.313 1.522.953 1.867 1.764l.008.021c.174.404.275.874.275 1.368 0 .02 0 .04-.001.06v-.003c0 .018.001.038.001.059 0 .492-.101.959-.284 1.384zm10.56 1.87h-1.96v-3.835c0-.012.001-.027.001-.042 0-.276-.071-.536-.195-.762l.004.008c-.126-.202-.347-.334-.599-.334-.025 0-.05.001-.074.004h.003c-.015-.001-.033-.001-.051-.001-.189 0-.367.043-.527.119l.007-.003c-.15.073-.273.18-.363.312l-.002.003c-.089.136-.157.295-.193.466l-.002.009c-.038.168-.06.36-.06.558v.013-.001 3.5h-1.96v-3.5c0-.115 0-.26 0-.435-.008-.181-.04-.352-.094-.513l.004.013c-.055-.156-.143-.288-.255-.395-.124-.1-.284-.161-.458-.161-.015 0-.03 0-.044.001h.002c-.018-.001-.038-.001-.059-.001-.204 0-.396.052-.562.145l.006-.003c-.154.091-.277.22-.358.375l-.002.005c-.081.155-.139.336-.164.527l-.001.008c-.022.178-.035.383-.035.592v.035-.002 3.275h-1.985v-6.565h1.89v.895c.075-.145.162-.269.262-.382l-.002.002c.118-.126.251-.237.397-.33l.008-.005c.154-.097.331-.18.518-.24l.017-.005c.188-.06.403-.095.627-.095h.029-.001.046c.415 0 .806.106 1.146.292l-.012-.006c.353.2.625.51.771.883l.004.012c.188-.38.47-.689.816-.905l.009-.005c.322-.171.704-.271 1.11-.271.028 0 .056.001.084.001h-.004c.022-.001.048-.001.075-.001.364 0 .708.083 1.014.232l-.014-.006c.285.142.518.349.686.604l.004.006c.171.259.298.563.362.889l.003.016c.073.33.115.71.115 1.099v.022-.001zm6.57 0h-1.96v-3.225c0-.185 0-.385 0-.585-.009-.205-.05-.398-.119-.578l.004.013c-.064-.169-.167-.31-.298-.419l-.002-.001c-.144-.102-.324-.163-.517-.163-.024 0-.047.001-.071.003h.003c-.016-.001-.036-.001-.055-.001-.203 0-.395.052-.561.144l.006-.003c-.155.09-.278.219-.358.375l-.002.005c-.081.155-.139.336-.164.527l-.001.008c-.031.182-.052.398-.06.617v.008 3.275h-1.955v-6.585h1.88v.895c.075-.145.162-.269.262-.382l-.002.002c.119-.126.251-.237.397-.33l.008-.005c.154-.097.331-.18.518-.24l.017-.005c.188-.06.403-.095.627-.095h.029-.001c.031-.001.067-.002.103-.002.397 0 .774.087 1.113.244l-.016-.007c.308.154.558.385.731.667l.004.008c.171.288.293.625.343.986l.002.014c.061.353.095.759.095 1.173v.06-.003zm2.44 0h-1.96v-6.585h1.96zm-.18-7.835c-.193.215-.472.35-.783.35-.006 0-.012 0-.018 0h.001c-.004 0-.009 0-.013 0-.313 0-.595-.135-.791-.349l-.001-.001c-.192-.206-.31-.483-.31-.788 0-.011 0-.023 0-.034v.002c0-.007 0-.014 0-.022 0-.316.126-.603.33-.813.196-.211.475-.343.785-.345h.015c.31 0 .59.133.784.344l.001.001c.208.215.336.509.336.832s-.128.617-.336.833z"/></g></svg>