<svg height="32" viewBox="0 0 32 32" width="32" xmlns="http://www.w3.org/2000/svg"><path d="m29.34 23.745c-1.518-1.452-3.297-2.645-5.259-3.5l-.116-.045c-.69-.315-1.4-.59-2.085-.855l-.5-.205c-.484-.142-.858-.516-.997-.99l-.003-.01c-.009-.054-.014-.115-.014-.178 0-.359.162-.681.417-.895l.002-.001c2.43-2.395 3.59-5.5 3.445-9.23-.155-3.58-2.15-5.87-5.945-6.805-.659-.168-1.417-.269-2.198-.28h-.007c-.779.012-1.529.113-2.247.294l.067-.014c-3.8.935-5.795 3.225-5.935 6.805-.14 3.735 1 6.75 3.44 9.225.257.221.419.547.419.911 0 .065-.005.129-.015.191l.001-.007c-.142.484-.516.858-.99.997l-.01.003-.5.205c-.685.265-1.395.54-2.085.86-2.082.891-3.865 2.078-5.392 3.532l.007-.007c-.69.633-1.12 1.538-1.12 2.544 0 .161.011.319.032.473l-.002-.018c.14.805.665 1.92 2.39 2.755.757.363 1.642.675 2.565.892l.09.018c2.885.685 5.785.79 9.315.86 3.5-.07 6.395-.175 9.28-.86 1.014-.237 1.899-.549 2.738-.945l-.082.035c1.124-.48 1.949-1.467 2.196-2.666l.004-.024c.034-.186.054-.4.054-.619 0-.946-.365-1.806-.961-2.448l.002.002zm-.735 2.755c-.144.692-.623 1.247-1.256 1.495l-.014.005c-.664.309-1.444.575-2.255.76l-.08.015c-2.72.64-5.535.725-8.89.815-3.395-.07-6.21-.175-8.935-.815-.887-.2-1.663-.467-2.399-.806l.074.031c-.85-.425-1.35-.945-1.465-1.5-.008-.062-.012-.135-.012-.208 0-.547.242-1.038.625-1.37l.002-.002c1.385-1.313 3.008-2.393 4.793-3.169l.107-.041c.64-.295 1.325-.56 2-.815l.53-.205c.992-.352 1.74-1.164 1.995-2.174l.005-.021c.031-.157.048-.338.048-.522 0-.822-.347-1.564-.902-2.086l-.001-.001c-2.115-2.125-3.085-4.735-2.955-8 .105-2.825 1.59-4.5 4.67-5.255.53-.137 1.142-.221 1.771-.235h.009c.646.012 1.267.097 1.862.247l-.057-.012c3.075.755 4.56 2.43 4.67 5.255.125 3.29-.84 5.9-2.95 8-.564.517-.916 1.258-.916 2.081 0 .18.017.356.049.527l-.003-.018c.251 1.041 1.002 1.865 1.978 2.213l.022.007.53.205c.665.255 1.345.5 2 .815 1.893.815 3.515 1.896 4.907 3.217l-.007-.007c.295.336.475.779.475 1.265 0 .11-.009.217-.027.322l.002-.011z"/></svg>