<svg height="32" viewBox="0 0 32 32" width="32" xmlns="http://www.w3.org/2000/svg"><path d="m31.745 14.75c-.073-4.125-1.866-7.816-4.689-10.4l-.011-.01c-5.755-5.315-13.985-5.735-19.66-1.34-1.33.842-2.466 1.847-3.421 3.006l-.019.024c-2.24 2.435-3.695 5.825-3.695 10.26 0 3.465 1.5 6.845 3.84 9.5 2.757 3.772 7.162 6.197 12.133 6.21h.002c5.55-.007 10.382-3.077 12.897-7.609l.038-.076c.578-1.021 1.066-2.202 1.405-3.446l.025-.109c.732-1.692 1.158-3.662 1.158-5.731 0-.098-.001-.196-.003-.294zm-15.535-14.25c4.071.034 7.762 1.632 10.508 4.222l-.008-.007c2.803 2.562 4.555 6.235 4.555 10.316 0 .695-.051 1.377-.149 2.045l.009-.076c0-.215 0-.435 0-.65.011-.206.017-.447.017-.69 0-5.479-3.06-10.244-7.565-12.678l-.076-.038c-1.689-.942-3.665-1.606-5.764-1.872l-.081-.008c-.766-.139-1.647-.218-2.547-.218-1.194 0-2.356.14-3.469.403l.102-.02c1.331-.463 2.865-.73 4.462-.73h.009zm2.29 29.755c-.19.035-.375.05-.56.075.583-.099 1.075-.214 1.556-.354l-.096.024c.125-.035.24-.085.365-.125l.17-.035c-.374.139-.854.281-1.344.397zm5.28-2.455h-.045c3.867-2.843 6.348-7.375 6.348-12.487 0-.11-.001-.22-.003-.329v.016c.04.43.07.86.07 1.3-.063 2.896-1.013 5.559-2.588 7.74l.028-.04c-1.072 1.475-2.331 2.732-3.761 3.766zm-22.085-13.05c-.001.049-.001.106-.001.164 0 4.408 1.864 8.381 4.847 11.173l.009.008c2.627 2.468 6.152 4.006 10.036 4.075h.014c-.368.035-.795.055-1.226.055-.874 0-1.73-.082-2.559-.238l.085.013c-6.427-1.612-11.14-7.263-11.305-14.042v-.018c.02-.395.05-.795.1-1.19zm15.5 14.925c-.101.003-.22.004-.339.004-3.856 0-7.361-1.505-9.958-3.96l.007.006c-2.909-2.73-4.721-6.599-4.721-10.892 0-1.321.172-2.602.494-3.822l-.023.104c.248-.605.488-1.098.753-1.575l-.038.075c3.81-6.86 12.51-9.115 19.81-5.145 1.875 1.031 3.44 2.399 4.663 4.037l.027.038c.248.38.507.834.742 1.302l.038.083c.207.467.413 1.044.581 1.637l.024.098c.31 1.126.489 2.418.489 3.752 0 2.666-.712 5.165-1.956 7.319l.038-.071c-1.557 2.816-3.926 5.02-6.788 6.332l-.092.038c-1.115.362-2.402.593-3.736.639l-.024.001zm-9.545-26c2.216-1.212 4.854-1.926 7.659-1.926.05 0 .099 0 .148.001h-.008.036c2.728 0 5.283.743 7.472 2.037l-.068-.037c-6.815-3.39-14.67-1.66-18.89 4.005.507-.916 1.06-1.707 1.686-2.434l-.016.019c.593-.605 1.241-1.152 1.936-1.636l.044-.029zm-5.875 15.355c.776 3.209 2.475 5.943 4.798 7.985l.017.015c-2.025-1.719-3.576-3.936-4.468-6.465l-.032-.105c-.135-.46-.235-.96-.315-1.43zm1.225 3.97c.647 1.139 1.381 2.124 2.221 3.006l-.006-.006c-.665-.664-1.264-1.394-1.788-2.178l-.033-.052c-.13-.235-.26-.5-.395-.77zm12.45-21.75c-.743.004-1.469.057-2.181.155l.086-.01c.706-.121 1.519-.19 2.349-.19h.081-.004c.863.04 1.674.145 2.463.312l-.098-.017c-.808-.155-1.739-.246-2.691-.25h-.004zm-11.855 6.165c-.19.34-.375.68-.535 1.03-.686 1.259-1.208 2.72-1.487 4.266l-.013.089c-.107.391-.214.898-.294 1.414l-.011.086c.152-2.208.781-4.239 1.782-6.033l-.037.073c.195-.34.395-.62.595-.925zm-2.515 9.585c0 .315 0 .635.045.95-.134-.744-.211-1.599-.211-2.473 0-2.607.682-5.055 1.879-7.175l-.038.073.035-.055c-1.132 2.04-1.799 4.474-1.799 7.064 0 .569.032 1.131.095 1.684zm12.64 13.5.555.085c-.245 0-.5-.065-.74-.105zm14.555-22.255c-.135-.205-.27-.41-.415-.61-.719-1.11-1.545-2.066-2.485-2.897l-.015-.013c1.618 1.333 2.918 2.989 3.813 4.874l.037.086c-.32-.559-.629-1.029-.963-1.48zm2.285 9.755c-.041.539-.105 1.023-.193 1.5l.013-.084c-.277 1.056-.619 1.969-1.04 2.836l.04-.091c-.17.29-.34.58-.53.865.815-1.452 1.413-3.143 1.699-4.938l.011-.087zm-.275-5.96c-.779-2.923-2.377-5.401-4.531-7.249l-.019-.016c2.581 2.133 4.38 5.132 4.949 8.548l.011.082c-.115-.475-.25-.905-.41-1.38zm-1.565 12.05c-3.525 6.31-10.555 8.91-17.1 6.645 1.143.367 2.459.584 3.824.595h.006c2.672-.039 5.158-.806 7.277-2.11l-.062.035c1.91-.933 3.52-2.197 4.817-3.733l.018-.022.07-.065c.416-.453.816-.941 1.188-1.453l.032-.047c-.024.039-.048.085-.068.133l-.002.007z" fill="#f00"/></svg>