<svg height="32" viewBox="0 0 32 32" width="32" xmlns="http://www.w3.org/2000/svg"><path d="m20.185 24.25c-.002 0-.005 0-.008 0-.128 0-.243-.056-.322-.145v.12h-.27v-1.615h.28v.605c.081-.083.194-.135.319-.135h.001c.283.028.501.265.501.552 0 .013 0 .026-.001.039v-.002c.001.01.001.021.001.032 0 .287-.219.522-.499.548h-.002zm-.04-.9c-.159.021-.28.155-.28.317s.121.297.278.317h.002c.159-.021.28-.155.28-.317s-.121-.297-.278-.317z"/><path d="m21.27 24.43c-.042.188-.208.326-.405.326-.034 0-.066-.004-.098-.012l.003.001v-.245c.14 0 .205 0 .25-.155l.035-.085-.425-1.14h.3l.265.81.26-.81h.3z"/><path d="m22.61 23h-.28v-.27h.28zm0 1.24h-.28v-1.135h.28z"/><path d="m23.735 24.225h-.28v-.655c.001-.008.002-.016.002-.025 0-.108-.087-.195-.195-.195-.002 0-.005 0-.007 0s-.003 0-.005 0c-.116 0-.21.094-.21.21v.011.655h-.28v-1.12h.27v.11c.066-.083.166-.135.279-.135h.001c.238.003.43.197.43.435 0 .023-.002.046-.005.067v-.002z"/><path d="m24.32 24.255c-.011.001-.023.001-.036.001-.234 0-.427-.17-.464-.394v-.003h.28c.043.078.125.13.22.13h.016-.001c.11 0 .195-.035.195-.1s-.035-.085-.225-.12-.455-.085-.455-.335c0-.175.15-.355.465-.355.013-.001.028-.002.043-.002.211 0 .387.15.427.349v.003h-.285c0-.055-.08-.095-.18-.095s-.185.05-.185.09.08.075.215.1c.275.045.47.105.47.35s-.22.38-.5.38z"/><path d="m25.17 23h-.28v-.27h.28zm0 1.24h-.28v-1.135h.28z"/><path d="m26.38 24.225h-.265v-.12c-.081.089-.197.145-.327.145-.003 0-.006 0-.009 0-.282-.026-.501-.261-.501-.548 0-.011 0-.023.001-.034v.002c-.001-.011-.001-.024-.001-.038 0-.288.219-.524.499-.552h.002.001c.125 0 .238.052.319.135v-.605h.28zm-.56-.875c-.012-.002-.026-.003-.04-.003-.177 0-.32.143-.32.32s.143.32.32.32c.176 0 .319-.142.32-.317 0-.006.001-.013.001-.021 0-.159-.124-.289-.28-.299z"/><path d="m26.755 23.78c.029.127.14.22.273.22h.002.008c.095 0 .178-.052.222-.129l.001-.001h.295c-.054.223-.251.385-.487.385-.005 0-.009 0-.014 0h.001c-.009 0-.019.001-.029.001-.326 0-.59-.264-.59-.59s.264-.59.59-.59.59.264.59.59c0 .04-.004.08-.012.118l.001-.004zm.545-.235c-.028-.124-.138-.215-.268-.215-.001 0-.001 0-.002 0-.131.001-.24.092-.27.213v.002z"/><path d="m28.5 24.225h-.28v-1.615h.28z"/><path d="m29.365 24.125c-.079.078-.188.126-.308.126-.009 0-.019 0-.028-.001h.001c-.23 0-.44-.12-.44-.365s.205-.315.445-.34.31-.04.31-.13-.075-.105-.195-.105c-.007-.001-.016-.001-.024-.001-.096 0-.178.057-.215.14l-.001.002h-.28c.045-.214.232-.372.456-.372.016 0 .031.001.046.002h-.002c.445 0 .475.29.475.38v.585c.003.065.016.127.036.184l-.001-.004h-.255c-.013-.03-.02-.064-.02-.1zm0-.44c-.075.042-.164.069-.258.075h-.002c-.14 0-.225.045-.225.13s.07.105.185.105.3-.06.3-.205z"/><path d="m30.375 24.25c-.002 0-.005 0-.008 0-.128 0-.243-.056-.322-.145v.12h-.27v-1.615h.28v.605c.081-.083.194-.135.319-.135h.001c.283.028.501.265.501.552 0 .013 0 .026-.001.039v-.002c.001.01.001.021.001.032 0 .287-.219.522-.499.548h-.002zm-.04-.9c-.159.021-.28.155-.28.317s.121.297.278.317h.002c.159-.021.28-.155.28-.317s-.121-.297-.278-.317z"/><path d="m31.42 24.255c-.003 0-.007 0-.011 0-.239 0-.439-.168-.488-.392l-.001-.003h.285c.041.078.121.131.214.131.006 0 .012 0 .017-.001h-.001c.115 0 .2-.035.2-.1s-.04-.085-.23-.12-.455-.085-.455-.335c0-.175.15-.355.465-.355.019-.003.042-.005.064-.005.214 0 .392.151.435.352l.001.003h-.29c0-.055-.08-.095-.185-.095s-.18.05-.18.09.08.075.215.1c.27.045.465.105.465.35s-.24.38-.52.38z"/><path d="m21.5 12.14h2.27v1.07h.035c.085-.173.191-.321.316-.45v.001c.143-.158.308-.293.49-.4l.01-.005c.186-.12.399-.221.627-.29l.018-.005c.23-.073.495-.115.77-.115h.016-.001c.039-.002.085-.003.131-.003.48 0 .935.106 1.344.296l-.02-.008c.344.182.625.443.825.761l.005.009c.205.339.353.737.418 1.162l.002.018c.07.425.11.915.11 1.415v.09-.005 4.35h-2.365v-3.865c0-.23 0-.465 0-.705-.012-.246-.063-.476-.145-.69l.005.015c-.076-.203-.201-.372-.363-.498l-.002-.002c-.174-.124-.391-.198-.626-.198-.026 0-.052.001-.078.003h.003c-.02-.001-.043-.002-.066-.002-.247 0-.479.064-.681.175l.007-.004c-.185.108-.333.261-.432.444l-.003.006c-.098.187-.167.405-.194.636l-.001.009c-.031.223-.049.481-.05.744v3.926h-2.375z"/><path d="m8.885 12.14h2.27v1.07h.035c.085-.173.191-.321.316-.45l-.001.001c.143-.157.308-.292.49-.4l.01-.005c.187-.119.402-.219.631-.29l.019-.005c.23-.073.495-.115.77-.115h.016-.001c.017 0 .038-.001.058-.001.502 0 .975.128 1.387.353l-.015-.008c.424.24.751.61.93 1.056l.005.014c.228-.457.57-.827.989-1.083l.012-.007c.39-.206.853-.326 1.344-.326.032 0 .064.001.096.002h-.005c.027-.001.059-.002.092-.002.439 0 .855.1 1.225.279l-.017-.007c.342.171.624.419.83.723l.005.008c.203.311.356.674.436 1.065l.004.02c.086.392.135.843.135 1.305v.036-.002 4.655h-2.385v-4.59c0-.016.001-.034.001-.053 0-.329-.084-.638-.231-.907l.005.01c-.155-.242-.422-.4-.726-.4-.031 0-.062.002-.092.005h.004c-.015-.001-.033-.001-.05-.001-.23 0-.448.05-.644.14l.01-.004c-.179.09-.327.219-.438.376l-.003.004c-.108.163-.191.354-.238.558l-.002.012c-.044.204-.07.439-.07.68v4.17h-2.365v-4.17c0-.14 0-.315 0-.5-.008-.21-.048-.408-.114-.594l.004.014c-.063-.186-.168-.344-.304-.469l-.001-.001c-.153-.123-.349-.197-.562-.197-.022 0-.044.001-.066.002h.003c-.02-.001-.043-.002-.066-.002-.247 0-.479.064-.681.175l.007-.004c-.185.108-.333.261-.432.444l-.003.006c-.098.187-.167.405-.194.636l-.001.009c-.032.214-.05.461-.05.712v.035-.002 3.925h-2.38z"/><path d="m0 16.085c0-.018 0-.04 0-.062 0-.593.121-1.158.341-1.671l-.011.028c.22-.51.526-.944.903-1.303l.002-.002c.38-.356.833-.639 1.332-.826l.028-.009c.487-.187 1.05-.295 1.638-.295h.023-.001.025c.589 0 1.153.108 1.672.306l-.032-.011c.526.195.977.479 1.357.837l-.002-.002c.381.36.687.794.895 1.28l.01.025c.212.503.335 1.089.335 1.702s-.123 1.199-.345 1.732l.011-.03c-.218.511-.524.945-.903 1.303l-.002.002c-.378.356-.829.64-1.328.826l-.027.009c-.487.187-1.051.295-1.64.295-.009 0-.018 0-.026 0h.001c-.006 0-.014 0-.022 0-.588 0-1.151-.108-1.67-.306l.032.011c-.527-.196-.98-.479-1.362-.837l.002.002c-.379-.361-.685-.795-.895-1.28l-.01-.025c-.209-.485-.33-1.049-.33-1.642 0-.02 0-.041 0-.061v.003zm2.365 0c-.001.026-.002.056-.002.087 0 .518.19.992.504 1.356l-.002-.003c.323.341.78.553 1.286.553.038 0 .077-.001.115-.004h-.005c.033.002.071.003.109.003.506 0 .962-.212 1.285-.553l.001-.001c.312-.358.502-.83.502-1.346 0-.033-.001-.066-.002-.099v.005c.002-.029.002-.064.002-.099 0-.516-.19-.988-.505-1.349l.002.002c-.323-.341-.78-.553-1.286-.553-.038 0-.077.001-.115.004h.005c-.033-.002-.071-.003-.109-.003-.506 0-.962.212-1.285.553l-.001.001c-.312.362-.502.836-.502 1.355 0 .032.001.063.002.094v-.004z"/><path d="m29.255 9.66c0-.009 0-.019 0-.029 0-.38.155-.723.405-.971.238-.256.577-.415.952-.415h.019-.001.011c.378 0 .718.159.958.414l.001.001c.247.249.4.593.4.972v.03-.001.02c0 .382-.153.728-.4.98-.239.253-.577.41-.952.41-.006 0-.013 0-.019 0h.001c-.007 0-.016 0-.024 0-.373 0-.709-.157-.945-.41l-.001-.001c-.25-.251-.405-.597-.405-.979 0-.007 0-.015 0-.022zm.19 2.5h2.365v7.865h-2.365z"/></svg>