<svg height="32" viewBox="0 0 32 32" width="32" xmlns="http://www.w3.org/2000/svg"><path d="m16 0c-4.347 0-4.889.02-6.596.096-1.704.08-2.864.348-3.884.744-1.052.408-1.945.956-2.835 1.845s-1.439 1.781-1.845 2.835c-.396 1.02-.665 2.18-.744 3.884-.08 1.707-.096 2.249-.096 6.596s.02 4.889.096 6.596c.08 1.703.348 2.864.744 3.884.408 1.051.956 1.945 1.845 2.835.889.888 1.781 1.439 2.835 1.845 1.021.395 2.181.665 3.884.744 1.707.08 2.249.096 6.596.096s4.889-.02 6.596-.096c1.703-.08 2.864-.349 3.884-.744 1.051-.408 1.945-.957 2.835-1.845.888-.889 1.439-1.78 1.845-2.835.395-1.02.665-2.181.744-3.884.08-1.707.096-2.249.096-6.596s-.02-4.889-.096-6.596c-.08-1.703-.349-2.865-.744-3.884-.408-1.052-.957-1.945-1.845-2.835-.889-.889-1.78-1.439-2.835-1.845-1.02-.396-2.181-.665-3.884-.744-1.707-.08-2.249-.096-6.596-.096zm0 2.88c4.271 0 4.78.021 6.467.095 1.56.073 2.407.332 2.969.553.749.289 1.28.636 1.843 1.195.559.56.905 1.092 1.195 1.841.219.563.48 1.409.551 2.969.076 1.688.093 2.195.093 6.467s-.02 4.78-.099 6.467c-.081 1.56-.341 2.407-.561 2.969-.299.749-.639 1.28-1.199 1.843-.559.559-1.099.905-1.84 1.195-.56.219-1.42.48-2.98.551-1.699.076-2.199.093-6.479.093-4.281 0-4.781-.02-6.479-.099-1.561-.081-2.421-.341-2.981-.561-.759-.299-1.28-.639-1.839-1.199-.561-.559-.92-1.099-1.2-1.84-.22-.56-.479-1.42-.56-2.98-.06-1.68-.081-2.199-.081-6.459 0-4.261.021-4.781.081-6.481.081-1.56.34-2.419.56-2.979.28-.76.639-1.28 1.2-1.841.559-.559 1.08-.919 1.839-1.197.56-.221 1.401-.481 2.961-.561 1.7-.06 2.2-.08 6.479-.08zm0 4.904c-4.54 0-8.216 3.68-8.216 8.216 0 4.54 3.68 8.216 8.216 8.216 4.54 0 8.216-3.68 8.216-8.216 0-4.54-3.68-8.216-8.216-8.216zm0 13.549c-2.947 0-5.333-2.387-5.333-5.333s2.387-5.333 5.333-5.333 5.333 2.387 5.333 5.333-2.387 5.333-5.333 5.333zm10.461-13.873c0 1.06-.861 1.92-1.92 1.92-1.06 0-1.92-.861-1.92-1.92s.861-1.919 1.92-1.919c1.057-.001 1.92.86 1.92 1.919z" fill="#e4405f"/></svg>