<svg height="32" viewBox="0 0 32 32" width="32" xmlns="http://www.w3.org/2000/svg"><path d="m31.317 9.82-3.16-3.159c-.775-.775-2.043-2.043-2.818-2.818l-3.16-3.159c-.775-.775-2.155-.911-3.067-.304l-8.639 5.759c-.912.608-1.257 1.907-.767 2.887l2.203 4.405c.067.135.145.278.231.427l-11.142 11.142-1 7h6v-2h4v-4h4v-4h4v-2.225c.2.119.392.226.569.314l4.405 2.203c.98.49 2.279.145 2.887-.767l5.759-8.639c.608-.912.471-2.292-.304-3.066zm-26.61 16.887-1.414-1.414 9.737-9.737 1.414 1.414zm23.95-13.464-1.414 1.414c-.389.389-1.025.389-1.414 0l-8.485-8.485c-.389-.389-.389-1.025 0-1.414l1.414-1.414c.389-.389 1.025-.389 1.414 0l8.485 8.485c.389.389.389 1.025 0 1.414z"/></svg>