<svg height="32" viewBox="0 0 32 32" width="32" xmlns="http://www.w3.org/2000/svg"><path d="m16 0c-8.837 0-16 7.163-16 16s7.163 16 16 16 16-7.163 16-16-7.163-16-16-16zm-8 8h16c.286 0 .563.061.817.177l-8.817 10.286-8.817-10.287c.254-.116.531-.177.817-.177zm-2 14v-12c0-.042.002-.084.004-.125l5.864 6.842-5.8 5.8c-.045-.167-.069-.34-.069-.517zm18 2h-16c-.177 0-.35-.024-.517-.069l5.691-5.691 2.826 3.297 2.826-3.297 5.691 5.691c-.167.045-.34.069-.517.069zm2-2c0 .177-.024.35-.069.517l-5.8-5.8 5.865-6.842c.003.041.004.083.004.125z"/></svg>