<svg height="32" viewBox="0 0 32 32" width="32" xmlns="http://www.w3.org/2000/svg"><path d="m8 3c0 1.657-1.343 3-3 3s-3-1.343-3-3 1.343-3 3-3 3 1.343 3 3z"/><path d="m26 3c0 1.657-1.343 3-3 3s-3-1.343-3-3 1.343-3 3-3 3 1.343 3 3z"/><path d="m8 8h-6c-1.105 0-2 .895-2 2v10h2v12h2.5v-12h1v12h2.5v-12h2v-10c0-1.105-.895-2-2-2z"/><path d="m30.469 16 1.531-1.109-4.165-6.441c-.185-.281-.499-.45-.835-.45h-8c-.336 0-.65.169-.835.45l-4.165 6.441 1.531 1.109 3.458-4.487 1.202 2.804-4.191 7.683h3.833l.667 10h2v-10h1v10h2l.667-10h3.833l-4.191-7.683 1.202-2.804z"/></svg>