<svg height="32" viewBox="0 0 32 32" width="32" xmlns="http://www.w3.org/2000/svg"><path d="m0 0v32h32v-32zm26.584 7.581-1.716 1.645c-.121.092-.198.237-.198.399 0 .03.003.059.007.087v-.003 12.089c-.004.025-.007.053-.007.083 0 .162.077.306.196.398l.001.001 1.676 1.645v.361h-8.429v-.36l1.736-1.687c.171-.171.171-.22.171-.48v-9.773l-4.827 12.26h-.653l-5.621-12.26v8.217c-.007.046-.01.099-.01.152 0 .307.122.586.321.791l2.259 2.739v.361h-6.403v-.36l2.26-2.74c.189-.196.306-.464.306-.759 0-.065-.006-.129-.017-.19l.001.007v-9.501c.003-.025.004-.055.004-.085 0-.245-.106-.465-.274-.617l-.001-.001-2.008-2.419v-.36h6.232l4.817 10.564 4.235-10.565h5.941z"/></svg>