<svg height="32" viewBox="0 0 32 32" width="32" xmlns="http://www.w3.org/2000/svg"><path d="m16 2c8.837 0 16 7.163 16 16 0 6.025-3.331 11.271-8.25 14h-15.499c-4.92-2.729-8.25-7.975-8.25-14 0-8.837 7.163-16 16-16zm9.06 25.06c2.42-2.42 3.753-5.637 3.753-9.06h-2.813v-2h2.657c-.219-1.406-.668-2.755-1.33-4h-3.327v-2h2.009c-.295-.368-.611-.722-.949-1.06-1.444-1.444-3.173-2.501-5.06-3.119v2.178h-2v-2.658c-.656-.102-1.324-.155-2-.155s-1.344.053-2 .155v2.658h-2v-2.178c-1.887.617-3.615 1.674-5.06 3.119-.338.338-.654.692-.949 1.06h2.009v2h-3.327c-.662 1.245-1.111 2.594-1.33 4h2.657v2h-2.813c0 3.422 1.333 6.64 3.753 9.06.335.335.685.648 1.049.94h6.011l1.143-16h1.714l1.143 16h6.011c.364-.292.714-.606 1.049-.94z"/></svg>