<svg height="32" viewBox="0 0 32 32" width="32" xmlns="http://www.w3.org/2000/svg"><path d="m30 10h-6v-3c0-2.761-5.373-5-12-5s-12 2.239-12 5v20c0 2.761 5.373 5 12 5s12-2.239 12-5v-3h6c1.105 0 2-.895 2-2v-10c0-1.105-.895-2-2-2zm-24.498-1.925c-1.156-.381-1.857-.789-2.232-1.075.375-.286 1.075-.694 2.232-1.075 1.811-.597 4.118-.925 6.498-.925s4.688.329 6.498.925c1.156.381 1.857.789 2.232 1.075-.375.286-1.076.694-2.232 1.075-1.811.597-4.118.925-6.498.925s-4.688-.329-6.498-.925zm22.498 11.925h-4v-6h4z"/></svg>