<svg height="32" viewBox="0 0 32 32" width="32" xmlns="http://www.w3.org/2000/svg"><path d="m10 2h-8v8h8zm2-2v12h-12v-12zm-8 4h4v4h-4zm26-2h-8v8h8zm2-2v12h-12v-12zm-8 4h4v4h-4zm-14 18h-8v8h8zm2-2v12h-12v-12zm-8 4h4v4h-4zm10-24h2v2h-2zm2 2h2v2h-2zm-2 2h2v2h-2zm2 2h2v2h-2zm-2 2h2v2h-2zm2 2h2v2h-2zm-2 2h2v2h-2zm0 4h2v2h-2zm2 2h2v2h-2zm-2 2h2v2h-2zm2 2h2v2h-2zm-2 2h2v2h-2zm2 2h2v2h-2zm-2 2h2v2h-2zm2 2h2v2h-2zm14-14h2v2h-2zm-28 0h2v2h-2zm2-2h2v2h-2zm-4 0h2v2h-2zm8 0h2v2h-2zm2 2h2v2h-2zm2-2h2v2h-2zm6 2h2v2h-2zm2-2h2v2h-2zm2 2h2v2h-2zm2-2h2v2h-2zm2 2h2v2h-2zm2-2h2v2h-2zm2 6h2v2h-2zm-12 0h2v2h-2zm2-2h2v2h-2zm2 2h2v2h-2zm4 0h2v2h-2zm2-2h2v2h-2zm2 6h2v2h-2zm-12 0h2v2h-2zm2-2h2v2h-2zm4 0h2v2h-2zm2 2h2v2h-2zm2-2h2v2h-2zm2 6h2v2h-2zm-10-2h2v2h-2zm2 2h2v2h-2zm2-2h2v2h-2zm2 2h2v2h-2zm-6 2h2v2h-2zm4 0h2v2h-2zm4 0h2v2h-2z"/></svg>