<svg height="32" viewBox="0 0 32 32" width="32" xmlns="http://www.w3.org/2000/svg"><path d="m6.723 20.22c-.004 1.855-1.505 3.358-3.359 3.364h-.001c-1.856-.005-3.359-1.508-3.363-3.364.005-1.854 1.508-3.356 3.362-3.36h3.36zm1.694 0c.005-1.854 1.507-3.355 3.361-3.36 1.854.005 3.356 1.506 3.361 3.36v8.418c-.005 1.855-1.507 3.357-3.361 3.363h-.001c-1.855-.005-3.357-1.508-3.361-3.362zm3.362-13.497c-1.854-.005-3.355-1.506-3.361-3.359v-.001c.005-1.855 1.507-3.357 3.361-3.363h.001c1.855.005 3.357 1.508 3.361 3.362v3.36zm0 1.694c1.854.005 3.356 1.507 3.361 3.361v.001c-.005 1.854-1.507 3.356-3.361 3.361h-8.417c-1.855-.005-3.357-1.507-3.363-3.361v-.001c.005-1.855 1.508-3.357 3.362-3.361zm13.496 3.362c.005-1.855 1.508-3.357 3.362-3.361 1.855.005 3.357 1.507 3.363 3.361v.001c-.005 1.855-1.508 3.357-3.362 3.361h-3.363zm-1.691 0c-.005 1.855-1.509 3.358-3.364 3.361-1.854-.005-3.355-1.507-3.36-3.361v-8.416c.004-1.855 1.506-3.357 3.36-3.363 1.856.004 3.359 1.507 3.364 3.362zm-3.364 13.496c1.856.004 3.359 1.507 3.364 3.362-.005 1.856-1.508 3.359-3.364 3.363-1.854-.005-3.356-1.508-3.36-3.362v-3.363zm0-1.691c-1.855-.005-3.357-1.509-3.36-3.364.005-1.854 1.506-3.355 3.36-3.36h8.418c1.855.004 3.357 1.506 3.363 3.36-.004 1.856-1.507 3.359-3.362 3.364z" fill="#4a154b"/></svg>