<svg height="32" viewBox="0 0 32 32" width="32" xmlns="http://www.w3.org/2000/svg"><path d="m15 2c-8.284 0-15 6.716-15 15s6.716 15 15 15 15-6.716 15-15-6.716-15-15-15zm8.487 20c.268-1.264.437-2.606.492-4h3.983c-.104 1.381-.426 2.722-.959 4zm-16.974-10c-.268 1.264-.437 2.606-.492 4h-3.983c.104-1.381.426-2.722.959-4zm14.926 0c.3 1.28.481 2.62.54 4h-5.979v-4zm-5.439-2v-5.854c.456.133.908.355 1.351.668.831.586 1.625 1.488 2.298 2.609.465.775.867 1.638 1.203 2.578h-4.852zm-5.649-2.578c.673-1.121 1.467-2.023 2.298-2.609.443-.313.895-.535 1.351-.668v5.854h-4.852c.336-.94.738-1.803 1.203-2.578zm3.649 4.578v4h-5.979c.059-1.38.24-2.72.54-4zm-11.003 10c-.533-1.278-.854-2.619-.959-4h3.983c.055 1.394.224 2.736.492 4zm5.024-4h5.979v4h-5.439c-.3-1.28-.481-2.62-.54-4zm5.979 6v5.854c-.456-.133-.908-.355-1.351-.668-.831-.586-1.625-1.488-2.298-2.609-.465-.775-.867-1.638-1.203-2.578h4.852zm5.649 2.578c-.673 1.121-1.467 2.023-2.298 2.609-.443.312-.895.535-1.351.668v-5.854h4.852c-.336.94-.738 1.802-1.203 2.578zm-3.649-4.578v-4h5.979c-.059 1.38-.24 2.72-.54 4zm7.98-6c-.055-1.394-.224-2.736-.492-4h3.516c.533 1.278.855 2.619.959 4zm1.978-6h-2.997c-.582-1.836-1.387-3.447-2.354-4.732 1.329.636 2.533 1.488 3.585 2.54.671.671 1.261 1.404 1.766 2.192zm-20.15-2.192c1.052-1.052 2.256-1.904 3.585-2.54-.967 1.285-1.771 2.896-2.354 4.732h-2.997c.504-.788 1.094-1.521 1.766-2.192zm-1.766 16.192h2.997c.583 1.836 1.387 3.447 2.354 4.732-1.329-.636-2.533-1.488-3.585-2.54-.671-.671-1.261-1.404-1.766-2.192zm20.15 2.192c-1.052 1.052-2.256 1.904-3.585 2.54.967-1.285 1.771-2.896 2.354-4.732h2.997c-.504.788-1.094 1.521-1.766 2.192z"/></svg>