<svg height="32" viewBox="0 0 32 32" width="32" xmlns="http://www.w3.org/2000/svg"><path d="m7 0c-3.314 0-6 3.134-6 7 0 3.31 1.969 6.083 4.616 6.812l-.993 16.191c-.067 1.098.778 1.996 1.878 1.996h1c1.1 0 1.945-.898 1.878-1.996l-.993-16.191c2.646-.729 4.616-3.502 4.616-6.812 0-3.866-2.686-7-6-7zm20.167 0-1.667 10h-1.25l-.833-10h-.833l-.833 10h-1.25l-1.667-10h-.833v13c0 .552.448 1 1 1h2.604l-.982 16.004c-.067 1.098.778 1.996 1.878 1.996h1c1.1 0 1.945-.898 1.878-1.996l-.982-16.004h2.604c.552 0 1-.448 1-1v-13h-.833z"/></svg>