<svg height="32" viewBox="0 0 32 32" width="32" xmlns="http://www.w3.org/2000/svg"><path d="m4 28h28v4h-32v-32h4zm5-2c-1.657 0-3-1.343-3-3s1.343-3 3-3c.088 0 .176.005.262.012l3.225-5.375c-.307-.471-.487-1.033-.487-1.638 0-1.657 1.343-3 3-3s3 1.343 3 3c0 .604-.179 1.167-.487 1.638l3.225 5.375c.086-.007.174-.012.262-.012.067 0 .133.003.198.007l5.324-9.316c-.329-.482-.522-1.064-.522-1.691 0-1.657 1.343-3 3-3s3 1.343 3 3-1.343 3-3 3c-.067 0-.133-.003-.198-.007l-5.324 9.316c.329.481.522 1.064.522 1.691 0 1.657-1.343 3-3 3s-3-1.343-3-3c0-.604.179-1.167.487-1.638l-3.225-5.375c-.086.007-.174.012-.262.012s-.176-.005-.262-.012l-3.225 5.375c.307.471.487 1.033.487 1.637 0 1.657-1.343 3-3 3z"/></svg>