<svg height="32" viewBox="0 0 32 32" width="32" xmlns="http://www.w3.org/2000/svg"><path d="m16 26c1.105 0 2 .895 2 2v2c0 1.105-.895 2-2 2s-2-.895-2-2v-2c0-1.105.895-2 2-2zm0-20c-1.105 0-2-.895-2-2v-2c0-1.105.895-2 2-2s2 .895 2 2v2c0 1.105-.895 2-2 2zm14 8c1.105 0 2 .895 2 2s-.895 2-2 2h-2c-1.105 0-2-.895-2-2s.895-2 2-2zm-24 2c0 1.105-.895 2-2 2h-2c-1.105 0-2-.895-2-2s.895-2 2-2h2c1.105 0 2 .895 2 2zm19.899 7.071 1.414 1.414c.781.781.781 2.047 0 2.828s-2.047.781-2.828 0l-1.414-1.414c-.781-.781-.781-2.047 0-2.828s2.047-.781 2.828 0zm-19.798-14.142-1.414-1.414c-.781-.781-.781-2.047 0-2.828s2.047-.781 2.828 0l1.414 1.414c.781.781.781 2.047 0 2.828s-2.047.781-2.828 0zm19.798 0c-.781.781-2.047.781-2.828 0s-.781-2.047 0-2.828l1.414-1.414c.781-.781 2.047-.781 2.828 0s.781 2.047 0 2.828zm-19.798 14.142c.781-.781 2.047-.781 2.828 0s.781 2.047 0 2.828l-1.414 1.414c-.781.781-2.047.781-2.828 0s-.781-2.047 0-2.828z"/><path d="m16 8c-4.418 0-8 3.582-8 8s3.582 8 8 8 8-3.582 8-8-3.582-8-8-8zm0 13c-2.761 0-5-2.239-5-5s2.239-5 5-5 5 2.239 5 5-2.239 5-5 5z"/></svg>