<svg height="32" viewBox="0 0 32 32" width="32" xmlns="http://www.w3.org/2000/svg"><path d="m32 14h-3.154c-.864-5.57-5.276-9.982-10.846-10.846v-3.154h-4v3.154c-5.57.864-9.982 5.276-10.846 10.846h-3.154v4h3.154c.864 5.57 5.276 9.982 10.846 10.846v3.154h4v-3.154c5.57-.864 9.982-5.276 10.846-10.846h3.154zm-7.224 0h-3.118c-.603-1.705-1.953-3.056-3.658-3.658v-3.118c3.36.765 6.01 3.416 6.776 6.776zm-8.776 4c-1.105 0-2-.895-2-2s.895-2 2-2 2 .895 2 2-.895 2-2 2zm-2-10.776v3.118c-1.705.603-3.056 1.953-3.658 3.658h-3.118c.765-3.36 3.416-6.01 6.776-6.776zm-6.776 10.776h3.118c.603 1.705 1.953 3.056 3.658 3.658v3.118c-3.36-.765-6.01-3.416-6.776-6.776zm10.776 6.776v-3.118c1.705-.603 3.056-1.953 3.658-3.658h3.118c-.765 3.36-3.416 6.01-6.776 6.776z"/></svg>