<svg height="32" viewBox="0 0 32 32" width="32" xmlns="http://www.w3.org/2000/svg"><path d="m16 32c8.837 0 16-7.163 16-16s-7.163-16-16-16-16 7.163-16 16 7.163 16 16 16zm0-29c7.18 0 13 5.82 13 13s-5.82 13-13 13-13-5.82-13-13 5.82-13 13-13zm.961 19.22c4.383-.866 7.785-2.861 9.014-5.519-.677 5.249-5.047 9.299-10.339 9.299-3.726 0-6.996-2.009-8.84-5.03 2.2 1.721 6.079 2.056 10.165 1.249zm3.039-11.22c0-1.657.895-3 2-3s2 1.343 2 3-.895 3-2 3-2-1.343-2-3zm-9 .609c-1.306 0-2.417.489-2.829 1.172-.111-.183-.171-1.005-.171-1.211 0-.971 1.343-1.758 3-1.758s3 .787 3 1.758c0 .206-.061 1.028-.171 1.211-.412-.683-1.522-1.172-2.829-1.172z"/></svg>