<svg height="32" viewBox="0 0 32 32" width="32" xmlns="http://www.w3.org/2000/svg"><path d="m31.327 8.273c-.386-1.353-1.431-2.398-2.756-2.777l-.028-.007c-2.493-.668-12.528-.668-12.528-.668s-10.009-.013-12.528.668c-1.353.386-2.398 1.431-2.777 2.756l-.007.028c-.443 2.281-.696 4.903-.696 7.585v.163-.008.126c0 2.682.253 5.304.737 7.845l-.041-.26c.386 1.353 1.431 2.398 2.756 2.777l.028.007c2.491.669 12.528.669 12.528.669s10.008 0 12.528-.669c1.353-.386 2.398-1.431 2.777-2.756l.007-.028c.425-2.233.668-4.803.668-7.429 0-.099 0-.198-.001-.297v.015c.001-.092.001-.201.001-.31 0-2.626-.243-5.196-.708-7.687l.04.258zm-18.515 12.528v-9.591l8.352 4.803z" fill="#f00"/></svg>