<svg id="Layer_1" data-name="Layer 1" xmlns="http://www.w3.org/2000/svg" width="64" height="64" viewBox="0 0 64 64">
  <title>icon-heart</title>
  <g>
    <path d="M57.74,9.86a16.22,16.22,0,0,0-24.06-.14L32,11.47,30.38,9.72a16.21,16.21,0,0,0-23.92,0,18.41,18.41,0,0,0-5,12.71,18.43,18.43,0,0,0,5,12.71L27.6,57.6a6,6,0,0,0,8.86,0l21-22.32A19,19,0,0,0,57.74,9.86ZM55.25,32.93l-21,22.32a3,3,0,0,1-4.43,0L8.67,32.78a15.29,15.29,0,0,1,0-20.71,13.22,13.22,0,0,1,19.5,0l1.65,1.76-2.53,2.69a1.74,1.74,0,0,0,0,2.35,1.53,1.53,0,0,0,1.11.49,1.51,1.51,0,0,0,1.1-.49l6.4-6.8a13.21,13.21,0,0,1,19.6.12A15.45,15.45,0,0,1,55.25,32.93Z" style="fill: #1a1a1a"/>
    <path d="M57.05,21.67a12.45,12.45,0,0,0-3.32-7.83,11.27,11.27,0,0,0-5-3.12,1.54,1.54,0,0,0-1.92,1.16,1.68,1.68,0,0,0,1.08,2,8.17,8.17,0,0,1,3.64,2.26,9.09,9.09,0,0,1,2.41,5.69,1.61,1.61,0,0,0,1.56,1.56h.1A1.62,1.62,0,0,0,57.05,21.67Z" style="fill: #1a1a1a"/>
  </g>
</svg>
