<svg id="Layer_1" data-name="Layer 1" xmlns="http://www.w3.org/2000/svg" width="64" height="64" viewBox="0 0 64 64">
  <title>icon-fusion</title>
  <g>
    <path d="M33.58,25.24a8,8,0,1,0,7.92,8A8,8,0,0,0,33.58,25.24Zm-.1,12.93a5,5,0,1,1,5-4.92A5,5,0,0,1,33.48,38.17Z" style="fill: #1a1a1a"/>
    <path d="M62.77,19.63c.62-4.31,0-8-1.87-10.72a5.21,5.21,0,0,0,.49-2.2A5.36,5.36,0,0,0,51.38,4c-5.06-.29-11.26,1.53-17.69,5.18C22.8,2.78,12.91,2,7.73,7.05a12.69,12.69,0,0,0-3.45,9.26A5.37,5.37,0,0,0,6.33,26.62h.09A47.85,47.85,0,0,0,9.49,33C3.09,43.93,2.26,53.83,7.36,59c2.25,2.28,5.44,3.42,9.24,3.45,4.81,0,10.61-1.72,16.75-5.21,6.08,3.58,11.86,5.42,16.67,5.45a12.67,12.67,0,0,0,9.29-3.32c5.17-5.1,4.48-15-1.76-26A38.86,38.86,0,0,0,62.77,19.63ZM56,4.33a2.35,2.35,0,1,1-2.36,2.33A2.35,2.35,0,0,1,56,4.33ZM50.67,7A5.38,5.38,0,0,0,56,12a5.28,5.28,0,0,0,2.81-.78,12.85,12.85,0,0,1,1,7.94,34.18,34.18,0,0,1-4,11.23,68.29,68.29,0,0,0-8.61-10.64A67.7,67.7,0,0,0,36.62,11C41.79,8.29,46.66,6.9,50.67,7ZM6.35,23.6a2.35,2.35,0,1,1,2.36-2.33A2.35,2.35,0,0,1,6.35,23.6Zm3,2.13A5.36,5.36,0,0,0,7.3,16,9.66,9.66,0,0,1,9.85,9.2C13.74,5.37,21.78,6.11,30.74,11A70.13,70.13,0,0,0,11.33,30.11,41.32,41.32,0,0,1,9.32,25.73Zm.19,31.15C5.68,53,6.41,45,11.29,36A68.35,68.35,0,0,0,19.9,46.64,68.19,68.19,0,0,0,30.42,55.4C21.4,60.15,13.34,60.77,9.51,56.88ZM22.05,44.52a63.35,63.35,0,0,1-9-11.46,63.69,63.69,0,0,1,9.21-11.32,63.3,63.3,0,0,1,11.45-9A64.13,64.13,0,0,1,45,21.91a63.64,63.64,0,0,1,9,11.45,63.69,63.69,0,0,1-9.21,11.32,64.16,64.16,0,0,1-11.45,9A64.58,64.58,0,0,1,22.05,44.52Zm35.14,12.7c-3.89,3.83-11.94,3.1-20.89-1.77a67.9,67.9,0,0,0,10.64-8.62,67.7,67.7,0,0,0,8.77-10.52C60.45,45.33,61.08,53.39,57.19,57.22Z" style="fill: #1a1a1a"/>
  </g>
</svg>
