<svg id="Layer_1" data-name="Layer 1" xmlns="http://www.w3.org/2000/svg" width="64" height="64" viewBox="0 0 64 64">
  <title>icon-human</title>
  <path d="M58.68,47.49A36.06,36.06,0,0,0,47.93,40.4c-1.38-.63-2.8-1.18-4.17-1.71l-1-.41a2.92,2.92,0,0,1-2-2,2.34,2.34,0,0,1,.81-2.15c4.86-4.79,7.18-11,6.89-18.46C48.15,8.51,44.16,3.93,36.57,2.06a19.73,19.73,0,0,0-4.41-.56,19.51,19.51,0,0,0-4.36.56C20.2,3.93,16.21,8.51,15.93,15.67c-.28,7.47,2,13.5,6.88,18.45a2.4,2.4,0,0,1,.81,2.19,2.92,2.92,0,0,1-2,2l-1,.41c-1.37.53-2.79,1.08-4.17,1.72A35.86,35.86,0,0,0,5.68,47.49a6.9,6.9,0,0,0-2.18,6C3.78,55.1,4.83,57.33,8.28,59a26.65,26.65,0,0,0,5.31,1.82c5.77,1.37,11.57,1.58,18.63,1.72,7-.14,12.79-.35,18.56-1.72A27.1,27.1,0,0,0,56.09,59h0a7.41,7.41,0,0,0,4.4-5.38A7.2,7.2,0,0,0,58.68,47.49ZM57.21,53a4.08,4.08,0,0,1-2.54,3A24,24,0,0,1,50,57.55C44.56,58.83,38.93,59,32.22,59.18c-6.79-.14-12.42-.35-17.87-1.63A23.88,23.88,0,0,1,9.7,56C8,55.15,7,54.11,6.77,53A3.63,3.63,0,0,1,8,49.84a33.12,33.12,0,0,1,9.8-6.42c1.28-.59,2.65-1.12,4-1.63l1.06-.41a6.22,6.22,0,0,0,4-4.39,5.73,5.73,0,0,0-1.71-5.22c-4.23-4.25-6.17-9.47-5.91-16,.21-5.65,3.18-9,9.34-10.51a16.26,16.26,0,0,1,3.56-.47,16.39,16.39,0,0,1,3.61.47c6.15,1.51,9.12,4.86,9.34,10.51.25,6.58-1.68,11.8-5.9,16a5.64,5.64,0,0,0-1.74,5.18,6.21,6.21,0,0,0,4,4.44l1.06.41c1.33.51,2.69,1,4,1.63a33,33,0,0,1,9.8,6.42A3.84,3.84,0,0,1,57.21,53Z" style="fill: #1a1a1a"/>
</svg>
